<?xml version="1.0" standalone="no"?>
<!DOCTYPE svg PUBLIC "-//W3C//DTD SVG 1.1//EN" "http://www.w3.org/Graphics/SVG/1.1/DTD/svg11.dtd" >
<svg xmlns="http://www.w3.org/2000/svg">
<metadata>
Created by FontPrep 20130207 at Thu Jun  9 14:49:02 2016
 By Raymund Tuquero
(c) 1990-2006 Apple Computer Inc. (c) 1981 Linotype AG (c) 1990-91 Type Solutions Inc.
</metadata>
<defs>
<font id="610d85844426fe869d03291a77cd7d53" horiz-adv-x='1024' >
  <font-face 
    font-family="Helvetica-Bold"
    font-weight="700"
    font-stretch="normal"
    units-per-em="2048"
    panose-1="0 0 0 0 0 0 0 0 0 0"
    ascent="1638"
    descent="-410"
    x-height="1088"
    cap-height="1470"
    bbox="-2084 -985 2942 2374"
    underline-thickness="101"
    underline-position="-105"
    unicode-range="U+0008-FFA7"
  />
<missing-glyph horiz-adv-x="1479" 
d="M1157 184v1106h-819v-1106h819zM154 0v1474h1187v-1474h-1187z" />
    <glyph glyph-name="fi" unicode="fi" 
d="M555 1253q-56 0 -71 -37t-13 -116v-20h187v-201h-187v-879h-284v879h-159v201h156v70q0 174 73 256t285 83q22 0 109 -6v-232q-40 2 -96 2zM827 1085h284v-1085h-284v1085zM827 1483h279v-260h-279v260z" />
    <glyph glyph-name="fl" unicode="fl" 
d="M555 1253q-56 0 -71 -37t-13 -116v-20h187v-201h-187v-879h-284v879h-159v201h156v70q0 174 73 256t285 83q22 0 109 -6v-232q-40 2 -96 2zM827 1474h284v-1474h-284v1474z" />
    <glyph glyph-name=".notdef" horiz-adv-x="1479" 
d="M1157 184v1106h-819v-1106h819zM154 0v1474h1187v-1474h-1187z" />
    <glyph glyph-name=".null" horiz-adv-x="0" 
 />
    <glyph glyph-name=".null" horiz-adv-x="0" 
 />
    <glyph glyph-name=".null" horiz-adv-x="0" 
 />
    <glyph glyph-name="nonmarkingreturn" unicode="&#x9;" horiz-adv-x="569" 
 />
    <glyph glyph-name="nonmarkingreturn" unicode="&#xd;" horiz-adv-x="569" 
 />
    <glyph glyph-name="nonmarkingreturn" unicode="&#xa;" horiz-adv-x="569" 
 />
    <glyph glyph-name="space" unicode=" " horiz-adv-x="569" 
 />
    <glyph glyph-name="exclam" unicode="!" horiz-adv-x="682" 
d="M232 289h298v-289h-298v289zM225 1469h313v-374l-81 -688h-149l-83 688v374z" />
    <glyph glyph-name="quotedbl" unicode="&#x22;" horiz-adv-x="971" 
d="M440 1474l-48 -609h-180l-45 609h273zM819 1474l-47 -609h-180l-46 609h273z" />
    <glyph glyph-name="numbersign" unicode="#" horiz-adv-x="1139" 
d="M45 568h203l79 292h-204l45 168h204l109 403h199l-109 -403h166l106 403h199l-106 -403h201l-45 -168h-201l-81 -292h204l-45 -168h-204l-107 -400h-199l107 400h-164l-109 -400h-199l109 400h-203zM611 568l81 292h-166l-78 -292h163z" />
    <glyph glyph-name="dollar" unicode="$" horiz-adv-x="1139" 
d="M618 -237h-97v199q-197 22 -294 86q-171 115 -168 392h270q14 -126 39 -169q39 -67 153 -87v427l-81 24q-191 56 -269.5 156t-78.5 241q0 184 116 300q71 71 141 93t172 30v133h95v-135q163 -13 256 -80q169 -107 175 -347h-263q-8 89 -30 130q-38 71 -138 78v-381
q238 -82 320 -145q135 -105 135 -296q0 -252 -185 -366q-113 -70 -268 -82v-201zM350 1060q0 -80 63 -129q35 -27 108 -50v351q-171 -4 -171 -172zM794 368q0 100 -59 150q-35 29 -119 60v-391q79 10 115 36q63 45 63 145z" />
    <glyph glyph-name="percent" unicode="%" horiz-adv-x="1821" 
d="M1232 1450h152l-808 -1488h-155zM1391 -29q-154 0 -263 109.5t-109 263.5t109 262.5t263 108.5t263 -109t109 -263t-109 -263t-263 -109zM1391 502q-66 0 -112.5 -46.5t-46.5 -112.5t46.5 -112.5t112.5 -46.5t112.5 46.5t46.5 112.5t-46.5 112.5t-112.5 46.5zM420 699
q-154 0 -263.5 109t-109.5 263t109 263t263 109t263 -109t109 -263t-108.5 -263t-262.5 -109zM578 1071q0 66 -46.5 112.5t-112.5 46.5t-112.5 -46.5t-46.5 -112.5t46.5 -112.5t112.5 -46.5t112.5 46.5t46.5 112.5z" />
    <glyph glyph-name="ampersand" unicode="&#x26;" horiz-adv-x="1479" 
d="M596 203q143 0 245 105l-270 334q-107 -71 -141.5 -125t-34.5 -123t59.5 -130t141.5 -61zM794 1130q0 54 -30 90t-80 36t-90 -26q-42 -26 -42 -80t23 -90t83 -110q60 42 86 71q50 55 50 109zM290 1131q0 157 108 247.5t272 90.5t267 -92.5t103 -229.5t-61.5 -218
t-180.5 -150l209 -258q74 107 76 242h253q-11 -238 -168 -441l268 -322h-346l-102 125q-74 -69 -138 -102q-114 -59 -263 -59q-224 0 -350 132t-126 279t66 242t216 188l31 19q-134 150 -134 307z" />
    <glyph glyph-name="quotesingle" unicode="'" horiz-adv-x="487" 
d="M372 1474l-50 -609h-173l-50 609h273z" />
    <glyph glyph-name="parenleft" unicode="(" horiz-adv-x="682" 
d="M384 540q0 -306 89 -563q52 -152 184 -390h-211l-71 97q-69 88 -147 262q-139 310 -139 598t117 558q79 184 231 396h215l-61 -112q-207 -380 -207 -846z" />
    <glyph glyph-name="parenright" unicode=")" horiz-adv-x="682" 
d="M589 544q0 -288 -139 -598q-78 -174 -147 -262l-71 -97h-211q132 238 184 390q89 257 89 563q0 466 -207 846l-61 112h215q152 -212 231 -396q117 -270 117 -558z" />
    <glyph glyph-name="asterisk" unicode="*" horiz-adv-x="797" 
d="M303 1483h173v-241l209 68l47 -149l-213 -66l139 -199l-128 -91l-139 188l-143 -188l-128 91l140 199l-213 66l47 149l209 -68v241z" />
    <glyph glyph-name="plus" unicode="+" horiz-adv-x="1196" 
d="M73 412v261h410v410h263v-410h410v-261h-410v-412h-263v412h-410z" />
    <glyph glyph-name="comma" unicode="," horiz-adv-x="569" 
d="M118 0v298h308v-258q0 -271 -140.5 -329t-167.5 -58v110q86 24 126.5 80t46.5 157h-173z" />
    <glyph glyph-name="hyphen" unicode="-" horiz-adv-x="682" 
d="M47 706h574v-270h-574v270z" />
    <glyph glyph-name="period" unicode="." horiz-adv-x="569" 
d="M128 298h303v-298h-303v298z" />
    <glyph glyph-name="slash" unicode="/" horiz-adv-x="569" 
d="M459 1519h237l-573 -1519h-235z" />
    <glyph glyph-name="zero" unicode="0" horiz-adv-x="1139" 
d="M1064 711q0 -359 -111.5 -553t-388.5 -194t-388.5 194t-111.5 553t111.5 554t388.5 195t388.5 -195t111.5 -554zM564 196q127 0 166.5 132.5t39.5 388.5t-39.5 382t-166.5 126t-168 -126t-41 -382t41 -388.5t168 -132.5z" />
    <glyph glyph-name="one" unicode="1" horiz-adv-x="1139" 
d="M142 1000v194q135 6 205 22q69 16 115 63q46 48 61 100t15 71h237v-1450h-292v1000h-341z" />
    <glyph glyph-name="two" unicode="2" horiz-adv-x="1139" 
d="M552 1457q230 0 366 -127.5t136 -337.5q0 -161 -96 -286q-63 -83 -207 -185l-114 -81q-107 -76 -146.5 -110t-66.5 -79h633v-251h-993q4 156 67 285q61 145 273 297t270 212q89 96 89 198t-51 163t-146 61q-130 0 -177 -97q-27 -56 -32 -178h-277q20 516 472 516z" />
    <glyph glyph-name="three" unicode="3" horiz-adv-x="1139" 
d="M334 445q0 -87 28 -144q52 -105 189 -105q84 0 146.5 57.5t62.5 165.5q0 143 -116 191q-66 27 -208 27v204q139 2 194 27q95 42 95 170q0 83 -48.5 135t-142.5 52t-142 -64t-46 -171h-266q4 108 37 205q35 85 101 147t142.5 88.5t188.5 26.5q208 0 335.5 -107.5
t127.5 -288.5q0 -128 -76 -216q-48 -55 -100 -75q39 0 112 -67q109 -101 109 -281t-127.5 -319t-377.5 -139q-308 0 -428 201q-63 107 -70 280h280z" />
    <glyph glyph-name="four" unicode="4" horiz-adv-x="1139" 
d="M628 535v626l-363 -626h363zM1071 312h-164v-312h-279v312h-574v249l533 880h320v-906h164v-223z" />
    <glyph glyph-name="five" unicode="5" horiz-adv-x="1139" 
d="M532 720q-124 0 -177 -102l-256 12l102 801h799v-242h-593l-52 -317q65 44 115 62t139 18q180 0 314 -121t134 -337t-129 -374t-386 -158q-207 0 -340 111t-148 315h284q17 -93 65 -143.5t147 -50.5t154.5 74.5t55.5 186.5t-52 188.5t-176 76.5z" />
    <glyph glyph-name="six" unicode="6" horiz-adv-x="1139" 
d="M632 941q187 0 310.5 -130.5t123.5 -334.5t-121 -359t-385 -155t-395 229q-101 179 -101 462q0 166 14 270q46 341 203 441t297 100q202 0 322 -103.5t135 -275.5h-284q0 35 -27 77q-46 68 -139 68q-139 0 -198 -156q-32 -86 -44 -254q102 121 289 121zM572 194
q96 0 150.5 72t54.5 192t-61.5 187.5t-143.5 67.5t-138 -44q-84 -65 -84 -196t63 -205t159 -74z" />
    <glyph glyph-name="seven" unicode="7" horiz-adv-x="1139" 
d="M552 0h-296q13 390 256 811q157 261 263 364h-723l4 256h1024v-223q-64 -63 -178 -224.5t-183 -315.5t-118 -348.5t-49 -319.5z" />
    <glyph glyph-name="eight" unicode="8" horiz-adv-x="1139" 
d="M560 865q86 0 133.5 50.5t47.5 132.5t-47.5 130.5t-133.5 48.5t-135 -48.5t-49 -130.5t49 -132.5t135 -50.5zM104 1076q0 158 119 269.5t336 111.5t336 -111.5t119 -269.5q0 -71 -31.5 -152.5t-136.5 -141.5q107 -60 161 -159t54 -221q0 -183 -135.5 -311.5
t-378.5 -128.5t-368 128.5t-125 311.5q0 122 55.5 221t162.5 149q-105 70 -136.5 151.5t-31.5 152.5zM559 196q98 0 153.5 59t55.5 168t-56.5 166.5t-152.5 57.5t-152.5 -57.5t-56.5 -166.5t55.5 -168t153.5 -59z" />
    <glyph glyph-name="nine" unicode="9" horiz-adv-x="1139" 
d="M350 966q0 -258 214 -258q59 0 111 34q97 62 97 200t-58 210t-144 72t-138 -41q-82 -64 -82 -217zM507 476q-178 0 -312 119.5t-134 348.5t134.5 373.5t349.5 144.5q524 0 524 -730q0 -263 -67 -439q-128 -335 -470 -335q-163 0 -293 96.5t-149 281.5h284q10 -64 54 -104
t117 -40q141 0 198 156q31 86 39 251q-97 -123 -275 -123z" />
    <glyph glyph-name="colon" unicode=":" horiz-adv-x="682" 
d="M232 298h303v-298h-303v298zM232 1047h303v-298h-303v298z" />
    <glyph glyph-name="semicolon" unicode=";" horiz-adv-x="682" 
d="M232 0v298h308v-258q0 -270 -140 -328.5t-168 -58.5v110q101 29 141 103q25 46 32 134h-173zM232 1047h303v-298h-303v298z" />
    <glyph glyph-name="less" unicode="&#x3c;" horiz-adv-x="1196" 
d="M23 670l1178 448v-279l-841 -297l841 -298v-278l-1178 448v256z" />
    <glyph glyph-name="equal" unicode="=" horiz-adv-x="1196" 
d="M1156 440v-263h-1083v263h1083zM1156 907v-263h-1083v263h1083z" />
    <glyph glyph-name="greater" unicode="&#x3e;" horiz-adv-x="1196" 
d="M1201 414l-1178 -448v278l842 298l-842 297v279l1178 -450v-254z" />
    <glyph glyph-name="question" unicode="?" 
d="M612 1489q226 0 375.5 -108t149.5 -320q0 -130 -65 -219q-38 -54 -146 -138l-71 -55q-57 -45 -73 -94t-17 -129h-270q6 169 32 233.5t134 148.5l73 57q98 74 98 185q0 71 -44.5 133.5t-161.5 62.5t-165.5 -77t-48.5 -160h-289q12 285 199 404q118 76 290 76zM488 289h298
v-289h-298v289z" />
    <glyph glyph-name="at" unicode="@" horiz-adv-x="1997" 
d="M597 686q0 168 123 326t302 158q105 0 156 -52t66 -109l36 126h189l-128 -434q-28 -99 -28 -126t20 -53.5t64 -26.5q86 0 172.5 112.5t86.5 298.5q0 275 -236 395q-148 76 -333 76q-340 0 -536 -198q-196 -197 -196 -475t218 -449q193 -151 471 -151q190 0 355 70
q90 37 186 105l24 17l73 -112q-290 -225 -651 -225q-415 0 -643 258q-189 214 -189 507q0 328 242 562t629 235q316 1 528 -169t212 -458q0 -227 -138 -389.5t-315 -162.5q-92 0 -141.5 52t-49.5 107q0 14 2 34q-101 -192 -289 -192q-121 0 -201.5 87.5t-80.5 255.5z
M1069 1033q-104 0 -179 -129.5t-75 -250.5q0 -73 33.5 -118t94.5 -45q107 0 175.5 162.5t68.5 235.5t-32 109t-86 36z" />
    <glyph glyph-name="A" unicode="A" horiz-adv-x="1479" 
d="M578 1474h348l522 -1474h-334l-95 303h-543l-102 -303h-322zM559 557h374l-184 580z" />
    <glyph glyph-name="B" unicode="B" horiz-adv-x="1479" 
d="M1377 445q0 -131 -66 -235q-93 -153 -231 -181.5t-251 -28.5h-668v1474h716q271 -4 384 -157q68 -94 68 -227t-68 -215q-38 -46 -112 -84q228 -83 228 -346zM817 256q249 0 249 200q0 126 -95 168q-53 24 -149 25h-367v-393h362zM455 1218v-325h362q97 0 157.5 36.5
t60.5 134.5t-80 131q-69 23 -176 23h-324z" />
    <glyph glyph-name="C" unicode="C" horiz-adv-x="1479" 
d="M757 1502q372 0 544 -244q95 -137 102 -275h-308q-30 106 -77 160q-84 96 -250 96t-263.5 -135.5t-97.5 -383.5t102.5 -371.5t262.5 -123.5t245 106q47 57 78 171h305q-40 -241 -204.5 -392t-421.5 -151q-318 1 -500 205t-182 576t207 580q180 182 458 182z" />
    <glyph glyph-name="D" unicode="D" horiz-adv-x="1479" 
d="M791 0h-635v1474h635q328 -5 470 -207t142 -495t-118 -497q-160 -275 -494 -275zM455 1218v-962h284q218 0 304 215q47 118 47 312t-70.5 314.5t-280.5 120.5h-284z" />
    <glyph glyph-name="E" unicode="E" horiz-adv-x="1366" 
d="M1246 1213h-780v-313h716v-256h-716v-379h816v-265h-1117v1474h1081v-261z" />
    <glyph glyph-name="F" unicode="F" 
d="M156 1472h1045v-259h-739v-339h647v-256h-647v-618h-306v1472z" />
    <glyph glyph-name="G" unicode="G" horiz-adv-x="1593" 
d="M807 1258q-178 0 -292.5 -134.5t-114.5 -405.5t124 -384t280 -113t255.5 89.5t122.5 234.5h-341v246h614v-791h-204l-31 184q-89 -105 -160 -148q-122 -75 -300 -75q-293 0 -480 203q-195 204 -195 560t197 572t521 216q281 0 451.5 -142.5t195.5 -355.5h-303
q-35 151 -171 211q-76 33 -169 33z" />
    <glyph glyph-name="H" unicode="H" horiz-adv-x="1479" 
d="M154 0v1474h305v-562h576v562h306v-1474h-306v658h-576v-658h-305z" />
    <glyph glyph-name="I" unicode="I" horiz-adv-x="569" 
d="M438 0h-306v1474h306v-1474z" />
    <glyph glyph-name="J" unicode="J" horiz-adv-x="1139" 
d="M990 448q0 -484 -374.5 -484t-472.5 150.5t-98 410.5v34h291v-34q4 -171 37 -240.5t143 -69.5t145 76q21 45 21 152v1031h308v-1026z" />
    <glyph glyph-name="K" unicode="K" horiz-adv-x="1479" 
d="M161 1474h303v-607l569 607h398l-604 -607l635 -867h-396l-455 644l-147 -151v-493h-303v1474z" />
    <glyph glyph-name="L" unicode="L" 
d="M156 1474h308v-1209h730v-265h-1038v1474z" />
    <glyph glyph-name="M" unicode="M" horiz-adv-x="1706" 
d="M438 0h-287v1474h448l268 -1159l266 1159h443v-1474h-287v997q0 43 1 120.5t1 119.5l-279 -1237h-299l-277 1237l2 -240v-997z" />
    <glyph glyph-name="N" unicode="N" horiz-adv-x="1479" 
d="M151 1474h323l587 -1029v1029h287v-1474h-308l-602 1047v-1047h-287v1474z" />
    <glyph glyph-name="O" unicode="O" horiz-adv-x="1593" 
d="M808 -41q-316 0 -483 172q-224 211 -224 612t224 604q167 172 483 172t483 -172q223 -203 223 -604t-223 -612q-167 -172 -483 -172zM1206 738q0 248 -107.5 384t-290.5 136t-292 -135t-109 -384t109 -384t292 -135t290.5 135t107.5 383z" />
    <glyph glyph-name="P" unicode="P" horiz-adv-x="1366" 
d="M782 530h-313v-530h-306v1474h642q222 0 354 -114t132 -364t-132 -358t-377 -108zM756 784q230 0 230 168t-60.5 217t-169.5 49h-287v-434h287z" />
    <glyph glyph-name="Q" unicode="Q" horiz-adv-x="1593" 
d="M805 -41q-288 0 -476 172q-228 207 -228 609t234 610q191 169 476 169t479 -179q224 -207 224 -579q0 -197 -48 -330q-39 -127 -115 -211l170 -159l-161 -168l-178 168q-81 -49 -160 -75t-217 -27zM1206 739q0 248 -101.5 383.5t-290.5 135.5t-298 -130t-109 -389
q0 -303 156 -434q101 -85 242 -85q82 0 171 38l-149 142l159 166l149 -142q35 72 53 140t18 175z" />
    <glyph glyph-name="R" unicode="R" horiz-adv-x="1479" 
d="M1370 1045q0 -96 -53 -197.5t-175 -143.5q102 -41 144.5 -116.5t42.5 -230.5v-99q0 -102 10 -148t54 -73v-37h-339q-32 110 -33 206l-2 137q-2 141 -51.5 188t-185.5 47h-318v-578h-301v1474h723q155 -3 238.5 -38t141.5 -103q104 -121 104 -288zM464 1218v-396h349
q104 0 156 24q92 42 92 171t-89 175q-50 26 -150 26h-358z" />
    <glyph glyph-name="S" unicode="S" horiz-adv-x="1366" 
d="M950 1035q-14 226 -301 226q-113 0 -184 -48.5t-71 -130.5t70 -121q45 -26 192 -61l254 -61q167 -40 252 -107q132 -104 132 -304t-154.5 -333t-439.5 -133t-450 131.5t-165 361.5h294q14 -101 55 -151q75 -91 257 -91q306 0 306 195q0 72 -64 112t-201 70l-156 35
q-230 52 -318 113q-149 102 -149 310t144 338.5t400 130.5t420.5 -123.5t172.5 -358.5h-296z" />
    <glyph glyph-name="T" unicode="T" 
d="M1227 1474v-261h-441v-1213h-310v1213h-443v261h1194z" />
    <glyph glyph-name="U" unicode="U" horiz-adv-x="1479" 
d="M156 1474h313v-906q0 -152 36 -222q55 -124 243 -124t244 124q36 70 36 222v906h313v-906q0 -235 -73 -366q-136 -240 -519 -240t-520 240q-73 131 -73 366v906z" />
    <glyph glyph-name="V" unicode="V" horiz-adv-x="1366" 
d="M1019 1474h320l-503 -1474h-291l-498 1474h329l320 -1119z" />
    <glyph glyph-name="W" unicode="W" horiz-adv-x="1933" 
d="M357 1474l195 -844l42 -235l209 1079h325l175 -844l45 -235l45 226l197 853h313l-415 -1474h-294l-178 862l-52 285l-52 -285l-178 -862h-286l-418 1474h327z" />
    <glyph glyph-name="X" unicode="X" horiz-adv-x="1366" 
d="M391 0h-358l474 751l-451 723h368l263 -479l270 479h356l-451 -711l479 -763h-374l-280 502z" />
    <glyph glyph-name="Y" unicode="Y" horiz-adv-x="1366" 
d="M853 0h-308v554l-510 920h363l306 -642l293 642h349l-493 -920v-554z" />
    <glyph glyph-name="Z" unicode="Z" 
d="M71 1213v261h1126v-247l-771 -967h773v-260h-1147v260l761 953h-742z" />
    <glyph glyph-name="bracketleft" unicode="[" horiz-adv-x="682" 
d="M128 1488h502v-208h-232v-1465h232v-209h-502v1882z" />
    <glyph glyph-name="backslash" unicode="\" horiz-adv-x="569" 
d="M123 1519l573 -1519h-237l-571 1519h235z" />
    <glyph glyph-name="bracketright" unicode="]" horiz-adv-x="682" 
d="M47 -185h232v1469h-232v204h502v-1882h-502v209z" />
    <glyph glyph-name="asciicircum" unicode="^" horiz-adv-x="1196" 
d="M732 1474l367 -884h-251l-227 566l-230 -566h-252l368 884h225z" />
    <glyph glyph-name="underscore" unicode="_" horiz-adv-x="1139" 
d="M0 -256v101h1139v-101h-1139z" />
    <glyph glyph-name="grave" unicode="`" horiz-adv-x="682" 
d="M459 1237h-206l-303 299h317z" />
    <glyph glyph-name="a" unicode="a" horiz-adv-x="1139" 
d="M400 -34q-148 0 -244.5 84.5t-96.5 239.5q0 201 155 291q85 49 250 70l97 12q79 10 113 25q61 26 61 87t-46.5 86.5t-142.5 25.5q-96 1 -131 -43q-36 -44 -46 -107h-275q24 379 468 379q179 0 318 -71t139 -268v-500q0 -175 16.5 -198.5t44.5 -36.5v-42h-310
q-20 50 -26 128q-149 -162 -344 -162zM345 316q0 -78 40.5 -110.5t115.5 -32.5t152.5 54t80.5 197v106q-51 -32 -130 -47l-64 -12q-90 -16 -129 -39q-66 -38 -66 -116z" />
    <glyph glyph-name="b" unicode="b" 
d="M398 530q0 -140 62 -232t180 -92t179.5 89t61.5 219q1 350 -241 351q-242 0 -242 -335zM1180 554q0 -250 -120 -416.5t-335 -166.5q-135 0 -217 54q-49 32 -106 112v-137h-279v1472h284v-524q54 76 125 121t190 45q215 0 336.5 -155t121.5 -405z" />
    <glyph glyph-name="c" unicode="c" horiz-adv-x="1139" 
d="M594 875q-225 0 -225 -337t220 -337q100 0 142 54t51 140h291q-10 -130 -94 -246q-134 -187 -397 -187t-387 156t-124 421t137 421t378 156q205 0 335.5 -92t154.5 -325h-292q-8 61 -48 119t-142 57z" />
    <glyph glyph-name="d" unicode="d" 
d="M844 529q0 200 -101 286q-62 52 -144 52q-125 0 -183.5 -94.5t-58.5 -240.5t59.5 -236t180.5 -90t184 90t63 233zM527 1116q207 0 309 -164v520h289v-1472h-277v151q-61 -97 -139 -141t-194 -44q-191 0 -321.5 155t-130.5 415t128.5 420t335.5 160z" />
    <glyph glyph-name="e" unicode="e" horiz-adv-x="1139" 
d="M579 195q136 0 196 125h291q-11 -97 -101 -197q-140 -159 -392 -159q-208 0 -367 134t-159 426t143.5 443.5t372.5 151.5q288 0 425 -212q64 -97 79 -199t13 -242h-746q6 -164 103 -230q59 -41 142 -41zM559 884q-95 0 -149.5 -62t-68.5 -168h443q-7 113 -68.5 171.5
t-156.5 58.5z" />
    <glyph glyph-name="f" unicode="f" horiz-adv-x="682" 
d="M535 1489q33 0 109 -6v-232q-129 16 -154.5 -15.5t-25.5 -39.5v-116h187v-201h-187v-879h-284v879h-159v201h156v70q0 175 59 241q62 98 299 98z" />
    <glyph glyph-name="g" unicode="g" 
d="M524 1116q216 0 317 -183v157h277v-1034q0 -211 -71 -318q-122 -184 -468 -184q-209 0 -341 82t-146 245h310q12 -50 39 -72q46 -39 155 -39q154 0 206 103q34 66 34 222v70q-41 -70 -88 -105q-85 -65 -221 -65q-210 0 -335.5 147.5t-125.5 395.5t121 413t337 165z
M839 545q0 160 -65.5 241t-175.5 81q-150 0 -207 -141q-30 -76 -30 -178t32 -176q58 -138 208 -138q100 0 169 75.5t69 235.5z" />
    <glyph glyph-name="h" unicode="h" 
d="M419 948q111 170 320 170t314 -142q45 -61 55 -125.5t10 -210.5v-640h-291v663q0 218 -178 218q-113 0 -171.5 -75.5t-58.5 -215.5v-590h-284v1469h284v-521z" />
    <glyph glyph-name="i" unicode="i" horiz-adv-x="569" 
d="M137 1090h289v-1090h-289v1090zM426 1220h-289v263h289v-263z" />
    <glyph glyph-name="j" unicode="j" horiz-adv-x="569" 
d="M74 -212q72 0 72 100v1197h285v-1202q0 -165 -65 -244t-255 -79l-102 3v228q36 -3 65 -3zM431 1220h-285v263h285v-263z" />
    <glyph glyph-name="k" unicode="k" horiz-adv-x="1139" 
d="M130 1469h280v-794l355 410h353l-381 -417l396 -668h-344l-261 466l-118 -123v-343h-280v1469z" />
    <glyph glyph-name="l" unicode="l" horiz-adv-x="569" 
d="M424 0h-285v1474h285v-1474z" />
    <glyph glyph-name="m" unicode="m" horiz-adv-x="1821" 
d="M1351 1114q166 0 269 -126q46 -57 59 -126t13 -175l-2 -687h-292v694q0 178 -160 178q-118 0 -163 -98q-23 -52 -23 -125v-649h-287v649q0 97 -20 141q-35 79 -149 79t-156 -79q-23 -45 -23 -134v-656h-289v1088h277v-159q53 85 100 121q83 64 211 64t206 -55
q62 -51 94 -131q109 186 335 186z" />
    <glyph glyph-name="n" unicode="n" 
d="M646 879q-227 0 -227 -289v-590h-284v1088h275v-159q55 84 104 121q88 66 240 66t259.5 -88.5t107.5 -293.5v-734h-292v663q0 86 -23 132q-42 84 -160 84z" />
    <glyph glyph-name="o" unicode="o" 
d="M623 -38q-281 0 -419 170.5t-138 408.5t138 411t419 173t419 -173t138 -411t-138 -408.5t-419 -170.5zM881 543q0 164 -67 252.5t-192 88.5t-192.5 -88.5t-67.5 -252.5t67.5 -253t192.5 -89t192 89t67 253z" />
    <glyph glyph-name="p" unicode="p" 
d="M1178 552q0 -280 -129.5 -431.5t-333.5 -151.5q-130 0 -216 65q-47 36 -92 105v-568h-282v1519h273v-161q46 71 98 112q95 73 226 73q191 0 323.5 -141t132.5 -421zM640 865q-243 0 -243 -345q0 -190 101 -267q60 -45 142 -45q119 0 181.5 92t62.5 232t-57.5 236.5
t-186.5 96.5z" />
    <glyph glyph-name="q" unicode="q" 
d="M843 1088h275v-1520h-282v567q-32 -66 -109.5 -117.5t-211.5 -51.5q-189 0 -322 151t-133 413t133.5 425t329.5 163q136 0 220 -67q49 -38 100 -125v162zM357 532q0 -322 238 -322q147 0 209 126q40 82 40 196t-34 193q-61 142 -214 142q-108 0 -173.5 -83t-65.5 -252z
" />
    <glyph glyph-name="r" unicode="r" horiz-adv-x="797" 
d="M681 827q-172 0 -231 -112q-33 -63 -33 -194v-521h-287v1090h272v-190q66 109 115 149q80 67 208 67l38 -2v-292q-45 5 -82 5z" />
    <glyph glyph-name="s" unicode="s" horiz-adv-x="1139" 
d="M746 758q-16 145 -189 145q-174 0 -174 -102q0 -45 42 -67t297 -78q170 -40 255 -121q84 -82 84 -205q0 -162 -120.5 -264.5t-374.5 -102.5t-377 108.5t-123 276.5h289q9 -76 39 -108q53 -57 196 -57q183 0 183 100q0 48 -40 73t-297 86q-185 46 -261 114t-76 208
t118.5 248.5t328.5 108.5t338 -81.5t147 -281.5h-285z" />
    <glyph glyph-name="t" unicode="t" horiz-adv-x="682" 
d="M546 201q58 0 86 2v-213l-135 -5q-202 -7 -276 70q-48 49 -48 151v671h-152v203h152v304h282v-304h177v-203h-177v-576q0 -67 16.5 -83.5t74.5 -16.5z" />
    <glyph glyph-name="u" unicode="u" 
d="M592 210q228 0 228 287v593h289v-1090h-277v154q-4 -5 -20 -30t-38 -44q-67 -60 -129.5 -82t-146.5 -22q-242 0 -326 174q-47 96 -47 283v657h292v-657q0 -93 22 -140q39 -83 153 -83z" />
    <glyph glyph-name="v" unicode="v" horiz-adv-x="1139" 
d="M805 1090h306l-393 -1090h-301l-391 1090h320l227 -804z" />
    <glyph glyph-name="w" unicode="w" horiz-adv-x="1593" 
d="M647 1090h289l166 -785l170 785h297l-316 -1090h-293l-171 794l-173 -794h-296l-306 1090h306l170 -782z" />
    <glyph glyph-name="x" unicode="x" horiz-adv-x="1139" 
d="M26 0l372 552l-356 536h349l182 -316l178 316h339l-358 -531l372 -557h-355l-188 327l-189 -327h-346z" />
    <glyph glyph-name="y" unicode="y" horiz-adv-x="1139" 
d="M307 -441q-69 0 -130 4v228l36 -2q100 -5 134 19q35 24 56.5 78t17.5 66l-400 1138h317l238 -804l225 804h303l-374 -1072q-108 -310 -171 -384.5t-252 -74.5z" />
    <glyph glyph-name="z" unicode="z" horiz-adv-x="1024" 
d="M71 858v232h884v-237l-553 -619h572v-234h-941v222l559 636h-521z" />
    <glyph glyph-name="braceleft" unicode="{" horiz-adv-x="797" 
d="M208 225q0 126 -76 193q-46 41 -132 65v121q97 33 137 73q71 69 71 211v268q0 52 24 128t92 130t140 69q72 14 173 15v-159q-83 -18 -113 -48q-46 -46 -46 -161v-232q0 -112 -30 -178q-51 -111 -200 -180q135 -55 181.5 -128t48.5 -202v-253q0 -111 54 -160
q30 -29 105 -51v-159l-71 2q-143 4 -250.5 85.5t-107.5 237.5v313z" />
    <glyph glyph-name="bar" unicode="|" horiz-adv-x="573" 
d="M369 1488v-1488h-263v1488h263z" />
    <glyph glyph-name="braceright" unicode="}" horiz-adv-x="797" 
d="M203 210q0 142 55 210.5t175 119.5q-131 64 -180.5 145.5t-49.5 212.5v232q0 111 -35.5 151t-122.5 58v159q99 -1 171 -15t139 -66t93 -128t26 -133v-268q0 -143 65 -210q40 -40 143 -74v-121q-85 -24 -129 -62q-79 -68 -79 -196v-313q0 -152 -105 -235.5t-253 -87.5
l-71 -2v159q75 22 105 52q51 50 53 159v253z" />
    <glyph glyph-name="asciitilde" unicode="~" horiz-adv-x="1196" 
d="M888 601q119 0 162 176h170q-27 -186 -110.5 -319t-225.5 -133q-85 0 -201 48l-209 79q-76 29 -133 29t-101 -43.5t-63 -132.5h-173q34 236 124 343q91 108 210 108q83 0 178 -36l233 -90q74 -29 139 -29z" />
    <glyph glyph-name="nonbreakingspace" unicode="&#xa0;" horiz-adv-x="569" 
 />
    <glyph glyph-name="exclamdown" unicode="&#xa1;" horiz-adv-x="682" 
d="M530 796h-298v289h298v-289zM538 -384h-313v374l80 687h150l83 -687v-374z" />
    <glyph glyph-name="cent" unicode="&#xa2;" horiz-adv-x="1139" 
d="M561 -41q-29 0 -97 7l-59 -211h-112l74 242q-126 48 -212 184.5t-86 346.5q0 269 140 428.5t358 159.5q63 0 113 -10l50 181h106l-59 -202q266 -91 299 -386h-292q-19 103 -76 142l-175 -635q37 -7 54 -7q68 0 124 47t71 149h291q-17 -187 -133.5 -311.5t-378.5 -124.5z
M578 874q-100 0 -155.5 -102t-55.5 -229t24.5 -193.5t51.5 -91.5l170 614q-17 2 -35 2z" />
    <glyph glyph-name="sterling" unicode="&#xa3;" horiz-adv-x="1139" 
d="M966 -5q-90 -31 -167 -31t-202 40l-57 19q-137 45 -231 11q-43 -16 -134 -58l-109 199q72 39 149 125.5t77 161.5t-46 194h-178v112h114q-46 90 -68 158.5t-22 147.5q0 154 127.5 276t343.5 122t360 -108.5t153 -366.5h-271q-10 99 -46 160q-53 85 -179 85
q-93 0 -147 -57.5t-54 -117.5t19 -109.5t85 -189.5h287v-112h-244q9 -88 9 -117q1 -97 -47 -163t-161 -170q149 54 224 54t157 -23l41 -13q42 -14 77 -14q73 0 198 72l82 -223q-50 -33 -140 -64z" />
    <glyph glyph-name="currency" unicode="&#xa4;" horiz-adv-x="1139" 
d="M569 1163q120 0 235 -71l140 140l140 -140l-140 -140q71 -115 71 -235t-71 -235l140 -140l-140 -140l-140 140q-115 -71 -235 -71t-235 71l-140 -140l-140 140l140 140q-71 115 -71 235t71 235l-140 140l140 140l140 -140q115 71 235 71zM569 483q98 0 166 68t68 166
t-68 166t-166 68t-166 -68t-68 -166t68 -166t166 -68z" />
    <glyph glyph-name="yen" unicode="&#xa5;" horiz-adv-x="1139" 
d="M1076 960v-136h-209l-107 -218h282v-135h-320v-471h-291v471h-318v135h280l-109 218h-213v136h147l-240 471h339l266 -623l253 623h325l-228 -471h143z" />
    <glyph glyph-name="brokenbar" unicode="&#xa6;" horiz-adv-x="573" 
d="M369 0h-263v587h263v-587zM106 903v585h263v-585h-263z" />
    <glyph glyph-name="section" unicode="&#xa7;" horiz-adv-x="1139" 
d="M307 645q0 -49 34 -79t97 -64l284 -149q32 14 62 47q30 32 30 82t-37 81t-83 55l-299 152q-88 -37 -88 -125zM65 573q0 197 191 296q-32 22 -69 80q-38 72 -38 160q0 149 106.5 257t310.5 108q244 0 346 -160q55 -86 64 -215h-258q-7 60 -30 95q-42 62 -120 62
q-158 0 -158 -120q0 -68 70 -102t257 -120q326 -154 326 -357q0 -127 -74 -210q-41 -46 -120 -87q56 -48 92 -106t36 -156q0 -191 -132 -291.5t-303 -100.5t-295.5 89t-141.5 295h270q14 -74 40 -107q43 -56 141 -56q60 0 103 37t43 93t-45 96t-241 138t-264 156
q-107 93 -107 226z" />
    <glyph glyph-name="dieresis" unicode="&#xa8;" horiz-adv-x="682" 
d="M-43 1493h261v-237h-261v237zM357 1493h261v-237h-261v237z" />
    <glyph glyph-name="copyright" unicode="&#xa9;" horiz-adv-x="1509" 
d="M781 300q-168 0 -290.5 120t-122.5 308t105.5 316.5t289.5 128.5q117 0 203 -48q140 -78 174 -273l-188 3q-17 90 -72 121q-46 29 -101 29q-83 0 -136 -68.5t-53 -206.5t59 -199.5t137 -61.5t116.5 41t49.5 103h183q-30 -174 -135.5 -243.5t-218.5 -69.5zM1500 732
q0 -310 -218 -520q-218 -212 -524 -212t-519 213t-213 530t223 524t521 207t514 -216t216 -526zM154 732q0 -252 178 -430q178 -179 430 -179q252 1 430 181t178 430t-178 432t-430 182t-430 -182t-178 -434z" />
    <glyph glyph-name="ordfeminine" unicode="&#xaa;" horiz-adv-x="758" 
d="M663 978q0 -86 41 -101v-36h-200q-16 39 -16 76q-52 -45 -100 -71t-123 -26q-137 0 -192 85q-33 49 -33 116q0 108 82 166q54 38 167 52l128 17q64 7 64 54q0 74 -121 74q-53 0 -79 -22.5t-37 -67.5h-180q12 91 54 142q70 83 237 83q123 0 188 -24q120 -45 120 -195v-322
zM226 1035q0 -39 27 -59.5t65 -20.5t72 14q33 14 50 28t27.5 34t13.5 75v64q-31 -20 -79 -28l-47 -7q-129 -20 -129 -100z" />
    <glyph glyph-name="guillemotleft" unicode="&#xab;" horiz-adv-x="1139" 
d="M618 682l342 294v-238l-204 -175l204 -174v-238l-342 293v238zM175 682l342 294v-238l-204 -175l204 -174v-238l-342 293v238z" />
    <glyph glyph-name="logicalnot" unicode="&#xac;" horiz-adv-x="1196" 
d="M1156 907v-730h-263v467h-820v263h1083z" />
    <glyph glyph-name="softhyphen" unicode="&#xad;" horiz-adv-x="682" 
d="M47 706h574v-270h-574v270z" />
    <glyph glyph-name="registered" unicode="&#xae;" horiz-adv-x="1509" 
d="M440 327v817q362 0 428 -4q65 -4 129 -40q109 -60 109 -195q0 -103 -57.5 -149t-141.5 -55q77 -16 116 -47q72 -58 72 -183v-73q0 -27 7 -48l7 -23h-204q-10 39 -13 113t-13 100q-25 66 -133 73l-47 3h-45v-289h-214zM896 881.5q0 118.5 -190 118.5h-52v-237h83
q159 0 159 118.5zM1500 732q0 -310 -218 -520q-218 -212 -524 -212t-519 213t-213 530t223 524t521 207t514 -216t216 -526zM154 732q0 -252 178 -430q178 -179 430 -179q252 1 430 181t178 430t-178 432t-430 182t-430 -182t-178 -434z" />
    <glyph glyph-name="macron" unicode="&#xaf;" horiz-adv-x="682" 
d="M-67 1453h711v-152h-711v152z" />
    <glyph glyph-name="degree" unicode="&#xb0;" horiz-adv-x="819" 
d="M417 976q67 0 114 47t47 114t-47 114t-114 47t-114 -47t-47 -114t47 -114t114 -47zM740 1137q0 -132 -95.5 -227.5t-227.5 -95.5t-227.5 95.5t-95.5 227.5t95.5 227.5t227.5 95.5t227.5 -95.5t95.5 -227.5z" />
    <glyph glyph-name="plusminus" unicode="&#xb1;" horiz-adv-x="1124" 
d="M73 566v244h410v273h263v-273h410v-244h-410v-256h-263v256h-410zM1156 246v-246h-1083v246h1083z" />
    <glyph glyph-name="twosuperior" unicode="&#xb2;" horiz-adv-x="682" 
d="M481 1188q0 127 -142 127q-72 0 -101 -53q-18 -32 -20 -110h-181q3 156 85 232t222 76t233 -74t93 -204q0 -83 -46 -150.5t-153 -136.5l-73 -45q-118 -75 -138 -113h410v-157h-644q0 205 228 359q142 96 184.5 143.5t42.5 105.5z" />
    <glyph glyph-name="threesuperior" unicode="&#xb3;" horiz-adv-x="682" 
d="M455 1200q0 122 -126 122q-56 0 -88.5 -39.5t-32.5 -102.5h-171q-5 135 94 220q75 60 211 60t218 -66t82 -178t-114 -169q55 -8 98.5 -55t43.5 -145q0 -134 -92.5 -207.5t-233.5 -73.5t-233.5 67.5t-92.5 219.5h183q4 -64 22 -94q33 -55 120 -55q37 0 71 18q64 34 64 116
t-64 110q-39 17 -147 21v121q89 2 125 17q63 27 63 93z" />
    <glyph glyph-name="acute" unicode="&#xb4;" horiz-adv-x="682" 
d="M628 1536l-304 -299h-206l192 299h318z" />
    <glyph glyph-name="mu" unicode="&#xb5;" horiz-adv-x="1180" 
d="M462 -32q-94 0 -138 39l-87 -482h-290l285 1565h289l-130 -728q-3 -21 -3 -31q0 -68 49 -94.5t109 -26.5t122 41.5t92 89.5t46.5 114t43.5 211l79 424h284l-194 -1088h-263l28 182q-45 -72 -136.5 -144t-185.5 -72z" />
    <glyph glyph-name="paragraph" unicode="&#xb6;" horiz-adv-x="1139" 
d="M950 -370h-202v1673h-196v-1673h-202v865q-188 0 -299.5 129t-111.5 345t123 360.5t362 144.5h651v-171h-125v-1673z" />
    <glyph glyph-name="periodcentered" unicode="&#xb7;" horiz-adv-x="569" 
d="M281 552q-69 0 -118.5 49t-49.5 117t49.5 117t117.5 49t118 -48.5t50 -117.5t-49 -117.5t-118 -48.5z" />
    <glyph glyph-name="cedilla" unicode="&#xb8;" horiz-adv-x="682" 
d="M502 -281q0 -83 -75 -136.5t-170 -53.5t-239 53l38 86q114 -34 165 -34t77 25.5t26 60.5t-29 52t-61 17t-85 -17l-129 117l207 111h109l-88 -131q57 12 77 12q81 0 129 -39.5t48 -122.5z" />
    <glyph glyph-name="onesuperior" unicode="&#xb9;" horiz-adv-x="682" 
d="M80 1180v116q110 5 141 14t57 28q60 45 60 112h164v-870h-199v600h-223z" />
    <glyph glyph-name="ordmasculine" unicode="&#xba;" horiz-adv-x="748" 
d="M376 820q-170 0 -266 96t-96 254t96 254t266 96t266 -96t96 -254t-96 -254t-266 -96zM542 1170q0 93 -40.5 149t-125.5 56t-127.5 -56t-42.5 -149t42.5 -149t127.5 -56t125.5 56t40.5 149z" />
    <glyph glyph-name="guillemotright" unicode="&#xbb;" horiz-adv-x="1139" 
d="M342 444l-342 -293v238l204 174l-204 175v238l342 -294v-238zM785 444l-342 -293v238l204 174l-204 175v238l342 -294v-238z" />
    <glyph glyph-name="onequarter" unicode="&#xbc;" horiz-adv-x="1708" 
d="M90 1180v116q113 6 165 26q93 36 93 128h164v-870h-200v600h-222zM1244 1445h161l-875 -1483h-161zM1344 320v372l-238 -372h238zM1630 187h-97v-187h-189v187h-375v149l348 526h216v-542h97v-133z" />
    <glyph glyph-name="onehalf" unicode="&#xbd;" horiz-adv-x="1708" 
d="M1290 734q-74 0 -103 -56q-17 -31 -19 -107h-180q0 144 88 231q84 77 227 77t230.5 -78.5t87.5 -182.5t-50.5 -173t-146.5 -128l-76 -47q-114 -71 -137 -114h410v-156h-645q3 209 230 360q154 107 189.5 148.5t35.5 97.5t-33.5 92t-107.5 36zM47 1180v116q111 5 145.5 16
t61.5 32t39 54t12 52h164v-870h-199v600h-223zM1154 1445h161l-875 -1483h-161z" />
    <glyph glyph-name="threequarters" unicode="&#xbe;" horiz-adv-x="1708" 
d="M1310 1445h162l-870 -1483h-162zM1391 320v372l-237 -372h237zM1678 187h-97v-187h-190v187h-375v149l349 526h216v-542h97v-133zM384 1322q-110 0 -117 -142h-170q-5 146 103 228q76 52 208 52t212.5 -66t80.5 -178t-114 -169q31 2 87 -51.5t56 -165.5t-90.5 -188
t-224.5 -76q-207 0 -287 111q-43 61 -50 176h182q8 -149 142 -149q40 0 74 19q62 34 62 116t-66 110q-39 16 -145 20v121q90 2 126 18q62 27 62 107q0 40 -31.5 73.5t-99.5 33.5z" />
    <glyph glyph-name="questiondown" unicode="&#xbf;" 
d="M635 -404q-229 0 -377.5 109t-148.5 318q0 130 64 220q39 55 147 138l71 55q57 45 73 94t17 128h270q-6 -166 -32.5 -231.5t-133.5 -149.5l-73 -57q-62 -50 -80 -94t-18 -89q0 -91 53.5 -145t145.5 -54q136 0 192 110q29 59 29 127h289q-12 -280 -162 -379.5t-326 -99.5z
M758 796h-299v289h299v-289z" />
    <glyph glyph-name="Agrave" unicode="&#xc0;" horiz-adv-x="1479" 
d="M578 1474h348l522 -1474h-334l-95 303h-543l-102 -303h-322zM559 557h374l-184 580zM919 1592h-206l-303 299h317z" />
    <glyph glyph-name="Aacute" unicode="&#xc1;" horiz-adv-x="1479" 
d="M578 1474h348l522 -1474h-334l-95 303h-543l-102 -303h-322zM559 557h374l-184 580zM1091 1891l-304 -299h-206l192 299h318z" />
    <glyph glyph-name="Acircumflex" unicode="&#xc2;" horiz-adv-x="1479" 
d="M578 1474h348l522 -1474h-334l-95 303h-543l-102 -303h-322zM559 557h374l-184 580zM1112 1592h-232l-130 168l-131 -168h-232l235 299h256z" />
    <glyph glyph-name="Atilde" unicode="&#xc3;" horiz-adv-x="1479" 
d="M578 1474h348l522 -1474h-334l-95 303h-543l-102 -303h-322zM559 557h374l-184 580zM600 1691q-75 0 -96 -85h-130q22 103 57 156q64 95 190 95q48 0 97 -19l94 -35q66 -22 99 -22q59 0 81 86h133q-17 -105 -71 -176t-157 -71q-52 0 -151 33l-81 27q-31 11 -65 11z" />
    <glyph glyph-name="Adieresis" unicode="&#xc4;" horiz-adv-x="1479" 
d="M578 1474h348l522 -1474h-334l-95 303h-543l-102 -303h-322zM559 557h374l-184 580zM419 1848h261v-237h-261v237zM819 1848h261v-237h-261v237z" />
    <glyph glyph-name="Aring" unicode="&#xc5;" horiz-adv-x="1479" 
d="M578 1474h348l522 -1474h-334l-95 303h-543l-102 -303h-322zM559 557h374l-184 580zM762 1966q90 0 154 -64t64 -154t-64 -154t-154 -64t-154 64t-64 154t64 154t154 64zM762 1630q50 0 84 34t34 84q0 49 -34 84t-84 35q-49 0 -84 -35t-35 -84q0 -50 35 -84t84 -34z" />
    <glyph glyph-name="AE" unicode="&#xc6;" horiz-adv-x="2048" 
d="M1948 1469v-256h-759v-317h683v-252h-683v-384h773v-260h-1076v312h-441l-107 -312h-320l536 1469h1394zM886 1218h-133l-227 -664h360v664z" />
    <glyph glyph-name="Ccedilla" unicode="&#xc7;" horiz-adv-x="1479" 
d="M727 -211q-32 0 -85 -17l-43 40l94 147q-237 1 -419 205t-182 576t207 580q180 182 458 182q372 0 544 -244q95 -137 102 -275h-308q-30 106 -77 160q-84 96 -250 96t-263.5 -135.5t-97.5 -383.5t102.5 -371.5t262.5 -123.5t245 106q47 57 78 171h305
q-40 -241 -204.5 -392t-393.5 -151l-61 -90q57 12 77 12q81 0 129 -39.5t48 -122.5t-75 -136.5t-170 -53.5t-239 53l38 86q114 -34 165 -34t77 25.5t26 60.5t-29 52t-61 17z" />
    <glyph glyph-name="Egrave" unicode="&#xc8;" horiz-adv-x="1366" 
d="M1246 1213h-780v-313h716v-256h-716v-379h816v-265h-1117v1474h1081v-261zM882 1592h-206l-303 299h317z" />
    <glyph glyph-name="Eacute" unicode="&#xc9;" horiz-adv-x="1366" 
d="M1246 1213h-780v-313h716v-256h-716v-379h816v-265h-1117v1474h1081v-261zM1054 1891l-304 -299h-206l192 299h318z" />
    <glyph glyph-name="Ecircumflex" unicode="&#xca;" horiz-adv-x="1366" 
d="M1246 1213h-780v-313h716v-256h-716v-379h816v-265h-1117v1474h1081v-261zM1075 1592h-232l-130 168l-131 -168h-232l235 299h256z" />
    <glyph glyph-name="Edieresis" unicode="&#xcb;" horiz-adv-x="1366" 
d="M1246 1213h-780v-313h716v-256h-716v-379h816v-265h-1117v1474h1081v-261zM382 1848h261v-237h-261v237zM782 1848h261v-237h-261v237z" />
    <glyph glyph-name="Igrave" unicode="&#xcc;" horiz-adv-x="569" 
d="M438 0h-306v1474h306v-1474zM459 1621h-206l-303 299h317z" />
    <glyph glyph-name="Iacute" unicode="&#xcd;" horiz-adv-x="569" 
d="M438 0h-306v1474h306v-1474zM628 1920l-304 -299h-206l192 299h318z" />
    <glyph glyph-name="Icircumflex" unicode="&#xce;" horiz-adv-x="569" 
d="M438 0h-306v1474h306v-1474zM651 1621h-232l-130 168l-131 -168h-232l235 299h256z" />
    <glyph glyph-name="Idieresis" unicode="&#xcf;" horiz-adv-x="569" 
d="M438 0h-306v1474h306v-1474zM-43 1877h261v-237h-261v237zM357 1877h261v-237h-261v237z" />
    <glyph glyph-name="Eth" unicode="&#xd0;" horiz-adv-x="1479" 
d="M770 0h-614v658h-138v256h138v558h616q338 0 484 -203q147 -203 147 -483t-99 -474q-159 -312 -534 -312zM668 256q125 0 179 16q89 26 145 106t77 185.5t21 187.5q0 304 -150 409q-84 58 -258 58h-227v-304h310v-256h-310v-402h213z" />
    <glyph glyph-name="Ntilde" unicode="&#xd1;" horiz-adv-x="1479" 
d="M151 1474h323l587 -1029v1029h287v-1474h-308l-602 1047v-1047h-287v1474zM611 1694q-75 0 -96 -85h-130q22 103 57 156q64 95 190 95q48 0 97 -19l94 -35q66 -22 99 -22q59 0 81 86h133q-18 -105 -72 -176t-156 -71q-52 0 -151 33l-81 27q-31 11 -65 11z" />
    <glyph glyph-name="Ograve" unicode="&#xd2;" horiz-adv-x="1593" 
d="M808 -41q-316 0 -483 172q-224 211 -224 612t224 604q167 172 483 172t483 -172q223 -203 223 -604t-223 -612q-167 -172 -483 -172zM1206 738q0 248 -108 384t-290 136q-183 0 -292 -135t-109 -384t109 -384t292 -135q182 0 290 135t108 383zM977 1637h-206l-303 299
h317z" />
    <glyph glyph-name="Oacute" unicode="&#xd3;" horiz-adv-x="1593" 
d="M808 -41q-316 0 -483 172q-224 211 -224 612t224 604q167 172 483 172t483 -172q223 -203 223 -604t-223 -612q-167 -172 -483 -172zM1206 738q0 248 -108 384t-290 136q-183 0 -292 -135t-109 -384t109 -384t292 -135q182 0 290 135t108 383zM1149 1936l-304 -299h-206
l192 299h318z" />
    <glyph glyph-name="Ocircumflex" unicode="&#xd4;" horiz-adv-x="1593" 
d="M808 -41q-316 0 -483 172q-224 211 -224 612t224 604q167 172 483 172t483 -172q223 -203 223 -604t-223 -612q-167 -172 -483 -172zM1206 738q0 248 -108 384t-290 136q-183 0 -292 -135t-109 -384t109 -384t292 -135q182 0 290 135t108 383zM1170 1637h-232l-130 168
l-131 -168h-232l235 299h256z" />
    <glyph glyph-name="Otilde" unicode="&#xd5;" horiz-adv-x="1593" 
d="M808 -41q-316 0 -483 172q-224 211 -224 612t224 604q167 172 483 172t483 -172q223 -203 223 -604t-223 -612q-167 -172 -483 -172zM1206 738q0 248 -108 384t-290 136q-183 0 -292 -135t-109 -384t109 -384t292 -135q182 0 290 135t108 383zM658 1736q-75 0 -96 -85
h-130q22 103 57 156q64 95 190 95q48 0 97 -19l94 -35q66 -22 99 -22q59 0 81 86h133q-17 -105 -71 -176t-157 -71q-52 0 -151 33l-81 27q-31 11 -65 11z" />
    <glyph glyph-name="Odieresis" unicode="&#xd6;" horiz-adv-x="1593" 
d="M808 -41q-316 0 -483 172q-224 211 -224 612t224 604q167 172 483 172t483 -172q223 -203 223 -604t-223 -612q-167 -172 -483 -172zM1206 738q0 248 -108 384t-290 136q-183 0 -292 -135t-109 -384t109 -384t292 -135q182 0 290 135t108 383zM477 1893h261v-237h-261
v237zM877 1893h261v-237h-261v237z" />
    <glyph glyph-name="multiply" unicode="&#xd7;" horiz-adv-x="1196" 
d="M960 1071l184 -185l-346 -344l346 -343l-184 -188l-347 346l-343 -346l-185 188l344 343l-344 344l185 185l343 -344z" />
    <glyph glyph-name="Oslash" unicode="&#xd8;" horiz-adv-x="1593" 
d="M1512 735q0 -342 -196 -559t-511 -217q-278 0 -474 169l-175 -185l-85 80l182 190q-154 207 -154 540q0 332 218 580q188 186 488 186q131 0 256.5 -44t222.5 -127l164 178l85 -81l-168 -187q147 -181 147 -523zM1112.5 381q93.5 161 93.5 346t-50 304l-628 -690
q108 -121 277 -121q214 0 307.5 161zM805 1258q-214 0 -307 -141.5t-93 -377.5q0 -152 54 -299l633 697q-39 47 -108 81q-72 40 -179 40z" />
    <glyph glyph-name="Ugrave" unicode="&#xd9;" horiz-adv-x="1479" 
d="M156 1474h313v-906q0 -152 36 -222q55 -124 243 -124t244 124q36 70 36 222v906h313v-906q0 -235 -73 -366q-136 -240 -519 -240t-520 240q-73 131 -73 366v906zM918 1592h-206l-303 299h317z" />
    <glyph glyph-name="Uacute" unicode="&#xda;" horiz-adv-x="1479" 
d="M156 1474h313v-906q0 -152 36 -222q55 -124 243 -124t244 124q36 70 36 222v906h313v-906q0 -235 -73 -366q-136 -240 -519 -240t-520 240q-73 131 -73 366v906zM1090 1891l-304 -299h-206l192 299h318z" />
    <glyph glyph-name="Ucircumflex" unicode="&#xdb;" horiz-adv-x="1479" 
d="M156 1474h313v-906q0 -152 36 -222q55 -124 243 -124t244 124q36 70 36 222v906h313v-906q0 -235 -73 -366q-136 -240 -519 -240t-520 240q-73 131 -73 366v906zM1111 1592h-232l-130 168l-131 -168h-232l235 299h256z" />
    <glyph glyph-name="Udieresis" unicode="&#xdc;" horiz-adv-x="1479" 
d="M156 1474h313v-906q0 -152 36 -222q55 -124 243 -124t244 124q36 70 36 222v906h313v-906q0 -235 -73 -366q-136 -240 -519 -240t-520 240q-73 131 -73 366v906zM418 1848h261v-237h-261v237zM818 1848h261v-237h-261v237z" />
    <glyph glyph-name="Yacute" unicode="&#xdd;" horiz-adv-x="1366" 
d="M853 0h-308v554l-510 920h363l306 -642l293 642h349l-493 -920v-554zM1032 1891l-304 -299h-206l192 299h318z" />
    <glyph glyph-name="Thorn" unicode="&#xde;" horiz-adv-x="1366" 
d="M659 1012h-232v-401h216q124 0 183 26q106 47 106 178t-95 173q-54 24 -178 24zM1226 830q0 -456 -548 -456h-251v-374h-299v1472h299v-221h282q256 0 386.5 -114t130.5 -307z" />
    <glyph glyph-name="germandbls" unicode="&#xdf;" 
d="M889 462q0 148 -103 204q-61 33 -208 45v199q107 1 151 23q72 38 72 143t-56.5 148.5t-136.5 43.5q-126 0 -165 -85q-24 -50 -24 -181v-1002h-282v1035q0 188 60 286q108 177 418 177q216 0 348 -104t132 -283t-152 -270q235 -100 235 -371q0 -184 -113.5 -340.5
t-393.5 -156.5q-49 0 -107 12v228q33 -3 64 -3q261 0 261 252z" />
    <glyph glyph-name="agrave" unicode="&#xe0;" horiz-adv-x="1139" 
d="M400 -34q-148 0 -244 84t-97 240q0 201 155 291q85 49 250 70l97 12q79 10 113 25q61 26 61 87q-1 61 -47 87t-142 25q-96 1 -131 -43q-36 -44 -46 -107h-275q24 379 468 379q179 0 318 -71t139 -268v-500q1 -175 17 -198q16 -24 44 -37v-42h-310q-20 50 -26 128
q-149 -162 -344 -162zM345 316q1 -78 41 -110t115 -33q75 0 153 54t80 197v106q-51 -32 -130 -47l-64 -12q-90 -16 -129 -39q-66 -38 -66 -116zM745 1237h-206l-303 299h317z" />
    <glyph glyph-name="aacute" unicode="&#xe1;" horiz-adv-x="1139" 
d="M400 -34q-148 0 -244 84t-97 240q0 201 155 291q85 49 250 70l97 12q79 10 113 25q61 26 61 87q-1 61 -47 87t-142 25q-96 1 -131 -43q-36 -44 -46 -107h-275q24 379 468 379q179 0 318 -71t139 -268v-500q1 -175 17 -198q16 -24 44 -37v-42h-310q-20 50 -26 128
q-149 -162 -344 -162zM345 316q1 -78 41 -110t115 -33q75 0 153 54t80 197v106q-51 -32 -130 -47l-64 -12q-90 -16 -129 -39q-66 -38 -66 -116zM917 1536l-304 -299h-206l192 299h318z" />
    <glyph glyph-name="acircumflex" unicode="&#xe2;" horiz-adv-x="1139" 
d="M400 -34q-148 0 -244 84t-97 240q0 201 155 291q85 49 250 70l97 12q79 10 113 25q61 26 61 87q-1 61 -47 87t-142 25q-96 1 -131 -43q-36 -44 -46 -107h-275q24 379 468 379q179 0 318 -71t139 -268v-500q1 -175 17 -198q16 -24 44 -37v-42h-310q-20 50 -26 128
q-149 -162 -344 -162zM345 316q1 -78 41 -110t115 -33q75 0 153 54t80 197v106q-51 -32 -130 -47l-64 -12q-90 -16 -129 -39q-66 -38 -66 -116zM938 1237h-232l-130 168l-131 -168h-232l235 299h256z" />
    <glyph glyph-name="atilde" unicode="&#xe3;" horiz-adv-x="1139" 
d="M400 -34q-148 0 -244 84t-97 240q0 201 155 291q85 49 250 70l97 12q79 10 113 25q61 26 61 87q-1 61 -47 87t-142 25q-96 1 -131 -43q-36 -44 -46 -107h-275q24 379 468 379q179 0 318 -71t139 -268v-500q1 -175 17 -198q16 -24 44 -37v-42h-310q-20 50 -26 128
q-149 -162 -344 -162zM345 316q1 -78 41 -110t115 -33q75 0 153 54t80 197v106q-51 -32 -130 -47l-64 -12q-90 -16 -129 -39q-66 -38 -66 -116zM426 1336q-75 0 -96 -85h-130q22 103 57 156q64 95 190 95q48 0 97 -19l94 -35q66 -22 99 -22q59 0 81 86h133
q-17 -105 -71 -176t-157 -71q-52 0 -151 33l-81 27q-31 11 -65 11z" />
    <glyph glyph-name="adieresis" unicode="&#xe4;" horiz-adv-x="1139" 
d="M400 -34q-148 0 -244 84t-97 240q0 201 155 291q85 49 250 70l97 12q79 10 113 25q61 26 61 87q-1 61 -47 87t-142 25q-96 1 -131 -43q-36 -44 -46 -107h-275q24 379 468 379q179 0 318 -71t139 -268v-500q1 -175 17 -198q16 -24 44 -37v-42h-310q-20 50 -26 128
q-149 -162 -344 -162zM345 316q1 -78 41 -110t115 -33q75 0 153 54t80 197v106q-51 -32 -130 -47l-64 -12q-90 -16 -129 -39q-66 -38 -66 -116zM245 1493h261v-237h-261v237zM645 1493h261v-237h-261v237z" />
    <glyph glyph-name="aring" unicode="&#xe5;" horiz-adv-x="1139" 
d="M400 -34q-148 0 -244 84t-97 240q0 201 155 291q85 49 250 70l97 12q79 10 113 25q61 26 61 87q-1 61 -47 87t-142 25q-96 1 -131 -43q-36 -44 -46 -107h-275q24 379 468 379q179 0 318 -71t139 -268v-500q1 -175 17 -198q16 -24 44 -37v-42h-310q-20 50 -26 128
q-149 -162 -344 -162zM345 316q1 -78 41 -110t115 -33q75 0 153 54t80 197v106q-51 -32 -130 -47l-64 -12q-90 -16 -129 -39q-66 -38 -66 -116zM576 1661q90 0 154 -64t64 -154t-64 -154t-154 -64t-154 64t-64 154t64 154t154 64zM576 1325q50 1 84 35t34 83t-34 84t-84 35
q-49 0 -84 -35t-35 -84t35 -83t84 -35z" />
    <glyph glyph-name="ae" unicode="&#xe6;" horiz-adv-x="1821" 
d="M94 734q19 380 494 380q190 0 334 -117q137 117 323 117q332 0 449 -273q62 -145 57 -367h-746q0 -113 27 -173q50 -110 192 -110q80 0 139 27.5t87 108.5h289q-12 -100 -99 -200q-143 -163 -406 -163q-135 0 -231.5 51t-149.5 131q-143 -183 -415 -183q-202 0 -292 98
t-90 234q0 185 137 270q76 46 231 70l175 26q68 10 99 27q48 26 48 78q0 123 -195 123q-110 0 -153 -62q-23 -33 -26 -93h-278zM341 299q0 -47 34.5 -88t120.5 -41t144 32q104 58 104 210v109q-21 -15 -38 -21.5t-76 -18.5l-109 -22q-94 -19 -126 -41q-54 -36 -54 -119z
M1234 888q-214 0 -225 -230h446q-7 105 -60 167.5t-161 62.5z" />
    <glyph glyph-name="ccedilla" unicode="&#xe7;" horiz-adv-x="1139" 
d="M536 -211q-32 0 -85 -17l-43 40l99 150q-188 0 -312 156t-124 421t137 421t378 156q205 0 335.5 -92t154.5 -325h-292q-8 61 -48 119t-142 57q-225 0 -225 -337t220 -337q100 0 142 54t51 140h291q-10 -130 -94 -246q-134 -187 -366 -187l-63 -93q57 12 77 12
q81 0 129 -39.5t48 -122.5t-75 -136.5t-170 -53.5t-239 53l38 86q114 -34 165 -34t77 25.5t26 60.5t-29 52t-61 17z" />
    <glyph glyph-name="egrave" unicode="&#xe8;" horiz-adv-x="1139" 
d="M579 195q136 0 196 125h291q-11 -97 -101 -197q-140 -159 -392 -159q-208 0 -367 134t-159 426q-1 292 143 444q144 151 373 151q288 0 425 -212q64 -97 79 -199t13 -242h-746q6 -164 103 -230q59 -41 142 -41zM559 884q-95 0 -149 -62t-69 -168h443q-6 114 -68 172
t-157 58zM752 1237h-206l-303 299h317z" />
    <glyph glyph-name="eacute" unicode="&#xe9;" horiz-adv-x="1139" 
d="M579 195q136 0 196 125h291q-11 -97 -101 -197q-140 -159 -392 -159q-208 0 -367 134t-159 426q-1 292 143 444q144 151 373 151q288 0 425 -212q64 -97 79 -199t13 -242h-746q6 -164 103 -230q59 -41 142 -41zM559 884q-95 0 -149 -62t-69 -168h443q-6 114 -68 172
t-157 58zM924 1536l-304 -299h-206l192 299h318z" />
    <glyph glyph-name="ecircumflex" unicode="&#xea;" horiz-adv-x="1139" 
d="M579 195q136 0 196 125h291q-11 -97 -101 -197q-140 -159 -392 -159q-208 0 -367 134t-159 426q-1 292 143 444q144 151 373 151q288 0 425 -212q64 -97 79 -199t13 -242h-746q6 -164 103 -230q59 -41 142 -41zM559 884q-95 0 -149 -62t-69 -168h443q-6 114 -68 172
t-157 58zM945 1237h-232l-130 168l-131 -168h-232l235 299h256z" />
    <glyph glyph-name="edieresis" unicode="&#xeb;" horiz-adv-x="1139" 
d="M579 195q136 0 196 125h291q-11 -97 -101 -197q-140 -159 -392 -159q-208 0 -367 134t-159 426q-1 292 143 444q144 151 373 151q288 0 425 -212q64 -97 79 -199t13 -242h-746q6 -164 103 -230q59 -41 142 -41zM559 884q-95 0 -149 -62t-69 -168h443q-6 114 -68 172
t-157 58zM252 1493h261v-237h-261v237zM652 1493h261v-237h-261v237z" />
    <glyph glyph-name="igrave" unicode="&#xec;" horiz-adv-x="569" 
d="M137 1090h289v-1090h-289v1090zM459 1237h-206l-303 299h317z" />
    <glyph glyph-name="iacute" unicode="&#xed;" horiz-adv-x="569" 
d="M137 1090h289v-1090h-289v1090zM628 1536l-304 -299h-206l192 299h318z" />
    <glyph glyph-name="icircumflex" unicode="&#xee;" horiz-adv-x="569" 
d="M137 1090h289v-1090h-289v1090zM651 1237h-232l-130 168l-131 -168h-232l235 299h256z" />
    <glyph glyph-name="idieresis" unicode="&#xef;" horiz-adv-x="569" 
d="M137 1090h289v-1090h-289v1090zM-43 1493h261v-237h-261v237zM357 1493h261v-237h-261v237z" />
    <glyph glyph-name="eth" unicode="&#xf0;" 
d="M650 802q-120 0 -187.5 -76.5t-67.5 -230.5t69.5 -228t179.5 -74t173.5 83.5t63.5 215.5t-55.5 221t-175.5 89zM1163 508q0 -232 -136.5 -384.5t-386.5 -152.5t-390.5 149t-140.5 375t132.5 369t323.5 143q68 0 141 -19q-104 113 -192 190l-221 -100l-102 103l226 99
q-55 39 -70.5 53t-55.5 46l235 104q41 -27 126 -92l182 79l102 -103l-178 -73q112 -118 168 -183t118 -170q119 -201 119 -433z" />
    <glyph glyph-name="ntilde" unicode="&#xf1;" 
d="M646 879q-227 0 -227 -289v-590h-284v1088h275v-159q55 84 104 121q88 66 240 66t260 -88t107 -294v-734h-292v663q0 86 -23 132q-42 84 -160 84zM482 1336q-75 0 -96 -85h-130q22 103 57 156q64 95 190 95q48 0 97 -19l94 -35q66 -22 99 -22q59 0 81 86h133
q-17 -105 -71 -176t-157 -71q-52 0 -151 33l-81 27q-31 11 -65 11z" />
    <glyph glyph-name="ograve" unicode="&#xf2;" 
d="M623 -38q-281 0 -419 170t-138 409q0 238 138 411t419 173t419 -173t138 -411q0 -239 -138 -409t-419 -170zM881 543q0 165 -67 253t-192 88q-124 0 -192 -88t-68 -253q0 -164 68 -253t192 -89q125 0 192 89t67 253zM792 1237h-206l-303 299h317z" />
    <glyph glyph-name="oacute" unicode="&#xf3;" 
d="M623 -38q-281 0 -419 170t-138 409q0 238 138 411t419 173t419 -173t138 -411q0 -239 -138 -409t-419 -170zM881 543q0 165 -67 253t-192 88q-124 0 -192 -88t-68 -253q0 -164 68 -253t192 -89q125 0 192 89t67 253zM964 1536l-304 -299h-206l192 299h318z" />
    <glyph glyph-name="ocircumflex" unicode="&#xf4;" 
d="M623 -38q-281 0 -419 170t-138 409q0 238 138 411t419 173t419 -173t138 -411q0 -239 -138 -409t-419 -170zM881 543q0 165 -67 253t-192 88q-124 0 -192 -88t-68 -253q0 -164 68 -253t192 -89q125 0 192 89t67 253zM985 1237h-232l-130 168l-131 -168h-232l235 299h256z
" />
    <glyph glyph-name="otilde" unicode="&#xf5;" 
d="M623 -38q-281 0 -419 170t-138 409q0 238 138 411t419 173t419 -173t138 -411q0 -239 -138 -409t-419 -170zM881 543q0 165 -67 253t-192 88q-124 0 -192 -88t-68 -253q0 -164 68 -253t192 -89q125 0 192 89t67 253zM473 1336q-75 0 -96 -85h-130q22 103 57 156
q64 95 190 95q48 0 97 -19l94 -35q66 -22 99 -22q59 0 81 86h133q-18 -105 -72 -176t-156 -71q-52 0 -151 33l-81 27q-31 11 -65 11z" />
    <glyph glyph-name="odieresis" unicode="&#xf6;" 
d="M623 -38q-281 0 -419 170t-138 409q0 238 138 411t419 173t419 -173t138 -411q0 -239 -138 -409t-419 -170zM881 543q0 165 -67 253t-192 88q-124 0 -192 -88t-68 -253q0 -164 68 -253t192 -89q125 0 192 89t67 253zM292 1493h261v-237h-261v237zM692 1493h261v-237h-261
v237z" />
    <glyph glyph-name="divide" unicode="&#xf7;" horiz-adv-x="1124" 
d="M768 1083v-297h-306v297h306zM1156 673v-261h-1083v261h1083zM462 0v298h306v-298h-306z" />
    <glyph glyph-name="oslash" unicode="&#xf8;" 
d="M1180 552q0 -264 -151.5 -428.5t-417.5 -164.5q-133 1 -213 35t-147 86l-135 -142l-74 62l142 144q-118 159 -118 404q0 244 146 410.5t390 166.5q142 0 230 -30.5t163 -92.5l138 145l71 -67l-143 -149q119 -157 119 -379zM631 199q123 0 186.5 96t63.5 244q0 71 -23 179
l-413 -439q42 -41 79 -61t107 -19zM618 884q-119 0 -187.5 -89.5t-68.5 -226.5t31 -201l415 441q-36 44 -92 60t-98 16z" />
    <glyph glyph-name="ugrave" unicode="&#xf9;" 
d="M592 210q228 0 228 287v593h289v-1090h-277v154q-4 -5 -20 -30t-38 -44q-68 -60 -130 -82t-146 -22q-242 0 -326 174q-47 96 -47 283v657h292v-657q0 -93 22 -140q39 -83 153 -83zM786 1237h-206l-303 299h317z" />
    <glyph glyph-name="uacute" unicode="&#xfa;" 
d="M592 210q228 0 228 287v593h289v-1090h-277v154q-4 -5 -20 -30t-38 -44q-68 -60 -130 -82t-146 -22q-242 0 -326 174q-47 96 -47 283v657h292v-657q0 -93 22 -140q39 -83 153 -83zM958 1536l-304 -299h-206l192 299h318z" />
    <glyph glyph-name="ucircumflex" unicode="&#xfb;" 
d="M592 210q228 0 228 287v593h289v-1090h-277v154q-4 -5 -20 -30t-38 -44q-68 -60 -130 -82t-146 -22q-242 0 -326 174q-47 96 -47 283v657h292v-657q0 -93 22 -140q39 -83 153 -83zM979 1237h-232l-130 168l-131 -168h-232l235 299h256z" />
    <glyph glyph-name="udieresis" unicode="&#xfc;" 
d="M592 210q228 0 228 287v593h289v-1090h-277v154q-4 -5 -20 -30t-38 -44q-68 -60 -130 -82t-146 -22q-242 0 -326 174q-47 96 -47 283v657h292v-657q0 -93 22 -140q39 -83 153 -83zM286 1493h261v-237h-261v237zM686 1493h261v-237h-261v237z" />
    <glyph glyph-name="yacute" unicode="&#xfd;" horiz-adv-x="1139" 
d="M307 -441q-69 0 -130 4v228l36 -2q100 -5 134 19q35 24 57 78t17 66l-400 1138h317l238 -804l225 804h303l-374 -1072q-108 -310 -171 -384t-252 -75zM904 1536l-304 -299h-206l192 299h318z" />
    <glyph glyph-name="thorn" unicode="&#xfe;" 
d="M721 1119q209 0 334 -141.5t125 -405.5t-117.5 -432.5t-338.5 -168.5q-87 0 -146 23q-102 39 -166 150v-571h-284v1899h284v-529q100 176 309 176zM648 209q241 0 241 359q0 131 -65.5 215t-171.5 84t-176.5 -77t-70.5 -240t61 -252t182 -89z" />
    <glyph glyph-name="ydieresis" unicode="&#xff;" horiz-adv-x="1139" 
d="M307 -441q-69 0 -130 4v228l36 -2q100 -5 134 19q35 24 57 78t17 66l-400 1138h317l238 -804l225 804h303l-374 -1072q-108 -310 -171 -384t-252 -75zM232 1493h261v-237h-261v237zM632 1493h261v-237h-261v237z" />
    <glyph glyph-name="Amacron" unicode="&#x100;" horiz-adv-x="1479" 
d="M578 1474h348l522 -1474h-334l-95 303h-543l-102 -303h-322zM559 557h374l-184 580zM397 1786h711v-152h-711v152z" />
    <glyph glyph-name="amacron" unicode="&#x101;" horiz-adv-x="1139" 
d="M400 -34q-148 0 -244 84t-97 240q0 201 155 291q85 49 250 70l97 12q79 10 113 25q61 26 61 87q-1 61 -47 87t-142 25q-96 1 -131 -43q-36 -44 -46 -107h-275q24 379 468 379q179 0 318 -71t139 -268v-500q1 -175 17 -198q16 -24 44 -37v-42h-310q-20 50 -26 128
q-149 -162 -344 -162zM345 316q1 -78 41 -110t115 -33q75 0 153 54t80 197v106q-51 -32 -130 -47l-64 -12q-90 -16 -129 -39q-66 -38 -66 -116zM205 1434h711v-152h-711v152z" />
    <glyph glyph-name="Abreve" unicode="&#x102;" horiz-adv-x="1479" 
d="M578 1474h348l522 -1474h-334l-95 303h-543l-102 -303h-322zM559 557h374l-184 580zM1111 1923q-25 -298 -345 -298t-345 298h135q22 -144 210 -144t210 144h135z" />
    <glyph glyph-name="abreve" unicode="&#x103;" horiz-adv-x="1139" 
d="M400 -34q-148 0 -244 84t-97 240q0 201 155 291q85 49 250 70l97 12q79 10 113 25q61 26 61 87q-1 61 -47 87t-142 25q-96 1 -131 -43q-36 -44 -46 -107h-275q24 379 468 379q179 0 318 -71t139 -268v-500q1 -175 17 -198q16 -24 44 -37v-42h-310q-20 50 -26 128
q-149 -162 -344 -162zM345 316q1 -78 41 -110t115 -33q75 0 153 54t80 197v106q-51 -32 -130 -47l-64 -12q-90 -16 -129 -39q-66 -38 -66 -116zM588 1418q188 0 210 144h135q-25 -298 -345 -298t-345 298h135q22 -144 210 -144z" />
    <glyph glyph-name="Aogonek" unicode="&#x104;" horiz-adv-x="1479" 
d="M1012 -268q0 86 84 163q49 45 158 105h-140l-95 303h-543l-102 -303h-322l526 1474h348l522 -1474h-14l-67 -48q-69 -50 -102 -86t-33 -81t33 -71t76 -27q43 0 107 23v-144q-98 -37 -200 -37q-102 1 -169 59t-67 144zM559 557h374l-184 580z" />
    <glyph glyph-name="aogonek" unicode="&#x105;" horiz-adv-x="1139" 
d="M400 -34q-148 0 -244 84t-97 240q0 201 155 291q85 49 250 70l97 12q79 10 113 25q61 26 61 87q-1 61 -47 87t-142 25q-96 1 -131 -43q-36 -44 -46 -107h-275q24 379 468 379q179 0 318 -71t139 -268v-500q1 -175 17 -198q16 -24 44 -37v-42h-24l-57 -41
q-69 -50 -102 -86t-33 -81q0 -46 33 -72t76 -26t107 23v-144q-98 -37 -200 -37t-169 58t-67 145q0 86 84 163q46 42 145 98h-103q-20 50 -26 128q-149 -162 -344 -162zM345 316q1 -78 41 -110t115 -33q75 0 153 54t80 197v106q-51 -32 -130 -47l-64 -12q-90 -16 -129 -39
q-66 -38 -66 -116z" />
    <glyph glyph-name="Cacute" unicode="&#x106;" horiz-adv-x="1479" 
d="M757 1502q372 0 544 -244q95 -137 102 -275h-308q-30 106 -77 160q-84 96 -250 96q-166 1 -264 -135q-97 -136 -97 -384q1 -248 103 -372t262 -123q160 0 245 106q47 57 78 171h305q-40 -241 -204 -392t-422 -151q-318 1 -500 205t-182 576t207 580q180 182 458 182z
M1065 1900l-304 -299h-206l192 299h318z" />
    <glyph glyph-name="cacute" unicode="&#x107;" horiz-adv-x="1139" 
d="M594 875q-225 0 -225 -337t220 -337q100 0 142 54t51 140h291q-10 -130 -94 -246q-134 -187 -397 -187t-387 156t-124 421t137 421t378 156q206 0 336 -92t154 -325h-292q-8 61 -48 119t-142 57zM920 1499l-304 -299h-206l192 299h318z" />
    <glyph glyph-name="Ccircumflex" unicode="&#x108;" horiz-adv-x="1479" 
d="M757 1502q372 0 544 -244q95 -137 102 -275h-308q-30 106 -77 160q-84 96 -250 96q-166 1 -264 -135q-97 -136 -97 -384q1 -248 103 -372t262 -123q160 0 245 106q47 57 78 171h305q-40 -241 -204 -392t-422 -151q-318 1 -500 205t-182 576t207 580q180 182 458 182z
M1135 1621h-232l-130 168l-131 -168h-232l235 299h256z" />
    <glyph glyph-name="ccircumflex" unicode="&#x109;" horiz-adv-x="1139" 
d="M594 875q-225 0 -225 -337t220 -337q100 0 142 54t51 140h291q-10 -130 -94 -246q-134 -187 -397 -187t-387 156t-124 421t137 421t378 156q206 0 336 -92t154 -325h-292q-8 61 -48 119t-142 57zM957 1258h-232l-130 168l-131 -168h-232l235 299h256z" />
    <glyph glyph-name="Cdotaccent" unicode="&#x10a;" horiz-adv-x="1479" 
d="M757 1502q372 0 544 -244q95 -137 102 -275h-308q-30 106 -77 160q-84 96 -250 96q-166 1 -264 -135q-97 -136 -97 -384q1 -248 103 -372t262 -123q160 0 245 106q47 57 78 171h305q-40 -241 -204 -392t-422 -151q-318 1 -500 205t-182 576t207 580q180 182 458 182z
M635 1865h260v-237h-260v237z" />
    <glyph glyph-name="cdotaccent" unicode="&#x10b;" horiz-adv-x="1139" 
d="M594 875q-225 0 -225 -337t220 -337q100 0 142 54t51 140h291q-10 -130 -94 -246q-134 -187 -397 -187t-387 156t-124 421t137 421t378 156q206 0 336 -92t154 -325h-292q-8 61 -48 119t-142 57zM449 1470h260v-237h-260v237z" />
    <glyph glyph-name="Ccaron" unicode="&#x10c;" horiz-adv-x="1479" 
d="M757 1502q372 0 544 -244q95 -137 102 -275h-308q-30 106 -77 160q-84 96 -250 96q-166 1 -264 -135q-97 -136 -97 -384q1 -248 103 -372t262 -123q160 0 245 106q47 57 78 171h305q-40 -241 -204 -392t-422 -151q-318 1 -500 205t-182 576t207 580q180 182 458 182z
M626 1583l-235 299h232l131 -169l130 169h232l-234 -299h-256z" />
    <glyph glyph-name="ccaron" unicode="&#x10d;" horiz-adv-x="1139" 
d="M594 875q-225 0 -225 -337t220 -337q100 0 142 54t51 140h291q-10 -130 -94 -246q-134 -187 -397 -187t-387 156t-124 421t137 421t378 156q206 0 336 -92t154 -325h-292q-8 61 -48 119t-142 57zM457 1218l-235 299h232l131 -169l130 169h232l-234 -299h-256z" />
    <glyph glyph-name="Dcaron" unicode="&#x10e;" horiz-adv-x="1479" 
d="M791 0h-635v1474h635q328 -5 470 -207t142 -495t-118 -497q-160 -275 -494 -275zM455 1218v-962h284q218 0 304 215q47 118 47 312q0 195 -70 315t-281 120h-284zM586 1613l-235 299h232l131 -169l130 169h232l-234 -299h-256z" />
    <glyph glyph-name="dcaron" unicode="&#x10f;" horiz-adv-x="1536" 
d="M844 529q0 200 -101 286q-62 52 -144 52q-125 0 -183.5 -94.5t-58.5 -240.5t59.5 -236t180.5 -90t184 90t63 233zM527 1116q207 0 309 -164v520h289v-1472h-277v151q-61 -97 -139 -141t-194 -44q-191 0 -321.5 155t-130.5 415t128.5 420t335.5 160zM1227 1547v298h308
v-258q0 -271 -140.5 -329t-167.5 -58v110q86 24 126.5 80t46.5 157h-173z" />
    <glyph glyph-name="Dcroat" unicode="&#x110;" horiz-adv-x="1479" 
d="M770 0h-614v658h-138v256h138v558h616q338 0 484 -203q147 -203 147 -483t-99 -474q-159 -312 -534 -312zM668 256q125 0 179 16q89 26 145 106t77 185.5t21 187.5q0 304 -150 409q-84 58 -258 58h-227v-304h310v-256h-310v-402h213z" />
    <glyph glyph-name="dcroat" unicode="&#x111;" 
d="M844 529q0 200 -101 286q-62 52 -144 52q-125 0 -183.5 -94.5t-58.5 -240.5t59.5 -236t180.5 -90t184 90t63 233zM527 1116q207 0 309 -164v253h-295v152h295v115h289v-115h127v-152h-127v-1205h-277v151q-61 -97 -139 -141t-194 -44q-191 0 -321.5 155t-130.5 415
t128.5 420t335.5 160z" />
    <glyph glyph-name="Emacron" unicode="&#x112;" horiz-adv-x="1366" 
d="M1246 1213h-780v-313h716v-256h-716v-379h816v-265h-1117v1474h1081v-261zM377 1791h711v-152h-711v152z" />
    <glyph glyph-name="emacron" unicode="&#x113;" horiz-adv-x="1139" 
d="M579 195q136 0 196 125h291q-11 -97 -101 -197q-140 -159 -392 -159q-208 0 -367 134t-159 426q-1 292 143 444q144 151 373 151q288 0 425 -212q64 -97 79 -199t13 -242h-746q6 -164 103 -230q59 -41 142 -41zM559 884q-95 0 -149 -62t-69 -168h443q-6 114 -68 172
t-157 58zM190 1401h711v-152h-711v152z" />
    <glyph glyph-name="Ebreve" unicode="&#x114;" horiz-adv-x="1366" 
d="M1246 1213h-780v-313h716v-256h-716v-379h816v-265h-1117v1474h1081v-261zM1055 1917q-25 -298 -345 -298t-345 298h135q22 -144 210 -144t210 144h135z" />
    <glyph glyph-name="ebreve" unicode="&#x115;" horiz-adv-x="1139" 
d="M579 195q136 0 196 125h291q-11 -97 -101 -197q-140 -159 -392 -159q-208 0 -367 134t-159 426q-1 292 143 444q144 151 373 151q288 0 425 -212q64 -97 79 -199t13 -242h-746q6 -164 103 -230q59 -41 142 -41zM559 884q-95 0 -149 -62t-69 -168h443q-6 114 -68 172
t-157 58zM586 1431q188 0 210 144h135q-25 -298 -345 -298t-345 298h135q22 -144 210 -144z" />
    <glyph glyph-name="Edotaccent" unicode="&#x116;" horiz-adv-x="1366" 
d="M1246 1213h-780v-313h716v-256h-716v-379h816v-265h-1117v1474h1081v-261zM625 1902h260v-237h-260v237z" />
    <glyph glyph-name="edotaccent" unicode="&#x117;" horiz-adv-x="1139" 
d="M579 195q136 0 196 125h291q-11 -97 -101 -197q-140 -159 -392 -159q-208 0 -367 134t-159 426q-1 292 143 444q144 151 373 151q288 0 425 -212q64 -97 79 -199t13 -242h-746q6 -164 103 -230q59 -41 142 -41zM559 884q-95 0 -149 -62t-69 -168h443q-6 114 -68 172
t-157 58zM428 1493h260v-237h-260v237z" />
    <glyph glyph-name="Eogonek" unicode="&#x118;" horiz-adv-x="1366" 
d="M505 -268q0 86 84 163q49 45 158 105h-582v1474h1081v-261h-780v-313h716v-256h-716v-379h816v-265h-355l-67 -48q-69 -50 -102 -86t-33 -81t33 -71t76 -27q43 0 107 23v-144q-98 -37 -200 -37q-102 1 -169 59t-67 144z" />
    <glyph glyph-name="eogonek" unicode="&#x119;" horiz-adv-x="1139" 
d="M540 -477q-102 1 -169 59t-67 144t84 163q38 35 113 79q-164 20 -295 130q-159 134 -159 426q-1 292 143 444q144 151 373 151q288 0 425 -212q64 -97 79 -199t13 -242h-746q6 -164 103 -230q59 -41 142 -41q136 0 196 125h291q-11 -97 -107 -205t-259 -140l-41 -29
q-69 -50 -102 -86t-33 -81t33 -71t76 -27q43 0 107 23v-144q-98 -37 -200 -37zM559 884q-95 0 -149 -62t-69 -168h443q-6 114 -68 172t-157 58z" />
    <glyph glyph-name="Ecaron" unicode="&#x11a;" horiz-adv-x="1366" 
d="M1246 1213h-780v-313h716v-256h-716v-379h816v-265h-1117v1474h1081v-261zM584 1632l-235 299h232l131 -169l130 169h232l-234 -299h-256z" />
    <glyph glyph-name="ecaron" unicode="&#x11b;" horiz-adv-x="1139" 
d="M579 195q136 0 196 125h291q-11 -97 -101 -197q-140 -159 -392 -159q-208 0 -367 134t-159 426q-1 292 143 444q144 151 373 151q288 0 425 -212q64 -97 79 -199t13 -242h-746q6 -164 103 -230q59 -41 142 -41zM559 884q-95 0 -149 -62t-69 -168h443q-6 114 -68 172
t-157 58zM440 1266l-235 299h232l131 -169l130 169h232l-234 -299h-256z" />
    <glyph glyph-name="Gcircumflex" unicode="&#x11c;" horiz-adv-x="1593" 
d="M807 1258q-179 0 -293 -134t-114 -406q0 -271 124 -384t280 -113q156 -1 256 89q99 90 122 235h-341v246h614v-791h-204l-31 184q-89 -105 -160 -148q-122 -75 -300 -75q-293 0 -480 203q-195 204 -195 560t197 572t521 216q281 0 451 -142t196 -356h-303
q-35 151 -171 211q-76 33 -169 33zM1135 1639h-232l-130 168l-131 -168h-232l235 299h256z" />
    <glyph glyph-name="gcircumflex" unicode="&#x11d;" 
d="M524 1116q216 0 317 -183v157h277v-1034q0 -211 -71 -318q-122 -184 -468 -184q-209 0 -341 82t-146 245h310q12 -50 39 -72q46 -39 155 -39q154 0 206 103q34 66 34 222v70q-41 -70 -88 -105q-85 -65 -221 -65q-209 -1 -335 147t-126 396t121 412q121 166 337 166z
M839 545q1 160 -65 241t-176 81q-150 0 -207 -141q-30 -76 -30 -178t32 -176q58 -138 208 -138q100 0 169 76t69 235zM989 1287h-232l-130 168l-131 -168h-232l235 299h256z" />
    <glyph glyph-name="Gbreve" unicode="&#x11e;" horiz-adv-x="1593" 
d="M807 1258q-179 0 -293 -134t-114 -406q0 -271 124 -384t280 -113q156 -1 256 89q99 90 122 235h-341v246h614v-791h-204l-31 184q-89 -105 -160 -148q-122 -75 -300 -75q-293 0 -480 203q-195 204 -195 560t197 572t521 216q281 0 451 -142t196 -356h-303
q-35 151 -171 211q-76 33 -169 33zM1147 1929q-25 -298 -345 -298t-345 298h135q22 -144 210 -144t210 144h135z" />
    <glyph glyph-name="gbreve" unicode="&#x11f;" 
d="M524 1116q216 0 317 -183v157h277v-1034q0 -211 -71 -318q-122 -184 -468 -184q-209 0 -341 82t-146 245h310q12 -50 39 -72q46 -39 155 -39q154 0 206 103q34 66 34 222v70q-41 -70 -88 -105q-85 -65 -221 -65q-209 -1 -335 147t-126 396t121 412q121 166 337 166z
M839 545q1 160 -65 241t-176 81q-150 0 -207 -141q-30 -76 -30 -178t32 -176q58 -138 208 -138q100 0 169 76t69 235zM966 1536q-25 -298 -345 -298t-345 298h135q22 -144 210 -144t210 144h135z" />
    <glyph glyph-name="Gdotaccent" unicode="&#x120;" horiz-adv-x="1593" 
d="M807 1258q-179 0 -293 -134t-114 -406q0 -271 124 -384t280 -113q156 -1 256 89q99 90 122 235h-341v246h614v-791h-204l-31 184q-89 -105 -160 -148q-122 -75 -300 -75q-293 0 -480 203q-195 204 -195 560t197 572t521 216q281 0 451 -142t196 -356h-303
q-35 151 -171 211q-76 33 -169 33zM661 1921h260v-237h-260v237z" />
    <glyph glyph-name="gdotaccent" unicode="&#x121;" 
d="M524 1116q216 0 317 -183v157h277v-1034q0 -211 -71 -318q-122 -184 -468 -184q-209 0 -341 82t-146 245h310q12 -50 39 -72q46 -39 155 -39q154 0 206 103q34 66 34 222v70q-41 -70 -88 -105q-85 -65 -221 -65q-209 -1 -335 147t-126 396t121 412q121 166 337 166z
M839 545q1 160 -65 241t-176 81q-150 0 -207 -141q-30 -76 -30 -178t32 -176q58 -138 208 -138q100 0 169 76t69 235zM457 1538h260v-237h-260v237z" />
    <glyph glyph-name="Gcommaaccent" unicode="&#x122;" horiz-adv-x="1593" 
d="M807 1258q-179 0 -293 -134t-114 -406q0 -271 124 -384t280 -113q156 -1 256 89q99 90 122 235h-341v246h614v-791h-204l-31 184q-89 -105 -160 -148q-122 -75 -300 -75q-293 0 -480 203q-195 204 -195 560t197 572t521 216q281 0 451 -142t196 -356h-303
q-35 151 -171 211q-76 33 -169 33zM623 -476v298h308v-258q1 -272 -209 -358q-72 -30 -99 -29v110q87 24 127 80t46 157h-173z" />
    <glyph glyph-name="gcommaaccent" unicode="&#x123;" 
d="M524 1116q216 0 317 -183v157h277v-1034q0 -211 -71 -318q-122 -184 -468 -184q-209 0 -341 82t-146 245h310q12 -50 39 -72q46 -39 155 -39q154 0 206 103q34 66 34 222v70q-41 -70 -88 -105q-85 -65 -221 -65q-209 -1 -335 147t-126 396t121 412q121 166 337 166z
M839 545q1 160 -65 241t-176 81q-150 0 -207 -141q-30 -76 -30 -178t32 -176q58 -138 208 -138q100 0 169 76t69 235zM732 1582v-298h-308v258q0 271 210 357q71 29 98 30v-110q-86 -24 -126 -80t-47 -157h173z" />
    <glyph glyph-name="Hcircumflex" unicode="&#x124;" horiz-adv-x="1479" 
d="M154 0v1474h305v-562h576v562h306v-1474h-306v658h-576v-658h-305zM1104 1622h-232l-130 168l-131 -168h-232l235 299h256z" />
    <glyph glyph-name="hcircumflex" unicode="&#x125;" 
d="M419 948q111 170 320 170t314 -142q45 -62 55 -126t10 -210v-640h-291v663q0 218 -178 218q-113 1 -171 -75t-59 -216v-590h-284v1469h284v-521zM935 1595h-232l-130 168l-131 -168h-232l235 299h256z" />
    <glyph glyph-name="Hbar" unicode="&#x126;" horiz-adv-x="1479" 
d="M1035 912v169h-576v-169h576zM154 0v1081h-139v218h139v175h305v-175h576v175h306v-175h121v-218h-121v-1081h-306v658h-576v-658h-305z" />
    <glyph glyph-name="hbar" unicode="&#x127;" 
d="M419 948q111 170 320 170t314 -142q45 -62 55 -126t10 -210v-640h-291v663q0 218 -178 218q-113 1 -171 -75t-59 -216v-590h-284v1200h-150v152h150v117h284v-117h277v-152h-277v-252z" />
    <glyph glyph-name="Itilde" unicode="&#x128;" horiz-adv-x="860" 
d="M518 0h-306v1474h306v-1474zM222 1712q-75 0 -96 -85h-130q22 103 57 156q64 95 190 95q48 0 97 -19l94 -35q66 -22 99 -22q59 0 81 86h133q-17 -105 -71 -176t-157 -71q-52 0 -151 33l-81 27q-31 11 -65 11z" />
    <glyph glyph-name="itilde" unicode="&#x129;" horiz-adv-x="881" 
d="M230 1090h289v-1090h-289v1090zM227 1438q-75 0 -96 -85h-130q22 103 57 156q64 95 190 95q48 0 97 -19l94 -35q66 -22 99 -22q59 0 81 86h133q-18 -105 -72 -176t-156 -71q-52 0 -151 33l-81 27q-31 11 -65 11z" />
    <glyph glyph-name="Imacron" unicode="&#x12a;" horiz-adv-x="870" 
d="M506 0h-306v1474h306v-1474zM10 1824h711v-152h-711v152z" />
    <glyph glyph-name="imacron" unicode="&#x12b;" horiz-adv-x="860" 
d="M211 1090h289v-1090h-289v1090zM12 1471h711v-152h-711v152z" />
    <glyph glyph-name="Ibreve" unicode="&#x12c;" horiz-adv-x="569" 
d="M438 0h-306v1474h306v-1474zM638 1846q-25 -298 -345 -298t-345 298h135q22 -144 210 -144t210 144h135z" />
    <glyph glyph-name="ibreve" unicode="&#x12d;" horiz-adv-x="569" 
d="M137 1090h289v-1090h-289v1090zM635 1566q-25 -298 -345 -298t-345 298h135q22 -144 210 -144t210 144h135z" />
    <glyph glyph-name="Iogonek" unicode="&#x12e;" horiz-adv-x="569" 
d="M247 -471q-102 1 -169 59t-67 144t84 163q49 45 158 105h-121v1474h306v-1474h-5l-67 -48q-69 -50 -102 -86t-33 -81t33 -71t76 -27q43 0 107 23v-144q-98 -37 -200 -37z" />
    <glyph glyph-name="iogonek" unicode="&#x12f;" horiz-adv-x="569" 
d="M239 -471q-102 1 -169 59t-67 144t84 163q49 45 158 105h-108v1090h289v-1090h-1l-67 -48q-69 -50 -102 -86t-33 -81t33 -71t76 -27q43 0 107 23v-144q-98 -37 -200 -37zM426 1220h-289v263h289v-263z" />
    <glyph glyph-name="Idotaccent" unicode="&#x130;" horiz-adv-x="569" 
d="M438 0h-306v1474h306v-1474zM155 1877h260v-237h-260v237z" />
    <glyph glyph-name="dotlessi" unicode="&#x131;" horiz-adv-x="569" 
d="M137 1090h289v-1090h-289v1090z" />
    <glyph glyph-name="IJ" unicode="&#x132;" horiz-adv-x="1708" 
d="M438 0h-306v1474h306v-1474zM1559 448q0 -484 -462 -484q-287 0 -385 150t-98 411v34h291v-34q3 -171 37 -241t144 -69q110 0 144 76q21 45 21 152v1031h308v-1026z" />
    <glyph glyph-name="ij" unicode="&#x133;" horiz-adv-x="1138" 
d="M137 1090h289v-1090h-289v1090zM426 1220h-289v263h289v-263zM643 -212q72 0 72 100v1197h285v-1202q0 -165 -65 -244t-255 -79l-102 3v228q36 -3 65 -3zM1000 1220h-285v263h285v-263z" />
    <glyph glyph-name="Jcircumflex" unicode="&#x134;" horiz-adv-x="1139" 
d="M990 448q0 -484 -462 -484q-287 0 -385 150t-98 411v34h291v-34q4 -171 38 -241t142 -69q110 0 145 76q21 45 21 152v1031h308v-1026zM1189 1609h-232l-130 168l-131 -168h-232l235 299h256z" />
    <glyph glyph-name="jcircumflex" unicode="&#x135;" horiz-adv-x="635" 
d="M74 -212q72 0 72 100v1197h285v-1202q0 -165 -65 -244t-255 -79l-102 3v228q36 -3 65 -3zM670 1238h-232l-130 168l-131 -168h-232l235 299h256z" />
    <glyph glyph-name="Kcommaaccent" unicode="&#x136;" horiz-adv-x="1479" 
d="M161 1474h303v-607l569 607h398l-604 -607l635 -867h-396l-455 644l-147 -151v-493h-303v1474zM538 -455v298h308v-258q0 -271 -210 -357q-72 -30 -98 -30v110q86 24 126 80t47 157h-173z" />
    <glyph glyph-name="kcommaaccent" unicode="&#x137;" horiz-adv-x="1139" 
d="M130 1469h280v-794l355 410h353l-381 -417l396 -668h-344l-261 466l-118 -123v-343h-280v1469zM429 -435v298h308v-258q1 -271 -209 -357q-72 -30 -99 -30v110q87 24 127 80t46 157h-173z" />
    <glyph glyph-name="kgreenlandic" unicode="&#x138;" horiz-adv-x="1139" 
d="M130 1085h280v-410l355 410h353l-381 -417l396 -668h-344l-261 466l-118 -123v-343h-280v1085z" />
    <glyph glyph-name="Lacute" unicode="&#x139;" 
d="M156 1474h308v-1209h730v-265h-1038v1474zM693 1909l-304 -299h-206l192 299h318z" />
    <glyph glyph-name="lacute" unicode="&#x13a;" horiz-adv-x="625" 
d="M424 0h-285v1474h285v-1474zM653 1903l-304 -299h-206l192 299h318z" />
    <glyph glyph-name="Lcommaaccent" unicode="&#x13b;" 
d="M156 1474h308v-1209h730v-265h-1038v1474zM488 -465v298h308v-258q0 -271 -210 -357q-72 -30 -98 -30v110q86 24 126 80t47 157h-173z" />
    <glyph glyph-name="lcommaaccent" unicode="&#x13c;" horiz-adv-x="569" 
d="M424 0h-285v1474h285v-1474zM148 -475v298h308v-258q0 -271 -210 -357q-72 -30 -98 -30v110q86 24 126 80t47 157h-173z" />
    <glyph glyph-name="Lcaron" unicode="&#x13d;" 
d="M886 1176v298h308v-258q0 -271 -140.5 -329t-167.5 -58v110q86 24 126.5 80t46.5 157h-173zM156 1474h308v-1209h730v-265h-1038v1474z" />
    <glyph glyph-name="lcaron" unicode="&#x13e;" horiz-adv-x="854" 
d="M424 0h-285v1474h285v-1474zM526 1176v298h308v-258q0 -271 -140.5 -329t-167.5 -58v110q86 24 126.5 80t46.5 157h-173z" />
    <glyph glyph-name="Ldotaccent" unicode="&#x13f;" 
d="M156 1474h308v-1209h730v-265h-1038v1474zM659 934h260v-237h-260v237z" />
    <glyph glyph-name="ldotaccent" unicode="&#x140;" horiz-adv-x="809" 
d="M424 0h-285v1474h285v-1474zM526 937h260v-237h-260v237z" />
    <glyph glyph-name="Lslash" unicode="&#x141;" 
d="M1194 0h-1038v566l-171 -109v194l171 105v718h308v-533l304 182v-187l-304 -183v-488h730v-265z" />
    <glyph glyph-name="lslash" unicode="&#x142;" horiz-adv-x="569" 
d="M424 0h-285v568l-163 -104v178l163 104v728h285v-552l163 104v-176l-163 -104v-746z" />
    <glyph glyph-name="Nacute" unicode="&#x143;" horiz-adv-x="1479" 
d="M151 1474h323l587 -1029v1029h287v-1474h-308l-602 1047v-1047h-287v1474zM1081 1880l-304 -299h-206l192 299h318z" />
    <glyph glyph-name="nacute" unicode="&#x144;" 
d="M646 879q-227 0 -227 -289v-590h-284v1088h275v-159q55 84 104 121q88 66 240 66t260 -88t107 -294v-734h-292v663q0 86 -23 132q-42 84 -160 84zM1041 1576l-304 -299h-206l192 299h318z" />
    <glyph glyph-name="Ncommaaccent" unicode="&#x145;" horiz-adv-x="1479" 
d="M151 1474h323l587 -1029v1029h287v-1474h-308l-602 1047v-1047h-287v1474zM558 -407v298h308v-258q0 -271 -210 -357q-72 -30 -98 -30v110q86 24 126 80t47 157h-173z" />
    <glyph glyph-name="ncommaaccent" unicode="&#x146;" 
d="M646 879q-227 0 -227 -289v-590h-284v1088h275v-159q55 84 104 121q88 66 240 66t260 -88t107 -294v-734h-292v663q0 86 -23 132q-42 84 -160 84zM458 -406v298h308v-258q0 -272 -210 -358q-72 -30 -98 -29v110q86 24 126 80t47 157h-173z" />
    <glyph glyph-name="Ncaron" unicode="&#x147;" horiz-adv-x="1479" 
d="M151 1474h323l587 -1029v1029h287v-1474h-308l-602 1047v-1047h-287v1474zM665 1570l-235 299h232l131 -169l130 169h232l-234 -299h-256z" />
    <glyph glyph-name="ncaron" unicode="&#x148;" 
d="M646 879q-227 0 -227 -289v-590h-284v1088h275v-159q55 84 104 121q88 66 240 66t260 -88t107 -294v-734h-292v663q0 86 -23 132q-42 84 -160 84zM551 1272l-235 299h232l131 -169l130 169h232l-234 -299h-256z" />
    <glyph glyph-name="napostrophe" unicode="&#x149;" 
d="M646 879q-227 0 -227 -289v-590h-284v1088h275v-159q55 84 104 121q88 66 240 66t260 -88t107 -294v-734h-292v663q0 86 -23 132q-42 84 -160 84zM135 1568v298h308v-258q1 -272 -209 -358q-72 -30 -99 -29v110q87 24 127 80t46 157h-173z" />
    <glyph glyph-name="Eng" unicode="&#x14a;" horiz-adv-x="1479" 
d="M991 -212q72 0 72 100v112h-23l-602 1047v-1047h-287v1474h323l587 -1029v1029h287v-1591q0 -165 -65 -244t-255 -79l-102 3v228q36 -3 65 -3z" />
    <glyph glyph-name="eng" unicode="&#x14b;" 
d="M764 -212q72 0 72 100v112h-7v663q0 86 -23 132q-42 84 -160 84q-227 0 -227 -289v-590h-284v1088h275v-159q55 84 104 121q88 66 240 66t259.5 -88.5t107.5 -293.5v-851q0 -165 -65 -244t-255 -79l-102 3v228q36 -3 65 -3z" />
    <glyph glyph-name="Omacron" unicode="&#x14c;" horiz-adv-x="1593" 
d="M808 -41q-316 0 -483 172q-224 211 -224 612t224 604q167 172 483 172t483 -172q223 -203 223 -604t-223 -612q-167 -172 -483 -172zM1206 738q0 248 -108 384t-290 136q-183 0 -292 -135t-109 -384t109 -384t292 -135q182 0 290 135t108 383zM423 1825h711v-152h-711
v152z" />
    <glyph glyph-name="omacron" unicode="&#x14d;" 
d="M623 -38q-281 0 -419 170t-138 409q0 238 138 411t419 173t419 -173t138 -411q0 -239 -138 -409t-419 -170zM881 543q0 165 -67 253t-192 88q-124 0 -192 -88t-68 -253q0 -164 68 -253t192 -89q125 0 192 89t67 253zM259 1477h711v-152h-711v152z" />
    <glyph glyph-name="Obreve" unicode="&#x14e;" horiz-adv-x="1593" 
d="M808 -41q-316 0 -483 172q-224 211 -224 612t224 604q167 172 483 172t483 -172q223 -203 223 -604t-223 -612q-167 -172 -483 -172zM1206 738q0 248 -108 384t-290 136q-183 0 -292 -135t-109 -384t109 -384t292 -135q182 0 290 135t108 383zM1127 1967
q-25 -298 -345 -298t-345 298h135q22 -144 210 -144t210 144h135z" />
    <glyph glyph-name="obreve" unicode="&#x14f;" 
d="M623 -38q-281 0 -419 170t-138 409q0 238 138 411t419 173t419 -173t138 -411q0 -239 -138 -409t-419 -170zM881 543q0 165 -67 253t-192 88q-124 0 -192 -88t-68 -253q0 -164 68 -253t192 -89q125 0 192 89t67 253zM951 1584q-25 -298 -345 -298t-345 298h135
q22 -144 210 -144t210 144h135z" />
    <glyph glyph-name="Ohungarumlaut" unicode="&#x150;" horiz-adv-x="1593" 
d="M808 -41q-316 0 -483 172q-224 211 -224 612t224 604q167 172 483 172t483 -172q223 -203 223 -604t-223 -612q-167 -172 -483 -172zM1206 738q0 248 -108 384t-290 136q-183 0 -292 -135t-109 -384t109 -384t292 -135q182 0 290 135t108 383zM883 1952l-244 -292h-196
l149 292h291zM1031 1952h291l-244 -292h-196z" />
    <glyph glyph-name="ohungarumlaut" unicode="&#x151;" 
d="M623 -38q-281 0 -419 170t-138 409q0 238 138 411t419 173t419 -173t138 -411q0 -239 -138 -409t-419 -170zM881 543q0 165 -67 253t-192 88q-124 0 -192 -88t-68 -253q0 -164 68 -253t192 -89q125 0 192 89t67 253zM730 1603l-244 -292h-196l149 292h291zM878 1603h291
l-244 -292h-196z" />
    <glyph glyph-name="OE" unicode="&#x152;" horiz-adv-x="2048" 
d="M75 734q0 343 185 588q163 183 413 183q127 0 220 -48q51 -26 112 -85v97h962v-256h-683v-322h636v-247h-636v-384h683v-260h-962v101q-93 -139 -337 -139q-245 0 -408 184q-185 245 -185 588zM986 400v654q0 78 -68 135t-196 57q-178 0 -262 -155t-84 -367t87 -363
t262 -151q112 0 186.5 60.5t74.5 129.5z" />
    <glyph glyph-name="oe" unicode="&#x153;" horiz-adv-x="1933" 
d="M1573 658q-6 235 -233 235q-66 0 -117 -29q-96 -57 -102 -206h452zM610 1114q249 0 385 -159q81 79 157 119t208 40q260 0 409 -198q58 -77 78 -200q16 -80 16 -242h-745q6 -127 63 -203.5t155 -76.5t153 28.5t75 99.5h284q-19 -141 -146.5 -248.5t-363.5 -107.5
q-135 0 -235 55q-58 32 -127 102q-55 -64 -116 -98q-108 -61 -268 -61q-244 0 -386.5 159t-142.5 423t149 416t398 152zM603 884q-246 0 -246 -346t241 -346q144 0 203 98t59 254t-57 248t-200 92z" />
    <glyph glyph-name="Racute" unicode="&#x154;" horiz-adv-x="1479" 
d="M1370 1045q0 -95 -53 -197t-175 -144q102 -40 144 -116t43 -231v-99q0 -102 10 -148t54 -73v-37h-339q-32 110 -33 206l-2 137q-1 141 -51 188t-186 47h-318v-578h-301v1474h723q154 -3 238 -38t142 -103q104 -121 104 -288zM464 1218v-396h349q104 0 156 24
q92 42 92 171t-89 175q-50 26 -150 26h-358zM1057 1937l-304 -299h-206l192 299h318z" />
    <glyph glyph-name="racute" unicode="&#x155;" horiz-adv-x="797" 
d="M681 827q-172 0 -231 -112q-33 -63 -33 -194v-521h-287v1090h272v-190q66 109 115 149q80 67 208 67l38 -2v-292q-45 5 -82 5zM682 1575l-304 -299h-206l192 299h318z" />
    <glyph glyph-name="Rcommaaccent" unicode="&#x156;" horiz-adv-x="1479" 
d="M1370 1045q0 -95 -53 -197t-175 -144q102 -40 144 -116t43 -231v-99q0 -102 10 -148t54 -73v-37h-339q-32 110 -33 206l-2 137q-1 141 -51 188t-186 47h-318v-578h-301v1474h723q154 -3 238 -38t142 -103q104 -121 104 -288zM464 1218v-396h349q104 0 156 24
q92 42 92 171t-89 175q-50 26 -150 26h-358zM578 -405v298h308v-258q0 -271 -210 -357q-72 -30 -98 -30v110q86 24 126 80t47 157h-173z" />
    <glyph glyph-name="rcommaaccent" unicode="&#x157;" horiz-adv-x="797" 
d="M681 827q-172 0 -231 -112q-33 -63 -33 -194v-521h-287v1090h272v-190q66 109 115 149q80 67 208 67l38 -2v-292q-45 5 -82 5zM128 -445v298h308v-258q0 -271 -210 -357q-72 -30 -98 -30v110q86 24 126 80t47 157h-173z" />
    <glyph glyph-name="Rcaron" unicode="&#x158;" horiz-adv-x="1479" 
d="M1370 1045q0 -95 -53 -197t-175 -144q102 -40 144 -116t43 -231v-99q0 -102 10 -148t54 -73v-37h-339q-32 110 -33 206l-2 137q-1 141 -51 188t-186 47h-318v-578h-301v1474h723q154 -3 238 -38t142 -103q104 -121 104 -288zM464 1218v-396h349q104 0 156 24
q92 42 92 171t-89 175q-50 26 -150 26h-358zM584 1642l-235 299h232l131 -169l130 169h232l-234 -299h-256z" />
    <glyph glyph-name="rcaron" unicode="&#x159;" horiz-adv-x="797" 
d="M681 827q-172 0 -231 -112q-33 -63 -33 -194v-521h-287v1090h272v-190q66 109 115 149q80 67 208 67l38 -2v-292q-45 5 -82 5zM289 1271l-235 299h232l131 -169l130 169h232l-234 -299h-256z" />
    <glyph glyph-name="Sacute" unicode="&#x15a;" horiz-adv-x="1366" 
d="M950 1035q-14 226 -301 226q-113 0 -184 -48q-71 -49 -71 -131t70 -121q45 -26 192 -61l254 -61q167 -40 252 -107q132 -104 132 -304t-154 -332q-154 -134 -440 -134q-285 0 -450 132t-165 361h294q14 -101 55 -151q75 -91 257 -91q306 0 306 195q0 72 -64 112t-201 70
l-156 35q-230 52 -318 113q-149 102 -149 310t144 338q144 131 400 131q257 1 421 -123t172 -359h-296zM1045 1971l-304 -299h-206l192 299h318z" />
    <glyph glyph-name="sacute" unicode="&#x15b;" horiz-adv-x="1139" 
d="M746 758q-16 145 -189 145q-174 0 -174 -102q0 -45 42 -67t297 -78q170 -40 255 -121q84 -82 84 -205q-1 -162 -121 -264t-374 -103q-254 1 -378 109q-122 108 -122 276h289q9 -76 39 -108q53 -57 196 -57q183 0 183 100q0 48 -40 73t-297 86q-185 46 -261 114t-76 208
q1 140 119 248t328 109t338 -81t147 -282h-285zM922 1583l-304 -299h-206l192 299h318z" />
    <glyph glyph-name="Scircumflex" unicode="&#x15c;" horiz-adv-x="1366" 
d="M950 1035q-14 226 -301 226q-113 0 -184 -48q-71 -49 -71 -131t70 -121q45 -26 192 -61l254 -61q167 -40 252 -107q132 -104 132 -304t-154 -332q-154 -134 -440 -134q-285 0 -450 132t-165 361h294q14 -101 55 -151q75 -91 257 -91q306 0 306 195q0 72 -64 112t-201 70
l-156 35q-230 52 -318 113q-149 102 -149 310t144 338q144 131 400 131q257 1 421 -123t172 -359h-296zM1068 1657h-232l-130 168l-131 -168h-232l235 299h256z" />
    <glyph glyph-name="scircumflex" unicode="&#x15d;" horiz-adv-x="1139" 
d="M746 758q-16 145 -189 145q-174 0 -174 -102q0 -45 42 -67t297 -78q170 -40 255 -121q84 -82 84 -205q-1 -162 -121 -264t-374 -103q-254 1 -378 109q-122 108 -122 276h289q9 -76 39 -108q53 -57 196 -57q183 0 183 100q0 48 -40 73t-297 86q-185 46 -261 114t-76 208
q1 140 119 248t328 109t338 -81t147 -282h-285zM932 1281h-232l-130 168l-131 -168h-232l235 299h256z" />
    <glyph glyph-name="Scedilla" unicode="&#x15e;" horiz-adv-x="1366" 
d="M950 1035q-14 226 -301 226q-113 0 -184 -48.5t-71 -130.5t70 -121q45 -26 192 -61l254 -61q167 -40 252 -107q132 -104 132 -304t-154.5 -333t-431.5 -133l-62 -93q57 12 77 12q81 0 129 -39.5t48 -122.5t-75 -136.5t-170 -53.5t-239 53l38 86q114 -34 165 -34t77 25.5
t26 60.5t-29 52t-61 17t-85 -17l-43 40l99 150q-188 0 -353 131.5t-165 361.5h294q14 -101 55 -151q75 -91 257 -91q306 0 306 195q0 73 -64 112.5t-201 69.5l-156 35q-230 52 -318 113q-149 102 -149 310t144 338.5t400 130.5t420.5 -123.5t172.5 -358.5h-296z" />
    <glyph glyph-name="scedilla" unicode="&#x15f;" horiz-adv-x="1139" 
d="M746 758q-16 145 -189 145q-174 0 -174 -102q0 -44 42 -66.5t297 -78.5q339 -81 339 -326q0 -162 -120.5 -264.5t-344.5 -102.5l-64 -94q57 12 77 12q81 0 129 -39.5t48 -122.5t-75 -136.5t-170 -53.5t-239 53l38 86q114 -34 165 -34t77 25.5t26 60.5t-29 52t-61 17
t-85 -17l-43 40l97 151q-176 0 -298.5 108.5t-122.5 276.5h289q9 -76 39 -108q53 -57 196 -57q183 0 183 100q0 48 -40 73t-297 86q-185 46 -261 114t-76 208t118.5 248.5t328.5 108.5t338 -81.5t147 -281.5h-285z" />
    <glyph glyph-name="Scaron" unicode="&#x160;" horiz-adv-x="1366" 
d="M950 1035q-14 226 -301 226q-113 0 -184 -48q-71 -49 -71 -131t70 -121q45 -26 192 -61l254 -61q167 -40 252 -107q132 -104 132 -304t-154 -332q-154 -134 -440 -134q-285 0 -450 132t-165 361h294q14 -101 55 -151q75 -91 257 -91q306 0 306 195q0 72 -64 112t-201 70
l-156 35q-230 52 -318 113q-149 102 -149 310t144 338q144 131 400 131q257 1 421 -123t172 -359h-296zM550 1637l-235 299h232l131 -169l130 169h232l-234 -299h-256z" />
    <glyph glyph-name="scaron" unicode="&#x161;" horiz-adv-x="1139" 
d="M746 758q-16 145 -189 145q-174 0 -174 -102q0 -45 42 -67t297 -78q170 -40 255 -121q84 -82 84 -205q-1 -162 -121 -264t-374 -103q-254 1 -378 109q-122 108 -122 276h289q9 -76 39 -108q53 -57 196 -57q183 0 183 100q0 48 -40 73t-297 86q-185 46 -261 114t-76 208
q1 140 119 248t328 109t338 -81t147 -282h-285zM445 1237l-235 299h232l131 -169l130 169h232l-234 -299h-256z" />
    <glyph glyph-name="Tcedilla" unicode="&#x162;" 
d="M604 -211q-32 0 -85 -17l-129 117l207 111h-121v1213h-443v261h1194v-261h-441v-1213h-80l-88 -131q57 12 77 12q81 1 129 -39t48 -123t-75 -137t-170 -53q-95 0 -239 53l38 86q114 -34 165 -34t77 26t26 60q0 35 -29 52t-61 17z" />
    <glyph glyph-name="tcedilla" unicode="&#x163;" horiz-adv-x="682" 
d="M440 -211q-32 0 -85 -17l-129 117l182 97q-130 10 -183 64q-52 54 -52 156v671h-152v203h152v304h282v-304h177v-203h-177v-576q0 -67 17 -83q16 -16 74 -17q58 0 86 2v-213l-99 -4l-79 -117q57 12 77 12q81 1 129 -39t48 -123t-75 -137t-170 -53q-95 0 -239 53l38 86
q114 -34 165 -34t77 26t26 60q0 35 -29 52t-61 17z" />
    <glyph glyph-name="Tcaron" unicode="&#x164;" 
d="M1227 1474v-261h-441v-1213h-310v1213h-443v261h1194zM503 1644l-235 299h232l131 -169l130 169h232l-234 -299h-256z" />
    <glyph glyph-name="tcaron" unicode="&#x165;" horiz-adv-x="952" 
d="M546 201q58 0 86 2v-213l-135 -5q-202 -7 -276 70q-48 49 -48 151v671h-152v203h152v304h282v-304h177v-203h-177v-576q0 -67 16.5 -83.5t74.5 -16.5zM622 1515v298h308v-258q0 -271 -140.5 -329t-167.5 -58v110q86 24 126.5 80t46.5 157h-173z" />
    <glyph glyph-name="Tbar" unicode="&#x166;" 
d="M1227 1474v-261h-441v-387h200v-152h-200v-674h-310v674h-201v152h201v387h-443v261h1194z" />
    <glyph glyph-name="tbar" unicode="&#x167;" horiz-adv-x="682" 
d="M546 201q58 0 86 2v-213l-135 -5q-202 -7 -276 70q-48 49 -48 151v412h-202v152h202v107h-152v203h152v304h282v-304h177v-203h-177v-107h227v-152h-227v-317q0 -67 17 -83q16 -16 74 -17z" />
    <glyph glyph-name="Utilde" unicode="&#x168;" horiz-adv-x="1479" 
d="M156 1474h313v-906q0 -152 36 -222q55 -124 243 -124t244 124q36 70 36 222v906h313v-906q0 -235 -73 -366q-136 -240 -519 -240t-520 240q-73 131 -73 366v906zM636 1753q-75 0 -96 -85h-130q22 103 57 156q64 95 190 95q48 0 97 -19l94 -35q66 -22 99 -22q59 0 81 86
h133q-17 -105 -71 -176t-157 -71q-52 0 -151 33l-81 27q-31 11 -65 11z" />
    <glyph glyph-name="utilde" unicode="&#x169;" 
d="M592 210q228 0 228 287v593h289v-1090h-277v154q-4 -5 -20 -30t-38 -44q-68 -60 -130 -82t-146 -22q-242 0 -326 174q-47 96 -47 283v657h292v-657q0 -93 22 -140q39 -83 153 -83zM498 1375q-75 0 -96 -85h-130q22 103 57 156q64 95 190 95q48 0 97 -19l94 -35
q66 -22 99 -22q59 0 81 86h133q-17 -105 -71 -176t-157 -71q-52 0 -151 33l-81 27q-31 11 -65 11z" />
    <glyph glyph-name="Umacron" unicode="&#x16a;" horiz-adv-x="1479" 
d="M156 1474h313v-906q0 -152 36 -222q55 -124 243 -124t244 124q36 70 36 222v906h313v-906q0 -235 -73 -366q-136 -240 -519 -240t-520 240q-73 131 -73 366v906zM393 1806h711v-152h-711v152z" />
    <glyph glyph-name="umacron" unicode="&#x16b;" 
d="M592 210q228 0 228 287v593h289v-1090h-277v154q-4 -5 -20 -30t-38 -44q-68 -60 -130 -82t-146 -22q-242 0 -326 174q-47 96 -47 283v657h292v-657q0 -93 22 -140q39 -83 153 -83zM281 1453h711v-152h-711v152z" />
    <glyph glyph-name="Ubreve" unicode="&#x16c;" horiz-adv-x="1479" 
d="M156 1474h313v-906q0 -152 36 -222q55 -124 243 -124t244 124q36 70 36 222v906h313v-906q0 -235 -73 -366q-136 -240 -519 -240t-520 240q-73 131 -73 366v906zM1097 1903q-25 -298 -345 -298t-345 298h135q22 -144 210 -144t210 144h135z" />
    <glyph glyph-name="ubreve" unicode="&#x16d;" 
d="M592 210q228 0 228 287v593h289v-1090h-277v154q-4 -5 -20 -30t-38 -44q-68 -60 -130 -82t-146 -22q-242 0 -326 174q-47 96 -47 283v657h292v-657q0 -93 22 -140q39 -83 153 -83zM646 1400q188 0 210 144h135q-25 -298 -345 -298t-345 298h135q22 -144 210 -144z" />
    <glyph glyph-name="Uring" unicode="&#x16e;" horiz-adv-x="1479" 
d="M156 1474h313v-906q0 -152 36 -222q55 -124 243 -124t244 124q36 70 36 222v906h313v-906q0 -235 -73 -366q-136 -240 -519 -240t-520 240q-73 131 -73 366v906zM758 2009q90 0 154 -64t64 -154t-64 -154t-154 -64t-154 64t-64 154t64 154t154 64zM758 1673q50 1 84 35
t34 83t-34 84t-84 35q-49 0 -84 -35t-35 -84t35 -83t84 -35z" />
    <glyph glyph-name="uring" unicode="&#x16f;" 
d="M592 210q228 0 228 287v593h289v-1090h-277v154q-4 -5 -20 -30t-38 -44q-68 -60 -130 -82t-146 -22q-242 0 -326 174q-47 96 -47 283v657h292v-657q0 -93 22 -140q39 -83 153 -83zM621 1640q90 0 154 -64t64 -154t-64 -154t-154 -64t-154 64t-64 154t64 154t154 64z
M621 1304q49 0 83 34t35 84q-1 49 -35 84t-83 35t-84 -35t-35 -84q0 -50 35 -84t84 -34z" />
    <glyph glyph-name="Uhungarumlaut" unicode="&#x170;" horiz-adv-x="1479" 
d="M156 1474h313v-906q0 -152 36 -222q55 -124 243 -124t244 124q36 70 36 222v906h313v-906q0 -235 -73 -366q-136 -240 -519 -240t-520 240q-73 131 -73 366v906zM825 1945l-244 -292h-196l149 292h291zM973 1945h291l-244 -292h-196z" />
    <glyph glyph-name="uhungarumlaut" unicode="&#x171;" 
d="M592 210q228 0 228 287v593h289v-1090h-277v154q-4 -5 -20 -30t-38 -44q-68 -60 -130 -82t-146 -22q-242 0 -326 174q-47 96 -47 283v657h292v-657q0 -93 22 -140q39 -83 153 -83zM707 1582l-244 -292h-196l149 292h291zM855 1582h291l-244 -292h-196z" />
    <glyph glyph-name="Uogonek" unicode="&#x172;" horiz-adv-x="1479" 
d="M446 -293q0 86 84 163q45 41 140 95q-318 23 -441 237q-73 131 -73 366v906h313v-906q0 -152 36 -222q55 -124 243 -124t244 124q36 70 36 222v906h313v-906q0 -235 -73 -366q-116 -204 -411 -235l-56 -40q-69 -50 -102 -86t-33 -81q0 -46 33 -72t76 -26t107 23v-144
q-98 -37 -200 -37t-169 58t-67 145z" />
    <glyph glyph-name="uogonek" unicode="&#x173;" 
d="M830 -471q-102 1 -169 59t-67 144t84 163q49 45 158 105h-4v154q-4 -5 -20 -30t-38 -44q-68 -60 -130 -82t-146 -22q-242 0 -326 174q-47 96 -47 283v657h292v-657q0 -93 22 -140q39 -83 153 -83q228 0 228 287v593h289v-1090h-93l-67 -48q-69 -50 -102 -86t-33 -81
t33 -71t76 -27q43 0 107 23v-144q-98 -37 -200 -37z" />
    <glyph glyph-name="Wcircumflex" unicode="&#x174;" horiz-adv-x="1933" 
d="M357 1474l195 -844l42 -235l209 1079h325l175 -844l45 -235l45 226l197 853h313l-415 -1474h-294l-178 862l-52 285l-52 -285l-178 -862h-286l-418 1474h327zM1348 1645h-232l-130 168l-131 -168h-232l235 299h256z" />
    <glyph glyph-name="wcircumflex" unicode="&#x175;" horiz-adv-x="1593" 
d="M1173 1312h-232l-130 168l-131 -168h-232l235 299h256zM647 1090h289l166 -785l170 785h297l-316 -1090h-293l-171 794l-173 -794h-296l-306 1090h306l170 -782z" />
    <glyph glyph-name="Ycircumflex" unicode="&#x176;" horiz-adv-x="1366" 
d="M853 0h-308v554l-510 920h363l306 -642l293 642h349l-493 -920v-554zM1065 1650h-232l-130 168l-131 -168h-232l235 299h256z" />
    <glyph glyph-name="ycircumflex" unicode="&#x177;" horiz-adv-x="1139" 
d="M307 -441q-69 0 -130 4v228l36 -2q100 -5 134 19q35 24 57 78t17 66l-400 1138h317l238 -804l225 804h303l-374 -1072q-108 -310 -171 -384t-252 -75zM952 1321h-232l-130 168l-131 -168h-232l235 299h256z" />
    <glyph glyph-name="Ydieresis" unicode="&#x178;" horiz-adv-x="1366" 
d="M853 0h-308v554l-510 920h363l306 -642l293 642h349l-493 -920v-554zM360 1848h261v-237h-261v237zM760 1848h261v-237h-261v237z" />
    <glyph glyph-name="Zacute" unicode="&#x179;" 
d="M71 1213v261h1126v-247l-771 -967h773v-260h-1147v260l761 953h-742zM966 1931l-304 -299h-206l192 299h318z" />
    <glyph glyph-name="zacute" unicode="&#x17a;" horiz-adv-x="1024" 
d="M71 858v232h884v-237l-553 -619h572v-234h-941v222l559 636h-521zM838 1563l-304 -299h-206l192 299h318z" />
    <glyph glyph-name="Zdotaccent" unicode="&#x17b;" 
d="M71 1213v261h1126v-247l-771 -967h773v-260h-1147v260l761 953h-742zM483 1870h260v-237h-260v237z" />
    <glyph glyph-name="zdotaccent" unicode="&#x17c;" horiz-adv-x="1024" 
d="M71 858v232h884v-237l-553 -619h572v-234h-941v222l559 636h-521zM417 1482h260v-237h-260v237z" />
    <glyph glyph-name="Zcaron" unicode="&#x17d;" 
d="M71 1213v261h1126v-247l-771 -967h773v-260h-1147v260l761 953h-742zM506 1592l-235 299h232l131 -169l130 169h232l-234 -299h-256z" />
    <glyph glyph-name="zcaron" unicode="&#x17e;" horiz-adv-x="1024" 
d="M71 858v232h884v-237l-553 -619h572v-234h-941v222l559 636h-521zM385 1237l-235 299h232l131 -169l130 169h232l-234 -299h-256z" />
    <glyph glyph-name="slong" unicode="&#x17f;" horiz-adv-x="682" 
d="M535 1489q33 0 109 -6v-232q-129 16 -154.5 -15.5t-25.5 -39.5v-1196h-284v879h-159v201h156v70q0 175 59 241q62 98 299 98z" />
    <glyph glyph-name="bstroke" unicode="&#x180;" 
d="M471 529q0 -143 63 -233t184 -90t180.5 90t59.5 236t-58.5 240.5t-183.5 94.5q-82 0 -144 -52q-101 -86 -101 -286zM788 1116q207 0 335.5 -160t128.5 -420t-130.5 -415t-321.5 -155q-116 0 -194 44t-139 141v-151h-277v1205h-127v152h127v115h289v-115h295v-152h-295
v-253q102 164 309 164z" />
    <glyph glyph-name="Btopbar" unicode="&#x182;" horiz-adv-x="1366" 
d="M986 522q0 168 -230 168h-287v-434h287q109 0 169.5 49t60.5 217zM782 944q245 0 377 -108t132 -358t-132 -364t-354 -114h-642v1471l-8 7h1081v-261h-767v-273h313z" />
    <glyph glyph-name="btopbar" unicode="&#x183;" 
d="M398 530q0 -140 62 -232t180 -92t179.5 89t61.5 219q1 350 -241 351q-242 0 -242 -335zM1016 1478v-261h-600l-9 8v-277q54 76 125 121t190 45q215 0 336.5 -155t121.5 -405t-120 -416.5t-335 -166.5q-135 0 -217 54q-49 32 -106 112v-137h-279v1471l-8 7h901z" />
    <glyph glyph-name="Oopen" unicode="&#x186;" horiz-adv-x="1479" 
d="M737 -42q-372 0 -544 244q-95 137 -102 275h308q30 -106 77 -160q84 -96 250 -96t263.5 135.5t97.5 383.5t-102.5 371.5t-262.5 123.5t-245 -106q-47 -57 -78 -171h-305q40 241 204.5 392t421.5 151q318 -1 500 -205t182 -576t-207 -580q-180 -182 -458 -182z" />
    <glyph glyph-name="Dafrican" unicode="&#x189;" horiz-adv-x="1479" 
d="M770 0h-614v658h-138v256h138v558h616q338 0 484 -203q147 -203 147 -483t-99 -474q-159 -312 -534 -312zM668 256q125 0 179 16q89 26 145 106t77 185.5t21 187.5q0 304 -150 409q-84 58 -258 58h-227v-304h310v-256h-310v-402h213z" />
    <glyph glyph-name="Dtopbar" unicode="&#x18b;" horiz-adv-x="1366" 
d="M690 690q-230 0 -230 -168t60.5 -217t169.5 -49h287v434h-287zM664 944h313v273h-767v261h1081l-8 -7v-1471h-642q-222 0 -354 114t-132 364t132 358t377 108z" />
    <glyph glyph-name="dtopbar" unicode="&#x18c;" 
d="M897 530q1 335 -241 335q-242 -1 -242 -351q0 -130 61 -219t179 -89t180.5 92t62.5 232zM1172 0h-279v137q-57 -80 -106 -112q-82 -54 -217 -54q-215 0 -335 166.5t-120 416.5t121.5 405t336.5 155q119 0 190 -45t125 -121v277l-9 -8h-600v261h901l-8 -7v-1471z" />
    <glyph glyph-name="deltaturned" unicode="&#x18d;" horiz-adv-x="1182" 
d="M576 600q108 0 172 100.5t64 233.5t-61.5 225.5t-174.5 92.5t-171 -93.5t-58 -226.5t60.5 -232.5t168.5 -99.5zM1023 -30h-861v229h451q-23 4 -162 116.5t-259 281.5t-120 352q0 229 140 372.5t372 143.5t372 -148.5t140 -392.5q0 -199 -115.5 -343t-310.5 -185l353 -222
v-204z" />
    <glyph glyph-name="Ereversed" unicode="&#x18e;" horiz-adv-x="1366" 
d="M200 1474h1081v-1474h-1117v265h816v379h-716v256h716v313h-780v261z" />
    <glyph glyph-name="Schwa" unicode="&#x18f;" horiz-adv-x="1538" 
d="M740 1299q-116 0 -301 -148q-30 -56 -71 -121h-283q15 131 136 266q189 215 530 215q280 0 495 -181t215 -576t-194 -599t-503 -204q-389 0 -574 287q-86 131 -112 303q-15 102 -12 292h1107q-8 221 -129 330q-188 136 -304 136zM770 169q128 0 251.5 133.5t142.5 276.5
h-798q9 -152 142.5 -281t261.5 -129z" />
    <glyph glyph-name="Eopen" unicode="&#x190;" horiz-adv-x="1163" 
d="M53 473q0 113 64 219t169 125q-87 44 -137.5 126.5t-50.5 180.5q0 200 128 296t335 96q291 0 413 -191q35 -55 44 -124q2 -49 3 -97h-245q0 80 -54 144t-158 65q-104 0 -157 -56.5t-53 -150.5t66 -150t128 -57h141v-215h-157q-65 0 -137 -58t-72 -170q-1 -110 63 -192
t185 -82q252 0 252 269h258q0 -221 -133 -361t-369 -139q-236 0 -381 136t-145 386z" />
    <glyph glyph-name="Fhook" unicode="&#x191;" 
d="M84 -212q72 0 72 100v1584h1045v-259h-739v-339h647v-256h-647v-618h-4v-117q0 -165 -65 -244t-272 -79l-102 3v228q36 -3 65 -3z" />
    <glyph glyph-name="florin" unicode="&#x192;" horiz-adv-x="1139" 
d="M950 1277q-40 0 -68.5 -14t-51.5 -63t-53 -224h247v-199h-275l-121 -735q-32 -193 -93 -299q-102 -175 -297 -175q-104 0 -208 43l50 227q66 -38 109 -38q72 0 99.5 61t57.5 233l116 683h-249v199h280q57 289 114 383q90 148 296 148q102 0 203 -38l-49 -227
q-67 35 -107 35z" />
    <glyph glyph-name="Iotaafrican" unicode="&#x196;" horiz-adv-x="569" 
d="M374 279q0 -100 72 -100q29 0 65 3v-228l-102 -3q-190 0 -255 79t-65 244v1202h285v-1197z" />
    <glyph glyph-name="Istroke" unicode="&#x197;" horiz-adv-x="798" 
d="M43 1003h206v471h285v-471h220v-152h-220v-851h-285v851h-206v152z" />
    <glyph glyph-name="lbar" unicode="&#x19a;" horiz-adv-x="798" 
d="M43 1003h206v471h285v-471h220v-152h-220v-851h-285v851h-206v152z" />
    <glyph glyph-name="uni019B" unicode="&#x19b;" horiz-adv-x="1124" 
d="M90 1143l252 62l-88 241h303l63 -173l281 70v-152l-230 -57l418 -1134h-315l-205 659h-4l-198 -659h-318l367 1003l-23 62l-303 -74v152z" />
    <glyph glyph-name="Nhookleft" unicode="&#x19d;" horiz-adv-x="1479" 
d="M78 -212q72 0 72 100v1197h1v389h323l587 -1029v1029h287v-1474h-308l-602 1047v-1047h-3v-117q0 -165 -65 -244t-255 -79l-102 3v228q36 -3 65 -3z" />
    <glyph glyph-name="nlegrightlong" unicode="&#x19e;" 
d="M646 879q-227 0 -227 -289v-590h-284v1088h275v-159q55 84 104 121q88 66 240 66t259.5 -88.5t107.5 -293.5v-1166h-292v1095q0 86 -23 132q-42 84 -160 84z" />
    <glyph glyph-name="Ocenteredtilde" unicode="&#x19f;" horiz-adv-x="1593" 
d="M808 1258q-183 0 -292 -135q-83 -103 -103 -271h787q-20 167 -102 270q-107 136 -290 136zM808 220q183 0 290 135q84 105 102 279h-788q19 -174 104 -279q109 -135 292 -135zM808 -41q-316 0 -483 172q-224 211 -224 612t224 604q167 172 483 172t483 -172
q223 -203 223 -604t-223 -612q-167 -172 -483 -172z" />
    <glyph glyph-name="Ohorn" unicode="&#x1a0;" horiz-adv-x="1938" 
d="M1206 738q0 248 -107.5 384t-290.5 136t-292 -135t-109 -384t109 -384t292 -135t290.5 135t107.5 383zM808 -41q-316 0 -483 172q-224 211 -224 612t224 604q167 172 483 172t483 -172q64 -58 109 -133q72 -10 167 37l-87 150l258 149l154 -267l-223 -129
q-114 -65 -209 -68q54 -150 54 -347q0 -397 -223 -608q-167 -172 -483 -172z" />
    <glyph glyph-name="ohorn" unicode="&#x1a1;" horiz-adv-x="1628" 
d="M881 543q0 164 -67 252.5t-192 88.5t-192.5 -88.5t-67.5 -252.5t67.5 -253t192.5 -89t192 89t67 253zM623 -38q-281 0 -419 170.5t-138 408.5t138 411t419 173t419 -173q22 -28 41 -58q7 -1 14 -1q69 -7 160 38l-87 150l258 149l154 -267l-223 -129q-118 -68 -215 -68
q36 -104 36 -223q0 -240 -138 -410.5t-419 -170.5z" />
    <glyph glyph-name="yr" unicode="&#x1a6;" horiz-adv-x="1331" 
d="M360 1018v-396h349q104 0 156 24q92 42 92 171t-89 175q-50 26 -150 26h-358zM59 1474h301v-200h422q155 -3 238.5 -38t136.5 -97q109 -128 109 -285q0 -105 -53 -206.5t-175 -143.5q102 -41 144.5 -116.5t42.5 -230.5v-99q0 -102 10 -148t54 -73v-37h-339
q-32 110 -33 206l-2 137q-2 141 -51.5 188t-185.5 47h-318v-378h-301v1474z" />
    <glyph glyph-name="Tonetwo" unicode="&#x1a7;" horiz-adv-x="1366" 
d="M383 408q0 -195 306 -195q182 0 257 91q41 50 55 151h294q0 -230 -165 -361.5t-450 -131.5t-439.5 133t-154.5 333t132 304q85 67 252 107l254 61q147 35 192 61q70 39 70 121t-71 130.5t-184 48.5q-287 0 -301 -226h-296q8 235 172.5 358.5t420.5 123.5t400 -130.5
t144 -338.5t-149 -310q-88 -61 -318 -113l-156 -35q-137 -30 -201 -70t-64 -112z" />
    <glyph glyph-name="tonetwo" unicode="&#x1a8;" horiz-adv-x="1139" 
d="M745 801q0 102 -174 102t-189 -145h-285q19 200 147 281.5t338 81.5t328.5 -108.5t118.5 -248.5t-76 -208t-261 -114q-257 -61 -297 -86t-40 -73q0 -100 183 -100q143 0 196 57q30 32 39 108h289q0 -168 -123 -276.5t-377 -108.5t-374.5 102.5t-120.5 264.5q0 123 84 205
q85 81 255 121q255 56 297 78t42 67z" />
    <glyph glyph-name="Esh" unicode="&#x1a9;" horiz-adv-x="1219" 
d="M1151 266v-266h-1090v225l502 506l-502 508v225h1090v-266h-680l465 -465l-465 -467h680z" />
    <glyph glyph-name="Tretroflexhook" unicode="&#x1ae;" 
d="M404 -212q72 0 72 100v1325h-443v261h1194v-261h-441v-1330q0 -165 -77.5 -244t-267.5 -79l-102 3v228q36 -3 65 -3z" />
    <glyph glyph-name="Uhorn" unicode="&#x1af;" horiz-adv-x="1880" 
d="M156 1474h313v-906q0 -152 36 -222q55 -124 243 -124t244 124q36 70 36 222v906h313v-261h6q69 -7 160 38l-87 150l258 149l154 -267l-223 -129q-149 -86 -268 -63v-523q0 -235 -73 -366q-136 -240 -519 -240t-520 240q-73 131 -73 366v906z" />
    <glyph glyph-name="uhorn" unicode="&#x1b0;" horiz-adv-x="1649" 
d="M592 210q228 0 228 287v593h289v-146q4 -1 8 -1q69 -7 160 38l-87 150l258 149l154 -267l-223 -129q-149 -86 -270 -63v-821h-277v154q-4 -5 -20 -30t-38 -44q-67 -60 -129.5 -82t-146.5 -22q-242 0 -326 174q-47 96 -47 283v657h292v-657q0 -93 22 -140q39 -83 153 -83z
" />
    <glyph glyph-name="Upsilonafrican" unicode="&#x1b1;" horiz-adv-x="1587" 
d="M788 276q165 0 251 123t86 296t-47 295t-168 208v266h584v-246h-307q256 -203 256 -532q0 -289 -171 -487.5t-469 -198.5t-479.5 199.5t-181.5 486.5q0 176 59.5 300t196.5 232h-307v246h584v-266q-121 -86 -168 -207t-47 -296t81.5 -297t246.5 -122z" />
    <glyph glyph-name="uni01B5" unicode="&#x1b5;" 
d="M220 731v152h329l264 330h-742v261h1126v-247l-275 -344h169v-152h-290l-375 -471h773v-260h-1147v260l376 471h-208z" />
    <glyph glyph-name="uni01B6" unicode="&#x1b6;" horiz-adv-x="1024" 
d="M129 672h299l164 186h-521v232h884v-237l-162 -181h107v-152h-243l-255 -286h572v-234h-941v222l262 298h-166v152z" />
    <glyph glyph-name="Ezh" unicode="&#x1b7;" horiz-adv-x="1228" 
d="M78 1208v266h1090v-225l-302 -316q90 -39 155 -113q137 -76 137 -341t-174 -381t-437 -116t-397 187q-84 116 -94 246h291q9 -86 51 -140t162 -54t210 64.5t90 187.5t-28 199q-46 46 -164 61l-2 -2l-373 2l465 475h-680z" />
    <glyph glyph-name="Ezhreversed" unicode="&#x1b8;" horiz-adv-x="1228" 
d="M368 473q0 -123 90 -187.5t210 -64.5t162 54t51 140h291q-10 -130 -94 -246q-134 -187 -397 -187t-437 116t-174 381t137 341q65 74 155 113l-302 316v225h1090v-266h-680l465 -475l-373 -2l-2 2q-118 -15 -164 -61q-28 -76 -28 -199z" />
    <glyph glyph-name="ezhreversed" unicode="&#x1b9;" horiz-adv-x="1128" 
d="M368 69q0 -123 54.5 -196.5t195.5 -73.5q100 0 127 54t36 140h291q-10 -130 -94 -246q-94 -187 -357 -187t-407 125t-144 390t137 356q65 74 155 113l-302 316v225h990v-266h-580l365 -475l-273 -2l-2 2q-118 -15 -164 -61q-28 -91 -28 -214z" />
    <glyph glyph-name="twostroke" unicode="&#x1bb;" horiz-adv-x="1253" 
d="M1069 992q0 -103 -40 -192h167v-201h-328q-44 -38 -102 -78l-114 -81q-107 -76 -146.5 -110t-66.5 -79h633v-251h-993q4 156 67 285q61 145 288 307q5 4 10 7h-318v201h569q83 93 83 193q0 101 -51 162t-146 61q-130 0 -177 -97q-27 -56 -32 -178h-277q20 516 472 516
q230 0 366 -127.5t136 -337.5z" />
    <glyph glyph-name="clickdental" unicode="&#x1c0;" horiz-adv-x="573" 
d="M428 1488v-1488h-263v1488h263z" />
    <glyph glyph-name="clicklateral" unicode="&#x1c1;" horiz-adv-x="1083" 
d="M928 1488v-1488h-263v1488h263zM428 1488v-1488h-263v1488h263z" />
    <glyph glyph-name="clickalveolar" unicode="&#x1c2;" horiz-adv-x="1172" 
d="M1110 1067v-263h-432v-204h432v-263h-432v-337h-263v337h-388v263h388v204h-388v263h388v421h263v-421h432z" />
    <glyph glyph-name="clickretroflex" unicode="&#x1c3;" horiz-adv-x="682" 
d="M232 289h298v-289h-298v289zM225 1469h313v-374l-81 -688h-149l-83 688v374z" />
    <glyph glyph-name="DZcaron" unicode="&#x1c4;" horiz-adv-x="2519" 
d="M707 0h-635v1474h635q328 -5 470 -207t142 -495t-118 -497q-160 -275 -494 -275zM371 1218v-962h284q218 0 304 215q47 118 47 312q0 195 -70 315t-281 120h-284zM1355 1213v261h1126v-247l-771 -967h773v-260h-1147v260l761 953h-742zM1769 1539l-235 299h232l131 -169
l130 169h232l-234 -299h-256z" />
    <glyph glyph-name="Dzcaron" unicode="&#x1c5;" horiz-adv-x="2319" 
d="M723 0h-635v1474h635q328 -5 470 -207t142 -495t-118 -497q-160 -275 -494 -275zM387 1218v-962h284q218 0 304 215q47 118 47 312q0 195 -70 315t-281 120h-284zM1376 858v232h884v-237l-553 -619h572v-234h-941v222l559 636h-521zM1661 1177l-235 299h232l131 -169
l130 169h232l-234 -299h-256z" />
    <glyph glyph-name="dzcaron" unicode="&#x1c6;" horiz-adv-x="2171" 
d="M844 529q0 200 -101 286q-62 52 -144 52q-125 -1 -183 -95t-59 -240t59 -236t181 -90t184 90t63 233zM527 1116q207 0 309 -164v520h289v-1472h-277v151q-61 -97 -139 -141t-194 -44q-191 0 -321 154t-131 416q1 260 129 420t335 160zM1232 858v232h884v-237l-553 -619
h572v-234h-941v222l559 636h-521zM1526 1181l-235 299h232l131 -169l130 169h232l-234 -299h-256z" />
    <glyph glyph-name="LJ" unicode="&#x1c7;" horiz-adv-x="2166" 
d="M109 1474h308v-1209h730v-265h-1038v1474zM2104 469q0 -484 -462 -484q-287 1 -385 151t-98 410v34h291v-34q4 -170 38 -240t142 -70q110 0 145 76q21 45 21 152v1031h308v-1026z" />
    <glyph glyph-name="Lj" unicode="&#x1c8;" horiz-adv-x="1711" 
d="M109 1474h308v-1209h730v-265h-1038v1474zM1267 -212q72 0 72 100v1197h285v-1202q0 -165 -65 -244t-255 -79l-102 3v228q36 -3 65 -3zM1624 1220h-285v263h285v-263z" />
    <glyph glyph-name="lj" unicode="&#x1c9;" horiz-adv-x="1068" 
d="M424 0h-285v1474h285v-1474zM643 -212q72 0 72 100v1197h285v-1202q0 -165 -65 -244t-255 -79l-102 3v228q36 -3 65 -3zM1000 1220h-285v263h285v-263z" />
    <glyph glyph-name="NJ" unicode="&#x1ca;" horiz-adv-x="2372" 
d="M99 1474h323l587 -1029v1029h287v-1474h-308l-602 1047v-1047h-287v1474zM2300 458q0 -484 -462 -484q-287 0 -385 150t-98 411v34h291v-34q4 -171 38 -241t142 -69q110 0 145 76q21 45 21 152v1031h308v-1026z" />
    <glyph glyph-name="Nj" unicode="&#x1cb;" horiz-adv-x="1855" 
d="M104 1474h323l587 -1029v1029h287v-1474h-308l-602 1047v-1047h-287v1474zM1406 -207q72 0 72 100v1197h285v-1202q0 -165 -65 -244t-255 -79l-102 3v228q36 -3 65 -3zM1763 1225h-285v263h285v-263z" />
    <glyph glyph-name="nj" unicode="&#x1cc;" horiz-adv-x="1639" 
d="M604 879q-227 0 -227 -289v-590h-284v1088h275v-159q55 84 104 121q88 66 240 66t260 -88t107 -294v-734h-292v663q0 86 -23 132q-42 84 -160 84zM1172 -212q72 0 72 100v1197h285v-1202q0 -165 -65 -244t-255 -79l-102 3v228q36 -3 65 -3zM1529 1220h-285v263h285v-263z
" />
    <glyph glyph-name="Acaron" unicode="&#x1cd;" horiz-adv-x="1479" 
d="M578 1474h348l522 -1474h-334l-95 303h-543l-102 -303h-322zM559 557h374l-184 580zM623 1615l-235 299h232l131 -169l130 169h232l-234 -299h-256z" />
    <glyph glyph-name="acaron" unicode="&#x1ce;" horiz-adv-x="1139" 
d="M400 -34q-148 0 -244 84t-97 240q0 201 155 291q85 49 250 70l97 12q79 10 113 25q61 26 61 87q-1 61 -47 87t-142 25q-96 1 -131 -43q-36 -44 -46 -107h-275q24 379 468 379q179 0 318 -71t139 -268v-500q1 -175 17 -198q16 -24 44 -37v-42h-310q-20 50 -26 128
q-149 -162 -344 -162zM345 316q1 -78 41 -110t115 -33q75 0 153 54t80 197v106q-51 -32 -130 -47l-64 -12q-90 -16 -129 -39q-66 -38 -66 -116zM437 1260l-235 299h232l131 -169l130 169h232l-234 -299h-256z" />
    <glyph glyph-name="Icaron" unicode="&#x1cf;" horiz-adv-x="569" 
d="M438 0h-306v1474h306v-1474zM161 1634l-235 299h232l131 -169l130 169h232l-234 -299h-256z" />
    <glyph glyph-name="icaron" unicode="&#x1d0;" horiz-adv-x="569" 
d="M137 1090h289v-1090h-289v1090zM161 1244l-235 299h232l131 -169l130 169h232l-234 -299h-256z" />
    <glyph glyph-name="Ocaron" unicode="&#x1d1;" horiz-adv-x="1593" 
d="M808 -41q-316 0 -483 172q-224 211 -224 612t224 604q167 172 483 172t483 -172q223 -203 223 -604t-223 -612q-167 -172 -483 -172zM1206 738q0 248 -108 384t-290 136q-183 0 -292 -135t-109 -384t109 -384t292 -135q182 0 290 135t108 383zM685 1677l-235 299h232
l131 -169l130 169h232l-234 -299h-256z" />
    <glyph glyph-name="ocaron" unicode="&#x1d2;" 
d="M623 -38q-281 0 -419 170t-138 409q0 238 138 411t419 173t419 -173t138 -411q0 -239 -138 -409t-419 -170zM881 543q0 165 -67 253t-192 88q-124 0 -192 -88t-68 -253q0 -164 68 -253t192 -89q125 0 192 89t67 253zM502 1280l-235 299h232l131 -169l130 169h232
l-234 -299h-256z" />
    <glyph glyph-name="Ucaron" unicode="&#x1d3;" horiz-adv-x="1479" 
d="M156 1474h313v-906q0 -152 36 -222q55 -124 243 -124t244 124q36 70 36 222v906h313v-906q0 -235 -73 -366q-136 -240 -519 -240t-520 240q-73 131 -73 366v906zM610 1633l-235 299h232l131 -169l130 169h232l-234 -299h-256z" />
    <glyph glyph-name="ucaron" unicode="&#x1d4;" 
d="M592 210q228 0 228 287v593h289v-1090h-277v154q-4 -5 -20 -30t-38 -44q-68 -60 -130 -82t-146 -22q-242 0 -326 174q-47 96 -47 283v657h292v-657q0 -93 22 -140q39 -83 153 -83zM490 1226l-235 299h232l131 -169l130 169h232l-234 -299h-256z" />
    <glyph glyph-name="Udieresismacron" unicode="&#x1d5;" horiz-adv-x="1479" 
d="M156 1474h313v-906q0 -152 36 -222q55 -124 243 -124t244 124q36 70 36 222v906h313v-906q0 -235 -73 -366q-136 -240 -519 -240t-520 240q-73 131 -73 366v906zM439 1882h261v-237h-261v237zM839 1882h261v-237h-261v237zM393 2204h711v-152h-711v152z" />
    <glyph glyph-name="udieresismacron" unicode="&#x1d6;" 
d="M592 210q228 0 228 287v593h289v-1090h-277v154q-4 -5 -20 -30t-38 -44q-68 -60 -130 -82t-146 -22q-242 0 -326 174q-47 96 -47 283v657h292v-657q0 -93 22 -140q39 -83 153 -83zM297 1480h261v-237h-261v237zM697 1480h261v-237h-261v237zM273 1781h711v-152h-711v152z
" />
    <glyph glyph-name="Udieresisacute" unicode="&#x1d7;" horiz-adv-x="1479" 
d="M156 1474h313v-906q0 -152 36 -222q55 -124 243 -124t244 124q36 70 36 222v906h313v-906q0 -235 -73 -366q-136 -240 -519 -240t-520 240q-73 131 -73 366v906zM423 1824h261v-237h-261v237zM823 1824h261v-237h-261v237zM1108 2209l-304 -299h-206l192 299h318z" />
    <glyph glyph-name="udieresisacute" unicode="&#x1d8;" 
d="M592 210q228 0 228 287v593h289v-1090h-277v154q-4 -5 -20 -30t-38 -44q-68 -60 -130 -82t-146 -22q-242 0 -326 174q-47 96 -47 283v657h292v-657q0 -93 22 -140q39 -83 153 -83zM287 1474h261v-237h-261v237zM687 1474h261v-237h-261v237zM995 1898l-304 -299h-206
l192 299h318z" />
    <glyph glyph-name="Udieresiscaron" unicode="&#x1d9;" horiz-adv-x="1479" 
d="M156 1474h313v-906q0 -152 36 -222q55 -124 243 -124t244 124q36 70 36 222v906h313v-906q0 -235 -73 -366q-136 -240 -519 -240t-520 240q-73 131 -73 366v906zM423 1878h261v-237h-261v237zM823 1878h261v-237h-261v237zM611 2015l-235 299h232l131 -169l130 169h232
l-234 -299h-256z" />
    <glyph glyph-name="udieresiscaron" unicode="&#x1da;" 
d="M592 210q228 0 228 287v593h289v-1090h-277v154q-4 -5 -20 -30t-38 -44q-68 -60 -130 -82t-146 -22q-242 0 -326 174q-47 96 -47 283v657h292v-657q0 -93 22 -140q39 -83 153 -83zM282 1480h261v-237h-261v237zM682 1480h261v-237h-261v237zM490 1599l-235 299h232
l131 -169l130 169h232l-234 -299h-256z" />
    <glyph glyph-name="Udieresisgrave" unicode="&#x1db;" horiz-adv-x="1479" 
d="M156 1474h313v-906q0 -152 36 -222q55 -124 243 -124t244 124q36 70 36 222v906h313v-906q0 -235 -73 -366q-136 -240 -519 -240t-520 240q-73 131 -73 366v906zM428 1851h261v-237h-261v237zM828 1851h261v-237h-261v237zM870 1949h-206l-303 299h317z" />
    <glyph glyph-name="udieresisgrave" unicode="&#x1dc;" 
d="M592 210q228 0 228 287v593h289v-1090h-277v154q-4 -5 -20 -30t-38 -44q-68 -60 -130 -82t-146 -22q-242 0 -326 174q-47 96 -47 283v657h292v-657q0 -93 22 -140q39 -83 153 -83zM311 1467h261v-237h-261v237zM711 1467h261v-237h-261v237zM748 1574h-206l-303 299h317z
" />
    <glyph glyph-name="eturned" unicode="&#x1dd;" horiz-adv-x="1139" 
d="M549 887q-136 0 -196 -125h-291q11 97 101 197q140 159 392 159q208 0 367 -134t159 -426t-143.5 -443.5t-372.5 -151.5q-288 0 -425 212q-64 97 -79 199t-13 242h746q-6 164 -103 230q-59 41 -142 41zM569 198q95 0 149.5 62t68.5 168h-443q7 -113 68.5 -171.5
t156.5 -58.5z" />
    <glyph glyph-name="Adieresismacron" unicode="&#x1de;" horiz-adv-x="1479" 
d="M578 1474h348l522 -1474h-334l-95 303h-543l-102 -303h-322zM559 557h374l-184 580zM436 1902h261v-237h-261v237zM836 1902h261v-237h-261v237zM395 2204h711v-152h-711v152z" />
    <glyph glyph-name="adieresismacron" unicode="&#x1df;" horiz-adv-x="1139" 
d="M400 -34q-148 0 -244 84t-97 240q0 201 155 291q85 49 250 70l97 12q79 10 113 25q61 26 61 87q-1 61 -47 87t-142 25q-96 1 -131 -43q-36 -44 -46 -107h-275q24 379 468 379q179 0 318 -71t139 -268v-500q1 -175 17 -198q16 -24 44 -37v-42h-310q-20 50 -26 128
q-149 -162 -344 -162zM345 316q1 -78 41 -110t115 -33q75 0 153 54t80 197v106q-51 -32 -130 -47l-64 -12q-90 -16 -129 -39q-66 -38 -66 -116zM259 1513h261v-237h-261v237zM659 1513h261v-237h-261v237zM219 1810h711v-152h-711v152z" />
    <glyph glyph-name="Adotmacron" unicode="&#x1e0;" horiz-adv-x="1479" 
d="M578 1474h348l522 -1474h-334l-95 303h-543l-102 -303h-322zM559 557h374l-184 580zM620 1895h260v-237h-260v237zM395 2204h711v-152h-711v152z" />
    <glyph glyph-name="adotmacron" unicode="&#x1e1;" horiz-adv-x="1139" 
d="M400 -34q-148 0 -244 84t-97 240q0 201 155 291q85 49 250 70l97 12q79 10 113 25q61 26 61 87q-1 61 -47 87t-142 25q-96 1 -131 -43q-36 -44 -46 -107h-275q24 379 468 379q179 0 318 -71t139 -268v-500q1 -175 17 -198q16 -24 44 -37v-42h-310q-20 50 -26 128
q-149 -162 -344 -162zM345 316q1 -78 41 -110t115 -33q75 0 153 54t80 197v106q-51 -32 -130 -47l-64 -12q-90 -16 -129 -39q-66 -38 -66 -116zM419 1505h260v-237h-260v237zM198 1801h711v-152h-711v152z" />
    <glyph glyph-name="AEmacron" unicode="&#x1e2;" horiz-adv-x="2048" 
d="M1948 1469v-256h-759v-317h683v-252h-683v-384h773v-260h-1076v312h-441l-107 -312h-320l536 1469h1394zM886 1218h-133l-227 -664h360v664zM808 1821h711v-152h-711v152z" />
    <glyph glyph-name="aemacron" unicode="&#x1e3;" horiz-adv-x="1821" 
d="M94 734q19 380 494 380q190 0 334 -117q137 117 323 117q332 0 449 -273q62 -145 57 -367h-746q0 -113 27 -173q50 -110 192 -110q80 -1 139 27t87 109h289q-12 -100 -99 -200q-143 -163 -406 -163q-136 0 -232 51t-149 131q-143 -183 -415 -183q-202 0 -292 98t-90 234
q0 185 137 270q76 46 231 70l175 26q68 10 99 27q48 26 48 78q0 123 -195 123q-110 0 -153 -62q-23 -33 -26 -93h-278zM341 299q0 -47 35 -88q34 -41 120 -41t144 32q104 58 104 210v109q-21 -15 -38 -21t-76 -19l-109 -22q-94 -19 -126 -41q-54 -36 -54 -119zM1234 888
q-214 0 -225 -230h446q-7 106 -60 168t-161 62zM551 1448h711v-152h-711v152z" />
    <glyph glyph-name="Gstroke" unicode="&#x1e4;" horiz-adv-x="1690" 
d="M824 284v201h314q9 29 14 60h-341v246h614v-306h229v-201h-229v-284h-204l-31 184q-89 -105 -160 -148q-122 -75 -300 -75q-293 0 -480 203q-195 204 -195 560t197 572t521 216q281 0 451.5 -142.5t195.5 -355.5h-303q-35 151 -171 211q-76 33 -169 33
q-178 0 -292.5 -134.5t-114.5 -405.5t124 -384t268 -113t235 63h-173z" />
    <glyph glyph-name="gstroke" unicode="&#x1e5;" horiz-adv-x="1407" 
d="M546 444v201h277q-14 87 -58 141q-65 81 -175 81q-150 0 -207 -141q-30 -76 -30 -178t32 -176q58 -138 208 -138q100 0 169 75q44 49 60 135h-276zM516 1116q216 0 317 -183v157h277v-445h266v-201h-266v-388q0 -211 -71 -318q-122 -184 -468 -184q-209 0 -341 82
t-146 245h310q12 -50 39 -72q46 -39 155 -39q154 0 206 103q34 66 34 222v70q-41 -70 -88 -105q-85 -65 -221 -65q-210 0 -335.5 147.5t-125.5 395.5t121 413t337 165z" />
    <glyph glyph-name="Gcaron" unicode="&#x1e6;" horiz-adv-x="1593" 
d="M807 1258q-179 0 -293 -134t-114 -406q0 -271 124 -384t280 -113q156 -1 256 89q99 90 122 235h-341v246h614v-791h-204l-31 184q-89 -105 -160 -148q-122 -75 -300 -75q-293 0 -480 203q-195 204 -195 560t197 572t521 216q281 0 451 -142t196 -356h-303
q-35 151 -171 211q-76 33 -169 33zM677 1643l-235 299h232l131 -169l130 169h232l-234 -299h-256z" />
    <glyph glyph-name="gcaron" unicode="&#x1e7;" 
d="M524 1116q216 0 317 -183v157h277v-1034q0 -211 -71 -318q-122 -184 -468 -184q-209 0 -341 82t-146 245h310q12 -50 39 -72q46 -39 155 -39q154 0 206 103q34 66 34 222v70q-41 -70 -88 -105q-85 -65 -221 -65q-209 -1 -335 147t-126 396t121 412q121 166 337 166z
M839 545q1 160 -65 241t-176 81q-150 0 -207 -141q-30 -76 -30 -178t32 -176q58 -138 208 -138q100 0 169 76t69 235zM404 1280l-235 299h232l131 -169l130 169h232l-234 -299h-256z" />
    <glyph glyph-name="Kcaron" unicode="&#x1e8;" horiz-adv-x="1479" 
d="M161 1474h303v-607l569 607h398l-604 -607l635 -867h-396l-455 644l-147 -151v-493h-303v1474zM610 1589l-235 299h232l131 -169l130 169h232l-234 -299h-256z" />
    <glyph glyph-name="kcaron" unicode="&#x1e9;" horiz-adv-x="1139" 
d="M130 1469h280v-794l355 410h353l-381 -417l396 -668h-344l-261 466l-118 -123v-343h-280v1469zM547 1545l-235 299h232l131 -169l130 169h232l-234 -299h-256z" />
    <glyph glyph-name="Oogonek" unicode="&#x1ea;" horiz-adv-x="1593" 
d="M1206 738q0 248 -108 384t-290 136q-183 0 -292 -135t-109 -384t109 -384t292 -135q182 0 290 135t108 383zM570 -287q0 86 84 163q40 37 120 84q-291 9 -449 171q-224 211 -224 612t224 604q167 172 483 172t483 -172q223 -203 223 -604t-223 -612q-117 -121 -309 -157
l-57 -41q-69 -50 -102 -86t-33 -81q0 -46 33 -72t76 -26t107 23v-144q-98 -37 -200 -37t-169 58t-67 145z" />
    <glyph glyph-name="oogonek" unicode="&#x1eb;" 
d="M881 543q0 165 -67 253t-192 88q-124 0 -192 -88t-68 -253q0 -164 68 -253t192 -89q125 0 192 89t67 253zM568 -497q-102 1 -169 59t-67 144t84 163q45 41 141 96q-232 17 -353 167q-138 170 -138 409q0 238 138 411t419 173t419 -173t138 -411q0 -239 -138 -409
q-104 -129 -291 -160l-64 -46q-69 -50 -102 -86t-33 -81t33 -71t76 -27q43 0 107 23v-144q-98 -37 -200 -37z" />
    <glyph glyph-name="Oogonekmacron" unicode="&#x1ec;" horiz-adv-x="1593" 
d="M1206 738q0 248 -108 384t-290 136q-183 0 -292 -135t-109 -384t109 -384t292 -135q182 0 290 135t108 383zM443 1831h711v-152h-711v152zM787 -485q-102 1 -169 59t-67 144t84 163q38 35 113 80q-273 15 -423 170q-224 211 -224 612t224 604q167 172 483 172t483 -172
q223 -203 223 -604t-223 -612q-128 -131 -342 -162l-43 -31q-69 -50 -102 -86t-33 -81t33 -71t76 -27q43 0 107 23v-144q-98 -37 -200 -37z" />
    <glyph glyph-name="oogonekmacron" unicode="&#x1ed;" 
d="M881 543q0 165 -67 253t-192 88q-124 0 -192 -88t-68 -253q0 -164 68 -253t192 -89q125 0 192 89t67 253zM268 1430h711v-152h-711v152zM598 -487q-102 1 -169 59t-67 144t84 163q41 37 122 85q-240 15 -371 177t-131 400t138 411t419 173t419 -173t138 -411
q0 -239 -138 -409q-98 -121 -269 -156l-56 -40q-69 -50 -102 -86t-33 -81t33 -71t76 -27q43 0 107 23v-144q-98 -37 -200 -37z" />
    <glyph glyph-name="Ezhcaron" unicode="&#x1ee;" horiz-adv-x="1190" 
d="M490 1637l-235 299h232l131 -169l130 169h232l-234 -299h-256zM55 1208v266h1090v-225l-302 -316q90 -39 155 -113q137 -76 137 -341t-174 -381t-437 -116t-397 187q-84 116 -94 246h291q9 -86 51.5 -140t162.5 -54t209.5 64.5t89.5 187.5t-28 199q-46 46 -164 61l-2 -2
l-373 2l465 475h-680z" />
    <glyph glyph-name="ezhcaron" unicode="&#x1ef;" horiz-adv-x="1092" 
d="M441 1237l-235 299h232l131 -169l130 169h232l-234 -299h-256zM56 819v266h990v-225l-302 -316q90 -39 155 -113q137 -91 137 -356t-144 -390t-407 -125t-357 187q-84 116 -94 246h291q9 -86 36 -140t127 -54q141 0 195.5 73.5t54.5 196.5t-28 214q-46 46 -164 61l-2 -2
l-273 2l365 475h-580z" />
    <glyph glyph-name="jcaron" unicode="&#x1f0;" horiz-adv-x="569" 
d="M74 -212q72 0 72 100v1197h285v-1202q0 -165 -65 -244t-255 -79l-102 3v228q36 -3 65 -3zM161 1247l-235 299h232l131 -169l130 169h232l-234 -299h-256z" />
    <glyph glyph-name="DZ" unicode="&#x1f1;" horiz-adv-x="2572" 
d="M744 0h-635v1474h635q328 -5 470 -207t142 -495t-118 -497q-160 -275 -494 -275zM408 1218v-962h284q218 0 304 215q47 118 47 312q-1 195 -71 315t-280 120h-284zM1382 1213v261h1126v-247l-771 -967h773v-260h-1147v260l761 953h-742z" />
    <glyph glyph-name="Dz" unicode="&#x1f2;" horiz-adv-x="2361" 
d="M739 0h-635v1474h635q328 -5 470 -207t142 -495t-118 -497q-160 -275 -494 -275zM403 1218v-962h284q218 0 304 215q47 118 47 312q0 195 -70 315t-281 120h-284zM1397 858v232h884v-237l-553 -619h572v-234h-941v222l559 636h-521z" />
    <glyph glyph-name="dz" unicode="&#x1f3;" horiz-adv-x="2219" 
d="M844 529q0 200 -101 286q-62 52 -144 52q-125 -1 -183 -95t-59 -240t59 -236t181 -90t184 90t63 233zM527 1116q207 0 309 -164v520h289v-1472h-277v151q-61 -97 -139 -141t-194 -44q-191 0 -321 154t-131 416q1 260 129 420t335 160zM1264 869v232h884v-237l-553 -619
h572v-234h-941v222l559 636h-521z" />
    <glyph glyph-name="Gacute" unicode="&#x1f4;" horiz-adv-x="1593" 
d="M807 1258q-179 0 -293 -134t-114 -406q0 -271 124 -384t280 -113q156 -1 256 89q99 90 122 235h-341v246h614v-791h-204l-31 184q-89 -105 -160 -148q-122 -75 -300 -75q-293 0 -480 203q-195 204 -195 560t197 572t521 216q281 0 451 -142t196 -356h-303
q-35 151 -171 211q-76 33 -169 33zM1141 1958l-304 -299h-206l192 299h318z" />
    <glyph glyph-name="gacute" unicode="&#x1f5;" 
d="M524 1116q216 0 317 -183v157h277v-1034q0 -211 -71 -318q-122 -184 -468 -184q-209 0 -341 82t-146 245h310q12 -50 39 -72q46 -39 155 -39q154 0 206 103q34 66 34 222v70q-41 -70 -88 -105q-85 -65 -221 -65q-209 -1 -335 147t-126 396t121 412q121 166 337 166z
M839 545q1 160 -65 241t-176 81q-150 0 -207 -141q-30 -76 -30 -178t32 -176q58 -138 208 -138q100 0 169 76t69 235zM914 1581l-304 -299h-206l192 299h318z" />
    <glyph glyph-name="Wynn" unicode="&#x1f7;" horiz-adv-x="1366" 
d="M469 0h-306v1474h642q222 0 354 -114t132 -364t-132 -348t-377 -218l-313 -200v-230zM756 1218h-287v-734l287 200q109 70 169.5 138t60.5 183t-60.5 164t-169.5 49z" />
    <glyph glyph-name="Ngrave" unicode="&#x1f8;" horiz-adv-x="1479" 
d="M151 1474h323l587 -1029v1029h287v-1474h-308l-602 1047v-1047h-287v1474zM937 1591h-206l-303 299h317z" />
    <glyph glyph-name="ngrave" unicode="&#x1f9;" 
d="M646 879q-227 0 -227 -289v-590h-284v1088h275v-159q55 84 104 121q88 66 240 66t260 -88t107 -294v-734h-292v663q0 86 -23 132q-42 84 -160 84zM830 1276h-206l-303 299h317z" />
    <glyph glyph-name="Aringacute" unicode="&#x1fa;" horiz-adv-x="1479" 
d="M578 1474h348l522 -1474h-334l-95 303h-543l-102 -303h-322zM559 557h374l-184 580zM750 2002q90 0 154 -64t64 -154t-64 -154t-154 -64t-154 64t-64 154t64 154t154 64zM750 1666q50 0 84 34t34 84q0 49 -34 84t-84 35q-49 0 -84 -35t-35 -84q0 -50 35 -84t84 -34z
M1121 2374l-304 -299h-206l192 299h318z" />
    <glyph glyph-name="aringacute" unicode="&#x1fb;" horiz-adv-x="1139" 
d="M400 -34q-148 0 -244 84t-97 240q0 201 155 291q85 49 250 70l97 12q79 10 113 25q61 26 61 87q-1 61 -47 87t-142 25q-96 1 -131 -43q-36 -44 -46 -107h-275q24 379 468 379q179 0 318 -71t139 -268v-500q1 -175 17 -198q16 -24 44 -37v-42h-310q-20 50 -26 128
q-149 -162 -344 -162zM345 316q1 -78 41 -110t115 -33q75 0 153 54t80 197v106q-51 -32 -130 -47l-64 -12q-90 -16 -129 -39q-66 -38 -66 -116zM553 1632q90 0 154 -64t64 -154t-64 -154t-154 -64t-154 64t-64 154t64 154t154 64zM553 1296q49 0 83 34t35 84q-1 49 -35 84
t-83 35t-84 -35t-35 -84q0 -50 35 -84t84 -34zM913 2016l-304 -299h-206l192 299h318z" />
    <glyph glyph-name="AEacute" unicode="&#x1fc;" horiz-adv-x="2048" 
d="M1948 1469v-256h-759v-317h683v-252h-683v-384h773v-260h-1076v312h-441l-107 -312h-320l536 1469h1394zM886 1218h-133l-227 -664h360v664zM1480 1877l-304 -299h-206l192 299h318z" />
    <glyph glyph-name="aeacute" unicode="&#x1fd;" horiz-adv-x="1821" 
d="M94 734q19 380 494 380q190 0 334 -117q137 117 323 117q332 0 449 -273q62 -145 57 -367h-746q0 -113 27 -173q50 -110 192 -110q80 -1 139 27t87 109h289q-12 -100 -99 -200q-143 -163 -406 -163q-136 0 -232 51t-149 131q-143 -183 -415 -183q-202 0 -292 98t-90 234
q0 185 137 270q76 46 231 70l175 26q68 10 99 27q48 26 48 78q0 123 -195 123q-110 0 -153 -62q-23 -33 -26 -93h-278zM341 299q0 -47 35 -88q34 -41 120 -41t144 32q104 58 104 210v109q-21 -15 -38 -21t-76 -19l-109 -22q-94 -19 -126 -41q-54 -36 -54 -119zM1234 888
q-214 0 -225 -230h446q-7 106 -60 168t-161 62zM1285 1542l-304 -299h-206l192 299h318z" />
    <glyph glyph-name="Ostrokeacute" unicode="&#x1fe;" horiz-adv-x="1593" 
d="M1512 735q0 -342 -196 -559t-511 -217q-278 0 -474 169l-175 -185l-85 80l182 190q-154 207 -154 540q0 332 218 580q188 186 488 186q131 0 257 -44t222 -127l164 178l85 -81l-168 -187q147 -181 147 -523zM1112 381q94 161 94 346t-50 304l-628 -690q108 -121 277 -121
q213 0 307 161zM805 1258q-214 0 -307 -142t-93 -377q0 -152 54 -299l633 697q-39 47 -108 81q-72 40 -179 40zM1147 1941l-304 -299h-206l192 299h318z" />
    <glyph glyph-name="ostrokeacute" unicode="&#x1ff;" 
d="M1180 552q0 -264 -152 -428t-417 -165q-133 1 -213 35t-147 86l-135 -142l-74 62l142 144q-118 159 -118 404q0 244 146 410t390 167q142 -1 230 -31t163 -92l138 145l71 -67l-143 -149q119 -157 119 -379zM631 199q123 0 187 96t63 244q0 71 -23 179l-413 -439
q42 -41 79 -61t107 -19zM618 884q-120 0 -188 -90t-68 -226q0 -137 31 -201l415 441q-36 44 -92 60t-98 16zM959 1541l-304 -299h-206l192 299h318z" />
    <glyph glyph-name="Adblgrave" unicode="&#x200;" horiz-adv-x="1479" 
d="M578 1474h348l522 -1474h-334l-95 303h-543l-102 -303h-322zM559 557h374l-184 580zM941 1903l149 -292h-196l-244 292h291zM651 1611h-196l-244 292h291z" />
    <glyph glyph-name="adblgrave" unicode="&#x201;" horiz-adv-x="1139" 
d="M400 -34q-148 0 -244 84t-97 240q0 201 155 291q85 49 250 70l97 12q79 10 113 25q61 26 61 87q-1 61 -47 87t-142 25q-96 1 -131 -43q-36 -44 -46 -107h-275q24 379 468 379q179 0 318 -71t139 -268v-500q1 -175 17 -198q16 -24 44 -37v-42h-310q-20 50 -26 128
q-149 -162 -344 -162zM345 316q1 -78 41 -110t115 -33q75 0 153 54t80 197v106q-51 -32 -130 -47l-64 -12q-90 -16 -129 -39q-66 -38 -66 -116zM784 1567l149 -292h-196l-244 292h291zM494 1275h-196l-244 292h291z" />
    <glyph glyph-name="Ainvertedbreve" unicode="&#x202;" horiz-adv-x="1479" 
d="M578 1474h348l522 -1474h-334l-95 303h-543l-102 -303h-322zM559 557h374l-184 580zM757 1722q-188 0 -210 -144h-135q25 298 345 298t345 -298h-135q-22 144 -210 144z" />
    <glyph glyph-name="ainvertedbreve" unicode="&#x203;" horiz-adv-x="1139" 
d="M400 -34q-148 0 -244 84t-97 240q0 201 155 291q85 49 250 70l97 12q79 10 113 25q61 26 61 87q-1 61 -47 87t-142 25q-96 1 -131 -43q-36 -44 -46 -107h-275q24 379 468 379q179 0 318 -71t139 -268v-500q1 -175 17 -198q16 -24 44 -37v-42h-310q-20 50 -26 128
q-149 -162 -344 -162zM345 316q1 -78 41 -110t115 -33q75 0 153 54t80 197v106q-51 -32 -130 -47l-64 -12q-90 -16 -129 -39q-66 -38 -66 -116zM562 1567q320 0 345 -298h-135q-22 144 -210 144t-210 -144h-135q25 298 345 298z" />
    <glyph glyph-name="Edblgrave" unicode="&#x204;" horiz-adv-x="1366" 
d="M1246 1213h-780v-313h716v-256h-716v-379h816v-265h-1117v1474h1081v-261zM919 1926l149 -292h-196l-244 292h291zM629 1634h-196l-244 292h291z" />
    <glyph glyph-name="edblgrave" unicode="&#x205;" horiz-adv-x="1139" 
d="M579 195q136 0 196 125h291q-11 -97 -101 -197q-140 -159 -392 -159q-208 0 -367 134t-159 426q-1 292 143 444q144 151 373 151q288 0 425 -212q64 -97 79 -199t13 -242h-746q6 -164 103 -230q59 -41 142 -41zM559 884q-95 0 -149 -62t-69 -168h443q-6 114 -68 172
t-157 58zM789 1585l149 -292h-196l-244 292h291zM499 1293h-196l-244 292h291z" />
    <glyph glyph-name="Einvertedbreve" unicode="&#x206;" horiz-adv-x="1366" 
d="M1246 1213h-780v-313h716v-256h-716v-379h816v-265h-1117v1474h1081v-261zM716 1778q-188 0 -210 -144h-135q25 298 345 298t345 -298h-135q-22 144 -210 144z" />
    <glyph glyph-name="einvertedbreve" unicode="&#x207;" horiz-adv-x="1139" 
d="M579 195q136 0 196 125h291q-11 -97 -101 -197q-140 -159 -392 -159q-208 0 -367 134t-159 426q-1 292 143 444q144 151 373 151q288 0 425 -212q64 -97 79 -199t13 -242h-746q6 -164 103 -230q59 -41 142 -41zM559 884q-95 0 -149 -62t-69 -168h443q-6 114 -68 172
t-157 58zM596 1409q-188 0 -210 -144h-135q25 298 345 298t345 -298h-135q-22 144 -210 144z" />
    <glyph glyph-name="Idblgrave" unicode="&#x208;" horiz-adv-x="569" 
d="M438 0h-306v1474h306v-1474zM503 1936l149 -292h-196l-244 292h291zM213 1644h-196l-244 292h291z" />
    <glyph glyph-name="idblgrave" unicode="&#x209;" horiz-adv-x="569" 
d="M137 1090h289v-1090h-289v1090zM499 1577l149 -292h-196l-244 292h291zM209 1285h-196l-244 292h291z" />
    <glyph glyph-name="Iinvertedbreve" unicode="&#x20a;" horiz-adv-x="569" 
d="M438 0h-306v1474h306v-1474zM287 1788q-188 0 -210 -144h-135q25 298 345 298t345 -298h-135q-22 144 -210 144z" />
    <glyph glyph-name="iinvertedbreve" unicode="&#x20b;" horiz-adv-x="569" 
d="M137 1090h289v-1090h-289v1090zM293 1584q320 0 345 -298h-135q-22 144 -210 144t-210 -144h-135q25 298 345 298z" />
    <glyph glyph-name="Odblgrave" unicode="&#x20c;" horiz-adv-x="1593" 
d="M808 -41q-316 0 -483 172q-224 211 -224 612t224 604q167 172 483 172t483 -172q223 -203 223 -604t-223 -612q-167 -172 -483 -172zM1206 738q0 248 -108 384t-290 136q-183 0 -292 -135t-109 -384t109 -384t292 -135q182 0 290 135t108 383zM998 1971l149 -292h-196
l-244 292h291zM708 1679h-196l-244 292h291z" />
    <glyph glyph-name="odblgrave" unicode="&#x20d;" 
d="M623 -38q-281 0 -419 170t-138 409q0 238 138 411t419 173t419 -173t138 -411q0 -239 -138 -409t-419 -170zM881 543q0 165 -67 253t-192 88q-124 0 -192 -88t-68 -253q0 -164 68 -253t192 -89q125 0 192 89t67 253zM814 1591l149 -292h-196l-244 292h291zM524 1299h-196
l-244 292h291z" />
    <glyph glyph-name="Oinvertedbreve" unicode="&#x20e;" horiz-adv-x="1593" 
d="M808 -41q-316 0 -483 172q-224 211 -224 612t224 604q167 172 483 172t483 -172q223 -203 223 -604t-223 -612q-167 -172 -483 -172zM1206 738q0 248 -108 384t-290 136q-183 0 -292 -135t-109 -384t109 -384t292 -135q182 0 290 135t108 383zM800 1813q-188 0 -210 -144
h-135q25 298 345 298t345 -298h-135q-22 144 -210 144z" />
    <glyph glyph-name="oinvertedbreve" unicode="&#x20f;" 
d="M623 -38q-281 0 -419 170t-138 409q0 238 138 411t419 173t419 -173t138 -411q0 -239 -138 -409t-419 -170zM881 543q0 165 -67 253t-192 88q-124 0 -192 -88t-68 -253q0 -164 68 -253t192 -89q125 0 192 89t67 253zM616 1429q-188 0 -210 -144h-135q25 298 345 298
t345 -298h-135q-22 144 -210 144z" />
    <glyph glyph-name="Rdblgrave" unicode="&#x210;" horiz-adv-x="1479" 
d="M1370 1045q0 -95 -53 -197t-175 -144q102 -40 144 -116t43 -231v-99q0 -102 10 -148t54 -73v-37h-339q-32 110 -33 206l-2 137q-1 141 -51 188t-186 47h-318v-578h-301v1474h723q154 -3 238 -38t142 -103q104 -121 104 -288zM464 1218v-396h349q104 0 156 24
q92 42 92 171t-89 175q-50 26 -150 26h-358zM893 1934l149 -292h-196l-244 292h291zM603 1642h-196l-244 292h291z" />
    <glyph glyph-name="rdblgrave" unicode="&#x211;" horiz-adv-x="797" 
d="M681 827q-172 0 -231 -112q-33 -63 -33 -194v-521h-287v1090h272v-190q66 109 115 149q80 67 208 67l38 -2v-292q-45 5 -82 5zM644 1636l149 -292h-196l-244 292h291zM354 1344h-196l-244 292h291z" />
    <glyph glyph-name="Rinvertedbreve" unicode="&#x212;" horiz-adv-x="1479" 
d="M1370 1045q0 -95 -53 -197t-175 -144q102 -40 144 -116t43 -231v-99q0 -102 10 -148t54 -73v-37h-339q-32 110 -33 206l-2 137q-1 141 -51 188t-186 47h-318v-578h-301v1474h723q154 -3 238 -38t142 -103q104 -121 104 -288zM464 1218v-396h349q104 0 156 24
q92 42 92 171t-89 175q-50 26 -150 26h-358zM716 1776q-188 0 -210 -144h-135q25 298 345 298t345 -298h-135q-22 144 -210 144z" />
    <glyph glyph-name="rinvertedbreve" unicode="&#x213;" horiz-adv-x="797" 
d="M681 827q-172 0 -231 -112q-33 -63 -33 -194v-521h-287v1090h272v-190q66 109 115 149q80 67 208 67l38 -2v-292q-45 5 -82 5zM439 1565q320 0 345 -298h-135q-22 144 -210 144t-210 -144h-135q25 298 345 298z" />
    <glyph glyph-name="Udblgrave" unicode="&#x214;" horiz-adv-x="1479" 
d="M156 1474h313v-906q0 -152 36 -222q55 -124 243 -124t244 124q36 70 36 222v906h313v-906q0 -235 -73 -366q-136 -240 -519 -240t-520 240q-73 131 -73 366v906zM953 1951l149 -292h-196l-244 292h291zM663 1659h-196l-244 292h291z" />
    <glyph glyph-name="udblgrave" unicode="&#x215;" 
d="M592 210q228 0 228 287v593h289v-1090h-277v154q-4 -5 -20 -30t-38 -44q-68 -60 -130 -82t-146 -22q-242 0 -326 174q-47 96 -47 283v657h292v-657q0 -93 22 -140q39 -83 153 -83zM822 1586l149 -292h-196l-244 292h291zM532 1294h-196l-244 292h291z" />
    <glyph glyph-name="Uinvertedbreve" unicode="&#x216;" horiz-adv-x="1479" 
d="M156 1474h313v-906q0 -152 36 -222q55 -124 243 -124t244 124q36 70 36 222v906h313v-906q0 -235 -73 -366q-136 -240 -519 -240t-520 240q-73 131 -73 366v906zM766 1792q-188 0 -210 -144h-135q25 298 345 298t345 -298h-135q-22 144 -210 144z" />
    <glyph glyph-name="uinvertedbreve" unicode="&#x217;" 
d="M592 210q228 0 228 287v593h289v-1090h-277v154q-4 -5 -20 -30t-38 -44q-68 -60 -130 -82t-146 -22q-242 0 -326 174q-47 96 -47 283v657h292v-657q0 -93 22 -140q39 -83 153 -83zM639 1414q-188 0 -210 -144h-135q25 298 345 298t345 -298h-135q-22 144 -210 144z" />
    <glyph glyph-name="Scommaaccent" unicode="&#x218;" horiz-adv-x="1366" 
d="M574 -421v238h247v-206q0 -216 -113 -263t-134 -47v88q69 20 101.5 64.5t36.5 125.5h-138zM950 1035q-14 226 -301 226q-113 0 -184 -48.5t-71 -130.5t70 -121q45 -26 192 -61l254 -61q167 -40 252 -107q132 -104 132 -304t-154.5 -333t-439.5 -133t-450 131.5
t-165 361.5h294q14 -101 55 -151q75 -91 257 -91q306 0 306 195q0 72 -64 112t-201 70l-156 35q-230 52 -318 113q-149 102 -149 310t144 338.5t400 130.5t420.5 -123.5t172.5 -358.5h-296z" />
    <glyph glyph-name="scommaaccent" unicode="&#x219;" horiz-adv-x="1139" 
d="M464 -425v238h247v-206q0 -216 -113 -263t-134 -47v88q69 20 101.5 64.5t36.5 125.5h-138zM746 758q-16 145 -189 145q-174 0 -174 -102q0 -45 42 -67t297 -78q170 -40 255 -121q84 -82 84 -205q0 -162 -120.5 -264.5t-374.5 -102.5t-377 108.5t-123 276.5h289
q9 -76 39 -108q53 -57 196 -57q183 0 183 100q0 48 -40 73t-297 86q-185 46 -261 114t-76 208t118.5 248.5t328.5 108.5t338 -81.5t147 -281.5h-285z" />
    <glyph glyph-name="Tcommaaccent" unicode="&#x21a;" 
d="M526 -398v238h247v-206q0 -216 -113 -263t-134 -47v88q69 20 101.5 64.5t36.5 125.5h-138zM1227 1474v-261h-441v-1213h-310v1213h-443v261h1194z" />
    <glyph glyph-name="tcommaaccent" unicode="&#x21b;" horiz-adv-x="682" 
d="M233 -398v238h247v-206q0 -216 -113 -263t-134 -47v88q69 20 101.5 64.5t36.5 125.5h-138zM546 201q58 0 86 2v-213l-135 -5q-202 -7 -276 70q-48 49 -48 151v671h-152v203h152v304h282v-304h177v-203h-177v-576q0 -67 16.5 -83.5t74.5 -16.5z" />
    <glyph glyph-name="Yogh" unicode="&#x21c;" horiz-adv-x="1359" 
d="M688 1262q-58 0 -108.5 -23t-191.5 -165v1l-203 194q178 171 282.5 209.5t232.5 38.5q242 1 382 -125t141 -330q0 -151 -130 -272q80 -51 123 -121q50 -89 50 -207q0 -216 -158 -363q-165 -144 -399 -144q-137 0 -247.5 41t-295.5 120l205 178q187 -85 321 -85t213 75
q69 60 69 169q0 198 -282 198q-6 0 -22.5 -1t-37 -2t-25.5 -2l-51 -3v261q230 3 300 40q72 32 72 125t-58 142v-2q-68 53 -182 53zM1017 727v3q-4 -2 -5 -3h5z" />
    <glyph glyph-name="yogh" unicode="&#x21d;" horiz-adv-x="1359" 
d="M688 835q-58 0 -108.5 -23t-191.5 -165v1l-203 194q178 171 282.5 209.5t232.5 38.5q242 0 382 -126t141 -329q0 -151 -130 -272q80 -51 123 -121q50 -88 50 -206q0 -216 -158 -364q-165 -144 -399 -144q-137 0 -247.5 41t-295.5 120l205 178q187 -85 321 -85t213 75
q69 60 69 169q0 198 -282 198q-6 0 -22.5 -1t-37 -2t-25.5 -1l-51 -4v261q230 3 300 40q72 32 72 125t-58 142v-2q-68 53 -182 53zM1017 300v3q-4 -2 -5 -3h5z" />
    <glyph glyph-name="Hcaron" unicode="&#x21e;" horiz-adv-x="1479" 
d="M154 0v1474h305v-562h576v562h306v-1474h-306v658h-576v-658h-305zM622 1588l-235 299h232l131 -169l130 169h232l-234 -299h-256z" />
    <glyph glyph-name="hcaron" unicode="&#x21f;" 
d="M419 948q111 170 320 170t314 -142q45 -62 55 -126t10 -210v-640h-291v663q0 218 -178 218q-113 1 -171 -75t-59 -216v-590h-284v1469h284v-521zM522 1580l-235 299h232l131 -169l130 169h232l-234 -299h-256z" />
    <glyph glyph-name="uni0220" unicode="&#x220;" horiz-adv-x="1479" 
d="M1341 -434h-313v1302q0 152 -36 222q-56 124 -244 124t-243 -124q-36 -70 -36 -222v-870h-313v1476h306v-46q120 46 286 46q383 0 520 -240q73 -131 73 -366v-1302z" />
    <glyph glyph-name="uni0226" unicode="&#x226;" horiz-adv-x="1479" 
d="M578 1474h348l522 -1474h-334l-95 303h-543l-102 -303h-322zM559 557h374l-184 580zM630 1881h260v-237h-260v237z" />
    <glyph glyph-name="uni0227" unicode="&#x227;" horiz-adv-x="1139" 
d="M400 -34q-148 0 -244 84t-97 240q0 201 155 291q85 49 250 70l97 12q79 10 113 25q61 26 61 87q-1 61 -47 87t-142 25q-96 1 -131 -43q-36 -44 -46 -107h-275q24 379 468 379q179 0 318 -71t139 -268v-500q1 -175 17 -198q16 -24 44 -37v-42h-310q-20 50 -26 128
q-149 -162 -344 -162zM345 316q1 -78 41 -110t115 -33q75 0 153 54t80 197v106q-51 -32 -130 -47l-64 -12q-90 -16 -129 -39q-66 -38 -66 -116zM442 1532h260v-237h-260v237z" />
    <glyph glyph-name="uni0228" unicode="&#x228;" horiz-adv-x="1366" 
d="M697 -211q-32 0 -85 -17l-129 117l207 111h-525v1474h1081v-261h-780v-313h716v-256h-716v-379h816v-265h-483l-88 -131q57 12 77 12q81 1 129 -39t48 -123t-75 -137t-170 -53q-95 0 -239 53l38 86q114 -34 165 -34t77 26t26 60q0 35 -29 52t-61 17z" />
    <glyph glyph-name="uni0229" unicode="&#x229;" horiz-adv-x="1139" 
d="M538 -235q-32 0 -85 -17l-129 117l190 102q-172 17 -308 131q-159 134 -159 426q-1 292 143 444q144 151 373 151q288 0 425 -212q64 -97 79 -199t13 -242h-746q6 -164 103 -230q59 -41 142 -41q136 0 196 125h291q-11 -97 -101 -197q-123 -139 -331 -157l-82 -121
q57 12 77 12q81 1 129 -39t48 -123t-75 -137t-170 -53q-95 0 -239 53l38 86q114 -34 165 -34t77 26t26 60q0 35 -29 52t-61 17zM559 884q-95 0 -149 -62t-69 -168h443q-6 114 -68 172t-157 58z" />
    <glyph glyph-name="uni022A" unicode="&#x22a;" horiz-adv-x="1593" 
d="M808 -41q-316 0 -483 172q-224 211 -224 612t224 604q167 172 483 172t483 -172q223 -203 223 -604t-223 -612q-167 -172 -483 -172zM1206 738q0 248 -108 384t-290 136q-183 0 -292 -135t-109 -384t109 -384t292 -135q182 0 290 135t108 383zM467 1885h261v-237h-261
v237zM867 1885h261v-237h-261v237zM447 2141h711v-152h-711v152z" />
    <glyph glyph-name="uni022B" unicode="&#x22b;" 
d="M623 -38q-281 0 -419 170t-138 409q0 238 138 411t419 173t419 -173t138 -411q0 -239 -138 -409t-419 -170zM881 543q0 165 -67 253t-192 88q-124 0 -192 -88t-68 -253q0 -164 68 -253t192 -89q125 0 192 89t67 253zM293 1496h261v-237h-261v237zM693 1496h261v-237h-261
v237zM262 1757h711v-152h-711v152z" />
    <glyph glyph-name="uni022C" unicode="&#x22c;" horiz-adv-x="1593" 
d="M808 -41q-316 0 -483 172q-224 211 -224 612t224 604q167 172 483 172t483 -172q223 -203 223 -604t-223 -612q-167 -172 -483 -172zM1206 738q0 248 -108 384t-290 136q-183 0 -292 -135t-109 -384t109 -384t292 -135q182 0 290 135t108 383zM659 1688q-75 0 -96 -85
h-130q22 103 57 156q64 95 190 95q48 0 97 -19l94 -35q66 -22 99 -22q59 0 81 86h133q-18 -105 -72 -176t-156 -71q-52 0 -151 33l-81 27q-31 11 -65 11zM463 2116h711v-152h-711v152z" />
    <glyph glyph-name="uni022D" unicode="&#x22d;" 
d="M623 -38q-281 0 -419 170t-138 409q0 238 138 411t419 173t419 -173t138 -411q0 -239 -138 -409t-419 -170zM881 543q0 165 -67 253t-192 88q-124 0 -192 -88t-68 -253q0 -164 68 -253t192 -89q125 0 192 89t67 253zM478 1350q-75 0 -96 -85h-130q22 103 57 156
q64 95 190 95q48 0 97 -19l94 -35q66 -22 99 -22q59 0 81 86h133q-17 -105 -71 -176t-157 -71q-52 0 -151 33l-81 27q-31 11 -65 11zM267 1802h711v-152h-711v152z" />
    <glyph glyph-name="uni022E" unicode="&#x22e;" horiz-adv-x="1593" 
d="M808 -41q-316 0 -483 172q-224 211 -224 612t224 604q167 172 483 172t483 -172q223 -203 223 -604t-223 -612q-167 -172 -483 -172zM1206 738q0 248 -108 384t-290 136q-183 0 -292 -135t-109 -384t109 -384t292 -135q182 0 290 135t108 383zM671 1909h260v-237h-260
v237z" />
    <glyph glyph-name="uni022F" unicode="&#x22f;" 
d="M623 -38q-281 0 -419 170t-138 409q0 238 138 411t419 173t419 -173t138 -411q0 -239 -138 -409t-419 -170zM881 543q0 165 -67 253t-192 88q-124 0 -192 -88t-68 -253q0 -164 68 -253t192 -89q125 0 192 89t67 253zM489 1532h260v-237h-260v237z" />
    <glyph glyph-name="uni0230" unicode="&#x230;" horiz-adv-x="1593" 
d="M808 -41q-316 0 -483 172q-224 211 -224 612t224 604q167 172 483 172t483 -172q223 -203 223 -604t-223 -612q-167 -172 -483 -172zM1206 738q0 248 -108 384t-290 136q-183 0 -292 -135t-109 -384t109 -384t292 -135q182 0 290 135t108 383zM672 1864h260v-237h-260
v237zM458 2114h711v-152h-711v152z" />
    <glyph glyph-name="uni0231" unicode="&#x231;" 
d="M623 -38q-281 0 -419 170t-138 409q0 238 138 411t419 173t419 -173t138 -411q0 -239 -138 -409t-419 -170zM881 543q0 165 -67 253t-192 88q-124 0 -192 -88t-68 -253q0 -164 68 -253t192 -89q125 0 192 89t67 253zM497 1483h260v-237h-260v237zM268 1740h711v-152h-711
v152z" />
    <glyph glyph-name="uni0232" unicode="&#x232;" horiz-adv-x="1366" 
d="M853 0h-308v554l-510 920h363l306 -642l293 642h349l-493 -920v-554zM335 1767h711v-152h-711v152z" />
    <glyph glyph-name="uni0233" unicode="&#x233;" horiz-adv-x="1139" 
d="M307 -441q-69 0 -130 4v228l36 -2q100 -5 134 19q35 24 57 78t17 66l-400 1138h317l238 -804l225 804h303l-374 -1072q-108 -310 -171 -384t-252 -75zM216 1423h711v-152h-711v152z" />
    <glyph glyph-name="dotlessj" unicode="&#x237;" horiz-adv-x="569" 
d="M74 -212q72 0 72 100v1197h285v-1202q0 -165 -65 -244t-255 -79l-102 3v228q36 -3 65 -3z" />
    <glyph glyph-name="uni0238" unicode="&#x238;" horiz-adv-x="1968" 
d="M1604 514q0 350 -240 351q-155 0 -213 -141q-17 -41 -24 -96v-181q13 -86 56 -149q63 -92 181 -92t179 89t61 219zM846 529q0 200 -101 286q-62 52 -144 52q-125 0 -183.5 -94.5t-58.5 -240.5t59.5 -236t180.5 -90t183 88t64 221v14zM529 1116q207 0 309 -164v520h292
v-524q54 76 125 121t190 45q215 0 336.5 -155t121.5 -405t-120 -416.5t-335 -166.5q-135 0 -217 54q-48 31 -104 109v-134h-281v144q-60 -92 -136 -135t-193 -43q-191 0 -321.5 155t-130.5 415t128.5 420t335.5 160z" />
    <glyph glyph-name="uni0239" unicode="&#x239;" horiz-adv-x="1972" 
d="M1367 865q-243 0 -243 -345q0 -190 101 -267q60 -45 142 -45q119 0 181.5 92t62.5 232t-57.5 236.5t-186.5 96.5zM363 532q0 -322 238 -322q147 0 209 126q40 82 40 196t-34 193q-61 142 -214 142q-108 0 -173.5 -83t-65.5 -252zM1905 552q0 -280 -129.5 -431.5
t-333.5 -151.5q-130 0 -216 65q-47 36 -92 105v-568h-10v-3h-282v567q-32 -66 -109.5 -117.5t-211.5 -51.5q-189 0 -322 151t-133 413t133.5 425t329.5 163q136 0 220 -67q49 -38 100 -125v162h3v2h273v-161q46 71 98 112q95 73 226 73q191 0 323.5 -141t132.5 -421z" />
    <glyph glyph-name="uni023A" unicode="&#x23a;" horiz-adv-x="1479" 
d="M1059 1735h237l-210 -714l362 -1021h-334l-95 303h-144l-152 -519h-235l152 519h-164l-102 -303h-322l526 1474h348l31 -88zM819 916l-70 221l-190 -580h155z" />
    <glyph glyph-name="uni023B" unicode="&#x23b;" horiz-adv-x="1479" 
d="M769 1239q-168 0 -265 -135.5t-97 -399.5t135 -391l272 924q-22 2 -45 2zM770 225q162 0 247 106q47 57 78 171h305q-40 -241 -204.5 -392t-421.5 -151q-52 0 -100 5l-51 -174h-235l69 234q-104 50 -183 139q-182 205 -182 577t207 580q180 182 458 182q70 0 132 -9
l70 236h237l-89 -302q117 -60 194 -169q95 -137 102 -275h-308q-29 102 -74 156l-270 -914h19z" />
    <glyph glyph-name="uni023C" unicode="&#x23c;" horiz-adv-x="1139" 
d="M369 530q0 -113 24 -184l199 529q-223 -2 -223 -345zM589 201q100 0 142 54t51 140h291q-10 -130 -94 -246q-134 -187 -397 -187q-51 0 -96 6l-63 -168h-235l90 240q-47 32 -83 78q-124 156 -124 421t137 421t378 156q49 0 94 -6l79 209h237l-104 -276q15 -9 29 -19
q131 -92 155 -325h-292q-3 19 -8 38l-202 -536h15z" />
    <glyph glyph-name="uni023D" unicode="&#x23d;" 
d="M1194 0h-1038v666l-171 -4v194h171v618h308v-618h304v-187l-304 -1v-403h730v-265z" />
    <glyph glyph-name="uni023E" unicode="&#x23e;" 
d="M1227 1474v-261h-247l-194 -409v-804h-310v153l-173 -363h-235l408 859v564h-443v261h835l121 255h237l-122 -255h123z" />
    <glyph glyph-name="uni0241" unicode="&#x241;" 
d="M612 1489q226 0 375.5 -108t149.5 -320q0 -130 -65 -219q-38 -54 -146 -138l-71 -55q-57 -45 -73 -94t-17 -555h-270q6 595 32 659.5t134 148.5l73 57q98 74 98 185q0 71 -44.5 133.5t-161.5 62.5t-165.5 -77t-48.5 -160h-289q12 285 199 404q118 76 290 76z" />
    <glyph glyph-name="uni0242" unicode="&#x242;" 
d="M612 1125q226 0 375.5 -108t149.5 -320q0 -130 -65 -219q-38 -54 -146 -138l-71 -55q-58 -45 -77 -105q-12 62 -13 -180h-270q6 231 32 295.5t134 148.5l73 57q98 74 98 185q0 71 -44.5 133.5t-161.5 62.5t-165.5 -77t-48.5 -160h-289q12 285 199 404q118 76 290 76z" />
    <glyph glyph-name="uni0243" unicode="&#x243;" horiz-adv-x="1563" 
d="M562 1218v-325h362q97 0 157.5 36.5t60.5 134.5t-80 131q-69 23 -176 23h-324zM924 256q249 0 249 200q0 126 -95 168q-53 24 -149 25h-367v-99h206v-201h-206v-93h362zM1484 445q0 -131 -66 -235q-93 -153 -231 -181.5t-251 -28.5h-668v349h-210v201h210v924h716
q271 -4 384 -157q68 -94 68 -227t-68 -215q-38 -46 -112 -84q228 -83 228 -346z" />
    <glyph glyph-name="uni0244" unicode="&#x244;" horiz-adv-x="1704" 
d="M854 222q188 0 244 124q36 70 36 222v281h-559v-281q0 -152 36 -222q55 -124 243 -124zM1647 1050v-201h-200v-281q0 -235 -73 -366q-136 -240 -519 -240t-520 240q-73 131 -73 366v281h-205v201h205v424h313v-424h559v424h313v-424h200z" />
    <glyph glyph-name="uni0245" unicode="&#x245;" horiz-adv-x="1366" 
d="M696 1119l-320 -1119h-329l498 1474h291l503 -1474h-320z" />
    <glyph glyph-name="uni0246" unicode="&#x246;" horiz-adv-x="1366" 
d="M466 644v-250l73 250h-73zM466 900h149l92 313h-241v-313zM1246 1474v-261h-303l-92 -313h331v-256h-407l-112 -379h619v-265h-697l-62 -210h-235l62 210h-185v1474h619l75 255h237l-76 -255h226z" />
    <glyph glyph-name="uni0247" unicode="&#x247;" horiz-adv-x="1139" 
d="M784 654q-4 65 -26 112l-43 -112h69zM359 334l49 132h-74q3 -76 25 -132zM563 884q-99 0 -153.5 -62t-68.5 -168h138l86 230h-2zM47 534q0 283 143.5 434t372.5 151q46 0 88 -6l78 206h237l-106 -281q76 -48 134 -138t73 -192t13 -242h-436l-101 -269q17 -2 36 -2
q136 0 196 125h291q-11 -97 -101 -197q-140 -159 -392 -159q-59 0 -114 11l-66 -175h-235l98 260q-209 137 -209 474z" />
    <glyph glyph-name="uni0248" unicode="&#x248;" horiz-adv-x="1139" 
d="M990 448q0 -484 -374.5 -484t-472.5 150.5t-98 410.5v34h291v-34q4 -171 37 -240.5t143 -69.5t145 76q21 45 21 152v436h-169v201h169v394h308v-394h153v-201h-153v-431z" />
    <glyph glyph-name="uni0249" unicode="&#x249;" horiz-adv-x="569" 
d="M431 1220h-285v263h285v-263zM74 -212q72 0 72 100v491h-159v201h159v505h285v-505h186v-201h-186v-496q0 -165 -65 -244t-255 -79l-102 3v228q36 -3 65 -3z" />
    <glyph glyph-name="uni024A" unicode="&#x24a;" horiz-adv-x="1688" 
d="M382 738q0 -248 107.5 -383t290.5 -135t292 135q92 113 106 306v156q-15 193 -106 306q-109 135 -292 135t-290.5 -136t-107.5 -384zM1640 -476q-462 0 -462 484v52q-155 -101 -398 -101q-316 0 -483 172q-223 211 -223 612t223 604q167 172 483 172q243 0 398 -102v57
h308v-1471q0 -107 21 -152q35 -76 144 -76q0 -251 -11 -251z" />
    <glyph glyph-name="uni024B" unicode="&#x24b;" horiz-adv-x="1349" 
d="M372 543q0 -164 67 -253t192 -89t192.5 89t67.5 253t-67.5 252.5t-192.5 88.5t-192 -88.5t-67 -252.5zM1177 -112q0 -100 72 -100q29 0 65 3v-228l-102 -3q-190 0 -255 79t-65 244v128q-110 -49 -262 -49q-281 0 -419 170.5t-138 408.5t138 411t419 173q152 0 262 -51v11
h285v-1197z" />
    <glyph glyph-name="uni024C" unicode="&#x24c;" horiz-adv-x="1582" 
d="M572 1218v-396h349q104 0 156 24q92 42 92 171t-89 175q-50 26 -150 26h-358zM1478 1045q0 -96 -53 -197.5t-175 -143.5q102 -41 144.5 -116.5t42.5 -230.5v-99q0 -102 10 -148t54 -73v-37h-339q-32 110 -33 206l-2 137q-2 141 -51.5 188t-185.5 47h-318v-578h-301v578
h-212v244h212v652h723q155 -3 238.5 -38t141.5 -103q104 -121 104 -288z" />
    <glyph glyph-name="uni024D" unicode="&#x24d;" horiz-adv-x="900" 
d="M773 827q-172 0 -231 -112q-29 -56 -33 -165h244v-201h-244v-349h-287v349h-179v201h179v540h272v-190q66 109 115 149q80 67 208 67l38 -2v-292q-45 5 -82 5z" />
    <glyph glyph-name="uni024E" unicode="&#x24e;" horiz-adv-x="1570" 
d="M789 832l108 237h-221zM1536 1270v-201h-322l-276 -515v-554h-308v554l-286 515h-308v201h197l-113 204h363l97 -204h409l93 204h349l-110 -204h215z" />
    <glyph glyph-name="uni024F" unicode="&#x24f;" horiz-adv-x="1353" 
d="M684 286l79 283h-163zM415 -441q-69 0 -130 4v228l36 -2q100 -5 134 19q35 24 56.5 78t17.5 66l-217 617h-253v201h182l-112 320h317l94 -320h279l90 320h303l-112 -320h229v-201h-299l-192 -551q-108 -310 -171 -384.5t-252 -74.5z" />
    <glyph glyph-name="aturned" unicode="&#x250;" horiz-adv-x="1139" 
d="M738 1116q148 0 244.5 -84.5t96.5 -239.5q0 -201 -155 -291q-85 -49 -250 -70l-97 -12q-79 -10 -113 -25q-61 -26 -61 -87t46.5 -86.5t142.5 -25.5q96 -1 131 43q36 44 46 107h275q-24 -379 -468 -379q-179 0 -318 71t-139 268v500q0 175 -16.5 198.5t-44.5 36.5v42h310
q20 -50 26 -128q149 162 344 162zM793 766q0 78 -40.5 110.5t-115.5 32.5t-152.5 -54t-80.5 -197v-106q51 32 130 47l64 12q90 16 129 39q66 38 66 116z" />
    <glyph glyph-name="ascript" unicode="&#x251;" horiz-adv-x="1212" 
d="M572 868q-106 0 -166 -98t-60 -234t59 -233.5t165 -97.5t161 97.5t55 233.5t-54 234t-160 98zM59 544q0 212 122 380t313 168q90 0 159.5 -32t134.5 -102v117h287v-1075h-295v131q-123 -156 -310 -156t-299 178.5t-112 390.5z" />
    <glyph glyph-name="ascriptturned" unicode="&#x252;" horiz-adv-x="1212" 
d="M562 198q106 0 166 98t60 234t-59 233.5t-165 97.5t-161 -97.5t-55 -233.5t54 -234t160 -98zM664 1091q187 0 299 -178.5t112 -390.5t-122 -380t-313 -168q-90 0 -159.5 32t-134.5 102v-117h-287v1075h295v-131q123 156 310 156z" />
    <glyph glyph-name="uni0253" unicode="&#x253;" 
d="M398 530q0 -140 62 -232t180 -92t179.5 89t61.5 219q1 350 -241 351q-242 0 -242 -335zM476 1276q-72 0 -72 -100v-64h3v-164q54 76 125 121t190 45q215 0 336.5 -155t121.5 -405t-120 -416.5t-335 -166.5q-135 0 -217 54q-49 32 -106 112v-137h-279v829h-4v352
q0 165 65 244t255 79l102 -3v-228q-36 3 -65 3z" />
    <glyph glyph-name="oopen" unicode="&#x254;" horiz-adv-x="1139" 
d="M552 203q225 0 225 337t-220 337q-100 0 -142 -54t-51 -140h-291q10 130 94 246q134 187 397 187t387 -156t124 -421t-137 -421t-378 -156q-205 0 -335.5 92t-154.5 325h292q8 -61 48 -119t142 -57z" />
    <glyph glyph-name="uni0256" unicode="&#x256;" horiz-adv-x="1323" 
d="M844 529q0 200 -101 286q-62 52 -144 52q-125 0 -183.5 -94.5t-58.5 -240.5t59.5 -236t180.5 -90t184 90t63 233zM1124 -112q0 -100 72 -100q29 0 65 3v-228l-102 -3q-190 0 -255 79t-65 244v254q-58 -87 -133 -129t-191 -42q-191 0 -321.5 155t-130.5 415t128.5 420
t335.5 160t309 -164v520h289v-1472h-1v-112z" />
    <glyph glyph-name="uni0257" unicode="&#x257;" 
d="M844 529q0 200 -101 286q-62 52 -144 52q-125 0 -183.5 -94.5t-58.5 -240.5t59.5 -236t180.5 -90t184 90t63 233zM1195 1287q-72 0 -72 -100v-75h2v-1112h-277v151q-61 -97 -139 -141t-194 -44q-191 0 -321.5 155t-130.5 415t128.5 420t335.5 160t309 -164v160h2v80
q0 165 65 244t255 79l102 -3v-228q-36 3 -65 3z" />
    <glyph glyph-name="ereversed" unicode="&#x258;" horiz-adv-x="1139" 
d="M567 1119q229 0 372.5 -151.5t143.5 -443.5t-159 -426t-367 -134q-252 0 -392 159q-90 100 -101 197h291q60 -125 196 -125q83 0 142 41q97 66 103 230h-746q-2 140 13 242t83 206q134 206 421 205zM571 884q-95 0 -156.5 -58.5t-68.5 -171.5h443q-14 106 -68.5 168
t-149.5 62z" />
    <glyph glyph-name="schwa" unicode="&#x259;" horiz-adv-x="1139" 
d="M549 887q-136 0 -196 -125h-291q11 97 101 197q140 159 392 159q208 0 367 -134t159 -426t-143.5 -443.5t-372.5 -151.5q-288 0 -425 212q-64 97 -79 199t-13 242h746q-6 164 -103 230q-59 41 -142 41zM569 198q95 0 149.5 62t68.5 168h-443q7 -113 68.5 -171.5
t156.5 -58.5z" />
    <glyph glyph-name="schwahook" unicode="&#x25a;" horiz-adv-x="1807" 
d="M864 490l-428 -115q36 -107 110 -147t166 -16t128 98t24 180zM1090 763q202 60 365 111q11 -40 8 -147t3 -138q12 -69 61 -83q70 -23 125 64q15 24 27 48q16 -16 56 -40t56 -40q-71 -170 -239 -186q-106 -10 -182 68q-75 77 -75 198q-29 -6 -156 -43h-1q32 -204 -48 -350
q-99 -183 -321 -242q-278 -74 -465 95q-87 77 -138 196q-30 69 -65 206l721 193q-49 157 -159 196q-69 24 -151 2q-128 -34 -154 -171l-281 -75q-15 96 46 216q94 190 338 255q201 54 389 -35q160 -75 240 -298z" />
    <glyph glyph-name="eopen" unicode="&#x25b;" horiz-adv-x="1034" 
d="M532 885q-198 0 -198 -123v-19q4 -49 64.5 -76.5t123.5 -27.5h96v-188h-94q-71 0 -140 -37.5t-69 -107.5t58.5 -102t148.5 -32t142.5 43t64.5 113h236q-7 -45 -13 -90q-30 -105 -129 -184t-289 -79t-327 72t-137 205q0 102 44 178t111 115q-69 35 -104 85t-35 140
q0 33 9 103.5t137 145.5t310 75t271.5 -70t136.5 -244h-245q-25 58 -53.5 81.5t-119.5 23.5z" />
    <glyph glyph-name="eopenreversed" unicode="&#x25c;" horiz-adv-x="1034" 
d="M702 762q0 123 -198 123q-91 0 -119.5 -23.5t-53.5 -81.5h-245q47 174 136.5 244t271.5 70t310 -75t137 -145.5t9 -103.5q0 -90 -35 -140t-104 -85q67 -39 111 -115t44 -178q0 -133 -137 -205t-327 -72t-289 79t-129 184q-6 45 -13 90h236q12 -70 64.5 -113t142.5 -43
q207 0 207 143q0 60 -69 98t-140 38h-94v188h96q63 0 123.5 27.5t64.5 76.5v19z" />
    <glyph glyph-name="eopenreversedhook" unicode="&#x25d;" horiz-adv-x="1634" 
d="M947 770q0 -90 -35 -140t-104 -85q67 -39 111 -115t44 -178q0 -133 -137.5 -205t-327.5 -72t-288.5 79t-128.5 184q-6 45 -13 90h236q12 -70 64.5 -113t142.5 -43q207 0 207 143q0 60 -69 98t-140 38h-94v188h96q63 0 123.5 27.5t64.5 76.5v19q0 123 -198 123
q-91 0 -119.5 -23.5t-53.5 -81.5h-245q47 174 137 244t291 70t351 -116l415 126q11 -40 8 -147t6 -157t58 -64q70 -23 105 32.5t47 79.5q16 -16 56 -40t56 -40q-71 -170 -239 -186q-106 -10 -181.5 67.5t-75.5 198.5q-12 -3 -171 -48q1 -18 1 -30z" />
    <glyph glyph-name="eopenreversedclosed" unicode="&#x25e;" horiz-adv-x="1099" 
d="M363 530q0 -313 219 -358h6q80 0 138.5 32t58.5 102t-69 107.5t-140 37.5l2 188q63 0 123.5 27.5t64.5 76.5v19q0 68 -53 94t-125 19q-225 0 -225 -345zM1014 770q0 -90 -35 -140t-104 -85q67 -39 111 -115t44 -178q0 -133 -137 -205t-317 -72q-263 -13 -387 143
t-124 421t137 421t378 134q160 0 288 -75t137 -145.5t9 -103.5z" />
    <glyph glyph-name="jdotlessstroke" unicode="&#x25f;" horiz-adv-x="682" 
d="M137 -404q-33 0 -109 6v232q129 -16 154.5 15.5t25.5 39.5v116h-187v201h187v879h284v-879h159v-201h-156v-70q0 -175 -59 -241q-62 -98 -299 -98z" />
    <glyph glyph-name="uni0260" unicode="&#x260;" 
d="M839 545q0 160 -65.5 241t-175.5 81q-150 0 -207 -141q-30 -76 -30 -178t32 -176q58 -138 208 -138q100 0 169 75.5t69 235.5zM1192 1177q-72 0 -72 -100v-347h-2v-674q0 -211 -71 -318q-122 -184 -468 -184q-209 0 -341 82t-146 245h310q12 -50 39 -72q46 -39 155 -39
q154 0 206 103q34 66 34 222v70q-41 -70 -88 -105q-85 -65 -221 -65q-210 0 -335.5 147.5t-125.5 395.5t121 413t334 165t314 -173v139q0 165 65 244t255 79l102 -3v-228q-36 3 -65 3z" />
    <glyph glyph-name="gscript" unicode="&#x261;" 
d="M524 1116q216 0 317 -183v157h277v-1034q0 -211 -71 -318q-122 -184 -468 -184q-209 0 -341 82t-146 245h310q12 -50 39 -72q46 -39 155 -39q154 0 206 103q34 66 34 222v70q-41 -70 -88 -105q-85 -65 -221 -65q-210 0 -335.5 147.5t-125.5 395.5t121 413t337 165z
M839 545q0 160 -65.5 241t-175.5 81q-150 0 -207 -141q-30 -76 -30 -178t32 -176q58 -138 208 -138q100 0 169 75.5t69 235.5z" />
    <glyph glyph-name="hturned" unicode="&#x265;" 
d="M134 445v640h291v-663q0 -218 178 -218q113 0 171.5 75.5t58.5 215.5v590h284v-1469h-284v521q-111 -170 -320 -170t-314 142q-45 61 -55 125.5t-10 210.5z" />
    <glyph glyph-name="uni0266" unicode="&#x266;" 
d="M492 1355q-72 0 -72 -100v-306q110 169 319 169t314 -142q45 -61 55 -125.5t10 -210.5v-640h-291v663q0 218 -178 218q-113 0 -171.5 -75.5t-58.5 -215.5v-590h-284v1260q0 165 65 244t255 79l102 -3v-228q-36 3 -65 3z" />
    <glyph glyph-name="uni0267" unicode="&#x267;" horiz-adv-x="1349" 
d="M1116 -112q0 -100 72 -100q29 0 65 3v-228l-102 -3q-190 0 -255 79t-65 244v117h-4v663q0 218 -178 218q-113 0 -171.5 -75.5t-58.5 -215.5v-590h-284v1260q0 165 65 244t255 79l102 -3v-228q-36 3 -65 3q-72 0 -72 -100v-306q110 169 319 169t314 -142q45 -61 55 -125.5
t10 -210.5v-640h-2v-112z" />
    <glyph glyph-name="istroke" unicode="&#x268;" horiz-adv-x="774" 
d="M516 1220h-289v263h289v-263zM23 823h204v267h289v-267h218v-152h-218v-671h-289v671h-204v152z" />
    <glyph glyph-name="iotalatin" unicode="&#x269;" horiz-adv-x="569" 
d="M137 1075h287v-1075h-287v1075z" />
    <glyph glyph-name="Ismallipa" unicode="&#x26a;" horiz-adv-x="685" 
d="M47 269h140v550h-140v270h140v1h289v-1h145v-270h-145v-550h145v-270h-574v270z" />
    <glyph glyph-name="lmiddletilde" unicode="&#x26b;" horiz-adv-x="802" 
d="M245 736q-75 0 -96 -85h-130q22 103 57 156q59 88 173 94v573h285v-648h7q48 0 67.5 25.5t28.5 60.5h133q-18 -105 -71.5 -176t-156.5 -71h-8v-665h-285v736h-4z" />
    <glyph glyph-name="uni026D" unicode="&#x26d;" horiz-adv-x="625" 
d="M424 -112q0 -100 72 -100q29 0 65 3v-228l-102 -3q-190 0 -255 79t-65 244v1591h285v-1586z" />
    <glyph glyph-name="mturned" unicode="&#x26f;" horiz-adv-x="1821" 
d="M469 0q-166 0 -269 126q-46 57 -59 126t-13 175l2 687h292v-694q0 -178 160 -178q118 0 163 98q23 52 23 125v649h287v-649q0 -97 20 -141q35 -79 149 -79t156 79q23 45 23 134v656h289v-1088h-277v159q-53 -85 -100 -121q-83 -64 -211 -64t-206 55q-62 51 -94 131
q-109 -186 -335 -186z" />
    <glyph glyph-name="mlonglegturned" unicode="&#x270;" horiz-adv-x="1821" 
d="M469 0q-166 0 -269 126q-46 57 -59 126t-13 175l2 687h292v-694q0 -178 160 -178q118 0 163 98q23 52 23 125v649h287v-649q0 -97 20 -141q35 -79 149 -79t156 79q23 45 23 134v656h289v-1498h-277v569q-53 -85 -100 -121q-83 -64 -211 -64t-206 55q-62 51 -94 131
q-109 -186 -335 -186z" />
    <glyph glyph-name="mhook" unicode="&#x271;" horiz-adv-x="1821" 
d="M1324 -212q72 0 72 100v647h2v159q0 178 -160 178q-118 0 -163 -98q-23 -52 -23 -125v-649h-287v649q0 97 -20 141q-35 79 -149 79t-156 -79q-23 -45 -23 -134v-656h-289v1088h277v-159q53 85 100 121q83 64 211 64t206 -55q62 -51 94 -131q108 186 335 186
q166 0 269 -126q46 -57 59 -126t13 -175l-2 -687l-9 -117q0 -165 -65 -244t-255 -79l-102 3v228q36 -3 65 -3z" />
    <glyph glyph-name="nhookleft" unicode="&#x272;" 
d="M64 -212q72 0 72 100v112h-1v1088h275v-3h11v-139q49 71 93 104q88 66 240 66t259.5 -88.5t107.5 -293.5v-734h-292v663q0 86 -23 132q-42 84 -160 84q-145 0 -199 -123q-21 -47 -26 -114v-759q0 -165 -65 -244t-255 -79l-102 3v228q36 -3 65 -3z" />
    <glyph glyph-name="uni0273" unicode="&#x273;" horiz-adv-x="1328" 
d="M1114 -112q0 -100 72 -100q29 0 65 3v-228l-102 -3q-190 0 -255 79t-65 244v780q0 86 -23 132q-42 84 -160 84q-227 0 -227 -289v-590h-284v1088h275v-159q55 84 104 121q88 66 240 66t259.5 -88.5t107.5 -293.5v-734h-7v-112z" />
    <glyph glyph-name="Nsmallipa" unicode="&#x274;" horiz-adv-x="1084" 
d="M92 1088h323l290 -643v643h287v-1088h-308l-305 661v-661h-287v1088z" />
    <glyph glyph-name="uni0275" unicode="&#x275;" 
d="M622 884q-125 0 -193 -89q-50 -66 -63 -175h511q-13 109 -63 175q-67 89 -192 89zM622 201q125 0 192 89q51 67 63 178h-511q12 -111 63 -178q68 -89 193 -89zM623 -38q-281 0 -419 170.5t-138 408.5t138 411t419 173t419 -173t138 -411t-138 -408.5t-419 -170.5z" />
    <glyph glyph-name="uni0276" unicode="&#x276;" horiz-adv-x="1933" 
d="M1573 658q-6 235 -233 235q-66 0 -117 -29q-96 -57 -102 -206h452zM610 1114q249 0 385 -159q81 79 157 119t208 40q260 0 409 -198q58 -77 78 -200q16 -80 16 -242h-745q6 -127 63 -203.5t155 -76.5t153 28.5t75 99.5h284q-19 -141 -146.5 -248.5t-363.5 -107.5
q-135 0 -235 55q-58 32 -127 102q-55 -64 -116 -98q-108 -61 -268 -61q-244 0 -386.5 159t-142.5 423t149 416t398 152zM603 884q-246 0 -246 -346t241 -346q144 0 203 98t59 254t-57 248t-200 92z" />
    <glyph glyph-name="philatin" unicode="&#x278;" horiz-adv-x="1479" 
d="M870 238q267 41 269 301q0 137 -60 227q-63 88 -209 100v-628zM608 866q-146 -12 -208 -101t-60 -226q2 -260 268 -301v628zM608 1446h262v-342q260 -2 402 -154q139 -153 139 -408q1 -255 -147 -390t-394 -152v-429h-262v429q-244 17 -392 152t-149 390q-1 256 142 408
t399 154v342z" />
    <glyph glyph-name="rturned" unicode="&#x279;" horiz-adv-x="797" 
d="M211 289q172 0 231 112q33 63 33 194v521h287v-1090h-272v190q-66 -109 -115 -149q-80 -67 -208 -67l-38 2v292q45 -5 82 -5z" />
    <glyph glyph-name="rlonglegturned" unicode="&#x27a;" horiz-adv-x="797" 
d="M211 289q172 0 231 112q33 63 33 194v879h287v-1448h-272v190q-66 -109 -115 -149q-80 -67 -208 -67l-38 2v292q45 -5 82 -5z" />
    <glyph glyph-name="uni027B" unicode="&#x27b;" horiz-adv-x="966" 
d="M764 -112q0 -100 72 -100q29 0 65 3v-228l-102 -3q-190 0 -255 79t-65 244v314q-59 -94 -104 -130q-80 -67 -208 -67l-38 2v292q45 -5 82 -5q172 0 231 112q33 63 33 194v521h287v-881h2v-347z" />
    <glyph glyph-name="rlongleg" unicode="&#x27c;" horiz-adv-x="797" 
d="M681 827q-172 0 -231 -112q-33 -63 -33 -194v-905h-287v1474h272v-190q66 109 115 149q80 67 208 67l38 -2v-292q-45 5 -82 5z" />
    <glyph glyph-name="uni027D" unicode="&#x27d;" horiz-adv-x="797" 
d="M414 -112q0 -100 72 -100q29 0 65 3v-228l-102 -3q-190 0 -255 79t-65 244v352h1v855h272v-190q66 109 115 149q80 67 208 67l38 -2v-292q-45 5 -82 5q-172 0 -231 -112q-33 -63 -33 -194v-521h-3v-112z" />
    <glyph glyph-name="rfishhook" unicode="&#x27e;" horiz-adv-x="569" 
d="M294 757v-757h-285v762q0 165 65 244t255 79q13 0 68.5 -11t93.5 -12v-228q-36 3 -52 3q-102 20 -123.5 -0.5t-21.5 -79.5z" />
    <glyph glyph-name="rfishhookreversed" unicode="&#x27f;" horiz-adv-x="569" 
d="M171 1085q190 0 255 -79t65 -244v-762h-285v757q0 59 -21.5 79.5t-123.5 0.5q-16 0 -52 -3v228q38 1 93.5 12t68.5 11z" />
    <glyph glyph-name="Rsmallipa" unicode="&#x280;" horiz-adv-x="1092" 
d="M494 384h-69v-384h-305v1088h534q114 -2 176 -28t101 -72q80 -93 80 -210q0 -78 -39 -132t-129 -126q75 -31 106.5 -86.5t31.5 -169.5v-74q-1 -74 7 -108t40 -55v-27h-333q-24 86 -24 152l-2 101q-1 61 -37.5 96t-137.5 35zM425 899v-251h92q77 0 115 17q68 31 68 82
q0 99 -66 133q-36 19 -110 19h-99z" />
    <glyph glyph-name="Rsmallinverted" unicode="&#x281;" horiz-adv-x="1092" 
d="M1028 1088v-27q-32 -21 -40 -55t-7 -108v-74q0 -114 -31.5 -169.5t-106.5 -86.5q90 -72 129 -126t39 -125q0 -125 -77 -213q-42 -50 -104 -76t-176 -28h-534v1088h305v-384h69q101 0 137.5 35t37.5 96l2 101q0 66 24 152h333zM524 189q74 0 110 19q66 34 66 133
q0 51 -68 82q-38 17 -115 17h-92v-251h99z" />
    <glyph glyph-name="esh" unicode="&#x283;" horiz-adv-x="779" 
d="M669 1315q-76 0 -104 -80q-18 -52 -24 -221l-36 -972q-8 -189 -51 -289q-80 -185 -283 -185q-95 0 -211 43l24 227q71 -39 114 -39q73 0 98 80q16 52 22 215l38 920q10 248 58 355q77 177 285 177q62 0 142 -20t70 -19l-21 -227q-74 35 -121 35z" />
    <glyph glyph-name="dotlessjstrokehook" unicode="&#x284;" horiz-adv-x="779" 
d="M98 -201q73 0 98 80q11 36 17 122h-230v152h237l36 861q10 248 58 355q77 177 285 177q62 0 142 -20t70 -19l-21 -227q-74 35 -121 35q-76 0 -104 -80q-18 -52 -24 -221l-32 -861h185v-152h-191q-11 -159 -49 -248q-80 -185 -283 -185q-95 0 -211 43l24 227
q71 -39 114 -39z" />
    <glyph glyph-name="eshsquatreversed" unicode="&#x285;" horiz-adv-x="877" 
d="M158 943q-60 0 -137 -19l-21 125q-10 1 70 11t142 10q208 0 285 -97q48 -59 58 -195l38 -506q7 -90 27 -126t79 -37q59 0 128 22l24 -125q-118 -24 -211 -24q-203 0 -283 102q-43 55 -51 159l-36 535q-6 93 -29 129t-83 36z" />
    <glyph glyph-name="tturned" unicode="&#x287;" horiz-adv-x="682" 
d="M106 1161q-58 0 -85 -2v213l135 5q202 7 276 -70q48 -49 48 -151v-671h152v-203h-152v-304h-282v304h-177v203h177v576q0 67 -17 83.5t-75 16.5z" />
    <glyph glyph-name="tretroflexhook" unicode="&#x288;" horiz-adv-x="682" 
d="M546 -230q58 0 86 2v-213l-135 -5q-202 -7 -276 70q-48 49 -48 151v1102h-152v203h152v304h282v-304h177v-203h-177v-1007q0 -67 16.5 -83.5t74.5 -16.5z" />
    <glyph glyph-name="ubar" unicode="&#x289;" horiz-adv-x="1534" 
d="M724 210q228 0 228 287v82h-403v-146q0 -93 22 -140q39 -83 153 -83zM53 579v201h204v310h292v-310h403v310h289v-310h242v-201h-242v-579h-277v154q-4 -5 -20 -30t-38 -44q-67 -60 -129.5 -82t-146.5 -22q-242 0 -326 174q-47 96 -47 283v146h-204z" />
    <glyph glyph-name="upsilonlatin" unicode="&#x28a;" horiz-adv-x="1182" 
d="M587 223q123 0 177.5 78.5t54.5 206.5t-25.5 206t-116.5 160v216h435v-201h-228q190 -142 190 -387q0 -215 -127 -358.5t-349 -143.5t-357 144t-135 358q0 131 44 218.5t146 168.5h-228v201h435v-216q-91 -82 -117 -159t-26 -207t52 -207.5t175 -77.5z" />
    <glyph glyph-name="vturned" unicode="&#x28c;" horiz-adv-x="1139" 
d="M331 0h-306l393 1090h301l391 -1090h-320l-227 804z" />
    <glyph glyph-name="wturned" unicode="&#x28d;" horiz-adv-x="1593" 
d="M935 0h-289l-166 785l-170 -785h-297l316 1090h293l171 -794l173 794h296l306 -1090h-306l-170 782z" />
    <glyph glyph-name="yturned" unicode="&#x28e;" horiz-adv-x="1139" 
d="M817 1531q69 0 130 -4v-228l-36 2q-100 5 -134 -19q-35 -24 -56.5 -78t-17.5 -66l400 -1138h-317l-238 804l-225 -804h-303l374 1072q108 310 171 384.5t252 74.5z" />
    <glyph glyph-name="Ysmallipa" unicode="&#x28f;" horiz-adv-x="1022" 
d="M673 0h-308v412l-326 678h363l122 -476l108 476h349l-308 -678v-412z" />
    <glyph glyph-name="ezh" unicode="&#x292;" horiz-adv-x="1128" 
d="M78 819v266h990v-225l-302 -316q90 -39 155 -113q137 -91 137 -356t-144 -390t-407 -125t-357 187q-84 116 -94 246h291q9 -86 36 -140t127 -54q141 0 195.5 73.5t54.5 196.5t-28 214q-46 46 -164 61l-2 -2l-273 2l365 475h-580z" />
    <glyph glyph-name="glottalstop" unicode="&#x294;" 
d="M612 1489q226 0 375.5 -108t149.5 -320q0 -130 -65 -219q-38 -54 -146 -138l-71 -55q-57 -45 -73 -94t-17 -555h-270q6 595 32 659.5t134 148.5l73 57q98 74 98 185q0 71 -44.5 133.5t-161.5 62.5t-165.5 -77t-48.5 -160h-289q12 285 199 404q118 76 290 76z" />
    <glyph glyph-name="glottalstopreversed" unicode="&#x295;" 
d="M848 1009q0 83 -48.5 160t-165.5 77t-161.5 -62.5t-44.5 -133.5q0 -112 98 -185l73 -57q108 -84 134 -148.5t32 -659.5h-270q-1 506 -17 555t-73 94l-71 55q-108 84 -146 138q-65 89 -65 219q0 212 149.5 320t375.5 108q172 0 290 -76q187 -119 199 -404h-289z" />
    <glyph glyph-name="glottalstopinverted" unicode="&#x296;" 
d="M412 479q0 -83 48.5 -160t165.5 -77t161.5 62.5t44.5 133.5q0 112 -98 185l-73 57q-108 84 -134 148.5t-32 659.5h270q1 -506 17 -555t73 -94l71 -55q108 -84 146 -138q65 -89 65 -219q0 -212 -149.5 -320t-375.5 -108q-172 0 -290 76q-187 119 -199 404h289z" />
    <glyph glyph-name="cstretched" unicode="&#x297;" horiz-adv-x="1065" 
d="M528 875q-144 0 -184.5 -224.5t-40.5 -347.5t39.5 -342.5t180.5 -219.5q100 0 142 54t51 140h291q-10 -130 -94 -246q-134 -187 -397 -187t-357 221t-94 586t107 586t348 221q205 0 335.5 -92t154.5 -325h-292q-8 61 -48 119t-142 57z" />
    <glyph glyph-name="bilabialclick" unicode="&#x298;" horiz-adv-x="1593" 
d="M652 897h303v-298h-303v298zM808 -41q-316 0 -483 172q-224 211 -224 612t224 604q167 172 483 172t483 -172q223 -203 223 -604t-223 -612q-167 -172 -483 -172zM1206 738q0 248 -107.5 384t-290.5 136t-292 -135t-109 -384t109 -384t292 -135t290.5 135t107.5 383z" />
    <glyph glyph-name="eopenclosed" unicode="&#x29a;" horiz-adv-x="1099" 
d="M732 530q0 345 -225 345q-72 7 -125 -19t-53 -94v-19q4 -49 64.5 -76.5t123.5 -27.5l2 -188q-71 0 -140 -37.5t-69 -107.5t58.5 -102t138.5 -32h6q219 45 219 358zM1030 539q0 -265 -124 -421t-387 -143q-180 0 -317 72t-137 205q0 102 44 178t111 115q-69 35 -104 85
t-35 140q0 33 9 103.5t137 145.5t288 75q241 22 378 -134t137 -421z" />
    <glyph glyph-name="Hsmallipa" unicode="&#x29c;" horiz-adv-x="1323" 
d="M154 0v1076h305v-380h436v380h306v-1076h-306v480h-436v-480h-305z" />
    <glyph glyph-name="kturned" unicode="&#x29e;" horiz-adv-x="1139" 
d="M1132 -385h-280v794l-355 -410h-353l381 417l-396 668h344l261 -466l118 123v343h280v-1469z" />
    <glyph glyph-name="Lsmallipa" unicode="&#x29f;" horiz-adv-x="1087" 
d="M156 1088h308v-823h530v-265h-838v1088z" />
    <glyph glyph-name="uni02A0" unicode="&#x2a0;" 
d="M357 532q0 -322 238 -322q147 0 209 126q40 82 40 196t-34 193q-61 142 -214 142q-108 0 -173.5 -83t-65.5 -252zM1190 1213q-72 0 -72 -100v-1545h-282v567q-32 -66 -109.5 -117.5t-211.5 -51.5q-189 0 -322 151t-133 413t133.5 425t329.5 163q136 0 220 -67
q44 -34 90 -108v175q0 165 65 244t255 79l102 -3v-228q-36 3 -65 3z" />
    <glyph glyph-name="glottalstopstroke" unicode="&#x2a1;" 
d="M272 373h230q9 247 30 299t129 136l73 57q98 74 98 185q0 71 -44.5 133.5t-161.5 62.5t-165.5 -77t-48.5 -160h-289q12 285 199 404q118 76 290 76q226 0 375.5 -108t149.5 -320q0 -130 -65 -219q-38 -54 -146 -138l-71 -55q-58 -45 -77 -105q-7 -20 -10 -171h215v-152
h-217q-1 -96 -1 -221h-270q1 121 3 221h-226v152z" />
    <glyph glyph-name="glottalstopstrokereversed" unicode="&#x2a2;" 
d="M988 221h-226q2 -100 3 -221h-270q0 125 -1 221h-217v152h215q-3 151 -10 171q-19 60 -77 105l-71 55q-108 84 -146 138q-65 89 -65 219q0 212 149.5 320t375.5 108q172 0 290 -76q187 -119 199 -404h-289q0 83 -48.5 160t-165.5 77t-161.5 -62.5t-44.5 -133.5
q0 -112 98 -185l73 -57q108 -84 129 -136t30 -299h230v-152z" />
    <glyph glyph-name="uni02A3" unicode="&#x2a3;" horiz-adv-x="2048" 
d="M1125 858v-555l488 555h-488zM844 529q0 200 -101 286q-62 52 -144 52q-125 0 -183.5 -94.5t-58.5 -240.5t59.5 -236t180.5 -90t184 90t63 233zM527 1116q207 0 309 -164v520h289v-382h851v-237l-553 -619h572v-234h-1147v151q-61 -97 -139 -141t-194 -44
q-191 0 -321.5 155t-130.5 415t128.5 420t335.5 160z" />
    <glyph glyph-name="dezh" unicode="&#x2a4;" horiz-adv-x="2081" 
d="M808 529q0 200 -101 286q-62 52 -144 52q-125 0 -183.5 -94.5t-58.5 -240.5t59.5 -236t180.5 -90t184 90t63 233zM491 1116q207 0 309 -164v520h289v-387h948v-225l-302 -316q90 -39 155 -113q137 -91 137 -356t-144 -390t-407 -125t-357 187q-84 116 -94 246h291
q9 -86 36 -140t127 -54q141 0 195.5 73.5t54.5 196.5t-28 214q-46 46 -164 61l-2 -2l-273 2l365 475h-538v-819h-277v151q-61 -97 -139 -141t-194 -44q-191 0 -321.5 155t-130.5 415t128.5 420t335.5 160z" />
    <glyph glyph-name="uni02A6" unicode="&#x2a6;" horiz-adv-x="1612" 
d="M1052 183q183 0 183 100q0 48 -40 73t-297 86q-185 46 -261 114t-76 197q0 66 23 124h-129v-576q0 -67 16 -83t84 -17q-27 67 -27 147h289q9 -76 39 -108q53 -57 196 -57zM1208 758q-16 145 -189 145q-174 0 -174 -102q0 -45 42 -67t297 -78q170 -40 255 -121
q84 -82 84 -205q0 -162 -120.5 -264.5t-374.5 -102.5t-378 108q-9 9 -18 17v-98l-135 -5q-202 -7 -276 70q-48 49 -48 151v671h-152v203h152v304h282v-304h177v-119q124 160 381 160q204 0 332.5 -81.5t147.5 -281.5h-285z" />
    <glyph glyph-name="uni02A7" unicode="&#x2a7;" horiz-adv-x="1243" 
d="M455 301q0 -67 17 -83.5t67 -16.5h73l28 676h-185v-576zM1059 1315q-76 0 -104 -80q-18 -52 -24 -221l-36 -972q-8 -189 -51 -289q-80 -185 -283 -185q-95 0 -211 43l24 227q71 -39 114 -39q73 0 98 80q10 33 16 110l-105 -4q-202 -7 -276 70q-48 49 -48 151v671h-152
v203h152v304h282v-304h194q13 197 55 289q77 177 285 177q62 0 142 -20t70 -19l-21 -227q-74 35 -121 35z" />
    <glyph glyph-name="uni02A9" unicode="&#x2a9;" horiz-adv-x="1712" 
d="M1256 -212q72 0 72 100v112h-7v663q0 86 -23 132q-42 84 -160 84q-227 0 -227 -289v-590h-284v879h-163v-879h-284v879h-159v201h156v70q0 175 59 241q62 98 299 98q33 0 109 -6v-232q-129 16 -154.5 -15.5t-25.5 -63.5v-92h163v8h275v-159q55 84 104 121q88 66 240 66
t259.5 -88.5t107.5 -293.5v-851q0 -165 -65 -244t-255 -79l-102 3v228q36 -3 65 -3z" />
    <glyph glyph-name="uni02AA" unicode="&#x2aa;" horiz-adv-x="1407" 
d="M859 183q183 0 183 100q0 48 -40 73t-276 82t-302 139v-229h200q9 -76 39 -108q53 -57 196 -57zM1015 758q-16 145 -189 145q-174 0 -174 -102q0 -45 42 -67t297 -78q170 -40 255 -121q84 -82 84 -205q0 -162 -120.5 -264.5t-390.5 -102.5t-395 141v-104h-285v1474h285
v-534q119 181 396 181q204 0 332.5 -81.5t147.5 -281.5h-285z" />
    <glyph glyph-name="uni02AB" unicode="&#x2ab;" horiz-adv-x="1365" 
d="M424 858v-554l487 554h-487zM139 1474h285v-384h850v-237l-553 -619h572v-234h-1154v1474z" />
    <glyph glyph-name="uni02AC" unicode="&#x2ac;" horiz-adv-x="908" 
d="M369 1474h165l94 -447l97 447h169l-180 -621h-167l-97 453l-99 -453h-169l-174 621h174l97 -445zM369 621h165l94 -447l97 447h169l-180 -621h-167l-97 453l-99 -453h-169l-174 621h174l97 -445z" />
    <glyph glyph-name="uni02AD" unicode="&#x2ad;" horiz-adv-x="1205" 
d="M1140 1382v-551h-156v349h-754v-349h-156v551h1066zM1140 552v-551h-156v349h-754v-349h-156v551h1066z" />
    <glyph glyph-name="uni02AE" unicode="&#x2ae;" 
d="M135 1098q0 100 -72 100q-29 0 -65 -3v228l102 3q190 0 255 -79t65 -244v-18h5v-663q0 -218 178 -218q113 0 171.5 75.5t58.5 215.5v590h284v-1469h-284v521q-111 -170 -320 -170t-314 142q-45 61 -55 125.5t-10 210.5v640h1v13z" />
    <glyph glyph-name="uni02AF" unicode="&#x2af;" 
d="M1121 -112q0 -100 72 -100q29 0 65 3v-228l-102 -3q-190 0 -255 79t-65 244v33h-3v221q-111 -170 -320 -170t-314 142q-45 61 -55 125.5t-10 210.5v640h1v13q0 100 -72 100q-29 0 -65 -3v228l102 3q190 0 255 -79t65 -244v-18h5v-663q0 -218 178 -218q113 0 171.5 75.5
t58.5 215.5v590h284v-850h4v-347z" />
    <glyph glyph-name="uni02B0" unicode="&#x2b0;" horiz-adv-x="626" 
d="M210 1204q55 85 159 85t158 -71q22 -30 27 -62.5t5 -105.5v-320h-145v332q0 109 -89 109q-115 0 -115 -146v-295h-142v735h142v-261z" />
    <glyph glyph-name="uni02B1" unicode="&#x2b1;" horiz-adv-x="626" 
d="M253 1408q-43 0 -43 -50v-153q55 84 160 84q104 0 157 -71q22 -30 27 -62.5t5 -105.5v-320h-145v332q0 109 -89 109q-115 0 -115 -146v-295h-142v630q0 83 32.5 122.5t127.5 39.5q13 0 51 -2v-114q-24 2 -26 2z" />
    <glyph glyph-name="uni02B2" unicode="&#x2b2;" horiz-adv-x="285" 
d="M18 624h13q21 0 31.5 10t10.5 40v599h143v-602q0 -82 -32.5 -121.5t-127.5 -39.5l-51 1v114q12 -1 13 -1zM216 1340h-143v132h143v-132z" />
    <glyph glyph-name="uni02B3" unicode="&#x2b3;" horiz-adv-x="399" 
d="M341 1144q-86 0 -116 -56q-16 -32 -16 -97v-261h-144v545h136v-95q33 56 65 82t97 26h5q4 0 14 -1v-146q-21 3 -41 3z" />
    <glyph glyph-name="uni02B4" unicode="&#x2b4;" horiz-adv-x="399" 
d="M106 875q86 0 115 56q17 31 17 97v260h143v-545h-136v95q-33 -54 -65 -81t-96 -27l-19 1v146q26 -2 41 -2z" />
    <glyph glyph-name="uni02B5" unicode="&#x2b5;" horiz-adv-x="483" 
d="M382 674q0 -50 34 -50h12q11 0 23 1v-114l-51 -1q-95 0 -127.5 39.5t-32.5 121.5v158q-30 -47 -61 -73t-95 -26l-19 1v146q26 -2 41 -2q86 0 115 56q17 31 17 97v260h143v-440h1v-174z" />
    <glyph glyph-name="Rsmallinvertedsuperior" unicode="&#x2b6;" horiz-adv-x="775" 
d="M730 1474v-19q-23 -15 -28 -39t-5 -76v-53q0 -81 -22.5 -120.5t-75.5 -61.5q63 -51 91 -89.5t28 -88.5q0 -90 -55 -151q-30 -36 -74 -54.5t-125 -19.5h-379v772h217v-272h49q71 0 97 25t27 68l1 72q0 46 17 107h237zM372 836q53 0 78 14q47 24 47 94q0 36 -48 58
q-27 12 -82 12h-65v-178h70z" />
    <glyph glyph-name="uni02B7" unicode="&#x2b7;" horiz-adv-x="797" 
d="M324 1275h144l83 -392l85 392h149l-158 -545h-147l-85 397l-87 -397h-148l-153 545h153l85 -391z" />
    <glyph glyph-name="uni02B8" unicode="&#x2b8;" horiz-adv-x="570" 
d="M154 509q-19 0 -22 1l-43 1v114q67 -4 85 9q17 12 28 39t9 33l-200 569h158l119 -402l113 402h151l-187 -536q-54 -155 -85.5 -192.5t-125.5 -37.5z" />
    <glyph glyph-name="primemod" unicode="&#x2b9;" horiz-adv-x="682" 
d="M685 1472l-304 -598h-206l192 598h318z" />
    <glyph glyph-name="dblprimemod" unicode="&#x2ba;" horiz-adv-x="1250" 
d="M1195 1472l-304 -598h-206l192 598h318zM685 1472l-304 -598h-206l192 598h318z" />
    <glyph glyph-name="commaturnedmod" unicode="&#x2bb;" horiz-adv-x="569" 
d="M137 1137q0 295 280 351v-104q-103 -30 -137 -112q-19 -44 -15 -83h156v-263h-284v211z" />
    <glyph glyph-name="apostrophemod" unicode="&#x2bc;" horiz-adv-x="569" 
d="M132 1206v263h285v-211q0 -151 -73.5 -238t-206.5 -113v105q98 31 135 105q20 44 17 89h-157z" />
    <glyph glyph-name="afii64937" unicode="&#x2bd;" horiz-adv-x="569" 
d="M132 1258v211h285v-263h-157q-3 -45 17 -89q37 -74 135 -105v-105q-133 26 -206.5 113t-73.5 238z" />
    <glyph glyph-name="uni02BE" unicode="&#x2be;" horiz-adv-x="420" 
d="M229 1443q0 49 -34.5 84t-83.5 35v99q90 0 154 -64t64 -154t-64 -154t-154 -66l2 102q48 1 82 35t34 83z" />
    <glyph glyph-name="uni02BF" unicode="&#x2bf;" horiz-adv-x="420" 
d="M111 1443q0 90 64 154t154 64v-99q-49 0 -83.5 -35t-34.5 -84t34 -83t82 -35l2 -102q-90 2 -154 66t-64 154z" />
    <glyph glyph-name="uni02C0" unicode="&#x2c0;" horiz-adv-x="626" 
d="M569 1261q0 -65 -26 -101t-80 -78l-35 -27q-29 -23 -37 -47t-8 -278h-135q3 298 16 330t67 74l36 29q49 35 49 82q0 108 -103 108q-58 0 -82.5 -38.5t-24.5 -79.5h-144q10 240 258 240q100 0 174.5 -54t74.5 -160z" />
    <glyph glyph-name="uni02C1" unicode="&#x2c1;" horiz-adv-x="626" 
d="M424 1235q0 41 -24 79.5t-82 38.5t-81 -31t-23 -77t49 -82l37 -29q54 -42 67 -74t16 -330h-135q0 254 -8 278t-37 47l-36 27q-53 42 -79 78t-26 101q0 106 74 160t174 54q248 0 259 -240h-145z" />
    <glyph glyph-name="uni02C2" unicode="&#x2c2;" horiz-adv-x="598" 
d="M12 1065l589 224v-139l-421 -149l421 -149v-139l-589 224v128z" />
    <glyph glyph-name="uni02C3" unicode="&#x2c3;" horiz-adv-x="598" 
d="M601 937l-589 -224v139l421 149l-421 149v139l589 -225v-127z" />
    <glyph glyph-name="uni02C4" unicode="&#x2c4;" horiz-adv-x="598" 
d="M371 1296l224 -589h-139l-149 421l-149 -421h-139l224 589h128z" />
    <glyph glyph-name="uni02C5" unicode="&#x2c5;" horiz-adv-x="598" 
d="M243 707l-224 589h139l149 -421l149 421h139l-225 -589h-127z" />
    <glyph glyph-name="circumflex" unicode="&#x2c6;" horiz-adv-x="682" 
d="M651 1237h-232l-130 168l-131 -168h-232l235 299h256z" />
    <glyph glyph-name="caron" unicode="&#x2c7;" horiz-adv-x="682" 
d="M161 1237l-235 299h232l131 -169l130 169h232l-234 -299h-256z" />
    <glyph glyph-name="uni02C8" unicode="&#x2c8;" horiz-adv-x="682" 
d="M421 1458v-311h-152v311h152z" />
    <glyph glyph-name="uni02C9" unicode="&#x2c9;" horiz-adv-x="682" 
d="M-10 1453h711v-152h-711v152z" />
    <glyph glyph-name="uni02CA" unicode="&#x2ca;" horiz-adv-x="682" 
d="M685 1536l-304 -299h-206l192 299h318z" />
    <glyph glyph-name="uni02CB" unicode="&#x2cb;" horiz-adv-x="682" 
d="M516 1237h-206l-303 299h317z" />
    <glyph glyph-name="uni02CC" unicode="&#x2cc;" horiz-adv-x="682" 
d="M421 -142v-311h-152v311h152z" />
    <glyph glyph-name="uni02CD" unicode="&#x2cd;" horiz-adv-x="682" 
d="M-10 -147h711v-152h-711v152z" />
    <glyph glyph-name="uni02CE" unicode="&#x2ce;" horiz-adv-x="682" 
d="M516 -363h-206l-303 299h317z" />
    <glyph glyph-name="uni02CF" unicode="&#x2cf;" horiz-adv-x="682" 
d="M685 -64l-304 -299h-206l192 299h318z" />
    <glyph glyph-name="colontriangularmod" unicode="&#x2d0;" horiz-adv-x="425" 
d="M410 1083v-93l-145 -290h-93l-146 290v93h384zM26 0v93l145 290h93l146 -290v-93h-384z" />
    <glyph glyph-name="colontriangularhalfmod" unicode="&#x2d1;" horiz-adv-x="425" 
d="M410 883v-93l-145 -290h-93l-146 290v93h384z" />
    <glyph glyph-name="uni02D2" unicode="&#x2d2;" horiz-adv-x="420" 
d="M229 643q0 49 -34.5 84t-83.5 35v99q90 0 154 -64t64 -154t-64 -154t-154 -66l2 102q48 1 82 35t34 83z" />
    <glyph glyph-name="uni02D3" unicode="&#x2d3;" horiz-adv-x="420" 
d="M111 643q0 90 64 154t154 64v-99q-49 0 -83.5 -35t-34.5 -84t34 -83t82 -35l2 -102q-90 2 -154 66t-64 154z" />
    <glyph glyph-name="uni02D4" unicode="&#x2d4;" horiz-adv-x="598" 
d="M37 2v130h205v409h131v-409h205v-130h-205v-2h-131v2h-205z" />
    <glyph glyph-name="uni02D5" unicode="&#x2d5;" horiz-adv-x="598" 
d="M578 539v-130h-205v-409h-131v409h-205v130h205v2h131v-2h205z" />
    <glyph glyph-name="uni02D6" unicode="&#x2d6;" horiz-adv-x="598" 
d="M37 206v130h205v205h131v-205h205v-130h-205v-206h-131v206h-205z" />
    <glyph glyph-name="uni02D7" unicode="&#x2d7;" horiz-adv-x="682" 
d="M47 553h574v-135h-574v135z" />
    <glyph glyph-name="breve" unicode="&#x2d8;" horiz-adv-x="682" 
d="M635 1536q-25 -298 -345 -298t-345 298h135q22 -144 210 -144t210 144h135z" />
    <glyph glyph-name="dotaccent" unicode="&#x2d9;" horiz-adv-x="682" 
d="M154 1493h260v-237h-260v237z" />
    <glyph glyph-name="ring" unicode="&#x2da;" horiz-adv-x="682" 
d="M284 1661q90 0 154 -64t64 -154t-64 -154t-154 -64t-154 64t-64 154t64 154t154 64zM284 1325q49 0 83.5 34.5t34.5 83.5t-34.5 84t-83.5 35t-84 -35t-35 -84t35 -83.5t84 -34.5z" />
    <glyph glyph-name="ogonek" unicode="&#x2db;" horiz-adv-x="682" 
d="M66 -268q0 86 84 163q49 45 158 105h180l-67 -48q-69 -50 -102 -86t-33 -81t33 -71.5t76 -26.5t107 23v-144q-98 -37 -200 -37t-169 58.5t-67 144.5z" />
    <glyph glyph-name="tilde" unicode="&#x2dc;" horiz-adv-x="682" 
d="M138 1336q-75 0 -96 -85h-130q22 103 57 156q64 95 190 95q48 0 97 -19l94 -35q66 -22 99 -22q59 0 81 86h133q-18 -105 -71.5 -176t-156.5 -71q-52 0 -151 33l-81 27q-31 11 -65 11z" />
    <glyph glyph-name="hungarumlaut" unicode="&#x2dd;" horiz-adv-x="682" 
d="M395 1536l-244 -292h-196l149 292h291zM543 1536h291l-244 -292h-196z" />
    <glyph glyph-name="rhotichookmod" unicode="&#x2de;" horiz-adv-x="847" 
d="M18 730l472 144q11 -40 8 -147t6 -157t58 -64q70 -23 105 32.5t47 79.5q16 -16 56 -40t56 -40q-72 -170 -240 -186q-106 -10 -181 67.5t-75 198.5q-42 -9 -143.5 -39.5t-168.5 -40.5v192z" />
    <glyph glyph-name="uni02DF" unicode="&#x2df;" horiz-adv-x="598" 
d="M480 1265l92 -92l-173 -172l173 -172l-92 -94l-173 173l-172 -173l-92 94l172 172l-172 172l92 92l172 -172z" />
    <glyph glyph-name="uni02E0" unicode="&#x2e0;" horiz-adv-x="569" 
d="M359 529h-149v201l-192 533h158l107 -331h2l108 331h158l-192 -533v-201z" />
    <glyph glyph-name="uni02E1" unicode="&#x2e1;" horiz-adv-x="284" 
d="M212 730h-143v737h143v-737z" />
    <glyph glyph-name="uni02E2" unicode="&#x2e2;" horiz-adv-x="569" 
d="M373 1109q-8 73 -95 73t-87 -51q0 -21 21 -33q22 -12 128 -36t148 -64t42 -112t-60 -123t-188 -51t-188.5 54t-60.5 138h144q5 -38 25 -60t102 -22t82 50q0 24 -20 36t-130 40q-110 26 -149 60q-38 34 -38 104t59.5 124.5t163.5 54.5t169 -41t74 -141h-142z" />
    <glyph glyph-name="uni02E3" unicode="&#x2e3;" horiz-adv-x="569" 
d="M13 730l186 276l-178 268h174l91 -158l89 158h170l-179 -265l186 -279h-178l-94 164l-94 -164h-173z" />
    <glyph glyph-name="uni02E4" unicode="&#x2e4;" horiz-adv-x="626" 
d="M424 1235q0 41 -24 79.5t-82 38.5t-81 -31t-23 -77t49 -82l37 -29q54 -42 67 -74t16 -330h-135q0 254 -8 278t-37 47l-36 27q-53 42 -79 78t-26 101q0 106 74 160t174 54q248 0 259 -240h-145z" />
    <glyph glyph-name="tonebarextrahighmod" unicode="&#x2e5;" horiz-adv-x="972" 
d="M641 0v1204h-632v270h902v-1474h-270z" />
    <glyph glyph-name="tonebarhighmod" unicode="&#x2e6;" horiz-adv-x="963" 
d="M632 0v904h-632v270h632v300h270v-1474h-270z" />
    <glyph glyph-name="tonebarmidmod" unicode="&#x2e7;" horiz-adv-x="963" 
d="M632 0v602h-632v270h632v602h270v-1474h-270z" />
    <glyph glyph-name="tonebarlowmod" unicode="&#x2e8;" horiz-adv-x="963" 
d="M902 1474v-1474h-270v300h-632v270h632v904h270z" />
    <glyph glyph-name="tonebarextralowmod" unicode="&#x2e9;" horiz-adv-x="972" 
d="M911 1474v-1474h-902v270h632v1204h270z" />
    <glyph glyph-name="uni02EA" unicode="&#x2ea;" horiz-adv-x="606" 
d="M61 1088h135v-984h409v-104h-544v1088z" />
    <glyph glyph-name="uni02EB" unicode="&#x2eb;" horiz-adv-x="605" 
d="M61 1088h135v-492h409v-104h-409v-492h-135v1088z" />
    <glyph glyph-name="uni02EC" unicode="&#x2ec;" horiz-adv-x="682" 
d="M218 -363l-235 299h232l131 -169l130 169h232l-234 -299h-256z" />
    <glyph glyph-name="uni02ED" unicode="&#x2ed;" horiz-adv-x="682" 
d="M-10 1153h711v-152h-711v152zM-10 1453h711v-152h-711v152z" />
    <glyph glyph-name="uni02EE" unicode="&#x2ee;" horiz-adv-x="1024" 
d="M151 1206v263h285v-211q0 -147 -72 -236t-208 -115v105q101 32 136 110q19 41 16 84h-157zM779 1206h-156v263h284v-211q0 -297 -279 -351v105q151 45 151 194z" />
    <glyph glyph-name="uni02EF" unicode="&#x2ef;" horiz-adv-x="598" 
d="M243 -493l-224 589h139l149 -421l149 421h139l-225 -589h-127z" />
    <glyph glyph-name="uni02F0" unicode="&#x2f0;" horiz-adv-x="598" 
d="M371 96l224 -589h-139l-149 421l-149 -421h-139l224 589h128z" />
    <glyph glyph-name="uni02F1" unicode="&#x2f1;" horiz-adv-x="598" 
d="M12 -135l589 224v-139l-421 -149l421 -149v-139l-589 224v128z" />
    <glyph glyph-name="uni02F2" unicode="&#x2f2;" horiz-adv-x="598" 
d="M601 -263l-589 -224v139l421 149l-421 149v139l589 -225v-127z" />
    <glyph glyph-name="uni02F3" unicode="&#x2f3;" horiz-adv-x="682" 
d="M341 61q90 0 154 -64t64 -154t-64 -154t-154 -64t-154 64t-64 154t64 154t154 64zM341 -275q49 0 83.5 34.5t34.5 83.5t-34.5 84t-83.5 35t-84 -35t-35 -84t35 -83.5t84 -34.5z" />
    <glyph glyph-name="uni02F4" unicode="&#x2f4;" horiz-adv-x="682" 
d="M516 617h-206l-303 299h317z" />
    <glyph glyph-name="uni02F5" unicode="&#x2f5;" horiz-adv-x="682" 
d="M742 916l149 -292h-196l-244 292h291zM452 624h-196l-244 292h291z" />
    <glyph glyph-name="uni02F6" unicode="&#x2f6;" horiz-adv-x="682" 
d="M452 916l-244 -292h-196l149 292h291zM600 916h291l-244 -292h-196z" />
    <glyph glyph-name="uni02F7" unicode="&#x2f7;" horiz-adv-x="682" 
d="M216 252q48 0 97 -19l94 -35q66 -22 99 -22q59 0 81 86h133q-18 -105 -71.5 -176t-156.5 -71q-52 0 -151 33l-81 27q-31 11 -65 11q-75 0 -96 -85h-130q22 103 57 156q64 95 190 95z" />
    <glyph glyph-name="uni02F8" unicode="&#x2f8;" horiz-adv-x="682" 
d="M232 725h303v-298h-303v298zM232 1474h303v-298h-303v298z" />
    <glyph glyph-name="uni02F9" unicode="&#x2f9;" horiz-adv-x="682" 
d="M191 1479h301v-104h-166v-507h-135v611z" />
    <glyph glyph-name="uni02FA" unicode="&#x2fa;" horiz-adv-x="682" 
d="M492 868h-135v507h-166v104h301v-611z" />
    <glyph glyph-name="uni02FB" unicode="&#x2fb;" horiz-adv-x="682" 
d="M191 611h135v-507h166v-104h-301v611z" />
    <glyph glyph-name="uni02FC" unicode="&#x2fc;" horiz-adv-x="682" 
d="M492 0h-301v104h166v507h135v-611z" />
    <glyph glyph-name="uni02FD" unicode="&#x2fd;" horiz-adv-x="682" 
d="M36 -2v301h104v-166h403v166h104v-301h-611z" />
    <glyph glyph-name="uni02FE" unicode="&#x2fe;" horiz-adv-x="682" 
d="M36 -2v301h104v-166h507v-135h-611z" />
    <glyph glyph-name="uni02FF" unicode="&#x2ff;" horiz-adv-x="1218" 
d="M608 303h600v-152h-600v-145l-589 224l589 224v-151z" />
    <glyph glyph-name="gravecmb" unicode="&#x300;" horiz-adv-x="0" 
d="M-370 1237h-206l-303 299h317z" />
    <glyph glyph-name="acutecmb" unicode="&#x301;" horiz-adv-x="0" 
d="M-370 1536l-304 -299h-206l192 299h318z" />
    <glyph glyph-name="circumflexcmb" unicode="&#x302;" horiz-adv-x="0" 
d="M-262 1237h-232l-130 168l-131 -168h-232l235 299h256z" />
    <glyph glyph-name="tildecmb" unicode="&#x303;" horiz-adv-x="0" 
d="M-774 1336q-75 0 -96 -85h-130q22 103 57 156q64 95 190 95q48 0 97 -19l94 -35q66 -22 99 -22q59 0 81 86h133q-18 -105 -71.5 -176t-156.5 -71q-52 0 -151 33l-81 27q-31 11 -65 11z" />
    <glyph glyph-name="macroncmb" unicode="&#x304;" horiz-adv-x="0" 
d="M-980 1453h711v-152h-711v152z" />
    <glyph glyph-name="overlinecmb" unicode="&#x305;" horiz-adv-x="0" 
d="M-980 1453h711v-152h-711v152z" />
    <glyph glyph-name="brevecmb" unicode="&#x306;" horiz-adv-x="0" 
d="M-625 1392q188 0 210 144h135q-25 -298 -345 -298t-345 298h135q22 -144 210 -144z" />
    <glyph glyph-name="dotaccentcmb" unicode="&#x307;" horiz-adv-x="0" 
d="M-755 1493h260v-237h-260v237z" />
    <glyph glyph-name="dieresiscmb" unicode="&#x308;" horiz-adv-x="0" 
d="M-955 1493h261v-237h-261v237zM-555 1493h261v-237h-261v237z" />
    <glyph glyph-name="hookcmb" unicode="&#x309;" horiz-adv-x="0" 
d="M-674 1620q120 0 176 -80q22 -32 22 -65q0 -61 -29.5 -97.5t-101.5 -51.5l-14 -44h-138l7 76q83 6 106.5 34t23.5 53q0 85 -94 88l-53 1l-4 79q52 7 99 7z" />
    <glyph glyph-name="ringcmb" unicode="&#x30a;" horiz-adv-x="0" 
d="M-625 1661q90 0 154 -64t64 -154t-64 -154t-154 -64t-154 64t-64 154t64 154t154 64zM-625 1325q49 0 83.5 34.5t34.5 83.5t-34.5 84t-83.5 35t-84 -35t-35 -84t35 -83.5t84 -34.5z" />
    <glyph glyph-name="hungarumlautcmb" unicode="&#x30b;" horiz-adv-x="0" 
d="M-624 1536l-244 -292h-196l149 292h291zM-476 1536h291l-244 -292h-196z" />
    <glyph glyph-name="caroncmb" unicode="&#x30c;" horiz-adv-x="0" 
d="M-752 1237l-235 299h232l131 -169l130 169h232l-234 -299h-256z" />
    <glyph glyph-name="verticallineabovecmb" unicode="&#x30d;" horiz-adv-x="0" 
d="M-549 1458v-311h-152v311h152z" />
    <glyph glyph-name="dblverticallineabovecmb" unicode="&#x30e;" horiz-adv-x="0" 
d="M-384 1458v-311h-152v311h152zM-714 1458v-311h-152v311h152z" />
    <glyph glyph-name="dblgravecmb" unicode="&#x30f;" horiz-adv-x="0" 
d="M-334 1536l149 -292h-196l-244 292h291zM-624 1244h-196l-244 292h291z" />
    <glyph glyph-name="candrabinducmb" unicode="&#x310;" horiz-adv-x="0" 
d="M-758 1795h260v-237h-260v237zM-625 1392q188 0 210 144h135q-25 -298 -345 -298t-345 298h135q22 -144 210 -144z" />
    <glyph glyph-name="breveinvertedcmb" unicode="&#x311;" horiz-adv-x="0" 
d="M-625 1382q-188 0 -210 -144h-135q25 298 345 298t345 -298h-135q-22 144 -210 144z" />
    <glyph glyph-name="commaturnedabovecmb" unicode="&#x312;" horiz-adv-x="0" 
d="M-767 1137q0 295 280 351v-104q-103 -30 -137 -112q-19 -44 -15 -83h156v-263h-284v211z" />
    <glyph glyph-name="commaabovecmb" unicode="&#x313;" horiz-adv-x="0" 
d="M-767 1206v263h285v-211q0 -151 -73.5 -238t-206.5 -113v105q98 31 135 105q20 44 17 89h-157z" />
    <glyph glyph-name="commareversedabovecmb" unicode="&#x314;" horiz-adv-x="0" 
d="M-767 1277v211h284v-263h-156q-4 -39 15 -83q34 -82 137 -112v-104q-280 56 -280 351z" />
    <glyph glyph-name="commaaboverightcmb" unicode="&#x315;" horiz-adv-x="0" 
d="M-767 1206v263h285v-211q0 -151 -73.5 -238t-206.5 -113v105q98 31 135 105q20 44 17 89h-157z" />
    <glyph glyph-name="gravebelowcmb" unicode="&#x316;" horiz-adv-x="0" 
d="M-370 -363h-206l-303 299h317z" />
    <glyph glyph-name="acutebelowcmb" unicode="&#x317;" horiz-adv-x="0" 
d="M-370 -64l-304 -299h-206l192 299h318z" />
    <glyph glyph-name="lefttackbelowcmb" unicode="&#x318;" horiz-adv-x="0" 
d="M-487 -362h-407v131h407v205h131v-541h-131v205z" />
    <glyph glyph-name="righttackbelowcmb" unicode="&#x319;" horiz-adv-x="0" 
d="M-763 -567h-131v541h131v-205h407v-131h-407v-205z" />
    <glyph glyph-name="uni031A" unicode="&#x31a;" horiz-adv-x="0" 
d="M-354 1414v-365h-131v233h-410v132h541z" />
    <glyph glyph-name="horncmb" unicode="&#x31b;" horiz-adv-x="0" 
d="M-885 962q64 18 132.5 11t159.5 38l-87 150l258 149l154 -267l-223 -129q-153 -88 -277 -61q-76 17 -137.5 24t-75.5 30z" />
    <glyph glyph-name="ringhalfleftbelowcmb" unicode="&#x31c;" horiz-adv-x="0" 
d="M-734 -157q0 90 64 154t154 64v-99q-49 0 -83.5 -35t-34.5 -84t34 -83t82 -35l2 -102q-90 2 -154 66t-64 154z" />
    <glyph glyph-name="uptackbelowcmb" unicode="&#x31d;" horiz-adv-x="0" 
d="M-690 -435v407h131v-407h205v-131h-541v131h205z" />
    <glyph glyph-name="downtackbelowcmb" unicode="&#x31e;" horiz-adv-x="0" 
d="M-895 -159v131h541v-131h-205v-407h-131v407h-205z" />
    <glyph glyph-name="plusbelowcmb" unicode="&#x31f;" horiz-adv-x="0" 
d="M-895 -360v131h205v205h131v-205h205v-131h-205v-206h-131v206h-205z" />
    <glyph glyph-name="minusbelowcmb" unicode="&#x320;" horiz-adv-x="0" 
d="M-980 -147h711v-152h-711v152z" />
    <glyph glyph-name="uni0321" unicode="&#x321;" horiz-adv-x="0" 
d="M-704 -396q42 0 42 50v369h143v-371q0 -83 -32.5 -122.5t-127.5 -39.5q-13 0 -51 2v114q24 -2 26 -2z" />
    <glyph glyph-name="uni0322" unicode="&#x322;" horiz-adv-x="0" 
d="M-570 -510q-95 0 -127.5 39.5t-32.5 122.5v371h143v-369q0 -50 42 -50q2 0 26 2v-114q-38 -2 -51 -2z" />
    <glyph glyph-name="dotbelowcmb" unicode="&#x323;" horiz-adv-x="0" 
d="M-755 -107h260v-237h-260v237z" />
    <glyph glyph-name="dieresisbelowcmb" unicode="&#x324;" horiz-adv-x="0" 
d="M-955 -107h261v-237h-261v237zM-555 -107h261v-237h-261v237z" />
    <glyph glyph-name="ringbelowcmb" unicode="&#x325;" horiz-adv-x="0" 
d="M-625 61q90 0 154 -64t64 -154t-64 -154t-154 -64t-154 64t-64 154t64 154t154 64zM-625 -275q49 0 83.5 34.5t34.5 83.5t-34.5 84t-83.5 35t-84 -35t-35 -84t35 -83.5t84 -34.5z" />
    <glyph glyph-name="commaaccent" unicode="&#x326;" horiz-adv-x="0" 
d="M-767 -394v263h285v-211q0 -151 -73.5 -238t-206.5 -113v105q98 31 135 105q20 44 17 89h-157z" />
    <glyph glyph-name="cedillacmb" unicode="&#x327;" horiz-adv-x="0" 
d="M-560 -119q81 0 129 -39.5t48 -122.5t-75 -136.5t-170 -53.5t-239 53l38 86q114 -34 165 -34t77 25.5t26 60.5t-29 52t-61 17t-85 -17l-129 117l207 111h109l-88 -131q57 12 77 12z" />
    <glyph glyph-name="ogonekcmb" unicode="&#x328;" horiz-adv-x="0" 
d="M-843 -268q0 86 84 163q49 45 158 105h180l-67 -48q-69 -50 -102 -86t-33 -81t33 -71.5t76 -26.5t107 23v-144q-98 -37 -200 -37t-169 58.5t-67 144.5z" />
    <glyph glyph-name="verticallinebelowcmb" unicode="&#x329;" horiz-adv-x="0" 
d="M-549 -142v-311h-152v311h152z" />
    <glyph glyph-name="uni032A" unicode="&#x32a;" horiz-adv-x="0" 
d="M-269 -1v-301h-104v166h-503v-166h-104v301h711z" />
    <glyph glyph-name="dblarchinvertedbelowcmb" unicode="&#x32b;" horiz-adv-x="0" 
d="M-882.5 -362q-171.5 0 -260.5 72.5t-102 225.5h135q22 -144 150 -144t188 24t69 68t8 52h140q0 -8 8.5 -52t68.5 -68t188 -24t150 144h135q-25 -298 -276.5 -298t-343.5 104q-86 -104 -257.5 -104z" />
    <glyph glyph-name="caronbelowcmb" unicode="&#x32c;" horiz-adv-x="0" 
d="M-752 -363l-235 299h232l131 -169l130 169h232l-234 -299h-256z" />
    <glyph glyph-name="circumflexbelowcmb" unicode="&#x32d;" horiz-adv-x="0" 
d="M-262 -363h-232l-130 168l-131 -168h-232l235 299h256z" />
    <glyph glyph-name="brevebelowcmb" unicode="&#x32e;" horiz-adv-x="0" 
d="M-280 -64q-25 -298 -345 -298t-345 298h135q22 -144 210 -144t210 144h135z" />
    <glyph glyph-name="breveinvertedbelowcmb" unicode="&#x32f;" horiz-adv-x="0" 
d="M-970 -362q25 298 345 298t345 -298h-135q-22 144 -210 144t-210 -144h-135z" />
    <glyph glyph-name="tildebelowcmb" unicode="&#x330;" horiz-adv-x="0" 
d="M-774 -264q-75 0 -96 -85h-130q22 103 57 156q64 95 190 95q48 0 97 -19l94 -35q66 -22 99 -22q59 0 81 86h133q-18 -105 -71.5 -176t-156.5 -71q-52 0 -151 33l-81 27q-31 11 -65 11z" />
    <glyph glyph-name="macronbelowcmb" unicode="&#x331;" horiz-adv-x="0" 
d="M-940 -147h631v-152h-631v152z" />
    <glyph glyph-name="lowlinecmb" unicode="&#x332;" horiz-adv-x="0" 
d="M-980 -147h711v-152h-711v152z" />
    <glyph glyph-name="dbllowlinecmb" unicode="&#x333;" horiz-adv-x="0" 
d="M-980 -447h711v-152h-711v152zM-980 -147h711v-152h-711v152z" />
    <glyph glyph-name="tildeoverlaycmb" unicode="&#x334;" horiz-adv-x="0" 
d="M-774 536q-75 0 -96 -85h-130q22 103 57 156q64 95 190 95q48 0 97 -19l94 -35q66 -22 99 -22q59 0 81 86h133q-18 -105 -71.5 -176t-156.5 -71q-52 0 -151 33l-81 27q-31 11 -65 11z" />
    <glyph glyph-name="strokeshortoverlaycmb" unicode="&#x335;" horiz-adv-x="0" 
d="M-980 653h711v-152h-711v152z" />
    <glyph glyph-name="strokelongoverlaycmb" unicode="&#x336;" horiz-adv-x="0" 
d="M-980 653h711v-152h-711v152z" />
    <glyph glyph-name="solidusshortoverlaycmb" unicode="&#x337;" horiz-adv-x="0" 
d="M-458 1110h237l-573 -760h-235z" />
    <glyph glyph-name="soliduslongoverlaycmb" unicode="&#x338;" horiz-adv-x="0" 
d="M-458 1519h237l-573 -1519h-235z" />
    <glyph glyph-name="ringhalfrightbelowcmb" unicode="&#x339;" horiz-adv-x="0" 
d="M-616 -157q0 49 -34.5 84t-83.5 35v99q90 0 154 -64t64 -154t-64 -154t-154 -66l2 102q48 1 82 35t34 83z" />
    <glyph glyph-name="uni033A" unicode="&#x33a;" horiz-adv-x="0" 
d="M-980 -302v301h104v-166h503v166h104v-301h-711z" />
    <glyph glyph-name="squarebelowcmb" unicode="&#x33b;" horiz-adv-x="0" 
d="M-474 -488v363h-301v-363h301zM-910 -21h571v-571h-571v571z" />
    <glyph glyph-name="seagullbelowcmb" unicode="&#x33c;" horiz-adv-x="0" 
d="M-350 -218q-68 0 -128 -24t-69 -68t-8 -52h-140q0 8 -8.5 52t-68.5 68t-128 24t-114 -19l-131 -25q91 198 259.5 198t260.5 -104q86 104 257.5 104t262.5 -198l-131 25q-46 19 -114 19z" />
    <glyph glyph-name="uni033D" unicode="&#x33d;" horiz-adv-x="0" 
d="M-452 1665l92 -92l-173 -172l173 -172l-92 -94l-173 173l-172 -173l-92 94l172 172l-172 172l92 92l172 -172z" />
    <glyph glyph-name="tildeverticalcmb" unicode="&#x33e;" horiz-adv-x="0" 
d="M-755 1138q86 22 86 80q0 32 -4 45t-18 55l-35 94q-19 49 -19 97q0 126 95 190q53 35 156 57v-130q-85 -21 -85 -96q0 -34 11 -65l27 -81q33 -99 33 -151q0 -103 -71 -156.5t-176 -71.5v133z" />
    <glyph glyph-name="dbloverlinecmb" unicode="&#x33f;" horiz-adv-x="0" 
d="M-980 1153h711v-152h-711v152zM-980 1453h711v-152h-711v152z" />
    <glyph glyph-name="gravetonecmb" unicode="&#x340;" horiz-adv-x="0" 
d="M-370 1237h-206l-303 299h317z" />
    <glyph glyph-name="acutetonecmb" unicode="&#x341;" horiz-adv-x="0" 
d="M-370 1536l-304 -299h-206l192 299h318z" />
    <glyph glyph-name="perispomenigreekcmb" unicode="&#x342;" horiz-adv-x="0" 
d="M-625 1382q-188 0 -210 -144h-135q25 298 345 298t345 -298h-135q-22 144 -210 144z" />
    <glyph glyph-name="koroniscmb" unicode="&#x343;" horiz-adv-x="0" 
d="M-767 1206v263h285v-211q0 -151 -73.5 -238t-206.5 -113v105q98 31 135 105q20 44 17 89h-157z" />
    <glyph glyph-name="dialytikatonoscmb" unicode="&#x344;" horiz-adv-x="0" 
d="M-646 1546h245l-235 -276h-143zM-446 1456h185v-184h-185v184zM-988 1456h184v-184h-184v184z" />
    <glyph glyph-name="ypogegrammenigreekcmb" unicode="&#x345;" horiz-adv-x="0" 
d="M-696 -104h143v-538h-143v538z" />
    <glyph glyph-name="uni0346" unicode="&#x346;" horiz-adv-x="0" 
d="M-269 1599v-301h-104v166h-503v-166h-104v301h711z" />
    <glyph glyph-name="uni0347" unicode="&#x347;" horiz-adv-x="0" 
d="M-940 -447h631v-152h-631v152zM-940 -147h631v-152h-631v152z" />
    <glyph glyph-name="uni0348" unicode="&#x348;" horiz-adv-x="0" 
d="M-384 -142v-311h-152v311h152zM-714 -142v-311h-152v311h152z" />
    <glyph glyph-name="uni0349" unicode="&#x349;" horiz-adv-x="0" 
d="M-476 -1v-301h-104v166h-193v135h297z" />
    <glyph glyph-name="uni034A" unicode="&#x34a;" horiz-adv-x="0" 
d="M-736 1383q-90 0 -104 -88h-98q14 157 120 207q36 18 85 17q49 0 119 -34l46 122l94 -32l-48 -134q38 -16 78 -16q95 0 108 100h104q-12 -105 -47 -151q-67 -87 -161 -87q-62 0 -128 32l-50 -134l-96 34l56 146q-40 18 -78 18z" />
    <glyph glyph-name="uni034B" unicode="&#x34b;" horiz-adv-x="0" 
d="M-743 1440q-90 0 -104 -88h-98q13 156 119 206q36 18 82 18t84 -17t74 -33q34 -16 66 -30t69 -14q95 0 108 100h104q-12 -105 -47 -151q-36 -47 -73 -67t-88 -20t-93 18t-74 34t-62 30q-29 14 -67 14zM-803 1235q-1 29 7 47t21 30t30 20t36 8q37 0 65 -28t27 -67
q0 -39 -27 -65t-65 -26t-66 26t-28 55zM-579 1663q-1 29 7 47t21 30t30 20t36 8q37 0 65 -28t27 -67q0 -39 -27 -65t-65 -26t-66 26t-28 55z" />
    <glyph glyph-name="uni034C" unicode="&#x34c;" horiz-adv-x="0" 
d="M-499 1540q82 0 145 74v-142q-59 -59 -141 -59q-49 0 -134 38.5t-129 38.5t-73.5 -18t-63.5 -57v139q70 63 129 63q60 0 145 -38.5t122 -38.5zM-499 1311q86 0 145 75v-143q-67 -59 -130 -59q-62 0 -144 38t-128 38t-75 -16.5t-64 -57.5v139q65 61 127 62t147.5 -37.5
t121.5 -38.5z" />
    <glyph glyph-name="uni034D" unicode="&#x34d;" horiz-adv-x="0" 
d="M-1519 -270l589 224v-151l611 6v145l589 -224l-589 -224v151l-611 -6v-145z" />
    <glyph glyph-name="uni034E" unicode="&#x34e;" horiz-adv-x="0" 
d="M-552 -364v-201h-152v201h-145l224 289l224 -289h-151z" />
    <glyph glyph-name="combininggraphemejoiner" unicode="&#x34f;" horiz-adv-x="0" 
 />
    <glyph glyph-name="uni0350" unicode="&#x350;" horiz-adv-x="0" 
d="M-330 937l-589 -224v139l421 149l-421 149v139l589 -225v-127z" />
    <glyph glyph-name="uni0351" unicode="&#x351;" horiz-adv-x="0" 
d="M-734 1443q0 90 64 154t154 64v-99q-49 0 -83.5 -35t-34.5 -84t34 -83t82 -35l2 -102q-90 2 -154 66t-64 154z" />
    <glyph glyph-name="uni0352" unicode="&#x352;" horiz-adv-x="0" 
d="M-758 1476h260v-237h-260v237zM-625 1642q-188 0 -210 -144h-135q25 298 345 298t345 -298h-135q-22 144 -210 144z" />
    <glyph glyph-name="uni0353" unicode="&#x353;" horiz-adv-x="0" 
d="M-452 65l92 -92l-173 -172l173 -172l-92 -94l-173 173l-172 -173l-92 94l172 172l-172 172l92 92l172 -172z" />
    <glyph glyph-name="uni0354" unicode="&#x354;" horiz-adv-x="0" 
d="M-919 -135l589 224v-139l-421 -149l421 -149v-139l-589 224v128z" />
    <glyph glyph-name="uni0355" unicode="&#x355;" horiz-adv-x="0" 
d="M-330 -263l-589 -224v139l421 149l-421 149v139l589 -225v-127z" />
    <glyph glyph-name="uni0356" unicode="&#x356;" horiz-adv-x="0" 
d="M-272 96l224 -589h-139l-149 421l-149 -421h-139l224 589h128zM-612 -263l-589 -224v139l421 149l-421 149v139l589 -225v-127z" />
    <glyph glyph-name="uni0357" unicode="&#x357;" horiz-adv-x="0" 
d="M-616 1443q0 49 -34.5 84t-83.5 35v99q90 0 154 -64t64 -154t-64 -154t-154 -66l2 102q48 1 82 35t34 83z" />
    <glyph glyph-name="uni0358" unicode="&#x358;" horiz-adv-x="0" 
d="M-455 1493h260v-237h-260v237z" />
    <glyph glyph-name="uni0359" unicode="&#x359;" horiz-adv-x="0" 
d="M-697 -27h173v-241l209 68l47 -149l-213 -66l139 -199l-128 -91l-139 188l-143 -188l-128 91l140 199l-213 66l47 149l209 -68v241z" />
    <glyph glyph-name="uni035A" unicode="&#x35a;" horiz-adv-x="0" 
d="M-460.5 -274.5q49.5 -0.5 84 34t34.5 83.5t-34.5 84t-84 35t-77.5 -28t-36 -57q2 -17 2 -34t-2 -34q8 -27 36 -55t77.5 -28.5zM-789.5 -274.5q49.5 0.5 77.5 28.5t36 57q-2 17 -2 33t2 31q-7 29 -36 58t-78 29t-84 -35t-35 -84t35 -83.5t84.5 -34zM-1008 -157
q0 90 64 154t160 64t159 -75q75 75 165 75t154 -64t64 -154t-64 -154t-160 -64t-159 76q-63 -76 -159 -76t-160 64t-64 154z" />
    <glyph glyph-name="uni035B" unicode="&#x35b;" horiz-adv-x="0" 
d="M-519 1493l-332 -2l-79 78l232 332l83 -82l-152 -203l325 7l83 -83l-212 -363l-82 82z" />
    <glyph glyph-name="uni035C" unicode="&#x35c;" horiz-adv-x="0" 
d="M-610 -567q-292 0 -592 130q-166 72 -281 155l-98 71l2 164q254 -139 401 -189q246 -83 550 -83q466 0 847 207l112 62v-169q-474 -348 -941 -348z" />
    <glyph glyph-name="uni035D" unicode="&#x35d;" horiz-adv-x="0" 
d="M-610 1083q-292 0 -592 130q-166 72 -281 155l-98 71l2 164q254 -139 401 -189q246 -83 550 -83q466 0 847 207l112 62v-169q-474 -348 -941 -348z" />
    <glyph glyph-name="uni035E" unicode="&#x35e;" horiz-adv-x="0" 
d="M-1691 1453h2133v-152h-2133v152z" />
    <glyph glyph-name="uni035F" unicode="&#x35f;" horiz-adv-x="0" 
d="M-1571 -147h1893v-152h-1893v152z" />
    <glyph glyph-name="tildedoublecmb" unicode="&#x360;" horiz-adv-x="0" 
d="M-1073 1274q-224 0 -288 -127h-390q66 154 171 234q192 142 570 142q140 0 291 -28l282 -53q198 -33 252 -33q144 0 202.5 38.5t85.5 90.5h399q-54 -157 -214.5 -263.5t-469.5 -106.5q-159 0 -453 49l-243 41q-91 16 -195 16z" />
    <glyph glyph-name="breveinverteddoublecmb" unicode="&#x361;" horiz-adv-x="0" 
d="M-622 1355q-466 0 -847 -207l-112 -62v169q474 348 941 348q292 0 592 -130q166 -72 281 -155l98 -71l-2 -164q-254 139 -401 189q-246 83 -550 83z" />
    <glyph glyph-name="uni0362" unicode="&#x362;" horiz-adv-x="0" 
d="M216 157h-2300v152h2300v145l589 -224l-589 -224v151z" />
    <glyph glyph-name="uni0363" unicode="&#x363;" horiz-adv-x="0" 
d="M-698 983q-182 0 -182 174q0 89 77 134q43 24 125 35l49 6q39 5 63 15q24 11 24 41q0 56 -92 56q-50 0 -68 -22t-23 -53h-138q13 189 234 189q89 0 159 -36t70 -133v-250q0 -88 8 -99.5t22 -18.5v-21h-155q-9 24 -13 64q-74 -81 -160 -81zM-737 1158q-1 -71 77 -71
q38 0 77 27t40 98v53q-27 -17 -65 -23l-32 -6q-45 -8 -71 -24t-26 -54z" />
    <glyph glyph-name="uni0364" unicode="&#x364;" horiz-adv-x="0" 
d="M-617 1098q67 0 98 62h145q-5 -48 -50 -98q-70 -80 -185 -80t-194.5 67t-79.5 213t71.5 222t186.5 76q145 0 212 -106q31 -50 39 -100t7 -121h-373q3 -82 52 -115q29 -20 71 -20zM-628 1442q-93 0 -108 -115h221q-3 57 -34 86t-79 29z" />
    <glyph glyph-name="uni0365" unicode="&#x365;" horiz-adv-x="0" 
d="M-697 1545h144v-545h-144v545zM-553 1610h-144v132h144v-132z" />
    <glyph glyph-name="uni0366" unicode="&#x366;" horiz-adv-x="0" 
d="M-624 981q-140 0 -209.5 85.5t-69.5 204.5t69.5 205.5t209.5 86.5t209 -86.5t69 -205.5t-69 -204.5t-209 -85.5zM-495 1272q0 82 -33.5 126t-95.5 44t-96.5 -44t-34.5 -126t34.5 -126.5t96.5 -44.5t95.5 44.5t33.5 126.5z" />
    <glyph glyph-name="uni0367" unicode="&#x367;" horiz-adv-x="0" 
d="M-638 1105q114 0 114 144v296h145v-545h-139v77q-2 -2 -10 -14.5t-30 -32.5q-46 -42 -127 -42q-121 0 -163 87q-23 48 -23 142v328h146v-328q0 -47 11 -70q19 -42 76 -42z" />
    <glyph glyph-name="uni0368" unicode="&#x368;" horiz-adv-x="0" 
d="M-615 1438q-112 0 -112 -168t110 -169q50 0 71 27t25 70h146q-5 -65 -47 -123q-66 -94 -198 -94t-194 78.5t-62 210.5t68 210t180 78t177 -46t77 -162h-146q-12 88 -95 88z" />
    <glyph glyph-name="uni0369" unicode="&#x369;" horiz-adv-x="0" 
d="M-623 1103q123 0 123 176q0 86 -50 129q-31 26 -83 26t-81 -48t-29 -120t29.5 -117.5t90.5 -45.5zM-658 1558q104 0 154 -82v260h145v-736h-139v76q-57 -93 -159 -93q-103 0 -168 77.5t-65 207.5t64 210t168 80z" />
    <glyph glyph-name="uni036A" unicode="&#x36a;" horiz-adv-x="0" 
d="M-379 1320v-320h-145v332q0 109 -89 109q-115 0 -115 -146v-295h-142v735h142v-261q55 85 159 85t158 -71q22 -30 27 -62.5t5 -105.5z" />
    <glyph glyph-name="uni036B" unicode="&#x36b;" horiz-adv-x="0" 
d="M-404 1557q84 0 134 -63q36 -44 36 -150l-1 -344h-146v347q0 89 -80 89q-93 0 -93 -111v-325h-143v325q0 48 -10 70q-18 40 -75 40t-78 -40q-11 -22 -11 -67v-328h-145v544h139v-79q27 42 59 67t96 25t103 -27q31 -26 47 -66q54 93 168 93z" />
    <glyph glyph-name="uni036C" unicode="&#x36c;" horiz-adv-x="0" 
d="M-507 1414q-86 0 -116 -56q-16 -32 -16 -97v-261h-144v545h136v-95q33 56 65 82t97 26h5q4 0 14 -1v-146q-21 3 -41 3z" />
    <glyph glyph-name="uni036D" unicode="&#x36d;" horiz-adv-x="0" 
d="M-777 1439v101h76v152h141v-152h88v-101h-88v-288q0 -34 8.5 -42t33.5 -8h20q19 0 26 1v-107l-67 -3q-101 -3 -138 36q-24 24 -24 75v336h-76z" />
    <glyph glyph-name="uni036E" unicode="&#x36e;" horiz-adv-x="0" 
d="M-506 1545h153l-197 -545h-150l-196 545h160l114 -402z" />
    <glyph glyph-name="uni036F" unicode="&#x36f;" horiz-adv-x="0" 
d="M-894 1000l186 276l-178 268h175l91 -158l89 158h169l-179 -265l186 -279h-177l-94 164l-95 -164h-173z" />
    <glyph glyph-name="numeralsigngreek" unicode="&#x374;" horiz-adv-x="682" 
d="M685 1472l-304 -598h-206l192 598h318z" />
    <glyph glyph-name="numeralsignlowergreek" unicode="&#x375;" horiz-adv-x="682" 
d="M175 -526l304 598h206l-192 -598h-318z" />
    <glyph glyph-name="ypogegrammeni" unicode="&#x37a;" horiz-adv-x="285" 
d="M69 -104h143v-538h-143v538z" />
    <glyph glyph-name="uni037B" unicode="&#x37b;" horiz-adv-x="1139" 
d="M558 201q220 0 220 337t-225 337q-101 1 -141 -57t-49 -119h-292q24 233 154.5 325t335.5 92q241 0 378 -156t137 -421t-124 -421t-387 -156t-397 187q-84 116 -94 246h291q9 -86 51 -140t142 -54z" />
    <glyph glyph-name="uni037C" unicode="&#x37c;" horiz-adv-x="1139" 
d="M486 674h213v-250h-213v250zM594 875q-225 0 -225 -337t220 -337q100 0 142 54t51 140h291q-10 -130 -94 -246q-134 -187 -397 -187t-387 156t-124 421t137 421t378 156q205 0 335.5 -92t154.5 -325h-292q-8 61 -48 119t-142 57z" />
    </font>
</defs>
</svg>
