<?xml version="1.0" standalone="no"?>
<!DOCTYPE svg PUBLIC "-//W3C//DTD SVG 1.1//EN" "http://www.w3.org/Graphics/SVG/1.1/DTD/svg11.dtd" >
<svg xmlns="http://www.w3.org/2000/svg">
<metadata>
Created by FontPrep 20130207 at Tue Jun  7 13:16:56 2016
 By Raymund Tuquero
Copyright (c) 1981, 1982, 1983, 1989 and 1993, Linotype Library GmbH or its affiliated Linotype-Hell companies. All rights reserved.

The digitally encoded machine readable software for producing the Typefaces licensed to you is now the property of Heidelberger Druckmaschinen AG and its licensors, and may not be reproduced, used, displayed, modified, disclosed or transferred without the express written approval of Heidelberger Druckmaschinen AG.

Copyright (c) 1988, 1990, 1993 Adobe Systems Incorporated. All Rights Reserved.
</metadata>
<defs>
<font id="7384ecabcada72f0e077cd45d8e1c705" horiz-adv-x='1024' >
  <font-face 
    font-family="HelveticaNeue-Light"
    font-weight="300"
    font-stretch="normal"
    units-per-em="2048"
    panose-1="2 0 4 3 0 0 0 2 0 4"
    ascent="1638"
    descent="-410"
    x-height="1057"
    cap-height="1462"
    bbox="-881 -625 4069 2382"
    underline-thickness="102"
    underline-position="-153"
    unicode-range="U+0008-FE48"
  />
<missing-glyph horiz-adv-x="1024" 
d="M102 1049h820v-1049h-820v1049zM905 16v1016h-786v-1016h786z" />
    <glyph glyph-name="fi" unicode="fi" horiz-adv-x="909" 
d="M655 1057h129v-1057h-129v1057zM446 1354q-79 0 -101.5 -48t-22.5 -157v-92h208v-109h-208v-948h-129v948h-181v109h181v96q0 153 54 231t202 78q46 0 108 -8v-111q-75 11 -111 11zM655 1462h129v-207h-129v207z" />
    <glyph glyph-name="fl" unicode="fl" horiz-adv-x="909" 
d="M446 1354q-79 0 -101.5 -48t-22.5 -157v-92h208v-109h-208v-948h-129v948h-181v109h181v96q0 153 54 231t202 78q46 0 108 -8v-111q-75 11 -111 11zM655 1462h129v-1462h-129v1462z" />
    <glyph glyph-name=".notdef" horiz-adv-x="1024" 
d="M102 1049h820v-1049h-820v1049zM905 16v1016h-786v-1016h786z" />
    <glyph glyph-name=".null" horiz-adv-x="0" 
 />
    <glyph glyph-name="nonmarkingreturn" horiz-adv-x="681" 
 />
    <glyph glyph-name="controlBS" horiz-adv-x="0" 
 />
    <glyph glyph-name="controlHT" unicode="&#x9;" horiz-adv-x="569" 
 />
    <glyph glyph-name="controlCR" unicode="&#xd;" horiz-adv-x="569" 
 />
    <glyph glyph-name="controlGS" horiz-adv-x="0" 
 />
    <glyph glyph-name="space" unicode=" " horiz-adv-x="569" 
 />
    <glyph glyph-name="exclam" unicode="!" horiz-adv-x="493" 
d="M178 1462h139v-436l-30 -661h-78l-31 661v436zM162 0v217h172v-217h-172z" />
    <glyph glyph-name="quotedbl" unicode="&#x22;" horiz-adv-x="757" 
d="M178 1462h129v-497h-129v497zM451 1462h129v-497h-129v497z" />
    <glyph glyph-name="numbersign" unicode="#" 
d="M1018 457h-227l-64 -457h-102l63 457h-289l-63 -457h-103l64 457h-225v92h237l45 319h-225v93h238l63 454h102l-63 -454h289l63 454h103l-64 -454h215v-93h-227l-45 -319h215v-92zM457 868l-45 -319h288l45 319h-288z" />
    <glyph glyph-name="dollar" unicode="$" 
d="M606 78q230 0 287 109.5t57 186.5q0 135 -94.5 195t-249.5 99v-590zM526 1384q-211 0 -256 -112.5t-45 -188.5q0 -130 74.5 -181.5t226.5 -88.5v571zM96 1086q0 185 123 296t307 111v160h80v-160q183 0 310.5 -123.5t123.5 -320.5h-129q-2 154 -86 244.5t-219 90.5v-589
q220 -45 346.5 -134.5t126.5 -281.5t-140.5 -300t-332.5 -108v-174h-80v176q-240 23 -349 141.5t-118 352.5h129q4 -352 338 -389v606q-210 44 -320 130.5t-110 271.5z" />
    <glyph glyph-name="percent" unicode="%" horiz-adv-x="1820" 
d="M466 1354q-64 0 -106.5 -28t-67 -72t-33.5 -96t-9 -136.5t49 -171t166 -86.5t168 87.5t51 205.5t-35 179.5t-77 89.5t-106 28zM1317 1485h96l-926 -1553h-98zM1366 743q86 0 148.5 -29.5t101.5 -81.5t57.5 -123t18.5 -153t-18.5 -152.5t-57.5 -122.5t-101.5 -81
t-148.5 -29t-148.5 29t-101.5 81t-57.5 122.5t-18.5 152.5t18.5 153t57.5 123t101.5 81.5t148.5 29.5zM1364 651q-64 0 -105.5 -27.5t-66.5 -71.5t-34 -96.5t-9 -137t50.5 -171t165.5 -86.5t166.5 88t51.5 244.5t-77.5 207t-141.5 50.5zM467 1446q86 0 148.5 -30t101.5 -82
t57.5 -122.5t18.5 -152.5t-18.5 -152.5t-57.5 -123t-101.5 -82t-148.5 -29.5t-148.5 29.5t-101.5 82t-57.5 123t-18.5 152.5t18.5 152.5t57.5 122.5t101.5 82t148.5 30z" />
    <glyph glyph-name="ampersand" unicode="&#x26;" horiz-adv-x="1251" 
d="M302.5 161q93.5 -83 214.5 -83q210 0 355 209l-364 442q-139 -76 -219 -159.5t-80 -204.5t93.5 -204zM540 -29q-210 0 -335 106.5t-125 304.5q0 197 148.5 297.5t209.5 133.5q-92 116 -136 190t-44 152t25.5 132t69.5 93t102.5 60.5t126 21.5t126 -21.5t102.5 -60.5
t69.5 -93t25.5 -149.5t-76.5 -182t-210.5 -169.5l320 -385q27 53 35 107.5t8 138.5h129q0 -61 -17.5 -158.5t-68.5 -191.5l246 -297h-162l-156 190q-80 -100 -190 -159.5t-222 -59.5zM582 1354q-80 0 -137.5 -48.5t-57.5 -146.5t164 -289q107 68 166 133.5t59 159.5
t-57 142.5t-137 48.5z" />
    <glyph glyph-name="quotesingle" unicode="'" horiz-adv-x="569" 
d="M221 1462h129v-497h-129v497z" />
    <glyph glyph-name="parenleft" unicode="(" horiz-adv-x="493" 
d="M233 498q0 -334 101.5 -563.5t161.5 -323.5h-103q-218 362 -253.5 580.5t-35.5 353.5q0 496 289 948h103q-263 -424 -263 -995z" />
    <glyph glyph-name="parenright" unicode=")" horiz-adv-x="493" 
d="M260 604q0 426 -260 889h100q218 -362 253.5 -582.5t35.5 -353.5q0 -498 -289 -946h-100q260 426 260 993z" />
    <glyph glyph-name="asterisk" unicode="*" horiz-adv-x="720" 
d="M319 1462h80v-252l236 84l31 -75l-242 -80l147 -201l-65 -47l-150 205l-149 -205l-66 47l150 201l-236 80l29 75l235 -84v252z" />
    <glyph glyph-name="plus" unicode="+" horiz-adv-x="1228" 
d="M561 1030h109v-461h460v-108h-460v-461h-109v461h-461v108h461v461z" />
    <glyph glyph-name="comma" unicode="," horiz-adv-x="569" 
d="M371 217v-217q0 -151 -67.5 -208.5t-113.5 -70.5v89q45 14 72 76.5t23 113.5h-86v217h172z" />
    <glyph glyph-name="hyphen" unicode="-" horiz-adv-x="757" 
d="M123 504v119h512v-119h-512z" />
    <glyph glyph-name="period" unicode="." horiz-adv-x="569" 
d="M199 0v217h172v-217h-172z" />
    <glyph glyph-name="slash" unicode="/" horiz-adv-x="681" 
d="M-25 -29l629 1522h105l-625 -1522h-109z" />
    <glyph glyph-name="zero" unicode="0" 
d="M569 1337q-123 0 -196.5 -63.5t-123.5 -187t-50 -377.5t50 -379t123.5 -188.5t196.5 -63.5t197 63.5t124 190t50 377.5q0 250 -50 375.5t-124 189t-197 63.5zM1069 709q1 -738 -499 -738t-500 736q0 312 73.5 457t171.5 213.5t255 68.5q283 0 391 -213.5t108 -523.5z" />
    <glyph glyph-name="one" unicode="1" 
d="M707 1434v-1434h-129v1065h-379v92q84 2 152.5 9.5t147 49t103.5 218.5h105z" />
    <glyph glyph-name="two" unicode="2" 
d="M1018 0h-944q4 193 110.5 314.5t238.5 208.5t207 139.5t134 112t89 121.5t30 140q0 143 -93 222t-229 79q-167 0 -247 -114t-76 -285h-129q-4 229 113.5 368.5t328.5 139.5t336 -104.5t125 -299.5q0 -231 -162.5 -362t-275.5 -198.5t-223 -155.5t-130 -207h797v-119z" />
    <glyph glyph-name="three" unicode="3" 
d="M922 397q0 146 -96.5 223.5t-247.5 77.5h-109v109h109q112 0 201 67t89 197t-86.5 198t-234.5 68t-235 -99t-83 -263h-129q0 206 124 338.5t318 132.5t324.5 -92t130.5 -273q0 -117 -62.5 -202.5t-178.5 -114.5v-4q141 -23 218 -117.5t77 -218.5q0 -221 -142 -337
t-360 -116t-358 130t-123 356h129q-8 -172 89.5 -275.5t261.5 -103.5q159 0 266.5 86.5t107.5 232.5z" />
    <glyph glyph-name="four" unicode="4" 
d="M842 1434v-969h215v-109h-215v-356h-119v356h-662v125l664 953h117zM723 465v780h-4l-541 -780h545z" />
    <glyph glyph-name="five" unicode="5" 
d="M258 817q112 133 316 133q98 0 187 -36.5t185 -138t96 -315.5q0 -215 -144.5 -352t-350.5 -137t-337.5 118.5t-135.5 320.5h129q4 -147 102.5 -239.5t254.5 -92.5t254.5 114.5t98.5 274.5t-103.5 267.5t-262.5 107.5q-98 0 -182 -44t-138 -126h-110l139 743h717v-119
h-627l-92 -475z" />
    <glyph glyph-name="six" unicode="6" 
d="M238 446q0 -257 132 -312.5t218 -55.5q157 0 254.5 107t97.5 266t-93 266.5t-254 107.5q-163 0 -259 -106.5t-96 -272.5zM557 1337q-174 0 -260 -192t-86 -449h4q51 106 154.5 172t219.5 66t203 -36t148 -99.5t95 -151.5t34 -245.5t-136.5 -294t-348.5 -136.5
q-265 0 -383.5 173t-118.5 587q0 228 102 471.5t410 243.5q397 0 440 -375h-129q-16 119 -95 192.5t-253 73.5z" />
    <glyph glyph-name="seven" unicode="7" 
d="M104 1415h922v-119q-347 -357 -457 -701.5t-123 -594.5h-139q24 367 161 665t429 631h-793v119z" />
    <glyph glyph-name="eight" unicode="8" 
d="M832 160.5q102 82.5 102 235.5q0 152 -106 236.5t-259 80.5q-245 7 -304.5 -113.5t-59.5 -199.5t28.5 -140t102.5 -121.5t234 -60.5t262 82.5zM1004 1074q0 -104 -61.5 -186.5t-172.5 -115.5v-4q141 -29 217 -124.5t76 -223.5q0 -228 -140.5 -338.5t-352.5 -110.5
t-353 110.5t-141 319.5q4 141 79.5 241.5t211.5 125.5v4q-113 35 -173.5 116t-60.5 186t38 173t99.5 112t139 65.5t157.5 21.5t158 -21.5t140.5 -65.5t100.5 -112.5t38 -172.5zM788.5 1272q-85.5 65 -215.5 65t-220.5 -65.5t-90.5 -191.5q0 -127 90.5 -195t216.5 -64
q127 -4 216 64.5t89 195.5q0 126 -85.5 191z" />
    <glyph glyph-name="nine" unicode="9" 
d="M901 969q0 257 -132 312.5t-217 55.5q-158 0 -255.5 -106t-97.5 -265t92.5 -267.5t254.5 -108.5q163 0 259 107.5t96 271.5zM534 78q223 0 308.5 192t85.5 449h-4q-51 -106 -154.5 -172t-217.5 -66t-203 36t-150.5 99.5t-95 151.5t-33.5 246t137 295t348 137
q265 0 383.5 -175.5t118.5 -586.5q0 -228 -77 -411.5t-197.5 -242.5t-237.5 -59q-396 0 -441 373h129q16 -119 95.5 -192.5t205.5 -73.5z" />
    <glyph glyph-name="colon" unicode=":" horiz-adv-x="569" 
d="M199 807v217h172v-217h-172zM199 0v217h172v-217h-172z" />
    <glyph glyph-name="semicolon" unicode=";" horiz-adv-x="569" 
d="M371 217v-217q0 -151 -67.5 -208.5t-113.5 -70.5v89q45 14 72 76.5t23 113.5h-86v217h172zM199 807v217h172v-217h-172z" />
    <glyph glyph-name="less" unicode="&#x3c;" horiz-adv-x="1228" 
d="M1135 -14l-1041 477v110l1041 480v-113l-914 -422l914 -422v-110z" />
    <glyph glyph-name="equal" unicode="=" horiz-adv-x="1228" 
d="M1130 666h-1030v108h1030v-108zM1130 262h-1030v109h1030v-109z" />
    <glyph glyph-name="greater" unicode="&#x3e;" horiz-adv-x="1228" 
d="M1008 518l-914 422v113l1041 -480v-110l-1041 -477v110z" />
    <glyph glyph-name="question" unicode="?" horiz-adv-x="1099" 
d="M111 1012q0 337 177 409t275 72q189 0 308.5 -103t119.5 -276q0 -115 -50.5 -194.5t-120.5 -147.5t-108 -104.5t-56.5 -71.5t-24.5 -85t-8 -144h-129q-4 173 36.5 248t87 122t107.5 103q137 127 137 259q0 131 -86.5 208t-206.5 77q-163 0 -248 -105t-81 -267h-129z
M473 217h172v-217h-172v217z" />
    <glyph glyph-name="at" unicode="@" horiz-adv-x="1638" 
d="M872 1044q-144 0 -246 -154.5t-102 -318.5q0 -92 49 -145t121 -53t133.5 50t107.5 122.5t72.5 156.5t26.5 136q0 86 -50 146t-112 60zM881 1153q152 0 217 -172l51 133h108l-196 -590q-52 -170 26 -170q68 0 131.5 47.5t139.5 166.5t76 294q0 248 -169 393.5t-413 145.5
q-280 0 -463.5 -194t-183.5 -480q0 -285 136 -424t255.5 -190.5t227.5 -51.5q178 0 324.5 73t235.5 200h105q-94 -167 -265 -265t-352 -98q-182 0 -321 58.5t-240.5 162t-158 243.5t-56.5 301t58.5 299.5t161 239.5t239.5 159.5t289 58.5q304 0 501 -179t197 -458
q0 -239 -109.5 -370.5t-194 -177.5t-154.5 -46q-141 0 -154 137h-4q-129 -135 -257 -135q-127 0 -200.5 86t-73.5 202q0 115 35 221t98.5 191t153.5 137t199 52z" />
    <glyph glyph-name="A" unicode="A" horiz-adv-x="1290" 
d="M575 1462h156l574 -1462h-150l-178 455h-666l-176 -455h-147zM354 573h576l-283 750z" />
    <glyph glyph-name="B" unicode="B" horiz-adv-x="1366" 
d="M766 119q385 0 385 301q0 141 -99.5 211.5t-285.5 70.5h-479v-583h479zM147 1462h619q323 0 396 -128t73 -208q0 -141 -72 -234t-182 -116v-4q141 -18 225 -115t84 -245q0 -309 -202.5 -360.5t-321.5 -51.5h-619v1462zM287 821h479q160 0 245 70.5t85 177.5
q0 274 -330 274h-479v-522z" />
    <glyph glyph-name="C" unicode="C" horiz-adv-x="1441" 
d="M768 1374q-274 0 -412.5 -190.5t-138.5 -452.5t139 -452.5t412 -190.5q197 0 323 134.5t146 334.5h139q-28 -270 -190 -428t-418 -158q-172 0 -302 62.5t-216 167t-129 242t-43 373.5t180 456.5t510 220.5q221 0 390 -126t198 -347h-139q-36 167 -161.5 260.5
t-287.5 93.5z" />
    <glyph glyph-name="D" unicode="D" horiz-adv-x="1402" 
d="M287 119h297q318 0 460 142.5t142 469.5t-142 469.5t-460 142.5h-297v-1224zM147 1462h506q334 -8 503 -187t169 -543.5t-169 -544t-503 -187.5h-506v1462z" />
    <glyph glyph-name="E" unicode="E" horiz-adv-x="1214" 
d="M147 1462h1010v-119h-870v-528h815v-119h-815v-577h880v-119h-1020v1462z" />
    <glyph glyph-name="F" unicode="F" horiz-adv-x="1099" 
d="M147 1462h928v-119h-788v-528h700v-119h-700v-696h-140v1462z" />
    <glyph glyph-name="G" unicode="G" horiz-adv-x="1517" 
d="M1397 0h-101l-18 266h-4q-70 -148 -203.5 -221.5t-304.5 -73.5q-170 0 -300 62.5t-216 167t-129 242t-43 373.5t180 456.5t510 220.5q366 0 478 -182.5t132 -302.5h-139q-13 134 -144 250t-327 116q-274 0 -412.5 -190.5t-138.5 -452.5t139 -452.5t412 -190.5
q238 0 374 148.5t132 388.5h-498v118h621v-743z" />
    <glyph glyph-name="H" unicode="H" horiz-adv-x="1441" 
d="M147 1462h140v-635h868v635h139v-1462h-139v709h-868v-709h-140v1462z" />
    <glyph glyph-name="I" unicode="I" horiz-adv-x="454" 
d="M158 1462h139v-1462h-139v1462z" />
    <glyph glyph-name="J" unicode="J" horiz-adv-x="1024" 
d="M737 1462h140v-1054q0 -228 -98.5 -332.5t-328.5 -104.5t-318.5 136.5t-88.5 361.5h139q2 -47 6.5 -112.5t46.5 -167t228 -101.5q159 0 216.5 85.5t57.5 293.5v995z" />
    <glyph glyph-name="K" unicode="K" horiz-adv-x="1327" 
d="M147 1462h140v-786l850 786h188l-653 -604l684 -858h-180l-609 762l-280 -260v-502h-140v1462z" />
    <glyph glyph-name="L" unicode="L" horiz-adv-x="1099" 
d="M147 1462h140v-1343h819v-119h-959v1462z" />
    <glyph glyph-name="M" unicode="M" horiz-adv-x="1681" 
d="M1542 1462v-1462h-139v1264h-4l-500 -1264h-131l-481 1264h-4v-1264h-140v1462h205l486 -1282l503 1282h205z" />
    <glyph glyph-name="N" unicode="N" horiz-adv-x="1441" 
d="M145 1462h156l852 -1237h4v1237h139v-1462h-155l-852 1237h-4v-1237h-140v1462z" />
    <glyph glyph-name="O" unicode="O" horiz-adv-x="1517" 
d="M70 731.5q0 151.5 43 288.5t129 242.5t216 168t302 62.5t301 -62.5t215 -168t129 -242.5t43 -288.5t-43 -289t-129 -242t-215 -167t-301 -62.5t-302 62.5t-216 167t-129 242t-43 289zM348.5 277.5q139.5 -189.5 411 -189.5t410.5 190.5t139 452.5t-138.5 452.5
t-411 190.5t-411.5 -189.5t-139 -453.5t139.5 -453.5z" />
    <glyph glyph-name="P" unicode="P" horiz-adv-x="1290" 
d="M147 1462h650q200 0 317 -111.5t117 -306t-117 -306t-317 -111.5h-510v-627h-140v1462zM287 745h479q145 0 235.5 74t90.5 225.5t-90.5 225t-235.5 73.5h-479v-598z" />
    <glyph glyph-name="Q" unicode="Q" horiz-adv-x="1517" 
d="M1309 721q0 131 -32 245.5t-98.5 206t-170 146.5t-312.5 55t-348 -189.5t-139 -453.5t139.5 -453.5t411.5 -189.5q156 0 270 72l-192 145l71 88l213 -162q98 92 142.5 225.5t44.5 264.5zM70 731.5q0 151.5 43 288.5t129 242.5t216 168t380 62.5t430 -220.5t180 -541.5
q0 -172 -55.5 -322.5t-165.5 -256.5l209 -158l-70 -86l-227 170q-150 -106 -379 -107q-172 0 -302 62.5t-216 167t-129 242t-43 289z" />
    <glyph glyph-name="R" unicode="R" horiz-adv-x="1366" 
d="M147 1462h670q193 0 319 -96t126 -285q0 -139 -72 -241.5t-213 -130.5v-4q195 -27 225 -151.5t33.5 -223.5t13.5 -189.5t51 -140.5h-153q-23 38 -28 90.5t-7 83.5t-5 81q-11 181 -64.5 291t-227.5 103h-528v-649h-140v1462zM287 768h520q133 0 224 78.5t91 209.5
q0 132 -77.5 209.5t-237.5 77.5h-520v-575z" />
    <glyph glyph-name="S" unicode="S" horiz-adv-x="1290" 
d="M953.5 164.5q123.5 76.5 123.5 229.5q0 185 -301 255l-325 80q-156 40 -243 119t-87 231t115.5 283t388.5 131q232 0 386 -120.5t154 -334.5h-139q-8 159 -121.5 247.5t-277.5 88.5q-250 0 -308.5 -105t-58.5 -171q0 -112 60 -163.5t161 -74.5l357 -88q273 -70 326 -182
t53 -170t-5.5 -98.5t-25 -87t-55 -93.5t-98 -85t-155 -61.5t-294 -23.5t-361.5 127t-149 383h139q-4 -211 126.5 -302t328.5 -91q162 0 285.5 76.5z" />
    <glyph glyph-name="T" unicode="T" 
d="M-8 1462h1157v-119h-510v-1343h-139v1343h-508v119z" />
    <glyph glyph-name="U" unicode="U" horiz-adv-x="1402" 
d="M133 1462h139v-905q0 -364 164 -416.5t265 -52.5q212 0 320.5 111.5t108.5 357.5v905h140v-936q0 -244 -140 -399.5t-428 -155.5t-428.5 155.5t-140.5 399.5v936z" />
    <glyph glyph-name="V" unicode="V" horiz-adv-x="1214" 
d="M-12 1462h147l475 -1308h4l471 1308h148l-543 -1462h-162z" />
    <glyph glyph-name="W" unicode="W" horiz-adv-x="1857" 
d="M0 1462h150l331 -1280h4l357 1280h174l358 -1280h4l334 1280h139l-403 -1462h-148l-370 1309h-4l-369 -1309h-151z" />
    <glyph glyph-name="X" unicode="X" horiz-adv-x="1175" 
d="M6 1462h164l414 -612l428 612h155l-499 -712l528 -750h-168l-444 645l-451 -645h-156l525 754z" />
    <glyph glyph-name="Y" unicode="Y" horiz-adv-x="1251" 
d="M694 0h-139v602l-573 860h163l482 -741l479 741h166l-578 -860v-602z" />
    <glyph glyph-name="Z" unicode="Z" horiz-adv-x="1175" 
d="M76 1462h1052v-123l-962 -1220h983v-119h-1139v123l963 1220h-897v119z" />
    <glyph glyph-name="bracketleft" unicode="[" horiz-adv-x="493" 
d="M156 -389v1882h329v-109h-200v-1665h200v-108h-329z" />
    <glyph glyph-name="backslash" unicode="\" horiz-adv-x="681" 
d="M598 -29l-623 1522h103l631 -1522h-111z" />
    <glyph glyph-name="bracketright" unicode="]" horiz-adv-x="493" 
d="M338 1493v-1882h-330v108h201v1665h-201v109h330z" />
    <glyph glyph-name="asciicircum" unicode="^" horiz-adv-x="1228" 
d="M90 487l471 928h107l471 -928h-117l-410 799l-403 -799h-119z" />
    <glyph glyph-name="underscore" unicode="_" horiz-adv-x="1024" 
d="M0 -254v102h1024v-102h-1024z" />
    <glyph glyph-name="grave" unicode="`" horiz-adv-x="378" 
d="M-61 1493h157l215 -289h-104z" />
    <glyph glyph-name="a" unicode="a" horiz-adv-x="1062" 
d="M799 578h-4q-16 -31 -104 -46q-87 -16 -174 -27t-158.5 -33.5t-117.5 -64t-46 -105.5q0 -107 68.5 -165.5t154.5 -58.5q169 0 275 91.5t106 240.5v168zM111 733q23 354 420 354t397 -339v-562q0 -78 76 -77q23 0 40 8v-109q-46 -8 -89 -8q-85 0 -115.5 45.5t-30.5 138.5
h-4q-78 -113 -160.5 -163t-224.5 -50q-247 0 -300.5 113.5t-53.5 209.5t49 158t130 95t182 46t174 21t135.5 21.5t62.5 120.5q0 127 -73 175t-200 48t-204.5 -58.5t-81.5 -187.5h-129z" />
    <glyph glyph-name="b" unicode="b" horiz-adv-x="1175" 
d="M881 846q-88 133 -267 133t-270.5 -131.5t-91.5 -374.5t134 -319t232 -76t163 40t126.5 133t61.5 277.5t-88 317.5zM123 1462h129v-606h4q38 108 139.5 169.5t225.5 61.5q123 0 212 -45t148 -121.5t88 -178t29 -277.5t-121.5 -335t-353.5 -159q-129 0 -230.5 59.5
t-146.5 170.5h-4v-201h-119v1462z" />
    <glyph glyph-name="c" unicode="c" horiz-adv-x="1062" 
d="M569 979q-174 0 -272 -135t-98 -315.5t98 -315.5t272 -135q120 0 207 85t101 216h129q-27 -193 -141.5 -300.5t-295.5 -107.5q-233 0 -366 159t-133 399t134 399t365 159q170 0 288 -90t140 -272h-129q-58 254 -299 254z" />
    <glyph glyph-name="d" unicode="d" horiz-adv-x="1175" 
d="M295 211q88 -133 267 -133t270.5 131.5t91.5 374.5t-134.5 319t-231.5 76t-162.5 -40t-127 -133t-61.5 -277.5t88 -317.5zM1053 0h-119v201h-4q-40 -103 -150 -166.5t-229 -63.5t-208 44t-148.5 121t-88 178.5t-28.5 279t123 335.5t352 158q192 0 269 -87t98 -144h4v606
h129v-1462z" />
    <glyph glyph-name="e" unicode="e" horiz-adv-x="1062" 
d="M199 494q0 -264 128 -340t220 -76q141 0 221 73.5t111 196.5h129q-41 -180 -150.5 -278.5t-310.5 -98.5q-241 0 -359 158t-118 394t120 400t357 164t355.5 -173.5t109.5 -419.5h-813zM546 979q-149 0 -239 -109t-108 -268h684q-4 155 -96 266t-241 111z" />
    <glyph glyph-name="f" unicode="f" horiz-adv-x="530" 
d="M446 1354q-79 0 -101.5 -48t-22.5 -157v-92h208v-109h-208v-948h-129v948h-181v109h181v96q0 153 54 231t202 78q46 0 108 -8v-111q-75 11 -111 11z" />
    <glyph glyph-name="g" unicode="g" 
d="M544 121q161 0 252 123t91 298t-84.5 306t-255 131t-259.5 -127.5t-89 -310.5q0 -278 129 -349t216 -71zM1016 86q0 -372 -170 -439t-274 -67q-200 0 -326 82t-137 238h129q27 -162 141.5 -186.5t167.5 -24.5q180 0 260 102.5t80 294.5v143h-4q-45 -98 -132 -157.5
t-209 -59.5q-236 0 -354 149.5t-118 385.5q0 235 126.5 387.5t350.5 152.5q170 0 243.5 -84.5t92.5 -128.5h4v183h129v-971z" />
    <glyph glyph-name="h" unicode="h" horiz-adv-x="1099" 
d="M121 1462h129v-588h4q37 96 131 154.5t206 58.5q212 0 300 -102t88 -305v-680h-129v659q0 231 -95.5 275.5t-209.5 44.5t-202.5 -102t-92.5 -261v-616h-129v1462z" />
    <glyph glyph-name="i" unicode="i" horiz-adv-x="378" 
d="M125 1057h129v-1057h-129v1057zM125 1462h129v-207h-129v207z" />
    <glyph glyph-name="j" unicode="j" horiz-adv-x="378" 
d="M125 -127v1184h129v-1153q0 -138 -50.5 -215.5t-174.5 -77.5l-88 4v106q43 -5 67 -2q76 0 96.5 44t20.5 110zM125 1462h129v-207h-129v207z" />
    <glyph glyph-name="k" unicode="k" horiz-adv-x="1024" 
d="M123 1462h129v-917l586 512h172l-451 -391l481 -666h-161l-418 575l-209 -174v-401h-129v1462z" />
    <glyph glyph-name="l" unicode="l" horiz-adv-x="378" 
d="M125 1462h129v-1462h-129v1462z" />
    <glyph glyph-name="m" unicode="m" horiz-adv-x="1705" 
d="M788 717q0 262 -221 262q-159 0 -237 -107.5t-78 -281.5v-590h-129v1057h119v-178h6q108 208 346 208q104 0 189 -51t114 -155q47 104 139 155t197 51q350 0 350 -370v-717h-129v711q0 131 -55.5 199.5t-202.5 68.5t-212.5 -106t-65.5 -275v-598h-130v717z" />
    <glyph glyph-name="n" unicode="n" horiz-adv-x="1099" 
d="M121 1057h129v-183h4q37 96 131 154.5t206 58.5q212 0 300 -102t88 -305v-680h-129v659q0 231 -95.5 275.5t-209.5 44.5t-202.5 -102t-92.5 -261v-616h-129v1057z" />
    <glyph glyph-name="o" unicode="o" 
d="M569.5 1087q120.5 0 214 -45t157 -120.5t96 -177t32.5 -216t-32.5 -216t-96 -177.5t-157 -120t-214 -44t-214 44t-157 120t-96 177.5t-32.5 216t32.5 216t96 177t157 120.5t214 45zM569.5 979q-92.5 0 -162 -39t-115.5 -102.5t-69.5 -144.5t-23.5 -165t23.5 -164.5
t69.5 -144t115.5 -102.5t162 -39t162 39t115.5 102.5t69.5 144t23.5 164.5t-23.5 165t-69.5 144.5t-115.5 102.5t-162 39z" />
    <glyph glyph-name="p" unicode="p" horiz-adv-x="1175" 
d="M881 846q-88 133 -272 133t-270.5 -123.5t-86.5 -327.5q0 -298 134 -374t232 -76t163 40t126.5 133t61.5 277.5t-88 317.5zM123 1057h119v-201h4q45 111 146.5 171t226.5 60t214 -45t148 -121.5t88 -178t29 -277.5t-121.5 -335t-353.5 -159q-195 0 -271 86t-96 144h-4
v-590h-129v1446z" />
    <glyph glyph-name="q" unicode="q" horiz-adv-x="1175" 
d="M295 211q88 -133 267 -133t270.5 131.5t91.5 374.5t-134.5 319t-231.5 76t-162.5 -40t-127 -133t-61.5 -277.5t88 -317.5zM1053 -389h-129v590h-4q-39 -110 -142 -170t-224 -60q-122 0 -211 44t-148.5 121t-88 178.5t-28.5 279t123 335.5t352 158q186 0 271 -89t106 -142
h4v201h119v-1446z" />
    <glyph glyph-name="r" unicode="r" horiz-adv-x="645" 
d="M123 1057h119v-248h4q49 129 152.5 198.5t246.5 63.5v-129q-171 8 -282 -101t-111 -278v-563h-129v1057z" />
    <glyph glyph-name="s" unicode="s" horiz-adv-x="985" 
d="M304 935.5q-75 -43.5 -75 -144.5t93.5 -132.5t126.5 -40.5l172 -38q121 -18 211 -91.5t90 -201.5q0 -158 -126 -237t-305 -79t-295 88t-133 283h130q8 -131 95 -197.5t207 -66.5t181 34.5t89 72t28 89.5q0 89 -64 131t-168 66l-166 37q-141 36 -195.5 79.5t-77 89.5
t-22.5 120q0 144 120 217t278 73q259 0 321 -126.5t66 -212.5h-129q-4 115 -81.5 173t-186.5 58t-184 -43.5z" />
    <glyph glyph-name="t" unicode="t" horiz-adv-x="606" 
d="M199 948h-185v109h185v317h129v-317h215v-109h-215v-712q0 -63 17 -99.5t79 -38.5t119 4v-108l-115 -4q-129 0 -180 50t-49 185v723z" />
    <glyph glyph-name="u" unicode="u" horiz-adv-x="1099" 
d="M492 -29q-371 0 -371 400v686h129v-688q4 -143 66.5 -217t216.5 -74t235.5 123t81.5 301v555h129v-1057h-119v190h-4q-51 -106 -148.5 -162.5t-215.5 -56.5z" />
    <glyph glyph-name="v" unicode="v" horiz-adv-x="948" 
d="M4 1057h143l332 -928h4l328 928h133l-395 -1057h-137z" />
    <glyph glyph-name="w" unicode="w" horiz-adv-x="1517" 
d="M16 1057h138l270 -905h4l258 905h145l259 -905h4l270 905h137l-340 -1057h-141l-260 889h-4l-258 -889h-142z" />
    <glyph glyph-name="x" unicode="x" horiz-adv-x="985" 
d="M412 549l-379 508h162l301 -402l295 402h161l-381 -506l412 -551h-164l-332 444l-325 -444h-160z" />
    <glyph glyph-name="y" unicode="y" horiz-adv-x="948" 
d="M306 -244.5q35 36.5 75 129.5l45 119l-422 1053h137l348 -901l326 901h129l-459 -1217q-60 -140 -98.5 -173.5t-78.5 -44.5t-112 -9t-87 8v109q63 -11 113 -11q49 0 84 36.5z" />
    <glyph glyph-name="z" unicode="z" horiz-adv-x="948" 
d="M913 109v-109h-882v104l690 844h-643v109h807v-92l-699 -856h727z" />
    <glyph glyph-name="braceleft" unicode="{" horiz-adv-x="681" 
d="M170 604q147 0 147 328v305q0 117 47.5 186.5t133.5 69.5h102v-109h-41q-84 0 -98.5 -85t-14.5 -125v-289q0 -147 -49.5 -226t-93.5 -106v-4q84 -51 113.5 -149.5t29.5 -182.5v-287q0 -144 41 -177.5t72 -33.5h41v-108h-102q-86 0 -133.5 69.5t-47.5 186.5v301
q0 328 -147 328v108z" />
    <glyph glyph-name="bar" unicode="|" horiz-adv-x="454" 
d="M174 1610h109v-2046h-109v2046z" />
    <glyph glyph-name="braceright" unicode="}" horiz-adv-x="681" 
d="M512 498q-147 0 -147 -328v-303q0 -117 -47.5 -186.5t-133.5 -69.5h-102v108h41q84 0 98.5 85t14.5 126v287q0 147 49.5 226t93.5 106v4q-84 51 -113.5 149.5t-29.5 182.5v289q0 145 -41 177.5t-72 32.5h-41v109h102q86 0 133.5 -69.5t47.5 -186.5v-303q0 -328 147 -328
v-108z" />
    <glyph glyph-name="asciitilde" unicode="~" horiz-adv-x="1228" 
d="M397 637q83 -1 189 -47t157.5 -66t101.5 -20t92 44t77 97l73 -74q-62 -89 -117 -132.5t-128 -43.5q-72 0 -127.5 20.5t-108.5 46.5q-135 66 -211 66t-115.5 -44t-64.5 -97l-74 74q85 176 256 176z" />
    <glyph glyph-name="uni007F.controlDEL" horiz-adv-x="0" 
 />
    <glyph glyph-name="nonbreakingspace" unicode="&#xa0;" horiz-adv-x="569" 
 />
    <glyph glyph-name="exclamdown" unicode="&#xa1;" horiz-adv-x="493" 
d="M317 -389h-139v420l31 661h78l30 -661v-420zM334 1057v-217h-172v217h172z" />
    <glyph glyph-name="cent" unicode="&#xa2;" 
d="M321.5 232q81.5 -130 231.5 -152v895q-151 -23 -232 -152t-81 -295t81.5 -296zM633 -236h-80v209q-206 19 -324 175t-118 379.5t117.5 380t324.5 175.5v183h80v-179q164 -4 275 -98.5t130 -263.5h-129q-53 246 -276 254v-901q108 4 189.5 89.5t95.5 211.5h129
q-25 -186 -135.5 -294t-278.5 -114v-207z" />
    <glyph glyph-name="sterling" unicode="&#xa3;" 
d="M397 676q49 -79 49 -206q0 -101 -65.5 -197.5t-159.5 -168.5l4 -4q121 62 212 62t165 -28t115 -42t99 -14t121.5 33.5t106.5 81.5l66 -99q-142 -123 -287 -123q-111 0 -227.5 41t-182.5 41q-65 0 -93.5 -6t-53 -16.5t-104.5 -59.5l-74 109q105 86 167 175.5t62 205.5
q0 47 -16 110.5t-41 104.5h-166v65h129q-112 181 -112 311t78 285.5t406 155.5q212 0 337 -128t121 -357h-129q0 166 -87 271t-244 105t-255 -83.5t-98 -237.5q0 -84 29.5 -144.5t51 -96.5t39.5 -81h328v-65h-291z" />
    <glyph glyph-name="currency" unicode="&#xa4;" 
d="M63 712q0 177 111 312l-115 115l78 78l115 -115q137 115 314.5 115t318.5 -113l112 113l78 -78l-110 -111q114 -142 114 -319.5t-114 -319.5l110 -110l-78 -78l-112 112q-133 -112 -313 -112t-320 114l-115 -114l-78 78l117 116q-113 140 -113 317zM303 430.5
q110 -111.5 268 -111.5t268.5 111.5t110.5 277.5t-110.5 278t-268.5 112t-268 -112t-110 -278t110 -277.5z" />
    <glyph glyph-name="yen" unicode="&#xa5;" 
d="M225 715h217l-430 747h148l407 -747l412 747h141l-432 -747h223v-92h-268l-12 -21v-149h280v-93h-280v-360h-129v360h-277v93h277v149l-13 21h-264v92z" />
    <glyph glyph-name="brokenbar" unicode="&#xa6;" horiz-adv-x="454" 
d="M174 330h109v-510h-109v510zM174 1354h109v-512h-109v512z" />
    <glyph glyph-name="section" unicode="&#xa7;" 
d="M918 471q0 80 -58.5 143.5t-141.5 115.5t-173 96t-156 89q-168 -70 -168 -221q0 -78 57.5 -140t139.5 -114.5t172 -98.5t155 -91q173 72 173 221zM1047 473q0 -192 -224 -287q103 -90 103 -223t-105 -212t-260 -79t-257.5 93.5t-102.5 267.5h129q-4 -108 64.5 -180
t172.5 -72q154 0 192 66.5t38 128.5t-52.5 118t-130 104t-170 93t-170 100t-130 127t-52.5 170t61 172t162 117q-102 90 -102 224t105 213t260 79t257.5 -92t102.5 -271h-129q4 109 -64.5 181.5t-173.5 72.5q-153 0 -191 -66t-38 -130t52 -119t130 -103t170 -93.5
t170 -100.5t130.5 -127t52.5 -172z" />
    <glyph glyph-name="dieresis" unicode="&#xa8;" horiz-adv-x="378" 
d="M301 1239v207h139v-207h-139zM-59 1239v207h137v-207h-137z" />
    <glyph glyph-name="copyright" unicode="&#xa9;" horiz-adv-x="1638" 
d="M1581 730q0 -161 -58.5 -299t-160.5 -240.5t-241.5 -161t-301.5 -58.5t-301 58.5t-300 219.5t-161 482q0 160 58.5 299t161 242.5t241.5 162t301 58.5t301.5 -58.5t241.5 -162t160.5 -242.5t58.5 -300zM1462 731q0 137 -49 256t-135 207t-204 139t-256 51t-256 -51
t-204 -139t-134 -207t-48 -326t184 -395t459 -188q137 0 255 51t204 139t135 207t49 256zM591 459.5q89 -105.5 249 -105.5q113 0 183.5 62.5t88.5 154.5h105q-20 -148 -126.5 -228.5t-231.5 -80.5q-230 0 -348 133.5t-118 336.5q0 202 118 335t327 133q146 0 251.5 -80
t127.5 -229h-105q-18 92 -89 153.5t-168 62.5t-160.5 -27.5t-128 -106t-64.5 -243t89 -271z" />
    <glyph glyph-name="ordfeminine" unicode="&#xaa;" horiz-adv-x="636" 
d="M467 1124h-4q-6 -14 -29.5 -19t-62.5 -12t-95.5 -14.5t-123 -29t-66.5 -95.5q0 -49 44 -84.5t94 -35.5q104 0 173.5 53.5t69.5 140.5v96zM301 1446q119 0 169 -31t71.5 -70.5t21.5 -103.5v-352q4 -47 51 -47q14 0 27 6v-70q-30 -6 -55 -6q-63 0 -81 29.5t-18 85.5h-4
q-84 -133 -252 -133q-104 0 -171.5 46t-67.5 134t31.5 128t83 61.5t117 28.5t126.5 13t89 17.5t28 46.5q0 82 -53.5 109.5t-125.5 27.5t-123.5 -35t-53.5 -108h-97q11 223 287 223z" />
    <glyph glyph-name="guillemotleft" unicode="&#xab;" horiz-adv-x="872" 
d="M453 500v127l272 256v-138l-193 -182l193 -182v-137zM123 500v127l272 256v-138l-192 -182l192 -182v-137z" />
    <glyph glyph-name="logicalnot" unicode="&#xac;" horiz-adv-x="1228" 
d="M1022 666h-922v108h1030v-547h-108v439z" />
    <glyph glyph-name="uni00AD" unicode="&#xad;" horiz-adv-x="757" 
d="M123 623h512v-119h-512v119z" />
    <glyph glyph-name="registered" unicode="&#xae;" horiz-adv-x="1638" 
d="M819 1493q162 0 301.5 -58.5t241.5 -162t160.5 -242.5t58.5 -300t-58.5 -299t-160.5 -240.5t-241.5 -161t-301.5 -58.5t-301 58.5t-300 219.5t-161 482q0 160 58.5 299t161 242.5t241.5 162t301 58.5zM818 1384q-138 0 -256 -51t-204 -139t-134 -207t-48 -326t184 -395
t459 -188q137 0 255 51t204 139t135 207t49 256t-49 256t-135 207t-204 139t-256 51zM1167 928q0 -207 -221 -246l262 -391h-127l-247 391h-183v-391h-108v880h338q286 0 286 -243zM1059 928q0 151 -209 151h-199v-305h144q130 0 197 26.5t67 127.5z" />
    <glyph glyph-name="macron" unicode="&#xaf;" horiz-adv-x="378" 
d="M-145 1298v93h671v-93h-671z" />
    <glyph glyph-name="degree" unicode="&#xb0;" horiz-adv-x="819" 
d="M115 1151q0 61 22.5 114.5t62.5 93.5t94 63.5t115.5 23.5t115 -23.5t93 -63.5t63.5 -93.5t24 -114.5t-24 -115.5t-63.5 -94.5t-93 -62.5t-115 -22.5t-115.5 22.5t-94 62.5t-62.5 94.5t-22.5 115.5zM256 997.5q61 -61.5 152 -61.5t154 62t63 153t-63.5 153t-152 62
t-151.5 -61.5t-63 -153.5t61 -153.5z" />
    <glyph glyph-name="plusminus" unicode="&#xb1;" horiz-adv-x="1228" 
d="M561 1030h109v-368h460v-109h-460v-369h-109v369h-459v109h459v368zM100 109h1030v-109h-1030v109z" />
    <glyph glyph-name="twosuperior" unicode="&#xb2;" horiz-adv-x="681" 
d="M341 1446q144 0 229 -62.5t85 -199.5t-102.5 -210.5t-177 -115t-143.5 -89.5t-91 -128h508v-80h-618q2 100 50 166t116.5 116t145.5 93t126 89t69.5 83t20.5 84q0 82 -61 128t-133 46q-120 0 -170 -66t-50 -167h-96q-4 141 72 227t220 86z" />
    <glyph glyph-name="threesuperior" unicode="&#xb3;" horiz-adv-x="681" 
d="M276 1059h72q74 0 132.5 39.5t58.5 115.5t-60.5 114t-150.5 38t-143.5 -59.5t-51.5 -151.5h-96q2 129 80 210t211 81t220 -57t87 -170q0 -72 -41 -123.5t-117 -67.5v-4q92 -12 142.5 -68.5t50.5 -132.5q0 -137 -94 -208.5t-242 -71.5t-238 76.5t-80 224.5h97
q-4 -98 55 -159.5t170 -61.5q152 0 193.5 70.5t41.5 113.5q0 86 -66.5 129t-158.5 43h-72v80z" />
    <glyph glyph-name="acute" unicode="&#xb4;" horiz-adv-x="378" 
d="M172 1204h-104l215 289h159z" />
    <glyph glyph-name="mu" unicode="&#xb5;" horiz-adv-x="1099" 
d="M477 -29q-133 0 -225 70v-430h-131v1446h129v-688q4 -143 66.5 -217t216.5 -74t235.5 123t81.5 301v555h129v-1057h-119v190h-4q-51 -106 -148.5 -162.5t-230.5 -56.5z" />
    <glyph glyph-name="paragraph" unicode="&#xb6;" horiz-adv-x="1228" 
d="M559 672q-182 0 -303 115.5t-121 273.5q0 197 120 299t337 102h471v-1822h-129v1714h-246v-1714h-129v1032z" />
    <glyph glyph-name="periodcentered" unicode="&#xb7;" horiz-adv-x="569" 
d="M286 768q48 0 84 -37t36 -85t-37 -84t-85 -36t-84 37t-36 85t37 84t85 36z" />
    <glyph glyph-name="cedilla" unicode="&#xb8;" horiz-adv-x="378" 
d="M287 -252q0 78 -105 78q-51 0 -88 -16l-33 30l125 160h72l-90 -117q151 25 194.5 -27.5t43.5 -118.5t-69.5 -111.5t-137.5 -45.5q-125 0 -209 43l26 66q78 -29 142 -29q129 0 129 88z" />
    <glyph glyph-name="onesuperior" unicode="&#xb9;" horiz-adv-x="681" 
d="M416 1427v-866h-97v635h-247v80q131 5 187.5 29.5t74.5 121.5h82z" />
    <glyph glyph-name="ordmasculine" unicode="&#xba;" horiz-adv-x="684" 
d="M91.5 1347q85.5 99 247.5 99t250.5 -98t88.5 -249t-88.5 -248t-250.5 -97t-247.5 98t-85.5 247t85.5 248zM342 834q59 0 104.5 23.5t75 60t45 85t15.5 97.5t-15.5 97t-45 85t-75 60.5t-104.5 23.5t-104 -23.5t-75 -60.5t-45.5 -85t-15.5 -97t15.5 -97.5t45.5 -85t75 -60
t104 -23.5z" />
    <glyph glyph-name="guillemotright" unicode="&#xbb;" horiz-adv-x="872" 
d="M477 381l193 182l-193 182v138l273 -256v-127l-273 -256v137zM147 381l193 182l-193 182v138l273 -256v-127l-273 -256v137z" />
    <glyph glyph-name="onequarter" unicode="&#xbc;" horiz-adv-x="1708" 
d="M1200 1485h96l-925 -1553h-99zM442 1427v-866h-96v635h-248v80q132 5 188 30t74 121h82zM1315 205h-430v80l436 581h90v-581h139v-80h-139v-205h-96v205zM1315 285v442h-4l-332 -442h336z" />
    <glyph glyph-name="onehalf" unicode="&#xbd;" horiz-adv-x="1708" 
d="M1200 1485h96l-925 -1553h-99zM442 1427v-866h-96v635h-248v80q132 5 188 30t74 121h82zM1294 885q144 0 229 -62.5t85 -198.5t-103 -210.5t-177.5 -116t-144 -89.5t-89.5 -128h508v-80h-619q2 100 50 165.5t117 116t145.5 93.5t126.5 89t69.5 83t19.5 84
q0 83 -61.5 128.5t-133.5 45.5q-218 0 -218 -234h-97q-4 141 72.5 227.5t220.5 86.5z" />
    <glyph glyph-name="threequarters" unicode="&#xbe;" horiz-adv-x="1708" 
d="M276 1059h72q74 0 132.5 39.5t58.5 115.5t-60.5 114t-150.5 38t-143.5 -59.5t-51.5 -151.5h-96q2 129 80 210t211 81t220 -57t87 -170q0 -72 -41 -123.5t-117 -67.5v-4q92 -12 142.5 -68.5t50.5 -132.5q0 -137 -94 -208.5t-242 -71.5t-238 76.5t-80 224.5h97
q-4 -98 55 -159.5t170 -61.5q152 0 193.5 70.5t41.5 113.5q0 86 -66.5 129t-158.5 43h-72v80zM1282 1485h96l-925 -1553h-99zM1315 205h-430v80l436 581h90v-581h139v-80h-139v-205h-96v205zM1315 285v442h-4l-332 -442h336z" />
    <glyph glyph-name="questiondown" unicode="&#xbf;" horiz-adv-x="1099" 
d="M991 59q0 -220 -123.5 -349.5t-341.5 -129.5q-176 0 -295.5 103t-119.5 276q0 113 50.5 193t110.5 138t90.5 87t61 64t41 80t14.5 184h129q4 -179 -44.5 -263t-186.5 -211q-137 -127 -137 -258q0 -130 86.5 -207t188.5 -77q180 0 265.5 105t81.5 265h129zM629 840h-172
v217h172v-217z" />
    <glyph glyph-name="Agrave" unicode="&#xc0;" horiz-adv-x="1290" 
d="M575 1462h156l574 -1462h-150l-178 455h-666l-176 -455h-147zM354 573h576l-283 750zM393 1868h160l215 -289h-104z" />
    <glyph glyph-name="Aacute" unicode="&#xc1;" horiz-adv-x="1290" 
d="M575 1462h156l574 -1462h-150l-178 455h-666l-176 -455h-147zM354 573h576l-283 750zM629 1579h-105l215 289h160z" />
    <glyph glyph-name="Acircumflex" unicode="&#xc2;" horiz-adv-x="1290" 
d="M575 1462h156l574 -1462h-150l-178 455h-666l-176 -455h-147zM354 573h576l-283 750zM950 1579h-133l-176 209l-180 -209h-119l233 289h142z" />
    <glyph glyph-name="Atilde" unicode="&#xc3;" horiz-adv-x="1290" 
d="M575 1462h156l574 -1462h-150l-178 455h-666l-176 -455h-147zM354 573h576l-283 750zM782 1726q78 0 107 99h78q-22 -130 -80 -162.5t-110 -32.5t-141 47t-130 47t-72 -26.5t-31 -77.5h-79q8 76 56.5 136.5t118.5 60.5q69 0 132 -31t93 -45.5t58 -14.5z" />
    <glyph glyph-name="Adieresis" unicode="&#xc4;" horiz-adv-x="1290" 
d="M575 1462h156l574 -1462h-150l-178 455h-666l-176 -455h-147zM354 573h576l-283 750zM758 1614v207h139v-207h-139zM395 1614v207h140v-207h-140z" />
    <glyph glyph-name="Aring" unicode="&#xc5;" horiz-adv-x="1290" 
d="M356 553h580l-289 727zM-12 0l587 1401h156l574 -1401h-150l-172 434h-674l-174 -434h-147zM645 1477q-91 0 -154 63t-63 157t62 155t154 62q92 0 156 -64t64 -154t-64 -155q-64 -64 -155 -64zM506 1696q0 -60 40 -100t99 -40t99 40t40 100t-40 99q-40 40 -99 40t-99 -40
t-40 -99z" />
    <glyph glyph-name="AE" unicode="&#xc6;" horiz-adv-x="1857" 
d="M1051 119h759v-119h-899v463h-530l-238 -463h-155l764 1462h1050v-119h-751v-528h704v-119h-704v-577zM911 582v761h-82l-387 -761h469z" />
    <glyph glyph-name="Ccedilla" unicode="&#xc7;" horiz-adv-x="1441" 
d="M817 -252q-1 78 -105 78q-52 0 -87 -16l-33 30l104 135q-295 23 -456.5 239.5t-161.5 526.5t180 531t510 221q221 0 390 -126t198 -347h-139q-36 167 -161.5 260.5t-279.5 93.5q-282 0 -420.5 -190.5t-138.5 -452.5t139 -452.5t412 -190.5q197 0 323 134.5t146 334.5h139
q-28 -270 -190 -428t-418 -158h-2l-68 -88q153 25 195.5 -27.5t42.5 -118.5t-69.5 -111.5t-137.5 -45.5q-123 0 -211 43l29 66q78 -29 142 -29q128 0 128 88z" />
    <glyph glyph-name="Egrave" unicode="&#xc8;" horiz-adv-x="1214" 
d="M147 1462h1010v-119h-870v-528h815v-119h-815v-577h880v-119h-1020v1462zM354 1868h160l215 -289h-104z" />
    <glyph glyph-name="Eacute" unicode="&#xc9;" horiz-adv-x="1214" 
d="M147 1462h1010v-119h-870v-528h815v-119h-815v-577h880v-119h-1020v1462zM590 1579h-105l215 289h160z" />
    <glyph glyph-name="Ecircumflex" unicode="&#xca;" horiz-adv-x="1214" 
d="M147 1462h1010v-119h-870v-528h815v-119h-815v-577h880v-119h-1020v1462zM911 1579h-133l-176 209l-180 -209h-119l234 289h141z" />
    <glyph glyph-name="Edieresis" unicode="&#xcb;" horiz-adv-x="1214" 
d="M147 1462h1010v-119h-870v-528h815v-119h-815v-577h880v-119h-1020v1462zM719 1614v207h139v-207h-139zM356 1614v207h140v-207h-140z" />
    <glyph glyph-name="Igrave" unicode="&#xcc;" horiz-adv-x="454" 
d="M158 1462h139v-1462h-139v1462zM-23 1868h158l215 -289h-104z" />
    <glyph glyph-name="Iacute" unicode="&#xcd;" horiz-adv-x="454" 
d="M158 1462h139v-1462h-139v1462zM211 1579h-105l216 289h159z" />
    <glyph glyph-name="Icircumflex" unicode="&#xce;" horiz-adv-x="454" 
d="M158 1462h139v-1462h-139v1462zM532 1579h-133l-176 209l-180 -209h-117l232 289h141z" />
    <glyph glyph-name="Idieresis" unicode="&#xcf;" horiz-adv-x="454" 
d="M158 1462h139v-1462h-139v1462zM340 1614v207h139v-207h-139zM-20 1614v207h137v-207h-137z" />
    <glyph glyph-name="Eth" unicode="&#xd0;" horiz-adv-x="1402" 
d="M287 805h483v-92h-483v-594h297q318 0 460 142.5t142 469.5t-142 469.5t-460 142.5h-297v-538zM147 1462h506q334 -8 503 -187t169 -543.5t-169 -544t-503 -187.5h-506v713h-147v92h147v657z" />
    <glyph glyph-name="Ntilde" unicode="&#xd1;" horiz-adv-x="1441" 
d="M145 1462h156l852 -1237h4v1237h139v-1462h-155l-852 1237h-4v-1237h-140v1462zM711.5 1677q-87.5 47 -129.5 47q-41 0 -72 -26.5t-31 -77.5h-80q8 75 57 136t118 61t132.5 -31t93 -45.5t67.5 -14.5q67 0 98 99h77q-22 -130 -79.5 -162.5t-110.5 -32.5t-140.5 47z" />
    <glyph glyph-name="Ograve" unicode="&#xd2;" horiz-adv-x="1517" 
d="M70 731.5q0 151.5 43 288.5t129 242.5t216 168t302 62.5t301 -62.5t215 -168t129 -242.5t43 -288.5t-43 -289t-129 -242t-215 -167t-301 -62.5t-302 62.5t-216 167t-129 242t-43 289zM348.5 277.5q139.5 -189.5 411 -189.5t410.5 190.5t139 452.5t-138.5 452.5
t-411 190.5t-411.5 -189.5t-139 -453.5t139.5 -453.5zM506 1868h160l215 -289h-105z" />
    <glyph glyph-name="Oacute" unicode="&#xd3;" horiz-adv-x="1517" 
d="M70 731.5q0 151.5 43 288.5t129 242.5t216 168t302 62.5t301 -62.5t215 -168t129 -242.5t43 -288.5t-43 -289t-129 -242t-215 -167t-301 -62.5t-302 62.5t-216 167t-129 242t-43 289zM348.5 277.5q139.5 -189.5 411 -189.5t410.5 190.5t139 452.5t-138.5 452.5
t-411 190.5t-411.5 -189.5t-139 -453.5t139.5 -453.5zM741 1579h-104l215 289h160z" />
    <glyph glyph-name="Ocircumflex" unicode="&#xd4;" horiz-adv-x="1517" 
d="M70 731.5q0 151.5 43 288.5t129 242.5t216 168t302 62.5t301 -62.5t215 -168t129 -242.5t43 -288.5t-43 -289t-129 -242t-215 -167t-301 -62.5t-302 62.5t-216 167t-129 242t-43 289zM348.5 277.5q139.5 -189.5 411 -189.5t410.5 190.5t139 452.5t-138.5 452.5
t-411 190.5t-411.5 -189.5t-139 -453.5t139.5 -453.5zM1063 1579h-133l-176 209l-181 -209h-118l233 289h141z" />
    <glyph glyph-name="Otilde" unicode="&#xd5;" horiz-adv-x="1517" 
d="M70 731.5q0 151.5 43 288.5t129 242.5t216 168t302 62.5t301 -62.5t215 -168t129 -242.5t43 -288.5t-43 -289t-129 -242t-215 -167t-301 -62.5t-302 62.5t-216 167t-129 242t-43 289zM348.5 277.5q139.5 -189.5 411 -189.5t410.5 190.5t139 452.5t-138.5 452.5
t-411 190.5t-411.5 -189.5t-139 -453.5t139.5 -453.5zM895 1726q77 0 106 99h78q-22 -130 -79.5 -162.5t-110.5 -32.5t-140.5 47t-129.5 47q-41 0 -72 -26.5t-31 -77.5h-80q8 75 57 136t118 61t132.5 -31t93 -45.5t58.5 -14.5z" />
    <glyph glyph-name="Odieresis" unicode="&#xd6;" horiz-adv-x="1517" 
d="M70 731.5q0 151.5 43 288.5t129 242.5t216 168t302 62.5t301 -62.5t215 -168t129 -242.5t43 -288.5t-43 -289t-129 -242t-215 -167t-301 -62.5t-302 62.5t-216 167t-129 242t-43 289zM348.5 277.5q139.5 -189.5 411 -189.5t410.5 190.5t139 452.5t-138.5 452.5
t-411 190.5t-411.5 -189.5t-139 -453.5t139.5 -453.5zM870 1614v207h140v-207h-140zM508 1614v207h139v-207h-139z" />
    <glyph glyph-name="multiply" unicode="&#xd7;" horiz-adv-x="1228" 
d="M152 901l75 76l387 -387l387 387l76 -76l-387 -387l387 -387l-76 -76l-387 385l-387 -385l-75 76l385 387z" />
    <glyph glyph-name="Oslash" unicode="&#xd8;" horiz-adv-x="1517" 
d="M1170 278.5q139 190.5 139 449.5q0 260 -121 429l-813 -907q145 -162 385 -162q271 0 410 190.5zM348 1184.5q-139 -189.5 -139 -449.5t119 -428l815 907q-147 160 -383 160q-273 0 -412 -189.5zM1280 1260q168 -203 168 -527t-180.5 -543t-507.5 -219q-292 0 -473 181
l-156 -175l-55 50l162 180q-168 207 -168 526t180 539.5t510 220.5q291 0 471 -180l145 160l54 -48z" />
    <glyph glyph-name="Ugrave" unicode="&#xd9;" horiz-adv-x="1402" 
d="M133 1462h139v-905q0 -364 164 -416.5t265 -52.5q212 0 320.5 111.5t108.5 357.5v905h140v-936q0 -244 -140 -399.5t-428 -155.5t-428.5 155.5t-140.5 399.5v936zM449 1868h159l215 -289h-104z" />
    <glyph glyph-name="Uacute" unicode="&#xda;" horiz-adv-x="1402" 
d="M133 1462h139v-905q0 -364 164 -416.5t265 -52.5q212 0 320.5 111.5t108.5 357.5v905h140v-936q0 -244 -140 -399.5t-428 -155.5t-428.5 155.5t-140.5 399.5v936zM684 1579h-104l215 289h159z" />
    <glyph glyph-name="Ucircumflex" unicode="&#xdb;" horiz-adv-x="1402" 
d="M133 1462h139v-905q0 -364 164 -416.5t265 -52.5q212 0 320.5 111.5t108.5 357.5v905h140v-936q0 -244 -140 -399.5t-428 -155.5t-428.5 155.5t-140.5 399.5v936zM1006 1579h-134l-176 209l-180 -209h-119l234 289h141z" />
    <glyph glyph-name="Udieresis" unicode="&#xdc;" horiz-adv-x="1402" 
d="M133 1462h139v-905q0 -364 164 -416.5t265 -52.5q212 0 320.5 111.5t108.5 357.5v905h140v-936q0 -244 -140 -399.5t-428 -155.5t-428.5 155.5t-140.5 399.5v936zM813 1614v207h139v-207h-139zM451 1614v207h139v-207h-139z" />
    <glyph glyph-name="Yacute" unicode="&#xdd;" horiz-adv-x="1251" 
d="M694 0h-139v602l-573 860h163l482 -741l479 741h166l-578 -860v-602zM608 1579h-104l215 289h160z" />
    <glyph glyph-name="Thorn" unicode="&#xde;" horiz-adv-x="1290" 
d="M147 1462h140v-239h510q199 0 316.5 -111.5t117.5 -306.5t-117 -306.5t-317 -111.5h-510v-387h-140v1462zM287 506h479q145 0 235.5 73.5t90.5 225t-90.5 225.5t-235.5 74h-479v-598z" />
    <glyph glyph-name="germandbls" unicode="&#xdf;" horiz-adv-x="1099" 
d="M879 420q0 281 -167 307.5t-261 26.5v108q245 0 299.5 93.5t54.5 161.5q0 123 -78 195t-212 72q-261 0 -261 -299v-1085h-129v1096q0 196 110 296.5t289 100.5q180 0 295 -96.5t115 -263.5q0 -111 -60.5 -197t-171.5 -111v-4q143 -12 224.5 -121.5t81.5 -239.5
q0 -233 -124.5 -351.5t-330.5 -122.5h-51q-23 0 -51 4v110q51 -8 105 -8q133 0 228 82.5t95 245.5z" />
    <glyph glyph-name="agrave" unicode="&#xe0;" horiz-adv-x="1062" 
d="M799 578h-4q-16 -31 -104 -46q-87 -16 -174 -27t-158.5 -33.5t-117.5 -64t-46 -105.5q0 -107 68.5 -165.5t154.5 -58.5q169 0 275 91.5t106 240.5v168zM111 733q23 354 420 354t397 -339v-562q0 -78 76 -77q23 0 40 8v-109q-46 -8 -89 -8q-85 0 -115.5 45.5t-30.5 138.5
h-4q-78 -113 -160.5 -163t-224.5 -50q-247 0 -300.5 113.5t-53.5 209.5t49 158t130 95t182 46t174 21t135.5 21.5t62.5 120.5q0 127 -73 175t-200 48t-204.5 -58.5t-81.5 -187.5h-129zM279 1493h159l215 -289h-104z" />
    <glyph glyph-name="aacute" unicode="&#xe1;" horiz-adv-x="1062" 
d="M799 578h-4q-16 -31 -104 -46q-87 -16 -174 -27t-158.5 -33.5t-117.5 -64t-46 -105.5q0 -107 68.5 -165.5t154.5 -58.5q169 0 275 91.5t106 240.5v168zM111 733q23 354 420 354t397 -339v-562q0 -78 76 -77q23 0 40 8v-109q-46 -8 -89 -8q-85 0 -115.5 45.5t-30.5 138.5
h-4q-78 -113 -160.5 -163t-224.5 -50q-247 0 -300.5 113.5t-53.5 209.5t49 158t130 95t182 46t174 21t135.5 21.5t62.5 120.5q0 127 -73 175t-200 48t-204.5 -58.5t-81.5 -187.5h-129zM514 1204h-104l215 289h159z" />
    <glyph glyph-name="acircumflex" unicode="&#xe2;" horiz-adv-x="1062" 
d="M799 578h-4q-16 -31 -104 -46q-87 -16 -174 -27t-158.5 -33.5t-117.5 -64t-46 -105.5q0 -107 68.5 -165.5t154.5 -58.5q169 0 275 91.5t106 240.5v168zM111 733q23 354 420 354t397 -339v-562q0 -78 76 -77q23 0 40 8v-109q-46 -8 -89 -8q-85 0 -115.5 45.5t-30.5 138.5
h-4q-78 -113 -160.5 -163t-224.5 -50q-247 0 -300.5 113.5t-53.5 209.5t49 158t130 95t182 46t174 21t135.5 21.5t62.5 120.5q0 127 -73 175t-200 48t-204.5 -58.5t-81.5 -187.5h-129zM836 1204h-134l-176 209l-180 -209h-119l234 289h141z" />
    <glyph glyph-name="atilde" unicode="&#xe3;" horiz-adv-x="1062" 
d="M799 578h-4q-16 -31 -104 -46q-87 -16 -174 -27t-158.5 -33.5t-117.5 -64t-46 -105.5q0 -107 68.5 -165.5t154.5 -58.5q169 0 275 91.5t106 240.5v168zM111 733q23 354 420 354t397 -339v-562q0 -78 76 -77q23 0 40 8v-109q-46 -8 -89 -8q-85 0 -115.5 45.5t-30.5 138.5
h-4q-78 -113 -160.5 -163t-224.5 -50q-247 0 -300.5 113.5t-53.5 209.5t49 158t130 95t182 46t174 21t135.5 21.5t62.5 120.5q0 127 -73 175t-200 48t-204.5 -58.5t-81.5 -187.5h-129zM668 1352q77 0 106 98h78q-22 -129 -79.5 -162t-110 -33t-142.5 47.5t-130 47.5
t-70.5 -27t-30.5 -78h-80q8 77 57.5 137t117.5 60t132 -31t93.5 -45t58.5 -14z" />
    <glyph glyph-name="adieresis" unicode="&#xe4;" horiz-adv-x="1062" 
d="M799 578h-4q-16 -31 -104 -46q-87 -16 -174 -27t-158.5 -33.5t-117.5 -64t-46 -105.5q0 -107 68.5 -165.5t154.5 -58.5q169 0 275 91.5t106 240.5v168zM111 733q23 354 420 354t397 -339v-562q0 -78 76 -77q23 0 40 8v-109q-46 -8 -89 -8q-85 0 -115.5 45.5t-30.5 138.5
h-4q-78 -113 -160.5 -163t-224.5 -50q-247 0 -300.5 113.5t-53.5 209.5t49 158t130 95t182 46t174 21t135.5 21.5t62.5 120.5q0 127 -73 175t-200 48t-204.5 -58.5t-81.5 -187.5h-129zM643 1239v207h139v-207h-139zM281 1239v207h139v-207h-139z" />
    <glyph glyph-name="aring" unicode="&#xe5;" horiz-adv-x="1062" 
d="M799 578h-4q-16 -31 -104 -46q-87 -16 -174 -27t-158.5 -33.5t-117.5 -64t-46 -105.5q0 -107 68.5 -165.5t154.5 -58.5q169 0 275 91.5t106 240.5v168zM111 733q23 354 420 354t397 -339v-562q0 -78 76 -77q23 0 40 8v-109q-46 -8 -89 -8q-85 0 -115.5 45.5t-30.5 138.5
h-4q-78 -113 -160.5 -163t-224.5 -50q-247 0 -300.5 113.5t-53.5 209.5t49 158t130 95t182 46t174 21t135.5 21.5t62.5 120.5q0 127 -73 175t-200 48t-204.5 -58.5t-81.5 -187.5h-129zM313 1386.5q0 45.5 17.5 85t47.5 69.5t69.5 47.5t85 17.5t85 -17.5t69.5 -47.5
t47.5 -69.5t17.5 -85t-17.5 -85t-47.5 -69.5t-69.5 -47.5t-85 -17.5t-85 17.5t-69.5 47.5t-47.5 69.5t-17.5 85zM393 1386.5q0 -59.5 40 -99.5t99.5 -40t99.5 40t40 99.5t-40 99.5t-99.5 40t-99.5 -40t-40 -99.5z" />
    <glyph glyph-name="ae" unicode="&#xe6;" horiz-adv-x="1781" 
d="M1593 602q0 152 -93 264.5t-244 112.5t-241.5 -110.5t-86.5 -266.5h665zM799 578h-4q-16 -31 -104 -46q-87 -16 -174 -27t-158.5 -33.5t-117.5 -64t-46 -105.5q0 -107 68.5 -165.5t154.5 -58.5q169 0 275 91.5t106 240.5v168zM539 1087q216 0 279 -75.5t73 -143.5h4
q38 106 142.5 162.5t231.5 56.5q239 0 346 -167t107 -426h-794q-13 -180 77 -298t267 -118q252 0 313 264h129q-41 -180 -157.5 -275.5t-303.5 -95.5q-295 0 -387 265h-4q-22 -125 -155 -195t-287 -70q-247 0 -300.5 113.5t-53.5 209.5t49 158t130 95t182 46t174 21
t135.5 21.5t62.5 120.5q0 127 -73 175t-200 48t-204.5 -58.5t-81.5 -187.5h-129q23 354 428 354z" />
    <glyph glyph-name="ccedilla" unicode="&#xe7;" horiz-adv-x="1062" 
d="M629 -252q0 78 -105 78q-51 0 -88 -16l-33 30l105 135q-205 23 -321.5 177t-116.5 386q0 231 134 390t365 159q170 0 288 -90t140 -272h-129q-58 254 -299 254q-174 0 -272 -135t-98 -315.5t98 -315.5t272 -135q120 0 207 85t101 216h129q-27 -193 -140.5 -298.5
t-287.5 -109.5l-68 -88q151 25 194.5 -27.5t43.5 -118.5t-69.5 -111.5t-137.5 -45.5q-123 0 -211 43l28 66q78 -29 142 -29q129 0 129 88z" />
    <glyph glyph-name="egrave" unicode="&#xe8;" horiz-adv-x="1062" 
d="M199 494q0 -264 128 -340t220 -76q141 0 221 73.5t111 196.5h129q-41 -180 -150.5 -278.5t-310.5 -98.5q-241 0 -359 158t-118 394t120 400t357 164t355.5 -173.5t109.5 -419.5h-813zM546 979q-149 0 -239 -109t-108 -268h684q-4 155 -96 266t-241 111zM279 1493h159
l215 -289h-104z" />
    <glyph glyph-name="eacute" unicode="&#xe9;" horiz-adv-x="1062" 
d="M199 494q0 -264 128 -340t220 -76q141 0 221 73.5t111 196.5h129q-41 -180 -150.5 -278.5t-310.5 -98.5q-241 0 -359 158t-118 394t120 400t357 164t355.5 -173.5t109.5 -419.5h-813zM546 979q-149 0 -239 -109t-108 -268h684q-4 155 -96 266t-241 111zM514 1204h-104
l215 289h159z" />
    <glyph glyph-name="ecircumflex" unicode="&#xea;" horiz-adv-x="1062" 
d="M199 494q0 -264 128 -340t220 -76q141 0 221 73.5t111 196.5h129q-41 -180 -150.5 -278.5t-310.5 -98.5q-241 0 -359 158t-118 394t120 400t357 164t355.5 -173.5t109.5 -419.5h-813zM546 979q-149 0 -239 -109t-108 -268h684q-4 155 -96 266t-241 111zM836 1204h-134
l-176 209l-180 -209h-119l234 289h141z" />
    <glyph glyph-name="edieresis" unicode="&#xeb;" horiz-adv-x="1062" 
d="M199 494q0 -264 128 -340t220 -76q141 0 221 73.5t111 196.5h129q-41 -180 -150.5 -278.5t-310.5 -98.5q-241 0 -359 158t-118 394t120 400t357 164t355.5 -173.5t109.5 -419.5h-813zM546 979q-149 0 -239 -109t-108 -268h684q-4 155 -96 266t-241 111zM643 1239v207h139
v-207h-139zM281 1239v207h139v-207h-139z" />
    <glyph glyph-name="igrave" unicode="&#xec;" horiz-adv-x="378" 
d="M125 0v1057h129v-1057h-129zM-61 1493h157l215 -289h-104z" />
    <glyph glyph-name="iacute" unicode="&#xed;" horiz-adv-x="378" 
d="M125 0v1057h129v-1057h-129zM172 1204h-104l215 289h159z" />
    <glyph glyph-name="icircumflex" unicode="&#xee;" horiz-adv-x="378" 
d="M125 0v1057h129v-1057h-129zM494 1204h-134l-176 209l-180 -209h-117l232 289h141z" />
    <glyph glyph-name="idieresis" unicode="&#xef;" horiz-adv-x="378" 
d="M125 0v1057h129v-1057h-129zM301 1239v207h139v-207h-139zM-59 1239v207h137v-207h-137z" />
    <glyph glyph-name="eth" unicode="&#xf0;" 
d="M290.5 200.5q91.5 -122.5 269.5 -122.5t273 119.5t95 301.5t-89.5 305.5t-274 123.5t-275 -118.5t-90.5 -302.5t91.5 -306.5zM1057 528q0 -243 -128.5 -400t-371.5 -157t-365 150t-122 382q0 231 130 382t339 151t288 -82h4q-95 182 -272 322l-215 -121l-68 66l205 114
q-108 71 -190 113l74 72q134 -73 213 -131l233 131l68 -66l-224 -125q402 -327 402 -801z" />
    <glyph glyph-name="ntilde" unicode="&#xf1;" horiz-adv-x="1099" 
d="M121 1057h129v-183h4q37 96 131 154.5t206 58.5q212 0 300 -102t88 -305v-680h-129v659q0 231 -95.5 275.5t-209.5 44.5t-202.5 -102t-92.5 -261v-616h-129v1057zM538.5 1302.5q-88.5 47.5 -129.5 47.5q-40 0 -71 -27t-31 -78h-80q8 77 57.5 137t117.5 60t132 -31
t93.5 -45t67.5 -14q67 0 98 98h77q-22 -130 -79.5 -162.5t-110.5 -32.5t-141.5 47.5z" />
    <glyph glyph-name="ograve" unicode="&#xf2;" 
d="M569.5 1087q120.5 0 214 -45t157 -120.5t96 -177t32.5 -216t-32.5 -216t-96 -177.5t-157 -120t-214 -44t-214 44t-157 120t-96 177.5t-32.5 216t32.5 216t96 177t157 120.5t214 45zM569.5 979q-92.5 0 -162 -39t-115.5 -102.5t-69.5 -144.5t-23.5 -165t23.5 -164.5
t69.5 -144t115.5 -102.5t162 -39t162 39t115.5 102.5t69.5 144t23.5 164.5t-23.5 165t-69.5 144.5t-115.5 102.5t-162 39zM317 1493h160l215 -289h-104z" />
    <glyph glyph-name="oacute" unicode="&#xf3;" 
d="M569.5 1087q120.5 0 214 -45t157 -120.5t96 -177t32.5 -216t-32.5 -216t-96 -177.5t-157 -120t-214 -44t-214 44t-157 120t-96 177.5t-32.5 216t32.5 216t96 177t157 120.5t214 45zM569.5 979q-92.5 0 -162 -39t-115.5 -102.5t-69.5 -144.5t-23.5 -165t23.5 -164.5
t69.5 -144t115.5 -102.5t162 -39t162 39t115.5 102.5t69.5 144t23.5 164.5t-23.5 165t-69.5 144.5t-115.5 102.5t-162 39zM553 1204h-104l215 289h159z" />
    <glyph glyph-name="ocircumflex" unicode="&#xf4;" 
d="M569.5 1087q120.5 0 214 -45t157 -120.5t96 -177t32.5 -216t-32.5 -216t-96 -177.5t-157 -120t-214 -44t-214 44t-157 120t-96 177.5t-32.5 216t32.5 216t96 177t157 120.5t214 45zM569.5 979q-92.5 0 -162 -39t-115.5 -102.5t-69.5 -144.5t-23.5 -165t23.5 -164.5
t69.5 -144t115.5 -102.5t162 -39t162 39t115.5 102.5t69.5 144t23.5 164.5t-23.5 165t-69.5 144.5t-115.5 102.5t-162 39zM874 1204h-133l-176 209l-180 -209h-119l234 289h141z" />
    <glyph glyph-name="otilde" unicode="&#xf5;" 
d="M569.5 1087q120.5 0 214 -45t157 -120.5t96 -177t32.5 -216t-32.5 -216t-96 -177.5t-157 -120t-214 -44t-214 44t-157 120t-96 177.5t-32.5 216t32.5 216t96 177t157 120.5t214 45zM569.5 979q-92.5 0 -162 -39t-115.5 -102.5t-69.5 -144.5t-23.5 -165t23.5 -164.5
t69.5 -144t115.5 -102.5t162 -39t162 39t115.5 102.5t69.5 144t23.5 164.5t-23.5 165t-69.5 144.5t-115.5 102.5t-162 39zM707 1352q77 0 106 98h78q-22 -129 -79.5 -162t-110 -33t-142.5 47.5t-130 47.5t-70.5 -27t-30.5 -78h-80q8 77 57.5 137t117.5 60q69 0 132 -31
t93 -45t59 -14z" />
    <glyph glyph-name="odieresis" unicode="&#xf6;" 
d="M569.5 1087q120.5 0 214 -45t157 -120.5t96 -177t32.5 -216t-32.5 -216t-96 -177.5t-157 -120t-214 -44t-214 44t-157 120t-96 177.5t-32.5 216t32.5 216t96 177t157 120.5t214 45zM569.5 979q-92.5 0 -162 -39t-115.5 -102.5t-69.5 -144.5t-23.5 -165t23.5 -164.5
t69.5 -144t115.5 -102.5t162 -39t162 39t115.5 102.5t69.5 144t23.5 164.5t-23.5 165t-69.5 144.5t-115.5 102.5t-162 39zM682 1239v207h139v-207h-139zM319 1239v207h140v-207h-140z" />
    <glyph glyph-name="divide" unicode="&#xf7;" horiz-adv-x="1228" 
d="M100 461v108h1030v-108h-1030zM500 928q0 47 33.5 80.5t81 33.5t81 -33.5t33.5 -78.5t-33.5 -81t-79.5 -36t-81 34t-35 81zM500 102.5q0 47.5 33.5 81t81 33.5t81 -33.5t33.5 -79.5t-33.5 -80t-79.5 -34t-81 32.5t-35 80z" />
    <glyph glyph-name="oslash" unicode="&#xf8;" 
d="M831 856q-101 123 -269 123t-265.5 -135t-97.5 -306t73 -286zM309 199q98 -121 267 -121t266.5 135t97.5 304t-72 286zM958 901q111 -157 111 -385q0 -227 -133 -386t-357 -159t-354 138l-121 -129l-45 38l125 138q-114 148 -114 380t134 391.5t359 159.5t355 -139
l106 115l45 -41z" />
    <glyph glyph-name="ugrave" unicode="&#xf9;" horiz-adv-x="1099" 
d="M492 -29q-371 0 -371 400v686h129v-688q4 -143 66.5 -217t216.5 -74t235.5 123t81.5 301v555h129v-1057h-119v190h-4q-51 -106 -148.5 -162.5t-215.5 -56.5zM297 1493h160l215 -289h-105z" />
    <glyph glyph-name="uacute" unicode="&#xfa;" horiz-adv-x="1099" 
d="M492 -29q-371 0 -371 400v686h129v-688q4 -143 66.5 -217t216.5 -74t235.5 123t81.5 301v555h129v-1057h-119v190h-4q-51 -106 -148.5 -162.5t-215.5 -56.5zM532 1204h-104l215 289h160z" />
    <glyph glyph-name="ucircumflex" unicode="&#xfb;" horiz-adv-x="1099" 
d="M492 -29q-371 0 -371 400v686h129v-688q4 -143 66.5 -217t216.5 -74t235.5 123t81.5 301v555h129v-1057h-119v190h-4q-51 -106 -148.5 -162.5t-215.5 -56.5zM854 1204h-133l-176 209l-180 -209h-119l233 289h142z" />
    <glyph glyph-name="udieresis" unicode="&#xfc;" horiz-adv-x="1099" 
d="M492 -29q-371 0 -371 400v686h129v-688q4 -143 66.5 -217t216.5 -74t235.5 123t81.5 301v555h129v-1057h-119v190h-4q-51 -106 -148.5 -162.5t-215.5 -56.5zM662 1239v207h139v-207h-139zM299 1239v207h139v-207h-139z" />
    <glyph glyph-name="yacute" unicode="&#xfd;" horiz-adv-x="948" 
d="M306 -244.5q35 36.5 75 129.5l45 119l-422 1053h137l348 -901l326 901h129l-459 -1217q-60 -140 -98.5 -173.5t-78.5 -44.5t-112 -9t-87 8v109q63 -11 113 -11q49 0 84 36.5zM457 1204h-105l215 289h160z" />
    <glyph glyph-name="thorn" unicode="&#xfe;" horiz-adv-x="1175" 
d="M881 846q-88 133 -267 133t-270.5 -131.5t-91.5 -374.5t134 -319t232 -76t163 40t126.5 133t61.5 277.5t-88 317.5zM123 1462h129v-606h4q38 108 139.5 169.5t225.5 61.5q123 0 212 -45t148 -121.5t88 -178t29 -277.5t-121.5 -335t-353.5 -159q-195 0 -271 86t-96 144h-4
v-590h-129v1851z" />
    <glyph glyph-name="ydieresis" unicode="&#xff;" horiz-adv-x="948" 
d="M306 -244.5q35 36.5 75 129.5l45 119l-422 1053h137l348 -901l326 901h129l-459 -1217q-60 -140 -98.5 -173.5t-78.5 -44.5t-112 -9t-87 8v109q63 -11 113 -11q49 0 84 36.5zM586 1239v207h139v-207h-139zM223 1239v207h139v-207h-139z" />
    <glyph glyph-name="Amacron" unicode="&#x100;" horiz-adv-x="1290" 
d="M575 1462h156l574 -1462h-150l-178 455h-666l-176 -455h-147zM354 573h576l-283 750zM309 1657h672v-92h-672v92z" />
    <glyph glyph-name="amacron" unicode="&#x101;" horiz-adv-x="1062" 
d="M799 578h-4q-16 -31 -104 -46q-87 -16 -174 -27q-322 -41 -322 -203q1 -107 69 -166q69 -58 154 -58q169 0 275 91t106 241v168zM111 733q23 354 420 354t397 -339v-562q0 -78 76 -77q23 0 40 8v-109q-46 -8 -89 -8q-122 0 -141 110q-5 34 -5 74h-4q-78 -114 -159 -163
q-80 -49 -226 -50q-245 0 -327 169q-27 58 -27 154t49 158t130 95t182 46t174 21t104 14q92 19 93 126q2 185 -168 216q-50 9 -108 9q-122 0 -200 -58t-82 -188h-129zM219 1288h672v-92h-672v92z" />
    <glyph glyph-name="Abreve" unicode="&#x102;" horiz-adv-x="1290" 
d="M575 1462h156l574 -1462h-150l-178 455h-666l-176 -455h-147zM354 573h576l-283 750zM453 1752q53 -95 207 -95q58 0 122 44q63 44 76 124h80q-16 -123 -95 -192t-203 -69t-201 68t-87 193h80q2 -41 21 -73z" />
    <glyph glyph-name="abreve" unicode="&#x103;" horiz-adv-x="1062" 
d="M799 578h-4q-16 -31 -104 -46q-87 -16 -174 -27q-322 -41 -322 -203q1 -107 69 -166q69 -58 154 -58q169 0 275 91t106 241v168zM111 733q23 354 420 354t397 -339v-562q0 -78 76 -77q23 0 40 8v-109q-46 -8 -89 -8q-122 0 -141 110q-5 34 -5 74h-4q-78 -114 -159 -163
q-80 -49 -226 -50q-245 0 -327 169q-27 58 -27 154t49 158t130 95t182 46t174 21t104 14q92 19 93 126q2 185 -168 216q-50 9 -108 9q-122 0 -200 -58t-82 -188h-129zM570 1288q58 0 122 44q63 44 76 124h80q-16 -124 -95 -192t-203 -68t-201 68t-87 192h80q4 -81 68 -126
q55 -42 160 -42z" />
    <glyph glyph-name="Aogonek" unicode="&#x104;" horiz-adv-x="1290" 
d="M930 573l-283 750l-293 -750h576zM930 -262q0 77 108 180q45 39 117 82l-178 455h-666l-176 -455h-147l587 1462h156l574 -1462h-70q-147 -118 -161.5 -172.5t-14.5 -92.5t27.5 -61.5t62.5 -23.5q64 0 113 84l59 -27q-81 -137 -195 -137q-196 0 -196 168z" />
    <glyph glyph-name="aogonek" unicode="&#x105;" horiz-adv-x="1062" 
d="M444 78q60 0 127.5 22.5t147.5 91.5t80 218v168h-4q-16 -31 -104 -46q-87 -16 -174 -27t-158.5 -33.5t-117.5 -64t-46 -105.5t19 -102t52 -66t75.5 -42t102.5 -14zM111 733q23 354 420 354t397 -339v-562q0 -78 76 -77q23 0 40 8v-109q-46 -8 -53 -8
q-147 -118 -161.5 -172.5t-14.5 -92.5t27.5 -61.5t62.5 -23.5q64 0 113 84l59 -27q-81 -137 -193 -137q-198 0 -198 168q0 76 109 180q45 41 120 84q-88 18 -97 79.5t-9 102.5h-4q-78 -113 -160.5 -163t-224.5 -50q-247 0 -300.5 113.5t-53.5 209.5t49 158t130 95t182 46
t174 21t135.5 21.5t62.5 120.5q0 127 -73 175t-200 48t-204.5 -58.5t-81.5 -187.5h-129z" />
    <glyph glyph-name="Cacute" unicode="&#x106;" horiz-adv-x="1441" 
d="M655 1610l215 288h160l-270 -288h-105zM768 1374q-274 0 -412.5 -190.5t-138.5 -452.5t139 -452.5t412 -190.5q197 0 323 134.5t146 334.5h139q-28 -270 -190 -428t-418 -158q-172 0 -302 62.5t-216 167t-129 242t-43 373.5t180 456.5t510 220.5q221 0 390 -126t198 -347
h-139q-36 167 -161.5 260.5t-287.5 93.5z" />
    <glyph glyph-name="cacute" unicode="&#x107;" horiz-adv-x="1062" 
d="M426 1204l215 289h160l-271 -289h-104zM569 979q-174 0 -272 -135t-98 -315.5t98 -315.5t272 -135q120 0 207 85t101 216h129q-27 -193 -141.5 -300.5t-295.5 -107.5q-233 0 -366 159t-133 399t134 399t365 159q170 0 288 -90t140 -272h-129q-58 254 -299 254z" />
    <glyph glyph-name="Ccircumflex" unicode="&#x108;" horiz-adv-x="1441" 
d="M347 1172q-130 -177 -130 -440t130 -442q149 -202 421 -202q196 0 322 134t147 335h139q-28 -272 -190 -429t-418 -157q-172 1 -302 63t-216 166q-172 209 -172 530t172 533q86 105 216 167t302 63q219 0 389 -126t199 -347h-139q-36 167 -162 261q-126 95 -279 94
q-283 -2 -429 -203zM897 1595l-176 209l-180 -209h-117l231 289h142l233 -289h-133z" />
    <glyph glyph-name="ccircumflex" unicode="&#x109;" horiz-adv-x="1062" 
d="M569 -29q-234 0 -368 161q-133 161 -132 398t134 397t366 160q170 0 288 -90t140 -272h-129q-58 254 -299 254q-174 0 -273 -136t-98 -315q1 -180 99 -315t272 -135q120 0 208 86t100 215h129q-27 -193 -142 -301t-295 -107zM707 1196l-177 209l-180 -209h-117l232 289
h141l234 -289h-133z" />
    <glyph glyph-name="Cdotaccent" unicode="&#x10a;" horiz-adv-x="1441" 
d="M347 1172q-130 -177 -130 -440t130 -442q149 -202 421 -202q196 0 322 134t147 335h139q-28 -272 -190 -429t-418 -157q-172 1 -302 63t-216 166q-172 209 -172 530t172 533q86 105 216 167t302 63q219 0 389 -126t199 -347h-139q-36 167 -162 261q-126 95 -279 94
q-283 -2 -429 -203zM657 1802h140v-207h-140v207z" />
    <glyph glyph-name="cdotaccent" unicode="&#x10b;" horiz-adv-x="1062" 
d="M569 -29q-234 0 -368 161q-133 161 -132 398t134 397t366 160q170 0 288 -90t140 -272h-129q-58 254 -299 254q-174 0 -273 -136t-98 -315q1 -180 99 -315t272 -135q120 0 208 86t100 215h129q-27 -193 -142 -301t-295 -107zM467 1403h139v-207h-139v207z" />
    <glyph glyph-name="Ccaron" unicode="&#x10c;" horiz-adv-x="1441" 
d="M347 1172q-130 -177 -130 -440t130 -442q149 -202 421 -202q196 0 322 134t147 335h139q-28 -272 -190 -429t-418 -157q-172 1 -302 63t-216 166q-172 209 -172 530t172 533q86 105 216 167t302 63q219 0 389 -126t199 -347h-139q-36 167 -162 261q-126 95 -279 94
q-283 -2 -429 -203zM455 1890h131l176 -209l180 209h119l-234 -288h-141z" />
    <glyph glyph-name="ccaron" unicode="&#x10d;" horiz-adv-x="1062" 
d="M569 -29q-234 0 -368 161q-133 161 -132 398t134 397t366 160q170 0 288 -90t140 -272h-129q-58 254 -299 254q-174 0 -273 -136t-98 -315q1 -180 99 -315t272 -135q120 0 208 86t100 215h129q-27 -193 -142 -301t-295 -107zM266 1485h131l176 -209l181 209h118
l-233 -289h-141z" />
    <glyph glyph-name="Dcaron" unicode="&#x10e;" horiz-adv-x="1402" 
d="M287 119h297q318 1 460 143t142 470t-144 470q-144 143 -458 141h-297v-1224zM147 1462h506q334 -8 503 -187t169 -544t-169 -544t-503 -187h-506v1462zM313 1843h131l177 -209l180 209h119l-234 -289h-141z" />
    <glyph glyph-name="dcaron" unicode="&#x10f;" horiz-adv-x="1175" 
d="M295 211q88 -133 267 -133t270.5 131.5t91.5 374.5t-134.5 319t-231.5 76t-162.5 -40t-127 -133t-61.5 -277.5t88 -317.5zM934 0v201h-4q-40 -103 -150 -166.5t-229 -63.5t-208 44t-148.5 121t-88 178.5t-28.5 279t123 335.5t352 158q192 0 269 -87t98 -144h4v606h129
v-1462h-119zM1346 1571q0 -152 -68 -209t-113 -70v88q45 14 72 77t23 114h-66v217h152v-217z" />
    <glyph glyph-name="Dcroat" unicode="&#x110;" horiz-adv-x="1402" 
d="M287 805h483v-92h-483v-594h297q318 1 460 143t142 470t-144 470q-144 143 -458 141h-297v-538zM147 1462h506q334 -8 503 -187t169 -544t-169 -544t-503 -187h-506v713h-147v92h147v657z" />
    <glyph glyph-name="dcroat" unicode="&#x111;" horiz-adv-x="1175" 
d="M295 211q88 -133 267 -133t270.5 131.5t91.5 374.5t-134.5 319t-231.5 76t-162.5 -40t-127 -133t-61.5 -277.5t88 -317.5zM924 1319v143h129v-143h186v-109h-186v-1210h-119v201h-4q-40 -103 -150 -166.5t-229 -63.5t-208 44t-148.5 121t-88 178.5t-28.5 279t123 335.5
t352 158q192 0 269 -87t98 -144h4v354h-213v109h213z" />
    <glyph glyph-name="Emacron" unicode="&#x112;" horiz-adv-x="1214" 
d="M147 1462h1010v-119h-870v-528h815v-119h-815v-577h880v-119h-1020v1462zM322 1657h671v-92h-671v92z" />
    <glyph glyph-name="emacron" unicode="&#x113;" horiz-adv-x="1062" 
d="M199 494q0 -263 190 -377q66 -39 158 -39q141 0 221 74t111 196h129q-41 -180 -151 -278t-310 -99q-241 0 -360 160t-118 392q1 233 113 389q126 175 365 175q238 0 363 -185q111 -164 102 -408h-813zM199 602h684q-4 152 -96 265q-92 112 -240 112t-240 -110
q-93 -111 -108 -267zM207 1288h672v-92h-672v92z" />
    <glyph glyph-name="Ebreve" unicode="&#x114;" horiz-adv-x="1214" 
d="M147 1462h1010v-119h-870v-528h815v-119h-815v-577h880v-119h-1020v1462zM673 1657q58 0 122 44q63 44 75 124h80q-16 -123 -95 -192t-203 -69t-200 68t-87 193h79q2 -41 21 -73q53 -95 208 -95z" />
    <glyph glyph-name="ebreve" unicode="&#x115;" horiz-adv-x="1062" 
d="M199 494q0 -263 190 -377q66 -39 158 -39q141 0 221 74t111 196h129q-41 -180 -151 -278t-310 -99q-241 0 -360 160t-118 392q1 233 113 389q126 175 365 175q238 0 363 -185q111 -164 102 -408h-813zM199 602h684q-4 152 -96 265q-92 112 -240 112t-240 -110
q-93 -111 -108 -267zM558 1288q58 0 122 44q63 44 76 124h80q-16 -124 -96 -192t-202 -68q-124 0 -201 68t-87 192h80q2 -41 20 -73q53 -95 208 -95z" />
    <glyph glyph-name="Edotaccent" unicode="&#x116;" horiz-adv-x="1214" 
d="M147 1462h1010v-119h-870v-528h815v-119h-815v-577h880v-119h-1020v1462zM588 1772h139v-207h-139v207z" />
    <glyph glyph-name="edotaccent" unicode="&#x117;" horiz-adv-x="1062" 
d="M199 494q0 -263 190 -377q66 -39 158 -39q141 0 221 74t111 196h129q-41 -180 -151 -278t-310 -99q-241 0 -360 160t-118 392q1 233 113 389q126 175 365 175q238 0 363 -185q111 -164 102 -408h-813zM199 602h684q-4 152 -96 265q-92 112 -240 112t-240 -110
q-93 -111 -108 -267zM473 1403h139v-207h-139v207z" />
    <glyph glyph-name="Eogonek" unicode="&#x118;" horiz-adv-x="1214" 
d="M776 -262q0 76 109 180q45 39 116 82h-854v1462h1010v-119h-870v-528h815v-119h-815v-577h880v-119h-86q-145 -116 -160.5 -171.5t-15.5 -93.5t28 -61.5t62 -23.5q67 0 113 84l59 -27q-81 -137 -193 -137q-198 0 -198 168z" />
    <glyph glyph-name="eogonek" unicode="&#x119;" horiz-adv-x="1062" 
d="M546 979q-149 0 -239 -109t-108 -268h684q-4 155 -96 266t-241 111zM346 -262q0 76 109 180q29 27 69 53q-224 8 -339 162t-115 390t120 400t357 164t355.5 -173.5t109.5 -419.5h-813q0 -264 128 -340t220 -76q141 0 221 73.5t111 196.5h129q-77 -337 -387 -373
q-120 -105 -133 -153.5t-13 -86.5t27.5 -61.5t62.5 -23.5q67 0 113 84l59 -27q-81 -137 -193 -137q-198 0 -198 168z" />
    <glyph glyph-name="Ecaron" unicode="&#x11a;" horiz-adv-x="1214" 
d="M147 1462h1010v-119h-870v-528h815v-119h-815v-577h880v-119h-1020v1462zM383 1884h131l176 -209l180 209h119l-233 -289h-142z" />
    <glyph glyph-name="ecaron" unicode="&#x11b;" horiz-adv-x="1062" 
d="M199 494q0 -263 190 -377q66 -39 158 -39q141 0 221 74t111 196h129q-41 -180 -151 -278t-310 -99q-241 0 -360 160t-118 392q1 233 113 389q126 175 365 175q238 0 363 -185q111 -164 102 -408h-813zM199 602h684q-4 152 -96 265q-92 112 -240 112t-240 -110
q-93 -111 -108 -267zM240 1518h131l176 -209l180 209h119l-234 -289h-141z" />
    <glyph glyph-name="Gcircumflex" unicode="&#x11c;" horiz-adv-x="1517" 
d="M1397 0h-101l-18 266h-4q-71 -150 -202 -221q-131 -72 -304 -73q-172 0 -302 62t-216 166q-172 209 -172 530t172 533q86 105 216 167t274 63q393 0 563 -274q55 -90 75 -211h-139q-13 137 -144 251q-131 115 -327 115q-274 0 -421 -202q-130 -177 -130 -440t130 -442
q149 -202 421 -202q238 0 374 149t132 388h-498v118h621v-743zM907 1595l-176 209l-180 -209h-117l232 289h141l233 -289h-133z" />
    <glyph glyph-name="gcircumflex" unicode="&#x11d;" 
d="M283 251q96 -130 258 -130t254 123t92 298t-85 306t-256 131t-265 -137q-82 -116 -82 -298t84 -293zM1016 86q0 -375 -251 -471q-89 -35 -193 -35q-200 0 -326 82t-137 238h129q27 -162 204 -200q51 -11 105 -11q180 0 260 102t80 295v143h-4q-45 -98 -132 -157
q-87 -60 -209 -60q-235 -1 -354 151q-120 151 -119 385t128 388q127 153 350 151q172 0 283 -131q34 -39 53 -82h4v183h129v-971zM713 1196l-176 209l-181 -209h-116l231 289h141l234 -289h-133z" />
    <glyph glyph-name="Gbreve" unicode="&#x11e;" horiz-adv-x="1517" 
d="M1397 0h-101l-18 266h-4q-71 -150 -202 -221q-131 -72 -304 -73q-172 0 -302 62t-216 166q-172 209 -172 530t172 533q86 105 216 167t274 63q393 0 563 -274q55 -90 75 -211h-139q-13 137 -144 251q-131 115 -327 115q-274 0 -421 -202q-130 -177 -130 -440t130 -442
q149 -202 421 -202q238 0 374 149t132 388h-498v118h621v-743zM732 1595q-124 0 -201 68t-87 192h80q2 -41 21 -72q53 -95 207 -95q58 0 122 44q63 44 76 123h80q-16 -123 -95 -191t-203 -69z" />
    <glyph glyph-name="gbreve" unicode="&#x11f;" 
d="M283 251q96 -130 258 -130t254 123t92 298t-85 306t-256 131t-265 -137q-82 -116 -82 -298t84 -293zM1016 86q0 -375 -251 -471q-89 -35 -193 -35q-200 0 -326 82t-137 238h129q27 -162 204 -200q51 -11 105 -11q180 0 260 102t80 295v143h-4q-45 -98 -132 -157
q-87 -60 -209 -60q-235 -1 -354 151q-120 151 -119 385t128 388q127 153 350 151q172 0 283 -131q34 -39 53 -82h4v183h129v-971zM558 1288q58 0 122 44q63 44 76 124h80q-16 -124 -96 -192t-202 -68q-124 0 -201 68t-87 192h80q2 -41 20 -73q53 -95 208 -95z" />
    <glyph glyph-name="Gdotaccent" unicode="&#x120;" horiz-adv-x="1517" 
d="M1397 0h-101l-18 266h-4q-71 -150 -202 -221q-131 -72 -304 -73q-172 0 -302 62t-216 166q-172 209 -172 530t172 533q86 105 216 167t274 63q393 0 563 -274q55 -90 75 -211h-139q-13 137 -144 251q-131 115 -327 115q-274 0 -421 -202q-130 -177 -130 -440t130 -442
q149 -202 421 -202q238 0 374 149t132 388h-498v118h621v-743zM668 1802h139v-207h-139v207z" />
    <glyph glyph-name="gdotaccent" unicode="&#x121;" 
d="M283 251q96 -130 258 -130t254 123t92 298t-85 306t-256 131t-265 -137q-82 -116 -82 -298t84 -293zM1016 86q0 -375 -251 -471q-89 -35 -193 -35q-200 0 -326 82t-137 238h129q27 -162 204 -200q51 -11 105 -11q180 0 260 102t80 295v143h-4q-45 -98 -132 -157
q-87 -60 -209 -60q-235 -1 -354 151q-120 151 -119 385t128 388q127 153 350 151q172 0 283 -131q34 -39 53 -82h4v183h129v-971zM473 1403h139v-207h-139v207z" />
    <glyph glyph-name="Gcommaaccent" unicode="&#x122;" horiz-adv-x="1517" 
d="M846 -334q0 -151 -67.5 -208.5t-114.5 -69.5v88q47 14 74 75.5t22 116.5h-86v217h172v-219zM258 1272.5q180 220.5 510 220.5q366 0 478 -182.5t132 -302.5h-139q-13 134 -144 250t-327 116q-274 0 -412.5 -190.5t-138.5 -452.5t139 -452.5t412 -190.5q238 0 374 148.5
t132 388.5h-498v118h621v-743h-101l-18 266h-4q-70 -148 -203.5 -221.5t-304.5 -73.5q-170 0 -300 62.5t-259 219.5t-129 478t180 541.5z" />
    <glyph glyph-name="gcommaaccent" unicode="&#x123;" 
d="M461 1532q0 154 68.5 210t113.5 68v-88q-47 -17 -74 -76.5t-22 -115.5h86v-217h-172v219zM544 121q161 0 252 123t91 298t-84.5 306t-255 131t-259.5 -127.5t-89 -310.5q0 -278 129 -349t216 -71zM1016 86q0 -372 -170 -439t-274 -67q-200 0 -326 82t-137 238h129
q27 -162 141.5 -186.5t167.5 -24.5q180 0 260 102.5t80 294.5v143h-4q-45 -98 -132 -157.5t-209 -59.5q-236 0 -354 149.5t-118 385.5q0 235 126.5 387.5t350.5 152.5q170 0 243.5 -84.5t92.5 -128.5h4v183h129v-971z" />
    <glyph glyph-name="Hcircumflex" unicode="&#x124;" horiz-adv-x="1441" 
d="M147 1462h140v-635h868v635h139v-1462h-139v709h-868v-709h-140v1462zM891 1565l-176 209l-180 -209h-117l231 288h142l233 -288h-133z" />
    <glyph glyph-name="hcircumflex" unicode="&#x125;" horiz-adv-x="1099" 
d="M121 1462h129v-588h4q37 96 131 154t206 59q311 0 370 -237q18 -76 18 -170v-680h-129v659q0 320 -268 320q-149 0 -239 -102q-91 -102 -93 -261v-616h-129v1462zM719 1565l-176 209l-181 -209h-116l231 288h141l234 -288h-133z" />
    <glyph glyph-name="Hbar" unicode="&#x126;" horiz-adv-x="1441" 
d="M1155 827v234h-868v-234h868zM147 1169v293h140v-293h868v293h139v-293h213v-108h-213v-1061h-139v709h-868v-709h-140v1061h-192v108h192z" />
    <glyph glyph-name="hbar" unicode="&#x127;" horiz-adv-x="1099" 
d="M121 1319v143h129v-143h190v-109h-190v-336h4q37 96 131 154.5t206 58.5q212 0 300 -102t88 -305v-680h-129v659q0 231 -95.5 275.5t-209.5 44.5t-202.5 -102t-92.5 -261v-616h-129v1210h-209v109h209z" />
    <glyph glyph-name="Itilde" unicode="&#x128;" horiz-adv-x="454" 
d="M158 1462h139v-1462h-139v1462zM440 1592q-31 -17 -85 -17q-54 1 -114 33q-61 32 -91 46t-68 15q-37 0 -67 -27t-29 -77h-80q14 127 109 179q32 17 84 17q52 -1 114 -31q61 -30 91 -44t58 -15q78 0 107 98h78q-22 -131 -107 -177z" />
    <glyph glyph-name="itilde" unicode="&#x129;" horiz-adv-x="378" 
d="M125 0v1057h129v-1057h-129zM324 1272q77 0 106 98h78q-22 -131 -107 -177q-31 -17 -85 -17t-141 46q-88 46 -128 47q-41 1 -71 -26t-29 -78h-80q13 125 109 180q32 17 87 17t202 -76q30 -14 59 -14z" />
    <glyph glyph-name="Imacron" unicode="&#x12a;" horiz-adv-x="454" 
d="M158 1462h139v-1462h-139v1462zM-109 1657h672v-92h-672v92z" />
    <glyph glyph-name="imacron" unicode="&#x12b;" horiz-adv-x="378" 
d="M125 0v1057h129v-1057h-129zM-147 1257h671v-92h-671v92z" />
    <glyph glyph-name="Ibreve" unicode="&#x12c;" horiz-adv-x="454" 
d="M158 1462h139v-1462h-139v1462zM242 1657q58 0 123 44q63 44 75 124h80q-16 -123 -95 -192t-203 -69t-200 68t-88 193h80q2 -41 21 -73q53 -95 207 -95z" />
    <glyph glyph-name="ibreve" unicode="&#x12d;" horiz-adv-x="378" 
d="M125 0v1057h129v-1057h-129zM185 1165q-125 0 -201 68t-86 192h79q4 -77 62 -121t142 -46q83 0 147 44t75 123h80q-16 -123 -95 -191t-203 -69z" />
    <glyph glyph-name="Iogonek" unicode="&#x12e;" horiz-adv-x="454" 
d="M158 1462h139v-1458h-74q-4 -2 -7 -4h-58v1462zM297 4h4q-2 -2 -4 -3v3zM187 -430q-113 0 -155 47t-42 123t109 177q44 40 117 83h80q-144 -114 -170 -201q-7 -27 -7 -65q-1 -38 27 -61q28 -24 63 -23q64 0 113 84l59 -27q-82 -137 -194 -137zM296 0h1v1q0 -1 -1 -1z" />
    <glyph glyph-name="iogonek" unicode="&#x12f;" horiz-adv-x="378" 
d="M125 1057h129v-1053h-74q-4 -2 -7 -4h-48v1057zM125 1462h129v-207h-129v207zM254 4h4q-2 -2 -4 -3v3zM144 -430q-112 0 -154 47t-43 123q0 76 109 177q44 40 117 83h80q-144 -114 -170 -201q-7 -27 -7 -65t28 -61q28 -24 62 -23q64 0 113 84l59 -27q-82 -137 -194 -137z
M253 0h1v1q0 -1 -1 -1z" />
    <glyph glyph-name="Idot" unicode="&#x130;" horiz-adv-x="454" 
d="M158 1462h139v-1462h-139v1462zM158 1565v207h139v-207h-139z" />
    <glyph glyph-name="dotlessi" unicode="&#x131;" horiz-adv-x="378" 
d="M125 0v1057h129v-1057h-129z" />
    <glyph glyph-name="IJ" unicode="&#x132;" horiz-adv-x="1478" 
d="M158 1462h139v-1462h-139v1462zM1192 1462h139v-1054q0 -229 -98 -333t-328 -104t-330 153q-77 118 -77 345h139q2 -47 6 -113t29 -125q61 -143 246 -143q158 0 216 85t58 294v995z" />
    <glyph glyph-name="ij" unicode="&#x133;" horiz-adv-x="757" 
d="M125 1057h129v-1057h-129v1057zM125 1462h129v-207h-129v207zM633 -96q0 -296 -225 -293l-89 4v106q43 -5 68 -2q76 0 96 44t21 110v1184h129v-1153zM504 1462h129v-207h-129v207z" />
    <glyph glyph-name="Jcircumflex" unicode="&#x134;" horiz-adv-x="1024" 
d="M737 1462h140v-1054q0 -228 -98 -333q-98 -104 -329 -104q-230 0 -329 153q-78 120 -78 345h139q2 -47 6 -113t29 -125q61 -143 246 -143q158 0 216 85t58 294v995zM1130 1542h-133l-176 209l-180 -209h-117l232 289h141z" />
    <glyph glyph-name="jcircumflex" unicode="&#x135;" horiz-adv-x="378" 
d="M352 1204l-176 209l-180 -209h-117l232 289h141l233 -289h-133zM125 -127v1184h129v-1153q0 -138 -50.5 -215.5t-174.5 -77.5l-88 4v106q43 -5 67 -2q76 0 96.5 44t20.5 110z" />
    <glyph glyph-name="Kcommaaccent" unicode="&#x136;" horiz-adv-x="1327" 
d="M743 -334q0 -153 -67.5 -209.5t-114.5 -68.5v88q49 14 75 76t21 116h-86v217h172v-219zM287 1462v-786l850 786h188l-653 -604l684 -858h-180l-609 762l-280 -260v-502h-140v1462h140z" />
    <glyph glyph-name="kcommaaccent" unicode="&#x137;" horiz-adv-x="1024" 
d="M641 -334q0 -151 -67.5 -208.5t-114.5 -69.5v88q47 14 74 75.5t22 116.5h-86v217h172v-219zM252 1462v-917l586 512h172l-451 -391l481 -666h-161l-418 575l-209 -174v-401h-129v1462h129z" />
    <glyph glyph-name="kgreenlandic" unicode="&#x138;" horiz-adv-x="1024" 
d="M252 1057v-512l586 512h172l-451 -391l481 -666h-161l-418 575l-209 -174v-401h-129v1057h129z" />
    <glyph glyph-name="Lacute" unicode="&#x139;" horiz-adv-x="1099" 
d="M147 1462h140v-1343h819v-119h-959v1462zM438 1565l215 288h160l-270 -288h-105z" />
    <glyph glyph-name="lacute" unicode="&#x13a;" horiz-adv-x="378" 
d="M125 1462h129v-1462h-129v1462zM0 1565l215 288h160l-271 -288h-104z" />
    <glyph glyph-name="Lcommaaccent" unicode="&#x13b;" horiz-adv-x="1099" 
d="M641 -334q0 -151 -67.5 -208.5t-114.5 -69.5v88q47 14 74 75.5t22 116.5h-86v217h172v-219zM287 1462v-1343h819v-119h-959v1462h140z" />
    <glyph glyph-name="lcommaaccent" unicode="&#x13c;" horiz-adv-x="378" 
d="M272 -334q0 -153 -67.5 -209.5t-114.5 -68.5v88q49 14 75 76t21 116h-86v217h172v-219zM254 1462v-1462h-129v1462h129z" />
    <glyph glyph-name="Lcaron" unicode="&#x13d;" horiz-adv-x="1099" 
d="M287 1462v-1343h819v-119h-959v1462h140zM750 1462h102v-573h-102v573z" />
    <glyph glyph-name="lcaron" unicode="&#x13e;" horiz-adv-x="573" 
d="M254 1462v-1462h-129v1462h129zM434 1462h103v-573h-103v573z" />
    <glyph glyph-name="Ldot" unicode="&#x13f;" horiz-adv-x="1099" 
d="M670 831h172v-217h-172v217zM287 1462v-1343h819v-119h-959v1462h140z" />
    <glyph glyph-name="ldot" unicode="&#x140;" horiz-adv-x="747" 
d="M424 831h172v-217h-172v217zM254 1462v-1462h-129v1462h129z" />
    <glyph glyph-name="Lslash" unicode="&#x141;" horiz-adv-x="1099" 
d="M147 1462h140v-739l497 344v-115l-497 -342v-491h819v-119h-959v514l-165 -117v115l165 115v835z" />
    <glyph glyph-name="lslash" unicode="&#x142;" horiz-adv-x="378" 
d="M125 1462h129v-547l137 113v-113l-137 -112v-803h-129v696l-135 -112v112l135 113v653z" />
    <glyph glyph-name="Nacute" unicode="&#x143;" horiz-adv-x="1441" 
d="M635 1579l215 289h160l-271 -289h-104zM1157 225v1237h139v-1462h-155l-852 1237h-4v-1237h-140v1462h156l852 -1237h4z" />
    <glyph glyph-name="nacute" unicode="&#x144;" horiz-adv-x="1099" 
d="M424 1204l215 289h160l-271 -289h-104zM250 1057v-183h4q37 96 131 154.5t206 58.5q212 0 300 -102t88 -305v-680h-129v659q0 231 -95.5 275.5t-209.5 44.5t-202.5 -102t-92.5 -261v-616h-129v1057h129z" />
    <glyph glyph-name="Ncommaaccent" unicode="&#x145;" horiz-adv-x="1441" 
d="M805 -334q0 -151 -67.5 -208.5t-114.5 -69.5v88q47 14 74 75.5t22 116.5h-86v217h172v-219zM1157 225v1237h139v-1462h-155l-852 1237h-4v-1237h-140v1462h156l852 -1237h4z" />
    <glyph glyph-name="ncommaaccent" unicode="&#x146;" horiz-adv-x="1099" 
d="M641 -334q0 -151 -67.5 -208.5t-114.5 -69.5v88q47 14 74 75.5t22 116.5h-86v217h172v-219zM250 1057v-183h4q37 96 131 154.5t206 58.5q212 0 300 -102t88 -305v-680h-129v659q0 231 -95.5 275.5t-209.5 44.5t-202.5 -102t-92.5 -261v-616h-129v1057h129z" />
    <glyph glyph-name="Ncaron" unicode="&#x147;" horiz-adv-x="1441" 
d="M145 1462h156l852 -1237h4v1237h139v-1462h-155l-852 1237h-4v-1237h-140v1462zM438 1882h131l176 -209l181 209h118l-233 -289h-141z" />
    <glyph glyph-name="ncaron" unicode="&#x148;" horiz-adv-x="1099" 
d="M121 1057h129v-183h4q37 96 131 154t206 59q311 0 370 -237q18 -76 18 -170v-680h-129v659q0 320 -268 320q-149 0 -239 -102q-91 -102 -93 -261v-616h-129v1057zM291 1511h131l176 -208l180 208h119l-233 -288h-142z" />
    <glyph glyph-name="napostrophe" unicode="&#x149;" horiz-adv-x="1429" 
d="M346 1475v-220q0 -151 -101 -237q-34 -29 -81 -41v88q45 13 73 76t23 116h-86v218h172zM1180 659q0 320 -269 320q-148 0 -238 -102q-91 -102 -93 -261v-616h-129v1057h129v-183h4q37 96 131 154t206 59q212 0 306 -109q80 -92 82 -298v-680h-129v659z" />
    <glyph glyph-name="Eng" unicode="&#x14a;" horiz-adv-x="1441" 
d="M285 0h-140v1462h156l856 -1237v1237h135v-1558q0 -138 -49.5 -215.5t-175.5 -77.5l-88 4v106q43 -5 68 -2q76 0 96 44t20 110l-22 127l-856 1237v-1237z" />
    <glyph glyph-name="eng" unicode="&#x14b;" horiz-adv-x="1087" 
d="M850 -127v786q0 231 -95.5 275.5t-209.5 44.5t-202.5 -102t-92.5 -261v-616h-129v1057h129v-183h4q37 96 131 154.5t206 58.5q212 0 300 -102t88 -305v-776q0 -138 -50.5 -215.5t-174.5 -77.5l-88 4v106q43 -5 67 -2q76 0 96.5 44t20.5 110z" />
    <glyph glyph-name="Omacron" unicode="&#x14c;" horiz-adv-x="1517" 
d="M760 1493q329 0 516 -230q172 -210 172 -532t-172 -530q-189 -228 -516 -230q-172 1 -302 63t-216 166q-172 209 -172 530t172 533q86 105 216 167t302 63zM339 1172q-130 -177 -130 -440t130 -442q149 -202 421 -202t419 202q130 177 130 441t-130 441
q-149 202 -421 202t-419 -202zM422 1688h672v-93h-672v93z" />
    <glyph glyph-name="omacron" unicode="&#x14d;" 
d="M940 922q129 -156 129 -394t-132 -397q-131 -160 -367 -160q-235 0 -369 161q-133 161 -132 398t134 397t364 160q232 0 373 -165zM570 78q92 0 161 39q137 76 185 247q24 80 24 164q0 177 -98 314t-273 137q-91 0 -161 -39q-135 -76 -185 -243q-49 -167 0 -335
q49 -169 185 -245q70 -39 162 -39zM233 1288h672v-92h-672v92z" />
    <glyph glyph-name="Obreve" unicode="&#x14e;" horiz-adv-x="1517" 
d="M760 1493q329 0 516 -230q172 -210 172 -532t-172 -530q-189 -228 -516 -230q-172 1 -302 63t-216 166q-172 209 -172 530t172 533q86 105 216 167t302 63zM339 1172q-130 -177 -130 -440t130 -442q149 -202 421 -202t419 202q130 177 130 441t-130 441
q-149 202 -421 202t-419 -202zM774 1688q58 0 121 44t76 123h80q-15 -123 -95 -191t-204 -69q-124 0 -200 68q-77 68 -87 192h80q2 -41 20 -72q54 -95 209 -95z" />
    <glyph glyph-name="obreve" unicode="&#x14f;" 
d="M940 922q129 -156 129 -394t-132 -397q-131 -160 -367 -160q-235 0 -369 161q-133 161 -132 398t134 397t364 160q232 0 373 -165zM570 78q92 0 161 39q137 76 185 247q24 80 24 164q0 177 -98 314t-273 137q-91 0 -161 -39q-135 -76 -185 -243q-49 -167 0 -335
q49 -169 185 -245q70 -39 162 -39zM584 1288q58 0 123 44q63 44 75 124h80q-16 -124 -95 -192t-203 -68t-200 68t-88 192h80q2 -41 21 -73q53 -95 207 -95z" />
    <glyph glyph-name="Ohungarumlaut" unicode="&#x150;" horiz-adv-x="1517" 
d="M760 1493q329 0 516 -230q172 -210 172 -532t-172 -530q-189 -228 -516 -230q-172 1 -302 63t-216 166q-172 209 -172 530t172 533q86 105 216 167t302 63zM339 1172q-130 -177 -130 -440t130 -442q149 -202 421 -202t419 202q130 177 130 441t-130 441
q-149 202 -421 202t-419 -202zM731 1876h156l-258 -289h-103zM1051 1876h155l-258 -289h-104z" />
    <glyph glyph-name="ohungarumlaut" unicode="&#x151;" 
d="M940 922q129 -156 129 -394t-132 -397q-131 -160 -367 -160q-235 0 -369 161q-133 161 -132 398t134 397t364 160q232 0 373 -165zM570 78q92 0 161 39q137 76 185 247q24 80 24 164q0 177 -98 314t-273 137q-91 0 -161 -39q-135 -76 -185 -243q-49 -167 0 -335
q49 -169 185 -245q70 -39 162 -39zM520 1477h156l-258 -289h-103zM840 1477h155l-258 -289h-104z" />
    <glyph glyph-name="OE" unicode="&#x152;" horiz-adv-x="2199" 
d="M1165 1042q0 94 -10 136q-34 88 -153.5 142t-242.5 54q-124 0 -227.5 -52t-174 -140t-106.5 -205t-36 -317.5t148.5 -386t404.5 -185.5q113 0 201 35t159 127q32 40 37 112v680zM1165 143q-147 -172 -423 -172q-136 0 -265 60.5t-218 165t-136 243t-47 292t47 291.5
t136 242.5t218 166t291 61.5q262 0 397 -152v121h971v-119h-831v-528h753v-119h-753v-577h837v-119h-977v143z" />
    <glyph glyph-name="oe" unicode="&#x153;" horiz-adv-x="1820" 
d="M281.5 841q-78.5 -138 -78.5 -337q0 -283 123 -354.5t218 -71.5t155.5 41t94 107.5t46 148.5t12.5 161.5t-12.5 158.5t-68 181.5t-233.5 102.5t-256.5 -138zM1298 -29q-131 0 -236.5 67.5t-139.5 199.5h-4q-39 -135 -140.5 -201t-232.5 -66t-219 45t-144.5 122t-82 178.5
t-25.5 274.5t121.5 334.5t349.5 161.5q135 0 235.5 -62t141.5 -198h4q43 117 145.5 188.5t243.5 71.5q236 0 344 -149.5t108 -443.5h-786q0 -171 84.5 -293.5t245.5 -122.5q253 0 325 262h129q-43 -180 -162.5 -274.5t-304.5 -94.5zM1638 602q0 156 -86.5 266.5
t-241.5 110.5t-242 -108.5t-87 -268.5h657z" />
    <glyph glyph-name="Racute" unicode="&#x154;" horiz-adv-x="1366" 
d="M147 1462h670q303 0 409 -210q36 -74 36 -192t-72 -220t-213 -131v-4q196 -27 238 -208q17 -72 22 -207q8 -222 63 -290h-153q-23 39 -28 91q-5 53 -7 83t-5 81q-11 184 -51 264q-68 137 -241 130h-528v-649h-140v1462zM287 768h520q135 0 226 79t90 210t-79 209t-237 77
h-520v-575zM535 1565l215 288h159l-270 -288h-104z" />
    <glyph glyph-name="racute" unicode="&#x155;" horiz-adv-x="645" 
d="M123 1057h119v-248h4q49 129 152 199t247 63v-129q-172 8 -283 -101q-110 -108 -110 -278v-563h-129v1057zM195 1186l215 289h159l-270 -289h-104z" />
    <glyph glyph-name="Rcommaaccent" unicode="&#x156;" horiz-adv-x="1366" 
d="M743 -334q0 -153 -67.5 -209.5t-114.5 -68.5v88q49 14 75 76t21 116h-86v217h172v-219zM817 1462q193 0 319 -96t126 -285q0 -139 -72 -241.5t-213 -130.5v-4q195 -27 225 -151.5t33.5 -223.5t13.5 -189.5t51 -140.5h-153q-23 38 -28 90.5t-7 83.5t-5 81
q-11 181 -64.5 291t-227.5 103h-528v-649h-140v1462h670zM807 768q133 0 224 78.5t91 209.5q0 132 -77.5 209.5t-237.5 77.5h-520v-575h520z" />
    <glyph glyph-name="rcommaaccent" unicode="&#x157;" horiz-adv-x="645" 
d="M272 -334q0 -153 -67.5 -209.5t-114.5 -68.5v88q49 14 75 76t21 116h-86v217h172v-219zM242 1057v-248h4q49 129 152.5 198.5t246.5 63.5v-129q-171 8 -282 -101t-111 -278v-563h-129v1057h119z" />
    <glyph glyph-name="Rcaron" unicode="&#x158;" horiz-adv-x="1366" 
d="M147 1462h670q303 0 409 -210q36 -74 36 -192t-72 -220t-213 -131v-4q196 -27 238 -208q17 -72 22 -207q8 -222 63 -290h-153q-23 39 -28 91q-5 53 -7 83t-5 81q-11 184 -51 264q-68 137 -241 130h-528v-649h-140v1462zM287 768h520q135 0 226 79t90 210t-79 209t-237 77
h-520v-575zM393 1872h131l176 -209l181 209h118l-233 -289h-141z" />
    <glyph glyph-name="rcaron" unicode="&#x159;" horiz-adv-x="645" 
d="M123 1057h119v-248h4q49 129 152 199t247 63v-129q-172 8 -283 -101q-110 -108 -110 -278v-563h-129v1057zM98 1516h131l177 -209l180 209h119l-234 -289h-141z" />
    <glyph glyph-name="Sacute" unicode="&#x15a;" horiz-adv-x="1290" 
d="M559 1579l215 289h160l-270 -289h-105zM953.5 164.5q123.5 76.5 123.5 229.5q0 185 -301 255l-325 80q-156 40 -243 119t-87 231t115.5 283t388.5 131q232 0 386 -120.5t154 -334.5h-139q-8 159 -121.5 247.5t-277.5 88.5q-250 0 -308.5 -105t-58.5 -171
q0 -112 60 -163.5t161 -74.5l357 -88q273 -70 326 -182t53 -170t-5.5 -98.5t-25 -87t-55 -93.5t-98 -85t-155 -61.5t-294 -23.5t-361.5 127t-149 383h139q-4 -211 126.5 -302t328.5 -91q162 0 285.5 76.5z" />
    <glyph glyph-name="sacute" unicode="&#x15b;" horiz-adv-x="985" 
d="M387 1204l215 289h160l-270 -289h-105zM304 935.5q-75 -43.5 -75 -144.5t93.5 -132.5t126.5 -40.5l172 -38q121 -18 211 -91.5t90 -201.5q0 -158 -126 -237t-305 -79t-295 88t-133 283h130q8 -131 95 -197.5t207 -66.5t181 34.5t89 72t28 89.5q0 89 -64 131t-168 66
l-166 37q-141 36 -195.5 79.5t-77 89.5t-22.5 120q0 144 120 217t278 73q259 0 321 -126.5t66 -212.5h-129q-4 115 -81.5 173t-186.5 58t-184 -43.5z" />
    <glyph glyph-name="Scircumflex" unicode="&#x15c;" horiz-adv-x="1290" 
d="M1077 385q0 114 -99 182q-69 49 -202 82l-325 80q-154 39 -230 107q-102 93 -100 245q0 253 252 368q97 44 229 44q250 0 407 -120q156 -120 156 -335h-139q-8 159 -123 248q-115 90 -276 88q-250 0 -336 -153q-31 -55 -31 -122q0 -156 136 -212q40 -16 85 -27l357 -88
q272 -70 349 -231q30 -63 30 -154q0 -135 -82 -242q-133 -174 -477 -174q-130 0 -240 30q-228 62 -308 249q-42 96 -36 231h139q-7 -388 477 -393q143 0 251 69q136 84 136 228zM811 1595l-176 209l-180 -209h-117l231 289h142l233 -289h-133z" />
    <glyph glyph-name="scircumflex" unicode="&#x15d;" horiz-adv-x="985" 
d="M229 801q0 -108 148 -161q39 -13 72 -22l172 -38q198 -29 274 -172q27 -51 27 -129q0 -79 -39 -139q-107 -166 -390 -168q-181 -1 -297 87t-133 283h130q8 -131 95 -198t216 -66q180 0 261 107q28 37 28 89q0 126 -147 172q-42 14 -85 25l-166 37q-135 34 -215 97
q-80 62 -80 199t129 216q109 67 269 67q260 0 352 -190q31 -63 35 -149h-129q-2 59 -25 103q-67 128 -242 128t-237 -96q-23 -35 -23 -82zM662 1196l-177 209l-180 -209h-117l232 289h141l234 -289h-133z" />
    <glyph glyph-name="Scedilla" unicode="&#x15e;" horiz-adv-x="1290" 
d="M1077 385q0 114 -99 182q-69 49 -202 82l-325 80q-154 39 -230 107q-102 93 -100 245q0 253 252 368q97 44 229 44q250 0 407 -120q156 -120 156 -335h-139q-8 159 -123 248q-115 90 -276 88q-250 0 -336 -153q-31 -55 -31 -122q0 -156 136 -212q40 -16 85 -27l357 -88
q272 -70 349 -231q30 -63 30 -154q0 -135 -82 -242q-126 -164 -439 -173l4 5h-71l-5 -5q-401 11 -514 278q-42 96 -36 231h139q-7 -388 477 -393q143 0 251 69q136 84 136 228zM729 -280q0 82 -105 83q-51 0 -87 -16l-33 31l120 154h34h38l-86 -111q154 25 214 -51
q24 -29 24 -76q0 -87 -68 -131q-68 -45 -138 -45q-130 0 -210 43l27 65q76 -28 140 -28q130 0 130 82z" />
    <glyph glyph-name="scedilla" unicode="&#x15f;" horiz-adv-x="985" 
d="M229 801q0 -108 148 -161q39 -13 72 -22l172 -38q198 -29 274 -172q27 -51 27 -129q0 -79 -39 -139q-95 -148 -335 -167l3 4h-72l-4 -5q-171 5 -283 90t-129 280h130q8 -131 95 -198t216 -66q180 0 261 107q28 37 28 89q0 126 -147 172q-42 14 -85 25l-166 37
q-135 34 -215 97q-80 62 -80 199t129 216q109 67 269 67q260 0 352 -190q31 -63 35 -149h-129q-2 59 -25 103q-67 128 -242 128t-237 -96q-23 -35 -23 -82zM580 -280q0 82 -105 83q-51 0 -88 -16l-33 31l121 154h29t44 1l-87 -112q151 25 214 -51q23 -29 23 -76
q-1 -88 -68 -132q-68 -44 -137 -44q-130 0 -210 43l26 65q76 -28 140 -28q131 0 131 82z" />
    <glyph glyph-name="Scaron" unicode="&#x160;" horiz-adv-x="1290" 
d="M953.5 164.5q123.5 76.5 123.5 229.5q0 185 -301 255l-325 80q-156 40 -243 119t-87 231t115.5 283t388.5 131q232 0 386 -120.5t154 -334.5h-139q-8 159 -121.5 247.5t-277.5 88.5q-250 0 -308.5 -105t-58.5 -171q0 -112 60 -163.5t161 -74.5l357 -88q273 -70 326 -182
t53 -170t-5.5 -98.5t-25 -87t-55 -93.5t-98 -85t-155 -61.5t-294 -23.5t-361.5 127t-149 383h139q-4 -211 126.5 -302t328.5 -91q162 0 285.5 76.5zM342 1868h133l176 -209l180 209h119l-233 -289h-142z" />
    <glyph glyph-name="scaron" unicode="&#x161;" horiz-adv-x="985" 
d="M304 935.5q-75 -43.5 -75 -144.5t93.5 -132.5t126.5 -40.5l172 -38q121 -18 211 -91.5t90 -201.5q0 -158 -126 -237t-305 -79t-295 88t-133 283h130q8 -131 95 -197.5t207 -66.5t181 34.5t89 72t28 89.5q0 89 -64 131t-168 66l-166 37q-141 36 -195.5 79.5t-77 89.5
t-22.5 120q0 144 120 217t278 73q259 0 321 -126.5t66 -212.5h-129q-4 115 -81.5 173t-186.5 58t-184 -43.5zM188 1493h134l176 -209l180 209h119l-234 -289h-141z" />
    <glyph glyph-name="Tcedilla" unicode="&#x162;" 
d="M529 -340q130 0 128 88q-1 76 -105 78q-52 0 -87 -16l-33 30l125 160h82v1343h510v119h-1157v-119h508v-1343h129l-90 -117q151 25 214 -51q23 -29 23 -76q-1 -89 -74 -134q-64 -42 -132 -42q-128 0 -210 43l27 66q79 -29 142 -29z" />
    <glyph glyph-name="tcedilla" unicode="&#x163;" horiz-adv-x="606" 
d="M199 948h-185v109h185v317h129v-317h215v-109h-215v-712q0 -64 17 -100t79 -38t119 4v-108l-115 -4q-129 0 -180 50t-49 185v723zM238 -344q129 0 129 82t-105 84q-51 0 -88 -17l-33 31l125 160h72l-90 -117q151 25 214 -51q24 -29 24 -76q-1 -88 -69 -132t-137 -44
q-130 0 -210 43l26 66q79 -29 142 -29z" />
    <glyph glyph-name="Tcaron" unicode="&#x164;" 
d="M-8 1462h1157v-119h-510v-1343h-139v1343h-508v119zM272 1876h131l177 -209l180 209h119l-234 -289h-141z" />
    <glyph glyph-name="tcaron" unicode="&#x165;" horiz-adv-x="606" 
d="M199 948h-185v109h185v317h129v-317h215v-109h-215v-712q0 -63 17 -99.5t79 -38.5t119 4v-108l-115 -4q-129 0 -180 50t-49 185v723zM659 1456q0 -153 -67.5 -209.5t-112.5 -68.5v88q45 14 72 75.5t22 114.5h-65v217h151v-217z" />
    <glyph glyph-name="Tbar" unicode="&#x166;" 
d="M500 930v413h-508v119h1157v-119h-510v-413h283v-109h-283v-821h-139v821h-312v109h312z" />
    <glyph glyph-name="tbar" unicode="&#x167;" horiz-adv-x="606" 
d="M199 616h-185v109h185v223h-185v109h185v317h129v-317h215v-109h-215v-223h215v-109h-215v-380q0 -63 17 -99.5t79 -38.5t119 4v-108l-115 -4q-129 0 -180 50t-49 185v391z" />
    <glyph glyph-name="Utilde" unicode="&#x168;" horiz-adv-x="1402" 
d="M133 1462h139v-905q0 -362 248 -443q80 -26 181 -26q211 0 321 112t108 357v905h140v-936q0 -243 -140 -399t-430 -156q-289 0 -435 164q-132 145 -132 391v936zM913 1592q-31 -17 -85 -17q-54 1 -114 33q-62 32 -92 46t-67 15q-37 0 -67 -27t-29 -77h-80q14 127 109 179
q32 17 84 17q52 -1 114 -31t92 -44t58 -15q77 0 106 98h78q-22 -131 -107 -177z" />
    <glyph glyph-name="utilde" unicode="&#x169;" horiz-adv-x="1099" 
d="M121 371v686h129v-688q4 -143 66 -217t217 -74t241 131q74 112 76 293v555h129v-1057h-119v190h-4q-51 -106 -148 -162t-216 -57q-371 0 -371 400zM684 1272q78 0 107 98h77q-22 -130 -106 -177q-31 -17 -86 -17t-141 46t-127 47t-71 -26t-30 -78h-80q13 124 110 180
q31 17 83 17t114 -30t92 -46q30 -14 58 -14z" />
    <glyph glyph-name="Umacron" unicode="&#x16a;" horiz-adv-x="1402" 
d="M133 1462h139v-905q0 -362 248 -443q80 -26 181 -26q211 0 321 112t108 357v905h140v-936q0 -243 -140 -399t-430 -156q-289 0 -435 164q-132 145 -132 391v936zM365 1657h671v-92h-671v92z" />
    <glyph glyph-name="umacron" unicode="&#x16b;" horiz-adv-x="1099" 
d="M121 371v686h129v-688q4 -143 66 -217t217 -74t241 131q74 112 76 293v555h129v-1057h-119v190h-4q-51 -106 -148 -162t-216 -57q-371 0 -371 400zM213 1257h672v-92h-672v92z" />
    <glyph glyph-name="Ubreve" unicode="&#x16c;" horiz-adv-x="1402" 
d="M133 1462h139v-905q0 -362 248 -443q80 -26 181 -26q211 0 321 112t108 357v905h140v-936q0 -243 -140 -399t-430 -156q-289 0 -435 164q-132 145 -132 391v936zM508 1752q53 -95 208 -95q58 0 122 44q63 44 75 124h80q-16 -123 -95 -192t-203 -69q-125 0 -201 68
t-86 193h79q2 -41 21 -73z" />
    <glyph glyph-name="ubreve" unicode="&#x16d;" horiz-adv-x="1099" 
d="M121 371v686h129v-688q4 -143 66 -217t217 -74t241 131q74 112 76 293v555h129v-1057h-119v190h-4q-51 -106 -148 -162t-216 -57q-371 0 -371 400zM544 1165q-124 0 -201 68t-87 192h80q4 -78 62 -122t141 -45q84 0 147 44t76 123h80q-16 -123 -96 -191q-78 -68 -202 -69
z" />
    <glyph glyph-name="Uring" unicode="&#x16e;" horiz-adv-x="1402" 
d="M133 1462h139v-905q0 -362 248 -443q80 -26 181 -26q211 0 321 112t108 357v905h140v-936q0 -243 -140 -399t-430 -156q-289 0 -435 164q-132 145 -132 391v936zM494 1738q0 94 62 155t155 62q92 1 154 -63q63 -64 64 -154q1 -92 -63 -156t-156 -64q-90 0 -153 63
t-63 157zM571 1737q0 -59 40 -99q39 -40 99 -41q60 0 100 40q40 39 40 99t-40 100t-99 40t-99 -40t-41 -99z" />
    <glyph glyph-name="uring" unicode="&#x16f;" horiz-adv-x="1099" 
d="M121 371v686h129v-688q4 -143 66 -217t217 -74t241 131q74 112 76 293v555h129v-1057h-119v190h-4q-51 -106 -148 -162t-216 -57q-371 0 -371 400zM782 1405q0 -91 -64 -155t-156 -64t-154 64t-62 156q0 93 64 156q64 62 154 62t154 -64t64 -155zM424 1405q0 -59 40 -99
t99 -40t100 40q40 40 39 99q0 59 -39 99t-99 40t-100 -40t-40 -99z" />
    <glyph glyph-name="Uhungarumlaut" unicode="&#x170;" horiz-adv-x="1402" 
d="M133 1462h139v-905q0 -362 248 -443q80 -26 181 -26q211 0 321 112t108 357v905h140v-936q0 -243 -140 -399t-430 -156q-289 0 -435 164q-132 145 -132 391v936zM612 1864h156l-258 -289h-102zM932 1864h155l-258 -289h-104z" />
    <glyph glyph-name="uhungarumlaut" unicode="&#x171;" horiz-adv-x="1099" 
d="M121 371v686h129v-688q4 -143 66 -217t217 -74t241 131q74 112 76 293v555h129v-1057h-119v190h-4q-51 -106 -148 -162t-216 -57q-371 0 -371 400zM446 1503h156l-258 -289h-102zM766 1503h156l-258 -289h-105z" />
    <glyph glyph-name="Uogonek" unicode="&#x172;" horiz-adv-x="1402" 
d="M546.5 -409.5q-42.5 47.5 -42.5 123.5t109 176q43 39 114 82q-13 0 -27 -1q-287 0 -427 155.5t-140 399.5v936h139v-905q0 -364 164 -416.5t265 -52.5q212 0 320.5 111.5t108.5 357.5v905h140v-936q0 -244 -126.5 -384.5t-334.5 -164.5h6q-152 -119 -167 -175t-15 -94
t27.5 -61.5t62.5 -23.5q64 0 113 84l59 -26q-82 -138 -194 -138t-154.5 47.5z" />
    <glyph glyph-name="uogonek" unicode="&#x173;" horiz-adv-x="1099" 
d="M435 -457q-112 0 -154.5 47.5t-42.5 123.5t109 176q43 39 115 82q-260 13 -300.5 158.5t-40.5 240.5v686h129v-688q4 -143 66.5 -217t216.5 -74t235.5 123t81.5 301v555h129v-1057h-119v190h-4q-51 -106 -137 -156t-174 -60q-148 -115 -163 -171.5t-15 -94.5t27.5 -61.5
t62.5 -23.5q66 0 112 84l60 -26q-82 -138 -194 -138z" />
    <glyph glyph-name="Wcircumflex" unicode="&#x174;" horiz-adv-x="1857" 
d="M0 1462h150l331 -1280h4l357 1280h174l358 -1280h4l334 1280h139l-403 -1462h-148l-370 1309h-4l-369 -1309h-151zM1096 1565l-176 209l-181 -209h-116l231 288h141l234 -288h-133z" />
    <glyph glyph-name="wcircumflex" unicode="&#x175;" horiz-adv-x="1517" 
d="M16 1057h138l270 -905h4l258 905h145l259 -905h4l270 905h137l-340 -1057h-141l-260 889h-4l-258 -889h-142zM928 1165l-176 209l-181 -209h-116l231 289h141l234 -289h-133z" />
    <glyph glyph-name="Ycircumflex" unicode="&#x176;" horiz-adv-x="1251" 
d="M694 0h-139v602l-573 860h163l482 -741l479 741h166l-578 -860v-602zM797 1565l-176 209l-181 -209h-116l231 288h141l234 -288h-133z" />
    <glyph glyph-name="ycircumflex" unicode="&#x177;" horiz-adv-x="948" 
d="M206 -281q94 0 144 99q14 31 31 67l45 119l-422 1053h137l348 -901l326 901h129l-459 -1217q-59 -138 -98 -172q-39 -35 -79 -46t-112 -9t-87 8v109q63 -11 97 -11zM643 1165l-176 209l-180 -209h-117l231 289h142l233 -289h-133z" />
    <glyph glyph-name="Ydieresis" unicode="&#x178;" horiz-adv-x="1251" 
d="M694 0h-139v602l-573 860h163l482 -741l479 741h166l-578 -860v-602zM737 1614v207h140v-207h-140zM375 1614v207h139v-207h-139z" />
    <glyph glyph-name="Zacute" unicode="&#x179;" horiz-adv-x="1175" 
d="M481 1579l215 289h160l-270 -289h-105zM1128 1462v-123l-962 -1220h983v-119h-1139v123l963 1220h-897v119h1052z" />
    <glyph glyph-name="zacute" unicode="&#x17a;" horiz-adv-x="948" 
d="M369 1204l215 289h159l-270 -289h-104zM913 109v-109h-882v104l690 844h-643v109h807v-92l-699 -856h727z" />
    <glyph glyph-name="Zdotaccent" unicode="&#x17b;" horiz-adv-x="1175" 
d="M518 1821h139v-207h-139v207zM1128 1462v-123l-962 -1220h983v-119h-1139v123l963 1220h-897v119h1052z" />
    <glyph glyph-name="zdotaccent" unicode="&#x17c;" horiz-adv-x="948" 
d="M403 1446h140v-207h-140v207zM913 109v-109h-882v104l690 844h-643v109h807v-92l-699 -856h727z" />
    <glyph glyph-name="Zcaron" unicode="&#x17d;" horiz-adv-x="1175" 
d="M76 1462h1052v-123l-962 -1220h983v-119h-1139v123l963 1220h-897v119zM285 1868h133l176 -209l180 209h119l-234 -289h-141z" />
    <glyph glyph-name="zcaron" unicode="&#x17e;" horiz-adv-x="948" 
d="M913 109v-109h-882v104l690 844h-643v109h807v-92l-699 -856h727zM170 1493h133l176 -209l180 209h119l-233 -289h-142z" />
    <glyph glyph-name="longs" unicode="&#x17f;" horiz-adv-x="530" 
d="M446 1354q-79 0 -101.5 -48t-22.5 -157v-1149h-129v948h-181v109h181v96q0 153 54 231t202 78q46 0 108 -8v-111q-75 11 -111 11z" />
    <glyph glyph-name="uni018E" unicode="&#x18e;" horiz-adv-x="1214" 
d="M158 0v119h870v528h-815v119h815v577h-881v119h1020v-1462h-1009z" />
    <glyph glyph-name="uni018F" unicode="&#x18f;" horiz-adv-x="1458" 
d="M217 657q0 -227 140 -398t366 -171q238 0 371 162.5t151 406.5h-1028zM1224.5 1276q164.5 -217 164.5 -543t-175 -544t-503 -218q-290 0 -465.5 208.5t-175.5 596.5h1177q-22 411 -202.5 504.5t-332.5 93.5t-285 -103t-177 -251h-139q46 216 220.5 344.5t370.5 128.5
q358 0 522.5 -217z" />
    <glyph glyph-name="florin" unicode="&#x192;" 
d="M877 1462q45 0 127 -10l-25 -106q-137 24 -202.5 -26.5t-85 -140t-32.5 -143.5l-28 -137h231l-18 -108h-232l-125 -662q-18 -92 -35.5 -179t-79 -196.5t-266.5 -105.5q-35 0 -92 10l19 111q128 -29 172.5 2.5t71 72.5t51.5 142l153 805h-205l19 108h207l26 141
q18 80 37 157t76 171t236 94z" />
    <glyph glyph-name="Ohorn" unicode="&#x1a0;" horiz-adv-x="1724" 
d="M348.5 277.5q139.5 -189.5 411 -189.5t410.5 190.5t139 452.5t-138.5 452.5t-411 190.5t-411.5 -189.5t-139 -453.5t139.5 -453.5zM1448 754q0 -174 -43 -311.5t-129 -242t-215 -167t-301 -62.5t-302 62.5t-216 167t-129 242t-43 289t43 288.5t180 305t466.5 168
t516.5 -231q45 -38 73.5 -49t71.5 -11q82 -2 104.5 65.5t22.5 194.5h119q0 -204 -47 -280t-184 -76q-37 0 -68 10q80 -188 80 -362z" />
    <glyph glyph-name="ohorn" unicode="&#x1a1;" horiz-adv-x="1341" 
d="M569.5 979q-92.5 0 -162 -39t-115.5 -102.5t-69.5 -144.5t-23.5 -165t23.5 -164.5t69.5 -144t115.5 -102.5t162 -39t162 39t115.5 102.5t69.5 144t23.5 164.5t-23.5 165t-69.5 144.5t-115.5 102.5t-162 39zM1069 538q0 -124 -32.5 -225.5t-96 -177.5t-157 -120t-214 -44
t-214 44t-157 120t-96 177.5t-32.5 216t32.5 216t134 222t322 120.5t350.5 -135q20 -18 39 -36t46 -41t91 -23t82.5 50t18.5 155h98q0 -145 -37 -215t-153 -70q-39 0 -74 12q49 -122 49 -246z" />
    <glyph glyph-name="uni01A2" unicode="&#x1a2;" horiz-adv-x="1460" 
d="M760 1374q-273 0 -412 -189.5t-139 -453.5t139.5 -453.5t411.5 -189.5q78 0 135 14v1258q-57 14 -135 14zM1174 1343h-140v-1320q-126 -51 -286 -51t-290 62t-259 219t-129 477q0 321 180 542t510 221q119 0 217 -31h336v-1851h-139v1732z" />
    <glyph glyph-name="uni01A3" unicode="&#x1a3;" horiz-adv-x="1177" 
d="M547 78q70 0 123 14v873q-43 14 -118 14t-144.5 -39t-115.5 -102.5t-69.5 -144.5t-23.5 -165t23.5 -164.5t69.5 -144t115.5 -102.5t139.5 -39zM555 1087q106 0 193 -30h309v-1446h-129v1337h-129v-925q-95 -51 -223 -51q-240 -1 -373 158t-133 399t96 354t189.5 159
t199.5 45z" />
    <glyph glyph-name="uni01A7" unicode="&#x1a7;" horiz-adv-x="1290" 
d="M68 391q0 163 102 249.5t276 131.5l357 88q101 23 161 74.5t60 141.5q0 160 -104.5 229t-265.5 69t-274.5 -88.5t-121.5 -247.5h-139q0 214 154 334.5t386 120.5q273 0 388.5 -130.5t115.5 -281.5q0 -226 -133 -281t-196 -71l-326 -80q-128 -30 -214.5 -90t-86.5 -174
q0 -144 155 -240t379 -46.5t278 159.5t52 223h139q11 -257 -149 -383.5t-415.5 -126.5t-377.5 74.5t-161 167t-39 178.5z" />
    <glyph glyph-name="uni01A8" unicode="&#x1a8;" horiz-adv-x="985" 
d="M765 1014q120 -73 120 -223q0 -174 -116 -220.5t-179 -62.5l-166 -37q-167 -39 -199 -92t-32 -104q0 -97 88 -147t209 -50q120 0 207 66.5t96 197.5h129q-16 -195 -132 -283t-303 -88q-276 0 -350 115t-74 193q0 136 88.5 208.5t213.5 92.5l172 38q147 36 183 86t36 97
q0 91 -75 134.5t-152 43.5q-141 0 -218.5 -58t-81.5 -173h-129q8 165 113 252t269 87q163 0 283 -73z" />
    <glyph glyph-name="Uhorn" unicode="&#x1af;" horiz-adv-x="1775" 
d="M1427 1106q-80 0 -157 65v-645q0 -244 -140 -399.5t-428 -155.5t-428.5 155.5t-140.5 399.5v936h139v-905q0 -364 164 -416.5t265 -52.5q212 0 320.5 111.5t108.5 357.5v905h140v-194q40 -40 74 -53t77 -13q82 -2 104.5 65.5t22.5 194.5h119q0 -204 -35 -260.5t-80 -76
t-125 -19.5z" />
    <glyph glyph-name="uhorn" unicode="&#x1b0;" horiz-adv-x="1384" 
d="M1094 772q-55 0 -115 35v-807h-119v190h-4q-51 -106 -148.5 -162.5t-215.5 -56.5q-371 0 -371 400v686h129v-688q4 -143 66.5 -217t216.5 -74t235.5 123t81.5 301v555h129v-170q7 -14 37.5 -24.5t64.5 -10.5q68 0 86.5 50t18.5 155h98q0 -145 -37 -215t-153 -70z" />
    <glyph glyph-name="uni01B5" unicode="&#x1b5;" horiz-adv-x="1175" 
d="M143 696v119h412l418 528h-897v119h1052v-123l-413 -524h336v-119h-430l-455 -577h983v-119h-1139v123l453 573h-320z" />
    <glyph glyph-name="uni01B6" unicode="&#x1b6;" horiz-adv-x="948" 
d="M156 500v108h286l279 340h-643v109h807v-92l-291 -357h211v-108h-299l-320 -391h727v-109h-882v104l323 396h-198z" />
    <glyph glyph-name="clickdental" unicode="&#x1c0;" horiz-adv-x="454" 
d="M174 1610h109v-2046h-109v2046z" />
    <glyph glyph-name="clicklateral" unicode="&#x1c1;" horiz-adv-x="909" 
d="M174 1610h109v-2046h-109v2046zM629 1610h108v-2046h-108v2046z" />
    <glyph glyph-name="clickretroflex" unicode="&#x1c3;" horiz-adv-x="493" 
d="M178 1462h139v-436l-30 -661h-78l-31 661v436zM162 0v217h172v-217h-172z" />
    <glyph glyph-name="DZcaron" unicode="&#x1c4;" horiz-adv-x="2578" 
d="M287 119h297q318 1 460 143t142 470t-144 470q-144 143 -458 141h-297v-1224zM147 1462h506q334 -8 503 -187t169 -544t-169 -544t-503 -187h-506v1462zM1479 1462h1052v-123l-962 -1220h983v-119h-1139v123l963 1220h-897v119zM1679 1853h131l177 -208l180 208h119
l-234 -288h-141z" />
    <glyph glyph-name="Dzcaron" unicode="&#x1c5;" horiz-adv-x="2351" 
d="M287 119h297q318 1 460 143t142 470t-144 470q-144 143 -458 141h-297v-1224zM147 1462h506q334 -8 503 -187t169 -544t-169 -544t-503 -187h-506v1462zM2316 109v-109h-882v104l690 844h-643v109h807v-92l-699 -856h727zM1571 1454h131l176 -209l180 209h119l-233 -289
h-142z" />
    <glyph glyph-name="dzcaron" unicode="&#x1c6;" horiz-adv-x="2123" 
d="M207 528q0 -294 188 -410q66 -40 163 -40t168 40q194 109 196 409t-196 412q-71 40 -168 40q-177 0 -270 -143q-81 -122 -81 -308zM1053 0h-119v201h-4q-41 -104 -148 -166t-229 -63q-121 -1 -210 43q-174 86 -237 299q-29 101 -28 214q0 241 122 400t353 159
q192 0 308 -131q38 -43 59 -100h4v606h129v-1462zM2089 109v-109h-883v104l690 844h-643v109h807v-92l-698 -856h727zM1343 1454h132l176 -209l180 209h119l-234 -289h-141z" />
    <glyph glyph-name="LJ" unicode="&#x1c7;" horiz-adv-x="2123" 
d="M147 1462h140v-1343h819v-119h-959v1462zM1837 1462h139v-1054q0 -229 -98 -333t-328 -104t-329 153q-78 120 -78 345h139q2 -47 6 -113t29 -125q61 -143 246 -143q158 0 216 85t58 294v995z" />
    <glyph glyph-name="Lj" unicode="&#x1c8;" horiz-adv-x="1478" 
d="M147 1462h140v-1343h819v-119h-959v1462zM1354 -96q0 -296 -226 -293l-88 4v106q43 -5 68 -2q76 0 96 44t21 110v1184h129v-1153zM1225 1462h129v-207h-129v207z" />
    <glyph glyph-name="lj" unicode="&#x1c9;" horiz-adv-x="757" 
d="M125 1462h129v-1462h-129v1462zM633 -96q0 -296 -225 -293l-89 4v106q43 -5 68 -2q76 0 96 44t21 110v1184h129v-1153zM504 1462h129v-207h-129v207z" />
    <glyph glyph-name="NJ" unicode="&#x1ca;" horiz-adv-x="2465" 
d="M145 1462h156l852 -1237h4v1237h139v-1462h-155l-852 1237h-4v-1237h-140v1462zM2179 1462h139v-1054q0 -229 -98 -333t-328 -104t-329 153q-78 120 -78 345h139q2 -47 6 -113t29 -125q61 -143 246 -143q158 0 216 85t58 294v995z" />
    <glyph glyph-name="Nj" unicode="&#x1cb;" horiz-adv-x="1820" 
d="M145 1462h156l852 -1237h4v1237h139v-1462h-155l-852 1237h-4v-1237h-140v1462zM1696 -96q0 -296 -226 -293l-88 4v106q43 -5 68 -2q76 0 96 44t21 110v1184h129v-1153zM1567 1462h129v-207h-129v207z" />
    <glyph glyph-name="nj" unicode="&#x1cc;" horiz-adv-x="1478" 
d="M121 1057h129v-183h4q37 96 131 154t206 59q311 0 370 -237q18 -76 18 -170v-680h-129v659q0 320 -268 320q-149 0 -239 -102q-91 -102 -93 -261v-616h-129v1057zM1354 -96q0 -296 -226 -293l-88 4v106q43 -5 68 -2q76 0 96 44t21 110v1184h129v-1153zM1225 1462h129
v-207h-129v207z" />
    <glyph glyph-name="Acaron" unicode="&#x1cd;" horiz-adv-x="1290" 
d="M575 1462h156l574 -1462h-150l-178 455h-666l-176 -455h-147zM354 573h576l-283 750zM342 1853h131l176 -208l180 208h119l-233 -288h-142z" />
    <glyph glyph-name="acaron" unicode="&#x1ce;" horiz-adv-x="1062" 
d="M799 578h-4q-16 -31 -104 -46q-87 -16 -174 -27q-322 -41 -322 -203q1 -107 69 -166q69 -58 154 -58q169 0 275 91t106 241v168zM111 733q23 354 420 354t397 -339v-562q0 -78 76 -77q23 0 40 8v-109q-46 -8 -89 -8q-122 0 -141 110q-5 34 -5 74h-4q-78 -114 -159 -163
q-80 -49 -226 -50q-245 0 -327 169q-27 58 -27 154t49 158t130 95t182 46t174 21t104 14q92 19 93 126q2 185 -168 216q-50 9 -108 9q-122 0 -200 -58t-82 -188h-129zM252 1485h131l176 -209l180 209h119l-233 -289h-142z" />
    <glyph glyph-name="Icaron" unicode="&#x1cf;" horiz-adv-x="454" 
d="M158 1462h139v-1462h-139v1462zM-76 1853h131l176 -208l181 208h118l-233 -288h-141z" />
    <glyph glyph-name="icaron" unicode="&#x1d0;" horiz-adv-x="378" 
d="M125 0v1057h129v-1057h-129zM-113 1454h131l177 -209l180 209h119l-234 -289h-141z" />
    <glyph glyph-name="Ocaron" unicode="&#x1d1;" horiz-adv-x="1517" 
d="M760 1493q329 0 516 -230q172 -210 172 -532t-172 -530q-189 -228 -516 -230q-172 1 -302 63t-216 166q-172 209 -172 530t172 533q86 105 216 167t302 63zM339 1172q-130 -177 -130 -440t130 -442q149 -202 421 -202t419 202q130 177 130 441t-130 441
q-149 202 -421 202t-419 -202zM455 1884h131l176 -209l180 209h119l-234 -289h-141z" />
    <glyph glyph-name="ocaron" unicode="&#x1d2;" 
d="M940 922q129 -156 129 -394t-132 -397q-131 -160 -367 -160q-235 0 -369 161q-133 161 -132 398t134 397t364 160q232 0 373 -165zM570 78q92 0 161 39q137 76 185 247q24 80 24 164q0 177 -98 314t-273 137q-91 0 -161 -39q-135 -76 -185 -243q-49 -167 0 -335
q49 -169 185 -245q70 -39 162 -39zM266 1485h131l176 -209l181 209h118l-233 -289h-141z" />
    <glyph glyph-name="Ucaron" unicode="&#x1d3;" horiz-adv-x="1402" 
d="M133 1462h139v-905q0 -362 248 -443q80 -26 181 -26q211 0 321 112t108 357v905h140v-936q0 -243 -140 -399t-430 -156q-289 0 -435 164q-132 145 -132 391v936zM397 1853h131l177 -208l180 208h119l-234 -288h-141z" />
    <glyph glyph-name="ucaron" unicode="&#x1d4;" horiz-adv-x="1099" 
d="M121 371v686h129v-688q4 -143 66 -217t217 -74t241 131q74 112 76 293v555h129v-1057h-119v190h-4q-51 -106 -148 -162t-216 -57q-371 0 -371 400zM246 1454h131l176 -209l180 209h119l-234 -289h-141z" />
    <glyph glyph-name="Udieresismacron" unicode="&#x1d5;" horiz-adv-x="1402" 
d="M133 1462h139v-905q0 -362 248 -443q80 -26 181 -26q211 0 321 112t108 357v905h140v-936q0 -243 -140 -399t-430 -156q-289 0 -435 164q-132 145 -132 391v936zM811 1565v207h139v-207h-139zM451 1565v207h137v-207h-137zM365 1874v92h671v-92h-671z" />
    <glyph glyph-name="udieresismacron" unicode="&#x1d6;" horiz-adv-x="1099" 
d="M121 371v686h129v-688q4 -143 66 -217t217 -74t241 131q74 112 76 293v555h129v-1057h-119v190h-4q-51 -106 -148 -162t-216 -57q-371 0 -371 400zM659 1165v207h140v-207h-140zM299 1165v207h137v-207h-137zM213 1468v93h672v-93h-672z" />
    <glyph glyph-name="Udieresisacute" unicode="&#x1d7;" horiz-adv-x="1402" 
d="M133 1462h139v-905q0 -362 248 -443q80 -26 181 -26q211 0 321 112t108 357v905h140v-936q0 -243 -140 -399t-430 -156q-289 0 -435 164q-132 145 -132 391v936zM811 1565v207h139v-207h-139zM451 1565v207h137v-207h-137zM764 1884h-105l215 289h160z" />
    <glyph glyph-name="udieresisacute" unicode="&#x1d8;" horiz-adv-x="1099" 
d="M121 371v686h129v-688q4 -143 66 -217t217 -74t241 131q74 112 76 293v555h129v-1057h-119v190h-4q-51 -106 -148 -162t-216 -57q-371 0 -371 400zM659 1165v207h140v-207h-140zM299 1165v207h137v-207h-137zM584 1468h-105l215 289h160z" />
    <glyph glyph-name="Udieresiscaron" unicode="&#x1d9;" horiz-adv-x="1402" 
d="M133 1462h139v-905q0 -362 248 -443q80 -26 181 -26q211 0 321 112t108 357v905h140v-936q0 -243 -140 -399t-430 -156q-289 0 -435 164q-132 145 -132 391v936zM811 1565v207h139v-207h-139zM451 1565v207h137v-207h-137zM397 2163h131l177 -209l180 209h119l-234 -289
h-141z" />
    <glyph glyph-name="udieresiscaron" unicode="&#x1da;" horiz-adv-x="1099" 
d="M121 371v686h129v-688q4 -143 66 -217t217 -74t241 131q74 112 76 293v555h129v-1057h-119v190h-4q-51 -106 -148 -162t-216 -57q-371 0 -371 400zM659 1165v207h140v-207h-140zM299 1165v207h137v-207h-137zM246 1757h131l176 -209l180 209h119l-234 -289h-141z" />
    <glyph glyph-name="Udieresisgrave" unicode="&#x1db;" horiz-adv-x="1402" 
d="M133 1462h139v-905q0 -362 248 -443q80 -26 181 -26q211 0 321 112t108 357v905h140v-936q0 -243 -140 -399t-430 -156q-289 0 -435 164q-132 145 -132 391v936zM811 1565v207h139v-207h-139zM451 1565v207h137v-207h-137zM385 2163h158l215 -289h-105z" />
    <glyph glyph-name="udieresisgrave" unicode="&#x1dc;" horiz-adv-x="1099" 
d="M121 371v686h129v-688q4 -143 66 -217t217 -74t241 131q74 112 76 293v555h129v-1057h-119v190h-4q-51 -106 -148 -162t-216 -57q-371 0 -371 400zM659 1165v207h140v-207h-140zM299 1165v207h137v-207h-137zM258 1757h158l215 -289h-105z" />
    <glyph glyph-name="uni01DD" unicode="&#x1dd;" horiz-adv-x="1062" 
d="M887 565q0 165 -90.5 290.5t-244.5 125.5t-234 -73.5t-111 -196.5h-129q41 180 150.5 278t310.5 98q241 0 359 -157t118 -394q0 -236 -120.5 -400.5t-357.5 -164.5t-355 174.5t-109 419.5h813zM780 190q90 110 107 267h-684q4 -154 95.5 -265.5t241.5 -111.5t240 110z
" />
    <glyph glyph-name="Adieresismacron" unicode="&#x1de;" horiz-adv-x="1290" 
d="M575 1462h156l574 -1462h-150l-178 455h-666l-176 -455h-147zM354 573h576l-283 750zM756 1565v207h139v-207h-139zM395 1565v207h137v-207h-137zM309 1874v92h672v-92h-672z" />
    <glyph glyph-name="adieresismacron" unicode="&#x1df;" horiz-adv-x="1062" 
d="M799 578h-4q-16 -31 -104 -46q-87 -16 -174 -27q-322 -41 -322 -203q1 -107 69 -166q69 -58 154 -58q169 0 275 91t106 241v168zM111 733q23 354 420 354t397 -339v-562q0 -78 76 -77q23 0 40 8v-109q-46 -8 -89 -8q-122 0 -141 110q-5 34 -5 74h-4q-78 -114 -159 -163
q-80 -49 -226 -50q-245 0 -327 169q-27 58 -27 154t49 158t130 95t182 46t174 21t104 14q92 19 93 126q2 185 -168 216q-50 9 -108 9q-122 0 -200 -58t-82 -188h-129zM666 1196v207h139v-207h-139zM305 1196v207h137v-207h-137zM219 1499v92h672v-92h-672z" />
    <glyph glyph-name="Adotmacron" unicode="&#x1e0;" horiz-adv-x="1290" 
d="M575 1462h156l574 -1462h-150l-178 455h-666l-176 -455h-147zM354 573h576l-283 750zM575 1565v207h140v-207h-140zM309 1874v92h672v-92h-672z" />
    <glyph glyph-name="adotmacron" unicode="&#x1e1;" horiz-adv-x="1062" 
d="M799 578h-4q-16 -31 -104 -46q-87 -16 -174 -27q-322 -41 -322 -203q1 -107 69 -166q69 -58 154 -58q169 0 275 91t106 241v168zM111 733q23 354 420 354t397 -339v-562q0 -78 76 -77q23 0 40 8v-109q-46 -8 -89 -8q-122 0 -141 110q-5 34 -5 74h-4q-78 -114 -159 -163
q-80 -49 -226 -50q-245 0 -327 169q-27 58 -27 154t49 158t130 95t182 46t174 21t104 14q92 19 93 126q2 185 -168 216q-50 9 -108 9q-122 0 -200 -58t-82 -188h-129zM485 1196v207h140v-207h-140zM219 1499v92h672v-92h-672z" />
    <glyph glyph-name="AEmacron" unicode="&#x1e2;" horiz-adv-x="1857" 
d="M1051 119h759v-119h-899v463h-530l-238 -463h-155l764 1462h1050v-119h-751v-528h704v-119h-704v-577zM911 582v761h-82l-387 -761h469zM864 1581v92h672v-92h-672z" />
    <glyph glyph-name="aemacron" unicode="&#x1e3;" horiz-adv-x="1781" 
d="M1593 602q0 152 -93 265q-93 112 -243 112t-243 -112q-92 -112 -86 -265h665zM799 578h-4q-16 -31 -104 -46q-87 -16 -174 -27q-322 -41 -322 -203q1 -107 69 -166q69 -58 154 -58q169 0 275 91t106 241v168zM522 979q-122 0 -200 -58t-82 -188h-129q23 354 428 354
q216 0 306 -108q36 -43 46 -111h4q38 106 141 162q103 57 232 57t216 -49q242 -136 238 -544h-794q-13 -180 78 -298t266 -118q254 0 313 264h129q-41 -180 -158 -275t-303 -96q-293 0 -387 265h-4q-22 -125 -163 -199q-120 -64 -279 -66q-245 0 -327 169q-27 58 -27 154
t49 158t130 95t182 46t174 21t104 14q92 19 93 126q2 185 -168 216q-50 9 -108 9zM557 1196v92h672v-92h-672z" />
    <glyph glyph-name="Gcaron" unicode="&#x1e6;" horiz-adv-x="1517" 
d="M1397 0h-101l-18 266h-4q-71 -150 -202 -221q-131 -72 -304 -73q-172 0 -302 62t-216 166q-172 209 -172 530t172 533q86 105 216 167t274 63q393 0 563 -274q55 -90 75 -211h-139q-13 137 -144 251q-131 115 -327 115q-274 0 -421 -202q-130 -177 -130 -440t130 -442
q149 -202 421 -202q238 0 374 149t132 388h-498v118h621v-743zM434 1884h131l176 -209l181 209h118l-233 -289h-141z" />
    <glyph glyph-name="gcaron" unicode="&#x1e7;" 
d="M283 251q96 -130 258 -130t254 123t92 298t-85 306t-256 131t-265 -137q-82 -116 -82 -298t84 -293zM1016 86q0 -375 -251 -471q-89 -35 -193 -35q-200 0 -326 82t-137 238h129q27 -162 204 -200q51 -11 105 -11q180 0 260 102t80 295v143h-4q-45 -98 -132 -157
q-87 -60 -209 -60q-235 -1 -354 151q-120 151 -119 385t128 388q127 153 350 151q172 0 283 -131q34 -39 53 -82h4v183h129v-971zM240 1485h131l176 -209l180 209h119l-234 -289h-141z" />
    <glyph glyph-name="Kcaron" unicode="&#x1e8;" horiz-adv-x="1327" 
d="M147 1462h140v-786l850 786h188l-653 -604l684 -858h-180l-609 762l-280 -260v-502h-140v1462zM449 1853h131l176 -208l180 208h119l-234 -288h-141z" />
    <glyph glyph-name="kcaron" unicode="&#x1e9;" horiz-adv-x="1024" 
d="M123 1462h129v-917l586 512h172l-451 -391l481 -666h-161l-418 575l-209 -174v-401h-129v1462zM279 1853h131l176 -208l180 208h119l-234 -288h-141z" />
    <glyph glyph-name="Oogonek" unicode="&#x1ea;" horiz-adv-x="1517" 
d="M761 -457q-198 0 -198 168q0 81 110 179q43 39 114 82q-13 0 -27 -1q-172 1 -302 63t-216 166q-172 209 -172 530t172 533q86 105 216 167t302 63q329 0 516 -230q172 -210 172 -532t-165 -522t-420 -232h11q-148 -116 -175 -204q-7 -27 -7 -65t28 -62t62 -23
q65 0 113 84l59 -26q-81 -138 -193 -138zM339 1172q-130 -177 -130 -440t130 -442q149 -202 421 -202t419 202q130 177 130 441t-130 441q-149 202 -421 202t-419 -202z" />
    <glyph glyph-name="oogonek" unicode="&#x1eb;" 
d="M572 -457q-112 0 -154 47t-43 124q0 77 109 176q43 39 115 82q-15 -1 -30 -1q-234 0 -368 161q-133 161 -132 398t134 397t364 160q232 0 373 -165q129 -156 129 -394t-120 -382t-293 -169h30q-148 -116 -175 -204q-7 -27 -7 -65t28 -62t62 -23q65 0 113 84l59 -26
q-82 -138 -194 -138zM570 78q92 0 161 39q137 76 185 247q24 80 24 164q0 177 -98 314t-273 137q-91 0 -161 -39q-135 -76 -185 -243q-49 -167 0 -335q49 -169 185 -245q70 -39 162 -39z" />
    <glyph glyph-name="Oogonekmacron" unicode="&#x1ec;" horiz-adv-x="1517" 
d="M761 -457q-198 0 -198 168q0 81 110 179q43 39 114 82q-13 0 -27 -1q-172 1 -302 63t-216 166q-172 209 -172 530t172 533q86 105 216 167t302 63q329 0 516 -230q172 -210 172 -532t-165 -522t-420 -232h11q-148 -116 -175 -204q-7 -27 -7 -65t28 -62t62 -23
q65 0 113 84l59 -26q-81 -138 -193 -138zM339 1172q-130 -177 -130 -440t130 -442q149 -202 421 -202t419 202q130 177 130 441t-130 441q-149 202 -421 202t-419 -202zM422 1595v93h672v-93h-672z" />
    <glyph glyph-name="oogonekmacron" unicode="&#x1ed;" 
d="M572 -457q-112 0 -154 47t-43 124q0 77 109 176q43 39 115 82q-15 -1 -30 -1q-234 0 -368 161q-133 161 -132 398t134 397t364 160q232 0 373 -165q129 -156 129 -394t-120 -382t-293 -169h30q-148 -116 -175 -204q-7 -27 -7 -65t28 -62t62 -23q65 0 113 84l59 -26
q-82 -138 -194 -138zM570 78q92 0 161 39q137 76 185 247q24 80 24 164q0 177 -98 314t-273 137q-91 0 -161 -39q-135 -76 -185 -243q-49 -167 0 -335q49 -169 185 -245q70 -39 162 -39zM233 1196v92h672v-92h-672z" />
    <glyph glyph-name="jcaron" unicode="&#x1f0;" horiz-adv-x="378" 
d="M254 -96q0 -296 -225 -293l-88 4v106q42 -5 67 -2q76 0 96 44t21 110v1184h129v-1153zM-113 1452h131l177 -209l180 209h119l-234 -289h-141z" />
    <glyph glyph-name="DZ" unicode="&#x1f1;" horiz-adv-x="2578" 
d="M287 119h297q318 1 460 143t142 470t-144 470q-144 143 -458 141h-297v-1224zM147 1462h506q334 -8 503 -187t169 -544t-169 -544t-503 -187h-506v1462zM1479 1462h1052v-123l-962 -1220h983v-119h-1139v123l963 1220h-897v119z" />
    <glyph glyph-name="Dz" unicode="&#x1f2;" horiz-adv-x="2351" 
d="M287 119h297q318 1 460 143t142 470t-144 470q-144 143 -458 141h-297v-1224zM147 1462h506q334 -8 503 -187t169 -544t-169 -544t-503 -187h-506v1462zM2316 109v-109h-882v104l690 844h-643v109h807v-92l-699 -856h727z" />
    <glyph glyph-name="dz" unicode="&#x1f3;" horiz-adv-x="2123" 
d="M207 528q0 -294 188 -410q66 -40 163 -40t168 40q194 109 196 409t-196 412q-71 40 -168 40q-177 0 -270 -143q-81 -122 -81 -308zM1053 0h-119v201h-4q-41 -104 -148 -166t-229 -63q-121 -1 -210 43q-174 86 -237 299q-29 101 -28 214q0 241 122 400t353 159
q192 0 308 -131q38 -43 59 -100h4v606h129v-1462zM2089 109v-109h-883v104l690 844h-643v109h807v-92l-698 -856h727z" />
    <glyph glyph-name="Gacute" unicode="&#x1f4;" horiz-adv-x="1517" 
d="M1397 0h-101l-18 266h-4q-71 -150 -202 -221q-131 -72 -304 -73q-172 0 -302 62t-216 166q-172 209 -172 530t172 533q86 105 216 167t274 63q393 0 563 -274q55 -90 75 -211h-139q-13 137 -144 251q-131 115 -327 115q-274 0 -421 -202q-130 -177 -130 -440t130 -442
q149 -202 421 -202q238 0 374 149t132 388h-498v118h621v-743zM760 1595h-105l215 289h160z" />
    <glyph glyph-name="gacute" unicode="&#x1f5;" 
d="M283 251q96 -130 258 -130t254 123t92 298t-85 306t-256 131t-265 -137q-82 -116 -82 -298t84 -293zM1016 86q0 -375 -251 -471q-89 -35 -193 -35q-200 0 -326 82t-137 238h129q27 -162 204 -200q51 -11 105 -11q180 0 260 102t80 295v143h-4q-45 -98 -132 -157
q-87 -60 -209 -60q-235 -1 -354 151q-120 151 -119 385t128 388q127 153 350 151q172 0 283 -131q34 -39 53 -82h4v183h129v-971zM547 1190h-105l215 289h160z" />
    <glyph glyph-name="Ngrave" unicode="&#x1f8;" horiz-adv-x="1441" 
d="M145 1462h156l852 -1237h4v1237h139v-1462h-155l-852 1237h-4v-1237h-140v1462zM449 1847h157l215 -288h-104z" />
    <glyph glyph-name="ngrave" unicode="&#x1f9;" horiz-adv-x="1099" 
d="M121 1057h129v-183h4q37 96 131 154t206 59q311 0 370 -237q18 -76 18 -170v-680h-129v659q0 320 -268 320q-149 0 -239 -102q-91 -102 -93 -261v-616h-129v1057zM287 1485h157l215 -289h-104z" />
    <glyph glyph-name="Aringacute" unicode="&#x1fa;" horiz-adv-x="1290" 
d="M575 1462h156l574 -1462h-150l-178 455h-666l-176 -455h-147zM354 573h576l-283 750zM645 1565q-91 0 -154 63t-63 157t64 156t154 62q91 -1 155 -65q63 -64 63 -154t-64 -155q-64 -64 -155 -64zM506 1784q0 -60 40 -100t99 -40t99 40t40 100t-40 99q-40 40 -99 40
t-99 -40t-40 -99zM649 2093h-104l215 289h160z" />
    <glyph glyph-name="aringacute" unicode="&#x1fb;" horiz-adv-x="1062" 
d="M799 578h-4q-16 -31 -104 -46q-87 -16 -174 -27q-322 -41 -322 -203q1 -107 69 -166q69 -58 154 -58q169 0 275 91t106 241v168zM111 733q23 354 420 354t397 -339v-562q0 -78 76 -77q23 0 40 8v-109q-46 -8 -89 -8q-122 0 -141 110q-5 34 -5 74h-4q-78 -114 -159 -163
q-80 -49 -226 -50q-245 0 -327 169q-27 58 -27 154t49 158t130 95t182 46t174 21t104 14q92 19 93 126q2 185 -168 216q-50 9 -108 9q-122 0 -200 -58t-82 -188h-129zM338 1409q0 45 16 85t46 70t70 47t85 17t85 -17t70 -47t47 -70t17 -85t-17 -85t-47 -70t-70 -47t-85 -17
t-85 17t-70 47t-46 70t-16 85zM416 1409q0 -59 40 -99t99 -40t99 40t40 99t-40 99t-99 40t-99 -40t-40 -99zM571 1731h-104l215 288h160z" />
    <glyph glyph-name="AEacute" unicode="&#x1fc;" horiz-adv-x="1857" 
d="M1051 119h759v-119h-899v463h-530l-238 -463h-155l764 1462h1050v-119h-751v-528h704v-119h-704v-577zM911 582v761h-82l-387 -761h469zM1202 1552h-104l215 289h160z" />
    <glyph glyph-name="aeacute" unicode="&#x1fd;" horiz-adv-x="1781" 
d="M1593 602q0 152 -93 265q-93 112 -243 112t-243 -112q-92 -112 -86 -265h665zM799 578h-4q-16 -31 -104 -46q-87 -16 -174 -27q-322 -41 -322 -203q1 -107 69 -166q69 -58 154 -58q169 0 275 91t106 241v168zM522 979q-122 0 -200 -58t-82 -188h-129q23 354 428 354
q216 0 306 -108q36 -43 46 -111h4q38 106 141 162q103 57 232 57t216 -49q242 -136 238 -544h-794q-13 -180 78 -298t266 -118q254 0 313 264h129q-41 -180 -158 -275t-303 -96q-293 0 -387 265h-4q-22 -125 -163 -199q-120 -64 -279 -66q-245 0 -327 169q-27 58 -27 154
t49 158t130 95t182 46t174 21t104 14q92 19 93 126q2 185 -168 216q-50 9 -108 9zM946 1196h-104l215 289h160z" />
    <glyph glyph-name="Oslashacute" unicode="&#x1fe;" horiz-adv-x="1517" 
d="M1179 290q130 177 130 437q0 261 -121 430l-813 -907q145 -162 385 -162q272 0 419 202zM339 1172q-130 -177 -130 -435t119 -430l815 907q-147 160 -383 160q-274 0 -421 -202zM1280 1260q168 -203 168 -527t-172 -532q-189 -228 -500 -229q-312 -1 -489 180l-156 -175
l-55 50l162 180q-168 207 -168 526q0 318 172 530q86 105 216 167t302 63q291 0 471 -180l145 160l54 -48zM793 1595h-105l215 289h160z" />
    <glyph glyph-name="oslashacute" unicode="&#x1ff;" 
d="M831 856q-101 123 -268 123q-168 0 -267 -136t-98 -306q1 -171 74 -285zM309 199q98 -121 267 -121q168 0 266 134t98 307q0 172 -72 284zM958 901q111 -157 111 -384q0 -226 -132 -386t-358 -160q-225 0 -354 138l-121 -129l-45 38l125 138q-116 151 -115 381t134 390
t359 160t356 -139l106 115l45 -41zM557 1196h-104l215 289h159z" />
    <glyph glyph-name="Adblgrave" unicode="&#x200;" horiz-adv-x="1290" 
d="M575 1462h156l574 -1462h-150l-178 455h-666l-176 -455h-147zM354 573h576l-283 750zM985 1565h-102l-258 288h155zM668 1565h-105l-258 288h156z" />
    <glyph glyph-name="adblgrave" unicode="&#x201;" horiz-adv-x="1062" 
d="M799 578h-4q-16 -31 -104 -46q-87 -16 -174 -27q-322 -41 -322 -203q1 -107 69 -166q69 -58 154 -58q169 0 275 91t106 241v168zM111 733q23 354 420 354t397 -339v-562q0 -78 76 -77q23 0 40 8v-109q-46 -8 -89 -8q-122 0 -141 110q-5 34 -5 74h-4q-78 -114 -159 -163
q-80 -49 -226 -50q-245 0 -327 169q-27 58 -27 154t49 158t130 95t182 46t174 21t104 14q92 19 93 126q2 185 -168 216q-50 9 -108 9q-122 0 -200 -58t-82 -188h-129zM895 1194h-102l-258 289h155zM578 1194h-105l-258 289h156z" />
    <glyph glyph-name="Ainvertedbreve" unicode="&#x202;" horiz-adv-x="1290" 
d="M575 1462h156l574 -1462h-150l-178 455h-666l-176 -455h-147zM354 573h576l-283 750zM640 1825q124 0 203 -69t95 -191h-80q-12 80 -76 124t-122 44q-154 0 -207 -96q-18 -32 -21 -72h-80q10 125 87 193t201 67z" />
    <glyph glyph-name="ainvertedbreve" unicode="&#x203;" horiz-adv-x="1062" 
d="M799 578h-4q-16 -31 -104 -46q-87 -16 -174 -27q-322 -41 -322 -203q1 -107 69 -166q69 -58 154 -58q169 0 275 91t106 241v168zM111 733q23 354 420 354t397 -339v-562q0 -78 76 -77q23 0 40 8v-109q-46 -8 -89 -8q-122 0 -141 110q-5 34 -5 74h-4q-78 -114 -159 -163
q-80 -49 -226 -50q-245 0 -327 169q-27 58 -27 154t49 158t130 95t182 46t174 21t104 14q92 19 93 126q2 185 -168 216q-50 9 -108 9q-122 0 -200 -58t-82 -188h-129zM550 1454q124 0 203 -69t95 -191h-80q-12 80 -76 124t-122 44q-150 0 -208 -95q-18 -32 -20 -73h-80
q10 124 87 192t201 68z" />
    <glyph glyph-name="Edblgrave" unicode="&#x204;" horiz-adv-x="1214" 
d="M147 1462h1010v-119h-870v-528h815v-119h-815v-577h880v-119h-1020v1462zM997 1565h-102l-258 288h156zM680 1565h-105l-258 288h156z" />
    <glyph glyph-name="edblgrave" unicode="&#x205;" horiz-adv-x="1062" 
d="M199 494q0 -263 190 -377q66 -39 158 -39q141 0 221 74t111 196h129q-41 -180 -151 -278t-310 -99q-241 0 -360 160t-118 392q1 233 113 389q126 175 365 175q238 0 363 -185q111 -164 102 -408h-813zM199 602h684q-4 152 -96 265q-92 112 -240 112t-240 -110
q-93 -111 -108 -267zM883 1194h-103l-258 289h156zM565 1194h-104l-258 289h155z" />
    <glyph glyph-name="Einvertedbreve" unicode="&#x206;" horiz-adv-x="1214" 
d="M147 1462h1010v-119h-870v-528h815v-119h-815v-577h880v-119h-1020v1462zM652 1825q124 0 203 -69t95 -191h-80q-12 80 -75 124t-122 44q-154 0 -208 -96q-18 -32 -21 -72h-79q10 125 87 193q76 68 200 67z" />
    <glyph glyph-name="einvertedbreve" unicode="&#x207;" horiz-adv-x="1062" 
d="M199 494q0 -263 190 -377q66 -39 158 -39q141 0 221 74t111 196h129q-41 -180 -151 -278t-310 -99q-241 0 -360 160t-118 392q1 233 113 389q126 175 365 175q238 0 363 -185q111 -164 102 -408h-813zM199 602h684q-4 152 -96 265q-92 112 -240 112t-240 -110
q-93 -111 -108 -267zM538 1454q124 0 202 -69t96 -191h-80q-12 80 -76 124t-122 44q-153 0 -208 -95q-18 -32 -20 -73h-80q10 124 87 192t201 68z" />
    <glyph glyph-name="Idblgrave" unicode="&#x208;" horiz-adv-x="454" 
d="M158 1462h139v-1462h-139v1462zM567 1565h-102l-258 288h155zM250 1565h-105l-258 288h156z" />
    <glyph glyph-name="idblgrave" unicode="&#x209;" horiz-adv-x="378" 
d="M125 0v1057h129v-1057h-129zM528 1163h-102l-258 289h156zM211 1163h-105l-258 289h156z" />
    <glyph glyph-name="Iinvertedbreve" unicode="&#x20a;" horiz-adv-x="454" 
d="M158 1462h139v-1462h-139v1462zM222 1825q124 0 203 -69t95 -191h-80q-12 80 -75 124t-122 44q-154 0 -208 -96q-18 -32 -21 -72h-80q10 125 88 193q76 68 200 67z" />
    <glyph glyph-name="iinvertedbreve" unicode="&#x20b;" horiz-adv-x="378" 
d="M125 0v1057h129v-1057h-129zM204 1331q-153 0 -208 -95q-18 -32 -21 -73h-79q10 125 87 193t201 68t202 -70q79 -68 95 -191h-80q-12 80 -75 124t-122 44z" />
    <glyph glyph-name="Odblgrave" unicode="&#x20c;" horiz-adv-x="1517" 
d="M760 1493q329 0 516 -230q172 -210 172 -532t-172 -530q-189 -228 -516 -230q-172 1 -302 63t-216 166q-172 209 -172 530t172 533q86 105 216 167t302 63zM339 1172q-130 -177 -130 -440t130 -442q149 -202 421 -202t419 202q130 177 130 441t-130 441
q-149 202 -421 202t-419 -202zM1098 1595h-103l-258 289h156zM780 1595h-104l-258 289h155z" />
    <glyph glyph-name="odblgrave" unicode="&#x20d;" 
d="M940 922q129 -156 129 -394t-132 -397q-131 -160 -367 -160q-235 0 -369 161q-133 161 -132 398t134 397t364 160q232 0 373 -165zM570 78q92 0 161 39q137 76 185 247q24 80 24 164q0 177 -98 314t-273 137q-91 0 -161 -39q-135 -76 -185 -243q-49 -167 0 -335
q49 -169 185 -245q70 -39 162 -39zM909 1194h-102l-258 289h156zM592 1194h-105l-258 289h156z" />
    <glyph glyph-name="Oinvertedbreve" unicode="&#x20e;" horiz-adv-x="1517" 
d="M760 1493q329 0 516 -230q172 -210 172 -532t-172 -530q-189 -228 -516 -230q-172 1 -302 63t-216 166q-172 209 -172 530t172 533q86 105 216 167t302 63zM339 1172q-130 -177 -130 -440t130 -442q149 -202 421 -202t419 202q130 177 130 441t-130 441
q-149 202 -421 202t-419 -202zM774 1763q-153 0 -209 -95q-18 -32 -20 -73h-80q10 125 87 193t201 68q125 0 203 -70q78 -68 95 -191h-80q-11 80 -75 124t-122 44z" />
    <glyph glyph-name="oinvertedbreve" unicode="&#x20f;" 
d="M940 922q129 -156 129 -394t-132 -397q-131 -160 -367 -160q-235 0 -369 161q-133 161 -132 398t134 397t364 160q232 0 373 -165zM570 78q92 0 161 39q137 76 185 247q24 80 24 164q0 177 -98 314t-273 137q-91 0 -161 -39q-135 -76 -185 -243q-49 -167 0 -335
q49 -169 185 -245q70 -39 162 -39zM564 1454q124 0 203 -69t95 -191h-80q-12 80 -75 124t-122 44q-153 0 -208 -95q-18 -32 -21 -73h-80q10 124 88 192q76 68 200 68z" />
    <glyph glyph-name="Rdblgrave" unicode="&#x210;" horiz-adv-x="1366" 
d="M147 1462h670q303 0 409 -210q36 -74 36 -192t-72 -220t-213 -131v-4q196 -27 238 -208q17 -72 22 -207q8 -222 63 -290h-153q-23 39 -28 91q-5 53 -7 83t-5 81q-11 184 -51 264q-68 137 -241 130h-528v-649h-140v1462zM287 768h520q135 0 226 79t90 210t-79 209t-237 77
h-520v-575zM1063 1565h-102l-259 288h156zM745 1565h-104l-258 288h156z" />
    <glyph glyph-name="rdblgrave" unicode="&#x211;" horiz-adv-x="645" 
d="M123 1057h119v-248h4q49 129 152 199t247 63v-129q-172 8 -283 -101q-110 -108 -110 -278v-563h-129v1057zM723 1184h-102l-259 289h156zM406 1184h-105l-258 289h156z" />
    <glyph glyph-name="Rinvertedbreve" unicode="&#x212;" horiz-adv-x="1366" 
d="M147 1462h670q303 0 409 -210q36 -74 36 -192t-72 -220t-213 -131v-4q196 -27 238 -208q17 -72 22 -207q8 -222 63 -290h-153q-23 39 -28 91q-5 53 -7 83t-5 81q-11 184 -51 264q-68 137 -241 130h-528v-649h-140v1462zM287 768h520q135 0 226 79t90 210t-79 209t-237 77
h-520v-575zM718 1825q124 0 203 -69t95 -191h-80q-12 80 -76 124t-122 44q-152 0 -208 -96q-18 -32 -20 -72h-80q10 125 87 193t201 67z" />
    <glyph glyph-name="rinvertedbreve" unicode="&#x213;" horiz-adv-x="645" 
d="M123 1057h119v-248h4q49 129 152 199t247 63v-129q-172 8 -283 -101q-110 -108 -110 -278v-563h-129v1057zM378 1444q124 0 203 -69t95 -191h-80q-12 80 -76 124t-122 44q-152 0 -208 -96q-18 -32 -20 -72h-80q10 124 87 192t201 68z" />
    <glyph glyph-name="Udblgrave" unicode="&#x214;" horiz-adv-x="1402" 
d="M133 1462h139v-905q0 -362 248 -443q80 -26 181 -26q211 0 321 112t108 357v905h140v-936q0 -243 -140 -399t-430 -156q-289 0 -435 164q-132 145 -132 391v936zM1040 1565h-102l-258 288h156zM723 1565h-105l-258 288h156z" />
    <glyph glyph-name="udblgrave" unicode="&#x215;" horiz-adv-x="1099" 
d="M121 371v686h129v-688q4 -143 66 -217t217 -74t241 131q74 112 76 293v555h129v-1057h-119v190h-4q-51 -106 -148 -162t-216 -57q-371 0 -371 400zM889 1163h-103l-258 289h156zM571 1163h-104l-258 289h156z" />
    <glyph glyph-name="Uinvertedbreve" unicode="&#x216;" horiz-adv-x="1402" 
d="M133 1462h139v-905q0 -362 248 -443q80 -26 181 -26q211 0 321 112t108 357v905h140v-936q0 -243 -140 -399t-430 -156q-289 0 -435 164q-132 145 -132 391v936zM696 1825q124 0 202 -69q79 -69 95 -191h-80q-12 80 -75 124t-122 44q-154 0 -208 -96q-18 -32 -21 -72h-79
q10 125 87 193t201 67z" />
    <glyph glyph-name="uinvertedbreve" unicode="&#x217;" horiz-adv-x="1099" 
d="M121 371v686h129v-688q4 -143 66 -217t217 -74t241 131q74 112 76 293v555h129v-1057h-119v190h-4q-51 -106 -148 -162t-216 -57q-371 0 -371 400zM564 1331q-153 0 -208 -95q-18 -32 -20 -73h-80q10 125 87 193t201 68t202 -70q78 -68 96 -191h-80q-12 80 -76 124
t-122 44z" />
    <glyph glyph-name="Scommaaccent" unicode="&#x218;" horiz-adv-x="1290" 
d="M1077 385q0 114 -99 182q-69 49 -202 82l-325 80q-154 39 -230 107q-102 93 -100 245q0 253 252 368q97 44 229 44q250 0 407 -120q156 -120 156 -335h-139q-8 159 -123 248q-115 90 -276 88q-250 0 -336 -153q-31 -55 -31 -122q0 -156 136 -212q40 -16 85 -27l357 -88
q272 -70 349 -231q30 -63 30 -154q0 -135 -82 -242q-133 -174 -477 -174q-130 0 -240 30q-228 62 -308 249q-42 96 -36 231h139q-7 -388 477 -393q143 0 251 69q136 84 136 228zM733 -346q0 -149 -101 -238q-34 -29 -81 -41v88q45 13 73 76t23 117h-86v217h172v-219z" />
    <glyph glyph-name="scommaaccent" unicode="&#x219;" horiz-adv-x="985" 
d="M229 801q0 -108 148 -161q39 -13 72 -22l172 -38q198 -29 274 -172q27 -51 27 -129q0 -79 -39 -139q-107 -166 -390 -168q-181 -1 -297 87t-133 283h130q8 -131 95 -198t216 -66q180 0 261 107q28 37 28 89q0 126 -147 172q-42 14 -85 25l-166 37q-135 34 -215 97
q-80 62 -80 199t129 216q109 67 269 67q260 0 352 -190q31 -63 35 -149h-129q-2 59 -25 103q-67 128 -242 128t-237 -96q-23 -35 -23 -82zM584 -346q0 -93 -34 -151t-68 -87t-81 -41v88q45 13 73 77t24 116h-86v217h172v-219z" />
    <glyph glyph-name="Tcommaaccent" unicode="&#x21a;" 
d="M-8 1462h1157v-119h-510v-1343h-139v1343h-508v119zM662 -317q0 -148 -102 -238q-34 -29 -81 -41v88q45 13 73 76t23 117h-86v217h173v-219z" />
    <glyph glyph-name="tcommaaccent" unicode="&#x21b;" horiz-adv-x="606" 
d="M199 948h-185v109h185v317h129v-317h215v-109h-215v-712q0 -64 17 -100t79 -38t119 4v-108l-115 -4q-129 0 -180 50t-49 185v723zM371 -328q0 -93 -34 -151q-34 -59 -68 -87t-81 -40v88q45 13 73 77t24 115h-86v217h172v-219z" />
    <glyph glyph-name="Hcaron" unicode="&#x21e;" horiz-adv-x="1441" 
d="M147 1462h140v-635h868v635h139v-1462h-139v709h-868v-709h-140v1462zM418 1853h131l176 -208l180 208h119l-233 -288h-142z" />
    <glyph glyph-name="hcaron" unicode="&#x21f;" horiz-adv-x="1099" 
d="M121 1462h129v-588h4q37 96 131 154t206 59q311 0 370 -237q18 -76 18 -170v-680h-129v659q0 320 -268 320q-149 0 -239 -102q-91 -102 -93 -261v-616h-129v1462zM246 1853h131l176 -208l180 208h119l-234 -288h-141z" />
    <glyph glyph-name="Adotaccent" unicode="&#x226;" horiz-adv-x="1290" 
d="M575 1462h156l574 -1462h-150l-178 455h-666l-176 -455h-147zM354 573h576l-283 750zM575 1565v207h140v-207h-140z" />
    <glyph glyph-name="adotaccent" unicode="&#x227;" horiz-adv-x="1062" 
d="M799 578h-4q-16 -31 -104 -46q-87 -16 -174 -27q-322 -41 -322 -203q1 -107 69 -166q69 -58 154 -58q169 0 275 91t106 241v168zM111 733q23 354 420 354t397 -339v-562q0 -78 76 -77q23 0 40 8v-109q-46 -8 -89 -8q-122 0 -141 110q-5 34 -5 74h-4q-78 -114 -159 -163
q-80 -49 -226 -50q-245 0 -327 169q-27 58 -27 154t49 158t130 95t182 46t174 21t104 14q92 19 93 126q2 185 -168 216q-50 9 -108 9q-122 0 -200 -58t-82 -188h-129zM485 1196v207h140v-207h-140z" />
    <glyph glyph-name="Ecedilla" unicode="&#x228;" horiz-adv-x="1214" 
d="M619 -340q129 0 129 88q0 76 -106 78q-52 0 -87 -16l-33 30l125 160h-500v1462h1010v-119h-870v-528h815v-119h-815v-577h880v-119h-448l-90 -117q151 25 214 -51q23 -29 23 -76q-1 -88 -68 -132q-68 -44 -137 -44q-130 0 -210 43l26 66q79 -29 142 -29z" />
    <glyph glyph-name="ecedilla" unicode="&#x229;" horiz-adv-x="1062" 
d="M633 -280q0 82 -105 83q-51 0 -88 -16l-32 31l120 154q-227 6 -344 162t-115 389q1 233 113 389q126 175 365 175q238 0 363 -185q111 -164 102 -408h-813q0 -263 190 -377q66 -39 158 -39q141 0 221 74t111 196h129q-80 -351 -407 -375l-87 -112q154 25 214 -51
q24 -29 24 -76q0 -87 -68 -131q-68 -45 -138 -45q-130 0 -210 43l26 65q76 -28 140 -28q131 0 131 82zM199 602h684q-4 152 -96 265q-92 112 -240 112t-240 -110q-93 -111 -108 -267z" />
    <glyph glyph-name="Odieresismacron" unicode="&#x22a;" horiz-adv-x="1517" 
d="M760 1493q329 0 516 -230q172 -210 172 -532t-172 -530q-189 -228 -516 -230q-172 1 -302 63t-216 166q-172 209 -172 530t172 533q86 105 216 167t302 63zM339 1172q-130 -177 -130 -440t130 -442q149 -202 421 -202t419 202q130 177 130 441t-130 441
q-149 202 -421 202t-419 -202zM868 1595v207h140v-207h-140zM508 1595v207h137v-207h-137zM422 1905v92h672v-92h-672z" />
    <glyph glyph-name="odieresismacron" unicode="&#x22b;" 
d="M940 922q129 -156 129 -394t-132 -397q-131 -160 -367 -160q-235 0 -369 161q-133 161 -132 398t134 397t364 160q232 0 373 -165zM570 78q92 0 161 39q137 76 185 247q24 80 24 164q0 177 -98 314t-273 137q-91 0 -161 -39q-135 -76 -185 -243q-49 -167 0 -335
q49 -169 185 -245q70 -39 162 -39zM680 1196v207h139v-207h-139zM319 1196v207h138v-207h-138zM233 1499v92h672v-92h-672z" />
    <glyph glyph-name="Otildemacron" unicode="&#x22c;" horiz-adv-x="1517" 
d="M760 1493q329 0 516 -230q172 -210 172 -532t-172 -530q-189 -228 -516 -230q-172 1 -302 63t-216 166q-172 209 -172 530t172 533q86 105 216 167t302 63zM339 1172q-130 -177 -130 -440t130 -442q149 -202 421 -202t419 202q130 177 130 441t-130 441
q-149 202 -421 202t-419 -202zM895 1702q79 0 106 98h78q-22 -130 -106 -177q-31 -17 -86 -17t-143 47t-127 47t-69 -27t-30 -78h-80q9 81 44 122q64 75 133 75q68 0 158 -45q34 -17 64 -31t58 -14zM422 1903v92h672v-92h-672z" />
    <glyph glyph-name="otildemacron" unicode="&#x22d;" 
d="M940 922q129 -156 129 -394t-132 -397q-131 -160 -367 -160q-235 0 -369 161q-133 161 -132 398t134 397t364 160q232 0 373 -165zM570 78q92 0 161 39q137 76 185 247q24 80 24 164q0 177 -98 314t-273 137q-91 0 -161 -39q-135 -76 -185 -243q-49 -167 0 -335
q49 -169 185 -245q70 -39 162 -39zM707 1303q77 0 106 98h78q-22 -131 -105 -176q-83 -46 -227 28q-35 19 -65 33t-68 14q-37 0 -67 -26t-29 -78h-80q14 127 109 179q68 36 140 9t126 -54q53 -27 82 -27zM233 1497v92h672v-92h-672z" />
    <glyph glyph-name="Odotaccent" unicode="&#x22e;" horiz-adv-x="1517" 
d="M760 1493q329 0 516 -230q172 -210 172 -532t-172 -530q-189 -228 -516 -230q-172 1 -302 63t-216 166q-172 209 -172 530t172 533q86 105 216 167t302 63zM339 1172q-130 -177 -130 -440t130 -442q149 -202 421 -202t419 202q130 177 130 441t-130 441
q-149 202 -421 202t-419 -202zM688 1595v207h139v-207h-139z" />
    <glyph glyph-name="odotaccent" unicode="&#x22f;" 
d="M940 922q129 -156 129 -394t-132 -397q-131 -160 -367 -160q-235 0 -369 161q-133 161 -132 398t134 397t364 160q232 0 373 -165zM570 78q92 0 161 39q137 76 185 247q24 80 24 164q0 177 -98 314t-273 137q-91 0 -161 -39q-135 -76 -185 -243q-49 -167 0 -335
q49 -169 185 -245q70 -39 162 -39zM500 1196v207h139v-207h-139z" />
    <glyph glyph-name="Odotaccentmacron" unicode="&#x230;" horiz-adv-x="1517" 
d="M760 1493q329 0 516 -230q172 -210 172 -532t-172 -530q-189 -228 -516 -230q-172 1 -302 63t-216 166q-172 209 -172 530t172 533q86 105 216 167t302 63zM339 1172q-130 -177 -130 -440t130 -442q149 -202 421 -202t419 202q130 177 130 441t-130 441
q-149 202 -421 202t-419 -202zM688 1595v207h139v-207h-139zM422 1905v92h672v-92h-672z" />
    <glyph glyph-name="odotaccentmacron" unicode="&#x231;" 
d="M940 922q129 -156 129 -394t-132 -397q-131 -160 -367 -160q-235 0 -369 161q-133 161 -132 398t134 397t364 160q232 0 373 -165zM570 78q92 0 161 39q137 76 185 247q24 80 24 164q0 177 -98 314t-273 137q-91 0 -161 -39q-135 -76 -185 -243q-49 -167 0 -335
q49 -169 185 -245q70 -39 162 -39zM500 1196v207h139v-207h-139zM233 1499v92h672v-92h-672z" />
    <glyph glyph-name="Ymacron" unicode="&#x232;" horiz-adv-x="1251" 
d="M694 0h-139v602l-573 860h163l482 -741l479 741h166l-578 -860v-602zM291 1565v92h672v-92h-672z" />
    <glyph glyph-name="ymacron" unicode="&#x233;" horiz-adv-x="948" 
d="M206 -281q94 0 144 99q14 31 31 67l45 119l-422 1053h137l348 -901l326 901h129l-459 -1217q-59 -138 -98 -172q-39 -35 -79 -46t-112 -9t-87 8v109q63 -11 97 -11zM137 1165v92h672v-92h-672z" />
    <glyph glyph-name="uni0237" unicode="&#x237;" horiz-adv-x="378" 
d="M125 -127v1184h129v-1153q0 -138 -50.5 -215.5t-174.5 -77.5l-88 4v106q43 -5 67 -2q76 0 96.5 44t20.5 110z" />
    <glyph glyph-name="uni0259" unicode="&#x259;" horiz-adv-x="1083" 
d="M778 192q90 110 107 267h-684q4 -154 95.5 -265.5t241.5 -111.5t240 110zM885 567q0 165 -90.5 290.5t-244.5 125.5t-234 -73.5t-111 -196.5h-129q41 180 150.5 278.5t310.5 98.5q241 0 359 -158.5t118 -393.5q0 -234 -120 -399.5t-358 -165.5t-359.5 176.5t-110.5 417.5
h819z" />
    <glyph glyph-name="commaturnedmod" unicode="&#x2bb;" horiz-adv-x="569" 
d="M195 965v219q0 153 102 237q35 29 80 41v-88q-45 -17 -73 -77q-28 -61 -23 -115h86v-217h-172z" />
    <glyph glyph-name="afii57929" unicode="&#x2bc;" horiz-adv-x="569" 
d="M375 1462v-219q0 -153 -102 -237q-34 -29 -80 -41v88q69 20 93 138q5 30 3 54h-86v217h172z" />
    <glyph glyph-name="circumflex" unicode="&#x2c6;" horiz-adv-x="378" 
d="M494 1204h-134l-176 209l-180 -209h-117l232 289h141z" />
    <glyph glyph-name="caron" unicode="&#x2c7;" horiz-adv-x="378" 
d="M-113 1493h131l177 -209l180 209h119l-234 -289h-141z" />
    <glyph glyph-name="uni02C9.macronCopy" unicode="&#x2c9;" horiz-adv-x="378" 
d="M-145 1391h671v-93h-671v93z" />
    <glyph glyph-name="breve" unicode="&#x2d8;" horiz-adv-x="378" 
d="M206 1311q58 0 121.5 44t75.5 124h80q-16 -123 -95 -191.5t-203 -68.5t-200.5 67.5t-86.5 192.5h79q4 -79 64 -123.5t165 -44.5z" />
    <glyph glyph-name="dotaccent" unicode="&#x2d9;" horiz-adv-x="378" 
d="M121 1239v207h139v-207h-139z" />
    <glyph glyph-name="ring" unicode="&#x2da;" horiz-adv-x="378" 
d="M-27 1386.5q0 45.5 16.5 85t46.5 69.5t69.5 47.5t85 17.5t85 -17.5t69.5 -47.5t47.5 -69.5t17.5 -85t-17.5 -85t-47.5 -69.5t-69.5 -47.5t-85 -17.5t-85 17.5t-69.5 47.5t-46.5 69.5t-16.5 85zM51 1386.5q0 -59.5 40 -99.5t99.5 -40t99.5 40t40 99.5t-40 99.5t-99.5 40
t-99.5 -40t-40 -99.5z" />
    <glyph glyph-name="ogonek" unicode="&#x2db;" horiz-adv-x="378" 
d="M76 -262q0 79 77.5 150t155.5 116h78q-152 -119 -167 -175t-15 -94t27.5 -61.5t62.5 -23.5q64 0 113 84l59 -27q-81 -137 -195 -137q-196 0 -196 168z" />
    <glyph glyph-name="tilde" unicode="&#x2dc;" horiz-adv-x="378" 
d="M326 1352q77 0 106 98h78q-22 -129 -79.5 -162t-110 -33t-142.5 47.5t-130 47.5t-69.5 -27t-29.5 -78h-80q14 126 77.5 161.5t104.5 35.5t80 -14.5t73 -31t63.5 -30.5t58.5 -14z" />
    <glyph glyph-name="hungarumlaut" unicode="&#x2dd;" horiz-adv-x="378" 
d="M-66 1204l205 289h156l-258 -289h-103zM252 1204l207 289h155l-258 -289h-104z" />
    <glyph glyph-name="uni02EE" unicode="&#x2ee;" horiz-adv-x="757" 
d="M627 1462v-219q0 -93 -34 -151t-68 -86t-81 -41v88q70 21 94 138q5 30 3 54h-86v217h172zM311 1462v-219q0 -151 -101 -237q-34 -29 -81 -41v88q46 14 73 76q27 63 23 116h-86v217h172z" />
    <glyph glyph-name="gravecmb" unicode="&#x300;" horiz-adv-x="0" 
d="M-281 1493l215 -289h-104l-268 289h157z" />
    <glyph glyph-name="acutecmb" unicode="&#x301;" horiz-adv-x="0" 
d="M-309 1204l215 289h160l-271 -289h-104z" />
    <glyph glyph-name="circumflexcmb" unicode="&#x302;" horiz-adv-x="0" 
d="M-16 1204l-177 209l-180 -209h-116l231 289h141l234 -289h-133z" />
    <glyph glyph-name="tildecmb" unicode="&#x303;" horiz-adv-x="0" 
d="M-51 1352q77 0 106 98h78q-22 -129 -79.5 -162t-110.5 -33t-141.5 47.5t-129.5 47.5t-70.5 -27t-29.5 -78h-80q14 126 77.5 161.5t104.5 35.5t80 -14.5t73 -31t63.5 -30.5t58.5 -14z" />
    <glyph glyph-name="macroncmb" unicode="&#x304;" horiz-adv-x="0" 
d="M-522 1391h672v-93h-672v93z" />
    <glyph glyph-name="brevecmb" unicode="&#x306;" horiz-adv-x="0" 
d="M-170 1311q58 0 121 44t76 124h79q-16 -123 -95 -191.5t-203 -68.5t-200.5 67.5t-86.5 192.5h80q4 -78 63.5 -123t165.5 -45z" />
    <glyph glyph-name="dotaccentcmb" unicode="&#x307;" horiz-adv-x="0" 
d="M-256 1446h139v-207h-139v207z" />
    <glyph glyph-name="dieresiscmb" unicode="&#x308;" horiz-adv-x="0" 
d="M-76 1446h139v-207h-139v207zM-436 1446h137v-207h-137v207z" />
    <glyph glyph-name="hookabovecomb" unicode="&#x309;" horiz-adv-x="0" 
d="M-496 1532q83 0 137 -34t54 -102t-50.5 -106.5t-111.5 -46.5l-10 -88h-62v133q141 16 142 98q0 68 -109 68q-64 0 -129 -29l-18 74q74 33 157 33z" />
    <glyph glyph-name="ringcmb" unicode="&#x30a;" horiz-adv-x="0" 
d="M-403 1386.5q0 45.5 16 85t46 69.5t70 47.5t85 17.5t85 -17.5t69.5 -47.5t47 -69.5t17.5 -85t-17.5 -85t-47 -69.5t-69.5 -47.5t-85 -17.5t-85 17.5t-70 47.5t-46 69.5t-16 85zM-326 1386.5q0 -59.5 40 -99.5t99.5 -40t99.5 40t40 99.5t-40 99.5t-99.5 40t-99.5 -40
t-40 -99.5z" />
    <glyph glyph-name="hungarumlautcmb" unicode="&#x30b;" horiz-adv-x="0" 
d="M-238 1493h156l-258 -289h-102zM82 1493h156l-258 -289h-105z" />
    <glyph glyph-name="caroncmb" unicode="&#x30c;" horiz-adv-x="0" 
d="M-358 1493l176 -209l180 209h119l-234 -289h-141l-231 289h131z" />
    <glyph glyph-name="uni030F" unicode="&#x30f;" horiz-adv-x="0" 
d="M238 1204h-103l-258 289h156zM-80 1204h-104l-258 289h155z" />
    <glyph glyph-name="uni0311" unicode="&#x311;" horiz-adv-x="0" 
d="M-191 1479q124 0 202.5 -69t94.5 -191h-79q-12 80 -76 123.5t-122 43.5q-105 0 -164.5 -45t-63.5 -122h-80q10 125 87 192.5t201 67.5z" />
    <glyph glyph-name="uni0312" unicode="&#x312;" horiz-adv-x="0" 
d="M-90 1184q0 154 68.5 210t113.5 68v-88q-47 -17 -74 -76.5t-22 -115.5h86v-217h-172v219z" />
    <glyph glyph-name="uni0313" unicode="&#x313;" horiz-adv-x="0" 
d="M92 1243q0 -153 -67.5 -209.5t-114.5 -68.5v88q47 14 74 75.5t22 116.5h-86v217h172v-219z" />
    <glyph glyph-name="uni0314" unicode="&#x314;" horiz-adv-x="0" 
d="M-90 1462h172v-217h-86q-8 -94 31 -139t65 -53v-88q-87 22 -134.5 102t-47.5 176v219z" />
    <glyph glyph-name="uni0316" unicode="&#x316;" horiz-adv-x="0" 
d="M-29 31l215 -289h-104l-268 289h157z" />
    <glyph glyph-name="uni0317" unicode="&#x317;" horiz-adv-x="0" 
d="M-186 -258l215 289h159l-270 -289h-104z" />
    <glyph glyph-name="uni031B" unicode="&#x31b;" horiz-adv-x="0" 
d="M340 1462h119q0 -202 -47 -279t-185 -77q-164 0 -288 223l43 19q39 -35 64.5 -63t61.5 -55.5t111 -28.5q76 -1 98.5 66.5t22.5 194.5z" />
    <glyph glyph-name="dotbelowcomb" unicode="&#x323;" horiz-adv-x="0" 
d="M-70 -16h140v-207h-140v207z" />
    <glyph glyph-name="uni0324" unicode="&#x324;" horiz-adv-x="0" 
d="M111 -16h139v-207h-139v207zM-250 -16h137v-207h-137v207z" />
    <glyph glyph-name="uni0325" unicode="&#x325;" horiz-adv-x="0" 
d="M-217 -76q0 45 16.5 85t46 70t69.5 47t85 17t85 -17t69.5 -47t47 -70t17.5 -85t-17.5 -85t-47 -69.5t-69.5 -47t-85 -17.5t-85 17.5t-69.5 47t-46 69.5t-16.5 85zM-139 -75.5q0 -59.5 40 -99.5t99 -40t99 40t40 99.5t-40 99t-99 39.5t-99 -39.5t-40 -99z" />
    <glyph glyph-name="uni0326" unicode="&#x326;" horiz-adv-x="0" 
d="M92 -219q0 -153 -67.5 -209.5t-114.5 -69.5v88q46 14 73 75.5t23 117.5h-86v217h172v-219z" />
    <glyph glyph-name="cedillacmb" unicode="&#x327;" horiz-adv-x="0" 
d="M-90 -252q0 78 -104 78q-52 0 -89 -16l-32 30l125 160h71l-90 -117q153 25 195.5 -27.5t42.5 -118.5t-69.5 -111.5t-137.5 -45.5q-125 0 -209 43l27 66q78 -29 141 -29q129 0 129 88z" />
    <glyph glyph-name="ogonekcmb" unicode="&#x328;" horiz-adv-x="0" 
d="M-103 -430q-198 0 -198 168q0 80 78 150.5t155 115.5h78q-152 -119 -167 -175t-15 -94t27.5 -61.5t62.5 -23.5q64 0 113 84l59 -27q-81 -137 -193 -137z" />
    <glyph glyph-name="uni032D.circumflexBelowComb" unicode="&#x32d;" horiz-adv-x="0" 
d="M-379 -449l-176 209l-180 -209h-117l231 289h142l233 -289h-133z" />
    <glyph glyph-name="uni032E.breveBelowComb" unicode="&#x32e;" horiz-adv-x="0" 
d="M-532 -342q58 0 122 44t76 124h80q-16 -123 -95 -191.5t-203 -68.5t-200.5 67.5t-87.5 192.5h80q4 -78 63 -123t165 -45z" />
    <glyph glyph-name="uni0330.tildeBelowComb" unicode="&#x330;" horiz-adv-x="0" 
d="M-564 -350q-89 47 -129 47t-70 -26.5t-30 -78.5h-79q14 127 77.5 162t104.5 35t80 -14.5t72.5 -30.5t63.5 -30.5t68 -14.5q66 0 97 98h78q-22 -129 -80 -161.5t-111 -32.5t-142 47z" />
    <glyph glyph-name="uni0331.macronBelowComb" unicode="&#x331;" horiz-adv-x="0" 
d="M-881 -262h672v-92h-672v92z" />
    <glyph glyph-name="soliduslongoverlaycmb" unicode="&#x338;" horiz-adv-x="0" 
d="M-76 1493h105l-625 -1522h-109z" />
    <glyph glyph-name="uni0340.graveToneComb" unicode="&#x340;" horiz-adv-x="0" 
d="M-682 1493l215 -289h-104l-269 289h158z" />
    <glyph glyph-name="uni0341.acuteToneComb" unicode="&#x341;" horiz-adv-x="0" 
d="M-676 1204l215 289h160l-270 -289h-105z" />
    <glyph glyph-name="uni0344.diaeresisTonosComb" unicode="&#x344;" horiz-adv-x="0" 
d="M-356 1221v206h139v-206h-139zM-565 1174h-105l113 288h160zM-827 1221v206h139v-206h-139z" />
    <glyph glyph-name="uni037E.semicolonGreek" unicode="&#x37e;" horiz-adv-x="569" 
d="M371 0q0 -151 -67.5 -208.5t-113.5 -70.5v89q45 14 72 76.5t23 113.5h-86v217h172v-217zM199 1024h172v-217h-172v217z" />
    <glyph glyph-name="uni0384.tonos" unicode="&#x384;" horiz-adv-x="378" 
d="M158 1174h-105l113 288h160z" />
    <glyph glyph-name="uni0385.diaeresisTonos" unicode="&#x385;" horiz-adv-x="694" 
d="M512 1221v206h139v-206h-139zM303 1174h-104l112 288h160zM41 1221v206h139v-206h-139z" />
    <glyph glyph-name="uni0386.AlphaTonos" unicode="&#x386;" horiz-adv-x="1331" 
d="M772 1462l574 -1462h-150l-178 455h-666l-176 -455h-147l587 1462h156zM971 573l-283 750l-293 -750h576zM143 1174h-104l113 288h159z" />
    <glyph glyph-name="uni0387.anoteleia" unicode="&#x387;" horiz-adv-x="569" 
d="M199 637v217h172v-217h-172z" />
    <glyph glyph-name="uni0388.EpsilonTonos" unicode="&#x388;" horiz-adv-x="1445" 
d="M1389 1462v-119h-871v-528h815v-119h-815v-577h881v-119h-1020v1462h1010zM133 1174h-104l112 288h160z" />
    <glyph glyph-name="uni0389.EtaTonos" unicode="&#x389;" horiz-adv-x="1673" 
d="M518 1462v-635h868v635h140v-1462h-140v709h-868v-709h-139v1462h139zM133 1174h-104l112 288h160z" />
    <glyph glyph-name="uni038A.IotaTonos" unicode="&#x38a;" horiz-adv-x="686" 
d="M528 1462v-1462h-139v1462h139zM133 1174h-104l112 288h160z" />
    <glyph glyph-name="uni038C.OmicronTonos" unicode="&#x38c;" horiz-adv-x="1667" 
d="M219 731.5q0 151.5 43 288.5t129 242.5t216 168t302 62.5t301 -62.5t215 -168t129 -242.5t43 -288.5t-43 -289t-129 -242t-215 -167t-301 -62.5t-302 62.5t-216 167t-129 242t-43 289zM497 278.5q139 -190.5 411.5 -190.5t411 189.5t138.5 453.5t-138 453.5t-411.5 189.5
t-412 -190.5t-138.5 -452.5t139 -452.5zM133 1174h-104l112 288h160z" />
    <glyph glyph-name="uni038E.UpsilonTonos" unicode="&#x38e;" horiz-adv-x="1605" 
d="M1049 0h-140v602l-573 860h164l481 -741l479 741h166l-577 -860v-602zM133 1174h-104l112 288h160z" />
    <glyph glyph-name="uni038F.OmegaTonos" unicode="&#x38f;" horiz-adv-x="1742" 
d="M1677 0h-514v98q177 117 281 325.5t104 438.5t-144.5 371t-398.5 141t-398 -142t-144 -371t103.5 -436t281.5 -327v-98h-514v119h319v8q-218 175 -270.5 383t-52.5 350t49 262.5t138 202.5t213 125t353 43t413.5 -170t184.5 -477q0 -235 -93 -422t-230 -297v-8h319v-119z
M133 1174h-104l112 288h160z" />
    <glyph glyph-name="uni0390.iotaDiaeresisTonos" unicode="&#x390;" horiz-adv-x="489" 
d="M426 1221v206h139v-206h-139zM217 1174h-104l112 288h160zM-45 1221v206h139v-206h-139zM319 0q-98 0 -129.5 52t-31.5 143v862h129v-871q0 -78 75 -77q23 0 41 8v-109q-46 -8 -84 -8z" />
    <glyph glyph-name="uni0391.Alpha" unicode="&#x391;" horiz-adv-x="1290" 
d="M731 1462l574 -1462h-150l-178 455h-666l-176 -455h-147l587 1462h156zM930 573l-283 750l-293 -750h576z" />
    <glyph glyph-name="uni0392.Beta" unicode="&#x392;" horiz-adv-x="1366" 
d="M766 119q385 0 385 301q0 141 -99.5 211.5t-285.5 70.5h-479v-583h479zM766 1462q323 0 396 -128t73 -208q0 -141 -72 -234t-182 -116v-4q141 -18 225 -115t84 -245q0 -309 -202.5 -360.5t-321.5 -51.5h-619v1462h619zM766 821q160 0 245 70.5t85 177.5q0 274 -330 274
h-479v-522h479z" />
    <glyph glyph-name="uni0393.Gamma" unicode="&#x393;" horiz-adv-x="1099" 
d="M147 1462h928v-119h-788v-1343h-140v1462z" />
    <glyph glyph-name="uni0394.Delta" unicode="&#x394;" horiz-adv-x="1380" 
d="M1147 119l-461 1204l-467 -1204h928zM614 1462h156l573 -1462h-1316z" />
    <glyph glyph-name="uni0395.Epsilon" unicode="&#x395;" horiz-adv-x="1214" 
d="M1157 1462v-119h-870v-528h815v-119h-815v-577h880v-119h-1020v1462h1010z" />
    <glyph glyph-name="uni0396.Zeta" unicode="&#x396;" horiz-adv-x="1175" 
d="M1128 1462v-123l-962 -1220h983v-119h-1139v123l963 1220h-897v119h1052z" />
    <glyph glyph-name="uni0397.Eta" unicode="&#x397;" horiz-adv-x="1441" 
d="M287 1462v-635h868v635h139v-1462h-139v709h-868v-709h-140v1462h140z" />
    <glyph glyph-name="uni0398.Theta" unicode="&#x398;" horiz-adv-x="1517" 
d="M420 676v119h676v-119h-676zM250 1272.5q180 220.5 509 220.5t509 -220.5t180 -541.5q0 -320 -180 -541t-509 -221t-509 220.5t-180 541.5t180 541.5zM348.5 277.5q139.5 -189.5 410.5 -189.5q272 0 411 190.5t139 452.5t-138.5 452.5t-411.5 190.5t-411.5 -189.5
t-138.5 -453.5t139.5 -453.5z" />
    <glyph glyph-name="uni0399.Iota" unicode="&#x399;" horiz-adv-x="454" 
d="M297 1462v-1462h-139v1462h139z" />
    <glyph glyph-name="uni039A.Kappa" unicode="&#x39a;" horiz-adv-x="1327" 
d="M287 1462v-786l850 786h188l-653 -604l684 -858h-180l-609 762l-280 -260v-502h-140v1462h140z" />
    <glyph glyph-name="uni039B.Lambda" unicode="&#x39b;" horiz-adv-x="1290" 
d="M575 1462h156l574 -1462h-150l-508 1323l-512 -1323h-149z" />
    <glyph glyph-name="uni039C.Mu" unicode="&#x39c;" horiz-adv-x="1705" 
d="M1563 1462v-1462h-140v1264h-4l-499 -1264h-132l-501 1264h-4v-1264h-140v1462h205l506 -1282l504 1282h205z" />
    <glyph glyph-name="uni039D.Nu" unicode="&#x39d;" horiz-adv-x="1441" 
d="M1157 225v1237h139v-1462h-155l-852 1237h-4v-1237h-140v1462h156l852 -1237h4z" />
    <glyph glyph-name="uni039E.Xi" unicode="&#x39e;" horiz-adv-x="1202" 
d="M123 696v119h956v-119h-956zM68 1343v119h1067v-119h-1067zM57 0v119h1088v-119h-1088z" />
    <glyph glyph-name="uni039F.Omicron" unicode="&#x39f;" horiz-adv-x="1517" 
d="M70 731.5q0 151.5 43 288.5t129 242.5t216 168t302 62.5t301 -62.5t215 -168t129 -242.5t43 -288.5t-43 -289t-129 -242t-215 -167t-301 -62.5t-302 62.5t-216 167t-129 242t-43 289zM348.5 277.5q139.5 -189.5 411 -189.5t410.5 190.5t139 452.5t-138.5 452.5
t-411 190.5t-411.5 -189.5t-139 -453.5t139.5 -453.5z" />
    <glyph glyph-name="uni03A0.Pi" unicode="&#x3a0;" horiz-adv-x="1441" 
d="M147 1462h1147v-1462h-139v1343h-868v-1343h-140v1462z" />
    <glyph glyph-name="uni03A1.Rho" unicode="&#x3a1;" horiz-adv-x="1290" 
d="M797 1462q200 0 317 -111.5t117 -306t-117 -306t-317 -111.5h-510v-627h-140v1462h650zM766 745q145 0 235.5 74t90.5 225.5t-90.5 225t-235.5 73.5h-479v-598h479z" />
    <glyph glyph-name="uni03A3.Sigma" unicode="&#x3a3;" horiz-adv-x="1153" 
d="M1106 119v-119h-1020v129l608 637l-608 563v133h1010v-119h-846l604 -571l-621 -653h873z" />
    <glyph glyph-name="uni03A4.Tau" unicode="&#x3a4;" 
d="M1149 1462v-119h-510v-1343h-139v1343h-508v119h1157z" />
    <glyph glyph-name="uni03A5.Upsilon" unicode="&#x3a5;" horiz-adv-x="1251" 
d="M694 0h-139v602l-573 860h163l482 -741l479 741h166l-578 -860v-602z" />
    <glyph glyph-name="uni03A6.Phi" unicode="&#x3a6;" horiz-adv-x="1517" 
d="M182 762q0 -211 126 -342t380 -146v953q-256 -12 -381 -133t-125 -332zM1333 762q0 211 -125 331.5t-381 133.5v-953q254 14 380 145.5t126 342.5zM688 1524h139v-178q313 -14 479.5 -168t166.5 -416t-169.5 -426t-476.5 -180v-156h-139v156q-307 16 -476 178.5
t-169 424.5q0 263 166 417.5t479 169.5v178z" />
    <glyph glyph-name="uni03A7.Chi" unicode="&#x3a7;" horiz-adv-x="1175" 
d="M170 1462l414 -612l428 612h155l-499 -712l528 -750h-168l-444 645l-451 -645h-156l525 754l-496 708h164z" />
    <glyph glyph-name="uni03A8.Psi" unicode="&#x3a8;" horiz-adv-x="1607" 
d="M733 1462h139v-1026q332 16 397.5 174t65.5 285v567h140v-598q0 -244 -156.5 -389t-446.5 -158v-317h-139v319q-289 17 -444.5 159.5t-155.5 385.5v598h139v-567q0 -357 310 -432q70 -18 151 -25v1024z" />
    <glyph glyph-name="Omegagreek" unicode="&#x3a9;" horiz-adv-x="1548" 
d="M121 119h403v168q-185 52 -294 206.5t-109 358.5q0 272 193.5 448.5t462 176.5t407.5 -129t191 -244.5t52 -231.5q0 -222 -107.5 -378.5t-295.5 -206.5v-168h403v-119h-514v373q181 32 279 159t98 332q0 204 -147 349t-365 145t-369 -145t-151 -363q0 -290 142.5 -376.5
t234.5 -100.5v-373h-514v119z" />
    <glyph glyph-name="uni03AA.IotaDiaeresis" unicode="&#x3aa;" horiz-adv-x="454" 
d="M338 1851h139v-206h-139v206zM-23 1851h138v-206h-138v206zM297 1462v-1462h-139v1462h139z" />
    <glyph glyph-name="uni03AB.UpsilonDiaeresis" unicode="&#x3ab;" horiz-adv-x="1251" 
d="M735 1851h139v-206h-139v206zM375 1851h137v-206h-137v206zM694 0h-139v602l-573 860h163l482 -741l479 741h166l-578 -860v-602z" />
    <glyph glyph-name="uni03AC.alphaTonos" unicode="&#x3ac;" horiz-adv-x="1212" 
d="M567 1174h-104l112 288h160zM300 212.5q93 -134.5 274 -134.5t277.5 133t96.5 317.5t-96.5 317.5t-277.5 133t-274 -134.5t-93 -316t93 -316zM1104 0q-86 0 -116 46.5t-30 137.5v17h-4q-38 -100 -153.5 -166t-235.5 -66q-121 0 -212 45t-152.5 122t-92 178.5t-30.5 277.5
t128 335.5t359 159.5q123 0 232 -61.5t147 -169.5h4v201h129v-871q0 -78 76 -77q23 0 41 8v-109q-46 -8 -90 -8z" />
    <glyph glyph-name="uni03AD.epsilonTonos" unicode="&#x3ad;" horiz-adv-x="1032" 
d="M516 1174h-104l112 288h160zM74 295q0 96 60.5 166.5t137.5 87.5v4q-66 18 -114.5 74.5t-48.5 139.5q0 153 118.5 236.5t294.5 83.5t281.5 -75.5t130.5 -241.5h-129q-10 92 -75.5 150.5t-195.5 58.5t-210 -52.5t-80 -148.5q0 -168 219 -168h166v-118h-162
q-117 0 -178.5 -50.5t-61.5 -144.5q0 -221 301 -221q141 0 226.5 74.5t99.5 187.5h127q-57 -369 -487 -369q-170 0 -295 78.5t-125 247.5z" />
    <glyph glyph-name="uni03AE.etaTonos" unicode="&#x3ae;" horiz-adv-x="1099" 
d="M543 1174h-105l113 288h160zM121 1057h129v-183h4q37 96 131 154.5t206 58.5q212 0 300 -102t88 -305v-1071h-129v1050q0 231 -95.5 275.5t-209.5 44.5t-202.5 -102t-92.5 -261v-616h-129v1057z" />
    <glyph glyph-name="uni03AF.iotaTonos" unicode="&#x3af;" horiz-adv-x="389" 
d="M182 1174h-104l112 288h160zM287 0q-98 0 -130 52t-32 143v862h129v-871q0 -78 76 -77q23 0 41 8v-109q-46 -8 -84 -8z" />
    <glyph glyph-name="uni03B0.upsilonDiaeresisTonos" unicode="&#x3b0;" horiz-adv-x="1069" 
d="M535 78q335 0 335 450q0 244 -53 369t-78 160h144q74 -127 95 -284t21 -265q0 -242 -115 -390.5t-338 -148.5t-324 92.5t-101 309.5v686h129v-688q0 -143 64.5 -217t220.5 -74zM514 1520h123l-109 -338h-69zM700 1405h119v-207h-119v207zM238 1405h116v-207h-116v207z
" />
    <glyph glyph-name="uni03B1.alpha" unicode="&#x3b1;" horiz-adv-x="1212" 
d="M300 212.5q93 -134.5 274 -134.5t277.5 133t96.5 317.5t-96.5 317.5t-277.5 133t-274 -134.5t-93 -316t93 -316zM1104 0q-86 0 -116 46.5t-30 137.5v17h-4q-38 -100 -153.5 -166t-235.5 -66q-121 0 -212 45t-152.5 122t-92 178.5t-30.5 277.5t128 335.5t359 159.5
q123 0 232 -61.5t147 -169.5h4v201h129v-871q0 -78 76 -77q23 0 41 8v-109q-46 -8 -90 -8z" />
    <glyph glyph-name="uni03B2.beta" unicode="&#x3b2;" horiz-adv-x="1116" 
d="M918 428q0 186 -123.5 256t-343.5 70v108q262 0 327.5 93.5t65.5 172.5q0 117 -77 186.5t-227 69.5t-218 -75.5t-68 -223.5v-811q52 -71 113 -118q86 -63 211 -64q228 0 284 119t56 217zM125 1096q0 203 114.5 300t308.5 97t309.5 -95t115.5 -265q0 -111 -60.5 -197
t-171.5 -111v-4q143 -12 224.5 -121.5t81.5 -239.5q0 -236 -128 -356t-333 -120t-318 116q-8 8 -14 17v-508h-129v1487z" />
    <glyph glyph-name="uni03B3.gamma" unicode="&#x3b3;" horiz-adv-x="948" 
d="M502 -391h-129v285q0 299 -108 607t-257 556h152q102 -156 200.5 -421.5t118.5 -469.5h10q108 173 184 379t134 512h131q-99 -579 -436 -1082v-366z" />
    <glyph glyph-name="uni03B4.delta" unicode="&#x3b4;" 
d="M852.5 750.5q-85.5 100.5 -268.5 183.5q-161 -30 -274 -151.5t-113 -299.5t97.5 -291.5t273.5 -113.5t273 115t97 286t-85.5 271.5zM605 1389q-206 0 -206 -119q0 -51 31 -92t128 -99q98 -59 176 -96t138 -90q108 -96 151.5 -188t43.5 -213t-33 -212.5t-96.5 -160
t-156.5 -109.5t-271.5 -41t-310 140t-131.5 363t122.5 355.5t290.5 176.5v8q-211 95 -211 258q0 227 363 227q190 0 270 -55v-117q-92 64 -298 64z" />
    <glyph glyph-name="uni03B5.epsilon" unicode="&#x3b5;" horiz-adv-x="1032" 
d="M74 295q0 96 60.5 166.5t137.5 87.5v4q-66 18 -114.5 74.5t-48.5 139.5q0 153 118.5 236.5t294.5 83.5t281.5 -75.5t130.5 -241.5h-129q-10 92 -75.5 150.5t-195.5 58.5t-210 -52.5t-80 -148.5q0 -168 219 -168h166v-118h-162q-117 0 -178.5 -50.5t-61.5 -144.5
q0 -221 301 -221q141 0 226.5 74.5t99.5 187.5h127q-57 -369 -487 -369q-170 0 -295 78.5t-125 247.5z" />
    <glyph glyph-name="uni03B6.zeta" unicode="&#x3b6;" horiz-adv-x="897" 
d="M645 109q225 0 225 -206q0 -109 -26 -218h-127q33 116 33 190t-30 99.5t-93 25.5h-86q-223 0 -347 142.5t-124 394.5q0 537 624 815h-528v110h721v-98q-336 -134 -516 -352t-172 -457t111.5 -342.5t275.5 -103.5h59z" />
    <glyph glyph-name="uni03B7.eta" unicode="&#x3b7;" horiz-adv-x="1099" 
d="M121 1057h129v-183h4q37 96 131 154.5t206 58.5q212 0 300 -102t88 -305v-1071h-129v1050q0 231 -95.5 275.5t-209.5 44.5t-202.5 -102t-92.5 -261v-616h-129v1057z" />
    <glyph glyph-name="uni03B8.theta" unicode="&#x3b8;" horiz-adv-x="1175" 
d="M217 659q17 -581 369.5 -581t369.5 581h-739zM544.5 1384q-137.5 0 -228 -160t-99.5 -446h739q-13 432 -143.5 519t-268 87zM588 1493q129 0 223 -54.5t155.5 -155.5t91 -243.5t29.5 -320.5t-29.5 -317.5t-91 -235.5t-155.5 -146.5t-223 -50.5t-223.5 50.5t-156 146.5
t-91 235.5t-29.5 317.5t29.5 320.5t91 243.5t156 155.5t223.5 54.5z" />
    <glyph glyph-name="uni03B9.iota" unicode="&#x3b9;" horiz-adv-x="389" 
d="M287 0q-98 0 -130 52t-32 143v862h129v-871q0 -78 76 -77q23 0 41 8v-109q-46 -8 -84 -8z" />
    <glyph glyph-name="uni03BA.kappa" unicode="&#x3ba;" horiz-adv-x="1024" 
d="M252 1057v-512l586 512h172l-451 -391l481 -666h-161l-418 575l-209 -174v-401h-129v1057h129z" />
    <glyph glyph-name="uni03BB.lambda" unicode="&#x3bb;" horiz-adv-x="983" 
d="M168 1374q-65 0 -102 -14v108q35 14 97 14q117 1 174 -47.5t105 -185.5l414 -1097q10 -27 24.5 -35t40.5 -8t44 8v-109q-126 -22 -163.5 8.5t-51.5 67.5l-271 760l-334 -844h-137l408 995l-78 209q-35 92 -70 131t-100 39z" />
    <glyph glyph-name="uni03BC.mu" unicode="&#x3bc;" horiz-adv-x="1099" 
d="M477 -29q-133 0 -225 70v-430h-131v1446h129v-688q4 -143 66.5 -217t216.5 -74t235.5 123t81.5 301v555h129v-1057h-119v190h-4q-51 -106 -148.5 -162.5t-230.5 -56.5z" />
    <glyph glyph-name="uni03BD.nu" unicode="&#x3bd;" horiz-adv-x="964" 
d="M483 129q240 465 328 928h133q-121 -545 -395 -1057h-137l-408 1057h143l332 -928h4z" />
    <glyph glyph-name="uni03BE.xi" unicode="&#x3be;" horiz-adv-x="911" 
d="M760 -128q0 73 -20.5 100.5t-88.5 27.5h-129q-207 0 -318.5 116.5t-111.5 289.5q0 287 268 370v4q-96 31 -156.5 115t-60.5 190q0 197 114 304.5t291 107.5t290 -53v-123q-121 68 -275 68t-222.5 -72t-68.5 -210t69 -203.5t257 -65.5h190v-119h-198q-201 0 -285 -81
t-84 -219t92.5 -224t251.5 -86h117q98 0 148.5 -48.5t50.5 -165.5t-27 -210h-127q33 114 33 187z" />
    <glyph glyph-name="uni03BF.omicron" unicode="&#x3bf;" 
d="M569.5 1087q120.5 0 214 -45t157 -120.5t96 -177t32.5 -216t-32.5 -216t-96 -177.5t-157 -120t-214 -44t-214 44t-157 120t-96 177.5t-32.5 216t32.5 216t96 177t157 120.5t214 45zM569.5 979q-92.5 0 -162 -39t-115.5 -102.5t-69.5 -144.5t-23.5 -165t23.5 -164.5
t69.5 -144t115.5 -102.5t162 -39t162 39t115.5 102.5t69.5 144t23.5 164.5t-23.5 165t-69.5 144.5t-115.5 102.5t-162 39z" />
    <glyph glyph-name="pi" unicode="&#x3c0;" horiz-adv-x="1224" 
d="M1030 -12q-105 0 -132.5 61t-27.5 178v721h-536v-948h-129v948h-144v109h1094v-109h-156v-735q0 -45 11.5 -78t59.5 -33t93 21v-100q-76 -35 -133 -35z" />
    <glyph glyph-name="uni03C1.rho" unicode="&#x3c1;" horiz-adv-x="1175" 
d="M881 846q-88 133 -272 133t-270.5 -123.5t-86.5 -327.5q0 -298 134 -374t232 -76t163 40t126.5 133t61.5 277.5t-88 317.5zM123 518q0 400 182.5 484.5t310.5 84.5t217 -45t148 -121.5t88 -178t29 -277.5t-122.5 -336t-352.5 -160q-193 0 -270 87t-97 145h-4v-592h-129
v909z" />
    <glyph glyph-name="uni03C2.sigma1" unicode="&#x3c2;" horiz-adv-x="1062" 
d="M645 109q225 0 225 -206q0 -109 -26 -218h-127q33 116 33 190t-30 99.5t-93 25.5h-86q-219 0 -345 141t-126 384q0 244 134 403t365 159q170 0 288 -90t140 -272h-129q-58 254 -299 254q-174 0 -272 -135t-98 -316t101 -300t286 -119h59z" />
    <glyph glyph-name="uni03C3.sigma" unicode="&#x3c3;" horiz-adv-x="1165" 
d="M569.5 948q-92.5 0 -162 -33.5t-115.5 -92t-69.5 -134.5t-23.5 -160t23.5 -164.5t69.5 -144t115.5 -102.5t162 -39t162 39t115.5 102.5t69.5 144t23.5 164.5t-23.5 160t-69.5 134.5t-115.5 92t-162 33.5zM1139 1057v-109h-267q88 -72 138.5 -180.5t50.5 -231.5t-32 -224
t-93.5 -177t-153.5 -121t-268.5 -45t-310 160t-133.5 397q0 238 132 384.5t367 146.5h570z" />
    <glyph glyph-name="uni03C4.tau" unicode="&#x3c4;" horiz-adv-x="903" 
d="M545 0q-98 0 -130 52t-32 143v753h-369v109h877v-109h-379v-762q0 -78 76 -77q23 0 41 8v-109q-46 -8 -84 -8z" />
    <glyph glyph-name="uni03C5.upsilon" unicode="&#x3c5;" horiz-adv-x="1069" 
d="M535 78q335 0 335 450q0 244 -53 369t-78 160h144q74 -127 95 -284t21 -265q0 -242 -115 -390.5t-338 -148.5t-324 92.5t-101 309.5v686h129v-688q0 -143 64.5 -217t220.5 -74z" />
    <glyph glyph-name="uni03C6.phi" unicode="&#x3c6;" horiz-adv-x="1349" 
d="M310.5 214q111.5 -136 299.5 -136v901q-185 0 -298 -135.5t-113 -314.5t111.5 -315zM739 78q188 0 300 136t112 315.5t-114 314.5t-298 135v-901zM610 -31q-249 0 -394.5 160t-145.5 400t145.5 399t394.5 159v277h129v-277q250 0 395.5 -160t145.5 -398t-145 -399
t-396 -161v-360h-129v360z" />
    <glyph glyph-name="uni03C7.chi" unicode="&#x3c7;" horiz-adv-x="948" 
d="M549 379l426 -770h-150l-358 670l-365 -670h-139l428 776l-387 672h150l317 -572l334 572h139z" />
    <glyph glyph-name="uni03C8.psi" unicode="&#x3c8;" horiz-adv-x="1290" 
d="M588 -31q-467 0 -467 402v686h129v-688q0 -143 91 -217t247 -74v1286h129v-1286q186 4 280.5 124.5t94.5 343.5t-53.5 349.5t-77.5 161.5h143q73 -125 95 -283t22 -266t-34 -210.5t-134 -215.5t-336 -113v-360h-129v360z" />
    <glyph glyph-name="uni03C9.omega" unicode="&#x3c9;" horiz-adv-x="1476" 
d="M451 -31q-178 0 -279.5 151t-101.5 399t49 377.5t67 160.5h144q-86 -121 -108.5 -283t-22.5 -255q0 -190 67.5 -315.5t171.5 -125.5t170 73.5t66 217.5v458h129v-458q0 -143 65.5 -217t169.5 -74t172 125.5t68 302.5t-38 324t-93 227h143q73 -125 95 -283t22 -266
q0 -236 -100 -387.5t-281 -151.5q-211 0 -289 174q-78 -174 -286 -174z" />
    <glyph glyph-name="uni03CA.iotaDiaeresis" unicode="&#x3ca;" horiz-adv-x="454" 
d="M338 1446h139v-207h-139v207zM-23 1446h138v-207h-138v207zM319 0q-98 0 -129.5 52t-31.5 143v862h129v-871q0 -78 75 -77q23 0 41 8v-109q-46 -8 -84 -8z" />
    <glyph glyph-name="uni03CB.upsilonDiaeresis" unicode="&#x3cb;" horiz-adv-x="1069" 
d="M621 1446h139v-207h-139v207zM260 1446h137v-207h-137v207zM535 78q335 0 335 450q0 244 -53 369t-78 160h144q74 -127 95 -284t21 -265q0 -242 -115 -390.5t-338 -148.5t-324 92.5t-101 309.5v686h129v-688q0 -143 64.5 -217t220.5 -74z" />
    <glyph glyph-name="uni03CC.omicronTonos" unicode="&#x3cc;" 
d="M557 1174h-104l112 288h160zM569.5 1087q120.5 0 214 -45t157 -120.5t96 -177t32.5 -216t-32.5 -216t-96 -177.5t-157 -120t-214 -44t-214 44t-157 120t-96 177.5t-32.5 216t32.5 216t96 177t157 120.5t214 45zM569.5 979q-92.5 0 -162 -39t-115.5 -102.5t-69.5 -144.5
t-23.5 -165t23.5 -164.5t69.5 -144t115.5 -102.5t162 -39t162 39t115.5 102.5t69.5 144t23.5 164.5t-23.5 165t-69.5 144.5t-115.5 102.5t-162 39z" />
    <glyph glyph-name="uni03CD.upsilonTonos" unicode="&#x3cd;" horiz-adv-x="1069" 
d="M510 1174h-104l112 288h160zM535 78q335 0 335 450q0 244 -53 369t-78 160h144q74 -127 95 -284t21 -265q0 -242 -115 -390.5t-338 -148.5t-324 92.5t-101 309.5v686h129v-688q0 -143 64.5 -217t220.5 -74z" />
    <glyph glyph-name="uni03CE.omegaTonos" unicode="&#x3ce;" horiz-adv-x="1476" 
d="M727 1174h-104l112 288h160zM451 -31q-178 0 -279.5 151t-101.5 399t49 377.5t67 160.5h144q-86 -121 -108.5 -283t-22.5 -255q0 -190 67.5 -315.5t171.5 -125.5t170 73.5t66 217.5v458h129v-458q0 -143 65.5 -217t169.5 -74t172 125.5t68 302.5t-38 324t-93 227h143
q73 -125 95 -283t22 -266q0 -236 -100 -387.5t-281 -151.5q-211 0 -289 174q-78 -174 -286 -174z" />
    <glyph glyph-name="uni0400" unicode="&#x400;" horiz-adv-x="1214" 
d="M578 1868l215 -289h-105l-268 289h158zM147 1462h1010v-119h-870v-528h815v-119h-815v-577h880v-119h-1020v1462z" />
    <glyph glyph-name="afii10023" unicode="&#x401;" horiz-adv-x="1214" 
d="M778 1821h140v-207h-140v207zM418 1821h137v-207h-137v207zM147 1462h1010v-119h-870v-528h815v-119h-815v-577h880v-119h-1020v1462z" />
    <glyph glyph-name="afii10051" unicode="&#x402;" horiz-adv-x="1568" 
d="M934 104q205 0 303 97.5t98 271.5t-104.5 259t-276.5 85t-264 -109.5t-92 -320.5v-387h-139v1343h-469v119h1159v-119h-551v-620h6q71 151 203.5 181t214.5 30t171 -30t186.5 -119t97.5 -317t-138 -358t-374 -130q-57 0 -119 8v121q58 -5 88 -5z" />
    <glyph glyph-name="afii10052" unicode="&#x403;" horiz-adv-x="1052" 
d="M487 1579l215 289h160l-270 -289h-105zM160 1462h903v-119h-764v-1343h-139v1462z" />
    <glyph glyph-name="afii10053" unicode="&#x404;" horiz-adv-x="1423" 
d="M209 231q-139 153 -139 487t181.5 554.5t498.5 220.5q225 0 398 -129.5t198 -343.5h-140q-35 166 -157.5 260t-303.5 94q-223 0 -368.5 -153.5t-165.5 -407.5h770v-117h-774q8 -277 156 -442.5t387 -165.5q296 0 375 164t96 256h137q-36 -250 -197 -393.5t-425 -143.5
q-138 0 -263 53.5t-264 206.5z" />
    <glyph glyph-name="afii10054" unicode="&#x405;" horiz-adv-x="1290" 
d="M213 481q-7 -393 477 -393q140 0 263.5 76.5t123.5 229.5q0 185 -301 255l-325 80q-330 80 -330 352q0 151 115.5 281.5t388.5 130.5q232 0 386 -120.5t154 -334.5h-139q-8 159 -121.5 247.5t-277.5 88.5q-250 0 -308.5 -104t-58.5 -172q0 -111 60 -163t161 -75l357 -88
q273 -70 326 -184t53 -170t-5.5 -96.5t-25 -87t-55 -93.5t-98 -85t-155 -61.5t-294 -23.5t-361.5 127t-149 383h139z" />
    <glyph glyph-name="afii10055" unicode="&#x406;" horiz-adv-x="454" 
d="M158 1462h139v-1462h-139v1462z" />
    <glyph glyph-name="afii10056" unicode="&#x407;" horiz-adv-x="454" 
d="M338 1821h139v-207h-139v207zM-23 1821h138v-207h-138v207zM158 1462h139v-1462h-139v1462z" />
    <glyph glyph-name="afii10057" unicode="&#x408;" horiz-adv-x="1024" 
d="M43 469h139q2 -47 6.5 -112.5t46.5 -167t228 -101.5q159 0 216.5 85.5t57.5 293.5v995h140v-1054q0 -227 -97 -332t-333 -105q-226 0 -315 136.5t-89 361.5z" />
    <glyph glyph-name="afii10058" unicode="&#x409;" horiz-adv-x="2297" 
d="M1774 119q154 0 239.5 81t85.5 222t-86 222t-239 81h-480v-606h480zM68 109q48 0 78 5t139.5 106.5t109.5 1034.5v207h899v-618h510q205 0 319.5 -113t114.5 -309.5t-114.5 -309t-319.5 -112.5h-649v1343h-625v-79q0 -850 -117 -1053.5t-191 -213t-98 -9.5t-42.5 2
t-44.5 5t-45 9v119q28 -14 76 -14z" />
    <glyph glyph-name="afii10059" unicode="&#x40a;" horiz-adv-x="2297" 
d="M1774 119q154 0 239.5 81t85.5 222t-86 222t-239 81h-480v-606h480zM147 1462h140v-618h868v618h139v-618h510q205 0 319.5 -113t114.5 -309.5t-114.5 -309t-319.5 -112.5h-649v725h-868v-725h-140v1462z" />
    <glyph glyph-name="afii10060" unicode="&#x40b;" horiz-adv-x="1568" 
d="M459 1343h-469v119h1159v-119h-551v-497q112 54 231 71t162 17q275 0 365 -116t90 -304v-514h-139v506q0 127 -41 185.5t-103.5 90t-138.5 31.5q-120 0 -244 -30t-182 -64v-719h-139v1343z" />
    <glyph glyph-name="afii10061" unicode="&#x40c;" horiz-adv-x="1327" 
d="M578 1579l215 289h159l-270 -289h-104zM147 1462h140v-786l850 786h188l-653 -604l684 -858h-180l-609 762l-280 -260v-502h-140v1462z" />
    <glyph glyph-name="uni040D" unicode="&#x40d;" horiz-adv-x="1454" 
d="M598 1868l215 -289h-104l-269 289h158zM147 1462h140v-1312l839 1312h181v-1462h-140v1313l-839 -1313h-181v1462z" />
    <glyph glyph-name="afii10062" unicode="&#x40e;" horiz-adv-x="1204" 
d="M928 1849q-47 -266 -301 -266t-287 266h80q10 -78 64.5 -123t144.5 -45t146 44t73 124h80zM262 -16q-74 0 -131 20v123q67 -25 148 -25q80 0 132 49.5t101 153.5l18 39l-542 1118h149l475 -970l463 970h148l-576 -1192q-119 -248 -215 -267t-170 -19z" />
    <glyph glyph-name="afii10145" unicode="&#x40f;" horiz-adv-x="1421" 
d="M641 0h-494v1462h140v-1343h848v1343h139v-1462h-494v-389h-139v389z" />
    <glyph glyph-name="afii10017" unicode="&#x410;" horiz-adv-x="1290" 
d="M930 573l-283 750l-293 -750h576zM575 1462h156l574 -1462h-150l-178 455h-666l-176 -455h-147z" />
    <glyph glyph-name="afii10018" unicode="&#x411;" horiz-adv-x="1366" 
d="M807 119q154 0 240 81t86 222t-86 222t-240 81h-520v-606h520zM147 1462h1010v-119h-870v-499h551q205 0 319.5 -113t114.5 -309.5t-115 -309t-319 -112.5h-691v1462z" />
    <glyph glyph-name="afii10019" unicode="&#x412;" horiz-adv-x="1366" 
d="M766 821q160 0 245 70.5t85 177.5q0 274 -330 274h-479v-522h479zM766 119q273 0 329 105.5t56 195.5q0 141 -99.5 211.5t-285.5 70.5h-479v-583h479zM147 1462h619q323 0 396 -128t73 -208q0 -141 -72 -234t-182 -116v-4q141 -18 225 -115.5t84 -248.5t-105.5 -279.5
t-418.5 -128.5h-619v1462z" />
    <glyph glyph-name="afii10020" unicode="&#x413;" horiz-adv-x="1052" 
d="M160 1462h903v-119h-764v-1343h-139v1462z" />
    <glyph glyph-name="afii10021" unicode="&#x414;" horiz-adv-x="1466" 
d="M1137 119v1224h-627v-49q0 -366 -37 -645.5t-172 -529.5h836zM0 119h154q191 350 204 688t13 463v192h905v-1343h174v-508h-139v389h-1172v-389h-139v508z" />
    <glyph glyph-name="afii10022" unicode="&#x415;" horiz-adv-x="1214" 
d="M147 1462h1010v-119h-870v-528h815v-119h-815v-577h880v-119h-1020v1462z" />
    <glyph glyph-name="afii10024" unicode="&#x416;" horiz-adv-x="2027" 
d="M944 1462h139v-770l721 770h189l-607 -631l658 -831h-180l-576 729l-205 -213v-516h-139v516l-205 213l-575 -729h-180l657 831l-606 631h188l721 -770v770z" />
    <glyph glyph-name="afii10025" unicode="&#x417;" horiz-adv-x="1284" 
d="M674 -31q-284 0 -438 133t-154 367v12h133q0 -203 125 -301t319 -98t302 100t108 235t-95.5 213.5t-236.5 78.5h-233v118h233q122 0 207.5 67t85.5 201t-97.5 207.5t-256.5 73.5q-278 0 -342 -125t-70 -207h-135q12 219 157.5 334t374.5 115q230 0 369 -100t139 -297
q0 -166 -88 -230.5t-127 -79.5v-6q117 -31 185.5 -118t68.5 -244t-91 -257t-195 -146t-248 -46z" />
    <glyph glyph-name="afii10026" unicode="&#x418;" horiz-adv-x="1454" 
d="M147 1462h140v-1312l839 1312h181v-1462h-140v1313l-839 -1313h-181v1462z" />
    <glyph glyph-name="afii10027" unicode="&#x419;" horiz-adv-x="1454" 
d="M1014 1849q-47 -266 -301 -266t-287 266h80q10 -78 64.5 -123t144.5 -45t146.5 44t72.5 124h80zM147 0v1462h140v-1312l839 1312h181v-1462h-140v1313l-839 -1313h-181z" />
    <glyph glyph-name="afii10028" unicode="&#x41a;" horiz-adv-x="1327" 
d="M147 1462h140v-786l850 786h188l-653 -604l684 -858h-180l-609 762l-280 -260v-502h-140v1462z" />
    <glyph glyph-name="afii10029" unicode="&#x41b;" horiz-adv-x="1441" 
d="M68 109q48 0 78 5t139.5 106.5t109.5 1034.5v207h899v-1462h-139v1343h-625v-79q0 -850 -117 -1053.5t-191 -213t-98 -9.5t-42.5 2t-44.5 5t-45 9v119q28 -14 76 -14z" />
    <glyph glyph-name="afii10030" unicode="&#x41c;" horiz-adv-x="1705" 
d="M143 1462h205l506 -1282l504 1282h205v-1462h-140v1264h-4l-499 -1264h-132l-501 1264h-4v-1264h-140v1462z" />
    <glyph glyph-name="afii10031" unicode="&#x41d;" horiz-adv-x="1441" 
d="M147 1462h140v-635h868v635h139v-1462h-139v709h-868v-709h-140v1462z" />
    <glyph glyph-name="afii10032" unicode="&#x41e;" horiz-adv-x="1517" 
d="M1170 278.5q139 190.5 139 452.5t-138.5 452.5t-411.5 190.5t-411.5 -189.5t-138.5 -453.5t139.5 -453.5t410.5 -189.5q272 0 411 190.5zM199 253q-129 157 -129 477q0 321 180 542t509 221t509 -220.5t180 -542.5q0 -321 -180.5 -540t-430 -219t-379.5 62.5t-259 219.5z
" />
    <glyph glyph-name="afii10033" unicode="&#x41f;" horiz-adv-x="1421" 
d="M147 1462h1127v-1462h-139v1343h-848v-1343h-140v1462z" />
    <glyph glyph-name="afii10034" unicode="&#x420;" horiz-adv-x="1290" 
d="M766 745q145 0 235.5 74t90.5 225.5t-90.5 225t-235.5 73.5h-479v-598h479zM147 1462h650q200 0 317 -111.5t117 -306t-117 -306t-317 -111.5h-510v-627h-140v1462z" />
    <glyph glyph-name="afii10035" unicode="&#x421;" horiz-adv-x="1441" 
d="M207 253q-129 157 -129 477q0 321 180 542t510 221q221 0 390 -126t198 -347h-139q-36 167 -161.5 260.5t-279.5 93.5q-282 0 -420.5 -190.5t-138.5 -452.5t139 -452.5t412 -190.5q197 0 323 134.5t146 334.5h139q-28 -270 -190 -428t-440 -158q-150 0 -280 62.5
t-259 219.5z" />
    <glyph glyph-name="afii10036" unicode="&#x422;" 
d="M500 1343h-508v119h1157v-119h-510v-1343h-139v1343z" />
    <glyph glyph-name="afii10037" unicode="&#x423;" horiz-adv-x="1204" 
d="M262 -16q-74 0 -131 20v123q67 -25 148 -25q80 0 132 49.5t101 153.5l18 39l-542 1118h149l475 -970l463 970h148l-576 -1192q-119 -248 -215 -267t-170 -19z" />
    <glyph glyph-name="afii10038" unicode="&#x424;" horiz-adv-x="1638" 
d="M1440 744q0 228 -137.5 353.5t-413.5 137.5v-987q272 16 411.5 142t139.5 354zM199 744q0 -228 139 -354t412 -142v987q-276 -12 -413.5 -137.5t-137.5 -353.5zM245.5 1179q184.5 163 504.5 171v155h139v-155q320 -8 504 -170.5t184 -437.5t-184.5 -439t-503.5 -168v-184
h-139v184q-319 4 -504 168t-185 439q0 274 184.5 437z" />
    <glyph glyph-name="afii10039" unicode="&#x425;" horiz-adv-x="1175" 
d="M502 754l-496 708h164l414 -612l428 612h155l-499 -712l528 -750h-168l-444 645l-451 -645h-156z" />
    <glyph glyph-name="afii10040" unicode="&#x426;" horiz-adv-x="1464" 
d="M1309 0h-1162v1462h140v-1343h848v1343h139v-1343h174v-508h-139v389z" />
    <glyph glyph-name="afii10041" unicode="&#x427;" horiz-adv-x="1290" 
d="M574 725q144 0 430 59v678h139v-1462h-139v666q-124 -32 -262 -47t-187 -15q-282 0 -376.5 116.5t-94.5 303.5v438h139v-430q0 -127 41 -185.5t103.5 -90t206.5 -31.5z" />
    <glyph glyph-name="afii10042" unicode="&#x428;" horiz-adv-x="2097" 
d="M147 1462h140v-1343h692v1343h139v-1343h692v1343h140v-1462h-1803v1462z" />
    <glyph glyph-name="afii10043" unicode="&#x429;" horiz-adv-x="2140" 
d="M1985 0h-1838v1462h140v-1343h692v1343h139v-1343h692v1343h140v-1343h174v-508h-139v389z" />
    <glyph glyph-name="afii10044" unicode="&#x42a;" horiz-adv-x="1574" 
d="M1051 119q154 0 239.5 81t85.5 222t-86 222t-239 81h-480v-606h480zM432 1343h-442v119h581v-618h510q205 0 320 -113t115 -309.5t-115 -309t-320 -112.5h-649v1343z" />
    <glyph glyph-name="afii10045" unicode="&#x42b;" horiz-adv-x="1732" 
d="M1446 1462h139v-1462h-139v1462zM766 119q154 0 240 81t86 222t-86 222t-240 81h-479v-606h479zM147 1462h140v-618h510q205 0 319.5 -113t114.5 -309.5t-115 -309t-319 -112.5h-650v1462z" />
    <glyph glyph-name="afii10046" unicode="&#x42c;" horiz-adv-x="1290" 
d="M766 119q154 0 240 81t86 222t-86 222t-240 81h-479v-606h479zM147 1462h140v-618h510q205 0 319.5 -113t114.5 -309.5t-115 -309t-319 -112.5h-650v1462z" />
    <glyph glyph-name="afii10047" unicode="&#x42d;" horiz-adv-x="1423" 
d="M690 -29q-265 0 -426.5 144t-197.5 393h137q52 -297 211 -358.5t270 -61.5q228 0 375.5 165t157.5 443h-744v117h739q-20 254 -165.5 407.5t-368.5 153.5q-180 0 -303 -94t-158 -260h-139q23 212 197 342.5t399 130.5q317 0 498.5 -220.5t181.5 -553.5t-138.5 -487
t-262 -207.5t-263.5 -53.5z" />
    <glyph glyph-name="afii10048" unicode="&#x42e;" horiz-adv-x="2007" 
d="M1662.5 279q135.5 191 135.5 452t-135 452t-394 191t-394.5 -192t-135.5 -451t136 -451t394 -192t393.5 191zM287 705v-705h-140v1462h140v-639h317q26 288 200.5 479t476.5 191t479 -222t177 -541q0 -318 -177 -538.5t-489 -220.5q-309 0 -486 211t-185 523h-313z" />
    <glyph glyph-name="afii10049" unicode="&#x42f;" horiz-adv-x="1290" 
d="M1004 745v598h-443q-154 0 -244 -80.5t-90 -222t90.5 -218.5t243.5 -77h443zM208.5 1349q120.5 113 321.5 113h613v-1462h-139v627h-328l-488 -627h-180l500 635q-187 8 -303.5 115.5t-116.5 296.5t120.5 302z" />
    <glyph glyph-name="afii10065" unicode="&#x430;" horiz-adv-x="1062" 
d="M799 410v168h-4q-16 -31 -104 -46q-87 -16 -174 -27t-204.5 -48t-117.5 -170q0 -93 68.5 -151t180.5 -58q60 0 127.5 22.5t147.5 91.5t80 218zM539 1087q389 0 389 -339v-562q0 -78 76 -77q25 0 40 8v-109q-46 -8 -89 -8q-85 0 -115.5 45.5t-30.5 138.5h-4
q-78 -113 -160.5 -163t-224.5 -50q-247 0 -300.5 113.5t-53.5 209.5t49 158t130 95t182 46t173 21t135.5 21t63.5 121q0 127 -73 175t-200 48t-204.5 -58.5t-81.5 -187.5h-129q12 186 127.5 270t300.5 84z" />
    <glyph glyph-name="afii10066" unicode="&#x431;" 
d="M940 517q0 195 -101.5 314t-259.5 119t-259 -118t-101 -314t101 -318t260 -122t259.5 122t100.5 317zM563 -29q-128 0 -300.5 97.5t-172.5 537.5q0 275 46 413t85 198q72 111 172.5 157.5t251.5 57.5l98 6q82 4 111 16t41 39h143q-16 -94 -82.5 -128t-201.5 -42l-156 -10
q-180 -12 -274.5 -129t-128.5 -363h6q53 106 157 171t222 65q224 0 356.5 -145t132.5 -393t-134.5 -398t-371.5 -150z" />
    <glyph glyph-name="afii10067" unicode="&#x432;" horiz-adv-x="1058" 
d="M590 600q111 0 167 47t56 127q0 174 -223 174h-340v-348h340zM854 309q0 191 -264 191h-340v-391h340q264 0 264 200zM983 295q0 -143 -96 -219t-283 -76h-483v1057h483q162 0 250 -63.5t88 -171.5q0 -208 -182 -261v-4q223 -39 223 -262z" />
    <glyph glyph-name="afii10068" unicode="&#x433;" horiz-adv-x="819" 
d="M133 1057h698v-109h-569v-948h-129v1057z" />
    <glyph glyph-name="afii10069" unicode="&#x434;" horiz-adv-x="1167" 
d="M408 874q0 -498 -138 -765h594v839h-456v-74zM283 918v139h710v-948h158v-445h-129v336h-881v-336h-129v445h125q146 271 146 809z" />
    <glyph glyph-name="afii10070" unicode="&#x435;" horiz-adv-x="1062" 
d="M546 979q-149 0 -239 -109t-108 -268h684q-4 155 -96 266t-241 111zM547 -29q-241 0 -359 158t-118 394t120 400t357.5 164t355.5 -173.5t109 -419.5h-813q0 -264 128 -340t220 -76q141 0 221 73.5t111 196.5h129q-41 -180 -150.5 -278.5t-310.5 -98.5z" />
    <glyph glyph-name="afii10072" unicode="&#x436;" horiz-adv-x="1509" 
d="M690 1057h129v-539l486 539h174l-412 -443l457 -614h-158l-389 528l-158 -163v-365h-129v365l-158 163l-389 -528h-157l456 614l-411 443h174l485 -541v541z" />
    <glyph glyph-name="afii10073" unicode="&#x437;" horiz-adv-x="993" 
d="M782 302q0 89 -52 144.5t-173 55.5h-176v98h145q92 0 158 49t66 134t-56 139.5t-203 54.5t-211.5 -64.5t-74.5 -162.5h-127q15 177 126 256t288 79q273 0 332 -103.5t59 -165.5q0 -102 -51 -169t-119 -80v-4q136 -22 170.5 -104t34.5 -156t-70 -203t-370 -129
q-195 0 -302.5 97.5t-118.5 263.5h129q35 -252 310 -252q159 0 222.5 66.5t63.5 155.5z" />
    <glyph glyph-name="afii10074" unicode="&#x438;" horiz-adv-x="1114" 
d="M121 1057h129v-905l584 905h159v-1057h-129v905l-583 -905h-160v1057z" />
    <glyph glyph-name="afii10075" unicode="&#x439;" horiz-adv-x="1114" 
d="M553 1311q90 0 146.5 44t72.5 124h80q-48 -267 -300.5 -267t-287.5 267h80q10 -78 64.5 -123t144.5 -45zM121 0v1057h129v-905l584 905h159v-1057h-129v905l-583 -905h-160z" />
    <glyph glyph-name="afii10076" unicode="&#x43a;" horiz-adv-x="1019" 
d="M123 1057h129v-543l586 543h172l-449 -414l475 -643h-162l-407 555l-215 -199v-356h-129v1057z" />
    <glyph glyph-name="afii10077" unicode="&#x43b;" horiz-adv-x="1157" 
d="M90 104q42 0 67 6.5t99 89.5t74 857h706v-1057h-129v948h-452q0 -620 -84.5 -778t-150.5 -169t-115 -11t-97 16v113q40 -15 82 -15z" />
    <glyph glyph-name="afii10078" unicode="&#x43c;" horiz-adv-x="1368" 
d="M121 1057h172l393 -912l389 912h172v-1057h-129v870h-6l-371 -870h-114l-371 870h-6v-870h-129v1057z" />
    <glyph glyph-name="afii10079" unicode="&#x43d;" horiz-adv-x="1099" 
d="M121 1057h129v-449h600v449h129v-1057h-129v500h-600v-500h-129v1057z" />
    <glyph glyph-name="afii10080" unicode="&#x43e;" 
d="M569.5 78q92.5 0 162 39t115.5 102.5t69.5 144t23.5 164.5t-23.5 165t-69.5 144.5t-115.5 102.5t-162 39t-162 -39t-115.5 -102.5t-69.5 -144.5t-23.5 -165t23.5 -164.5t69.5 -144t115.5 -102.5t162 -39zM70 529q0 240 134 399t365.5 159t365.5 -159t134 -399t-133 -399
t-366.5 -159t-366.5 159t-133 399z" />
    <glyph glyph-name="afii10081" unicode="&#x43f;" horiz-adv-x="1085" 
d="M121 1057h844v-1057h-129v948h-586v-948h-129v1057z" />
    <glyph glyph-name="afii10082" unicode="&#x440;" horiz-adv-x="1175" 
d="M618 78q97 0 162.5 40t107.5 103.5t61.5 144t19.5 214t-88 266.5t-272 133t-270.5 -123.5t-86.5 -327.5q0 -298 134.5 -374t231.5 -76zM123 1057h119v-201h4q45 111 146.5 171t226.5 60q234 0 356.5 -159t122.5 -399t-121.5 -399t-353.5 -159q-195 0 -271 86t-96 144h-4
v-590h-129v1446z" />
    <glyph glyph-name="afii10083" unicode="&#x441;" horiz-adv-x="1062" 
d="M569 979q-174 0 -272 -135t-98 -315.5t98 -315.5t272 -135q120 0 207 85t101 216h129q-27 -193 -142 -300.5t-295 -107.5q-233 0 -366 159t-133 399t134 399t365 159q170 0 288 -90t140 -272h-129q-58 254 -299 254z" />
    <glyph glyph-name="afii10084" unicode="&#x442;" horiz-adv-x="907" 
d="M389 948h-391v109h911v-109h-391v-948h-129v948z" />
    <glyph glyph-name="afii10085" unicode="&#x443;" horiz-adv-x="948" 
d="M306 -244.5q35 36.5 75 129.5l45 119l-422 1053h137l348 -901l326 901h129l-459 -1217q-60 -140 -98.5 -173.5t-78.5 -44.5t-112 -9t-87 8v109q63 -11 113 -11q49 0 84 36.5z" />
    <glyph glyph-name="afii10086" unicode="&#x444;" horiz-adv-x="1638" 
d="M1105 80q329 0 329 444q0 228 -88 341.5t-235 113.5t-186.5 -88t-39.5 -137v-445q0 -104 67.5 -166.5t152.5 -62.5zM535 80q85 0 153 62.5t68 166.5v445q0 95 -66.5 160t-149.5 65q-158 0 -245.5 -112.5t-87.5 -342.5q0 -335 121.5 -389.5t206.5 -54.5zM1453.5 946
q109.5 -141 109.5 -409t-119 -417t-291 -149q-86 0 -157.5 40t-106.5 102q-2 -2 -4 0v-502h-129v502h-4q-35 -61 -107 -101.5t-157 -40.5q-173 0 -291.5 148t-118.5 417t109.5 410t293.5 141t271 -143h4v518h129v-518h4q86 143 271 143q184 0 293.5 -141z" />
    <glyph glyph-name="afii10087" unicode="&#x445;" horiz-adv-x="985" 
d="M412 549l-379 508h162l301 -402l295 402h161l-381 -506l412 -551h-164l-332 444l-325 -444h-160z" />
    <glyph glyph-name="afii10088" unicode="&#x446;" horiz-adv-x="1130" 
d="M985 0h-864v1057h129v-948h579v948h129v-948h156v-445h-129v336z" />
    <glyph glyph-name="afii10089" unicode="&#x447;" horiz-adv-x="1019" 
d="M432 397q-172 0 -259 78t-87 262v320h129v-334q0 -190 96.5 -199.5t157.5 -9.5t152.5 19.5t148.5 44.5v479h129v-1057h-129v461q-166 -64 -338 -64z" />
    <glyph glyph-name="afii10090" unicode="&#x448;" horiz-adv-x="1603" 
d="M121 1057h129v-948h487v948h129v-948h488v948h129v-1057h-1362v1057z" />
    <glyph glyph-name="afii10091" unicode="&#x449;" horiz-adv-x="1654" 
d="M1509 0h-1388v1057h129v-948h487v948h129v-948h488v948h129v-948h155v-445h-129v336z" />
    <glyph glyph-name="afii10092" unicode="&#x44a;" horiz-adv-x="1239" 
d="M1059 369.5q0 154.5 -236 154.5h-348v-415h348q111 0 173.5 53t62.5 207.5zM346 948h-326v109h455v-424h379q154 0 244 -82t90 -231.5t-90 -234.5t-244 -85h-508v948z" />
    <glyph glyph-name="afii10093" unicode="&#x44b;" horiz-adv-x="1374" 
d="M1124 1057h129v-1057h-129v1057zM797 369.5q0 154.5 -236 154.5h-311v-415h311q111 0 173.5 53t62.5 207.5zM121 1057h129v-424h342q154 0 244 -82t90 -231.5t-90.5 -234.5t-243.5 -85h-471v1057z" />
    <glyph glyph-name="afii10094" unicode="&#x44c;" horiz-adv-x="1024" 
d="M844 369.5q0 154.5 -236 154.5h-348v-415h348q111 0 173.5 53t62.5 207.5zM131 1057h129v-424h379q154 0 244 -82t90 -231.5t-90 -234.5t-244 -85h-508v1057z" />
    <glyph glyph-name="afii10095" unicode="&#x44d;" horiz-adv-x="1062" 
d="M186 342q60 -264 338 -264q138 0 229 108.5t101 298.5h-483v109h483q-16 180 -110.5 283.5t-247.5 103.5q-117 0 -194 -60.5t-105 -172.5h-134q29 160 141.5 249.5t293.5 89.5q222 0 356.5 -154t134.5 -408t-132.5 -404t-354.5 -150q-184 0 -298 97.5t-147 273.5h129z
" />
    <glyph glyph-name="afii10096" unicode="&#x44e;" horiz-adv-x="1525" 
d="M971 78q84 0 150.5 39t112.5 102.5t69.5 144t23.5 164.5t-23.5 165t-69.5 144.5t-112.5 102.5t-150.5 39t-150.5 -39t-112.5 -102.5t-70 -144.5t-24 -165t24 -164.5t70 -144t112.5 -102.5t150.5 -39zM250 496v-496h-129v1057h129v-453h239q21 208 150 345.5t340 137.5
t344 -161t133 -397t-132 -397t-351 -161q-215 0 -347.5 150.5t-140.5 374.5h-235z" />
    <glyph glyph-name="afii10097" unicode="&#x44f;" horiz-adv-x="1036" 
d="M786 528v420h-352q-106 0 -163.5 -58.5t-57.5 -150.5t57.5 -151.5t163.5 -59.5h352zM403 1057h512v-1057h-129v420h-249l-363 -420h-168l385 428q-141 10 -224 93t-83 223t87 226.5t232 86.5z" />
    <glyph glyph-name="uni0450" unicode="&#x450;" horiz-adv-x="1062" 
d="M461 1493l215 -289h-105l-268 289h158zM546 979q-149 0 -239 -109t-108 -268h684q-4 155 -96 266t-241 111zM547 -29q-241 0 -359 158t-118 394t120 400t357.5 164t355.5 -173.5t109 -419.5h-813q0 -264 128 -340t220 -76q141 0 221 73.5t111 196.5h129
q-41 -180 -150.5 -278.5t-310.5 -98.5z" />
    <glyph glyph-name="afii10071" unicode="&#x451;" horiz-adv-x="1062" 
d="M641 1446h139v-207h-139v207zM281 1446h137v-207h-137v207zM546 979q-149 0 -239 -109t-108 -268h684q-4 155 -96 266t-241 111zM547 -29q-241 0 -359 158t-118 394t120 400t357.5 164t355.5 -173.5t109 -419.5h-813q0 -264 128 -340t220 -76q141 0 221 73.5t111 196.5
h129q-41 -180 -150.5 -278.5t-310.5 -98.5z" />
    <glyph glyph-name="afii10099" unicode="&#x452;" horiz-adv-x="1120" 
d="M631 1057q369 0 368 -408v-573q0 -211 -109.5 -338t-334.5 -127q-43 0 -88 6v121q43 -6 84 -6q174 0 246.5 94t72.5 268v535q0 319 -264 319q-148 0 -242 -99.5t-94 -262.5v-586h-129v1190h-168v108h168v164h129v-164h478v-108h-478v-346h4q94 213 357 213z" />
    <glyph glyph-name="afii10100" unicode="&#x453;" horiz-adv-x="819" 
d="M344 1204l215 289h160l-270 -289h-105zM133 1057h698v-109h-569v-948h-129v1057z" />
    <glyph glyph-name="afii10101" unicode="&#x454;" horiz-adv-x="1062" 
d="M702 594v-109h-493q10 -190 101.5 -298.5t229.5 -108.5q273 0 330 264h129q-35 -166 -144.5 -268.5t-293.5 -102.5q-222 0 -354.5 150t-132.5 403q0 252 133 406.5t358 154.5q180 0 290 -89t138 -248h-133q-59 231 -293 231q-154 0 -248 -102.5t-110 -282.5h493z" />
    <glyph glyph-name="afii10102" unicode="&#x455;" horiz-adv-x="985" 
d="M288 144.5q87 -66.5 207 -66.5t181 34.5t89 72t28 89.5q0 89 -64 131t-168 66l-166 37q-146 37 -198 80t-74.5 89t-22.5 120q0 144 120 217t278 73q259 0 321 -126.5t66 -212.5h-129q-4 115 -81.5 173t-195.5 58q-166 0 -208 -65.5t-42 -112.5q0 -80 63.5 -119.5
t156.5 -63.5l172 -38q121 -18 211 -91.5t90 -201.5q0 -158 -126 -237t-305 -79t-295 88t-133 283h130q8 -131 95 -197.5z" />
    <glyph glyph-name="afii10103" unicode="&#x456;" horiz-adv-x="378" 
d="M125 1462h129v-207h-129v207zM125 1057h129v-1057h-129v1057z" />
    <glyph glyph-name="afii10104" unicode="&#x457;" horiz-adv-x="378" 
d="M125 1057h129v-1057h-129v1057zM301 1446h139v-207h-139v207zM-59 1446h137v-207h-137v207z" />
    <glyph glyph-name="afii10105" unicode="&#x458;" horiz-adv-x="378" 
d="M125 1462h129v-207h-129v207zM254 -96q0 -293 -213 -293q-56 0 -100 4v106q11 -2 77 -2t86.5 44t20.5 110v1184h129v-1153z" />
    <glyph glyph-name="afii10106" unicode="&#x459;" horiz-adv-x="1800" 
d="M1620 369.5q0 154.5 -236 154.5h-348v-415h348q111 0 173.5 53t62.5 207.5zM90 104q42 0 67 6.5t99 89.5t74 857h706v-424h379q154 0 244 -82t90 -231.5t-90 -234.5t-244 -85h-508v948h-452q0 -620 -84.5 -778t-150.5 -169t-115 -11t-97 16v113q40 -15 82 -15z" />
    <glyph glyph-name="afii10107" unicode="&#x45a;" horiz-adv-x="1742" 
d="M1563 313.5q0 204.5 -236 204.5h-348v-409h348q236 0 236 204.5zM121 1057h129v-430h600v430h129v-430h379q154 0 244 -82t90 -231.5t-90.5 -231.5t-243.5 -82h-508v518h-600v-518h-129v1057z" />
    <glyph glyph-name="afii10108" unicode="&#x45b;" horiz-adv-x="1120" 
d="M631 1057q369 0 368 -408v-649h-129v629q0 319 -264 319q-148 0 -242 -99.5t-94 -262.5v-586h-129v1190h-168v108h168v164h129v-164h478v-108h-478v-346h4q94 213 357 213z" />
    <glyph glyph-name="afii10109" unicode="&#x45c;" horiz-adv-x="1024" 
d="M426 1204l215 289h160l-271 -289h-104zM123 1057h129v-543l586 543h172l-449 -414l475 -643h-162l-407 555l-215 -199v-356h-129v1057z" />
    <glyph glyph-name="uni045D" unicode="&#x45d;" horiz-adv-x="1114" 
d="M487 1493l215 -289h-104l-268 289h157zM121 1057h129v-905l584 905h159v-1057h-129v905l-583 -905h-160v1057z" />
    <glyph glyph-name="afii10110" unicode="&#x45e;" horiz-adv-x="948" 
d="M485 1311q90 0 146.5 44t73.5 124h79q-48 -267 -301 -267t-286 267h79q10 -78 64.5 -123t144.5 -45zM306 -244.5q35 36.5 75 129.5l45 119l-422 1053h137l348 -901l326 901h129l-459 -1217q-60 -140 -98.5 -173.5t-78.5 -44.5t-112 -9t-87 8v109q63 -11 113 -11
q49 0 84 36.5z" />
    <glyph glyph-name="afii10193" unicode="&#x45f;" horiz-adv-x="1079" 
d="M475 0h-354v1057h129v-948h579v948h129v-1057h-354v-336h-129v336z" />
    <glyph glyph-name="afii10146" unicode="&#x462;" horiz-adv-x="1507" 
d="M983 119q154 0 240 81t86 222t-86 222t-240 81h-479v-606h479zM365 1130h-365v119h365v213h139v-213h510v-119h-510v-286h510q205 0 319.5 -113t114.5 -309.5t-114.5 -309t-319.5 -112.5h-649v1130z" />
    <glyph glyph-name="afii10194" unicode="&#x463;" horiz-adv-x="1155" 
d="M975 369.5q0 154.5 -236 154.5h-348v-415h348q111 0 173.5 53t62.5 207.5zM262 948h-262v109h262v405h129v-405h393v-109h-393v-315h379q154 0 244 -82t90 -231.5t-90 -234.5t-244 -85h-508v948z" />
    <glyph glyph-name="uni046A" unicode="&#x46a;" horiz-adv-x="1892" 
d="M1282 1343h-678l334 -493zM123 410q0 188 89.5 303.5t365.5 115.5h227l-445 633h1162l-449 -633h242q276 0 365 -114.5t89 -304.5v-410h-139v401q0 130 -41 187t-103.5 89t-172.5 32h-297v-709h-139v709h-297q-191 0 -254.5 -90t-63.5 -218v-401h-139v410z" />
    <glyph glyph-name="uni046B" unicode="&#x46b;" horiz-adv-x="1452" 
d="M942 948h-434l219 -293zM102 258q0 184 87 260t247 76h174l-346 463h920l-348 -463h180q160 0 247 -76t87 -260v-258h-129v272q0 135 -62 174t-170 39h-198v-485h-129v485h-199q-108 0 -170 -39t-62 -174v-272h-129v258z" />
    <glyph glyph-name="afii10147" unicode="&#x472;" horiz-adv-x="1517" 
d="M502 877q51 0 123.5 -28t147.5 -59.5t141 -59.5t124 -28t132.5 44.5t129.5 99.5q-26 225 -165 376.5t-375 151.5q-268 0 -407.5 -183t-143.5 -446q164 132 293 132zM217 612q30 -225 165.5 -374.5t388.5 -149.5t393.5 183t144.5 444q-166 -133 -291 -133q-57 0 -130 27.5
t-146.5 59t-139 59.5t-127 28t-121.5 -37t-137 -107zM199 253q-129 157 -129 477q0 321 180 542t509 221t509 -220.5t180 -542.5q0 -321 -180.5 -540t-430 -219t-379.5 62.5t-259 219.5z" />
    <glyph glyph-name="afii10195" unicode="&#x473;" 
d="M379 653q57 0 194.5 -60.5t177.5 -60.5q78 0 181 93q-26 149 -119 251.5t-248 102.5q-156 0 -253.5 -116.5t-110.5 -282.5q82 73 178 73zM940 518q-109 -86 -185 -86q-75 0 -168 41t-139 59.5t-86 18.5q-74 0 -161 -86q17 -160 112.5 -273.5t260.5 -113.5t263.5 128
t102.5 312zM70 529q0 240 134 399t365.5 159t365.5 -159t134 -399t-133 -399t-366.5 -159t-366.5 159t-133 399z" />
    <glyph glyph-name="afii10148" unicode="&#x474;" horiz-adv-x="1325" 
d="M1304 1362q-44 0 -67 -2t-63.5 -25.5t-67.5 -105.5l-436 -1229h-162l-520 1462h147l455 -1308h4l389 1122q43 130 112.5 168.5t161.5 38.5q12 0 30 -2t42 -4.5t47 -10.5v-118q-28 14 -72 14z" />
    <glyph glyph-name="afii10196" unicode="&#x475;" horiz-adv-x="1050" 
d="M984 961q-46 0 -81 -23t-61 -96l-293 -842h-137l-408 1057h143l332 -928h4l250 772q55 174 220 174q70 0 118 -16v-113q-41 15 -87 15z" />
    <glyph glyph-name="Izhitsadblgravecyrillic" unicode="&#x476;" horiz-adv-x="1325" 
d="M1304 1362q-44 0 -67 -2q-51 -4 -92 -55q-23 -27 -39 -76l-436 -1229h-162l-520 1462h147l455 -1308h4l389 1122q60 184 206 203q38 4 87 4t100 -17v-118q-28 14 -72 14zM1022 1585h-102l-258 289h155zM705 1585h-105l-258 289h156z" />
    <glyph glyph-name="izhitsadblgravecyrillic" unicode="&#x477;" horiz-adv-x="1050" 
d="M978 1075q44 0 93 -16v-113q-31 12 -109 13q-78 2 -120 -117l-293 -842h-137l-408 1057h143l332 -928h4l250 772q48 151 167 169q34 5 78 5zM877 1182h-103l-258 288h156zM559 1182h-104l-258 288h155z" />
    <glyph glyph-name="uni048C" unicode="&#x48c;" horiz-adv-x="1466" 
d="M942 119q154 0 240 81t86 222t-86 222t-240 81h-479v-606h479zM324 1343h-324v119h324v213h139v-213h346v-119h-346v-499h510q205 0 319.5 -113t114.5 -309.5t-114.5 -309t-319.5 -112.5h-649v1343z" />
    <glyph glyph-name="uni048D" unicode="&#x48d;" horiz-adv-x="1114" 
d="M934 369.5q0 154.5 -236 154.5h-348v-415h348q111 0 173.5 53t62.5 207.5zM221 948h-221v109h221v246h129v-246h242v-109h-242v-315h379q154 0 244 -82t90 -231.5t-90 -234.5t-244 -85h-508v948z" />
    <glyph glyph-name="afii10050" unicode="&#x490;" horiz-adv-x="1052" 
d="M160 1462h764v330h139v-449h-764v-1343h-139v1462z" />
    <glyph glyph-name="afii10098" unicode="&#x491;" horiz-adv-x="819" 
d="M133 1057h555v317h129v-426h-555v-948h-129v1057z" />
    <glyph glyph-name="uni0492" unicode="&#x492;" horiz-adv-x="1183" 
d="M291 696h-250v119h250v647h903v-119h-764v-528h420v-119h-420v-696h-139v696z" />
    <glyph glyph-name="uni0493" unicode="&#x493;" horiz-adv-x="927" 
d="M242 477h-201v109h201v471h698v-109h-569v-362h352v-109h-352v-477h-129v477z" />
    <glyph glyph-name="uni0496" unicode="&#x496;" horiz-adv-x="2068" 
d="M944 1462h139v-770l721 770h189l-607 -631l564 -712h174v-508h-139v389h-121l-576 729l-205 -213v-516h-139v516l-205 213l-575 -729h-180l657 831l-606 631h188l721 -770v770z" />
    <glyph glyph-name="uni0497" unicode="&#x497;" horiz-adv-x="1550" 
d="M690 1057h129v-539l486 539h174l-412 -443l377 -505h155v-445h-129v336h-104l-389 528l-158 -163v-365h-129v365l-158 163l-389 -528h-157l456 614l-411 443h174l485 -541v541z" />
    <glyph glyph-name="uni0498" unicode="&#x498;" horiz-adv-x="1284" 
d="M758 -252q0 78 -104 78q-52 0 -89 -16l-33 30l101 129q-257 9 -406 137.5t-149 362.5v12h133q0 -203 125 -301t319 -98t302 100t108 235t-95.5 213.5t-236.5 78.5h-233v118h233q122 0 207.5 67t85.5 201t-97.5 207.5t-256.5 73.5q-278 0 -342 -125t-70 -207h-135
q12 219 157.5 334t374.5 115q230 0 369 -101t139 -296q0 -109 -63.5 -192.5t-151.5 -117.5v-6q117 -31 185.5 -118t68.5 -244t-126.5 -296t-372.5 -151l-66 -88q151 25 194.5 -27.5t43.5 -118.5t-69.5 -111.5t-137.5 -45.5q-125 0 -209 43l26 66q78 -29 142 -29
q129 0 129 88z" />
    <glyph glyph-name="uni0499" unicode="&#x499;" horiz-adv-x="993" 
d="M578 -252q0 78 -106 78q-52 0 -87 -16l-33 30l103 133q-182 8 -281 95q-106 98 -117 264h129q35 -252 310 -252q159 0 222.5 66.5t63.5 155.5t-52 144.5t-173 55.5h-176v98h145q92 0 158 49t66 134t-56 139.5t-203 54.5t-211.5 -64.5t-74.5 -162.5h-127q15 177 126 256
t288 79q273 0 332 -103.5t59 -165.5q0 -102 -51 -169t-119 -80v-4q136 -22 170.5 -104t34.5 -156t-52.5 -171t-212.5 -138q-61 -18 -127 -21l-67 -90q152 25 194.5 -27.5t42.5 -118.5t-85.5 -122.5t-186 -35t-143.5 43.5l26 66q78 -29 142 -29q129 0 129 88z" />
    <glyph glyph-name="uni049A" unicode="&#x49a;" horiz-adv-x="1368" 
d="M1296 0h-120l-609 762l-280 -260v-502h-140v1462h140v-786l850 786h188l-653 -604l590 -739h174v-508h-140v389z" />
    <glyph glyph-name="uni049B" unicode="&#x49b;" horiz-adv-x="1060" 
d="M983 0h-109l-407 555l-215 -199v-356h-129v1057h129v-543l586 543h172l-449 -414l395 -534h156v-445h-129v336z" />
    <glyph glyph-name="uni049C" unicode="&#x49c;" horiz-adv-x="1327" 
d="M147 1462h140v-635h149v322h92v-322h47l572 635h178l-627 -680l658 -782h-180l-601 709h-47v-349h-92v349h-149v-709h-140v1462z" />
    <glyph glyph-name="uni049D" unicode="&#x49d;" horiz-adv-x="1019" 
d="M123 1057h129v-449h84v242h92v-242h41l381 449h160l-432 -488l458 -569h-162l-405 500h-41v-254h-92v254h-84v-500h-129v1057z" />
    <glyph glyph-name="uni04A0" unicode="&#x4a0;" horiz-adv-x="1611" 
d="M432 1343h-442v119h581v-786l850 786h189l-654 -604l684 -858h-180l-608 762l-281 -260v-502h-139v1343z" />
    <glyph glyph-name="uni04A1" unicode="&#x4a1;" horiz-adv-x="1243" 
d="M346 948h-326v109h455v-543l586 543h172l-449 -414l476 -643h-162l-408 555l-215 -199v-356h-129v948z" />
    <glyph glyph-name="uni04A2" unicode="&#x4a2;" horiz-adv-x="1484" 
d="M1329 0h-174v709h-868v-709h-140v1462h140v-635h868v635h139v-1343h174v-508h-139v389z" />
    <glyph glyph-name="uni04A3" unicode="&#x4a3;" horiz-adv-x="1150" 
d="M1006 0h-156v500h-600v-500h-129v1057h129v-449h600v449h129v-948h156v-445h-129v336z" />
    <glyph glyph-name="uni04A4" unicode="&#x4a4;" horiz-adv-x="2048" 
d="M147 1462h140v-635h868v635h903v-119h-764v-1343h-139v709h-868v-709h-140v1462z" />
    <glyph glyph-name="uni04A5" unicode="&#x4a5;" horiz-adv-x="1536" 
d="M121 1057h129v-449h600v449h698v-109h-569v-948h-129v500h-600v-500h-129v1057z" />
    <glyph glyph-name="uni04AA" unicode="&#x4aa;" horiz-adv-x="1441" 
d="M860 -252q0 78 -104 78q-52 0 -88 -16l-33 30l102 131q-308 12 -483.5 225.5t-175.5 533.5q0 321 180 542t510 221q221 0 390 -126t198 -347h-139q-36 167 -161.5 260.5t-279.5 93.5q-282 0 -420.5 -190.5t-138.5 -452.5t139 -452.5t412 -190.5q197 0 323 134.5
t146 334.5h139q-28 -270 -182 -420.5t-385 -163.5l-68 -90q153 25 195.5 -27.5t42.5 -118.5t-69.5 -111.5t-137.5 -45.5q-125 0 -209 43l27 66q78 -29 142 -29q128 0 128 88z" />
    <glyph glyph-name="uni04AB" unicode="&#x4ab;" horiz-adv-x="1062" 
d="M635 -252q-1 78 -105 78q-52 0 -88 -16l-32 30l104 133q-195 18 -319.5 167t-124.5 389t134 399t365 159q170 0 288 -90t140 -272h-129q-58 254 -299 254q-174 0 -272 -135t-98 -315.5t98 -315.5t272 -135q120 0 207 85t101 216h129q-27 -193 -140 -298t-282 -110
l-68 -88q153 25 195.5 -27.5t42.5 -118.5t-69.5 -111.5t-137.5 -45.5q-125 0 -209 43l27 66q78 -29 141 -29q129 0 129 88z" />
    <glyph glyph-name="uni04AE" unicode="&#x4ae;" horiz-adv-x="1251" 
d="M694 0h-139v602l-573 860h163l482 -741l479 741h166l-578 -860v-602z" />
    <glyph glyph-name="uni04AF" unicode="&#x4af;" horiz-adv-x="948" 
d="M551 -389h-129v403l-418 1043h137l348 -901l326 901h129l-393 -1047v-399z" />
    <glyph glyph-name="uni04B0" unicode="&#x4b0;" horiz-adv-x="1251" 
d="M555 346h-332v119h332v137l-573 860h163l482 -741l479 741h166l-578 -860v-137h338v-119h-338v-346h-139v346z" />
    <glyph glyph-name="uni04B1" unicode="&#x4b1;" horiz-adv-x="948" 
d="M422 -186h-262v108h262v92l-418 1043h137l348 -901l326 901h129l-393 -1047v-88h262v-108h-262v-203h-129v203z" />
    <glyph glyph-name="uni04B2" unicode="&#x4b2;" horiz-adv-x="1216" 
d="M1147 0h-119l-444 645l-451 -645h-156l525 754l-496 708h164l414 -612l428 612h155l-499 -712l444 -631h174v-508h-139v389z" />
    <glyph glyph-name="uni04B3" unicode="&#x4b3;" horiz-adv-x="1026" 
d="M928 0h-109l-332 444l-325 -444h-160l410 549l-379 508h162l301 -402l295 402h161l-381 -506l330 -442h156v-445h-129v336z" />
    <glyph glyph-name="uni04B6" unicode="&#x4b6;" horiz-adv-x="1333" 
d="M574 725q144 0 430 59v678h139v-1343h174v-508h-139v389h-174v666q-124 -32 -262 -47t-187 -15q-282 0 -376.5 116.5t-94.5 303.5v438h139v-430q0 -127 41 -185.5t103.5 -90t206.5 -31.5z" />
    <glyph glyph-name="uni04B7" unicode="&#x4b7;" horiz-adv-x="1071" 
d="M432 397q-172 0 -259 78t-87 262v320h129v-334q0 -190 96.5 -199.5t157.5 -9.5t152.5 19.5t148.5 44.5v479h129v-948h156v-445h-129v336h-156v461q-166 -64 -338 -64z" />
    <glyph glyph-name="uni04B8" unicode="&#x4b8;" horiz-adv-x="1290" 
d="M651 279h-92v325h-4q-282 0 -376.5 116.5t-94.5 303.5v438h139v-430q0 -127 41 -185.5t103.5 -90t173.5 -31.5h18v322h92v-318q197 14 353 55v678h139v-1462h-139v666q-184 -44 -353 -58v-329z" />
    <glyph glyph-name="uni04B9" unicode="&#x4b9;" horiz-adv-x="1019" 
d="M528 154h-92v243h-16q-160 0 -247 78t-87 262v320h129v-334q0 -186 91 -197.5t130 -11.5v244h92v-240q138 16 242 60v479h129v-1057h-129v461q-120 -43 -242 -58v-249z" />
    <glyph glyph-name="uni04BA" unicode="&#x4ba;" horiz-adv-x="1290" 
d="M750 778q-207 0 -463 -59v-719h-140v1462h140v-624q118 31 258.5 46t189.5 15q282 0 376.5 -115.5t94.5 -304.5v-479h-139v471q0 130 -41 187t-103.5 88.5t-172.5 31.5z" />
    <glyph glyph-name="uni04BB" unicode="&#x4bb;" horiz-adv-x="1099" 
d="M121 1462h129v-588h4q37 98 131 155.5t206 57.5q212 0 300 -102t88 -305v-680h-129v659q0 231 -95.5 275.5t-209.5 44.5t-202.5 -102t-92.5 -261v-616h-129v1462z" />
    <glyph glyph-name="uni04C0" unicode="&#x4c0;" horiz-adv-x="454" 
d="M158 1462h139v-1462h-139v1462z" />
    <glyph glyph-name="uni04C1" unicode="&#x4c1;" horiz-adv-x="2027" 
d="M1030 1716q58 0 121 44t76 124h80q-16 -123 -95 -191.5t-203 -68.5t-201 67.5t-87 192.5h80q4 -77 64 -122.5t165 -45.5zM944 1462h139v-770l721 770h189l-607 -631l658 -831h-180l-576 729l-205 -213v-516h-139v516l-205 213l-575 -729h-180l657 831l-606 631h188
l721 -770v770z" />
    <glyph glyph-name="uni04C2" unicode="&#x4c2;" horiz-adv-x="1509" 
d="M770 1311q58 0 121 44t76 124h80q-16 -123 -95.5 -191.5t-203.5 -68.5t-200.5 67.5t-86.5 192.5h80q4 -78 63.5 -123t165.5 -45zM690 1057h129v-539l486 539h174l-412 -443l457 -614h-158l-389 528l-158 -163v-365h-129v365l-158 163l-389 -528h-157l456 614l-411 443
h174l485 -541v541z" />
    <glyph glyph-name="uni04D0" unicode="&#x4d0;" horiz-adv-x="1290" 
d="M660 1716q58 0 122 44t76 124h80q-16 -123 -95 -191.5t-203 -68.5t-201 67.5t-87 192.5h80q4 -77 63.5 -122.5t164.5 -45.5zM930 573l-283 750l-293 -750h576zM575 1462h156l574 -1462h-150l-178 455h-666l-176 -455h-147z" />
    <glyph glyph-name="uni04D1" unicode="&#x4d1;" horiz-adv-x="1062" 
d="M546 1311q58 0 121.5 44t75.5 124h80q-16 -123 -95 -191.5t-203 -68.5t-200.5 67.5t-86.5 192.5h79q4 -79 64 -123.5t165 -44.5zM799 410v168h-4q-16 -31 -104 -46q-87 -16 -174 -27t-204.5 -48t-117.5 -170q0 -93 68.5 -151t180.5 -58q60 0 127.5 22.5t147.5 91.5
t80 218zM539 1087q389 0 389 -339v-562q0 -78 76 -77q25 0 40 8v-109q-46 -8 -89 -8q-85 0 -115.5 45.5t-30.5 138.5h-4q-78 -113 -160.5 -163t-224.5 -50q-247 0 -300.5 113.5t-53.5 209.5t49 158t130 95t182 46t173 21t135.5 21t63.5 121q0 127 -73 175t-200 48
t-204.5 -58.5t-81.5 -187.5h-129q12 186 127.5 270t300.5 84z" />
    <glyph glyph-name="uni04D2" unicode="&#x4d2;" horiz-adv-x="1290" 
d="M756 1821h139v-207h-139v207zM395 1821h137v-207h-137v207zM930 573l-283 750l-293 -750h576zM575 1462h156l574 -1462h-150l-178 455h-666l-176 -455h-147z" />
    <glyph glyph-name="uni04D3" unicode="&#x4d3;" horiz-adv-x="1062" 
d="M641 1446h139v-207h-139v207zM281 1446h137v-207h-137v207zM799 410v168h-4q-16 -31 -104 -46q-87 -16 -174 -27t-204.5 -48t-117.5 -170q0 -93 68.5 -151t180.5 -58q60 0 127.5 22.5t147.5 91.5t80 218zM539 1087q389 0 389 -339v-562q0 -78 76 -77q25 0 40 8v-109
q-46 -8 -89 -8q-85 0 -115.5 45.5t-30.5 138.5h-4q-78 -113 -160.5 -163t-224.5 -50q-247 0 -300.5 113.5t-53.5 209.5t49 158t130 95t182 46t173 21t135.5 21t63.5 121q0 127 -73 175t-200 48t-204.5 -58.5t-81.5 -187.5h-129q12 186 127.5 270t300.5 84z" />
    <glyph glyph-name="uni04D4" unicode="&#x4d4;" horiz-adv-x="1857" 
d="M911 582v761h-82l-387 -761h469zM1802 1462v-119h-751v-528h704v-119h-704v-577h759v-119h-899v463h-530l-238 -463h-155l764 1462h1050z" />
    <glyph glyph-name="uni04D5" unicode="&#x4d5;" horiz-adv-x="1781" 
d="M1593 602q0 152 -93 264.5t-244 112.5t-241.5 -110.5t-86.5 -266.5h665zM799 410v168h-4q-16 -31 -104 -46q-87 -16 -174 -27t-204.5 -48t-117.5 -170q0 -93 68.5 -151t180.5 -58q60 0 127.5 22.5t147.5 91.5t80 218zM1253 -29q-295 0 -387 265h-4q-22 -125 -155 -195
t-287 -70q-247 0 -300.5 113.5t-53.5 209.5t49 158t130 95t182 46t173 21t135.5 21t63.5 121q0 127 -73 175t-200 48t-204.5 -58.5t-81.5 -187.5h-129q12 186 127.5 270t315.5 84t263.5 -75.5t73.5 -143.5h4q38 106 142.5 162.5t231.5 56.5q239 0 346 -167t107 -426h-794
q-13 -180 77 -298t267 -118q252 0 313 264h129q-41 -180 -157.5 -275.5t-303.5 -95.5z" />
    <glyph glyph-name="uni04D6" unicode="&#x4d6;" horiz-adv-x="1214" 
d="M658 1624q-124 0 -200.5 67.5t-86.5 192.5h80q4 -79 64 -123.5t164 -44.5q58 0 121.5 44t76.5 124h79q-16 -123 -95 -191.5t-203 -68.5zM147 1462h1010v-119h-870v-528h815v-119h-815v-577h880v-119h-1020v1462z" />
    </font>
</defs>
</svg>
