<?xml version="1.0" standalone="no"?>
<!DOCTYPE svg PUBLIC "-//W3C//DTD SVG 1.1//EN" "http://www.w3.org/Graphics/SVG/1.1/DTD/svg11.dtd" >
<svg xmlns="http://www.w3.org/2000/svg">
<metadata>
Created by FontPrep 20130207 at Mon May  9 15:32:10 2016
 By Raymund Tuquero
Copyright (c) 1981, 1982, 1983, 1989 and 1993, Linotype Library GmbH or its affiliated Linotype-Hell companies. All rights reserved.

The digitally encoded machine readable software for producing the Typefaces licensed to you is now the property of Heidelberger Druckmaschinen AG and its licensors, and may not be reproduced, used, displayed, modified, disclosed or transferred without the express written approval of Heidelberger Druckmaschinen AG.

Copyright (c) 1988, 1990, 1993 Adobe Systems Incorporated. All Rights Reserved.
</metadata>
<defs>
<font id="b0b230b12ba14b2f0690df366df880c5" horiz-adv-x='1024' >
  <font-face 
    font-family="HelveticaNeue-Bold"
    font-weight="700"
    font-stretch="normal"
    units-per-em="2048"
    panose-1="2 0 8 3 0 0 0 9 0 4"
    ascent="1638"
    descent="-410"
    x-height="1059"
    cap-height="1462"
    bbox="-2085 -985 2943 2337"
    underline-thickness="102"
    underline-position="-153"
    unicode-range="U+0008-FFA7"
  />
<missing-glyph horiz-adv-x="1024" 
d="M987 1430v-1424h-952v1424h952zM801 1243h-574v-1048h574v1048z" />
    <glyph glyph-name="uniFB00" unicode="ff" horiz-adv-x="1302" 
d="M1149 1462q6 0 154 -8v-217q-53 6 -109 6t-82.5 -27.5t-26.5 -93.5v-63h201v-195h-201v-864h-290v864h-330v-864h-291v864h-174v195h174v82q0 141 88 231t266 90q6 0 154 -8v-217q-54 6 -110 6t-81.5 -27.5t-25.5 -93.5v-63h330v82q0 141 88 231t266 90z" />
    <glyph glyph-name="fi" unicode="fi" horiz-adv-x="1251" 
d="M1133 1223h-291v239h291v-239zM842 1059h291v-1059h-291v1059zM528 1462q6 0 154 -8v-217q-50 6 -108 6t-83.5 -27.5t-25.5 -93.5v-63h201v-195h-201v-864h-291v864h-174v195h174v82q0 141 88 231t266 90z" />
    <glyph glyph-name="fl" unicode="fl" horiz-adv-x="1251" 
d="M842 1462h291v-1462h-291v1462zM528 1462q6 0 154 -8v-217q-50 6 -108 6t-83.5 -27.5t-25.5 -93.5v-63h201v-195h-201v-864h-291v864h-174v195h174v82q0 141 88 231t266 90z" />
    <glyph glyph-name="uniFB03" unicode="ffi" horiz-adv-x="1830" 
d="M1421 1059h291v-1059h-291v1059zM1712 1223h-291v239h291v-239zM1149 1462q6 0 154 -8v-217q-53 6 -109 6t-82.5 -27.5t-26.5 -93.5v-63h201v-195h-201v-864h-290v864h-330v-864h-291v864h-174v195h174v82q0 141 88 231t266 90q6 0 154 -8v-217q-54 6 -110 6t-81.5 -27.5
t-25.5 -93.5v-63h330v82q0 141 88 231t266 90z" />
    <glyph glyph-name="uniFB04" unicode="ffl" horiz-adv-x="1830" 
d="M1421 1462h291v-1462h-291v1462zM1149 1462q6 0 154 -8v-217q-53 6 -109 6t-82.5 -27.5t-26.5 -93.5v-63h201v-195h-201v-864h-290v864h-330v-864h-291v864h-174v195h174v82q0 141 88 231t266 90q6 0 154 -8v-217q-54 6 -110 6t-81.5 -27.5t-25.5 -93.5v-63h330v82
q0 141 88 231t266 90z" />
    <glyph glyph-name=".notdef" horiz-adv-x="1024" 
d="M987 1430v-1424h-952v1424h952zM801 1243h-574v-1048h574v1048z" />
    <glyph glyph-name=".null" 
 />
    <glyph glyph-name=".null" 
 />
    <glyph glyph-name="nonmarkingreturn" unicode="&#x9;" horiz-adv-x="569" 
 />
    <glyph glyph-name="controlHT" 
 />
    <glyph glyph-name="space" unicode="&#xa;" horiz-adv-x="569" 
 />
    <glyph glyph-name="space" unicode=" " horiz-adv-x="569" 
 />
    <glyph glyph-name="controlGS" unicode="&#xd;" horiz-adv-x="569" 
 />
    <glyph glyph-name="controlBS" 
 />
    <glyph glyph-name="exclam" unicode="!" horiz-adv-x="569" 
d="M133 1462h303v-393l-80 -631h-145l-78 631v393zM125 315h321v-315h-321v315z" />
    <glyph glyph-name="quotedbl" unicode="&#x22;" horiz-adv-x="948" 
d="M555 1462h219v-657h-219v657zM174 1462h219v-657h-219v657z" />
    <glyph glyph-name="numbersign" unicode="#" horiz-adv-x="1138" 
d="M68 406v184h194l37 254h-170v184h195l57 406h199l-58 -406h199l55 406h199l-55 -406h151v-184h-178l-35 -254h152v-184h-179l-55 -406h-198l55 406h-197l-57 -406h-199l58 406h-170zM498 844l-37 -254h198l35 254h-196z" />
    <glyph glyph-name="dollar" unicode="$" horiz-adv-x="1138" 
d="M508 1257q-75 0 -129.5 -43.5t-54.5 -118.5q0 -76 43 -112.5t141 -58.5v333zM850 421q0 65 -50 104.5t-171 72.5v-393q143 15 182 83t39 133zM169.5 1370q136.5 114 338.5 127v158h121v-158q308 -33 381 -181.5t80 -254.5h-291q-2 82 -51.5 139t-118.5 57v-362
q25 -6 133 -31.5t197.5 -91t128 -131.5t46 -131.5t7.5 -113.5t-22.5 -116.5t-123.5 -182t-366 -130.5v-174h-121v174q-469 33 -508 508h289q-2 -117 61.5 -184.5t157.5 -85.5v428q-26 10 -84 24t-131.5 42t-166.5 101t-93 265q0 191 136.5 305z" />
    <glyph glyph-name="percent" unicode="%" horiz-adv-x="2048" 
d="M492 664q-338 0 -338 285.5t88 399t262 113.5q175 0 254.5 -112.5t79.5 -343.5t-128 -286.5t-218 -55.5zM502 1309q-140 0 -140 -256q0 -100 22.5 -168t109.5 -68q135 0 135 246t-127 246zM1368 1479h174l-844 -1522h-178zM1298 660.5q88 109.5 263 109.5t254 -108
t79 -340t-128 -290.5t-220 -58.5t-156.5 31t-122 108.5t-57.5 258t88 290zM1686 370q0 246 -127 246q-86 0 -113 -68.5t-27 -138.5q0 -143 23 -213.5t108 -70.5q136 -1 136 245z" />
    <glyph glyph-name="ampersand" unicode="&#x26;" horiz-adv-x="1402" 
d="M782 1134q0 68 -40 109t-93 41t-92 -36t-39 -100t37 -112.5t78 -99.5q61 39 105 84.5t44 113.5zM405.5 267.5q63.5 -56.5 143.5 -56.5t138 36t110 93l-250 305q-91 -37 -148 -99t-57 -142t63.5 -136.5zM950 145q-176 -172 -397 -172t-354 117t-133 320q0 263 327 424
q-59 72 -99 143.5t-40 157.5q0 156 113.5 250t276.5 94q164 0 278 -92t114 -259q0 -226 -260 -364l189 -232q39 69 53 175h252q-21 -209 -142 -361l297 -346h-356z" />
    <glyph glyph-name="quotesingle" unicode="'" horiz-adv-x="569" 
d="M176 1462h219v-657h-219v657z" />
    <glyph glyph-name="parenleft" unicode="(" horiz-adv-x="606" 
d="M397 569q0 -513 221 -940h-241q-271 443 -271 920q0 375 101.5 612.5t169.5 335.5h244q-224 -415 -224 -928z" />
    <glyph glyph-name="parenright" unicode=")" horiz-adv-x="606" 
d="M209 557q0 504 -219 940h239q271 -443 271 -924q0 -383 -101.5 -615t-169.5 -329h-241q221 424 221 928z" />
    <glyph glyph-name="asterisk" unicode="*" horiz-adv-x="833" 
d="M332 1462h164v-256l237 90l55 -157l-241 -80l151 -201l-135 -100l-151 211l-144 -211l-137 100l152 201l-238 80l55 157l232 -90v256z" />
    <glyph glyph-name="plus" unicode="+" horiz-adv-x="1228" 
d="M725 627h408v-219h-408v-408h-219v408h-408v219h408v407h219v-407z" />
    <glyph glyph-name="comma" unicode="," horiz-adv-x="569" 
d="M125 315h321v-315q0 -135 -91 -226t-228 -112v148q61 12 105 67t40 123h-147v315z" />
    <glyph glyph-name="hyphen" unicode="-" horiz-adv-x="833" 
d="M109 684h616v-250h-616v250z" />
    <glyph glyph-name="period" unicode="." horiz-adv-x="569" 
d="M123 315h321v-315h-321v315z" />
    <glyph glyph-name="slash" unicode="/" horiz-adv-x="759" 
d="M549 1497h233l-571 -1530h-231z" />
    <glyph glyph-name="zero" unicode="0" horiz-adv-x="1138" 
d="M43 720q0 396 144 569t380 173q373 0 451 -265t78 -477q0 -402 -146.5 -574.5t-382.5 -172.5q-368 0 -446 267.5t-78 479.5zM334 711q0 -49 4 -136.5t25.5 -168t68.5 -138t136 -57.5t137.5 57.5t74 153t25.5 343.5t-64.5 353t-231 105t-171 -231.5t-4.5 -280.5z" />
    <glyph glyph-name="one" unicode="1" horiz-adv-x="1138" 
d="M803 0h-291v930h-360v219q260 -7 333.5 98t85.5 187h232v-1434z" />
    <glyph glyph-name="two" unicode="2" horiz-adv-x="1138" 
d="M580 1462q219 0 363 -121.5t144 -319.5t-92 -295t-164.5 -146.5t-146.5 -97.5t-143.5 -103t-122.5 -129h678v-250h-1053q0 224 97.5 339.5t180 177t152.5 109.5t197 128.5t127 232.5q0 108 -60.5 166.5t-138.5 58.5q-135 0 -189.5 -98.5t-54.5 -230.5h-278q-8 251 92 371
t199 164t213 44z" />
    <glyph glyph-name="three" unicode="3" horiz-adv-x="1138" 
d="M772 1048q0 76 -61 125.5t-157 49.5t-152 -73t-54 -183h-276q8 225 141 360t338 135t351.5 -108.5t146.5 -288.5q0 -104 -50.5 -184t-150.5 -109v-4q119 -27 186.5 -115t67.5 -206q0 -222 -156.5 -348t-389.5 -126t-378 139t-141 382h276q7 -194 98 -238.5t171 -44.5
t148.5 60.5t68.5 153.5t-32 136t-88.5 65.5t-211.5 22.5v205q198 -17 251.5 50.5t53.5 143.5z" />
    <glyph glyph-name="four" unicode="4" horiz-adv-x="1138" 
d="M639 332h-606v266l622 836h260v-863h191v-239h-191v-332h-276v332zM639 1069h-6l-371 -498h377v498z" />
    <glyph glyph-name="five" unicode="5" horiz-adv-x="1138" 
d="M659 975q204 0 323.5 -139.5t119.5 -353.5t-157 -363.5t-378 -147.5t-373.5 120.5t-156.5 334.5h291q10 -98 73.5 -156.5t168.5 -58.5t173 82.5t68 196.5t-67 190t-181 76q-78 0 -127 -28t-92 -87h-262l141 793h801v-240h-592l-57 -326l4 -4q111 111 280 111z" />
    <glyph glyph-name="six" unicode="6" horiz-adv-x="1138" 
d="M655 963q92 0 180.5 -40t147.5 -107q113 -128 113 -336t-140 -357.5t-362 -149.5q-297 0 -424 209.5t-127 521.5t141 535t422 223q187 0 314 -103.5t151 -293.5h-276q-14 72 -65.5 125t-128.5 53q-138 0 -203 -139t-70 -297l4 -4q110 160 323 160zM414 666.5
q-60 -76.5 -60 -185.5t62.5 -189.5t165.5 -80.5t163 78.5t60 185.5q0 108 -56.5 188t-165.5 80t-169 -76.5z" />
    <glyph glyph-name="seven" unicode="7" horiz-adv-x="1138" 
d="M80 1163v271h979v-250q-215 -187 -340 -532t-129 -652h-311q25 322 150.5 618.5t330.5 544.5h-680z" />
    <glyph glyph-name="eight" unicode="8" horiz-adv-x="1138" 
d="M572 662q-105 0 -179 -58.5t-74 -167.5t73 -177.5t180 -68.5t177 67t70 171q0 103 -71 168.5t-176 65.5zM88 1066q0 187 145.5 291.5t337.5 104.5q239 0 334.5 -99t120.5 -166t25 -120q0 -106 -52.5 -186t-156.5 -115v-4q129 -29 198.5 -122t69.5 -218
q0 -226 -160.5 -342.5t-382.5 -116.5q-221 0 -379.5 114t-158.5 333q0 137 70.5 229t199.5 123v4q-104 29 -157.5 109t-53.5 181zM573 856q90 0 151.5 48t61.5 140q0 127 -73 163t-129 36q-102 0 -167 -52t-65 -146q0 -93 65.5 -141t155.5 -48z" />
    <glyph glyph-name="nine" unicode="9" horiz-adv-x="1138" 
d="M217 550q-174 79 -174 404q0 209 141 358.5t361 149.5q297 0 424 -210.5t127 -520.5t-140 -534t-424 -224q-188 0 -314 104.5t-150 291.5h276q14 -72 65.5 -125.5t129.5 -53.5q137 0 199 134.5t73 302.5l-4 4q-110 -160 -324 -160q-92 0 -266 79zM555 690q109 0 169 76.5
t60 186.5q0 111 -63 190.5t-164 79.5q-102 0 -162.5 -77.5t-60.5 -184.5q0 -179 82 -225t139 -46z" />
    <glyph glyph-name="colon" unicode=":" horiz-adv-x="569" 
d="M125 315h321v-315h-321v315zM446 725h-321v315h321v-315z" />
    <glyph glyph-name="semicolon" unicode=";" horiz-adv-x="569" 
d="M125 315h321v-315q0 -135 -91 -226t-228 -112v148q61 12 105 67t40 123h-147v315zM446 725h-321v315h321v-315z" />
    <glyph glyph-name="less" unicode="&#x3c;" horiz-adv-x="1228" 
d="M1135 817l-752 -299l752 -299v-233l-1041 411v242l1041 414v-236z" />
    <glyph glyph-name="equal" unicode="=" horiz-adv-x="1228" 
d="M1133 627h-1035v219h1035v-219zM1133 188h-1035v220h1035v-220z" />
    <glyph glyph-name="greater" unicode="&#x3e;" horiz-adv-x="1228" 
d="M94 219l752 299l-752 299v236l1041 -414v-242l-1041 -411v233z" />
    <glyph glyph-name="question" unicode="?" horiz-adv-x="1138" 
d="M1073 1102q0 -229 -144 -327.5t-182 -147.5t-47 -111v-78h-276v92q14 199 115.5 276t158.5 127t56 142q-2 92 -48.5 137t-114.5 45q-118 0 -171 -73.5t-53 -192.5h-301q4 223 140 364.5t374 141.5q128 0 225.5 -40t182.5 -125t85 -230zM395 315h322v-315h-322v315z" />
    <glyph glyph-name="at" unicode="@" horiz-adv-x="1638" 
d="M596 638q0 -66 44 -116.5t108 -50.5q111 0 185.5 96.5t74.5 212.5q0 76 -46.5 125t-106.5 49t-107.5 -27.5t-81 -71.5t-52 -97.5t-18.5 -119.5zM387 627q0 202 125.5 362t321.5 160q66 0 135 -32t104 -111l33 110h168l-129 -528q-17 -57 -17 -96t35 -39q94 0 168 109
t74 250q0 253 -156 387t-407 134q-252 0 -412 -170.5t-160 -435.5t168.5 -431.5t435.5 -166.5q129 0 245 44t196 124h172q-104 -160 -268.5 -245t-342.5 -85t-321 57.5t-250.5 160t-169 242.5t-61.5 303t61.5 303.5t168 242.5t247.5 161.5t291 59.5t278.5 -45t227 -126
t158 -196.5t59.5 -265.5t-56.5 -262.5t-135.5 -184t-159.5 -105t-138.5 -33.5t-97.5 32.5t-43.5 83.5h-4q-72 -119 -212.5 -119t-235.5 104t-95 247z" />
    <glyph glyph-name="A" unicode="A" horiz-adv-x="1402" 
d="M541 1462h329l547 -1462h-334l-110 326h-547l-115 -326h-323zM510 565h379l-184 537h-5z" />
    <glyph glyph-name="B" unicode="B" horiz-adv-x="1441" 
d="M1044 442q0 209 -231 209h-350v-401h344q237 0 237 192zM1296 1100q0 -210 -198 -305q135 -39 201.5 -136.5t66.5 -221.5q0 -224 -150 -330.5t-366 -106.5h-709v1462h688q342 0 404.5 -130t62.5 -232zM985 1044q0 168 -221 168h-301v-342h325q86 0 141.5 41t55.5 133z
" />
    <glyph glyph-name="C" unicode="C" horiz-adv-x="1517" 
d="M772 1227q-84 0 -159.5 -42t-144.5 -145t-69 -310t97 -350.5t301 -143.5q147 0 230 90t101 237h312q-24 -273 -197.5 -434.5t-445.5 -161.5q-168 0 -302.5 58.5t-275.5 215.5t-141 487t141 490t276 219.5t279 59.5q270 0 448 -139.5t205 -386.5h-311
q-16 107 -107.5 181.5t-236.5 74.5z" />
    <glyph glyph-name="D" unicode="D" horiz-adv-x="1517" 
d="M141 1462h631q296 0 480 -186t184 -528t-172 -545t-492 -203h-631v1462zM463 270h287q249 0 306.5 159t57.5 275q0 237 -96.5 362.5t-325.5 125.5h-229v-922z" />
    <glyph glyph-name="E" unicode="E" horiz-adv-x="1327" 
d="M141 1462h1094v-270h-772v-313h708v-250h-708v-359h788v-270h-1110v1462z" />
    <glyph glyph-name="F" unicode="F" horiz-adv-x="1214" 
d="M141 1462h1028v-270h-706v-338h612v-250h-612v-604h-322v1462z" />
    <glyph glyph-name="G" unicode="G" horiz-adv-x="1554" 
d="M219 241q-141 157 -141 487t141 490t276 219.5t275 59.5q264 0 442 -138.5t201 -377.5h-307q-29 123 -111.5 184.5t-194.5 61.5q-207 0 -304 -145t-97 -352t97 -350.5t301 -143.5q317 0 348 315h-324v240h615v-791h-205l-33 166q-154 -199 -401 -199q-168 0 -302.5 58.5
t-275.5 215.5z" />
    <glyph glyph-name="H" unicode="H" horiz-adv-x="1517" 
d="M141 1462h322v-561h592v561h321v-1462h-321v631h-592v-631h-322v1462z" />
    <glyph glyph-name="I" unicode="I" horiz-adv-x="604" 
d="M141 1462h322v-1462h-322v1462z" />
    <glyph glyph-name="J" unicode="J" horiz-adv-x="1138" 
d="M997 461q0 -203 -100.5 -348.5t-386.5 -145.5q-201 0 -341 113t-140 338v127h290v-66q0 -178 65 -210.5t125 -32.5q110 0 138.5 65t28.5 174v987h321v-1001z" />
    <glyph glyph-name="K" unicode="K" horiz-adv-x="1478" 
d="M141 1462h322v-606l571 606h402l-572 -577l627 -885h-404l-440 657l-184 -186v-471h-322v1462z" />
    <glyph glyph-name="L" unicode="L" horiz-adv-x="1214" 
d="M141 1462h322v-1192h713v-270h-1035v1462z" />
    <glyph glyph-name="M" unicode="M" horiz-adv-x="1857" 
d="M141 1462h453l342 -1005h4l324 1005h452v-1462h-301v1036h-4l-358 -1036h-248l-359 1026h-4v-1026h-301v1462z" />
    <glyph glyph-name="N" unicode="N" horiz-adv-x="1517" 
d="M141 1462h320l610 -981h4v981h301v-1462h-321l-609 979h-4v-979h-301v1462z" />
    <glyph glyph-name="O" unicode="O" horiz-adv-x="1593" 
d="M78 727q0 162 49 302t141 244.5t226.5 164t303.5 59.5q330 0 524 -220t194 -549t-194 -545t-525 -216q-168 0 -302.5 58.5t-226.5 161t-141 240.5t-49 300zM496 379q97 -143 301 -143t300.5 143.5t96.5 350.5q0 206 -96.5 351.5t-300.5 145.5t-301 -145t-97 -352
q0 -208 97 -351z" />
    <glyph glyph-name="P" unicode="P" horiz-adv-x="1366" 
d="M141 1462h660q255 0 380.5 -136t125.5 -333t-125.5 -333t-380.5 -136h-338v-524h-322v1462zM463 774h250q129 0 182 32t76.5 75t23.5 141.5t-76 144t-206 45.5h-250v-438z" />
    <glyph glyph-name="Q" unicode="Q" horiz-adv-x="1593" 
d="M818 -33q-352 0 -546 215.5t-194 545.5t193.5 549.5t526.5 219.5q330 0 524 -220t194 -547q0 -326 -191 -544l182 -166l-149 -155l-207 186q-145 -84 -333 -84zM1104 389q90 121 90 334t-96.5 358.5t-300.5 145.5t-301 -145t-97 -352t97 -350.5t301 -143.5q87 0 129 20
l-138 125l150 160z" />
    <glyph glyph-name="R" unicode="R" horiz-adv-x="1478" 
d="M1358 1059q0 -275 -232 -367v-4q161 -44 186 -169.5t29.5 -213.5t13 -171t46.5 -134h-322q-27 70 -33 166t-20 198t-67.5 154.5t-174.5 52.5h-321v-571h-322v1462h789q192 0 310 -116.5t118 -286.5zM463 801h352q111 0 166 49.5t55 157.5t-55 156t-166 48h-352v-411z" />
    <glyph glyph-name="S" unicode="S" horiz-adv-x="1329" 
d="M920 1026q-13 221 -279 221q-102 0 -166.5 -42t-64.5 -124q0 -43 16 -69.5t68.5 -50.5t222.5 -67q170 -42 242.5 -63.5t196.5 -102.5t124 -292t-158.5 -340t-436.5 -129q-279 0 -459.5 131.5t-176.5 386.5h311q0 -137 92.5 -203.5t231.5 -66.5q183 0 234 63.5t51 120.5
t-38 94t-99.5 62t-139.5 43t-158 40q-200 53 -318 143t-118 286t163 313t400 117t403.5 -116.5t166.5 -354.5h-311z" />
    <glyph glyph-name="T" unicode="T" horiz-adv-x="1251" 
d="M465 1192h-438v270h1198v-270h-439v-1192h-321v1192z" />
    <glyph glyph-name="U" unicode="U" horiz-adv-x="1517" 
d="M1382 553q0 -297 -165.5 -441.5t-460.5 -144.5t-458 143.5t-163 442.5v909h322v-909q0 -147 63.5 -232t236.5 -85t238.5 76.5t65.5 240.5v909h321v-909z" />
    <glyph glyph-name="V" unicode="V" horiz-adv-x="1290" 
d="M821 0h-362l-473 1462h329l326 -1028h4l330 1028h332z" />
    <glyph glyph-name="W" unicode="W" horiz-adv-x="1933" 
d="M1534 0h-320l-247 995h-4l-244 -995h-326l-387 1462h322l231 -995h4l254 995h301l250 -1007h4l240 1007h315z" />
    <glyph glyph-name="X" unicode="X" horiz-adv-x="1366" 
d="M500 766l-471 696h372l287 -467l297 467h352l-469 -698l510 -764h-383l-319 506l-326 -506h-360z" />
    <glyph glyph-name="Y" unicode="Y" horiz-adv-x="1366" 
d="M842 0h-322v569l-536 893h360l342 -577l340 577h358l-542 -901v-561z" />
    <glyph glyph-name="Z" unicode="Z" horiz-adv-x="1327" 
d="M109 1192v270h1151v-254l-785 -938h805v-270h-1233v254l784 938h-722z" />
    <glyph glyph-name="bracketleft" unicode="[" horiz-adv-x="681" 
d="M139 1497h541v-229h-250v-1409h250v-230h-541v1868z" />
    <glyph glyph-name="backslash" unicode="\" horiz-adv-x="759" 
d="M782 -33h-233l-569 1530h231z" />
    <glyph glyph-name="backslash" unicode="&#x29f5;" horiz-adv-x="759" 
d="M782 -33h-233l-569 1530h231z" />
    <glyph glyph-name="bracketright" unicode="]" horiz-adv-x="681" 
d="M543 -371h-541v230h250v1409h-250v229h541v-1868z" />
    <glyph glyph-name="asciicircum" unicode="^" horiz-adv-x="1228" 
d="M477 1434h275l352 -789h-240l-250 563l-249 -563h-240z" />
    <glyph glyph-name="underscore" unicode="_" horiz-adv-x="1024" 
d="M0 -152h1024v-102h-1024v102z" />
    <glyph glyph-name="grave" unicode="`" horiz-adv-x="530" 
d="M223 1608l217 -363h-202l-334 363h319z" />
    <glyph glyph-name="a" unicode="a" horiz-adv-x="1175" 
d="M535 166q235 0 235 244v108q-40 -36 -174.5 -51.5t-187 -54.5t-52.5 -111q0 -135 179 -135zM66 293q0 86 31.5 144.5t81.5 93t114.5 52t130 28t129 16.5t142.5 25t75 98q0 121 -75 132t-137 11t-111.5 -37t-57.5 -123h-291q11 187 152.5 270.5t345.5 83.5
q314 0 389.5 -102t75.5 -199v-550q0 -178 37 -236h-295q-17 54 -21 102q-125 -129 -367 -129q-241 0 -295 117t-54 203z" />
    <glyph glyph-name="b" unicode="b" horiz-adv-x="1251" 
d="M387 135v-135h-276v1462h290v-532h5q53 82 144 119.5t180 37.5t167 -32.5t140.5 -100t101.5 -173t39 -314.5t-132 -351.5t-307 -142.5q-261 0 -348 162h-4zM824 771q-63 97 -185 97t-185 -97t-63 -243q0 -228 92 -283t157 -55t111 28t91 98t45 214t-63 241z" />
    <glyph glyph-name="c" unicode="c" horiz-adv-x="1175" 
d="M616 868q-125 0 -186 -101.5t-61 -242.5q0 -219 86.5 -276.5t172.5 -57.5t142.5 58.5t71.5 157.5h280q-29 -211 -164 -322t-360 -111t-372.5 152.5t-147.5 397.5t144.5 404.5t395.5 159.5q202 0 344.5 -104t153.5 -297h-285q-29 182 -215 182z" />
    <glyph glyph-name="d" unicode="d" horiz-adv-x="1251" 
d="M862 135q-96 -162 -323 -162t-350 164.5t-123 397.5t123.5 392.5t345.5 159.5q94 0 179 -39.5t134 -117.5h4v532h291v-1462h-277v135h-4zM862 532.5q0 65.5 -12 126t-42 106.5t-77 74.5t-150 28.5t-164 -97t-61 -241q0 -222 94 -281t164 -59t118 29t77 77t41 109.5
t12 127z" />
    <glyph glyph-name="e" unicode="e" horiz-adv-x="1175" 
d="M592 190q106 0 169.5 44.5t78.5 93.5h256q-61 -190 -188.5 -272.5t-307.5 -82.5q-251 0 -396 154.5t-145 399.5t152.5 402.5t400.5 157.5t383.5 -185t118.5 -443h-764q6 -141 71 -205t171 -64zM823 643q-41 225 -213 225q-143 0 -199 -70.5t-61 -154.5h473z" />
    <glyph glyph-name="f" unicode="f" horiz-adv-x="681" 
d="M528 1462q6 0 154 -8v-217q-50 6 -108 6t-83.5 -27.5t-25.5 -93.5v-63h201v-195h-201v-864h-291v864h-174v195h174v82q0 141 88 231t266 90z" />
    <glyph glyph-name="g" unicode="g" horiz-adv-x="1251" 
d="M848 195q-92 -164 -329 -164q-215 0 -328 148t-113 375t121 380t336 153t313 -169h4v141h276v-991q0 -186 -114.5 -326.5t-433.5 -140.5q-176 0 -316 85t-151 255h288q36 -146 217 -146q123 0 179.5 74t54.5 186v140h-4zM600 250q123 0 187.5 86.5t64.5 206.5
q0 226 -88 275.5t-154 49.5q-119 0 -180 -84.5t-61 -216.5q0 -211 83.5 -264t147.5 -53z" />
    <glyph glyph-name="h" unicode="h" horiz-adv-x="1214" 
d="M408 911q104 176 326 176q201 0 285.5 -111t84.5 -325v-651h-291v598q0 131 -40.5 195.5t-152.5 64.5t-165.5 -70.5t-53.5 -232.5v-555h-290v1462h290v-551h7z" />
    <glyph glyph-name="i" unicode="i" horiz-adv-x="528" 
d="M119 1059h291v-1059h-291v1059zM410 1223h-291v239h291v-239z" />
    <glyph glyph-name="j" unicode="j" horiz-adv-x="569" 
d="M28 -131q42 0 75.5 17.5t33.5 76.5v1096h291v-1110q0 -168 -80 -244t-293 -76q-51 0 -92 9v239q23 -8 65 -8zM428 1223h-291v239h291v-239z" />
    <glyph glyph-name="k" unicode="k" horiz-adv-x="1175" 
d="M137 1462h291v-784l367 381h344l-400 -389l445 -670h-353l-290 473l-113 -108v-365h-291v1462z" />
    <glyph glyph-name="l" unicode="l" horiz-adv-x="528" 
d="M119 1462h291v-1462h-291v1462z" />
    <glyph glyph-name="m" unicode="m" horiz-adv-x="1855" 
d="M721 1087q233 0 309 -176q47 70 127.5 123t178.5 53q196 0 298.5 -91.5t102.5 -286.5v-709h-291v600q0 133 -22.5 175t-58.5 62.5t-164 20.5t-128 -268v-590h-291v594q0 129 -26 196.5t-147 67.5t-160 -83t-39 -161v-614h-291v1059h274v-144h4q120 172 324 172z" />
    <glyph glyph-name="n" unicode="n" horiz-adv-x="1214" 
d="M393 911q105 176 337 176q206 0 290 -111t84 -325v-651h-291v598q0 131 -40.5 195.5t-152.5 64.5t-165.5 -70.5t-53.5 -232.5v-555h-290v1059h276v-148h6z" />
    <glyph glyph-name="o" unicode="o" horiz-adv-x="1251" 
d="M78 528q0 127 39 230.5t110.5 176.5t172 112.5t225.5 39.5t226 -39.5t173 -112.5t111 -176.5t39 -230.5t-39 -229t-111 -175t-173 -112t-226 -39t-225.5 39t-172 112t-110.5 175t-39 229zM369 528.5q0 -63.5 12 -124t42 -108.5t79 -77t122.5 -29t124 29t80 77t42 108.5
t12.5 124t-12.5 125t-42 108.5t-80 76.5t-124 29.5t-122.5 -29.5t-79 -76.5t-42 -108.5t-12 -125z" />
    <glyph glyph-name="p" unicode="p" horiz-adv-x="1251" 
d="M401 131v-502h-290v1430h276v-135h4q100 163 325 163q224 0 348 -162.5t124 -398.5q0 -235 -121.5 -394t-337.5 -159t-323 158h-5zM646 190q71 0 119 29t77.5 75t42 107.5t12.5 165.5t-62.5 202.5t-192.5 98.5t-190.5 -96.5t-60.5 -245.5q0 -227 92 -281.5t163 -54.5z
" />
    <glyph glyph-name="q" unicode="q" horiz-adv-x="1251" 
d="M1143 -371h-291v504h-4q-51 -86 -143.5 -123t-178.5 -37q-186 0 -323 135t-137 394t123.5 422t351.5 163q98 0 185 -37.5t136 -125.5h4v135h277v-1430zM356 530q0 -64 12.5 -125t42 -109t78 -77t149.5 -29t162.5 94t61.5 240q0 230 -90 287t-160 57t-119 -28.5
t-79.5 -76.5t-44 -108.5t-13.5 -124.5z" />
    <glyph glyph-name="r" unicode="r" horiz-adv-x="796" 
d="M676 817q-138 0 -206.5 -92t-68.5 -248v-477h-290v1059h276v-197h4q41 100 134.5 162.5t203.5 62.5q29 0 64 -10v-270q-49 10 -117 10z" />
    <glyph glyph-name="s" unicode="s" horiz-adv-x="1099" 
d="M537 893q-162 0 -162 -98q0 -69 74.5 -94t134.5 -37.5t122 -26.5q156 -35 245 -99.5t89 -183.5q0 -207 -137 -294t-346 -87q-328 0 -411 132.5t-87 238.5h277q0 -88 64 -133t172 -45t143 48t35 87q0 66 -87.5 98.5t-196.5 56.5t-169.5 43t-136.5 70t-76 166t40 180.5
t105.5 103.5t147.5 53t223 15t269 -79t143 -258h-277q-6 84 -63.5 113.5t-134.5 29.5z" />
    <glyph glyph-name="t" unicode="t" horiz-adv-x="720" 
d="M188 240v624h-176v195h176v317h291v-317h213v-195h-213v-524q0 -74 24.5 -98.5t86.5 -24.5t102 8v-225q-62 -10 -150 -10q-177 0 -265.5 51t-88.5 199z" />
    <glyph glyph-name="u" unicode="u" horiz-adv-x="1214" 
d="M821 147q-103 -174 -335 -174q-207 0 -291 109t-84 326v651h290v-598q0 -131 41 -195.5t153 -64.5t165 70.5t53 232.5v555h291v-1059h-277v147h-6z" />
    <glyph glyph-name="v" unicode="v" horiz-adv-x="1064" 
d="M696 0h-323l-363 1059h305l224 -723h4l223 723h289z" />
    <glyph glyph-name="w" unicode="w" horiz-adv-x="1667" 
d="M1321 0h-299l-188 711h-5l-180 -711h-301l-336 1059h307l195 -719h4l176 719h283l180 -717h4l195 717h299z" />
    <glyph glyph-name="x" unicode="x" horiz-adv-x="1099" 
d="M381 557l-348 502h332l186 -277l184 277h322l-348 -496l391 -563h-332l-221 334l-221 -334h-326z" />
    <glyph glyph-name="y" unicode="y" horiz-adv-x="1062" 
d="M268 -371q-79 0 -178 11v239q124 -12 176 -8q51 4 79 43t28 80t-13 72l-370 993h309l240 -725h4l231 725h301l-442 -1190q-47 -129 -131 -184.5t-234 -55.5z" />
    <glyph glyph-name="z" unicode="z" horiz-adv-x="1062" 
d="M86 840v219h893v-219l-551 -621h590v-219h-973v219l551 621h-510z" />
    <glyph glyph-name="braceleft" unicode="{" horiz-adv-x="681" 
d="M461 6q0 -147 110 -147h111v-230h-260q-84 0 -168 75t-84 202v397q0 85 -62 127.5t-124 42.5v178q63 0 124.5 46.5t61.5 138.5v385q0 127 84.5 201.5t167.5 74.5h260v-229h-111q-110 0 -110 -150v-311q0 -131 -66 -183.5t-137 -58.5v-6q119 -10 161 -85t42 -140v-328z
" />
    <glyph glyph-name="bar" unicode="|" horiz-adv-x="456" 
d="M119 1610h219v-2046h-219v2046z" />
    <glyph glyph-name="braceright" unicode="}" horiz-adv-x="681" 
d="M221 1118q0 150 -110 150h-111v229h260q83 0 167.5 -74.5t84.5 -201.5v-385q0 -92 61.5 -138.5t126.5 -46.5v-178q-64 0 -126 -42.5t-62 -127.5v-397q0 -127 -84 -202t-168 -75h-260v230h111q110 0 110 147v328q0 111 66.5 165t136.5 60v6q-124 11 -163.5 88.5
t-39.5 153.5v311z" />
    <glyph glyph-name="asciitilde" unicode="~" horiz-adv-x="1228" 
d="M1126 737q-100 -215 -296 -215q-57 0 -109.5 21.5t-103 48t-104.5 48.5t-122 22q-106 0 -172 -148l-117 170q28 87 110.5 151t166.5 64t235 -69.5t199 -69.5q47 0 72.5 13t47 33.5t40 47.5t37.5 53z" />
    <glyph glyph-name="nonbreakingspace" unicode="&#xa0;" horiz-adv-x="569" 
 />
    <glyph glyph-name="exclamdown" unicode="&#xa1;" horiz-adv-x="569" 
d="M446 772h-321v315h321v-315zM436 -373h-303v391l80 631h145l78 -631v-391z" />
    <glyph glyph-name="cent" unicode="&#xa2;" horiz-adv-x="1138" 
d="M379.5 323q45.5 -97 152.5 -133v676q-102 -26 -150 -115.5t-48 -210.5q0 -120 45.5 -217zM171 909q128 158 361 178v175h121v-175q175 0 313 -111t146 -292h-285q-6 74 -55 126t-119 58v-678q74 12 126 79.5t52 146.5h285q-16 -193 -141.5 -308.5t-321.5 -134.5v-206
h-121v206q-216 12 -352.5 165.5t-136.5 383.5q0 229 128 387z" />
    <glyph glyph-name="sterling" unicode="&#xa3;" horiz-adv-x="1138" 
d="M416 43q-135 0 -236 -76l-127 189q156 98 194 191t38 147t-39 139h-203v174h131q-31 39 -61.5 114t-30.5 163q0 176 137 294.5t380 118.5t374 -131t131 -381h-277q-7 109 -48 190.5t-175 81.5q-92 0 -146.5 -51t-54.5 -137t27 -146.5t57 -115.5h273v-174h-215
q16 -50 16 -136q0 -147 -168 -278l4 -4q74 47 131 47t134 -16t116 -23.5t80 -7.5t83 14.5t97 73.5l123 -207q-133 -129 -283 -129.5t-228 25.5t-122.5 38.5t-111.5 12.5z" />
    <glyph glyph-name="currency" unicode="&#xa4;" horiz-adv-x="1138" 
d="M571 1225q84 0 160 -25.5t123 -66.5l119 116l125 -125l-115 -112q92 -100 92 -289t-94 -303l113 -115l-113 -112l-117 118q-106 -102 -295 -102t-299 100l-114 -119l-115 115l117 119q-98 115 -98 301t98 285l-117 118l117 117l116 -115q51 43 132 69t165 26zM572 1006
q-118 0 -188.5 -84t-70.5 -206q0 -121 69 -204.5t189.5 -83.5t185 85.5t64.5 205.5q0 189 -93.5 238t-155.5 49z" />
    <glyph glyph-name="yen" unicode="&#xa5;" horiz-adv-x="1138" 
d="M424 0v283h-322v194h322v94l-29 60h-293v194h195l-313 637h331l271 -637l264 637h332l-318 -637h195v-194h-293l-31 -60v-94h324v-194h-324v-283h-311z" />
    <glyph glyph-name="brokenbar" unicode="&#xa6;" horiz-adv-x="456" 
d="M119 330h219v-510h-219v510zM338 842h-219v512h219v-512z" />
    <glyph glyph-name="section" unicode="&#xa7;" horiz-adv-x="1138" 
d="M836 384q28 38 28 80q0 72 -92 124l-338 190q-12 6 -25 14.5t-33 6.5q-42 -4 -72 -48.5t-30 -99.5q0 -54 66 -90l369 -201q35 -14 67 -14t60 38zM240 936q-43 47 -65.5 94t-22.5 123t37.5 142.5t128 134t271.5 67.5q180 0 301.5 -107t121.5 -288h-254q0 76 -46 126
t-114 50t-119 -35t-50 -94t52 -101t128 -81t167 -78t166 -91.5t126 -121t50 -168.5t-57 -180t-156 -115q113 -86 113 -244t-133 -249t-321 -91t-315.5 99t-127.5 297h254q8 -177 200 -177q63 0 107.5 34t45.5 98t-50 106.5t-129 81.5t-303.5 137t-225.5 326q0 227 220 305z
" />
    <glyph glyph-name="dieresis" unicode="&#xa8;" horiz-adv-x="530" 
d="M614 1462v-239h-276v239h276zM193 1462v-239h-275v239h275z" />
    <glyph glyph-name="copyright" unicode="&#xa9;" horiz-adv-x="1638" 
d="M33 732q0 175 64.5 316.5t173 241t251 153.5t298 54t298 -54t251 -153.5t173 -241t64.5 -316.5t-64.5 -316.5t-173 -241.5t-251 -153.5t-298 -53.5t-298 53.5t-251 153.5t-173 241.5t-64.5 316.5zM242 731q0 -259 166 -430.5t410 -171.5t411.5 172t167.5 430t-168 430
t-411 172q-244 0 -410 -171.5t-166 -430.5zM832 281q-84 0 -165 34.5t-170 129.5t-89 294q0 198 118 326.5t318 128.5q145 0 247.5 -83t122.5 -234h-159q-16 72 -73.5 112.5t-137.5 40.5q-117 0 -178.5 -81t-61.5 -208t68 -212t165 -85t152 43t66 117h166
q-24 -149 -128 -236t-261 -87z" />
    <glyph glyph-name="ordfeminine" unicode="&#xaa;" horiz-adv-x="704" 
d="M229 974q0 -73 104 -73q138 0 138 154v41q-23 -20 -64.5 -25.5t-78.5 -13.5t-68 -24.5t-31 -58.5zM371 1462q297 0 297 -182v-340q0 -106 24 -154h-207l-8 32t-6 32q-79 -82 -221 -82q-96 0 -163 48t-67 157q0 147 109 173t180.5 32t117.5 17.5t46 53.5q0 53 -36 66.5
t-79 13.5q-100 0 -108 -90h-209q33 223 330 223z" />
    <glyph glyph-name="guillemotleft" unicode="&#xab;" horiz-adv-x="909" 
d="M502 420v276l321 252v-246l-184 -145l184 -147v-246zM86 420v276l322 252v-246l-185 -145l185 -147v-246z" />
    <glyph glyph-name="logicalnot" unicode="&#xac;" horiz-adv-x="1228" 
d="M1130 203h-219v409h-813v219h1032v-628z" />
    <glyph glyph-name="uni00AD" unicode="&#xad;" horiz-adv-x="833" 
d="M109 684h616v-250h-616v250z" />
    <glyph glyph-name="registered" unicode="&#xae;" horiz-adv-x="1638" 
d="M33 732q0 175 64.5 316.5t173 241t251 153.5t298 54t298 -54t251 -153.5t173 -241t64.5 -316.5t-64.5 -316.5t-173 -241.5t-251 -153.5t-298 -53.5t-298 53.5t-251 153.5t-173 241.5t-64.5 316.5zM407.5 302q165.5 -173 410.5 -173t412 174t167 430t-168 428t-411 172
q-244 0 -410 -171.5t-166 -429t165.5 -430.5zM514 1163h324q162 0 249 -57t87 -208t-89.5 -182.5t-136.5 -35.5l230 -375h-179l-208 367h-107v-367h-170v858zM1004 924q0 106 -177 106h-143v-225h152q74 0 121 20.5t47 98.5z" />
    <glyph glyph-name="macron" unicode="&#xaf;" horiz-adv-x="530" 
d="M647 1415v-153h-762v153h762z" />
    <glyph glyph-name="degree" unicode="&#xb0;" horiz-adv-x="819" 
d="M106 1159.5q0 63.5 24 118.5t65 96t96 64.5t118.5 23.5t119 -23.5t96.5 -64.5t64.5 -96t23.5 -118.5t-23.5 -119t-64.5 -96.5t-96.5 -64.5t-119 -23.5t-118.5 23.5t-96 64.5t-65 96.5t-24 119zM240 1159q0 -37 14 -69.5t37.5 -57t54.5 -39t63.5 -14.5t63.5 14.5t54.5 39
t38 57t14.5 69.5t-14.5 70t-38 57.5t-54.5 38.5t-63.5 14t-63.5 -14t-54.5 -38.5t-37.5 -57.5t-14 -70z" />
    <glyph glyph-name="plusminus" unicode="&#xb1;" horiz-adv-x="1228" 
d="M725 768h408v-219h-408v-268h-219v268h-408v219h408v268h219v-268zM98 219h1035v-219h-1035v219z" />
    <glyph glyph-name="twosuperior" unicode="&#xb2;" horiz-adv-x="802" 
d="M428 1462q135 0 227.5 -72.5t92.5 -203.5q0 -98 -48.5 -156.5t-118 -103.5t-143 -89t-127.5 -114h428v-164h-684q0 204 124.5 292t192.5 129.5t117.5 82t49.5 100.5q0 61 -34 98t-84 37q-87 0 -123 -62t-32 -130h-209q-2 158 90.5 257t280.5 99z" />
    <glyph glyph-name="threesuperior" unicode="&#xb3;" horiz-adv-x="802" 
d="M336 1094q89 0 141.5 15.5t52.5 73.5t-38.5 86.5t-96.5 28.5t-94.5 -43t-34.5 -104h-196q4 143 91 227t231 84t239.5 -66t95.5 -186q0 -61 -34 -110t-101 -66v-4q78 -14 122 -68t44 -126q0 -138 -100.5 -216.5t-260.5 -78.5t-258 84t-94 243h197q4 -66 42 -114.5
t107 -48.5t113.5 35.5t44.5 85.5q0 87 -59 105.5t-154 18.5v144z" />
    <glyph glyph-name="acute" unicode="&#xb4;" horiz-adv-x="530" 
d="M645 1608l-334 -363h-202l217 363h319z" />
    <glyph glyph-name="mu" unicode="&#xb5;" horiz-adv-x="1214" 
d="M555 -27q-109 0 -154 47v-391h-290v1430h290v-598q0 -131 41 -195.5t153 -64.5t165 70.5t53 232.5v555h291v-1059h-277v147h-6q-80 -123 -160.5 -148.5t-105.5 -25.5z" />
    <glyph glyph-name="paragraph" unicode="&#xb6;" horiz-adv-x="1269" 
d="M453 731q-217 0 -333 96.5t-116 262.5q0 293 192.5 332.5t299.5 39.5h600v-1800h-209v1636h-225v-1636h-209v1069z" />
    <glyph glyph-name="periodcentered" unicode="&#xb7;" horiz-adv-x="569" 
d="M113 588q0 74 51.5 124t121.5 50t121.5 -51.5t51.5 -117.5t-49.5 -121.5t-120.5 -55.5q-116 0 -146 68.5t-30 103.5z" />
    <glyph glyph-name="cedilla" unicode="&#xb8;" horiz-adv-x="530" 
d="M518 -234q0 -210 -239 -210q-118 0 -172 17t-82 28l43 98q87 -37 171 -37q83 0 83 70q0 39 -24 52t-64 13t-76 -14l-43 49l121 172h100l-80 -110h4q25 10 65 10q80 0 136.5 -36.5t56.5 -101.5z" />
    <glyph glyph-name="onesuperior" unicode="&#xb9;" horiz-adv-x="802" 
d="M592 559h-209v561h-225v154q168 -7 212 57t50 113h172v-885z" />
    <glyph glyph-name="ordmasculine" unicode="&#xba;" horiz-adv-x="751" 
d="M25 1114q0 162 95 255t255 93t256 -93t96 -255t-96 -254t-256 -92t-255 92t-95 254zM244 1115q0 -34 7 -68.5t23.5 -62.5t41 -45t75 -17t84 57t33.5 113q0 57 -7 92t-23.5 62.5t-42 45t-60.5 17.5t-59.5 -17.5t-41 -45t-23.5 -62.5t-7 -69z" />
    <glyph glyph-name="guillemotright" unicode="&#xbb;" horiz-adv-x="909" 
d="M823 696v-276l-321 -256v246l184 147l-184 145v246zM408 696v-276l-322 -256v246l184 147l-184 145v246z" />
    <glyph glyph-name="onequarter" unicode="&#xbc;" horiz-adv-x="1826" 
d="M1159 1479h174l-844 -1522h-178zM483 559h-209v561h-225v154q168 -7 212 57t50 113h172v-885zM1411 182h-393v191l385 487h205v-514h116v-164h-116v-182h-197v182zM1411 641h-4l-233 -295h237v295z" />
    <glyph glyph-name="onehalf" unicode="&#xbd;" horiz-adv-x="1820" 
d="M1159 1479h174l-844 -1522h-178zM483 559h-209v561h-225v154q168 -7 212 57t50 113h172v-885zM1413 903q135 0 227.5 -72.5t92.5 -203.5q0 -98 -48.5 -156.5t-118 -103.5t-143 -89.5t-127.5 -113.5h428v-164h-684q0 204 114 284.5t159 108.5q110 69 160.5 110t50.5 101
q0 61 -34 98t-84 37q-86 0 -122.5 -61.5t-32.5 -130.5h-209q-2 158 90.5 257t280.5 99z" />
    <glyph glyph-name="threequarters" unicode="&#xbe;" horiz-adv-x="1820" 
d="M1337 1479h174l-843 -1522h-179zM371 1094q89 0 141.5 16t52.5 73q0 58 -38.5 86.5t-96.5 28.5t-94.5 -43t-34.5 -104h-197q4 143 91.5 227t231.5 84t239.5 -66t95.5 -186q0 -61 -34 -110t-101 -66v-4q78 -14 122 -68t44 -126q0 -138 -100.5 -216.5t-260.5 -78.5t-258 84
t-94 243h196q4 -66 42 -114.5t108 -48.5t114 35.5t44 85.5q0 87 -59 105.5t-154 18.5v144zM1452 182h-393v191l385 487h205v-514h116v-164h-116v-182h-197v182zM1452 641h-4l-234 -295h238v295z" />
    <glyph glyph-name="questiondown" unicode="&#xbf;" horiz-adv-x="1138" 
d="M66 -4q0 224 146 324.5t182 149t44 110.5v77h277v-92q-14 -201 -146 -299t-158 -143t-24 -100q0 -92 45.5 -137.5t113.5 -45.5q115 0 168.5 75t53.5 189h301q-4 -218 -139 -360.5t-371 -142.5q-127 0 -225 40t-183 124.5t-85 230.5zM743 772h-321v315h321v-315z" />
    <glyph glyph-name="Agrave" unicode="&#xc0;" horiz-adv-x="1402" 
d="M541 1462h329l547 -1462h-334l-110 326h-547l-115 -326h-323zM510 565h379l-184 537h-5zM657 1946l217 -363h-202l-334 363h319z" />
    <glyph glyph-name="Aacute" unicode="&#xc1;" horiz-adv-x="1402" 
d="M541 1462h329l547 -1462h-334l-110 326h-547l-115 -326h-323zM510 565h379l-184 537h-5zM1075 1956l-334 -363h-202l217 363h319z" />
    <glyph glyph-name="Acircumflex" unicode="&#xc2;" horiz-adv-x="1402" 
d="M541 1462h329l547 -1462h-334l-110 326h-547l-115 -326h-323zM510 565h379l-184 537h-5zM569 1884h267l225 -291h-240l-127 166l-131 -166h-219z" />
    <glyph glyph-name="Atilde" unicode="&#xc3;" horiz-adv-x="1402" 
d="M541 1462h329l547 -1462h-334l-110 326h-547l-115 -326h-323zM510 565h379l-184 537h-5zM723 1857q95 -44 135 -44q40 -1 60 19t30 69h131q-24 -126 -59 -174q-67 -91 -170 -91q-71 0 -163 50t-138 51q-72 0 -92 -101h-129q22 174 144 241q42 24 99 24t152 -44z" />
    <glyph glyph-name="Adieresis" unicode="&#xc4;" horiz-adv-x="1402" 
d="M541 1462h329l547 -1462h-334l-110 326h-547l-115 -326h-323zM510 565h379l-184 537h-5zM774 1866h277v-240h-277v240zM352 1866h277v-240h-277v240z" />
    <glyph glyph-name="Aring.low" unicode="&#xc5;" horiz-adv-x="1402" 
d="M521.5 1883.5q72.5 72.5 176.5 72.5t178 -72.5t74 -177.5t-62.5 -166.5t-131.5 -77.5h114l547 -1462h-334l-110 326h-547l-115 -326h-323l553 1462h101q-71 17 -132 78t-61 166t72.5 177.5zM889 565l-184 537h-5l-190 -537h379zM569 1706q0 -59 35 -101t94.5 -42t95 42
t35.5 101t-35.5 101t-95 42t-94.5 -42t-35 -101z" />
    <glyph glyph-name="AE" unicode="&#xc6;" horiz-adv-x="2009" 
d="M926 565v627h-70l-283 -627h353zM1917 1462v-270h-680v-313h639v-250h-639v-359h696v-270h-1007v326h-459l-148 -326h-339l696 1462h1241z" />
    <glyph glyph-name="Ccedilla" unicode="&#xc7;" horiz-adv-x="1517" 
d="M732 -338q83 0 83 70q0 39 -23.5 52t-63.5 13t-77 -14l-43 49l99 141q-288 27 -458.5 237.5t-170.5 528.5t141 478.5t276 220t279 59.5q270 0 448 -139.5t205 -386.5h-311q-16 107 -107.5 181.5t-205.5 74.5q-209 0 -306.5 -145t-97.5 -352t97 -350.5t301 -143.5
q147 0 230 90t101 237h312q-24 -271 -196.5 -431.5t-440.5 -164.5l-53 -73h4q24 10 64 10q81 0 137.5 -36t56.5 -102q0 -117 -67.5 -163.5t-178.5 -46.5t-165 17t-83 28l43 98q88 -37 171 -37z" />
    <glyph glyph-name="Egrave" unicode="&#xc8;" horiz-adv-x="1327" 
d="M141 1462h1094v-270h-772v-313h708v-250h-708v-359h788v-270h-1110v1462zM602 1956l217 -363h-203l-333 363h319z" />
    <glyph glyph-name="Eacute" unicode="&#xc9;" horiz-adv-x="1327" 
d="M141 1462h1094v-270h-772v-313h708v-250h-708v-359h788v-270h-1110v1462zM1047 1956l-334 -363h-203l217 363h320z" />
    <glyph glyph-name="Ecircumflex" unicode="&#xca;" horiz-adv-x="1327" 
d="M141 1462h1094v-270h-772v-313h708v-250h-708v-359h788v-270h-1110v1462zM563 1884h266l226 -291h-240l-127 166l-131 -166h-219z" />
    <glyph glyph-name="Edieresis" unicode="&#xcb;" horiz-adv-x="1327" 
d="M141 1462h1094v-270h-772v-313h708v-250h-708v-359h788v-270h-1110v1462zM737 1866h277v-240h-277v240zM315 1866h277v-240h-277v240z" />
    <glyph glyph-name="Igrave" unicode="&#xcc;" horiz-adv-x="604" 
d="M141 1462h322v-1462h-322v1462zM227 1956l217 -363h-202l-334 363h319z" />
    <glyph glyph-name="Iacute" unicode="&#xcd;" horiz-adv-x="604" 
d="M141 1462h322v-1462h-322v1462zM684 1956l-334 -363h-203l218 363h319z" />
    <glyph glyph-name="Icircumflex" unicode="&#xce;" horiz-adv-x="604" 
d="M141 1462h322v-1462h-322v1462zM170 1884h266l226 -291h-240l-127 166l-131 -166h-219z" />
    <glyph glyph-name="Idieresis" unicode="&#xcf;" horiz-adv-x="604" 
d="M141 1462h322v-1462h-322v1462zM375 1866h276v-240h-276v240zM-45 1866h274v-240h-274v240z" />
    <glyph glyph-name="Eth" unicode="&#xd0;" horiz-adv-x="1517" 
d="M141 637h-135v237h135v588h631q296 0 480 -186t184 -528t-172 -545t-492 -203h-631v637zM463 874h328v-239h-328v-365h287q249 0 306.5 159t57.5 275q0 237 -96.5 362.5t-325.5 125.5h-229v-318z" />
    <glyph glyph-name="Ntilde" unicode="&#xd1;" horiz-adv-x="1517" 
d="M141 1462h320l610 -981h4v981h301v-1462h-321l-609 979h-4v-979h-301v1462zM912 1632q-68 0 -172 35q-105 35 -146 35t-58.5 -23.5t-27.5 -62.5h-125q24 109 62 157t82.5 70.5t96.5 22.5t83.5 -12t93.5 -36t108 -24q45 0 65.5 21.5t18.5 50.5h142q-31 -109 -77 -171.5
t-146 -62.5z" />
    <glyph glyph-name="Ograve" unicode="&#xd2;" horiz-adv-x="1593" 
d="M78 727q0 330 190 547q92 104 226 164t304 59q332 0 524 -218t193 -549q1 -330 -192 -546q-193 -215 -525 -216q-331 -1 -525 214q-195 215 -195 545zM495 381q96 -145 301 -145q204 0 301 144t97 348q0 205 -96 352t-301 147t-308 -155q-90 -136 -90 -341t96 -350z
M731 1956l217 -363h-203l-333 363h319z" />
    <glyph glyph-name="Oacute" unicode="&#xd3;" horiz-adv-x="1593" 
d="M78 727q0 330 190 547q92 104 226 164t304 59q332 0 524 -218t193 -549q1 -330 -192 -546q-193 -215 -525 -216q-331 -1 -525 214q-195 215 -195 545zM495 381q96 -145 301 -145q204 0 301 144t97 348q0 205 -96 352t-301 147t-308 -155q-90 -136 -90 -341t96 -350z
M1167 1956l-333 -363h-203l217 363h319z" />
    <glyph glyph-name="Ocircumflex" unicode="&#xd4;" horiz-adv-x="1593" 
d="M78 727q0 330 190 547q92 104 226 164t304 59q332 0 524 -218t193 -549q1 -330 -192 -546q-193 -215 -525 -216q-331 -1 -525 214q-195 215 -195 545zM495 381q96 -145 301 -145q204 0 301 144t97 348q0 205 -96 352t-301 147t-308 -155q-90 -136 -90 -341t96 -350z
M664 1884h266l225 -291h-240l-127 166l-131 -166h-219z" />
    <glyph glyph-name="Otilde" unicode="&#xd5;" horiz-adv-x="1593" 
d="M78 727q0 330 190 547q92 104 226 164t304 59q332 0 524 -218t193 -549q1 -330 -192 -546q-193 -215 -525 -216q-331 -1 -525 214q-195 215 -195 545zM495 381q96 -145 301 -145q204 0 301 144t97 348q0 205 -96 352t-301 147t-308 -155q-90 -136 -90 -341t96 -350z
M817 1857q95 -44 135 -44q40 -1 60 19t30 69h132q-23 -124 -59 -173q-67 -92 -171 -92q-71 0 -163 50t-138 51q-70 0 -92 -101h-129q22 173 144 241q42 24 99 24t152 -44z" />
    <glyph glyph-name="Odieresis" unicode="&#xd6;" horiz-adv-x="1593" 
d="M78 727q0 162 49 302t141 244.5t226.5 164t303.5 59.5q330 0 524 -220t194 -549t-194 -545t-525 -216q-168 0 -302.5 58.5t-226.5 161t-141 240.5t-49 300zM496 379q97 -143 301 -143t300.5 143.5t96.5 350.5q0 206 -96.5 351.5t-300.5 145.5t-301 -145t-97 -352
q0 -208 97 -351zM870 1866h277v-240h-277v240zM449 1866h276v-240h-276v240z" />
    <glyph glyph-name="multiply" unicode="&#xd7;" horiz-adv-x="1228" 
d="M131 190l330 328l-326 328l156 155l325 -327l328 327l156 -155l-330 -328l330 -328l-156 -155l-328 330l-329 -330z" />
    <glyph glyph-name="Oslash" unicode="&#xd8;" horiz-adv-x="1593" 
d="M246 215q-168 203 -168 523t141 480t275.5 219.5t302.5 59.5q277 0 460 -158l164 183l103 -90l-172 -191q164 -213 164 -527t-194 -530.5t-525 -216.5q-273 0 -457 154l-170 -187l-100 86zM797 1227q-204 0 -301 -145t-97 -330t58 -303l606 673q-105 105 -266 105z
M797 236q204 0 300.5 143.5t96.5 321.5t-55 303l-604 -668q100 -100 262 -100z" />
    <glyph glyph-name="Ugrave" unicode="&#xd9;" horiz-adv-x="1517" 
d="M1382 553q0 -297 -166 -441t-460 -144q-295 0 -458 142q-163 144 -163 443v909h322v-909q0 -147 53 -218q76 -101 248 -100t238 77t65 241v909h321v-909zM707 1956l217 -363h-203l-334 363h320z" />
    <glyph glyph-name="Uacute" unicode="&#xda;" horiz-adv-x="1517" 
d="M1382 553q0 -297 -166 -441t-460 -144q-295 0 -458 142q-163 144 -163 443v909h322v-909q0 -147 53 -218q76 -101 248 -100t238 77t65 241v909h321v-909zM1141 1956l-334 -363h-203l217 363h320z" />
    <glyph glyph-name="Ucircumflex" unicode="&#xdb;" horiz-adv-x="1517" 
d="M1382 553q0 -297 -165.5 -441.5t-460.5 -144.5t-458 143.5t-163 442.5v909h322v-909q0 -147 63.5 -232t236.5 -85t238.5 76.5t65.5 240.5v909h321v-909zM627 1884h266l225 -291h-239l-127 166l-131 -166h-222z" />
    <glyph glyph-name="Udieresis" unicode="&#xdc;" horiz-adv-x="1517" 
d="M1382 553q0 -297 -165.5 -441.5t-460.5 -144.5t-458 143.5t-163 442.5v909h322v-909q0 -147 63.5 -232t236.5 -85t238.5 76.5t65.5 240.5v909h321v-909zM831 1866h277v-240h-277v240zM410 1866h276v-240h-276v240z" />
    <glyph glyph-name="Yacute" unicode="&#xdd;" horiz-adv-x="1366" 
d="M842 0h-322v569l-536 893h360l342 -577l340 577h358l-542 -901v-561zM1055 1956l-334 -363h-203l217 363h320z" />
    <glyph glyph-name="Thorn" unicode="&#xde;" horiz-adv-x="1366" 
d="M141 1462h322v-198h338q255 0 380.5 -136t125.5 -333t-125.5 -333t-380.5 -136h-338v-326h-322v1462zM463 575h250q129 0 182 32t76.5 75t23.5 141.5t-76.5 144.5t-205.5 46h-250v-439z" />
    <glyph glyph-name="germandbls" unicode="&#xdf;" horiz-adv-x="1251" 
d="M115 1006q0 491 481 491q197 0 331 -100t134 -293q0 -98 -52.5 -178t-138.5 -107v-4q127 -26 197 -127t70 -218q0 -218 -127 -357.5t-318 -139.5q-84 0 -168 13v235q33 -10 85 -10q102 0 169.5 71.5t67.5 179.5t-60.5 177.5t-189.5 69.5q-34 0 -72 -4v192q24 -4 55 -4
q82 0 143.5 46t61.5 124t-22.5 113.5t-59.5 58t-120 22.5q-82 0 -129 -54t-47 -146v-1057h-291v1006z" />
    <glyph glyph-name="agrave" unicode="&#xe0;" horiz-adv-x="1175" 
d="M535 166q235 0 235 244v108q-40 -36 -149 -48q-159 -18 -211 -56t-54 -113q0 -135 179 -135zM558 893q-62 0 -112 -37t-57 -123h-291q11 187 166 279q128 75 332 75q314 0 422 -146q43 -58 43 -155v-550q0 -180 37 -236h-295q-14 45 -21 102q-125 -129 -366 -129
t-323 174q-27 59 -27 145q1 228 228 291q101 26 212 38q110 12 160 24q108 26 104 105q0 118 -116 138q-34 5 -96 5zM545 1608l217 -363h-203l-334 363h320z" />
    <glyph glyph-name="aacute" unicode="&#xe1;" horiz-adv-x="1175" 
d="M535 166q235 0 235 244v108q-40 -36 -149 -48q-159 -18 -211 -56t-54 -113q0 -135 179 -135zM558 893q-62 0 -112 -37t-57 -123h-291q11 187 166 279q128 75 332 75q314 0 422 -146q43 -58 43 -155v-550q0 -180 37 -236h-295q-14 45 -21 102q-125 -129 -366 -129
t-323 174q-27 59 -27 145q1 228 228 291q101 26 212 38q110 12 160 24q108 26 104 105q0 118 -116 138q-34 5 -96 5zM969 1608l-334 -363h-203l217 363h320z" />
    <glyph glyph-name="acircumflex" unicode="&#xe2;" horiz-adv-x="1175" 
d="M535 166q235 0 235 244v108q-40 -36 -149 -48q-159 -18 -211 -56t-54 -113q0 -135 179 -135zM558 893q-62 0 -112 -37t-57 -123h-291q11 187 166 279q128 75 332 75q314 0 422 -146q43 -58 43 -155v-550q0 -180 37 -236h-295q-14 45 -21 102q-125 -129 -366 -129
t-323 174q-27 59 -27 145q1 228 228 291q101 26 212 38q110 12 160 24q108 26 104 105q0 118 -116 138q-34 5 -96 5zM449 1481h266l225 -291h-240l-127 166l-131 -166h-219z" />
    <glyph glyph-name="atilde" unicode="&#xe3;" horiz-adv-x="1175" 
d="M535 166q235 0 235 244v108q-40 -36 -149 -48q-159 -18 -211 -56t-54 -113q0 -135 179 -135zM558 893q-62 0 -112 -37t-57 -123h-291q11 187 166 279q128 75 332 75q314 0 422 -146q43 -58 43 -155v-550q0 -180 37 -236h-295q-14 45 -21 102q-125 -129 -366 -129
t-323 174q-27 59 -27 145q1 228 228 291q101 26 212 38q110 12 160 24q108 26 104 105q0 118 -116 138q-34 5 -96 5zM428 1325q-69 0 -92 -100h-129q22 172 144 240q42 24 101 24t153 -44q93 -44 132 -44t60 20q20 20 30 68h131q-23 -124 -59 -173q-67 -91 -170 -91
q-73 0 -165 50q-93 50 -136 50z" />
    <glyph glyph-name="adieresis" unicode="&#xe4;" horiz-adv-x="1175" 
d="M535 166q235 0 235 244v108q-40 -36 -174.5 -51.5t-187 -54.5t-52.5 -111q0 -135 179 -135zM66 293q0 86 31.5 144.5t81.5 93t114.5 52t130 28t129 16.5t142.5 25t75 98q0 121 -75 132t-137 11t-111.5 -37t-57.5 -123h-291q11 187 152.5 270.5t345.5 83.5
q314 0 389.5 -102t75.5 -199v-550q0 -178 37 -236h-295q-17 54 -21 102q-125 -129 -367 -129q-241 0 -295 117t-54 203zM662 1462h276v-239h-276v239zM240 1462h276v-239h-276v239z" />
    <glyph glyph-name="aring" unicode="&#xe5;" horiz-adv-x="1175" 
d="M535 166q235 0 235 244v108q-40 -36 -174.5 -51.5t-187 -54.5t-52.5 -111q0 -135 179 -135zM66 293q0 86 31.5 144.5t81.5 93t114.5 52t130 28t129 16.5t142.5 25t75 98q0 121 -75 132t-137 11t-111.5 -37t-57.5 -123h-291q11 187 152.5 270.5t345.5 83.5
q314 0 389.5 -102t75.5 -199v-550q0 -178 37 -236h-295q-17 54 -21 102q-125 -129 -367 -129q-241 0 -295 117t-54 203zM459 1343.5q0 -59.5 34.5 -101.5t94 -42t95.5 42t36 101.5t-36 101.5t-95.5 42t-94 -42t-34.5 -101.5zM410.5 1520.5q72.5 72.5 176.5 72.5t178.5 -71.5
t74.5 -177.5t-75 -178t-178 -72q-104 0 -176.5 73t-72.5 177t72.5 176.5z" />
    <glyph glyph-name="ae" unicode="&#xe6;" horiz-adv-x="1857" 
d="M419.5 198q50.5 -32 110.5 -32q113 0 185.5 56.5t72.5 162.5v131q-38 -32 -120 -44.5t-129 -20t-108.5 -33.5t-61.5 -107t50.5 -113zM788 805q0 88 -188 88q-86 0 -142.5 -36t-60.5 -128h-291q7 186 148 272t331 86q273 0 371 -143q61 72 143.5 107.5t213.5 35.5
q245 0 365 -178.5t120 -449.5h-756q-4 -114 68 -203.5t184 -89.5q181 0 211 166h283q-44 -166 -176 -262.5t-312 -96.5q-115 0 -221 41t-174 138q-135 -179 -419 -179q-283 0 -345.5 113t-62.5 202q0 163 95 230t223 86q128 20 195.5 30.5t112 24t64.5 36t20 110.5z
M1507 643q0 166 -86 208t-167 42t-146.5 -74t-65.5 -176h465z" />
    <glyph glyph-name="ccedilla" unicode="&#xe7;" horiz-adv-x="1175" 
d="M562 -338q83 0 83 70q0 39 -23.5 52t-63.5 13t-77 -14l-43 49l103 148q-209 20 -336 166t-127 384q0 239 144.5 398t395.5 159q202 0 344.5 -104t153.5 -297h-285q-29 182 -215 182q-125 0 -186 -101.5t-61 -242.5q0 -219 86.5 -276.5t172.5 -57.5t142.5 58.5t71.5 157.5
h280q-27 -205 -154.5 -314.5t-330.5 -116.5l-57 -81h4q24 10 64 10q81 0 137.5 -36t56.5 -102q0 -117 -67.5 -163.5t-178.5 -46.5t-165 17t-83 28l43 98q88 -37 171 -37z" />
    <glyph glyph-name="egrave" unicode="&#xe8;" horiz-adv-x="1175" 
d="M600 -27q-249 0 -395 154t-146 399t152 403t400 158q249 0 386 -186q136 -186 117 -442h-764q6 -141 72 -205t171 -64t169 44q63 44 78 94h256q-60 -190 -188 -272t-308 -83zM823 643q-41 225 -213 225q-88 0 -134 -24q-89 -46 -112 -131q-11 -39 -14 -70h473zM526 1608
l217 -363h-202l-334 363h319z" />
    <glyph glyph-name="eacute" unicode="&#xe9;" horiz-adv-x="1175" 
d="M600 -27q-249 0 -395 154t-146 399t152 403t400 158q249 0 386 -186q136 -186 117 -442h-764q6 -141 72 -205t171 -64t169 44q63 44 78 94h256q-60 -190 -188 -272t-308 -83zM823 643q-41 225 -213 225q-88 0 -134 -24q-89 -46 -112 -131q-11 -39 -14 -70h473zM971 1608
l-334 -363h-203l217 363h320z" />
    <glyph glyph-name="ecircumflex" unicode="&#xea;" horiz-adv-x="1175" 
d="M600 -27q-249 0 -395 154t-146 399t152 403t400 158q249 0 386 -186q136 -186 117 -442h-764q6 -141 72 -205t171 -64t169 44q63 44 78 94h256q-60 -190 -188 -272t-308 -83zM823 643q-41 225 -213 225q-88 0 -134 -24q-89 -46 -112 -131q-11 -39 -14 -70h473zM455 1481
h266l225 -291h-239l-127 166l-131 -166h-220z" />
    <glyph glyph-name="edieresis" unicode="&#xeb;" horiz-adv-x="1175" 
d="M592 190q106 0 169.5 44.5t78.5 93.5h256q-61 -190 -188.5 -272.5t-307.5 -82.5q-251 0 -396 154.5t-145 399.5t152.5 402.5t400.5 157.5t383.5 -185t118.5 -443h-764q6 -141 71 -205t171 -64zM823 643q-41 225 -213 225q-143 0 -199 -70.5t-61 -154.5h473zM662 1462h276
v-239h-276v239zM240 1462h276v-239h-276v239z" />
    <glyph glyph-name="igrave" unicode="&#xec;" horiz-adv-x="528" 
d="M119 1059h291v-1059h-291v1059zM193 1608l217 -363h-203l-334 363h320z" />
    <glyph glyph-name="iacute" unicode="&#xed;" horiz-adv-x="528" 
d="M119 1059h291v-1059h-291v1059zM645 1608l-334 -363h-202l217 363h319z" />
    <glyph glyph-name="icircumflex" unicode="&#xee;" horiz-adv-x="528" 
d="M119 1059h291v-1059h-291v1059zM133 1481h266l226 -291h-240l-127 166l-131 -166h-219z" />
    <glyph glyph-name="idieresis" unicode="&#xef;" horiz-adv-x="528" 
d="M119 1059h291v-1059h-291v1059zM338 1462h276v-239h-276v239zM-82 1462h275v-239h-275v239z" />
    <glyph glyph-name="eth" unicode="&#xf0;" horiz-adv-x="1251" 
d="M657 190q106 0 166 97.5t60 240.5q0 207 -94.5 260.5t-164.5 53.5q-131 0 -193 -92.5t-62 -221.5q0 -230 91 -284t197 -54zM567 1036q141 0 258 -82h4q-37 86 -97 150.5t-111 109.5l-230 -114l-119 114l220 111q-72 53 -173 102l189 142q111 -61 203 -135l252 127
l106 -121l-233 -117q166 -160 254 -342t84 -422q0 -258 -151.5 -422t-398 -164t-396.5 148.5t-150 373.5q0 224 120.5 382.5t368.5 158.5z" />
    <glyph glyph-name="ntilde" unicode="&#xf1;" horiz-adv-x="1214" 
d="M393 911q105 176 337 176q206 0 290 -111t84 -325v-651h-291v598q0 131 -40.5 195.5t-152.5 64.5t-165.5 -70.5t-53.5 -232.5v-555h-290v1059h276v-148h6zM761 1229q-70 1 -171 35t-145 34t-61 -23.5t-28 -62.5h-125q25 112 81.5 181t176.5 69q43 0 131 -36t136 -35
q47 0 67.5 21.5t18.5 49.5h141q-31 -107 -76.5 -170t-145.5 -63z" />
    <glyph glyph-name="ograve" unicode="&#xf2;" horiz-adv-x="1251" 
d="M1024 935q150 -151 150 -405q0 -253 -149 -405t-399 -152t-399 151t-149 404t150 407t398 153t398 -153zM369 528q0 -64 12 -124t42 -108q66 -106 204 -106q137 0 201 106q53 84 55 232q0 229 -134 311q-50 29 -124 29t-123 -30t-79 -76q-30 -47 -42 -109t-12 -125z
M563 1608l217 -363h-202l-334 363h319z" />
    <glyph glyph-name="oacute" unicode="&#xf3;" horiz-adv-x="1251" 
d="M1024 935q150 -151 150 -405q0 -253 -149 -405t-399 -152t-399 151t-149 404t150 407t398 153t398 -153zM369 528q0 -64 12 -124t42 -108q66 -106 204 -106q137 0 201 106q53 84 55 232q0 229 -134 311q-50 29 -124 29t-123 -30t-79 -76q-30 -47 -42 -109t-12 -125z
M1008 1608l-334 -363h-203l217 363h320z" />
    <glyph glyph-name="ocircumflex" unicode="&#xf4;" horiz-adv-x="1251" 
d="M1024 935q150 -151 150 -405q0 -253 -149 -405t-399 -152t-399 151t-149 404t150 407t398 153t398 -153zM369 528q0 -64 12 -124t42 -108q66 -106 204 -106q137 0 201 106q53 84 55 232q0 229 -134 311q-50 29 -124 29t-123 -30t-79 -76q-30 -47 -42 -109t-12 -125z
M494 1481h266l225 -291h-240l-127 166l-131 -166h-219z" />
    <glyph glyph-name="otilde" unicode="&#xf5;" horiz-adv-x="1251" 
d="M1024 935q150 -151 150 -405q0 -253 -149 -405t-399 -152t-399 151t-149 404t150 407t398 153t398 -153zM369 528q0 -64 12 -124t42 -108q66 -106 204 -106q137 0 201 106q53 84 55 232q0 229 -134 311q-50 29 -124 29t-123 -30t-79 -76q-30 -47 -42 -109t-12 -125z
M471 1325q-69 0 -92 -100h-129q22 172 144 240q42 24 101 24t153 -44q93 -44 132 -44t60 20q20 20 30 68h131q-23 -124 -59 -173q-67 -91 -170 -91q-73 0 -165 50q-93 50 -136 50z" />
    <glyph glyph-name="odieresis" unicode="&#xf6;" horiz-adv-x="1251" 
d="M78 528q0 127 39 230.5t110.5 176.5t172 112.5t225.5 39.5t226 -39.5t173 -112.5t111 -176.5t39 -230.5t-39 -229t-111 -175t-173 -112t-226 -39t-225.5 39t-172 112t-110.5 175t-39 229zM369 528.5q0 -63.5 12 -124t42 -108.5t79 -77t122.5 -29t124 29t80 77t42 108.5
t12.5 124t-12.5 125t-42 108.5t-80 76.5t-124 29.5t-122.5 -29.5t-79 -76.5t-42 -108.5t-12 -125zM698 1462h277v-239h-277v239zM276 1462h277v-239h-277v239z" />
    <glyph glyph-name="divide" unicode="&#xf7;" horiz-adv-x="1228" 
d="M98 627h1035v-219h-1035v219zM494.5 1066q52.5 50 122.5 50t120.5 -51.5t50.5 -118.5t-50 -121.5t-121 -54.5q-72 0 -123.5 51t-51.5 123t52.5 122zM738 212.5q50 -51.5 50 -116.5t-50.5 -120.5t-120.5 -55.5t-122.5 52.5t-52.5 120.5t50.5 119.5t123 51.5t122.5 -51.5z
" />
    <glyph glyph-name="oslash" unicode="&#xf8;" horiz-adv-x="1251" 
d="M369 551q0 -126 30 -199l396 451q-61 66 -170 65q-134 0 -195 -95.5t-61 -221.5zM451 260q62 -70 187 -70t185 97.5t60 220.5t-33 207zM1032 924q142 -150 142 -399t-149.5 -400.5t-399.5 -151.5q-201 0 -338 101l-121 -135l-76 63l123 139q-135 147 -135 394t149 399.5
t398 152.5q197 0 333 -98l109 125l76 -65z" />
    <glyph glyph-name="ugrave" unicode="&#xf9;" horiz-adv-x="1214" 
d="M821 147q-103 -174 -335 -174q-207 0 -298 118q-77 100 -77 317v651h290v-598q0 -131 41 -196t153 -65t165 72q53 70 53 232v555h291v-1059h-277v147h-6zM545 1608l217 -363h-203l-334 363h320z" />
    <glyph glyph-name="uacute" unicode="&#xfa;" horiz-adv-x="1214" 
d="M821 147q-103 -174 -335 -174q-207 0 -298 118q-77 100 -77 317v651h290v-598q0 -131 41 -196t153 -65t165 72q53 70 53 232v555h291v-1059h-277v147h-6zM989 1608l-334 -363h-202l217 363h319z" />
    <glyph glyph-name="ucircumflex" unicode="&#xfb;" horiz-adv-x="1214" 
d="M821 147q-103 -174 -335 -174q-207 0 -291 109t-84 326v651h290v-598q0 -131 41 -195.5t153 -64.5t165 70.5t53 232.5v555h291v-1059h-277v147h-6zM475 1481h266l226 -291h-240l-127 166l-131 -166h-221z" />
    <glyph glyph-name="udieresis" unicode="&#xfc;" horiz-adv-x="1214" 
d="M821 147q-103 -174 -335 -174q-207 0 -291 109t-84 326v651h290v-598q0 -131 41 -195.5t153 -64.5t165 70.5t53 232.5v555h291v-1059h-277v147h-6zM680 1462h276v-239h-276v239zM258 1462h277v-239h-277v239z" />
    <glyph glyph-name="yacute" unicode="&#xfd;" horiz-adv-x="1062" 
d="M373 -6q0 41 -13 72l-370 993h309l240 -725h4l231 725h301l-442 -1190q-47 -129 -131 -184t-234 -56q-79 0 -178 11v239q124 -12 176 -8q51 4 79 43t28 80zM918 1608l-334 -363h-203l217 363h320z" />
    <glyph glyph-name="thorn" unicode="&#xfe;" horiz-adv-x="1251" 
d="M401 131v-502h-290v1833h290v-538h5q100 163 301 163q233 0 357 -162.5t124 -398.5q0 -235 -121.5 -394t-337.5 -159t-323 158h-5zM834.5 769.5q-62.5 98.5 -192.5 98.5t-190.5 -96.5t-60.5 -245.5q0 -227 92 -281.5t163 -54.5t119 29t90 94.5t42 211.5t-62.5 244.5z" />
    <glyph glyph-name="ydieresis" unicode="&#xff;" horiz-adv-x="1062" 
d="M268 -371q-79 0 -178 11v239q124 -12 176 -8q51 4 79 43t28 80t-13 72l-370 993h309l240 -725h4l231 725h301l-442 -1190q-47 -129 -131 -184.5t-234 -55.5zM604 1462h277v-239h-277v239zM182 1462h277v-239h-277v239z" />
    <glyph glyph-name="uni0100" unicode="&#x100;" horiz-adv-x="1402" 
d="M342 1810h723v-153h-723v153zM889 565l-184 537h-5l-190 -537h379zM541 1462h329l547 -1462h-334l-110 326h-547l-115 -326h-325z" />
    <glyph glyph-name="uni0101" unicode="&#x101;" horiz-adv-x="1175" 
d="M242 1421h723v-153h-723v153zM535 166q235 0 235 244v108q-23 -23 -70 -33t-99 -17q-124 -17 -184.5 -48t-60.5 -119q0 -135 179 -135zM426 -29q-158 0 -259 80.5t-101 249.5t102 226t180 71t149 22q167 20 220 43t53 78q0 93 -49 122.5t-137 29.5t-137.5 -37t-57.5 -123
h-291q11 187 152.5 270.5t345.5 83.5q315 0 390 -103t75 -198v-550q0 -178 37 -236h-295q-17 54 -21 102q-127 -131 -356 -131z" />
    <glyph glyph-name="uni0102" unicode="&#x102;" horiz-adv-x="1402" 
d="M541 1462h329l547 -1462h-334l-110 326h-547l-115 -326h-323zM510 565h379l-184 537h-5zM692 1778q92 0 150 33q57 34 76 112h129q-19 -159 -115 -229t-250 -70q-299 0 -324 299h131q16 -112 140 -138q33 -7 63 -7z" />
    <glyph glyph-name="uni0103" unicode="&#x103;" horiz-adv-x="1175" 
d="M535 166q235 0 235 244v108q-40 -36 -149 -48q-159 -18 -211 -56t-54 -113q0 -135 179 -135zM558 893q-62 0 -112 -37t-57 -123h-291q11 187 166 279q128 75 332 75q314 0 422 -146q43 -58 43 -155v-550q0 -180 37 -236h-295q-14 45 -21 102q-125 -129 -366 -129
t-323 174q-27 59 -27 145q1 228 228 291q101 26 212 38q110 12 160 24q108 26 104 105q0 118 -116 138q-34 5 -96 5zM561 1190q-299 0 -323 299h131q20 -140 202 -146q190 0 226 146h129q-20 -159 -116 -229t-249 -70z" />
    <glyph glyph-name="Aogonek" unicode="&#x104;" horiz-adv-x="1402" 
d="M889 565l-184 537h-5l-190 -537h379zM924 -233q0 152 159 233l-110 326h-547l-115 -326h-323l553 1462h329l547 -1462h-139q-139 -11 -161.5 -77t-22.5 -97q0 -56 37.5 -80.5t88.5 -24.5t97 13v-123q-62 -27 -132 -27q-123 0 -192 46.5t-69 136.5z" />
    <glyph glyph-name="aogonek" unicode="&#x105;" horiz-adv-x="1175" 
d="M535 166q235 0 235 244v108q-40 -36 -174.5 -51.5t-187 -54.5t-52.5 -111q0 -135 179 -135zM641 -223q0 146 162 223q-17 54 -21 102q-125 -129 -367 -129q-241 0 -295 117t-54 203t31.5 144.5t81.5 93t114.5 52t130 28t129 16.5t142.5 25t75 98q0 121 -75 132t-137 11
t-111.5 -37t-57.5 -123h-291q11 187 152.5 270.5t345.5 83.5q314 0 389.5 -102t75.5 -199v-550q0 -178 37 -236h-92q-98 -4 -146.5 -53t-48.5 -101q0 -51 12.5 -71.5t37 -37t76.5 -16.5t97 13v-123q-62 -27 -132 -27q-261 0 -261 193z" />
    <glyph glyph-name="Cacute" unicode="&#x106;" horiz-adv-x="1517" 
d="M495 381q96 -145 302 -145q147 0 230 90t101 237h312q-24 -276 -198 -436t-445 -160q-329 0 -524 215t-195 545t190 547q92 104 226 164t280 59q269 0 447 -140t206 -386h-311q-15 105 -106 179q-91 75 -206 76q-116 1 -192 -41t-123 -113q-90 -136 -90 -341t96 -350z
M1159 1956l-334 -363h-202l217 363h319z" />
    <glyph glyph-name="cacute" unicode="&#x107;" horiz-adv-x="1175" 
d="M616 868q-125 0 -193 -113q-54 -90 -54 -231q0 -219 127 -303q46 -31 132 -31t142 58t72 158h280q-29 -211 -164 -322t-360 -111t-373 152q-147 152 -147 396q0 245 144 405q144 161 396 161q202 0 344 -104t154 -297h-285q-29 182 -215 182zM991 1608l-334 -363h-202
l217 363h319z" />
    <glyph glyph-name="uni0108" unicode="&#x108;" horiz-adv-x="1517" 
d="M657 1886h267l225 -291h-236l-127 166l-131 -166h-225zM271.5 1277.5q193.5 219.5 525.5 219.5q247 0 425 -139.5t205 -386.5h-311q-16 107 -107.5 181.5t-205.5 74.5q-209 0 -306.5 -145t-97.5 -352t97 -350.5t301 -143.5q147 0 230 90t101 237h312
q-24 -273 -198.5 -435.5t-444.5 -162.5q-330 0 -524.5 216.5t-194.5 546.5t193.5 549.5z" />
    <glyph glyph-name="uni0109" unicode="&#x109;" horiz-adv-x="1175" 
d="M494 1497h266l225 -291h-235l-127 166l-131 -166h-226zM616 868q-125 0 -186 -101.5t-61 -281.5t86.5 -237.5t172.5 -57.5t142.5 58.5t71.5 157.5h280q-29 -211 -164 -323t-361 -112t-372.5 154t-146.5 399t144.5 404t395.5 159q202 0 344 -104t154 -297h-285
q-29 182 -215 182z" />
    <glyph glyph-name="uni010A" unicode="&#x10a;" horiz-adv-x="1517" 
d="M647 1853h277v-239h-277v239zM271.5 1277.5q193.5 219.5 525.5 219.5q247 0 425 -139.5t205 -386.5h-311q-16 107 -107.5 181.5t-205.5 74.5q-209 0 -306.5 -145t-97.5 -352t97 -350.5t301 -143.5q147 0 230 90t101 237h312q-24 -273 -198.5 -435.5t-444.5 -162.5
q-330 0 -524.5 216.5t-194.5 546.5t193.5 549.5z" />
    <glyph glyph-name="uni010B" unicode="&#x10b;" horiz-adv-x="1175" 
d="M485 1464h277v-239h-277v239zM616 868q-125 0 -186 -101.5t-61 -281.5t86.5 -237.5t172.5 -57.5t142.5 58.5t71.5 157.5h280q-29 -211 -164 -323t-361 -112t-372.5 154t-146.5 399t144.5 404t395.5 159q202 0 344 -104t154 -297h-285q-29 182 -215 182z" />
    <glyph glyph-name="uni010C" unicode="&#x10c;" horiz-adv-x="1517" 
d="M918 1595h-267l-225 291h236l126 -166l132 166h225zM271.5 1277.5q193.5 219.5 525.5 219.5q247 0 425 -139.5t205 -386.5h-311q-16 107 -107.5 181.5t-205.5 74.5q-209 0 -306.5 -145t-97.5 -352t97 -350.5t301 -143.5q147 0 230 90t101 237h312q-24 -273 -198.5 -435.5
t-444.5 -162.5q-330 0 -524.5 216.5t-194.5 546.5t193.5 549.5z" />
    <glyph glyph-name="uni010D" unicode="&#x10d;" horiz-adv-x="1175" 
d="M758 1206h-266l-226 291h236l127 -166l131 166h225zM616 868q-125 0 -186 -101.5t-61 -281.5t86.5 -237.5t172.5 -57.5t142.5 58.5t71.5 157.5h280q-29 -211 -164 -323t-361 -112t-372.5 154t-146.5 399t144.5 404t395.5 159q202 0 344 -104t154 -297h-285
q-29 182 -215 182z" />
    <glyph glyph-name="uni010E" unicode="&#x10e;" horiz-adv-x="1517" 
d="M813 1595h-266l-225 291h235l127 -166l131 166h225zM750 270q249 0 306.5 159t57.5 275q0 237 -96.5 362.5t-325.5 125.5h-229v-922h287zM141 1462h631q296 0 480 -186t184 -528t-172 -545t-492 -203h-631v1462z" />
    <glyph glyph-name="uni010F" unicode="&#x10f;" horiz-adv-x="1251" 
d="M1440 1171h-201l64 291h303zM801.5 775q-60.5 93 -192.5 93t-192.5 -97t-60.5 -241q0 -222 94 -281t164 -59t118 29t89 97t41 217t-60.5 242zM862 135q-97 -164 -323 -164t-349.5 165.5t-123.5 398.5t123.5 392.5t345.5 159.5q94 0 179 -39.5t134 -117.5h4v532h291v-1462
h-277v135h-4z" />
    <glyph glyph-name="uni0110" unicode="&#x110;" horiz-adv-x="1517" 
d="M463 856h328v-203h-328v-383h287q249 0 306.5 159t57.5 275q0 237 -96.5 362.5t-325.5 125.5h-229v-336zM141 655h-149v201h149v606h631q296 0 480 -186t184 -528t-172 -545t-492 -203h-631v655z" />
    <glyph glyph-name="uni0111" unicode="&#x111;" horiz-adv-x="1271" 
d="M801.5 775q-60.5 93 -192.5 93t-192.5 -97t-60.5 -241q0 -222 94 -281t164 -59t118 29t89 97t41 217t-60.5 242zM862 135q-97 -164 -323 -164t-349.5 165.5t-123.5 398.5t123.5 392.5t345.5 159.5q94 0 179 -39.5t134 -117.5h4v233h-324v156h324v143h291v-143h166v-156
h-166v-1163h-277v135h-4z" />
    <glyph glyph-name="uni0112" unicode="&#x112;" horiz-adv-x="1327" 
d="M317 1810h723v-153h-723v153zM141 1462h1094v-270h-772v-313h708v-250h-708v-359h788v-270h-1110v1462z" />
    <glyph glyph-name="uni0113" unicode="&#x113;" horiz-adv-x="1175" 
d="M240 1421h723v-153h-723v153zM823 643q-41 225 -214 225q-89 0 -169.5 -42t-89.5 -183h473zM592 190q106 0 169.5 44.5t78.5 93.5h256q-61 -190 -188.5 -273.5t-307.5 -83.5q-249 0 -395 155.5t-146 400.5t152.5 402.5t400.5 157.5t383.5 -185t118.5 -443h-764
q6 -141 71 -205t171 -64z" />
    <glyph glyph-name="uni0114" unicode="&#x114;" horiz-adv-x="1327" 
d="M674 1749q190 0 225 137h129q-38 -291 -364 -291q-147 0 -230.5 75t-95.5 216h133q16 -103 94 -120t109 -17zM141 1462h1094v-270h-772v-313h708v-250h-708v-359h788v-270h-1110v1462z" />
    <glyph glyph-name="uni0115" unicode="&#x115;" horiz-adv-x="1175" 
d="M596 1360q191 0 225 137h129q-38 -291 -364 -291q-147 0 -230.5 75t-95.5 216h133q16 -103 94 -120t109 -17zM823 643q-41 225 -214 225q-89 0 -169.5 -42t-89.5 -183h473zM592 190q106 0 169.5 44.5t78.5 93.5h256q-61 -190 -188.5 -273.5t-307.5 -83.5
q-249 0 -395 155.5t-146 400.5t152.5 402.5t400.5 157.5t383.5 -185t118.5 -443h-764q6 -141 71 -205t171 -64z" />
    <glyph glyph-name="uni0116" unicode="&#x116;" horiz-adv-x="1327" 
d="M539 1853h276v-239h-276v239zM141 1462h1094v-270h-772v-313h708v-250h-708v-359h788v-270h-1110v1462z" />
    <glyph glyph-name="uni0117" unicode="&#x117;" horiz-adv-x="1175" 
d="M461 1464h276v-239h-276v239zM823 643q-41 225 -214 225q-89 0 -169.5 -42t-89.5 -183h473zM592 190q106 0 169.5 44.5t78.5 93.5h256q-61 -190 -188.5 -273.5t-307.5 -83.5q-249 0 -395 155.5t-146 400.5t152.5 402.5t400.5 157.5t383.5 -185t118.5 -443h-764
q6 -141 71 -205t171 -64z" />
    <glyph glyph-name="Eogonek" unicode="&#x118;" horiz-adv-x="1327" 
d="M838 -233q0 152 159 233h-856v1462h1094v-270h-772v-313h708v-250h-708v-359h788v-270h-49q-99 -4 -146.5 -53.5t-47.5 -100.5t12 -71.5t37.5 -37t76.5 -16.5t97 13v-123q-62 -27 -132 -27q-123 0 -192 46.5t-69 136.5z" />
    <glyph glyph-name="eogonek" unicode="&#x119;" horiz-adv-x="1175" 
d="M823 643q-41 225 -214 225q-89 0 -169.5 -42t-89.5 -183h473zM575 -27q-238 8 -377 160.5t-139 395.5t152.5 400.5t400.5 157.5t383.5 -185t118.5 -443h-764q6 -141 71 -205t171 -64t169.5 44.5t78.5 93.5h256q-41 -127 -118 -213t-222 -123q-68 -16 -96.5 -65.5
t-28.5 -90.5q0 -115 126 -115q51 0 97 13v-123q-62 -27 -132 -27q-123 0 -192 46.5t-69 158.5t114 184z" />
    <glyph glyph-name="uni011A" unicode="&#x11a;" horiz-adv-x="1327" 
d="M813 1595h-266l-225 291h235l127 -166l131 166h225zM141 1462h1094v-270h-772v-313h708v-250h-708v-359h788v-270h-1110v1462z" />
    <glyph glyph-name="uni011B" unicode="&#x11b;" horiz-adv-x="1175" 
d="M735 1206h-266l-225 291h235l127 -166l131 166h226zM823 643q-41 225 -214 225q-89 0 -169.5 -42t-89.5 -183h473zM592 190q106 0 169.5 44.5t78.5 93.5h256q-61 -190 -188.5 -273.5t-307.5 -83.5q-249 0 -395 155.5t-146 400.5t152.5 402.5t400.5 157.5t383.5 -185
t118.5 -443h-764q6 -141 71 -205t171 -64z" />
    <glyph glyph-name="uni011C" unicode="&#x11c;" horiz-adv-x="1554" 
d="M657 1886h267l225 -291h-236l-127 166l-131 -166h-225zM797 -35q-330 0 -524.5 216.5t-194.5 546.5t193.5 549.5t525.5 219.5q238 0 415.5 -139.5t200.5 -376.5h-307q-29 123 -111.5 184.5t-194.5 61.5q-207 0 -304 -145t-97 -352t97 -350.5t301 -143.5q317 0 348 315
h-324v240h615v-791h-205l-33 166q-156 -201 -401 -201z" />
    <glyph glyph-name="uni011D" unicode="&#x11d;" horiz-adv-x="1251" 
d="M504 1497h266l225 -291h-235l-127 166l-131 -166h-226zM600 250q123 0 187.5 86.5t64.5 206.5q0 227 -89 276t-155 49q-118 0 -178.5 -84.5t-60.5 -216.5q0 -211 83.5 -264t147.5 -53zM848 195q-92 -164 -330 -164q-214 0 -327 148t-113 375t121 380t336 153t313 -169h4
v141h276v-991q0 -186 -114 -327.5t-434 -141.5q-176 0 -316 85t-151 255h288q36 -146 217 -146q123 0 179.5 73t54.5 189v140h-4z" />
    <glyph glyph-name="uni011E" unicode="&#x11e;" horiz-adv-x="1554" 
d="M1137 1886q-38 -291 -365 -291q-147 0 -230 75t-96 216h134q11 -70 71 -103.5t131 -33.5q189 0 226 137h129zM797 -35q-330 0 -524.5 216.5t-194.5 546.5t193.5 549.5t525.5 219.5q238 0 415.5 -139.5t200.5 -376.5h-307q-29 123 -111.5 184.5t-194.5 61.5
q-207 0 -304 -145t-97 -352t97 -350.5t301 -143.5q317 0 348 315h-324v240h615v-791h-205l-33 166q-156 -201 -401 -201z" />
    <glyph glyph-name="uni011F" unicode="&#x11f;" horiz-adv-x="1251" 
d="M629 1360q191 0 225 137h129q-38 -291 -365 -291q-147 0 -230 75t-95 216h133q11 -70 71 -103.5t132 -33.5zM600 250q123 0 187.5 86.5t64.5 206.5q0 227 -89 276t-155 49q-118 0 -178.5 -84.5t-60.5 -216.5q0 -211 83.5 -264t147.5 -53zM848 195q-92 -164 -330 -164
q-214 0 -327 148t-113 375t121 380t336 153t313 -169h4v141h276v-991q0 -186 -114 -327.5t-434 -141.5q-176 0 -316 85t-151 255h288q36 -146 217 -146q123 0 179.5 73t54.5 189v140h-4z" />
    <glyph glyph-name="uni0120" unicode="&#x120;" horiz-adv-x="1554" 
d="M647 1853h277v-239h-277v239zM797 -35q-330 0 -524.5 216.5t-194.5 546.5t193.5 549.5t525.5 219.5q238 0 415.5 -139.5t200.5 -376.5h-307q-29 123 -111.5 184.5t-194.5 61.5q-207 0 -304 -145t-97 -352t97 -350.5t301 -143.5q317 0 348 315h-324v240h615v-791h-205
l-33 166q-156 -201 -401 -201z" />
    <glyph glyph-name="uni0121" unicode="&#x121;" horiz-adv-x="1251" 
d="M494 1464h276v-239h-276v239zM600 250q123 0 187.5 86.5t64.5 206.5q0 227 -89 276t-155 49q-118 0 -178.5 -84.5t-60.5 -216.5q0 -211 83.5 -264t147.5 -53zM848 195q-92 -164 -330 -164q-214 0 -327 148t-113 375t121 380t336 153t313 -169h4v141h276v-991
q0 -186 -114 -327.5t-434 -141.5q-176 0 -316 85t-151 255h288q36 -146 217 -146q123 0 179.5 73t54.5 189v140h-4z" />
    <glyph glyph-name="uni0122" unicode="&#x122;" horiz-adv-x="1554" 
d="M629 -102h297v-150q0 -166 -109.5 -179t-167.5 -13v75q49 4 78 20.5t39 55.5h-137v191zM797 -35q-330 0 -524.5 216.5t-194.5 546.5t193.5 549.5t525.5 219.5q238 0 415.5 -139.5t200.5 -376.5h-307q-29 123 -111.5 184.5t-194.5 61.5q-207 0 -304 -145t-97 -352
t97 -350.5t301 -143.5q317 0 348 315h-324v240h615v-791h-205l-33 166q-156 -201 -401 -201z" />
    <glyph glyph-name="uni0123" unicode="&#x123;" horiz-adv-x="1251" 
d="M778 1272h-297v149q0 167 108.5 180t168.5 13v-76q-49 -4 -78 -20.5t-39 -55.5h137v-190zM600 250q123 0 187.5 86.5t64.5 206.5q0 227 -89 276t-155 49q-118 0 -178.5 -84.5t-60.5 -216.5q0 -211 83.5 -264t147.5 -53zM848 195q-92 -164 -330 -164q-214 0 -327 148
t-113 375t121 380t336 153t313 -169h4v141h276v-991q0 -186 -114 -327.5t-434 -141.5q-176 0 -316 85t-151 255h288q36 -146 217 -146q123 0 179.5 73t54.5 189v140h-4z" />
    <glyph glyph-name="uni0124" unicode="&#x124;" horiz-adv-x="1517" 
d="M627 1886h266l225 -291h-235l-127 166l-131 -166h-226zM141 1462h322v-561h592v561h321v-1462h-321v631h-592v-631h-322v1462z" />
    <glyph glyph-name="uni0125" unicode="&#x125;" horiz-adv-x="1214" 
d="M453 1886h266l225 -291h-235l-127 166l-131 -166h-226zM408 911q104 176 326 176q201 0 285.5 -111t84.5 -325v-651h-291v598q0 131 -40.5 195.5t-152.5 64.5t-165.5 -70.5t-53.5 -232.5v-555h-290v1462h290v-551h7z" />
    <glyph glyph-name="uni0126" unicode="&#x126;" horiz-adv-x="1517" 
d="M1055 825v232h-592v-232h592zM141 1462h322v-223h592v223h321v-1462h-321v575h-592v-575h-322v1462z" />
    <glyph glyph-name="uni0127" unicode="&#x127;" horiz-adv-x="1234" 
d="M428 911q104 176 326 176q202 0 286 -110.5t84 -325.5v-651h-290v598q0 131 -41 195.5t-153 64.5t-165 -70.5t-53 -232.5v-555h-291v1163h-166v156h166v143h291v-143h323v-156h-323v-252h6z" />
    <glyph glyph-name="uni0128" unicode="&#x128;" horiz-adv-x="604" 
d="M141 1462h322v-1462h-322v1462zM322 1857q95 -44 135 -44q39 -1 59 19t31 69h131q-23 -124 -59 -173q-67 -92 -170 -92q-74 0 -164 50q-91 50 -138 51q-70 0 -92 -101h-129q22 174 145 241q42 24 99 24t152 -44z" />
    <glyph glyph-name="uni0129" unicode="&#x129;" horiz-adv-x="528" 
d="M119 1059h291v-1059h-291v1059zM109 1325q-70 0 -93 -100h-129q22 173 145 240q42 24 101 24t153 -44q93 -44 132 -44t59 20t31 68h131q-23 -122 -59 -172q-67 -92 -170 -92q-73 0 -165 50q-93 50 -136 50z" />
    <glyph glyph-name="uni012A" unicode="&#x12a;" horiz-adv-x="604" 
d="M-61 1810h723v-153h-723v153zM141 1462h322v-1462h-322v1462z" />
    <glyph glyph-name="uni012B" unicode="&#x12b;" horiz-adv-x="528" 
d="M-96 1421h723v-153h-723v153zM119 1059h291v-1059h-291v1059z" />
    <glyph glyph-name="uni012C" unicode="&#x12c;" horiz-adv-x="604" 
d="M295 1749q190 0 225 137h129q-38 -291 -364 -291q-147 0 -230.5 75t-95.5 216h133q16 -103 94 -120t109 -17zM141 1462h322v-1462h-322v1462z" />
    <glyph glyph-name="uni012D" unicode="&#x12d;" horiz-adv-x="528" 
d="M260 1360q191 0 225 137h129q-38 -291 -364 -291q-147 0 -230 75t-96 216h133q16 -103 94 -120t109 -17zM119 1059h291v-1059h-291v1059z" />
    <glyph glyph-name="uni012E" unicode="&#x12e;" horiz-adv-x="604" 
d="M363.5 -322q39.5 0 82.5 58l84 -53q-47 -66 -97 -96.5t-137 -30.5t-142.5 46t-55.5 121t54.5 141t171.5 136h-183v1462h322v-1462q-155 -129 -165.5 -178t-10.5 -78t18.5 -47.5t58 -18.5z" />
    <glyph glyph-name="uni012F" unicode="&#x12f;" horiz-adv-x="528" 
d="M252 -248q0 -74 57.5 -74t102.5 58l84 -53q-47 -66 -97.5 -96.5t-137.5 -30.5t-142.5 46t-55.5 121t54.5 141t165.5 136h-164v1059h291v-1059q-138 -132 -148 -179.5t-10 -68.5zM410 1223h-291v239h291v-239z" />
    <glyph glyph-name="uni0130" unicode="&#x130;" horiz-adv-x="604" 
d="M164 1853h276v-239h-276v239zM141 1462h322v-1462h-322v1462z" />
    <glyph glyph-name="dotlessi" unicode="&#x131;" horiz-adv-x="528" 
d="M119 1059h291v-1059h-291v1059z" />
    <glyph glyph-name="uni0132" unicode="&#x132;" horiz-adv-x="1730" 
d="M621 545h290v-66q0 -178 64.5 -210.5t124.5 -32.5q111 0 139.5 65t28.5 174v987h321v-1001q0 -383 -189.5 -439.5t-289.5 -56.5q-210 0 -349.5 114t-139.5 339v127zM141 1462h322v-1462h-322v1462z" />
    <glyph glyph-name="uni0133" unicode="&#x133;" horiz-adv-x="1073" 
d="M530 -133q42 0 76.5 17.5t34.5 76.5v1098h291v-1112q0 -168 -80 -244t-262 -76q-80 0 -125 8v240q23 -8 65 -8zM932 1223h-291v239h291v-239zM119 1059h291v-1059h-291v1059zM410 1223h-291v239h291v-239z" />
    <glyph glyph-name="uni0134" unicode="&#x134;" horiz-adv-x="1138" 
d="M694 1886h267l225 -291h-236l-127 166l-131 -166h-225zM29 545h290v-66q0 -178 65 -210.5t125 -32.5q110 0 138.5 65t28.5 174v987h321v-1001q0 -383 -189.5 -439.5t-289.5 -56.5q-210 0 -349.5 114.5t-139.5 338.5v127z" />
    <glyph glyph-name="uni0135" unicode="&#x135;" horiz-adv-x="569" 
d="M145 1497h267l225 -291h-236l-127 166l-131 -166h-225zM27 -133q43 0 76.5 17.5t33.5 76.5v1098h291v-1112q0 -168 -80 -244t-262 -76q-80 0 -125 8v240q23 -8 66 -8z" />
    <glyph glyph-name="uni0136" unicode="&#x136;" horiz-adv-x="1478" 
d="M610 -102h297v-150q0 -166 -109.5 -179t-166.5 -13v75q49 4 77.5 20.5t39.5 55.5h-138v191zM141 1462h322v-606l571 606h402l-572 -577l627 -885h-404l-440 657l-184 -186v-471h-322v1462z" />
    <glyph glyph-name="uni0137" unicode="&#x137;" horiz-adv-x="1175" 
d="M481 -102h297v-150q0 -166 -109.5 -179t-166.5 -13v75q49 4 77.5 20.5t38.5 55.5h-137v191zM137 1462h291v-784l367 381h344l-400 -389l445 -670h-353l-290 473l-113 -108v-365h-291v1462z" />
    <glyph glyph-name="uni0138" unicode="&#x138;" horiz-adv-x="1157" 
d="M111 1059h290v-418l367 418h344l-397 -414l444 -645h-352l-287 442l-119 -114v-328h-290v1059z" />
    <glyph glyph-name="uni0139" unicode="&#x139;" horiz-adv-x="1214" 
d="M397 1595h-202l196 291h322zM141 1462h322v-1192h713v-270h-1035v1462z" />
    <glyph glyph-name="uni013A" unicode="&#x13a;" horiz-adv-x="528" 
d="M326 1595h-203l196 291h322zM119 1462h291v-1462h-291v1462z" />
    <glyph glyph-name="uni013B" unicode="&#x13b;" horiz-adv-x="1214" 
d="M504 -102h297v-150q0 -166 -109.5 -179t-167.5 -13v75q49 4 78 20.5t39 55.5h-137v191zM141 1462h322v-1192h713v-270h-1035v1462z" />
    <glyph glyph-name="uni013C" unicode="&#x13c;" horiz-adv-x="528" 
d="M115 -102h297v-150q0 -166 -109.5 -179t-167.5 -13v75q49 4 78 20.5t39 55.5h-137v191zM119 1462h291v-1462h-291v1462z" />
    <glyph glyph-name="uni013D" unicode="&#x13d;" horiz-adv-x="1214" 
d="M823 1171h-200l63 291h303zM141 1462h322v-1192h713v-270h-1035v1462z" />
    <glyph glyph-name="uni013E" unicode="&#x13e;" horiz-adv-x="794" 
d="M786 823h-223v639h223v-639zM119 1462h291v-1462h-291v1462z" />
    <glyph glyph-name="uni013F" unicode="&#x13f;" horiz-adv-x="1214" 
d="M696 922h277v-240h-277v240zM141 1462h322v-1192h713v-270h-1035v1462z" />
    <glyph glyph-name="uni0140" unicode="&#x140;" horiz-adv-x="839" 
d="M535 922h276v-240h-276v240zM119 1462h291v-1462h-291v1462z" />
    <glyph glyph-name="Lslash" unicode="&#x141;" horiz-adv-x="1214" 
d="M141 1462h322v-569l432 303v-229l-432 -303v-394h713v-270h-1035v438l-161 -114v229l161 115v794z" />
    <glyph glyph-name="lslash" unicode="&#x142;" horiz-adv-x="528" 
d="M119 1462h291v-438l137 109v-209l-137 -109v-815h-291v586l-135 -109v209l135 109v667z" />
    <glyph glyph-name="Nacute" unicode="&#x143;" horiz-adv-x="1517" 
d="M141 1462h320l610 -981h4v981h301v-1462h-321l-609 979h-4v-979h-301v1462zM1149 1956l-334 -363h-203l217 363h320z" />
    <glyph glyph-name="nacute" unicode="&#x144;" horiz-adv-x="1214" 
d="M111 1059h276v-148h6q107 179 337 177q303 -1 356 -258q17 -81 18 -179v-651h-291v598q0 131 -41 196q-40 64 -152 64t-165 -71t-54 -232v-555h-290v1059zM999 1608l-333 -363h-203l217 363h319z" />
    <glyph glyph-name="uni0145" unicode="&#x145;" horiz-adv-x="1517" 
d="M614 -102h297v-150q0 -166 -109.5 -179t-166.5 -13v75q49 4 77.5 20.5t39.5 55.5h-138v191zM141 1462h320l610 -981h4v981h301v-1462h-321l-609 979h-4v-979h-301v1462z" />
    <glyph glyph-name="uni0146" unicode="&#x146;" horiz-adv-x="1214" 
d="M453 -102h297v-150q0 -166 -110 -179t-167 -13v75q49 4 78 20.5t39 55.5h-137v191zM393 911q105 176 337 176q206 0 290 -111t84 -325v-651h-291v598q0 131 -40.5 195.5t-152.5 64.5t-165.5 -70.5t-53.5 -232.5v-555h-290v1059h276v-148h6z" />
    <glyph glyph-name="uni0147" unicode="&#x147;" horiz-adv-x="1517" 
d="M883 1595h-267l-225 291h236l127 -166l131 166h225zM141 1462h320l610 -981h4v981h301v-1462h-321l-609 979h-4v-979h-301v1462z" />
    <glyph glyph-name="uni0148" unicode="&#x148;" horiz-adv-x="1214" 
d="M739 1206h-266l-225 291h235l127 -166l131 166h226zM393 911q105 176 337 176q206 0 290 -111t84 -325v-651h-291v598q0 131 -40.5 195.5t-152.5 64.5t-165.5 -70.5t-53.5 -232.5v-555h-290v1059h276v-148h6z" />
    <glyph glyph-name="uni0149" unicode="&#x149;" horiz-adv-x="1509" 
d="M41 1462h291v-313q4 -134 -79 -231t-212 -113v135q78 27 106.5 79t28.5 128h-135v315zM688 911q104 176 336 176q206 0 290.5 -111t84.5 -325v-651h-291v598q0 131 -41 195.5t-153 64.5t-165 -70.5t-53 -232.5v-555h-290v1059h276v-148h6z" />
    <glyph glyph-name="uni014A" unicode="&#x14a;" horiz-adv-x="1517" 
d="M141 1462h320l610 -964h4v964h301v-1464q0 -191 -93 -281t-314 -90q-68 0 -156 13v247q74 -12 127 -12t95 29.5t44 95.5l-633 979h-4v-979h-301v1462z" />
    <glyph glyph-name="uni014B" unicode="&#x14b;" horiz-adv-x="1214" 
d="M393 911q105 176 337 176q206 0 290 -111t84 -325v-663q0 -183 -63.5 -248.5t-139 -89t-157.5 -23.5t-152 8v240q47 -8 96 -8t87 30.5t38 100.5v600q0 131 -40.5 195.5t-152.5 64.5t-165.5 -70.5t-53.5 -232.5v-555h-290v1059h276v-148h6z" />
    <glyph glyph-name="uni014C" unicode="&#x14c;" horiz-adv-x="1593" 
d="M436 1810h723v-153h-723v153zM496 379q97 -143 301 -143t300.5 143.5t96.5 350.5q0 206 -96.5 351.5t-300.5 145.5t-301 -145t-97 -352q0 -208 97 -351zM271 1277.5q193 219.5 525 219.5t526 -220t194 -549t-141.5 -486.5t-275.5 -217t-303 -59.5t-302.5 59.5
t-274.5 216.5t-141 487t193 549.5z" />
    <glyph glyph-name="uni014D" unicode="&#x14d;" horiz-adv-x="1251" 
d="M266 1421h723v-153h-723v153zM369 528.5q0 -63.5 12 -124t42 -108.5t79 -77t122.5 -29t124 29t80 77t42 108.5t12.5 124t-12.5 125t-42 108.5t-80 76.5t-124 29.5t-122.5 -29.5t-79 -76.5t-42 -108.5t-12 -125zM78 528q0 127 39 230.5t110.5 176.5t172 112.5t225.5 39.5
t226 -39.5t173 -112.5t111 -176.5t39 -230.5t-39 -229t-111 -175t-173 -113t-226 -40t-225.5 40t-172 113t-110.5 175t-39 229z" />
    <glyph glyph-name="uni014E" unicode="&#x14e;" horiz-adv-x="1593" 
d="M793 1749q188 0 225 137h129q-38 -291 -365 -291q-147 0 -230 75t-95 216h133q11 -70 71 -103.5t132 -33.5zM496 379q97 -143 301 -143t300.5 143.5t96.5 350.5q0 206 -96.5 351.5t-300.5 145.5t-301 -145t-97 -352q0 -208 97 -351zM271 1277.5q193 219.5 525 219.5
t526 -220t194 -549t-141.5 -486.5t-275.5 -217t-303 -59.5t-302.5 59.5t-274.5 216.5t-141 487t193 549.5z" />
    <glyph glyph-name="uni014F" unicode="&#x14f;" horiz-adv-x="1251" 
d="M623 1360q189 0 225 137h129q-38 -291 -365 -291q-147 0 -230 75t-95 216h133q11 -70 71 -103.5t132 -33.5zM369 528.5q0 -63.5 12 -124t42 -108.5t79 -77t122.5 -29t124 29t80 77t42 108.5t12.5 124t-12.5 125t-42 108.5t-80 76.5t-124 29.5t-122.5 -29.5t-79 -76.5
t-42 -108.5t-12 -125zM78 528q0 127 39 230.5t110.5 176.5t172 112.5t225.5 39.5t226 -39.5t173 -112.5t111 -176.5t39 -230.5t-39 -229t-111 -175t-173 -113t-226 -40t-225.5 40t-172 113t-110.5 175t-39 229z" />
    <glyph glyph-name="uni0150" unicode="&#x150;" horiz-adv-x="1593" 
d="M662 1595h-203l186 291h322zM1085 1595h-202l186 291h322zM496 379q97 -143 301 -143t300.5 143.5t96.5 350.5q0 206 -96.5 351.5t-300.5 145.5t-301 -145t-97 -352q0 -208 97 -351zM271 1277.5q193 219.5 525 219.5t526 -220t194 -549t-141.5 -486.5t-275.5 -217
t-303 -59.5t-302.5 59.5t-274.5 216.5t-141 487t193 549.5z" />
    <glyph glyph-name="uni0151" unicode="&#x151;" horiz-adv-x="1251" 
d="M492 1206h-203l186 291h322zM915 1206h-202l186 291h322zM369 528.5q0 -63.5 12 -124t42 -108.5t79 -77t122.5 -29t124 29t80 77t42 108.5t12.5 124t-12.5 125t-42 108.5t-80 76.5t-124 29.5t-122.5 -29.5t-79 -76.5t-42 -108.5t-12 -125zM78 528q0 127 39 230.5
t110.5 176.5t172 112.5t225.5 39.5t226 -39.5t173 -112.5t111 -176.5t39 -230.5t-39 -229t-111 -175t-173 -113t-226 -40t-225.5 40t-172 113t-110.5 175t-39 229z" />
    <glyph glyph-name="OE" unicode="&#x152;" horiz-adv-x="2238" 
d="M764 1497q237 0 346 -139h4v104h1024v-270h-725v-313h664v-250h-664v-359h739v-270h-1038v111h-4q-66 -72 -160 -108t-192 -36q-162 0 -289 61.5t-214 165t-132 240.5t-45 288.5t46 292t134 248t216 171t290 63.5zM1102 918q0 136 -88.5 222.5t-211.5 86.5
q-213 0 -308 -146.5t-95 -353.5q0 -327 139.5 -409t241.5 -82q147 0 234.5 92t87.5 241v349z" />
    <glyph glyph-name="oe" unicode="&#x153;" horiz-adv-x="1896" 
d="M1314 868q-114 0 -171.5 -65.5t-61.5 -159.5h465q-4 104 -61 164.5t-171 60.5zM598 190q127 0 178 99.5t51 241.5t-32.5 207t-76.5 97.5t-115 32.5q-126 0 -180 -100t-54 -244q0 -216 79.5 -275t149.5 -59zM1333 190q156 0 213 146h283q-51 -174 -183.5 -268.5
t-312.5 -94.5q-111 0 -216 40t-167 139q-106 -179 -375 -179q-236 0 -366.5 161t-130.5 400t144 396t376 157q104 0 204.5 -37.5t160.5 -129.5q50 76 151.5 121.5t222.5 45.5t310.5 -98t189.5 -530h-756q0 -115 62.5 -192t189.5 -77z" />
    <glyph glyph-name="uni0154" unicode="&#x154;" horiz-adv-x="1478" 
d="M774 1595h-203l197 291h322zM463 801h352q111 0 166 49.5t55 157.5t-55 156t-166 48h-352v-411zM1358 1059q0 -275 -232 -367v-4q192 -52 213 -342q2 -35 4.5 -82t11 -130t46.5 -134h-322q-31 76 -42.5 264t-71.5 247.5t-181 59.5h-321v-571h-322v1462h789
q192 0 310 -116.5t118 -286.5z" />
    <glyph glyph-name="uni0155" unicode="&#x155;" horiz-adv-x="796" 
d="M524 1206h-202l196 291h322zM676 817q-138 0 -206.5 -92t-68.5 -248v-477h-290v1059h276v-197h4q41 100 134.5 162.5t203.5 62.5q29 0 64 -10v-270q-49 10 -117 10z" />
    <glyph glyph-name="uni0156" unicode="&#x156;" horiz-adv-x="1478" 
d="M604 -102h297v-150q0 -166 -109.5 -179t-166.5 -13v75q49 4 77.5 20.5t38.5 55.5h-137v191zM463 801h352q111 0 166 49.5t55 157.5t-55 156t-166 48h-352v-411zM1358 1059q0 -275 -232 -367v-4q192 -52 213 -342q2 -35 4.5 -82t11 -130t46.5 -134h-322q-31 76 -42.5 264
t-71.5 247.5t-181 59.5h-321v-571h-322v1462h789q192 0 310 -116.5t118 -286.5z" />
    <glyph glyph-name="uni0157" unicode="&#x157;" horiz-adv-x="796" 
d="M109 -102h297v-150q0 -166 -110 -179t-167 -13v75q49 4 78 20.5t39 55.5h-137v191zM676 817q-138 0 -206.5 -92t-68.5 -248v-477h-290v1059h276v-197h4q41 100 134.5 162.5t203.5 62.5q29 0 64 -10v-270q-49 10 -117 10z" />
    <glyph glyph-name="uni0158" unicode="&#x158;" horiz-adv-x="1478" 
d="M825 1595h-266l-225 291h235l127 -166l131 166h226zM463 801h352q111 0 166 49.5t55 157.5t-55 156t-166 48h-352v-411zM1358 1059q0 -275 -232 -367v-4q192 -52 213 -342q2 -35 4.5 -82t11 -130t46.5 -134h-322q-31 76 -42.5 264t-71.5 247.5t-181 59.5h-321v-571h-322
v1462h789q192 0 310 -116.5t118 -286.5z" />
    <glyph glyph-name="uni0159" unicode="&#x159;" horiz-adv-x="796" 
d="M584 1206h-267l-225 291h236l127 -166l131 166h225zM676 817q-138 0 -206.5 -92t-68.5 -248v-477h-290v1059h276v-197h4q41 100 134.5 162.5t203.5 62.5q29 0 64 -10v-270q-49 10 -117 10z" />
    <glyph glyph-name="Sacute" unicode="&#x15a;" horiz-adv-x="1329" 
d="M920 1026q-13 221 -279 221q-154 0 -211 -88q-20 -31 -20 -76t16 -71q31 -51 198 -94q85 -22 174 -44q90 -22 162 -44t144 -68q176 -114 176 -325t-159 -341q-159 -129 -438 -129q-278 0 -446 123q-192 139 -188 395h311q0 -138 92 -204t232 -66q183 0 256 91
q29 36 29 93q0 103 -138 156q-61 25 -139 43q-201 46 -317 91q-277 107 -277 373q0 203 164 319t397 116q234 0 394 -108q178 -124 178 -363h-311zM1034 1956l-334 -363h-202l217 363h319z" />
    <glyph glyph-name="sacute" unicode="&#x15b;" horiz-adv-x="1099" 
d="M537 893q-162 0 -162 -98q0 -70 103 -104q46 -15 155 -37q215 -43 312 -113q97 -69 95 -201q0 -192 -151 -289q-120 -76 -332 -78q-332 0 -449 194q-44 71 -49 177h277q0 -90 70 -136q59 -42 144 -42t124 22q74 43 75 111q1 69 -86 101t-197 56t-170 42q-212 68 -212 253
q0 184 145 268q118 68 316 68q301 0 417 -175q42 -65 50 -162h-277q-6 84 -63 114t-135 29zM922 1608l-334 -363h-203l217 363h320z" />
    <glyph glyph-name="uni015C" unicode="&#x15c;" horiz-adv-x="1329" 
d="M541 1886h266l225 -291h-235l-127 166l-131 -166h-226zM920 1026q-13 221 -280 221q-101 0 -165.5 -42t-64.5 -124q0 -43 16 -69.5t68.5 -50.5t222.5 -68q170 -43 242.5 -63.5t196.5 -101.5t124 -292t-159.5 -341t-435.5 -130t-458 132.5t-178 387.5h311
q0 -137 92.5 -203.5t231.5 -66.5q183 0 234 63.5t51 120.5t-38 94t-99.5 62t-139.5 43t-158 40q-205 55 -320.5 144.5t-115.5 285.5t163 312.5t400 116.5t403.5 -116.5t166.5 -354.5h-311z" />
    <glyph glyph-name="uni015D" unicode="&#x15d;" horiz-adv-x="1099" 
d="M424 1497h266l225 -291h-235l-127 166l-131 -166h-225zM537 893q-162 0 -162 -98q0 -69 74.5 -94t134.5 -37.5t122 -26.5q156 -35 245 -99.5t89 -183.5q0 -207 -138.5 -295t-344.5 -88q-328 0 -411 134.5t-87 238.5h277q0 -88 64 -133t172 -45t143 48t35 87
q0 66 -87.5 98.5t-196.5 56.5t-245.5 67.5t-136.5 227.5t131.5 260t382 76t328.5 -119.5t86 -217.5h-277q-6 84 -63.5 113.5t-134.5 29.5z" />
    <glyph glyph-name="uni015E" unicode="&#x15e;" horiz-adv-x="1329" 
d="M920 1026q-13 221 -280 221q-101 0 -165.5 -42t-64.5 -124q0 -43 16 -69.5t68.5 -50.5t222.5 -68q170 -43 242.5 -63.5t196.5 -101.5t124 -290t-155.5 -339t-442.5 -134l-53 -71l4 -5q34 15 98 15t112 -41t48 -124t-66.5 -133t-164.5 -50t-150.5 11t-112.5 34l43 98
q87 -37 171 -37q83 0 83 70q0 33 -25 50t-61 17t-78 -16l-43 49l99 137q-233 21 -387 151t-150 365h311q0 -137 92.5 -203.5t231.5 -66.5q183 0 234 63.5t51 120.5t-38 94t-99.5 62t-139.5 43t-158 40q-205 55 -320.5 144.5t-115.5 285.5t163 312.5t400 116.5t403.5 -116.5
t166.5 -354.5h-311z" />
    <glyph glyph-name="uni015F" unicode="&#x15f;" horiz-adv-x="1099" 
d="M496 -338q83 0 84 70q0 33 -25 50t-62 17t-77 -16l-43 49l102 143q-276 21 -345 148t-71 221h277q0 -88 64 -133t172 -45t143 48t35 87q0 66 -87.5 98.5t-196.5 56.5t-245.5 67.5t-136.5 227.5t131.5 260t382 76t328.5 -119.5t86 -217.5h-277q-6 84 -63.5 113.5
t-134.5 29.5q-162 0 -162 -98q0 -69 74.5 -94t134.5 -37.5t122 -26.5q156 -35 245 -99.5t89 -197.5q0 -191 -135 -277.5t-334 -91.5l-57 -77l4 -5q34 15 98 15t112 -41t48 -124t-66 -133t-164 -50t-151 11t-112 34l43 98q87 -37 170 -37z" />
    <glyph glyph-name="Scaron" unicode="&#x160;" horiz-adv-x="1329" 
d="M920 1026q-13 221 -279 221q-102 0 -166.5 -42t-64.5 -124q0 -43 16 -69.5t68.5 -50.5t222.5 -67q170 -42 242.5 -63.5t196.5 -102.5t124 -292t-158.5 -340t-436.5 -129q-279 0 -459.5 131.5t-176.5 386.5h311q0 -137 92.5 -203.5t231.5 -66.5q183 0 234 63.5t51 120.5
t-38 94t-99.5 62t-139.5 43t-158 40q-200 53 -318 143t-118 286t163 313t400 117t403.5 -116.5t166.5 -354.5h-311zM799 1593h-267l-227 291h230l131 -166l133 166h225z" />
    <glyph glyph-name="scaron" unicode="&#x161;" horiz-adv-x="1099" 
d="M537 893q-162 0 -162 -98q0 -69 74.5 -94t134.5 -37.5t122 -26.5q156 -35 245 -99.5t89 -183.5q0 -207 -137 -294t-346 -87q-328 0 -411 132.5t-87 238.5h277q0 -88 64 -133t172 -45t143 48t35 87q0 66 -87.5 98.5t-196.5 56.5t-169.5 43t-136.5 70t-76 166t40 180.5
t105.5 103.5t147.5 53t223 15t269 -79t143 -258h-277q-6 84 -63.5 113.5t-134.5 29.5zM684 1190h-266l-228 291h230l131 -166l133 166h225z" />
    <glyph glyph-name="uni0162" unicode="&#x162;" horiz-adv-x="1251" 
d="M477 -102h297v-150q0 -166 -109.5 -179t-166.5 -13v75q49 4 77.5 20.5t38.5 55.5h-137v191zM465 1192h-438v270h1198v-270h-439v-1192h-321v1192z" />
    <glyph glyph-name="uni0163" unicode="&#x163;" horiz-adv-x="720" 
d="M427 -338q83 0 83 70q0 39 -23.5 52t-63.5 13t-77 -14l-43 49l114 162q-146 13 -187.5 89.5t-41.5 156.5v624h-176v195h176v317h291v-317h213v-195h-213v-524q0 -74 24.5 -98.5t86.5 -24.5t102 8v-227q-62 -10 -118 -10h-62l-68 -94h5q25 10 65 10q81 0 137 -36t56 -102
q0 -117 -67.5 -163.5t-178.5 -46.5t-165 17t-83 28l43 98q88 -37 171 -37z" />
    <glyph glyph-name="uni0164" unicode="&#x164;" horiz-adv-x="1251" 
d="M758 1595h-266l-226 291h236l127 -166l131 166h225zM465 1192h-438v270h1198v-270h-439v-1192h-321v1192z" />
    <glyph glyph-name="uni0165" unicode="&#x165;" horiz-adv-x="720" 
d="M188 240v624h-176v195h176v317h291v-317h213v-195h-213v-524q0 -74 24.5 -98.5t86.5 -24.5t102 8v-227q-62 -10 -150 -10q-178 0 -266 52.5t-88 199.5zM788 1171h-200l63 291h303z" />
    <glyph glyph-name="uni0166" unicode="&#x166;" horiz-adv-x="1251" 
d="M164 946h301v246h-438v270h1198v-270h-439v-246h301v-196h-301v-750h-321v750h-301v196z" />
    <glyph glyph-name="uni0167" unicode="&#x167;" horiz-adv-x="720" 
d="M188 240v303h-159v155h159v166h-176v195h176v317h291v-317h213v-195h-213v-166h189v-155h-189v-203q0 -74 24.5 -98.5t86.5 -24.5t102 8v-227q-62 -10 -150 -10q-178 0 -266 52.5t-88 199.5z" />
    <glyph glyph-name="uni0168" unicode="&#x168;" horiz-adv-x="1517" 
d="M1382 553q0 -297 -166 -441t-460 -144q-295 0 -458 142q-163 144 -163 443v909h322v-909q0 -147 53 -218q76 -101 248 -100t238 77t65 241v909h321v-909zM778 1857q95 -44 135 -44q39 -1 59 19t32 69h131q-23 -124 -59 -173q-67 -92 -171 -92q-71 0 -163 50t-138 51
q-70 0 -92 -101h-129q22 173 144 241q42 24 99 24t152 -44z" />
    <glyph glyph-name="uni0169" unicode="&#x169;" horiz-adv-x="1214" 
d="M821 147q-103 -174 -335 -174q-207 0 -298 118q-77 100 -77 317v651h290v-598q0 -131 41 -196t153 -65t165 72q53 70 53 232v555h291v-1059h-277v147h-6zM453 1325q-70 0 -93 -100h-129q22 173 145 240q42 24 101 24t153 -44q93 -44 132 -44t59 20t31 68h131
q-23 -122 -59 -172q-67 -92 -170 -92q-73 0 -165 50q-93 50 -136 50z" />
    <glyph glyph-name="uni016A" unicode="&#x16a;" horiz-adv-x="1517" 
d="M397 1810h723v-153h-723v153zM1382 553q0 -297 -165.5 -442.5t-460.5 -145.5t-458 144.5t-163 443.5v909h322v-909q0 -147 62.5 -232t236.5 -85t239.5 76.5t65.5 240.5v909h321v-909z" />
    <glyph glyph-name="uni016B" unicode="&#x16b;" horiz-adv-x="1214" 
d="M252 1421h723v-153h-723v153zM821 147q-105 -176 -335 -176q-205 0 -290 110t-85 327v651h290v-598q0 -131 41 -195.5t153 -64.5t165 70.5t53 232.5v555h291v-1059h-277v147h-6z" />
    <glyph glyph-name="uni016C" unicode="&#x16c;" horiz-adv-x="1517" 
d="M754 1749q190 0 225 137h129q-38 -291 -365 -291q-147 0 -230 75t-95 216h133q11 -70 71 -103.5t132 -33.5zM1382 553q0 -297 -165.5 -442.5t-460.5 -145.5t-458 144.5t-163 443.5v909h322v-909q0 -147 62.5 -232t236.5 -85t239.5 76.5t65.5 240.5v909h321v-909z" />
    <glyph glyph-name="uni016D" unicode="&#x16d;" horiz-adv-x="1214" 
d="M606 1360q191 0 225 137h130q-38 -291 -365 -291q-147 0 -230 75t-96 216h133q11 -69 71.5 -103t131.5 -34zM821 147q-105 -176 -335 -176q-205 0 -290 110t-85 327v651h290v-598q0 -131 41 -195.5t153 -64.5t165 70.5t53 232.5v555h291v-1059h-277v147h-6z" />
    <glyph glyph-name="uni016E.low" unicode="&#x16e;" horiz-adv-x="1517" 
d="M633 1719q0 -56 33.5 -93t91 -37t91.5 36t34 92t-34 93t-91.5 37t-91 -36t-33.5 -92zM926 1550.5q-71 -65.5 -170 -65.5t-168.5 67t-69.5 166.5t71 166.5t171 67q99 0 168 -67t69 -168t-71 -166.5zM1382 553q0 -297 -165.5 -442.5t-460.5 -145.5t-458 144.5t-163 443.5
v909h322v-909q0 -147 62.5 -232t236.5 -85t239.5 76.5t65.5 240.5v909h321v-909z" />
    <glyph glyph-name="uni016F" unicode="&#x16f;" horiz-adv-x="1214" 
d="M741 1400.5q0 59.5 -34.5 98.5t-94 39t-95.5 -39t-36 -98.5t35 -98t94.5 -38.5t95 38.5t35.5 98zM432.5 1576.5q72.5 70.5 180.5 70.5t178.5 -69.5t70.5 -176t-72 -176.5t-179 -70t-179 68.5t-72 175.5t72.5 177.5zM821 147q-105 -176 -335 -176q-205 0 -290 110t-85 327
v651h290v-598q0 -131 41 -195.5t153 -64.5t165 70.5t53 232.5v555h291v-1059h-277v147h-6z" />
    <glyph glyph-name="uni0170" unicode="&#x170;" horiz-adv-x="1517" 
d="M623 1595h-203l186 291h322zM1047 1595h-203l186 291h322zM1382 553q0 -297 -165.5 -442.5t-460.5 -145.5t-458 144.5t-163 443.5v909h322v-909q0 -147 62.5 -232t236.5 -85t239.5 76.5t65.5 240.5v909h321v-909z" />
    <glyph glyph-name="uni0171" unicode="&#x171;" horiz-adv-x="1214" 
d="M475 1206h-203l187 291h321zM899 1206h-203l187 291h321zM821 147q-105 -176 -335 -176q-205 0 -290 110t-85 327v651h290v-598q0 -131 41 -195.5t153 -64.5t165 70.5t53 232.5v555h291v-1059h-277v147h-6z" />
    <glyph glyph-name="uni0172" unicode="&#x172;" horiz-adv-x="1517" 
d="M793 -322q57 0 112 66l92 -53q-49 -76 -110.5 -105.5t-153.5 -29.5t-152.5 46t-60.5 124q0 123 168 241q-264 16 -408.5 159.5t-144.5 426.5v909h322v-909q0 -147 62.5 -232t236.5 -85t239.5 76.5t65.5 240.5v909h321v-909q0 -276 -144 -421.5t-402 -164.5
q-102 -107 -110.5 -148.5t-8.5 -70.5t22.5 -49.5t53.5 -20.5z" />
    <glyph glyph-name="uni0173" unicode="&#x173;" horiz-adv-x="1214" 
d="M821 147q-105 -176 -335 -176q-205 0 -290 110t-85 327v651h290v-598q0 -131 41 -195.5t153 -64.5t165 70.5t53 232.5v555h291v-1059h-133q-84 -84 -109.5 -136t-25.5 -99q0 -46 22.5 -66.5t54.5 -20.5q56 0 113 66l92 -53q-49 -76 -110.5 -105.5t-153.5 -29.5t-152.5 47
t-60.5 123t47 139t139 135v147h-6z" />
    <glyph glyph-name="uni0174" unicode="&#x174;" horiz-adv-x="1933" 
d="M840 1886h266l225 -291h-235l-127 166l-131 -166h-226zM1534 0h-320l-247 995h-4l-244 -995h-326l-387 1462h322l231 -995h4l254 995h301l250 -1007h4l240 1007h315z" />
    <glyph glyph-name="uni0175" unicode="&#x175;" horiz-adv-x="1667" 
d="M707 1497h266l225 -291h-235l-127 166l-131 -166h-226zM1321 0h-299l-188 711h-5l-180 -711h-301l-336 1059h307l195 -719h4l176 719h283l180 -717h4l195 717h299z" />
    <glyph glyph-name="uni0176" unicode="&#x176;" horiz-adv-x="1366" 
d="M559 1886h266l226 -291h-236l-127 166l-131 -166h-225zM842 0h-322v569l-538 893h362l342 -577l340 577h358l-542 -901v-561z" />
    <glyph glyph-name="uni0177" unicode="&#x177;" horiz-adv-x="1062" 
d="M414 1497h266l225 -291h-235l-127 166l-131 -166h-226zM240 -133q63 0 98 37t35 84t-13 78l-372 993h311l240 -725h4l231 725h301l-442 -1192q-47 -129 -131 -184.5t-234 -55.5q-79 0 -178 11v239q87 -10 150 -10z" />
    <glyph glyph-name="Ydieresis" unicode="&#x178;" horiz-adv-x="1366" 
d="M842 0h-322v569l-536 893h360l342 -577l340 577h358l-542 -901v-561zM756 1866h276v-240h-276v240zM334 1866h276v-240h-276v240z" />
    <glyph glyph-name="Zacute" unicode="&#x179;" horiz-adv-x="1327" 
d="M109 1192v270h1151v-254l-785 -938h805v-270h-1233v254l784 938h-722zM1034 1956l-334 -363h-202l217 363h319z" />
    <glyph glyph-name="zacute" unicode="&#x17a;" horiz-adv-x="1062" 
d="M86 840v219h893v-219l-551 -621h590v-219h-973v219l551 621h-510zM901 1608l-334 -363h-202l217 363h319z" />
    <glyph glyph-name="Zdotaccent" unicode="&#x17b;" horiz-adv-x="1327" 
d="M109 1192v270h1151v-254l-785 -938h805v-270h-1233v254l784 938h-722zM803 1890v-239h-277v239h277z" />
    <glyph glyph-name="zdotaccent" unicode="&#x17c;" horiz-adv-x="1062" 
d="M86 840v219h893v-219l-551 -621h590v-219h-973v219l551 621h-510zM670 1513v-239h-277v239h277z" />
    <glyph glyph-name="Zcaron" unicode="&#x17d;" horiz-adv-x="1327" 
d="M109 1192v270h1151v-254l-785 -938h805v-270h-1233v254l784 938h-722zM799 1593h-267l-227 291h230l131 -166l133 166h225z" />
    <glyph glyph-name="zcaron" unicode="&#x17e;" horiz-adv-x="1062" 
d="M86 840v219h893v-219l-551 -621h590v-219h-973v219l551 621h-510zM666 1190h-267l-227 291h229l131 -166l134 166h225z" />
    <glyph glyph-name="uni017F" unicode="&#x17f;" horiz-adv-x="681" 
d="M535 1489q53 0 108 -6v-232q-23 2 -79 4t-77.5 -24.5t-21.5 -58.5v-1172h-285v879h-160v200h156v72q0 174 60 240q63 98 299 98z" />
    <glyph glyph-name="uni0180" unicode="&#x180;" horiz-adv-x="1251" 
d="M471 528q0 -143 63.5 -232t184.5 -89t180 89.5t59 235.5t-58 240t-183 94q-82 0 -146 -51q-100 -86 -100 -287zM780 1116q215 0 343 -159t128 -421t-130 -416.5t-320 -154.5q-117 0 -195 44t-139 143v-152h-277v1204h-127v154h127v115h289v-115h295v-154h-295v-252
q47 76 125 120t176 44z" />
    <glyph glyph-name="uni0182" unicode="&#x182;" horiz-adv-x="1366" 
d="M985 522q0 168 -229 168h-287v-434h287q109 0 169 49t60 217zM782 944q244 0 376 -108.5t132 -358.5t-132 -363.5t-353 -113.5h-641v1470l-8 9h1081v-262h-768v-273h313z" />
    <glyph glyph-name="uni0183" unicode="&#x183;" horiz-adv-x="1251" 
d="M881 528q0 336 -242 336t-242 -334q0 -141 62.5 -232t181.5 -91t179.5 88t60.5 233zM1016 1479v-262h-600l-8 8v-277q54 76 124 121t191 45q215 0 336 -154.5t121 -404.5t-120 -417t-335 -167q-135 0 -217 54q-49 33 -107 112v-137h-278v1470l-8 9h901z" />
    <glyph glyph-name="uni0186" unicode="&#x186;" horiz-adv-x="1478" 
d="M737 -43q-373 0 -544 246q-94 137 -103 274h309q29 -106 76 -160q84 -96 251 -96t264 135.5t97 383t-102 371.5t-263 124t-245 -107q-47 -57 -78 -170h-305q39 240 204 391.5t423 151.5q317 0 499.5 -204.5t182.5 -576.5t-209 -581q-178 -182 -457 -182z" />
    <glyph glyph-name="uni0189" unicode="&#x189;" horiz-adv-x="1478" 
d="M770 0h-614v657h-138v256h138v560h616q336 -1 490 -213q141 -194 141 -474t-98 -475q-160 -311 -535 -311zM668 256q125 0 180 16q88 25 144 106t77 186.5t21 187.5q0 303 -150 407q-84 59 -258 60h-227v-306h311v-256h-311v-401h213z" />
    <glyph glyph-name="uni018B" unicode="&#x18b;" horiz-adv-x="1366" 
d="M690 690q-229 0 -229 -168t60 -217t169 -49h287v434h-287zM664 944h313v273h-766v262h1079l-8 -9v-1470h-641q-221 0 -353 113.5t-132 363.5t132 358.5t376 108.5z" />
    <glyph glyph-name="uni018C" unicode="&#x18c;" horiz-adv-x="1251" 
d="M653 864q-239 0 -239 -350q0 -131 61 -219t179 -88t180.5 91t62.5 232q0 334 -244 334zM1171 0h-278v137q-57 -80 -107 -112q-82 -53 -217 -54q-215 0 -334.5 167t-119.5 417t121.5 404.5t336.5 154.5q119 0 190 -45t126 -121v277l-10 -8h-600v262h901l-9 -9v-1470z" />
    <glyph glyph-name="uni018D" unicode="&#x18d;" horiz-adv-x="1181" 
d="M576 600q106 0 170.5 100.5t64.5 233.5t-61.5 225t-174.5 92t-171 -93t-58 -226t62 -232.5t168 -99.5zM1024 -31h-862v230h450q-23 4 -162 116.5t-258.5 281.5t-119.5 351q0 229 139 372.5t371 143.5t373 -148.5t141 -391.5q0 -199 -115.5 -343.5t-310.5 -185.5l354 -221
v-205z" />
    <glyph glyph-name="uni018E" unicode="&#x18e;" horiz-adv-x="1366" 
d="M201 1475h1079v-1475h-1116v264h817v379h-717v256h717v313h-780v263z" />
    <glyph glyph-name="uni018F" unicode="&#x18f;" horiz-adv-x="1531" 
d="M768 233q135 0 227 84t127 252h-708q32 -234 153 -285t201 -51zM78 725q0 66 4 94h1051q-23 193 -128 302.5t-245 109.5t-231 -58.5t-119 -168.5h-306q28 211 203.5 352t429.5 141q328 0 522.5 -218t194.5 -553t-189.5 -547t-511.5 -212q-321 0 -498 211t-177 547z" />
    <glyph glyph-name="uni0190" unicode="&#x190;" horiz-adv-x="1163" 
d="M53 473q0 115 62 213q66 113 172 131q-88 43 -138.5 126t-50.5 181q0 199 128 295t335 97q291 0 414 -191q35 -55 43 -125q2 -49 4 -96h-246q0 80 -49 137q-59 72 -163 72t-157 -56.5t-53 -150.5t66 -150t129 -57h139v-215h-156q-66 0 -138 -58t-70 -169q0 -111 64 -193
t183 -82q252 0 252 269h258q0 -221 -133 -361q-134 -140 -370 -139q-236 0 -377 135q-148 137 -148 387z" />
    <glyph glyph-name="uni0191" unicode="&#x191;" horiz-adv-x="1251" 
d="M72 -213q41 0 62.5 21.5t21.5 78.5v1586h1044v-261h-737v-338h647v-256h-647v-618h-4v-117q0 -166 -65.5 -244.5t-272.5 -78.5q-25 0 -103 4v227q50 -4 54 -4z" />
    <glyph glyph-name="florin" unicode="&#x192;" horiz-adv-x="1138" 
d="M913 1278q-65 0 -97 -30.5t-44 -96.5l-51 -266h201l-33 -195h-205l-115 -635q-38 -218 -125.5 -309.5t-302.5 -91.5q-87 0 -149 6l37 219q41 -6 82 -6q78 -2 106.5 36t40.5 107l129 674h-188l37 195h186l49 260q36 194 128.5 273t293.5 79q88 0 154 -14l-37 -219
q-32 14 -97 14z" />
    <glyph glyph-name="uni0196" unicode="&#x196;" horiz-adv-x="569" 
d="M88 274v1203h287v-1198q0 -59 21.5 -80t62.5 -21q3 0 53 4v-227q-78 -4 -102 -4q-190 0 -256 79t-66 244z" />
    <glyph glyph-name="uni0197" unicode="&#x197;" horiz-adv-x="798" 
d="M43 1004h207v471h285v-471h219v-152h-219v-852h-285v852h-207v152z" />
    <glyph glyph-name="uni019A" unicode="&#x19a;" horiz-adv-x="798" 
d="M43 1004h207v471h285v-471h219v-152h-219v-852h-285v852h-207v152z" />
    <glyph glyph-name="uni019B" unicode="&#x19b;" horiz-adv-x="1124" 
d="M90 1143l252 61l-88 242h303l64 -172l280 69v-151l-229 -57l418 -1135h-316l-205 659h-4l-198 -659h-318l367 1004l-23 61l-303 -74v152z" />
    <glyph glyph-name="uni019D" unicode="&#x19d;" horiz-adv-x="1478" 
d="M66 -213q41 0 62.5 21.5t21.5 78.5v1198h2v390h321l588 -1031v1031h287v-1475h-308l-602 1047v-1047h-4v-117q0 -166 -64.5 -244.5t-254.5 -78.5q-25 0 -103 4v227q50 -4 54 -4z" />
    <glyph glyph-name="uni019E" unicode="&#x19e;" horiz-adv-x="1251" 
d="M1120 733v-1165h-291v1096q0 86 -22 131q-43 84 -174 84t-187 -123q-27 -66 -26 -166v-590h-285v1087h275v-157q55 84 104 121q88 65 240 65t259 -89t107 -294z" />
    <glyph glyph-name="uni019F" unicode="&#x19f;" horiz-adv-x="1593" 
d="M808 1257q-184 0 -292 -135q-84 -102 -102 -270h786q-20 168 -102 270q-106 135 -290 135zM808 219q183 0 290 135q84 106 102 281h-788q18 -175 104 -281q109 -135 292 -135zM808 -41q-316 0 -482 172q-226 211 -226 613t226 604q166 172 482 172t482 -172
q223 -202 223 -604t-223 -613q-166 -172 -482 -172z" />
    <glyph glyph-name="uni01A0" unicode="&#x1a0;" horiz-adv-x="1937" 
d="M461 727q0 -94 21.5 -181t70.5 -157t127 -111.5t237.5 -41.5t259 142t99.5 347q0 342 -148.5 422t-259 80t-188.5 -42t-127 -113t-70.5 -161t-21.5 -184zM335.5 1276.5q196.5 220.5 532.5 220.5q197 0 344.5 -77t239.5 -210q82 0 156 41l-86 150l258 149l153 -268
l-223 -129q-91 -54 -186 -66q74 -164 74 -343t-50.5 -317t-143.5 -240.5t-228.5 -161t-307.5 -58.5t-307 58.5t-278.5 216.5t-143.5 486t196.5 548.5z" />
    <glyph glyph-name="uni01A1" unicode="&#x1a1;" horiz-adv-x="1628" 
d="M410 528.5q0 -63.5 12 -124t43 -108.5t82 -77t127 -29t127 29t81.5 77t44 108.5t13.5 124t-13.5 125t-44 108.5t-81.5 76.5t-127 29.5t-127 -29.5t-82 -76.5t-43 -108.5t-12 -125zM1231 527q0 -126 -40 -228t-112.5 -175t-175 -112t-229.5 -39t-229.5 39t-174 112
t-111.5 175t-40 291.5t150 343t420 153.5t423 -190q20 -4 65 -4t121 39l-88 149l258 150l154 -268l-221 -129q-107 -64 -213 -68q43 -113 43 -239z" />
    <glyph glyph-name="uni01A2" unicode="&#x1a2;" horiz-adv-x="1888" 
d="M774 236q86 0 146 16v958q-60 16 -146 16t-161.5 -41.5t-144.5 -144.5t-69 -310t69 -309t144.5 -143.5t161.5 -41.5zM797 -33q-332 0 -525.5 215.5t-193.5 545.5t193.5 549.5t525.5 219.5q125 0 235 -35h715v-1833h-322v1563h-184v-1083q-189 -142 -444 -142z" />
    <glyph glyph-name="uni01A3" unicode="&#x1a3;" horiz-adv-x="1564" 
d="M429 286q60 -96 196 -96q57 0 108 21v637q-58 20 -120 20t-111 -29.5t-91 -95.5t-42 -213.5t60 -243.5zM1024 125q-152 -152 -400 -152t-397 152t-149 404.5t149 405t398 152.5q102 0 192 -28h637v-1430h-291v1211h-139v-715z" />
    <glyph glyph-name="uni01A6" unicode="&#x1a6;" horiz-adv-x="1331" 
d="M360 1018v-395h349q104 0 155 22q92 43 92 172t-88 174q-51 27 -149 27h-359zM678 379h-318v-379h-301v1475h301v-201h422q156 -2 239 -38t136 -97q109 -125 109 -285q0 -104 -53.5 -205.5t-174.5 -144.5q102 -41 144.5 -117t42.5 -229v-101q0 -100 10 -146t53 -75v-37
h-338q-32 112 -32 207l-3 137q-2 141 -52 188.5t-185 47.5z" />
    <glyph glyph-name="uni01A7" unicode="&#x1a7;" horiz-adv-x="1366" 
d="M383 408q0 -195 305 -195q182 0 258 90q41 51 55 152h293q0 -229 -164.5 -361.5t-449.5 -132.5t-439.5 134t-154.5 334t131 302q86 68 252 109l256 59q145 37 190 62q70 39 70 121t-70.5 131t-182.5 49t-185 -37q-109 -57 -117 -191h-297q8 236 173.5 360t421.5 124
t400 -131t144 -339t-150 -311q-88 -59 -317 -112l-158 -35q-135 -31 -199 -70t-65 -112z" />
    <glyph glyph-name="uni01A8" unicode="&#x1a8;" horiz-adv-x="1138" 
d="M573 903q-179 0 -190 -145h-287q20 201 148.5 281.5t338.5 80.5t327.5 -108.5t117.5 -247.5t-76 -208t-260 -114q-258 -61 -298 -86t-40 -74t50.5 -74.5t134.5 -25.5q143 0 194 58q31 33 39 108h291q0 -168 -123 -276.5t-378 -108.5t-374.5 102.5t-119.5 264.5
q0 247 338 325q256 57 298 80t41 67q0 44 -39.5 72.5t-132.5 28.5z" />
    <glyph glyph-name="uni01A9" unicode="&#x1a9;" horiz-adv-x="1218" 
d="M1151 266v-266h-1090v225l502 506l-502 508v225h1090v-266h-680l465 -465l-465 -467h680z" />
    <glyph glyph-name="uni01AE" unicode="&#x1ae;" horiz-adv-x="1251" 
d="M409 -213q23 0 44.5 21.5t21.5 78.5v1325h-442v263h1194v-263h-441v-1329q0 -166 -77.5 -244.5t-268.5 -78.5q-26 0 -100 4v227q46 -4 69 -4z" />
    <glyph glyph-name="uni01AF" unicode="&#x1af;" horiz-adv-x="1880" 
d="M1395 1083q-28 0 -54 4v-534q0 -297 -159.5 -441.5t-445.5 -144.5t-443.5 143.5t-157.5 442.5v909h322v-909q0 -145 58.5 -231t220.5 -86q161 0 222.5 76.5t61.5 240.5v909h321v-250q8 -2 48 -2t118 41l-88 150l258 149l156 -268l-223 -129q-121 -70 -215 -70z" />
    <glyph glyph-name="uni01B0" unicode="&#x1b0;" horiz-adv-x="1648" 
d="M862 147q-104 -174 -336 -174q-207 0 -290.5 109t-83.5 326v651h290v-598q0 -131 41 -195.5t153 -64.5t165 70.5t53 232.5v555h291v-117h16q74 0 158 39l-88 149l258 150l153 -266l-223 -129q-118 -70 -231 -70q-20 0 -43 2v-817h-277v147h-6z" />
    <glyph glyph-name="uni01B1" unicode="&#x1b1;" horiz-adv-x="1587" 
d="M787 276q165 0 251 123t86 296t-47 295t-168 208v266h584v-245h-305q256 -203 256 -533q0 -289 -171 -487.5t-469 -198.5t-480.5 199.5t-182.5 486.5q0 176 59.5 300t196.5 233h-307v245h586v-266q-121 -86 -168 -207t-47 -296t80.5 -297t245.5 -122z" />
    <glyph glyph-name="uni01B5" unicode="&#x1b5;" horiz-adv-x="1327" 
d="M186 629v250h396l270 313h-743v270h1151v-254l-283 -329h186v-250h-401l-307 -359h825v-270h-1233v254l322 375h-183z" />
    <glyph glyph-name="uni01B6" unicode="&#x1b6;" horiz-adv-x="1062" 
d="M156 453v186h276l184 201h-530v219h893v-219l-184 -201h118v-186h-290l-215 -234h610v-219h-973v219l215 234h-104z" />
    <glyph glyph-name="uni01B7" unicode="&#x1b7;" horiz-adv-x="1228" 
d="M78 1208v267h1089v-226l-301 -315q90 -39 156 -115q135 -76 135 -341t-173 -380.5t-436 -115.5t-398 188q-84 115 -95 246h291q10 -86 52 -140.5t163 -54.5t210 64.5t89 187.5t-29 199q-45 47 -163 61l-2 -2l-373 2l465 475h-680z" />
    <glyph glyph-name="uni01B8" unicode="&#x1b8;" horiz-adv-x="1228" 
d="M668 221q120 0 162 54.5t51 140.5h290q-10 -131 -94 -246q-133 -188 -396 -188t-437 115t-174 381t137 341q66 76 155 115l-303 315v226h1092v-267h-682l467 -475l-375 -2l-2 2q-117 -14 -164 -61q-27 -76 -27 -199t90 -187.5t210 -64.5z" />
    <glyph glyph-name="uni01B9" unicode="&#x1b9;" horiz-adv-x="1128" 
d="M618 -201q100 0 127 54.5t35 140.5h291q-8 -131 -92 -248q-94 -186 -357 -186t-407.5 125t-144.5 390t137 355q66 76 155 115l-303 315v225h992v-266h-582l367 -475l-275 -2l-2 2q-117 -14 -164 -61q-27 -90 -27 -213t54.5 -197t195.5 -74z" />
    <glyph glyph-name="uni01BB" unicode="&#x1bb;" horiz-adv-x="1253" 
d="M567 1456q229 0 365.5 -127t136.5 -338q0 -102 -39 -190h166v-203h-329q-44 -37 -101 -78l-115 -80q-106 -76 -145 -109.5t-68 -78.5h633v-252h-991q4 156 65 285q61 145 289 307q4 3 9 6h-316v203h567q84 92 84 192t-51 162t-145 62q-131 0 -179 -99q-27 -55 -30 -178
h-279q22 516 473 516z" />
    <glyph glyph-name="uni01C0" unicode="&#x1c0;" horiz-adv-x="573" 
d="M428 1489v-1489h-262v1489h262z" />
    <glyph glyph-name="uni01C1" unicode="&#x1c1;" horiz-adv-x="1083" 
d="M928 1489v-1489h-262v1489h262zM428 1489v-1489h-262v1489h262z" />
    <glyph glyph-name="uni01C2" unicode="&#x1c2;" horiz-adv-x="1171" 
d="M1110 1067v-262h-432v-205h432v-262h-432v-338h-262v338h-389v262h389v205h-389v262h389v422h262v-422h432z" />
    <glyph glyph-name="uni01C3" unicode="&#x1c3;" horiz-adv-x="681" 
d="M231 289h299v-289h-299v289zM225 1468h314v-372l-82 -688h-150l-82 688v372z" />
    <glyph glyph-name="uni01C4" unicode="&#x1c4;" horiz-adv-x="2519" 
d="M1769 1538l-235 299h231l131 -168l132 168h231l-234 -299h-256zM1356 1212v263h1124v-248l-770 -967h772v-260h-1147v260l762 952h-741zM1319 772q0 -293 -119 -498q-160 -274 -493 -274h-635v1475h635q327 -5 470 -207q87 -124 114.5 -251.5t27.5 -244.5zM371 1219v-963
h284q217 0 303 215q48 119 48 313t-71 314.5t-280 120.5h-284z" />
    <glyph glyph-name="uni01C5" unicode="&#x1c5;" horiz-adv-x="2318" 
d="M1661 1178l-236 299h234l131 -170l129 170h231l-233 -299h-256zM1376 858v232h885v-236l-555 -621h573v-233h-942v221l559 637h-520zM1335 772q0 -293 -118 -498q-160 -274 -494 -274h-635v1475h635q137 -2 227 -33q156 -50 243 -174t114.5 -251.5t27.5 -244.5zM387 1219
v-963h285q217 0 303 215q47 119 47 313t-70.5 314.5t-279.5 120.5h-285z" />
    <glyph glyph-name="uni01C6" unicode="&#x1c6;" horiz-adv-x="2170" 
d="M1526 1182l-236 299h234l131 -170l129 170h231l-233 -299h-256zM1233 858v232h883v-236l-553 -621h571v-233h-940v221l559 637h-520zM844 528q0 201 -101 287q-61 51 -145 51q-125 0 -183.5 -94t-58.5 -240t59.5 -235.5t181.5 -89.5t184.5 89t62.5 232zM836 1473h288
v-1473h-276v152q-61 -98 -139 -142.5t-195 -44.5q-190 0 -320.5 154.5t-130.5 416.5t128 421t344 159q100 0 177 -44t124 -120v521z" />
    <glyph glyph-name="uni01C7" unicode="&#x1c7;" horiz-adv-x="2166" 
d="M1450 580v-33q4 -172 38 -241.5t144 -69.5t144 75q20 45 20 154v1030h307v-1026q0 -188 -63 -299q-111 -184 -397.5 -184t-385 150.5t-98.5 410.5v33h291zM109 1475h309v-1211h729v-264h-1038v1475z" />
    <glyph glyph-name="uni01C8" unicode="&#x1c8;" horiz-adv-x="1710" 
d="M1253 -213q43 0 64.5 21.5t21.5 78.5v1198h285v-1202q0 -166 -65.5 -244.5t-253.5 -78.5q-29 0 -103 4v227q50 -4 51 -4zM1624 1221h-285v262h285v-262zM109 1475h309v-1211h729v-264h-1038v1475z" />
    <glyph glyph-name="uni01C9" unicode="&#x1c9;" horiz-adv-x="1067" 
d="M631 -213q41 0 62.5 21.5t21.5 78.5v1198h284v-1202q0 -166 -64.5 -244.5t-254.5 -78.5q-26 0 -102 4v227q50 -4 53 -4zM999 1221h-284v262h284v-262zM424 0h-285v1475h285v-1475z" />
    <glyph glyph-name="uni01CA" unicode="&#x1ca;" horiz-adv-x="2371" 
d="M2300 459q0 -484 -463 -486q-287 0 -384 150.5t-97 411.5v34h291v-34q4 -170 36.5 -240t142.5 -70t144 76q23 45 23 152v1032h307v-1026zM98 1475h324l588 -1031v1031h286v-1475h-309l-602 1047v-1047h-287v1475z" />
    <glyph glyph-name="uni01CB" unicode="&#x1cb;" horiz-adv-x="1855" 
d="M1368 -207h42q26 0 47.5 20.5t21.5 80.5v1196h284v-1203q0 -164 -65.5 -242.5t-253.5 -78.5l-103 2v227q25 -2 27 -2zM1763 1225h-284v264h284v-264zM104 1475h322l588 -1031v1031h286v-1475h-307l-602 1047v-1047h-287v1475z" />
    <glyph glyph-name="uni01CC" unicode="&#x1cc;" horiz-adv-x="1638" 
d="M1177 -213q23 0 44.5 21.5t21.5 78.5v1198h287v-1202q0 -166 -65.5 -244.5t-256.5 -78.5q-26 0 -100 4v227q46 -4 69 -4zM1530 1221h-287v262h287v-262zM1079 733v-733h-293v664q0 86 -22 131q-41 84 -160 84q-145 0 -198 -123q-29 -66 -29 -166v-590h-285v1087h277v-157
q55 84 102 121q89 65 241 65t259.5 -89t107.5 -294z" />
    <glyph glyph-name="uni01CD" unicode="&#x1cd;" horiz-adv-x="1478" 
d="M623 1616l-236 299h234l131 -170l129 170h231l-233 -299h-256zM578 1475h348l522 -1475h-334l-94 303h-545l-100 -303h-324zM559 557h375l-184 580z" />
    <glyph glyph-name="uni01CE" unicode="&#x1ce;" horiz-adv-x="1138" 
d="M436 1260l-233 299h231l131 -168l129 168h234l-236 -299h-256zM59 291q0 201 154 291q86 49 252 69l96 13q78 10 113 24q61 28 61 88t-47 85.5t-142 25.5t-131 -43t-46 -107h-275q21 379 467 379q179 0 319 -71t140 -269v-500q0 -175 16.5 -198t42.5 -35v-43h-309
q-16 43 -27 127q-152 -162 -344 -162q-147 0 -243.5 85t-96.5 241zM344 315q0 -78 41 -110.5t115 -32.5t152.5 54.5t80.5 197.5v106q-47 -31 -129 -47l-63 -12q-90 -16 -129 -39q-68 -39 -68 -117z" />
    <glyph glyph-name="uni01CF" unicode="&#x1cf;" horiz-adv-x="569" 
d="M162 1634l-236 299h232l131 -170l131 170h231l-233 -299h-256zM438 0h-307v1475h307v-1475z" />
    <glyph glyph-name="uni01D0" unicode="&#x1d0;" horiz-adv-x="569" 
d="M162 1243l-236 299h232l131 -168l131 168h231l-233 -299h-256zM137 1090h289v-1090h-289v1090z" />
    <glyph glyph-name="uni01D1" unicode="&#x1d1;" horiz-adv-x="1593" 
d="M684 1677l-233 299h231l131 -170l129 170h234l-236 -299h-256zM808 -41q-316 0 -482 172q-226 211 -226 613t226 604q166 172 482 172t482 -172q223 -202 223 -604t-223 -613q-166 -172 -482 -172zM1206 738q0 249 -107.5 384t-290.5 135t-291.5 -135t-108.5 -384
t108.5 -384t291.5 -135t290.5 135t107.5 384z" />
    <glyph glyph-name="uni01D2" unicode="&#x1d2;" horiz-adv-x="1251" 
d="M502 1280l-236 299h234l131 -170l129 170h231l-233 -299h-256zM622.5 -39q-280.5 0 -418.5 171t-138 409t138 410.5t418.5 172.5t419 -173t138.5 -411t-138.5 -408.5t-419 -170.5zM881 543q0 164 -66.5 253t-191.5 89t-193 -89t-68 -253t68 -253t193 -89t191.5 89
t66.5 253z" />
    <glyph glyph-name="uni01D3" unicode="&#x1d3;" horiz-adv-x="1478" 
d="M610 1632l-235 299h231l131 -168l131 168h232l-234 -299h-256zM156 1475h313v-908q0 -152 37 -221q54 -125 242 -125t243 125q37 70 37 221v908h313v-908q0 -233 -73 -364q-135 -242 -518 -242t-521 242q-74 131 -73 364v908z" />
    <glyph glyph-name="uni01D4" unicode="&#x1d4;" horiz-adv-x="1251" 
d="M489 1227l-233 299h231l131 -170l130 170h233l-236 -299h-256zM418 1090v-658q0 -92 20 -139q39 -82 154 -82q145 0 201 117q27 63 26 170v592h291v-1090h-279v154q-4 -4 -19 -30t-38 -44q-68 -59 -130 -82t-146 -23q-242 0 -326 175q-47 96 -47 282v658h293z" />
    <glyph glyph-name="uni01D5" unicode="&#x1d5;" horiz-adv-x="1478" 
d="M393 2204h711v-152h-711v152zM438 1882h262v-237h-262v237zM840 1882h260v-237h-260v237zM156 1475h313v-908q0 -152 37 -221q54 -125 242 -125t243 125q37 70 37 221v908h313v-908q0 -233 -73 -364q-135 -242 -518 -242t-521 242q-74 131 -73 364v908z" />
    <glyph glyph-name="uni01D6" unicode="&#x1d6;" horiz-adv-x="1251" 
d="M272 1782h711v-154h-711v154zM297 1481h260v-238h-260v238zM696 1481h262v-238h-262v238zM418 1090v-658q0 -92 20 -139q39 -82 154 -82q145 0 201 117q27 63 26 170v592h291v-1090h-279v154q-4 -4 -19 -30t-38 -44q-68 -59 -130 -82t-146 -23q-242 0 -326 175
q-47 96 -47 282v658h293z" />
    <glyph glyph-name="uni01D7" unicode="&#x1d7;" horiz-adv-x="1478" 
d="M1108 2210l-303 -299h-207l193 299h317zM424 1825h260v-238h-260v238zM823 1825h260v-238h-260v238zM156 1475h313v-908q0 -152 37 -221q54 -125 242 -125t243 125q37 70 37 221v908h313v-908q0 -233 -73 -364q-135 -242 -518 -242t-521 242q-74 131 -73 364v908z" />
    <glyph glyph-name="uni01D8" unicode="&#x1d8;" horiz-adv-x="1251" 
d="M995 1898l-305 -299h-205l193 299h317zM287 1475h262v-238h-262v238zM686 1475h262v-238h-262v238zM418 1090v-658q0 -92 20 -139q39 -82 154 -82q145 0 201 117q27 63 26 170v592h291v-1090h-279v154q-4 -4 -19 -30t-38 -44q-68 -59 -130 -82t-146 -23q-242 0 -326 175
q-47 96 -47 282v658h293z" />
    <glyph glyph-name="uni01D9" unicode="&#x1d9;" horiz-adv-x="1478" 
d="M610 2015l-233 299h231l131 -170l129 170h234l-236 -299h-256zM424 1878h260v-238h-260v238zM823 1878h260v-238h-260v238zM156 1475h313v-908q0 -152 37 -221q54 -125 242 -125t243 125q37 70 37 221v908h313v-908q0 -233 -73 -364q-135 -242 -518 -242t-521 242
q-74 131 -73 364v908z" />
    <glyph glyph-name="uni01DA" unicode="&#x1da;" horiz-adv-x="1251" 
d="M489 1599l-233 299h231l131 -169l130 169h233l-236 -299h-256zM283 1481h260v-238h-260v238zM682 1481h260v-238h-260v238zM418 1090v-658q0 -92 20 -139q39 -82 154 -82q145 0 201 117q27 63 26 170v592h291v-1090h-279v154q-4 -4 -19 -30t-38 -44q-68 -59 -130 -82
t-146 -23q-242 0 -326 175q-47 96 -47 282v658h293z" />
    <glyph glyph-name="uni01DB" unicode="&#x1db;" horiz-adv-x="1478" 
d="M870 1950h-206l-304 299h318zM428 1851h260v-237h-260v237zM827 1851h263v-237h-263v237zM156 1475h313v-908q0 -152 37 -221q54 -125 242 -125t243 125q37 70 37 221v908h313v-908q0 -233 -73 -364q-135 -242 -518 -242t-521 242q-74 131 -73 364v908z" />
    <glyph glyph-name="uni01DC" unicode="&#x1dc;" horiz-adv-x="1251" 
d="M748 1575h-205l-303 299h315zM311 1466h260v-235h-260v235zM711 1466h262v-235h-262v235zM418 1090v-658q0 -92 20 -139q39 -82 154 -82q145 0 201 117q27 63 26 170v592h291v-1090h-279v154q-4 -4 -19 -30t-38 -44q-68 -59 -130 -82t-146 -23q-242 0 -326 175
q-47 96 -47 282v658h293z" />
    <glyph glyph-name="uni01DD" unicode="&#x1dd;" horiz-adv-x="1138" 
d="M547 887q-86 0 -141 -49q-29 -27 -54 -76h-291q12 96 103 196q139 160 391 160q209 0 367.5 -134t158.5 -427t-143 -443.5t-373 -150.5q-287 0 -426 211q-63 98 -79 200t-13 242h748q-6 164 -105 230q-57 41 -143 41zM568 199q95 0 149.5 61.5t68.5 167.5h-442
q6 -113 67.5 -171t156.5 -58z" />
    <glyph glyph-name="uni01DE" unicode="&#x1de;" horiz-adv-x="1478" 
d="M395 2204h711v-152h-711v152zM436 1903h260v-238h-260v238zM836 1903h262v-238h-262v238zM578 1475h348l522 -1475h-334l-94 303h-545l-100 -303h-324zM559 557h375l-184 580z" />
    <glyph glyph-name="uni01DF" unicode="&#x1df;" horiz-adv-x="1138" 
d="M219 1810h711v-151h-711v151zM258 1513h262v-237h-262v237zM659 1513h261v-237h-261v237zM59 291q0 201 154 291q86 49 252 69l96 13q78 10 113 24q61 28 61 88t-47 85.5t-142 25.5t-131 -43t-46 -107h-275q21 379 467 379q179 0 319 -71t140 -269v-500q0 -175 16.5 -198
t42.5 -35v-43h-309q-16 43 -27 127q-152 -162 -344 -162q-147 0 -243.5 85t-96.5 241zM344 315q0 -78 41 -110.5t115 -32.5t152.5 54.5t80.5 197.5v106q-47 -31 -129 -47l-63 -12q-90 -16 -129 -39q-68 -39 -68 -117z" />
    <glyph glyph-name="uni01E0" unicode="&#x1e0;" horiz-adv-x="1478" 
d="M395 2204h711v-152h-711v152zM621 1894h260v-235h-260v235zM578 1475h348l522 -1475h-334l-94 303h-545l-100 -303h-324zM559 557h375l-184 580z" />
    <glyph glyph-name="uni01E1" unicode="&#x1e1;" horiz-adv-x="1138" 
d="M199 1800h710v-151h-710v151zM420 1505h260v-237h-260v237zM59 291q0 201 154 291q86 49 252 69l96 13q78 10 113 24q61 28 61 88t-47 85.5t-142 25.5t-131 -43t-46 -107h-275q21 379 467 379q179 0 319 -71t140 -269v-500q0 -175 16.5 -198t42.5 -35v-43h-309
q-16 43 -27 127q-152 -162 -344 -162q-147 0 -243.5 85t-96.5 241zM344 315q0 -78 41 -110.5t115 -32.5t152.5 54.5t80.5 197.5v106q-47 -31 -129 -47l-63 -12q-90 -16 -129 -39q-68 -39 -68 -117z" />
    <glyph glyph-name="uni01E2" unicode="&#x1e2;" horiz-adv-x="2048" 
d="M809 1821h711v-152h-711v152zM1948 1468v-256h-758v-317h682v-252h-682v-383h772v-260h-1075v311h-443l-106 -311h-320l537 1468h1393zM887 1219h-133l-228 -664h361v664z" />
    <glyph glyph-name="uni01E3" unicode="&#x1e3;" horiz-adv-x="1820" 
d="M551 1448h711v-152h-711v152zM55 295q0 184 138 270q76 45 231 70l174 27q70 10 108 32t39 72q0 80 -79 108q-42 14 -134 14t-135 -61q-23 -33 -24 -94h-279q10 225 187 320q117 61 307 61t334 -117q140 117 323 117q332 0 449 -272q61 -145 57 -369h-745q0 -113 26 -172
q49 -111 193 -111q80 0 138 28t87 110h289q-12 -100 -99 -201q-143 -164 -405 -164q-135 0 -232.5 51.5t-148.5 130.5q-147 -182 -416 -182q-203 0 -293 98.5t-90 233.5zM342 299q0 -47 35 -88t120 -41t142 33q104 57 104 209v108q-29 -20 -112 -39l-111 -22
q-94 -18 -125 -41q-53 -35 -53 -119zM1234 889q-212 0 -224 -232h444q-6 106 -59 169t-161 63z" />
    <glyph glyph-name="uni01E4" unicode="&#x1e4;" horiz-adv-x="1689" 
d="M823 285v200h316q8 29 12 60h-340v246h614v-306h230v-200h-230v-285h-204l-31 184q-88 -104 -160 -147q-123 -76 -301 -76q-293 0 -479 203q-195 205 -195 560t197 571t520 216q283 0 453 -142t194 -355h-303q-35 152 -170 211q-76 33 -170 32q-178 0 -291.5 -134
t-113.5 -405t123.5 -384t267.5 -113t235 64h-174z" />
    <glyph glyph-name="uni01E5" unicode="&#x1e5;" horiz-adv-x="1406" 
d="M547 444v201h276q-14 86 -57 141q-66 80 -176 80q-150 0 -207 -141q-31 -74 -31 -176t33 -176q57 -139 209 -140q98 0 168 76q45 49 59 135h-274zM834 1090h276v-445h266v-201h-266v-389q0 -211 -72 -317q-121 -184 -467 -184q-209 0 -341 81.5t-146 245.5h309
q12 -51 39 -71q47 -39 156 -39q154 0 207 102q33 66 32 221v72q-41 -72 -88 -107q-84 -63 -221 -63q-209 0 -335 147.5t-126 394.5t121 412.5t336 166.5t320 -183v156z" />
    <glyph glyph-name="uni01E6" unicode="&#x1e6;" horiz-adv-x="1593" 
d="M678 1642l-236 300h232l131 -168l131 168h231l-233 -300h-256zM399 718q0 -271 124 -384t281 -113t256 89t122 235h-340v246h612v-791h-203l-30 184q-90 -104 -160 -147q-123 -76 -301 -76q-293 0 -479 203q-195 205 -195 560t197 571t520 216q281 0 451.5 -142
t195.5 -355h-303q-35 152 -170 211q-78 33 -170 32q-178 0 -293 -134t-115 -405z" />
    <glyph glyph-name="uni01E7" unicode="&#x1e7;" horiz-adv-x="1251" 
d="M403 1280l-233 299h231l131 -170l130 170h233l-236 -299h-256zM842 1090h276v-1035q0 -211 -71 -317q-121 -184 -467 -184q-209 0 -341.5 81.5t-146.5 245.5h309q12 -51 39 -71q47 -39 156 -39q154 0 207 102q33 66 33 221v72q-41 -72 -88 -107q-84 -63 -222 -63
q-209 0 -334.5 147.5t-125.5 394.5t120.5 412.5t335.5 166.5t320 -183v156zM840 545q0 160 -65.5 240.5t-176.5 80.5q-150 0 -207 -141q-31 -74 -31 -176t33 -176q57 -139 207 -140q100 0 170 76t70 236z" />
    <glyph glyph-name="uni01E8" unicode="&#x1e8;" horiz-adv-x="1478" 
d="M610 1589l-235 299h231l131 -170l131 170h232l-234 -299h-256zM162 1475h303v-609l567 609h400l-605 -609l635 -866h-395l-457 643l-145 -149v-494h-303v1475z" />
    <glyph glyph-name="uni01E9" unicode="&#x1e9;" horiz-adv-x="1138" 
d="M547 1544l-236 299h234l131 -168l129 168h231l-233 -299h-256zM129 1468h281v-792l356 409h352l-381 -417l396 -668h-345l-260 467l-118 -125v-342h-281v1468z" />
    <glyph glyph-name="uni01EA" unicode="&#x1ea;" horiz-adv-x="1593" 
d="M1206 738q0 249 -107.5 384t-290.5 135t-291.5 -135t-108.5 -384t108.5 -384t291.5 -135t290.5 135t107.5 384zM895 -332q39 0 111 23v-144q-101 -36 -201 -36t-168 58t-68 144t84 162q40 37 120 85q-291 9 -447 171q-226 211 -226 613t226 604q166 172 482 172t482 -172
q223 -202 223 -604t-223 -613q-117 -122 -309 -157l-55 -42q-70 -49 -102.5 -84.5t-32.5 -81t32.5 -72t71.5 -26.5z" />
    <glyph glyph-name="uni01EB" unicode="&#x1eb;" horiz-adv-x="1251" 
d="M881 543q0 164 -66.5 253t-191.5 89t-193 -89t-68 -253t68 -253t193 -89t191.5 89t66.5 253zM332 -295q0 86 84 164q45 41 140 95q-231 18 -352 168q-138 171 -138 409t138 410.5t418.5 172.5t419 -173t138.5 -411t-139 -408q-104 -130 -290 -161l-65 -45
q-68 -51 -100.5 -87t-32.5 -81t32.5 -71.5t77.5 -26.5t105 25v-146q-100 -36 -201 -36q-100 -1 -167.5 57.5t-67.5 144.5z" />
    <glyph glyph-name="uni01EC" unicode="&#x1ec;" horiz-adv-x="1593" 
d="M442 1831h711v-152h-711v152zM1206 738q0 249 -107.5 384t-290.5 135t-291.5 -135t-108.5 -384t108.5 -384t291.5 -135t290.5 135t107.5 384zM551 -283q0 128 197 244q-273 15 -422 170q-226 211 -226 613t226 604q166 172 482 172t482 -172q223 -202 223 -604t-223 -613
q-127 -132 -342 -163l-43 -29q-68 -51 -101.5 -87t-33.5 -81t34 -72t76 -27t107 25v-146q-101 -36 -202 -36q-100 0 -167 58t-67 144z" />
    <glyph glyph-name="uni01ED" unicode="&#x1ed;" horiz-adv-x="1251" 
d="M268 1430h711v-152h-711v152zM881 543q0 164 -66.5 253t-191.5 89t-193 -89t-68 -253t68 -253t193 -89t191.5 89t66.5 253zM362 -285q0 86 84 164q40 37 121 84q-239 16 -370 178t-131 400t138 410.5t418.5 172.5t419 -173t138.5 -411t-139 -408q-98 -122 -269 -157
l-55 -38q-70 -51 -102.5 -87t-32.5 -81t32.5 -72t76.5 -27t108 25v-146q-101 -36 -202 -36t-168 58t-67 144z" />
    <glyph glyph-name="uni01EE" unicode="&#x1ee;" horiz-adv-x="1189" 
d="M489 1636l-233 299h231l131 -168l130 168h233l-236 -299h-256zM55 1208v267h1090v-226l-301 -315q90 -39 153 -115q137 -76 137 -341t-174 -380.5t-437 -115.5t-396 188q-84 115 -94 246h291q10 -86 52 -140.5t140 -54.5q141 0 231.5 64.5t90.5 187.5t-29 199
q-45 47 -164 61l-2 -2l-373 2l465 475h-680z" />
    <glyph glyph-name="uni01EF" unicode="&#x1ef;" horiz-adv-x="1091" 
d="M440 1237l-233 299h231l131 -170l129 170h234l-236 -299h-256zM55 819v266h992v-225l-304 -315q90 -39 156 -115q137 -90 137 -356t-144 -390t-408 -124t-357 186q-84 117 -92 248h291q8 -86 34.5 -140.5t126.5 -54.5q141 0 195.5 74t54.5 197t-26 213q-47 47 -164 61
l-2 -2l-275 2l367 475h-582z" />
    <glyph glyph-name="uni01F0" unicode="&#x1f0;" horiz-adv-x="569" 
d="M162 1247l-236 299h232l131 -170l131 170h231l-233 -299h-256zM61 -213q41 0 62.5 21.5t21.5 78.5v1198h285v-1202q0 -166 -64.5 -244.5t-254.5 -78.5q-25 0 -103 4v227q50 -4 53 -4z" />
    <glyph glyph-name="uni01F1" unicode="&#x1f1;" horiz-adv-x="2572" 
d="M1382 1212v263h1127v-248l-772 -967h774v-260h-1147v260l760 952h-742zM1356 772q0 -293 -119 -498q-160 -274 -494 -274h-634v1475h634q328 -5 471 -207q87 -124 114.5 -251.5t27.5 -244.5zM408 1219v-963h284q217 0 303 215q47 119 47 313t-70.5 314.5t-279.5 120.5
h-284z" />
    <glyph glyph-name="uni01F2" unicode="&#x1f2;" horiz-adv-x="2361" 
d="M1397 858v232h884v-236l-552 -621h571v-233h-940v221l559 637h-522zM739 0h-635v1475h635q138 -2 228 -33q156 -50 242 -174q143 -205 143 -497t-119 -497q-160 -274 -494 -274zM403 1219v-963h283q219 0 305 215q47 119 47 313t-70.5 314.5t-281.5 120.5h-283z" />
    <glyph glyph-name="uni01F3" unicode="&#x1f3;" horiz-adv-x="2217" 
d="M1264 868v234h884v-238l-553 -618h572v-236h-940v223l559 635h-522zM844 528q0 201 -101 287q-61 51 -145 51q-125 0 -183.5 -94t-58.5 -240t59.5 -235.5t181.5 -89.5t184.5 89t62.5 232zM836 1473h288v-1473h-276v152q-61 -98 -139 -142.5t-195 -44.5
q-190 0 -320.5 154.5t-130.5 416.5t128 421t344 159q100 0 177 -44t124 -120v521z" />
    <glyph glyph-name="uni01F4" unicode="&#x1f4;" horiz-adv-x="1593" 
d="M1141 1958l-303 -299h-207l192 299h318zM399 718q0 -271 124 -384t281 -113t256 89t122 235h-340v246h612v-791h-203l-30 184q-90 -104 -160 -147q-123 -76 -301 -76q-293 0 -479 203q-195 205 -195 560t197 571t520 216q281 0 451.5 -142t195.5 -355h-303
q-35 152 -170 211q-78 33 -170 32q-178 0 -293 -134t-115 -405z" />
    <glyph glyph-name="uni01F5" unicode="&#x1f5;" horiz-adv-x="1251" 
d="M913 1581l-303 -299h-207l193 299h317zM842 1090h276v-1035q0 -211 -71 -317q-121 -184 -467 -184q-209 0 -341.5 81.5t-146.5 245.5h309q12 -51 39 -71q47 -39 156 -39q154 0 207 102q33 66 33 221v72q-41 -72 -88 -107q-84 -63 -222 -63q-209 0 -334.5 147.5
t-125.5 394.5t120.5 412.5t335.5 166.5t320 -183v156zM840 545q0 160 -65.5 240.5t-176.5 80.5q-150 0 -207 -141q-31 -74 -31 -176t33 -176q57 -139 207 -140q100 0 170 76t70 236z" />
    <glyph glyph-name="uni01F7" unicode="&#x1f7;" horiz-adv-x="1366" 
d="M469 0h-305v1475h641q221 0 353 -114.5t132 -364.5t-132 -347.5t-376 -218.5l-313 -201v-229zM756 1219h-287v-736l287 201q109 70 169 138.5t60 183t-60 164t-169 49.5z" />
    <glyph glyph-name="uni01F8" unicode="&#x1f8;" horiz-adv-x="1478" 
d="M938 1591h-207l-303 299h317zM152 1475h321l588 -1031v1031h287v-1475h-308l-602 1047v-1047h-286v1475z" />
    <glyph glyph-name="uni01F9" unicode="&#x1f9;" horiz-adv-x="1251" 
d="M829 1276h-204l-303 299h317zM1120 733v-733h-291v664q0 86 -22 131q-43 84 -174 84t-187 -123q-27 -66 -26 -166v-590h-285v1087h275v-157q55 84 104 121q88 65 240 65t259 -89t107 -294z" />
    <glyph glyph-name="uni01FA" unicode="&#x1fa;" horiz-adv-x="1402" 
d="M510 565h379l-184 557h-5zM600 1513.5q0 -47.5 28.5 -78t76 -30.5t75 30.5t27.5 76.5t-27.5 78t-75 32t-76 -30.5t-28.5 -78zM915 1526q0 -74 -32 -123l534 -1403h-334l-110 326h-547l-115 -326h-325l540 1399q-34 47 -34 123t59 134t155 58t152.5 -57t56.5 -131z
M782 1757h-202l157 236h301z" />
    <glyph glyph-name="uni01FB" unicode="&#x1fb;" horiz-adv-x="1175" 
d="M535 166q235 0 235 244v108q-23 -23 -70 -33t-99 -17q-124 -17 -184.5 -48t-60.5 -119q0 -135 179 -135zM426 -29q-158 0 -259 80.5t-101 249.5t102 226t180 71t149 22q167 20 220 43t53 78q0 93 -49 122.5t-137 29.5t-137.5 -37t-57.5 -123h-291q11 187 152.5 270.5
t345.5 83.5q315 0 390 -103t75 -198v-550q0 -178 37 -236h-295q-17 54 -21 102q-127 -131 -356 -131zM489 1369q0 -52 31 -85t84 -33t84 34t31 86t-31 85t-84 33t-84 -34t-31 -86zM602 1155q-96 0 -157.5 60.5t-61.5 154.5t63.5 154.5t159.5 60.5t157.5 -60.5t61.5 -154.5
t-63.5 -154.5t-159.5 -60.5zM686 1642h-201l162 244h301z" />
    <glyph glyph-name="uni01FC" unicode="&#x1fc;" horiz-adv-x="2009" 
d="M926 565v627h-70l-283 -627h353zM1917 1462v-270h-680v-313h639v-250h-639v-359h696v-270h-1007v326h-459l-148 -326h-342l699 1462h1241zM1276 1595h-203l197 291h321z" />
    <glyph glyph-name="uni01FD" unicode="&#x1fd;" horiz-adv-x="1857" 
d="M1036 1206h-202l196 291h322zM419.5 198q50.5 -32 109.5 -32q114 0 186.5 56.5t72.5 162.5v131q-38 -32 -120 -44.5t-129 -20t-108.5 -33.5t-61.5 -107t50.5 -113zM1507 643q0 166 -86 208t-167 42t-146.5 -74t-65.5 -176h465zM788 805q0 88 -188 88q-86 0 -142.5 -36
t-60.5 -128h-291q7 186 148 272t331 86q273 0 371 -143q61 72 143.5 107.5t212.5 35.5q246 0 366 -178.5t120 -449.5h-756q-4 -114 68 -203.5t184 -89.5q181 0 211 166h283q-46 -167 -178.5 -264t-309.5 -97q-115 0 -221 42t-174 139q-102 -135 -237.5 -158t-203.5 -23
q-159 0 -272.5 76t-113.5 240q0 233 151.5 275t290.5 61.5t183.5 34t64.5 37t20 110.5z" />
    <glyph glyph-name="uni01FE" unicode="&#x1fe;" horiz-adv-x="1593" 
d="M797 236q204 0 300.5 143.5t96.5 321.5t-55 303l-604 -668q100 -100 262 -100zM797 1227q-204 0 -301 -145t-97 -330t58 -303l606 673q-105 105 -266 105zM246 215q-168 203 -168 523t193.5 539.5t525.5 219.5q277 0 460 -158l164 183l103 -90l-172 -191
q164 -213 164 -527t-141.5 -472t-275.5 -217.5t-302 -59.5q-271 0 -457 156l-170 -189l-100 88zM883 1595h-203l197 291h321z" />
    <glyph glyph-name="uni01FF" unicode="&#x1ff;" horiz-adv-x="1251" 
d="M451 260q62 -70 187 -70t185 97.5t60 220.5t-33 207zM369 551q0 -126 30 -199l396 451q-61 66 -170 65q-134 0 -195 -95.5t-61 -221.5zM1032 924q142 -150 142 -399t-150.5 -401.5t-398.5 -152.5q-199 0 -338 103l-121 -137l-76 65l123 139q-135 147 -135 394t149 399.5
t398 152.5q195 0 333 -98l109 125l76 -65zM702 1206h-202l196 291h322z" />
    <glyph glyph-name="uni0200" unicode="&#x200;" horiz-adv-x="1478" 
d="M940 1903l150 -291h-195l-246 291h291zM651 1612h-196l-244 291h291zM578 1475h348l522 -1475h-334l-94 303h-545l-100 -303h-324zM559 557h375l-184 580z" />
    <glyph glyph-name="uni0201" unicode="&#x201;" horiz-adv-x="1138" 
d="M784 1567l150 -291h-197l-243 291h290zM494 1276h-195l-246 291h291zM59 291q0 201 154 291q86 49 252 69l96 13q78 10 113 24q61 28 61 88t-47 85.5t-142 25.5t-131 -43t-46 -107h-275q21 379 467 379q179 0 319 -71t140 -269v-500q0 -175 16.5 -198t42.5 -35v-43h-309
q-16 43 -27 127q-152 -162 -344 -162q-147 0 -243.5 85t-96.5 241zM344 315q0 -78 41 -110.5t115 -32.5t152.5 54.5t80.5 197.5v106q-47 -31 -129 -47l-63 -12q-90 -16 -129 -39q-68 -39 -68 -117z" />
    <glyph glyph-name="uni0202" unicode="&#x202;" horiz-adv-x="1478" 
d="M412 1579q27 297 347 297t343 -297h-135q-22 143 -210 143t-210 -143h-135zM578 1475h348l522 -1475h-334l-94 303h-545l-100 -303h-324zM559 557h375l-184 580z" />
    <glyph glyph-name="uni0203" unicode="&#x203;" horiz-adv-x="1138" 
d="M217 1270q23 297 345 297q321 0 345 -297h-135q-22 143 -209 143t-211 -143h-135zM59 291q0 201 154 291q86 49 252 69l96 13q78 10 113 24q61 28 61 88t-47 85.5t-142 25.5t-131 -43t-46 -107h-275q21 379 467 379q179 0 319 -71t140 -269v-500q0 -175 16.5 -198
t42.5 -35v-43h-309q-16 43 -27 127q-152 -162 -344 -162q-147 0 -243.5 85t-96.5 241zM344 315q0 -78 41 -110.5t115 -32.5t152.5 54.5t80.5 197.5v106q-47 -31 -129 -47l-63 -12q-90 -16 -129 -39q-68 -39 -68 -117z" />
    <glyph glyph-name="uni0204" unicode="&#x204;" horiz-adv-x="1366" 
d="M920 1925l147 -291h-195l-243 291h291zM629 1634h-197l-244 291h291zM1245 1212h-778v-313h715v-256h-715v-379h815v-264h-1116v1475h1079v-263z" />
    <glyph glyph-name="uni0205" unicode="&#x205;" horiz-adv-x="1138" 
d="M788 1585l150 -293h-197l-243 293h290zM500 1292h-197l-244 293h291zM580 195q135 0 194 124h293q-12 -96 -102 -196q-139 -160 -392 -160q-209 0 -367.5 133.5t-158.5 427.5t143.5 444t372.5 150q291 0 424 -211q66 -97 80 -199t12 -241h-745q6 -166 102 -231
q59 -41 144 -41zM559 885q-94 0 -149.5 -63t-67.5 -169h442q-8 115 -69.5 173.5t-155.5 58.5z" />
    <glyph glyph-name="uni0206" unicode="&#x206;" horiz-adv-x="1366" 
d="M371 1634q23 297 345 297t345 -297h-135q-21 141 -210 143q-188 1 -210 -143h-135zM1245 1212h-778v-313h715v-256h-715v-379h815v-264h-1116v1475h1079v-263z" />
    <glyph glyph-name="uni0207" unicode="&#x207;" horiz-adv-x="1138" 
d="M596 1409q-189 0 -211 -143h-133q23 297 343.5 297t344.5 -297h-133q-22 143 -211 143zM580 195q135 0 194 124h293q-12 -96 -102 -196q-139 -160 -392 -160q-209 0 -367.5 133.5t-158.5 427.5t143.5 444t372.5 150q291 0 424 -211q66 -97 80 -199t12 -241h-745
q6 -166 102 -231q59 -41 144 -41zM559 885q-94 0 -149.5 -63t-67.5 -169h442q-8 115 -69.5 173.5t-155.5 58.5z" />
    <glyph glyph-name="uni0208" unicode="&#x208;" horiz-adv-x="569" 
d="M504 1935l147 -290h-194l-244 290h291zM213 1645h-197l-243 290h290zM438 0h-307v1475h307v-1475z" />
    <glyph glyph-name="uni0209" unicode="&#x209;" horiz-adv-x="569" 
d="M500 1577l147 -293h-194l-244 293h291zM209 1284h-197l-243 293h290zM137 1090h289v-1090h-289v1090z" />
    <glyph glyph-name="uni020A" unicode="&#x20a;" horiz-adv-x="569" 
d="M-57 1645q23 297 341.5 297t348.5 -297h-135q-21 141 -211 142.5t-209 -142.5h-135zM438 0h-307v1475h307v-1475z" />
    <glyph glyph-name="uni020B" unicode="&#x20b;" horiz-adv-x="569" 
d="M-51 1286q23 297 343 297t347 -297h-135q-22 142 -211.5 143.5t-208.5 -143.5h-135zM137 1090h289v-1090h-289v1090z" />
    <glyph glyph-name="uni020C" unicode="&#x20c;" horiz-adv-x="1593" 
d="M997 1970l150 -291h-197l-243 291h290zM709 1679h-197l-244 291h291zM808 -41q-316 0 -482 172q-226 211 -226 613t226 604q166 172 482 172t482 -172q223 -202 223 -604t-223 -613q-166 -172 -482 -172zM1206 738q0 249 -107.5 384t-290.5 135t-291.5 -135t-108.5 -384
t108.5 -384t291.5 -135t290.5 135t107.5 384z" />
    <glyph glyph-name="uni020D" unicode="&#x20d;" horiz-adv-x="1251" 
d="M813 1591l150 -293h-195l-246 293h291zM524 1298h-196l-244 293h291zM622.5 -39q-280.5 0 -418.5 171t-138 409t138 410.5t418.5 172.5t419 -173t138.5 -411t-138.5 -408.5t-419 -170.5zM881 543q0 164 -66.5 253t-191.5 89t-193 -89t-68 -253t68 -253t193 -89t191.5 89
t66.5 253z" />
    <glyph glyph-name="uni020E" unicode="&#x20e;" horiz-adv-x="1593" 
d="M455 1669q27 297 347 297t343 -297h-135q-22 143 -210 143t-210 -143h-135zM808 -41q-316 0 -482 172q-226 211 -226 613t226 604q166 172 482 172t482 -172q223 -202 223 -604t-223 -613q-166 -172 -482 -172zM1206 738q0 249 -107.5 384t-290.5 135t-291.5 -135
t-108.5 -384t108.5 -384t291.5 -135t290.5 135t107.5 384z" />
    <glyph glyph-name="uni020F" unicode="&#x20f;" horiz-adv-x="1251" 
d="M616.5 1583q319.5 0 344.5 -299h-136q-14 92 -96 125q-45 20 -112.5 20.5t-114.5 -20.5q-82 -33 -96 -125h-136q27 299 346.5 299zM622.5 -39q-280.5 0 -418.5 171t-138 409t138 410.5t418.5 172.5t419 -173t138.5 -411t-138.5 -408.5t-419 -170.5zM881 543
q0 164 -66.5 253t-191.5 89t-193 -89t-68 -253t68 -253t193 -89t191.5 89t66.5 253z" />
    <glyph glyph-name="uni0210" unicode="&#x210;" horiz-adv-x="1478" 
d="M893 1933l149 -291h-196l-244 291h291zM602 1642h-194l-244 291h291zM782 578h-317v-578h-301v1475h723q154 -4 238 -38.5t137 -96.5q108 -125 108 -285q0 -106 -53 -208t-174 -142q100 -41 143 -117t43 -232v-98q0 -100 10 -147t54 -74v-37h-338q-33 116 -33 207l-2 135
q-2 141 -52 188.5t-186 47.5zM465 1219v-398h348q104 0 156 25q92 43 92 172t-88 174q-51 27 -152 27h-356z" />
    <glyph glyph-name="uni0211" unicode="&#x211;" horiz-adv-x="796" 
d="M643 1636l150 -293h-195l-246 293h291zM354 1343h-196l-244 293h291zM682 827q-172 0 -231 -112q-33 -63 -33 -195v-520h-289v1090h272v-191q68 111 115 150q82 68 209 67l39 -2v-293q-44 6 -82 6z" />
    <glyph glyph-name="uni0212" unicode="&#x212;" horiz-adv-x="1478" 
d="M371 1632q23 297 345 297t345 -297h-135q-21 141 -210 143q-188 1 -210 -143h-135zM782 578h-317v-578h-301v1475h723q154 -4 238 -38.5t137 -96.5q108 -125 108 -285q0 -106 -53 -208t-174 -142q100 -41 143 -117t43 -232v-98q0 -100 10 -147t54 -74v-37h-338
q-33 116 -33 207l-2 135q-2 141 -52 188.5t-186 47.5zM465 1219v-398h348q104 0 156 25q92 43 92 172t-88 174q-51 27 -152 27h-356z" />
    <glyph glyph-name="uni0213" unicode="&#x213;" horiz-adv-x="796" 
d="M94 1268q23 297 343 297t347 -297h-135q-22 143 -209 143t-211 -143h-135zM682 827q-172 0 -231 -112q-33 -63 -33 -195v-520h-289v1090h272v-191q68 111 115 150q82 68 209 67l39 -2v-293q-44 6 -82 6z" />
    <glyph glyph-name="uni0214" unicode="&#x214;" horiz-adv-x="1478" 
d="M952 1952l150 -293h-197l-243 293h290zM664 1659h-197l-244 293h291zM156 1475h313v-908q0 -152 37 -221q54 -125 242 -125t243 125q37 70 37 221v908h313v-908q0 -233 -73 -364q-135 -242 -518 -242t-521 242q-74 131 -73 364v908z" />
    <glyph glyph-name="uni0215" unicode="&#x215;" horiz-adv-x="1251" 
d="M821 1585l150 -291h-197l-244 291h291zM532 1294h-196l-244 291h291zM418 1090v-658q0 -92 20 -139q39 -82 154 -82q145 0 201 117q27 63 26 170v592h291v-1090h-279v154q-4 -4 -19 -30t-38 -44q-68 -59 -130 -82t-146 -23q-242 0 -326 175q-47 96 -47 282v658h293z" />
    <glyph glyph-name="uni0216" unicode="&#x216;" horiz-adv-x="1478" 
d="M422 1649q23 297 343.5 297t344.5 -297h-133q-22 143 -211 143t-211 -143h-133zM156 1475h313v-908q0 -152 37 -221q54 -125 242 -125t243 125q37 70 37 221v908h313v-908q0 -233 -73 -364q-135 -242 -518 -242t-521 242q-74 131 -73 364v908z" />
    <glyph glyph-name="uni0217" unicode="&#x217;" horiz-adv-x="1251" 
d="M639 1569q321 0 344 -299h-133q-22 143 -211 143t-211 -143h-133q23 299 344 299zM418 1090v-658q0 -92 20 -139q39 -82 154 -82q145 0 201 117q27 63 26 170v592h291v-1090h-279v154q-4 -4 -19 -30t-38 -44q-68 -59 -130 -82t-146 -23q-242 0 -326 175q-47 96 -47 282
v658h293z" />
    <glyph glyph-name="uni0218" unicode="&#x218;" horiz-adv-x="1329" 
d="M506 -102h297v-150q0 -166 -109.5 -179t-167.5 -13v75q49 4 78 20.5t39 55.5h-137v191zM920 1026q-13 221 -280 221q-101 0 -165.5 -42t-64.5 -124q0 -43 16 -69.5t68.5 -50.5t222.5 -68q170 -43 242.5 -63.5t196.5 -101.5t124 -292t-159.5 -341t-435.5 -130t-458 132.5
t-178 387.5h311q0 -137 92.5 -203.5t231.5 -66.5q183 0 234 63.5t51 120.5t-38 94t-99.5 62t-139.5 43t-158 40q-205 55 -320.5 144.5t-115.5 285.5t163 312.5t400 116.5t403.5 -116.5t166.5 -354.5h-311z" />
    <glyph glyph-name="uni0219" unicode="&#x219;" horiz-adv-x="1099" 
d="M393 -102h297v-150q0 -166 -109.5 -179t-166.5 -13v75q49 4 77.5 20.5t38.5 55.5h-137v191zM537 893q-162 0 -162 -98q0 -69 74.5 -94t134.5 -37.5t122 -26.5q156 -35 245 -99.5t89 -183.5q0 -207 -138.5 -295t-344.5 -88q-328 0 -411 134.5t-87 238.5h277q0 -88 64 -133
t172 -45t143 48t35 87q0 66 -87.5 98.5t-196.5 56.5t-245.5 67.5t-136.5 227.5t131.5 260t382 76t328.5 -119.5t86 -217.5h-277q-6 84 -63.5 113.5t-134.5 29.5z" />
    <glyph glyph-name="uni021A" unicode="&#x21a;" horiz-adv-x="1251" 
d="M477 -102h297v-150q0 -166 -109.5 -179t-166.5 -13v75q49 4 77.5 20.5t38.5 55.5h-137v191zM465 1192h-438v270h1198v-270h-439v-1192h-321v1192z" />
    <glyph glyph-name="uni021B" unicode="&#x21b;" horiz-adv-x="720" 
d="M289 -102h297v-150q0 -166 -109.5 -179t-167.5 -13v75q49 4 78 20.5t39 55.5h-137v191zM188 240v624h-176v195h176v317h291v-317h213v-195h-213v-524q0 -74 24.5 -98.5t86.5 -24.5t102 8v-227q-62 -10 -150 -10q-178 0 -266 52.5t-88 199.5z" />
    <glyph glyph-name="uni021C" unicode="&#x21c;" horiz-adv-x="1359" 
d="M717.5 1262q-86.5 0 -138 -22.5t-192.5 -166.5v2l-203 195q178 170 282.5 209t233.5 39q242 0 382 -126t141 -329q0 -152 -129 -272q80 -51 123 -121q49 -88 49 -207q0 -215 -158 -365q-163 -143 -399 -143q-137 0 -248 41t-295 121l205 178q188 -86 321 -86t213 76
q70 59 70 168q0 199 -283 198l-137 -8v260q231 4 301 41q72 33 72 126t-58 140v-2q-66 54 -152.5 54zM1018 727v2q-4 -2 -6 -2h6z" />
    <glyph glyph-name="uni021D" unicode="&#x21d;" horiz-adv-x="1359" 
d="M700 1090q242 0 381 -127q141 -123 142 -328q0 -152 -129 -273q80 -51 123 -120q49 -88 49 -207q0 -217 -158 -363q-163 -143 -399 -143q-137 0 -248 41t-295 119l205 178q188 -84 321 -84t213 74q70 59 70 170q0 197 -283 196q-81 0 -137 -8v262q231 2 301 39
q72 33 72 125t-58 143v-2q-71 54 -155 54t-135.5 -24t-192.5 -165l-203 195q178 172 282.5 210t233.5 38zM1018 299v4q-4 -2 -6 -4h6z" />
    <glyph glyph-name="uni021E" unicode="&#x21e;" horiz-adv-x="1478" 
d="M604 1585l-235 299h231l131 -170l131 170h232l-234 -299h-256zM154 0v1475h305v-564h575v564h307v-1475h-307v657h-575v-657h-305z" />
    <glyph glyph-name="uni021F" unicode="&#x21f;" horiz-adv-x="1251" 
d="M522 1579l-235 299h231l131 -168l131 168h232l-234 -299h-256zM420 948q110 170 320 170q209 0 313 -141q45 -61 55 -126t10 -212v-639h-291v664q0 217 -178 217q-113 0 -171 -76t-58 -215v-590h-285v1468h285v-520z" />
    <glyph glyph-name="uni0220" unicode="&#x220;" horiz-adv-x="1478" 
d="M1341 -434h-313v1302q0 152 -37 222q-55 124 -242 124t-243 -124q-37 -70 -37 -222v-870h-313v1477h307v-48q119 47 285 48q383 0 520 -240q74 -131 73 -367v-1302z" />
    <glyph glyph-name="uni0226" unicode="&#x226;" horiz-adv-x="1478" 
d="M631 1880h260v-235h-260v235zM578 1475h348l522 -1475h-334l-94 303h-545l-100 -303h-324zM559 557h375l-184 580z" />
    <glyph glyph-name="uni0227" unicode="&#x227;" horiz-adv-x="1138" 
d="M442 1532h260v-238h-260v238zM59 291q0 201 154 291q86 49 252 69l96 13q78 10 113 24q61 28 61 88t-47 85.5t-142 25.5t-131 -43t-46 -107h-275q21 379 467 379q179 0 319 -71t140 -269v-500q0 -175 16.5 -198t42.5 -35v-43h-309q-16 43 -27 127q-152 -162 -344 -162
q-147 0 -243.5 85t-96.5 241zM344 315q0 -78 41 -110.5t115 -32.5t152.5 54.5t80.5 197.5v106q-47 -31 -129 -47l-63 -12q-90 -16 -129 -39q-68 -39 -68 -117z" />
    <glyph glyph-name="uni0228" unicode="&#x228;" horiz-adv-x="1366" 
d="M965 -281q0 -83 -75 -136.5t-174 -53.5t-235 53l37 86q120 -34 169 -34q48 -1 73.5 25.5t25.5 60.5t-28 51.5t-62 17.5t-84 -16l-129 116l207 111h-524v1475h1079v-263h-778v-313h715v-256h-715v-379h815v-264h-483l-88 -131q66 12 77 12q80 0 128.5 -39.5t48.5 -122.5z
" />
    <glyph glyph-name="uni0229" unicode="&#x229;" horiz-adv-x="1138" 
d="M629 -143q178 0 178 -161q0 -83 -76 -137.5t-171 -54.5t-238 54l38 86q118 -33 166 -33q49 0 76 24.5t27 60.5t-30 52t-64 16t-82 -16l-129 117l189 101q-172 17 -307 131q-159 133 -159 427t143.5 444t372.5 150q293 0 424 -211q66 -97 80 -199t12 -241h-745
q6 -166 102 -231q59 -41 144 -41q135 0 194 124h293q-12 -96 -102 -196q-123 -141 -333 -158l-79 -121q54 13 76 13zM559 885q-94 0 -149.5 -63t-67.5 -169h442q-8 115 -69.5 173.5t-155.5 58.5z" />
    <glyph glyph-name="uni022A" unicode="&#x22a;" horiz-adv-x="1593" 
d="M446 2140h711v-151h-711v151zM467 1884h260v-235h-260v235zM866 1884h262v-235h-262v235zM808 -41q-316 0 -482 172q-226 211 -226 613t226 604q166 172 482 172t482 -172q223 -202 223 -604t-223 -613q-166 -172 -482 -172zM1206 738q0 249 -107.5 384t-290.5 135
t-291.5 -135t-108.5 -384t108.5 -384t291.5 -135t290.5 135t107.5 384z" />
    <glyph glyph-name="uni022B" unicode="&#x22b;" horiz-adv-x="1251" 
d="M262 1757h711v-151h-711v151zM293 1495h262v-235h-262v235zM692 1495h262v-235h-262v235zM622.5 -39q-280.5 0 -418.5 171t-138 409t138 410.5t418.5 172.5t419 -173t138.5 -411t-138.5 -408.5t-419 -170.5zM881 543q0 164 -66.5 253t-191.5 89t-193 -89t-68 -253
t68 -253t193 -89t191.5 89t66.5 253z" />
    <glyph glyph-name="uni022C" unicode="&#x22c;" horiz-adv-x="1593" 
d="M463 2116h711v-152h-711v152zM970 1778q58 0 81 86h133q-18 -104 -71.5 -175t-156.5 -71q-61 0 -151 33l-80 26q-33 11 -69 11q-71 0 -93 -84h-131q23 102 57 155q66 94 191 94q48 0 96 -18l94 -35q43 -14 55.5 -18t44.5 -4zM808 -41q-316 0 -482 172q-226 211 -226 613
t226 604q166 172 482 172t482 -172q223 -202 223 -604t-223 -613q-166 -172 -482 -172zM1206 738q0 249 -107.5 384t-290.5 135t-291.5 -135t-108.5 -384t108.5 -384t291.5 -135t290.5 135t107.5 384z" />
    <glyph glyph-name="uni022D" unicode="&#x22d;" horiz-adv-x="1251" 
d="M266 1802h713v-151h-713v151zM477 1350q-77 0 -94 -84h-131q23 102 57 155q63 94 191 95q39 0 96 -19l94 -35q64 -22 98 -22q58 0 82 86h134q-18 -104 -71.5 -175t-158.5 -71q-65 0 -149 33l-82 26q-29 11 -66 11zM622.5 -39q-280.5 0 -418.5 171t-138 409t138 410.5
t418.5 172.5t419 -173t138.5 -411t-138.5 -408.5t-419 -170.5zM881 543q0 164 -66.5 253t-191.5 89t-193 -89t-68 -253t68 -253t193 -89t191.5 89t66.5 253z" />
    <glyph glyph-name="uni022E" unicode="&#x22e;" horiz-adv-x="1593" 
d="M672 1909h260v-238h-260v238zM808 -41q-316 0 -482 172q-226 211 -226 613t226 604q166 172 482 172t482 -172q223 -202 223 -604t-223 -613q-166 -172 -482 -172zM1206 738q0 249 -107.5 384t-290.5 135t-291.5 -135t-108.5 -384t108.5 -384t291.5 -135t290.5 135
t107.5 384z" />
    <glyph glyph-name="uni022F" unicode="&#x22f;" horiz-adv-x="1251" 
d="M489 1532h261v-238h-261v238zM622.5 -39q-280.5 0 -418.5 171t-138 409t138 410.5t418.5 172.5t419 -173t138.5 -411t-138.5 -408.5t-419 -170.5zM881 543q0 164 -66.5 253t-191.5 89t-193 -89t-68 -253t68 -253t193 -89t191.5 89t66.5 253z" />
    <glyph glyph-name="uni0230" unicode="&#x230;" horiz-adv-x="1593" 
d="M459 2114h710v-152h-710v152zM672 1864h260v-238h-260v238zM808 -41q-316 0 -482 172q-226 211 -226 613t226 604q166 172 482 172t482 -172q223 -202 223 -604t-223 -613q-166 -172 -482 -172zM1206 738q0 249 -107.5 384t-290.5 135t-291.5 -135t-108.5 -384
t108.5 -384t291.5 -135t290.5 135t107.5 384z" />
    <glyph glyph-name="uni0231" unicode="&#x231;" horiz-adv-x="1251" 
d="M268 1741h711v-154h-711v154zM498 1483h260v-238h-260v238zM622.5 -39q-280.5 0 -418.5 171t-138 409t138 410.5t418.5 172.5t419 -173t138.5 -411t-138.5 -408.5t-419 -170.5zM881 543q0 164 -66.5 253t-191.5 89t-193 -89t-68 -253t68 -253t193 -89t191.5 89t66.5 253z
" />
    <glyph glyph-name="uni0232" unicode="&#x232;" horiz-adv-x="1366" 
d="M336 1767h711v-151h-711v151zM854 0h-309v555l-510 920h362l308 -644l292 644h349l-492 -920v-555z" />
    <glyph glyph-name="uni0233" unicode="&#x233;" horiz-adv-x="1138" 
d="M215 1423h713v-151h-713v151zM307 -440h-42q-42 0 -89 4v227l37 -2q103 -5 143 27q27 16 48.5 70.5t17.5 66.5l-402 1137h318l237 -803l226 803h303l-375 -1072q-106 -311 -169.5 -384.5t-252.5 -73.5z" />
    <glyph glyph-name="uni0237" unicode="&#x237;" horiz-adv-x="569" 
d="M27 -133q43 0 76.5 17.5t33.5 76.5v1098h291v-1112q0 -168 -80 -244t-262 -76q-80 0 -125 8v240q23 -8 66 -8z" />
    <glyph glyph-name="uni0238" unicode="&#x238;" horiz-adv-x="1968" 
d="M1604 528q0 336 -240 336q-156 0 -213 -139q-16 -43 -25 -96v-183q14 -86 58 -147q61 -92 180 -92t179.5 88t60.5 233zM846 528q0 201 -101 287q-63 51 -145 51q-125 0 -183.5 -94t-58.5 -240t59.5 -235.5t181.5 -89.5t183 90q61 84 64 217v14zM1903 555
q0 -250 -120 -417t-335 -167q-135 0 -217 54q-47 31 -105 108v-133h-280v143q-59 -92 -136 -135t-194 -43q-190 0 -320 154.5t-130 416.5t128 421t343 159q100 0 177 -44t124 -120v521h292v-525q53 76 124 121t192 45q215 0 336 -154.5t121 -404.5z" />
    <glyph glyph-name="uni0239" unicode="&#x239;" horiz-adv-x="1972" 
d="M1366 864q-242 0 -242 -344q0 -190 101 -266q59 -45 141 -45q121 0 183.5 91.5t62.5 231.5t-58.5 236t-187.5 96zM362 532q0 -321 238 -321q148 0 211 125q39 84 39 196t-35 193q-59 141 -213 141q-109 0 -174.5 -83t-65.5 -251zM1444 1114q196 0 328.5 -142t132.5 -422
t-129 -430.5t-334 -150.5q-129 0 -215 66q-47 35 -92 104v-567h-11v-4h-282v567q-31 -66 -109 -118t-213 -52q-188 0 -321 151.5t-133 413.5t134 425t328 163q137 0 222 -67q49 -37 100 -125v161h2v3h272v-160q124 184 320 184z" />
    <glyph glyph-name="uni023A" unicode="&#x23a;" horiz-adv-x="1478" 
d="M1059 1735h237l-210 -714l362 -1021h-334l-94 303h-145l-152 -518h-236l152 518h-164l-100 -303h-324l527 1475h348l31 -88zM819 917l-69 220l-191 -580h155z" />
    <glyph glyph-name="uni023B" unicode="&#x23b;" horiz-adv-x="1478" 
d="M768 1239q-168 0 -264 -135t-96 -403t135 -388l270 924q-20 2 -45 2zM770 225q162 0 248 107q47 55 78 170h305q-41 -242 -206 -392.5t-421 -150.5q-51 0 -100 4l-51 -174h-236l70 236q-104 49 -183 139q-182 206 -182 576t207 581q180 180 459 180q70 0 131 -8l69 236
h238l-88 -302q116 -61 202 -184t93 -260h-307q-29 102 -74 156l-270 -914h18z" />
    <glyph glyph-name="uni023C" unicode="&#x23c;" horiz-adv-x="1138" 
d="M592 874q-226 0 -223 -344q0 -113 24 -184zM590 201q98 0 140 54t52 140h291q-10 -131 -94 -245q-133 -188 -397 -189q-51 0 -97 6l-61 -168h-236l91 242q-47 31 -84 78q-123 156 -123 421t136 420.5t378 155.5q49 0 94 -6l80 209h235l-102 -277q158 -90 182 -344h-291
q-4 20 -8 39l-203 -536h17z" />
    <glyph glyph-name="uni023D" unicode="&#x23d;" horiz-adv-x="1251" 
d="M1194 0h-1038v666l-170 -4v194h170v619h309v-619h303v-186l-303 -2v-404h729v-264z" />
    <glyph glyph-name="uni023E" unicode="&#x23e;" horiz-adv-x="1251" 
d="M1227 1475v-263h-246l-195 -407v-805h-311v154l-172 -365h-235l407 860v563h-442v263h835l121 254h238l-123 -254h123z" />
    <glyph glyph-name="uni0241" unicode="&#x241;" horiz-adv-x="1251" 
d="M612 1489q225 0 375 -107.5t150 -320.5q0 -129 -66 -219q-37 -53 -145 -137l-72 -56q-56 -45 -72 -94t-16 -555h-270q6 596 31.5 660.5t134.5 148.5l71 55q100 78 98 180q0 76 -44.5 138.5t-160.5 62.5t-165 -76.5t-49 -158.5h-289q13 284 199 403q119 76 290 76z" />
    <glyph glyph-name="uni0242" unicode="&#x242;" horiz-adv-x="1251" 
d="M1137 696q0 -129 -66 -219q-37 -53 -145 -137l-72 -55q-57 -45 -76 -105q-12 61 -12 -180h-270q6 231 31.5 295.5t134.5 148.5l71 58q100 73 98 180q0 76 -44.5 138.5t-160.5 62.5t-165 -78t-49 -160h-289q13 285 199 404q119 76 290 75q225 0 375 -107.5t150 -320.5z
" />
    <glyph glyph-name="uni0243" unicode="&#x243;" horiz-adv-x="1562" 
d="M561 1219v-326h363q98 0 158.5 37t60.5 134t-80 130q-70 25 -176 25h-326zM768 551v-203h-207v-92h363q98 0 151 27q99 47 99 173t-97 169q-53 23 -147 24h-369v-98h207zM1255 791q230 -83 230 -349q0 -129 -68 -231q-89 -151 -228.5 -181t-252.5 -30h-668v348h-211v203
h211v924h715q272 -4 385 -158q68 -94 68 -227t-68 -216q-39 -45 -113 -83z" />
    <glyph glyph-name="uni0244" unicode="&#x244;" horiz-adv-x="1703" 
d="M854 221q188 0 244 125q37 70 37 221v283h-560v-283q0 -151 35 -221q56 -125 244 -125zM1647 1051v-201h-199v-283q0 -233 -74 -364q-137 -242 -520 -242t-518 242q-74 131 -74 364v283h-205v201h205v424h313v-424h560v424h313v-424h199z" />
    <glyph glyph-name="uni0245" unicode="&#x245;" horiz-adv-x="1366" 
d="M696 1118l-319 -1118h-330l498 1475h291l503 -1475h-319z" />
    <glyph glyph-name="uni0246" unicode="&#x246;" horiz-adv-x="1366" 
d="M467 643v-250l72 250h-72zM467 899h147l93 313h-240v-313zM1245 1475v-263h-303l-90 -313h330v-256h-408l-110 -379h618v-264h-696l-64 -211h-233l61 211h-184v1475h618l74 254h238l-76 -254h225z" />
    <glyph glyph-name="uni0247" unicode="&#x247;" horiz-adv-x="1138" 
d="M784 653q-4 66 -26 113l-43 -113h69zM358 334l50 133h-74q4 -78 24 -133zM563 885q-98 0 -153.5 -63t-67.5 -169h137l86 232h-2zM256 59q-209 139 -209 449t143.5 460t372.5 150q45 0 88 -6l78 207h238l-107 -281q76 -49 127 -131q66 -97 80 -199t12 -241h-436l-100 -270
q16 -2 37 -2q135 0 194 124h293q-12 -96 -102 -196q-139 -160 -392 -160q-59 0 -114 12l-66 -176h-235z" />
    <glyph glyph-name="uni0248" unicode="&#x248;" horiz-adv-x="1138" 
d="M1143 1079v-200h-154v-430q0 -188 -63 -299q-111 -186 -397.5 -186.5t-385 150t-98.5 410.5v35h291v-35q4 -170 38 -239.5t144 -69.5t144 76q20 45 20 151v437h-170v200h170v396h307v-396h154z" />
    <glyph glyph-name="uni0249" unicode="&#x249;" horiz-adv-x="569" 
d="M430 1221h-285v262h285v-262zM61 -213q41 0 62.5 21.5t21.5 78.5v492h-157v201h157v505h285v-505h186v-201h-186v-496q0 -166 -64.5 -244.5t-254.5 -78.5q-25 0 -103 4v227q50 -4 53 -4z" />
    <glyph glyph-name="uni024A" unicode="&#x24a;" horiz-adv-x="1687" 
d="M383 738q0 -249 107.5 -384t290 -135t290.5 135q92 115 107 308v155q-14 193 -107 305q-109 135 -291 135t-289.5 -135t-107.5 -384zM1651 -225q0 -250 -11 -250q-465 0 -462 483v51q-154 -100 -398 -100q-315 0 -483 172q-223 211 -223 613t223 604q168 172 483 172
q244 0 398 -103v58h309v-1473q0 -106 20 -152q35 -75 144 -75z" />
    <glyph glyph-name="uni024B" unicode="&#x24b;" horiz-adv-x="1349" 
d="M373 543q0 -164 66.5 -253t191.5 -89t192.5 89t67.5 253t-67.5 253t-192.5 89t-191.5 -89t-66.5 -253zM1212 -440q-190 0 -254.5 78.5t-64.5 244.5v127q-111 -49 -262 -49q-283 0 -420 171t-137 409t137 410.5t420 172.5q152 0 262 -51v12h285v-1198q0 -57 21.5 -78.5
t62.5 -21.5q3 0 53 4v-227q-78 -4 -103 -4z" />
    <glyph glyph-name="uni024C" unicode="&#x24c;" horiz-adv-x="1581" 
d="M571 1219v-398h351q102 0 155 25q92 43 92 172t-90 174q-49 27 -149 27h-359zM1479 1045q0 -96 -53.5 -198t-176.5 -142q102 -41 145.5 -117t43.5 -232v-98q0 -100 9 -147t54 -74v-37h-340q-29 118 -33 207l-2 135q-2 141 -51 188.5t-184 47.5h-320v-578h-301v578h-211
v243h211v654h723q156 -4 240 -39t141 -103q105 -123 105 -288z" />
    <glyph glyph-name="uni024D" unicode="&#x24d;" horiz-adv-x="899" 
d="M772 827q-172 0 -229 -112q-31 -55 -33 -164h244v-203h-244v-348h-289v348h-178v203h178v539h273v-191q66 111 114 150q80 68 209 67l37 -2v-293q-41 6 -82 6z" />
    <glyph glyph-name="uni024E" unicode="&#x24e;" horiz-adv-x="1570" 
d="M788 831l109 238h-221zM1536 1270v-201h-322l-276 -514v-555h-307v555l-287 514h-307v201h196l-112 205h362l97 -205h409l92 205h351l-111 -205h215z" />
    <glyph glyph-name="uni024F" unicode="&#x24f;" horiz-adv-x="1353" 
d="M684 287l80 282h-164zM1329 770v-201h-299l-192 -551q-109 -311 -171.5 -384.5t-250.5 -73.5h-42t-89 4v227l37 -2q98 -5 143 27q25 16 46 70.5t17 66.5l-217 616h-252v201h183l-113 320h317l95 -320h278l90 320h303l-112 -320h229z" />
    <glyph glyph-name="uni0250" unicode="&#x250;" horiz-adv-x="1138" 
d="M737 1116q150 0 246 -85t96 -238q0 -201 -155 -291q-84 -49 -250 -72l-96 -10q-80 -10 -113 -27q-61 -25 -61 -87t46 -86.5t141 -24.5t132 44t45 105h276q-10 -141 -79 -233q-113 -145 -390 -146q-178 0 -317 72t-139 268v500q0 177 -16.5 199t-45.5 36v41h312
q20 -55 24 -127q152 162 344 162zM793 766q0 78 -40 110.5t-116 32.5t-152.5 -54t-81.5 -198v-104q55 33 132 45l63 12q90 16 129 39q66 39 66 117z" />
    <glyph glyph-name="uni0251" unicode="&#x251;" horiz-adv-x="1212" 
d="M572 868q-106 0 -166 -98t-60 -233.5t59.5 -233.5t164.5 -98t160.5 98t55.5 233.5t-54 233.5t-160 98zM59 544q0 212 122 380t313 168q90 0 159 -32t135 -102v117h287v-1075h-295v131q-123 -156 -310 -156t-299 178.5t-112 390.5z" />
    <glyph glyph-name="uni0252" unicode="&#x252;" horiz-adv-x="1212" 
d="M562 199q106 0 166 97t60 233t-59 233.5t-165 97.5t-161 -97t-55 -233t54 -233.5t160 -97.5zM639 -27q-165 0 -293 136v-117h-287v1075h295v-131q123 156 310 156q188 0 299.5 -179.5t111.5 -391.5t-122 -380t-314 -168z" />
    <glyph glyph-name="uni0253" unicode="&#x253;" horiz-adv-x="1251" 
d="M881 528q0 336 -242 336t-242 -334q0 -141 62.5 -232t181.5 -91t179.5 88t60.5 233zM514 1276h-42q-26 0 -47.5 -20.5t-21.5 -79.5v-64h5v-164q54 76 124 121t191 45q215 0 336 -154.5t121 -404.5t-120 -417t-335 -167q-135 0 -217 54q-49 33 -107 112v-137h-278v829h-4
v353q0 164 65.5 242.5t253.5 78.5l103 -2v-227q-25 2 -27 2z" />
    <glyph glyph-name="uni0254" unicode="&#x254;" horiz-adv-x="1138" 
d="M564 1116q263 0 387 -155t124 -421t-137 -422.5t-379 -156.5q-205 0 -335 92t-154 326h292q8 -61 48 -119t143 -57q226 0 224 336q-1 336 -220 338q-100 0 -142 -54.5t-50 -140.5h-291q10 131 94 248q133 186 396 186z" />
    <glyph glyph-name="uni0256" unicode="&#x256;" horiz-adv-x="1323" 
d="M844 528q0 201 -101 287q-61 51 -145 51q-125 0 -183.5 -94t-58.5 -240t59.5 -235.5t181.5 -89.5t184.5 89t62.5 232zM1159 -440q-190 0 -254.5 78.5t-64.5 244.5v254q-59 -88 -134 -130t-192 -42q-190 0 -320.5 154.5t-130.5 416.5t128 421t335 159t310 -164v521h288
v-1586q0 -57 21.5 -78.5t62.5 -21.5q4 0 54 4v-227q-78 -4 -103 -4z" />
    <glyph glyph-name="uni0257" unicode="&#x257;" horiz-adv-x="1251" 
d="M844 528q0 201 -101 287q-61 51 -145 51q-125 0 -183.5 -94t-58.5 -240t59.5 -235.5t181.5 -89.5t184.5 89t62.5 232zM1157 1516q11 0 103 -5v-227q-23 2 -26 2h-26q-43 0 -64.5 -20.5t-21.5 -77.5v-76h2v-1112h-276v152q-61 -98 -139 -142.5t-195 -44.5
q-190 0 -320.5 154.5t-130.5 416.5t128 421t335 159t310 -164v160h2v80q0 166 65.5 245t253.5 79z" />
    <glyph glyph-name="uni0258" unicode="&#x258;" horiz-adv-x="1138" 
d="M567 1118q229 0 372.5 -151t143.5 -443t-158.5 -426.5t-367.5 -134.5q-252 0 -391 160q-90 100 -103 196h291q66 -124 197 -124q84 0 141 41q98 66 105 231h-748q-3 139 13 241t84 206q132 204 421 204zM570 885q-96 0 -157 -58.5t-67 -173.5h442q-14 106 -68 169
t-150 63z" />
    <glyph glyph-name="uni0259" unicode="&#x259;" horiz-adv-x="1175" 
d="M352 418q41 -225 214 -225q88 0 169 42t90 183h-473zM582 870q-106 0 -169 -44t-77 -93h-256q61 190 188 272t307 82q252 0 396.5 -154t144.5 -398t-151.5 -403t-396.5 -159q-128 0 -228 52.5t-198 186t-81 390.5h764q-6 141 -71.5 204.5t-171.5 63.5z" />
    <glyph glyph-name="uni025A" unicode="&#x25a;" horiz-adv-x="1806" 
d="M864 489l-428 -114q35 -105 110 -147t167 -17q177 48 151 278zM1090 764q165 47 364 110q12 -45 10 -112q-2 -68 -4 -129t19 -90q20 -29 48 -37t59 2q45 14 93 110q14 -14 56 -39q42 -26 57 -40q-32 -74 -76 -113q-74 -66 -157 -72q-115 -12 -189 66t-76 198
q-41 -10 -79 -21l-76 -22q31 -205 -49 -350q-98 -182 -322 -241q-278 -76 -465 94q-86 78 -137 196q-31 68 -66 205l721 195q-49 156 -157 194q-68 26 -151 4t-124 -86q-20 -35 -31 -86l-280 -75q-16 96 45 217q94 188 338 254q201 55 389 -35q160 -76 240 -297z" />
    <glyph glyph-name="uni025B" unicode="&#x25b;" horiz-adv-x="1034" 
d="M532 885q-198 0 -198 -123v-19q4 -49 64.5 -76.5t123.5 -27.5h96v-188h-94q-72 0 -140.5 -38t-68.5 -108t58.5 -101.5t148.5 -31.5t142.5 43t64.5 113h236q-6 -45 -13 -90q-31 -104 -129.5 -183.5t-288.5 -79.5t-327 72t-137 205q0 102 44 178t111 115q-70 35 -104.5 85
t-34.5 140q0 33 9 103.5t137 145.5t310 75t271.5 -70t136.5 -244h-245q-25 57 -54 81t-119 24z" />
    <glyph glyph-name="uni025C" unicode="&#x25c;" horiz-adv-x="1034" 
d="M502 885q-88 0 -117 -23.5t-53 -81.5h-246q47 174 136.5 244t271.5 70t310 -75t137 -145.5t9 -103.5q0 -90 -34.5 -140t-104.5 -85q68 -39 112 -115t44 -178q0 -133 -137.5 -205t-327.5 -72t-288.5 79t-129.5 184l-12 90h235q12 -70 64.5 -113t142.5 -43q207 0 207 143
q0 59 -68.5 97.5t-140.5 38.5h-94v188h96q63 0 123.5 27.5t64.5 76.5v19q0 70 -56 96.5t-144 26.5z" />
    <glyph glyph-name="uni025D" unicode="&#x25d;" horiz-adv-x="1634" 
d="M946 770q0 -90 -34.5 -140t-102.5 -85q66 -39 110 -115t44 -178q0 -133 -137.5 -205t-327.5 -72t-288.5 79t-127.5 184q-6 45 -14 90h235q12 -70 65.5 -113t142.5 -43q208 0 208 143q0 59 -69.5 97.5t-139.5 38.5h-94v188h96q61 0 121.5 27.5t64.5 76.5v19q0 70 -55 96.5
t-144 26.5t-118 -23.5t-53 -81.5h-244q45 174 135.5 244t272.5 70t309 -74q35 -23 61 -41q88 27 194 57t222 68q10 -49 7 -151.5t5 -153t60 -64.5q85 -25 151 113q17 -17 56.5 -40t56.5 -40q-32 -73 -90.5 -124.5t-129.5 -58.5q-127 -12 -202.5 65.5t-75.5 197.5
q-17 -3 -170 -47v-31z" />
    <glyph glyph-name="uni025E" unicode="&#x25e;" horiz-adv-x="1099" 
d="M362 530q0 -312 220 -358h6q80 0 138 32t58 101t-68.5 107.5t-140.5 38.5l3 188q63 0 123.5 27.5t64.5 76.5v19q0 70 -53 95t-125 17q-226 0 -226 -344zM1014 770q0 -90 -35 -140t-105 -85q68 -39 112 -115t44 -178q0 -133 -137 -205t-318 -72q-262 -14 -385.5 142.5
t-123.5 422.5t137 421t377 133q159 0 288 -74q127 -76 136.5 -146.5t9.5 -103.5z" />
    <glyph glyph-name="uni025F" unicode="&#x25f;" horiz-adv-x="681" 
d="M137 -403q-52 0 -108 6v231q23 -4 80 -5t78.5 25.5t21.5 58.5v91h-189v203h189v878h283v-878h159v-203h-155v-70q0 -174 -60 -239q-61 -98 -299 -98z" />
    <glyph glyph-name="uni0260" unicode="&#x260;" horiz-adv-x="1251" 
d="M840 545q0 160 -65.5 240.5t-176.5 80.5q-150 0 -207 -141q-31 -74 -31 -176t33 -176q57 -139 207 -140q100 0 170 76t70 236zM1204 1178q-41 0 -62.5 -20.5t-21.5 -80.5v-348h-2v-674q0 -211 -71 -317q-121 -184 -467 -184q-209 0 -341.5 81.5t-146.5 245.5h309
q12 -51 39 -71q47 -39 156 -39q154 0 207 102q33 66 33 221v72q-41 -72 -88 -107q-84 -63 -222 -63q-209 0 -334.5 147.5t-125.5 394.5t120.5 412.5t343.5 165.5q82 0 144 -24q98 -41 162 -150v139q0 166 64.5 245t254.5 79l102 -2v-229q-50 4 -53 4z" />
    <glyph glyph-name="uni0261" unicode="&#x261;" horiz-adv-x="1251" 
d="M842 1090h276v-1035q0 -211 -71 -317q-121 -184 -467 -184q-209 0 -341.5 81.5t-146.5 245.5h309q12 -51 39 -71q47 -39 156 -39q154 0 207 102q33 66 33 221v72q-41 -72 -88 -107q-84 -63 -222 -63q-209 0 -334.5 147.5t-125.5 394.5t120.5 412.5t335.5 166.5t320 -183
v156zM840 545q0 160 -65.5 240.5t-176.5 80.5q-150 0 -207 -141q-31 -74 -31 -176t33 -176q57 -139 207 -140q100 0 170 76t70 236z" />
    <glyph glyph-name="uni0265" unicode="&#x265;" horiz-adv-x="1251" 
d="M133 444v641h293v-663q0 -217 176 -217q232 0 232 291v589h282v-1470h-282v522q-114 -170 -322 -170t-313 142q-45 61 -55.5 125.5t-10.5 209.5z" />
    <glyph glyph-name="uni0266" unicode="&#x266;" horiz-adv-x="1251" 
d="M506 1356q-43 0 -64.5 -20.5t-21.5 -80.5v-307q110 170 319 170q208 0 314 -141q45 -61 55 -126t10 -212v-639h-291v664q0 217 -178 217q-113 0 -171 -76t-58 -215v-590h-285v1260q0 166 64.5 244.5t255.5 78.5q24 0 102 -4v-227q-50 4 -51 4z" />
    <glyph glyph-name="uni0267" unicode="&#x267;" horiz-adv-x="1349" 
d="M1151 -440q-190 0 -255 78.5t-65 244.5v117h-4v664q0 217 -178 217q-113 0 -171 -76t-58 -215v-590h-285v1260q0 166 64.5 244.5t255.5 78.5q24 0 102 -4v-227q-50 4 -51 4q-43 0 -64.5 -20.5t-21.5 -80.5v-307q110 170 319 170q208 0 314 -141q45 -61 55 -126t10 -212
v-639h-2v-113q0 -57 21.5 -78.5t44.5 -21.5t71 4v-227q-78 -4 -102 -4z" />
    <glyph glyph-name="uni0268" unicode="&#x268;" horiz-adv-x="774" 
d="M516 1221h-289v262h289v-262zM23 823h204v267h289v-267h217v-151h-217v-672h-289v672h-204v151z" />
    <glyph glyph-name="uni0269" unicode="&#x269;" horiz-adv-x="569" 
d="M137 1075h287v-1075h-287v1075z" />
    <glyph glyph-name="uni026A" unicode="&#x26a;" horiz-adv-x="684" 
d="M47 268h139v551h-139v271h574v-271h-146v-551h146v-268h-574v268z" />
    <glyph glyph-name="uni026B" unicode="&#x26b;" horiz-adv-x="802" 
d="M535 0h-285v735h-4q-39 0 -64 -20q-23 -25 -32 -64h-132q23 102 58 156q59 88 174 94v574h285v-650h6q49 0 68.5 26t27.5 60h133q-18 -104 -71.5 -174.5t-155.5 -70.5h-8v-666z" />
    <glyph glyph-name="uni026D" unicode="&#x26d;" horiz-adv-x="624" 
d="M459 -440q-190 0 -255 78.5t-65 244.5v1592h285v-1588q0 -57 21.5 -78.5t64.5 -21.5q3 0 51 4v-227q-78 -4 -102 -4z" />
    <glyph glyph-name="uni026F" unicode="&#x26f;" horiz-adv-x="1820" 
d="M469 0q-171 0 -268 127q-47 55 -61 125t-13 174l2 688h293v-694q0 -180 160 -178q119 0 163 98q23 51 23 125v649h287v-649q0 -96 20 -141q35 -78 149 -78t156 78q23 45 23 135v655h289v-1087h-277v157q-53 -84 -100 -121q-82 -63 -211 -63t-207 55q-61 51 -92 131
q-110 -186 -336 -186z" />
    <glyph glyph-name="uni0270" unicode="&#x270;" horiz-adv-x="1820" 
d="M469 0q-171 0 -268 127q-47 55 -61 125t-13 174l2 688h293v-694q0 -180 160 -178q119 0 163 98q23 51 23 125v649h287v-649q0 -96 20 -141q35 -78 149 -78t156 78q23 45 23 135v655h289v-1499h-277v569q-53 -84 -100 -121q-82 -63 -211 -63t-207 55q-61 51 -92 131
q-110 -186 -336 -186z" />
    <glyph glyph-name="uni0271" unicode="&#x271;" horiz-adv-x="1820" 
d="M1399 694q1 178 -169 178q-110 0 -155 -98q-23 -51 -22 -125v-649h-287v649q0 96 -21 142q-37 77 -151 77t-154 -77q-23 -45 -22 -136v-655h-291v1087h279v-157q53 84 100 121q82 63 211 63t205 -55q61 -51 94 -131q107 186 336 186q167 0 268 -127q45 -55 58 -125
t14 -176l-2 -686l-9 -117q0 -166 -65.5 -244.5t-253.5 -78.5q-30 0 -102 4v227q46 -4 51 -4q43 0 64.5 21.5t21.5 78.5v648h2v159z" />
    <glyph glyph-name="uni0272" unicode="&#x272;" horiz-adv-x="1251" 
d="M69 -213q23 0 44.5 21.5t21.5 78.5v1200h275v-2h12v-139q47 72 92 105q88 65 240 65t259 -89t107 -294v-733h-291v664q0 86 -22 131q-43 84 -174 84t-187 -123q-20 -47 -24 -115v-758q0 -166 -65.5 -244.5t-256.5 -78.5q-26 0 -100 4v227q46 -4 69 -4z" />
    <glyph glyph-name="uni0273" unicode="&#x273;" horiz-adv-x="1327" 
d="M1149 -440q-190 0 -255 78.5t-65 244.5v781q0 86 -22 131q-43 84 -174 84t-187 -123q-27 -66 -26 -166v-590h-285v1087h275v-157q55 84 104 121q88 65 240 65t259 -89t107 -294v-733h-6v-113q0 -57 21.5 -78.5t44.5 -21.5t71 4v-227q-78 -4 -102 -4z" />
    <glyph glyph-name="uni0274" unicode="&#x274;" horiz-adv-x="1083" 
d="M92 1087h324l289 -643v643h286v-1087h-307l-305 662v-662h-287v1087z" />
    <glyph glyph-name="uni0275" unicode="&#x275;" horiz-adv-x="1251" 
d="M622.5 885q-124.5 0 -194.5 -90q-49 -66 -61 -174h510q-13 108 -64 174q-66 90 -190.5 90zM623 201q125 0 190 90q51 66 64 178h-510q12 -112 61 -178q70 -90 195 -90zM622.5 -39q-280.5 0 -418.5 171t-138 409t138 410.5t418.5 172.5t419 -173t138.5 -411t-138.5 -408.5
t-419 -170.5z" />
    <glyph glyph-name="uni0276" unicode="&#x276;" horiz-adv-x="1933" 
d="M1573 657q-6 236 -234 236q-66 0 -116 -29q-96 -57 -103 -207h453zM610 1114q250 0 385 -160q80 78 138 111q96 49 228 49q262 0 408 -199q57 -76 75 -177t20 -265h-746q6 -127 63 -202.5t155 -75.5t153 28.5t76 98.5h282q-18 -141 -145 -249t-365 -108q-135 0 -233 55
q-59 33 -127 103q-55 -63 -117 -98q-109 -61 -268 -62q-244 0 -386.5 160t-142.5 423t148.5 415.5t398.5 152.5zM860 543q0 156 -57 249t-207 93t-209 -146q-31 -76 -31 -222t61.5 -235t192.5 -89t190.5 97t59.5 253z" />
    <glyph glyph-name="uni0278" unicode="&#x278;" horiz-adv-x="1478" 
d="M870 238q266 41 269 301q0 137 -60 227q-63 88 -209 100v-628zM608 866q-146 -12 -208 -101t-60 -226q2 -260 268 -301v628zM608 1446h262v-342q260 -2 402 -154q139 -154 139 -408t-147.5 -390t-393.5 -152v-428h-262v428q-244 16 -392 152t-150 390q0 256 143 408
t399 154v342z" />
    <glyph glyph-name="uni0279" unicode="&#x279;" horiz-adv-x="796" 
d="M211 289q172 0 231 112q33 63 33 195v520h287v-1089h-273v188q-66 -109 -114 -147q-80 -68 -207 -68h-10q-11 0 -29 2v293q40 -6 82 -6z" />
    <glyph glyph-name="uni027A" unicode="&#x27a;" horiz-adv-x="796" 
d="M211 289q172 0 231 112q33 63 33 195v879h287v-1448h-273v188q-66 -109 -114 -147q-80 -68 -207 -68h-10q-11 0 -29 2v293q40 -6 82 -6z" />
    <glyph glyph-name="uni027B" unicode="&#x27b;" horiz-adv-x="966" 
d="M479 -117v314q-59 -94 -104 -129q-80 -68 -207 -68h-10q-11 0 -29 2v293q40 -6 82 -6q172 0 231 112q33 63 33 195v520h287v-880h2v-349q0 -57 21.5 -78.5t64.5 -21.5q3 0 51 4v-227q-78 -4 -102 -4q-190 0 -255 78.5t-65 244.5z" />
    <glyph glyph-name="uni027C" unicode="&#x27c;" horiz-adv-x="796" 
d="M682 827q-172 0 -231 -112q-33 -63 -33 -195v-905h-289v1475h272v-191q68 111 115 150q82 68 209 67l39 -2v-293q-44 6 -82 6z" />
    <glyph glyph-name="uni027D" unicode="&#x27d;" horiz-adv-x="796" 
d="M449 -440q-190 0 -255 78.5t-65 244.5v1207h272v-191q68 111 115 150q82 68 209 67l39 -2v-293q-44 6 -82 6q-172 0 -231 -112q-33 -63 -33 -195v-520h-4v-113q0 -57 21.5 -78.5t64.5 -21.5q1 0 51 4v-227q-78 -4 -102 -4z" />
    <glyph glyph-name="uni027E" unicode="&#x27e;" horiz-adv-x="569" 
d="M295 758v-758h-287v762q0 166 65.5 244.5t256.5 78.5q12 0 67.5 -11t94.5 -11v-229q-50 4 -54 4q-100 18 -121.5 -2.5t-21.5 -77.5z" />
    <glyph glyph-name="uni027F" unicode="&#x27f;" horiz-adv-x="569" 
d="M8 1063q39 0 94.5 11t67.5 11q190 0 256 -78.5t66 -244.5v-762h-285v758q0 57 -21.5 77.5t-124.5 2.5q-3 0 -53 -4v229z" />
    <glyph glyph-name="uni0280" unicode="&#x280;" horiz-adv-x="1091" 
d="M494 383h-68v-383h-305v1087h532q115 -2 177.5 -27.5t103.5 -76.5q78 -86 78 -205q0 -78 -39 -132t-129 -126q74 -31 105.5 -86t31.5 -170v-74q0 -74 7 -108t40 -55v-27h-334q-22 81 -22 152l-2 102q-2 59 -38 94t-138 35zM426 899v-252h90q78 0 117 19q68 31 67 82
q0 98 -65 133q-37 18 -111 18h-98z" />
    <glyph glyph-name="uni0281" unicode="&#x281;" horiz-adv-x="1091" 
d="M1028 1087v-26q-33 -21 -40 -55t-7 -109v-74q0 -113 -31.5 -169t-105.5 -87q90 -72 129 -126.5t39 -124.5q0 -126 -78 -212q-41 -51 -103.5 -76.5t-177.5 -27.5h-532v1087h305v-382h68q102 0 138 34.5t38 96.5l2 100q0 76 22 151h334zM524 188q74 0 111 21q66 33 65 133
q0 49 -67 82q-39 16 -117 16h-90v-252h98z" />
    <glyph glyph-name="uni0283" unicode="&#x283;" horiz-adv-x="778" 
d="M670 1315q-76 0 -105 -80q-18 -51 -24 -221l-35 -971q-8 -191 -51 -291q-80 -184 -285 -184q-98 0 -211 43l25 227q76 -39 114 -39q72 0 99 80q16 51 20 215l39 920q10 248 57 354q78 178 285 178q63 0 143 -19t70 -20l-20 -227q-81 35 -121 35z" />
    <glyph glyph-name="uni0284" unicode="&#x284;" horiz-adv-x="778" 
d="M98 -201q72 0 99 80q10 35 16 121h-229v154h235l37 860q10 248 57 354q78 178 285 178q63 0 143 -19t70 -20l-20 -227q-81 35 -121 35q-76 0 -105 -80q-18 -51 -24 -221l-31 -860h184v-154h-190q-12 -158 -49 -248q-80 -184 -285 -184q-98 0 -211 43l25 227
q76 -39 114 -39z" />
    <glyph glyph-name="uni0285" unicode="&#x285;" horiz-adv-x="876" 
d="M639 -18q-203 0 -283 102q-43 55 -51 160l-35 534q-6 92 -30 128t-88 36q-65 0 -132 -18l-20 125q-10 0 70 10t143 10q207 0 285 -96q47 -59 57 -195l39 -506q4 -90 20 -118q25 -45 83 -45t130 22l25 -125q-132 -24 -213 -24z" />
    <glyph glyph-name="uni0287" unicode="&#x287;" horiz-adv-x="681" 
d="M479 1155v-670h154v-202h-154v-306h-280v306h-179v202h179v576q0 68 -17.5 84t-103.5 16l-58 -2v213l136 4q203 8 276 -69q47 -49 47 -152z" />
    <glyph glyph-name="uni0288" unicode="&#x288;" horiz-adv-x="681" 
d="M20 877v202h152v305h283v-305h178v-202h-178v-1006q0 -68 17 -84t67 -16h39q40 0 55 2v-213l-135 -6q-203 -6 -277 69q-49 49 -49 152v1102h-152z" />
    <glyph glyph-name="uni0289" unicode="&#x289;" horiz-adv-x="1533" 
d="M725 211q230 0 227 287v82h-403v-148q-1 -92 22 -139q39 -82 154 -82zM53 580v200h203v310h293v-310h403v310h289v-310h242v-200h-242v-580h-276v154q-4 -4 -20.5 -30t-39.5 -44q-66 -59 -128 -82t-146 -23q-244 0 -328 175q-47 96 -47 282v148h-203z" />
    <glyph glyph-name="uni028A" unicode="&#x28a;" horiz-adv-x="1181" 
d="M360 510q0 -287 226 -287q233 0 233 287q0 127 -25.5 205t-115.5 159v216h434v-201h-227q188 -141 188 -387q0 -215 -127 -358.5t-348 -143.5t-356.5 144.5t-135.5 357.5q0 131 44.5 219t146.5 168h-229v201h436v-216q-92 -82 -118 -158.5t-26 -205.5z" />
    <glyph glyph-name="uni028C" unicode="&#x28c;" horiz-adv-x="1138" 
d="M332 0h-307l393 1090h301l391 -1090h-319l-228 805z" />
    <glyph glyph-name="uni028D" unicode="&#x28d;" horiz-adv-x="1593" 
d="M936 0h-291l-166 784l-170 -784h-297l318 1090h293l170 -793l174 793h295l307 -1090h-307l-170 782z" />
    <glyph glyph-name="uni028E" unicode="&#x28e;" horiz-adv-x="1138" 
d="M817 1532q39 0 129 -4v-230l-35 2q-98 5 -134 -19q-36 -23 -57.5 -76.5t-17.5 -65.5l402 -1139h-318l-237 805l-225 -805h-304l373 1071q109 311 172.5 386t251.5 75z" />
    <glyph glyph-name="uni028F" unicode="&#x28f;" horiz-adv-x="1021" 
d="M674 0h-309v412l-326 678h362l123 -476l109 476h348l-307 -678v-412z" />
    <glyph glyph-name="uni0292" unicode="&#x292;" horiz-adv-x="1128" 
d="M78 819v266h989v-225l-301 -315q90 -39 156 -115q137 -90 137 -356t-144.5 -390t-407.5 -124t-357 186q-84 117 -95 248h291q10 -86 37 -140.5t127 -54.5q141 0 195.5 74t54.5 197t-29 213q-45 47 -164 61l-2 -2l-272 2l364 475h-579z" />
    <glyph glyph-name="uni0294" unicode="&#x294;" horiz-adv-x="1251" 
d="M612 1489q225 0 375 -107.5t150 -320.5q0 -129 -66 -219q-37 -53 -145 -137l-72 -56q-56 -45 -72 -94t-16 -555h-270q6 596 31.5 660.5t134.5 148.5l71 55q100 78 98 180q0 76 -44.5 138.5t-160.5 62.5t-165 -76.5t-49 -158.5h-289q13 284 199 403q119 76 290 76z" />
    <glyph glyph-name="uni0295" unicode="&#x295;" horiz-adv-x="1251" 
d="M848 1010q0 82 -48 158.5t-166 76.5t-162 -62.5t-44 -133.5q0 -108 98 -185l72 -55q109 -84 135.5 -148.5t32.5 -660.5h-270q-2 506 -18 555t-72 94l-72 56q-109 84 -146 137q-66 90 -65 219q0 213 149.5 320.5t374.5 107.5q172 0 291 -76q186 -119 199 -403h-289z" />
    <glyph glyph-name="uni0296" unicode="&#x296;" horiz-adv-x="1251" 
d="M412 479q0 -84 49 -160.5t166 -76.5t160.5 62t43.5 134q0 113 -98 185l-71 57q-109 84 -134.5 148.5t-31.5 660.5h270q0 -508 15 -556t73 -93l72 -56q109 -84 145 -139q66 -88 66 -219q0 -211 -149.5 -318.5t-375.5 -107.5q-171 0 -290 76q-186 119 -199 403h289z" />
    <glyph glyph-name="uni0297" unicode="&#x297;" horiz-adv-x="1064" 
d="M303 303q0 -123 40 -342t179 -219q100 0 142.5 53t52.5 139h291q-10 -129 -95 -245q-135 -186 -397 -186.5t-356 221.5t-94 586t106.5 585t347.5 221q205 0 335 -92t155 -326h-291q-8 61 -41 111q-49 66 -150 65q-145 0 -185 -224t-40 -347z" />
    <glyph glyph-name="uni0298" unicode="&#x298;" horiz-adv-x="1593" 
d="M651 897h303v-299h-303v299zM808 -41q-316 0 -482 172q-226 211 -226 613t226 604q166 172 482 172t482 -172q223 -202 223 -604t-223 -613q-166 -172 -482 -172zM1206 738q0 249 -107.5 384t-290.5 135t-291.5 -135t-108.5 -384t108.5 -384t291.5 -135t290.5 135
t107.5 384z" />
    <glyph glyph-name="uni029A" unicode="&#x29a;" horiz-adv-x="1099" 
d="M330 762v-19q4 -49 64.5 -76.5t121.5 -27.5l2 -188q-70 0 -139.5 -38t-69.5 -108t58.5 -101.5t140.5 -31.5h4q222 46 219 358q0 125 -26 201q-54 143 -197 143q-74 8 -126 -18t-52 -94zM1030 540q0 -266 -124 -422.5t-388 -142.5q-178 0 -315 72t-137 205q0 102 44 178
t109 115q-68 35 -102.5 85t-34.5 140q0 33 8 103.5t136 145.5t288 75q242 23 379 -132.5t137 -421.5z" />
    <glyph glyph-name="uni029C" unicode="&#x29c;" horiz-adv-x="1323" 
d="M154 0v1075h305v-379h436v379h305v-1075h-305v479h-436v-479h-305z" />
    <glyph glyph-name="uni029E" unicode="&#x29e;" horiz-adv-x="1138" 
d="M1133 -385h-281v795l-354 -410h-355l381 416l-395 667h344l260 -465l119 123v342h281v-1468z" />
    <glyph glyph-name="uni029F" unicode="&#x29f;" horiz-adv-x="1087" 
d="M156 1087h309v-823h528v-264h-837v1087z" />
    <glyph glyph-name="uni02A0" unicode="&#x2a0;" horiz-adv-x="1251" 
d="M356 532q0 -321 240 -321q146 0 209 125q39 84 39 196t-33 193q-61 141 -215 141q-109 0 -174.5 -83t-65.5 -251zM1153 1442q26 0 102 -4v-228q-25 2 -27 2h-26q-41 0 -62.5 -20.5t-21.5 -79.5v-1544h-282v567q-31 -66 -109 -118t-213 -52q-188 0 -321.5 151.5
t-133.5 413.5t134.5 425t328.5 163q137 0 221 -67q43 -33 91 -109v176q0 164 64.5 244t254.5 80z" />
    <glyph glyph-name="uni02A1" unicode="&#x2a1;" horiz-adv-x="1251" 
d="M272 373h230q10 246 24 286q27 66 136 150l71 55q100 78 98 180q0 76 -44.5 138.5t-160.5 62.5t-165 -76.5t-49 -158.5h-289q12 285 199 403q119 76 290 76q225 0 375 -107.5t150 -320.5q0 -129 -66 -219q-37 -53 -145 -137l-72 -56q-57 -45 -76 -104q-8 -20 -10 -172
h215v-152h-217v-221h-270q0 121 2 221h-226v152z" />
    <glyph glyph-name="uni02A2" unicode="&#x2a2;" horiz-adv-x="1251" 
d="M987 221h-225q2 -100 4 -221h-270q0 125 -2 221h-218v152h216q-2 152 -11 172q-18 59 -75 104l-72 56q-109 84 -146 137q-66 90 -65 219q0 213 149.5 320.5t374.5 107.5q172 0 291 -76q186 -119 199 -403h-289q0 82 -48 158.5t-166 76.5t-162 -62.5t-44 -133.5
q0 -108 98 -185l72 -55q109 -83 130 -137t30 -299h229v-152z" />
    <glyph glyph-name="uni02A3" unicode="&#x2a3;" horiz-adv-x="2048" 
d="M1124 858v-555l490 555h-490zM844 528q0 201 -101 287q-61 51 -145 51q-125 0 -183.5 -94t-58.5 -240t59.5 -235.5t181.5 -89.5t184.5 89t62.5 232zM836 1473h288v-383h852v-236l-553 -621h572v-233h-1147v152q-61 -98 -139 -142.5t-195 -44.5q-190 0 -320.5 154.5
t-130.5 416.5t128 421t344 159q100 0 177 -44t124 -120v521z" />
    <glyph glyph-name="uni02A4" unicode="&#x2a4;" horiz-adv-x="2080" 
d="M809 528q0 201 -102 287q-61 51 -144 51q-125 0 -183 -94t-58 -240t59 -235.5t180 -89.5t184.5 89t63.5 232zM490 1116q205 0 311 -164v521h289v-388h948v-225l-303 -315q90 -39 155 -115q138 -90 138 -356t-144.5 -390t-407.5 -124t-358 186q-84 117 -94 248h293
q8 -86 34.5 -140.5t127.5 -54.5q141 0 195.5 74t54.5 197t-27 213q-47 47 -166 61v-2l-274 2l364 475h-536v-819h-279v152q-59 -98 -137 -142.5t-195 -44.5q-190 0 -321 154.5t-131 416.5t129 421t334 159z" />
    <glyph glyph-name="uni02A6" unicode="&#x2a6;" horiz-adv-x="1611" 
d="M1235 282.5q0 49.5 -40 73.5t-298 86q-184 45 -260 114t-76 198q0 66 23 123h-129v-576q0 -68 16 -83t84 -17q-27 68 -27 147h289q8 -76 39 -108q53 -57 197 -58q84 0 133 25.5t49 75zM1028 903q-182 0 -182 -101q0 -44 42 -67t296 -80q340 -78 340 -325
q0 -162 -121 -264.5t-376 -102.5t-378 109l-16 16v-98l-135 -4q-203 -8 -277 69q-49 49 -49 152v670h-152v202h152v305h283v-305h178v-118q119 160 381 159q203 0 332 -81t147 -281h-285q-6 55 -30 88q-46 57 -150 57z" />
    <glyph glyph-name="uni02A7" unicode="&#x2a7;" horiz-adv-x="1243" 
d="M455 301q0 -68 17 -84t67 -16h73l27 676h-184v-576zM1059 1315q-76 0 -105 -80q-16 -51 -22 -221l-37 -971q-8 -191 -51 -291q-80 -184 -283 -184q-102 0 -211 43l25 227q72 -39 112 -39q74 0 99 80q10 33 16 111l-104 -4q-203 -8 -277 69q-49 49 -49 152v670h-152v202
h152v305h283v-305h194q12 199 56 289q76 178 284 178q61 0 141 -19t70 -20l-20 -227q-77 35 -121 35z" />
    <glyph glyph-name="uni02A9" unicode="&#x2a9;" horiz-adv-x="1712" 
d="M1261 -213q23 0 44.5 21.5t21.5 78.5v113h-6v664q0 86 -23 131q-43 84 -159 84q-228 0 -228 -289v-590h-284v879h-162v-879h-285v879h-160v200h156v72q0 174 60 240q63 98 299 98q53 0 108 -6v-232q-23 2 -79 4t-77.5 -24.5t-21.5 -59.5v-92h162v8h274v-157
q55 84 105 121q88 65 240 65t260 -89t108 -294v-850q0 -166 -65.5 -244.5t-256.5 -78.5q-26 0 -100 4v227q46 -4 69 -4z" />
    <glyph glyph-name="uni02AA" unicode="&#x2aa;" horiz-adv-x="1406" 
d="M1042 282.5q0 49.5 -40 73.5t-297 86q-184 45 -261 115q-12 8 -20 21v-230h201q8 -76 39 -108q53 -57 194 -58q84 0 134 25.5t50 75zM838 -37q-296 0 -414 141v-104h-285v1475h285v-535q116 181 395 180q205 0 333 -81t148 -281h-284q-16 145 -193 145q-92 0 -132 -28.5
t-40 -72.5t42 -67t298 -80q338 -78 338 -325q0 -162 -119.5 -264.5t-371.5 -102.5z" />
    <glyph glyph-name="uni02AB" unicode="&#x2ab;" horiz-adv-x="1366" 
d="M424 858v-555l487 555h-487zM139 1475h285v-385h850v-236l-553 -621h571v-233h-1153v1475z" />
    <glyph glyph-name="uni02AC" unicode="&#x2ac;" horiz-adv-x="907" 
d="M369 1475h166l94 -449l96 449h170l-180 -621h-168l-96 453l-101 -453h-168l-174 621h174l97 -447zM369 621h166l94 -447l96 447h170l-180 -621h-168l-96 453l-101 -453h-168l-174 621h174l97 -445z" />
    <glyph glyph-name="uni02AD" unicode="&#x2ad;" horiz-adv-x="1204" 
d="M1141 1382v-551h-158v349h-754v-349h-155v551h1067zM1141 553v-553h-158v350h-754v-350h-155v553h1067z" />
    <glyph glyph-name="uni02AE" unicode="&#x2ae;" horiz-adv-x="1251" 
d="M49 1198q-1 0 -51 -4v229l102 2q190 0 255 -78.5t65 -242.5v-19h6v-663q0 -217 176 -217q232 0 232 291v589h282v-1470h-282v522q-114 -170 -322 -170t-313 142q-45 61 -55.5 125.5t-10.5 209.5v641h2v13q0 59 -21.5 79.5t-64.5 20.5z" />
    <glyph glyph-name="uni02AF" unicode="&#x2af;" horiz-adv-x="1251" 
d="M1155 -440q-188 0 -253.5 78.5t-65.5 244.5v33h-2v221q-114 -170 -322 -170t-313 142q-45 61 -55.5 125.5t-10.5 209.5v641h2v13q0 59 -21.5 79.5t-64.5 20.5q-1 0 -51 -4v229l102 2q190 0 255 -78.5t65 -242.5v-19h6v-663q0 -217 176 -217q232 0 232 291v589h282v-849h4
v-349q0 -57 21.5 -78.5t46.5 -21.5t69 4v-227q-74 -4 -102 -4z" />
    <glyph glyph-name="uni02B0" unicode="&#x2b0;" horiz-adv-x="626" 
d="M211 1204q55 84 159 84q103 0 156 -69q23 -31 28 -64t5 -104v-322h-145v334q0 110 -88 108q-115 0 -115 -147v-295h-143v735h143v-260z" />
    <glyph glyph-name="uni02B1" unicode="&#x2b1;" horiz-adv-x="626" 
d="M211 1024v-295h-143v631q0 84 32.5 123t126.5 39h17q16 0 35 -2v-113h-30q-38 0 -38 -49v-154q55 84 159 84q103 0 156 -69q23 -31 28 -64t5 -104v-322h-145v334q0 110 -88 108q-115 0 -115 -147z" />
    <glyph glyph-name="uni02B2" unicode="&#x2b2;" horiz-adv-x="284" 
d="M4 625h30q40 0 40 49v600h141v-602q0 -82 -31.5 -122t-128.5 -40l-51 2v113zM215 1339h-141v134h141v-134z" />
    <glyph glyph-name="uni02B3" unicode="&#x2b3;" horiz-adv-x="399" 
d="M342 1145q-86 0 -117 -58q-16 -31 -16 -96v-262h-143v547h135v-96q33 56 65 82t96 26h6q5 0 15 -2v-145q-28 4 -41 4z" />
    <glyph glyph-name="uni02B4" unicode="&#x2b4;" horiz-adv-x="399" 
d="M238 1288h143v-545h-135v95q-33 -53 -66 -81t-96 -28l-18 2v146l40 -3q86 0 115 58q16 31 17 96v260z" />
    <glyph glyph-name="uni02B5" unicode="&#x2b5;" horiz-adv-x="483" 
d="M421 625h30v-113l-52 -2q-94 0 -126.5 40t-32.5 122v157q-29 -47 -52 -65q-41 -35 -104 -35l-18 2v146l40 -3q86 0 115 58q16 31 17 96v260h143v-440h2v-174q0 -31 10 -40t28 -9z" />
    <glyph glyph-name="uni02B6" unicode="&#x2b6;" horiz-adv-x="774" 
d="M475 1366q0 56 19 109h235v-21q-23 -12 -28 -36t-5 -79v-53q0 -80 -22.5 -120t-75.5 -60q63 -51 92 -90t29 -89q0 -87 -55 -151q-31 -37 -75 -55.5t-124 -18.5h-379v773h215v-273h49q72 0 97.5 24.5t27.5 67.5v72zM373 836q53 0 78 14q47 25 47 94q0 37 -49 57
q-27 12 -82 13h-66v-178h72z" />
    <glyph glyph-name="uni02B7" unicode="&#x2b7;" horiz-adv-x="796" 
d="M324 1276h145l82 -393l86 393h147l-157 -547h-148l-84 397l-88 -397h-147l-154 547h154l86 -391z" />
    <glyph glyph-name="uni02B8" unicode="&#x2b8;" horiz-adv-x="569" 
d="M88 625h18q47 -5 65.5 7.5t30 40t9.5 34.5l-201 569h160l119 -404l112 404h152l-188 -537q-53 -156 -85 -192.5t-126 -36.5h-20q-21 0 -46 2v113z" />
    <glyph glyph-name="uni02B9" unicode="&#x2b9;" horiz-adv-x="681" 
d="M684 1473l-303 -599h-207l193 599h317z" />
    <glyph glyph-name="uni02BA" unicode="&#x2ba;" horiz-adv-x="1249" 
d="M1194 1473l-303 -599h-207l193 599h317zM684 1473l-303 -599h-207l193 599h317z" />
    <glyph glyph-name="uni02BB" unicode="&#x2bb;" horiz-adv-x="569" 
d="M137 1137q0 292 281 352v-105q-104 -31 -137 -112q-20 -43 -17 -82h158v-264h-285v211z" />
    <glyph glyph-name="uni02BC" unicode="&#x2bc;" horiz-adv-x="569" 
d="M131 1206v262h287v-211q0 -150 -74 -236.5t-207 -113.5v105q98 31 135 104q20 45 17 90h-158z" />
    <glyph glyph-name="uni02BD" unicode="&#x2bd;" horiz-adv-x="569" 
d="M131 1257v211h287v-262h-158q-4 -45 16 -90q37 -74 136 -104v-105q-133 27 -207 114t-74 236z" />
    <glyph glyph-name="uni02BE" unicode="&#x2be;" horiz-adv-x="419" 
d="M111 1563v98q90 0 154.5 -63.5t64.5 -153.5t-64.5 -154.5t-154.5 -66.5l2 102q49 1 83 35t33.5 83.5t-35 84.5t-83.5 35z" />
    <glyph glyph-name="uni02BF" unicode="&#x2bf;" horiz-adv-x="419" 
d="M111 1444q0 90 64.5 153.5t154.5 63.5v-98q-49 0 -84 -35t-34.5 -84.5t34.5 -83.5t82 -35l2 -102q-90 2 -154.5 66.5t-64.5 154.5z" />
    <glyph glyph-name="uni02C0" unicode="&#x2c0;" horiz-adv-x="626" 
d="M320 1475q100 0 174.5 -54.5t74.5 -158.5q0 -66 -26 -102t-80 -79l-35 -26q-29 -23 -37 -47t-8 -279h-135q4 299 16 331t68 75l35 28q47 31 48 79t-21 80t-80 32t-82.5 -39t-24.5 -80h-146q12 240 259 240z" />
    <glyph glyph-name="uni02C1" unicode="&#x2c1;" horiz-adv-x="626" 
d="M424 1235q0 41 -23.5 80t-83 39t-82 -32t-22.5 -77t49 -82l37 -28q55 -43 68.5 -75t15.5 -331h-135q0 255 -8 279t-37 47l-35 26q-55 43 -81 79t-26 102q0 104 74.5 158.5t174.5 54.5q248 0 259 -240h-145z" />
    <glyph glyph-name="uni02C2" unicode="&#x2c2;" horiz-adv-x="598" 
d="M12 1065l588 223v-137l-420 -150l420 -149v-139l-588 225v127z" />
    <glyph glyph-name="uni02C3" unicode="&#x2c3;" horiz-adv-x="598" 
d="M600 938l-588 -225v139l420 149l-420 150v137l588 -223v-127z" />
    <glyph glyph-name="uni02C4" unicode="&#x2c4;" horiz-adv-x="598" 
d="M371 1296l225 -589h-139l-150 421l-149 -421h-140l226 589h127z" />
    <glyph glyph-name="uni02C5" unicode="&#x2c5;" horiz-adv-x="598" 
d="M244 707l-226 589h140l149 -422l150 422h139l-225 -589h-127z" />
    <glyph glyph-name="circumflex" unicode="&#x2c6;" horiz-adv-x="530" 
d="M133 1481h266l226 -291h-240l-127 166l-131 -166h-219z" />
    <glyph glyph-name="caron" unicode="&#x2c7;" horiz-adv-x="530" 
d="M399 1190h-266l-225 291h227l131 -166l133 166h226z" />
    <glyph glyph-name="uni02C8" unicode="&#x2c8;" horiz-adv-x="681" 
d="M422 1458v-311h-154v311h154z" />
    <glyph glyph-name="uni02C9" unicode="&#x2c9;" horiz-adv-x="530" 
d="M-96 1421h723v-153h-723v153z" />
    <glyph glyph-name="uni02CA" unicode="&#x2ca;" horiz-adv-x="681" 
d="M684 1536l-303 -299h-207l193 299h317z" />
    <glyph glyph-name="uni02CB" unicode="&#x2cb;" horiz-adv-x="681" 
d="M516 1237h-207l-303 299h318z" />
    <glyph glyph-name="uni02CC" unicode="&#x2cc;" horiz-adv-x="681" 
d="M422 -141v-312h-154v312h154z" />
    <glyph glyph-name="uni02CD" unicode="&#x2cd;" horiz-adv-x="681" 
d="M-10 -147h710v-152h-710v152z" />
    <glyph glyph-name="uni02CE" unicode="&#x2ce;" horiz-adv-x="681" 
d="M516 -362h-207l-303 299h318z" />
    <glyph glyph-name="uni02CF" unicode="&#x2cf;" horiz-adv-x="681" 
d="M684 -63l-303 -299h-207l193 299h317z" />
    <glyph glyph-name="uni02D0" unicode="&#x2d0;" horiz-adv-x="425" 
d="M410 1083v-94l-146 -289h-92l-145 289v94h383zM27 0v92l143 291h94l146 -291v-92h-383z" />
    <glyph glyph-name="uni02D1" unicode="&#x2d1;" horiz-adv-x="425" 
d="M410 883v-92l-146 -291h-92l-145 291v92h383z" />
    <glyph glyph-name="uni02D2" unicode="&#x2d2;" horiz-adv-x="419" 
d="M111 762v98q90 0 154.5 -63.5t64.5 -153.5t-64.5 -153.5t-154.5 -65.5l2 100q49 2 83 36t33.5 83t-35 84t-83.5 35z" />
    <glyph glyph-name="uni02D3" unicode="&#x2d3;" horiz-adv-x="419" 
d="M111 643q0 90 64.5 153.5t154.5 63.5v-98q-49 0 -84 -35t-34.5 -84t34.5 -83t82 -36l2 -100q-90 2 -154.5 65.5t-64.5 153.5z" />
    <glyph glyph-name="uni02D4" unicode="&#x2d4;" horiz-adv-x="598" 
d="M37 2v129h205v410h131v-410h205v-129h-205v-2h-131v2h-205z" />
    <glyph glyph-name="uni02D5" unicode="&#x2d5;" horiz-adv-x="598" 
d="M578 539v-129h-205v-410h-131v410h-205v129h205v2h131v-2h205z" />
    <glyph glyph-name="uni02D6" unicode="&#x2d6;" horiz-adv-x="598" 
d="M37 207v129h205v205h131v-205h205v-129h-205v-207h-131v207h-205z" />
    <glyph glyph-name="uni02D7" unicode="&#x2d7;" horiz-adv-x="681" 
d="M47 553h574v-135h-574v135z" />
    <glyph glyph-name="breve" unicode="&#x2d8;" horiz-adv-x="530" 
d="M256 1343q191 0 225 146h129q-20 -160 -115.5 -229.5t-248.5 -69.5q-299 0 -324 299h131q16 -110 94 -128t109 -18z" />
    <glyph glyph-name="dotaccent" unicode="&#x2d9;" horiz-adv-x="530" 
d="M403 1513v-239h-276v239h276z" />
    <glyph glyph-name="ring" unicode="&#x2da;" horiz-adv-x="530" 
d="M135 1343.5q0 -59.5 35 -101.5t94.5 -42t95 42t35.5 101.5t-35.5 101.5t-95 42t-94.5 -42t-35 -101.5zM87.5 1521.5q73.5 71.5 176.5 71.5q104 0 178 -71.5t74 -177.5t-74 -178t-178 -72t-177 72t-73 178t73.5 177.5z" />
    <glyph glyph-name="ogonek" unicode="&#x2db;" horiz-adv-x="530" 
d="M319 -416q-262 0 -262 193q0 122 109.5 192.5t245.5 75.5l10 -45q-99 -4 -147 -54t-48 -100q0 -51 12.5 -71.5t38 -37t75.5 -16.5t98 13v-123q-63 -27 -132 -27z" />
    <glyph glyph-name="tilde" unicode="&#x2dc;" horiz-adv-x="530" 
d="M111 1325q-69 0 -93 -100h-129q22 172 104.5 218t129.5 46q68 0 161 -44t134 -44t61.5 20.5t30.5 67.5h131q-23 -124 -74 -194t-155 -70q-72 0 -164 50t-137 50z" />
    <glyph glyph-name="hungarumlaut" unicode="&#x2dd;" horiz-adv-x="530" 
d="M-113 1190l185 291h321l-305 -291h-201zM309 1190l187 291h321l-305 -291h-203z" />
    <glyph glyph-name="uni02DE" unicode="&#x2de;" horiz-adv-x="847" 
d="M18 729l471 145q12 -48 10.5 -114t-4 -150t65.5 -104q72 -20 106.5 34t47.5 78q10 -12 25.5 -21t29.5 -18.5t28.5 -18.5t26.5 -21q-28 -73 -88.5 -127t-142.5 -58q-116 -12 -190 67.5t-74 196.5q-58 -14 -146.5 -41t-165.5 -38v190z" />
    <glyph glyph-name="uni02DF" unicode="&#x2df;" horiz-adv-x="598" 
d="M479 1266l92 -92l-172 -173l172 -172l-92 -94l-172 172l-172 -172l-92 94l172 172l-172 173l92 92l172 -172z" />
    <glyph glyph-name="uni02E0" unicode="&#x2e0;" horiz-adv-x="569" 
d="M358 528h-147v201l-193 535h158l107 -332h2l108 332h158l-193 -535v-201z" />
    <glyph glyph-name="uni02E1" unicode="&#x2e1;" horiz-adv-x="284" 
d="M213 729h-143v737h143v-737z" />
    <glyph glyph-name="uni02E2" unicode="&#x2e2;" horiz-adv-x="569" 
d="M373 1110q-5 72 -94 72t-89 -50q0 -22 22 -34t128 -36t148 -64q42 -42 42 -114t-60 -121.5t-187 -49.5t-188.5 53t-61.5 137h143q6 -37 27 -59t101 -23q80 0 81 51q0 23 -19 36t-149 42q-92 25 -130 59q-38 33 -38 103t59.5 124t163.5 54q227 0 242 -180h-141z" />
    <glyph glyph-name="uni02E3" unicode="&#x2e3;" horiz-adv-x="569" 
d="M12 729l187 277l-179 268h175l92 -158l88 158h170l-178 -264l186 -281h-178l-94 166l-95 -166h-174z" />
    <glyph glyph-name="uni02E4" unicode="&#x2e4;" horiz-adv-x="626" 
d="M424 1235q0 41 -23.5 80t-83 39t-82 -32t-22.5 -77t49 -82l37 -28q55 -43 68.5 -75t15.5 -331h-135q0 255 -8 279t-37 47l-35 26q-55 43 -81 79t-26 102q0 104 74.5 158.5t174.5 54.5q248 0 259 -240h-145z" />
    <glyph glyph-name="uni02E5" unicode="&#x2e5;" horiz-adv-x="972" 
d="M641 0v1204h-633v271h903v-1475h-270z" />
    <glyph glyph-name="uni02E6" unicode="&#x2e6;" horiz-adv-x="962" 
d="M633 0v903h-633v271h633v301h268v-1475h-268z" />
    <glyph glyph-name="uni02E7" unicode="&#x2e7;" horiz-adv-x="962" 
d="M633 0v602h-633v270h633v603h268v-1475h-268z" />
    <glyph glyph-name="uni02E8" unicode="&#x2e8;" horiz-adv-x="962" 
d="M901 1475v-1475h-268v299h-633v270h633v906h268z" />
    <glyph glyph-name="uni02E9" unicode="&#x2e9;" horiz-adv-x="972" 
d="M911 1475v-1475h-903v270h633v1205h270z" />
    <glyph glyph-name="uni02EA" unicode="&#x2ea;" horiz-adv-x="606" 
d="M61 1087h136v-983h407v-104h-543v1087z" />
    <glyph glyph-name="uni02EB" unicode="&#x2eb;" horiz-adv-x="604" 
d="M61 1087h136v-491h407v-104h-407v-492h-136v1087z" />
    <glyph glyph-name="uni02EC" unicode="&#x2ec;" horiz-adv-x="681" 
d="M217 -362l-233 299h231l131 -170l129 170h234l-236 -299h-256z" />
    <glyph glyph-name="uni02ED" unicode="&#x2ed;" horiz-adv-x="681" 
d="M-10 1153h710v-152h-710v152zM-10 1452h710v-152h-710v152z" />
    <glyph glyph-name="uni02EE" unicode="&#x2ee;" horiz-adv-x="1024" 
d="M152 1206v262h284v-211q0 -295 -280 -350v105q100 33 137 110q18 41 14 84h-155zM778 1206h-155v262h284v-211q0 -296 -278 -350v105q149 45 149 194z" />
    <glyph glyph-name="uni02EF" unicode="&#x2ef;" horiz-adv-x="598" 
d="M244 -494l-226 590h140l149 -422l150 422h139l-225 -590h-127z" />
    <glyph glyph-name="uni02F0" unicode="&#x2f0;" horiz-adv-x="598" 
d="M371 96l225 -590h-139l-150 422l-149 -422h-140l226 590h127z" />
    <glyph glyph-name="uni02F1" unicode="&#x2f1;" horiz-adv-x="598" 
d="M12 -135l588 223v-137l-420 -150l420 -149v-139l-588 225v127z" />
    <glyph glyph-name="uni02F2" unicode="&#x2f2;" horiz-adv-x="598" 
d="M600 -262l-588 -225v139l420 149l-420 150v137l588 -223v-127z" />
    <glyph glyph-name="uni02F3" unicode="&#x2f3;" horiz-adv-x="681" 
d="M341 61q89 0 153.5 -64.5t64.5 -154.5t-64.5 -153.5t-153.5 -63.5t-153.5 63.5t-64.5 153.5t64.5 154.5t153.5 64.5zM341 -274q48 0 83 33.5t35 82.5t-35 84t-83 35t-84 -35t-36 -84t36 -82.5t84 -33.5z" />
    <glyph glyph-name="uni02F4" unicode="&#x2f4;" horiz-adv-x="681" 
d="M516 616h-207l-303 299h318z" />
    <glyph glyph-name="uni02F5" unicode="&#x2f5;" horiz-adv-x="681" 
d="M741 915l150 -290h-197l-243 290h290zM453 625h-197l-244 290h291z" />
    <glyph glyph-name="uni02F6" unicode="&#x2f6;" horiz-adv-x="681" 
d="M453 915l-244 -290h-197l150 290h291zM600 915h291l-244 -290h-196z" />
    <glyph glyph-name="uni02F7" unicode="&#x2f7;" horiz-adv-x="681" 
d="M195 86q-74 0 -97 -86h-129q23 104 58 158q63 94 188 94q41 0 98 -19l95 -34q41 -14 54 -18.5t45 -4.5q56 0 81 86h133q-18 -104 -71.5 -176t-157.5 -72q-34 0 -150 33l-82 29q-27 10 -65 10z" />
    <glyph glyph-name="uni02F8" unicode="&#x2f8;" horiz-adv-x="681" 
d="M231 725h304v-299h-304v299zM231 1475h304v-299h-304v299z" />
    <glyph glyph-name="uni02F9" unicode="&#x2f9;" horiz-adv-x="681" 
d="M190 1479h302v-105h-166v-506h-136v611z" />
    <glyph glyph-name="uni02FA" unicode="&#x2fa;" horiz-adv-x="681" 
d="M492 868h-136v506h-166v105h302v-611z" />
    <glyph glyph-name="uni02FB" unicode="&#x2fb;" horiz-adv-x="681" 
d="M190 610h136v-506h166v-104h-302v610z" />
    <glyph glyph-name="uni02FC" unicode="&#x2fc;" horiz-adv-x="681" 
d="M492 0h-302v104h166v506h136v-610z" />
    <glyph glyph-name="uni02FD" unicode="&#x2fd;" horiz-adv-x="681" 
d="M37 -2v301h102v-166h404v166h104v-301h-610z" />
    <glyph glyph-name="uni02FE" unicode="&#x2fe;" horiz-adv-x="681" 
d="M37 -2v301h102v-166h508v-135h-610z" />
    <glyph glyph-name="uni02FF" unicode="&#x2ff;" horiz-adv-x="1218" 
d="M608 303h600v-151h-600v-146l-590 223l590 226v-152z" />
    <glyph glyph-name="gravecmb" unicode="&#x300;" 
d="M-303 1608l217 -363h-203l-334 363h320z" />
    <glyph glyph-name="acutecmb" unicode="&#x301;" 
d="M119 1608l-334 -363h-203l217 363h320z" />
    <glyph glyph-name="circumflexcmb" unicode="&#x302;" 
d="M-393 1481h266l225 -291h-239l-127 166l-131 -166h-219z" />
    <glyph glyph-name="tildecmb" unicode="&#x303;" 
d="M-416 1325q-69 0 -92 -100h-129q22 172 144 240q43 24 103 24t152 -44t131 -44q40 0 60 20t31 68h131q-23 -122 -59 -172q-67 -92 -171 -92q-73 0 -165 50q-93 50 -136 50z" />
    <glyph glyph-name="macroncmb" unicode="&#x304;" 
d="M121 1415v-153h-762v153h762z" />
    <glyph glyph-name="uni0305" unicode="&#x305;" 
d="M-981 1452h713v-152h-713v152z" />
    <glyph glyph-name="brevecmb" unicode="&#x306;" 
d="M-281 1190q-299 0 -323 299h131q21 -140 203 -146q189 0 225 146h129q-20 -159 -116 -229t-249 -70z" />
    <glyph glyph-name="dotaccentcmb" unicode="&#x307;" 
d="M-123 1513v-239h-276v239h276z" />
    <glyph glyph-name="dieresiscmb" unicode="&#x308;" 
d="M88 1462v-239h-276v239h276zM-334 1462v-239h-274v239h274z" />
    <glyph glyph-name="uni0309" unicode="&#x309;" 
d="M-534 1636q86 0 160.5 -37.5t74.5 -115.5q0 -135 -164 -172l-4 -88h-125v129q72 6 110 34.5t38 69.5q0 61 -127 62q-42 0 -78 -9l-6 117q35 10 121 10z" />
    <glyph glyph-name="ringcmb" unicode="&#x30a;" 
d="M-391 1343q0 -59 35 -101t94 -42t95 42t36 101t-36 101t-95 43q-59 -1 -94 -43t-35 -101zM-84 1166q-74 -72 -179 -72t-177 72t-72 179q0 106 72 177t177 71q104 0 178 -71q73 -71 74 -178q1 -106 -73 -178z" />
    <glyph glyph-name="hungarumlautcmb" unicode="&#x30b;" 
d="M-639 1190l184 291h322l-305 -291h-201zM-217 1190l186 291h322l-305 -291h-203z" />
    <glyph glyph-name="caroncmb" unicode="&#x30c;" 
d="M-127 1190h-266l-225 291h227l131 -166l133 166h225z" />
    <glyph glyph-name="uni030D" unicode="&#x30d;" 
d="M-549 1458v-311h-151v311h151z" />
    <glyph glyph-name="uni030E" unicode="&#x30e;" 
d="M-385 1458v-311h-152v311h152zM-715 1458v-311h-151v311h151z" />
    <glyph glyph-name="uni030F" unicode="&#x30f;" 
d="M-334 1536l150 -293h-197l-244 293h291zM-625 1243h-194l-246 293h293z" />
    <glyph glyph-name="uni0310" unicode="&#x310;" 
d="M-758 1794h260v-235h-260v235zM-281 1536q-23 -299 -342 -299t-348 299h135q22 -143 211.5 -143t208.5 143h135z" />
    <glyph glyph-name="uni0311" unicode="&#x311;" 
d="M-623.5 1382q-188.5 0 -212.5 -145h-135q27 299 347 299t343 -299h-135q-19 145 -207.5 145z" />
    <glyph glyph-name="uni0312" unicode="&#x312;" 
d="M-768 1137q0 292 281 352v-105q-102 -31 -138 -112q-18 -43 -14 -82h156v-264h-285v211z" />
    <glyph glyph-name="uni0313" unicode="&#x313;" 
d="M-768 1206v262h287v-211q0 -150 -74 -236.5t-207 -113.5v105q98 31 135 104q20 45 17 90h-158z" />
    <glyph glyph-name="uni0314" unicode="&#x314;" 
d="M-768 1278v211h285v-264h-156q-4 -39 14 -82q35 -82 138 -113v-104q-281 56 -281 352z" />
    <glyph glyph-name="uni0315" unicode="&#x315;" 
d="M-768 1206v262h287v-211q0 -150 -74 -236.5t-207 -113.5v105q98 31 135 104q20 45 17 90h-158z" />
    <glyph glyph-name="uni0316" unicode="&#x316;" 
d="M-371 -362h-204l-304 299h318z" />
    <glyph glyph-name="uni0317" unicode="&#x317;" 
d="M-371 -63l-303 -299h-207l193 299h317z" />
    <glyph glyph-name="uni0318" unicode="&#x318;" 
d="M-487 -362h-408v131h408v204h131v-540h-131v205z" />
    <glyph glyph-name="uni0319" unicode="&#x319;" 
d="M-764 -567h-131v540h131v-204h408v-131h-408v-205z" />
    <glyph glyph-name="uni031A" unicode="&#x31a;" 
d="M-354 1413v-364h-131v233h-410v131h541z" />
    <glyph glyph-name="uni031B" unicode="&#x31b;" 
d="M-885 963q63 18 132 11t159 38l-86 149l258 150l154 -269l-224 -129q-154 -86 -276 -59q-76 16 -137.5 23.5t-75.5 29.5z" />
    <glyph glyph-name="uni031C" unicode="&#x31c;" 
d="M-733 -158q0 90 63.5 154.5t153.5 64.5v-100q-49 0 -84 -35t-34.5 -84t34.5 -82t82 -34l2 -103q-90 2 -153.5 65.5t-63.5 153.5z" />
    <glyph glyph-name="uni031D" unicode="&#x31d;" 
d="M-690 -434v405h131v-405h205v-131h-541v131h205z" />
    <glyph glyph-name="uni031E" unicode="&#x31e;" 
d="M-895 -160v131h541v-131h-205v-405h-131v405h-205z" />
    <glyph glyph-name="uni031F" unicode="&#x31f;" 
d="M-895 -360v131h205v204h131v-204h205v-131h-205v-205h-131v205h-205z" />
    <glyph glyph-name="uni0320" unicode="&#x320;" 
d="M-981 -147h713v-152h-713v152z" />
    <glyph glyph-name="uni0321" unicode="&#x321;" 
d="M-718 -395h13q23 0 33 10t10 39v369h144v-371q0 -82 -33 -122t-129 -40h-16q-15 0 -33 2v115q10 -2 11 -2z" />
    <glyph glyph-name="uni0322" unicode="&#x322;" 
d="M-588 -346q0 -49 43 -49h7q8 0 20 2v-115q-20 -2 -23 -2h-28q-96 0 -128 40t-32 122v371h141v-369z" />
    <glyph glyph-name="uni0323" unicode="&#x323;" 
d="M-756 -172h260v-238h-260v238z" />
    <glyph glyph-name="uni0324" unicode="&#x324;" 
d="M-954 -106h260v-238h-260v238zM-555 -106h260v-238h-260v238z" />
    <glyph glyph-name="uni0325" unicode="&#x325;" 
d="M-625 61q90 0 153.5 -64.5t63.5 -154.5t-63.5 -153.5t-153.5 -63.5t-154.5 63.5t-64.5 153.5t64.5 154.5t154.5 64.5zM-624.5 -274q49.5 0 83 33.5t33.5 82.5t-33.5 84t-83 35t-84 -35t-34.5 -84t34.5 -82.5t84 -33.5z" />
    <glyph glyph-name="uni0326" unicode="&#x326;" 
d="M-768 -393v262h287v-211q0 -152 -74 -239t-207 -111v104q98 31 135 105q20 45 17 90h-158z" />
    <glyph glyph-name="cedillacmb" unicode="&#x327;" 
d="M-287 -338q84 0 82 70q0 39 -23 52q-24 13 -64 13t-77 -14l-43 49l121 172h101l-80 -110h4q25 10 87 10t111 -34q58 -37 59 -103q2 -118 -74 -169q-60 -42 -171 -42q-112 0 -165 17q-54 17 -83 28l43 98q88 -37 172 -37z" />
    <glyph glyph-name="ogonekcmb" unicode="&#x328;" 
d="M-208 -416q-70 0 -110 9q-88 20 -129 92q-22 37 -22 99q0 116 120 192q98 64 234 69l11 -45q-102 -4 -149 -53q-46 -49 -46 -117q0 -101 121 -109q56 0 102 13v-123q-63 -27 -132 -27z" />
    <glyph glyph-name="uni0329" unicode="&#x329;" 
d="M-549 -141v-312h-151v312h151z" />
    <glyph glyph-name="uni032A" unicode="&#x32a;" 
d="M-268 0v-301h-105v166h-504v-166h-104v301h713z" />
    <glyph glyph-name="uni032B" unicode="&#x32b;" 
d="M-886 -362q-170 0 -258.5 72.5t-100.5 226.5h135q22 -143 211 -146q68 0 113 21q74 29 83 72.5t9 52.5h139q0 -8 8 -52.5t82 -72.5q47 -20 174.5 -21t151.5 146h135q-27 -299 -278 -299t-343 104q-91 -104 -261 -104z" />
    <glyph glyph-name="uni032C" unicode="&#x32c;" 
d="M-752 -362l-235 299h231l131 -170l131 170h232l-234 -299h-256z" />
    <glyph glyph-name="uni032D" unicode="&#x32d;" 
d="M-262 -362h-232l-131 167l-131 -167h-231l235 299h256z" />
    <glyph glyph-name="uni032E" unicode="&#x32e;" 
d="M-281 -63q-23 -299 -342 -299t-348 299h135q22 -144 150.5 -145t173.5 20q84 33 96 125h135z" />
    <glyph glyph-name="uni032F" unicode="&#x32f;" 
d="M-971 -362q27 299 347 299t343 -299h-135q-12 92 -96 124q-45 20 -112.5 20.5t-114.5 -20.5q-82 -33 -97 -124h-135z" />
    <glyph glyph-name="uni0330" unicode="&#x330;" 
d="M-774 -264q-74 0 -96 -84h-129q20 102 57 155q63 94 188 95q42 0 99 -19l94 -35q64 -22 98 -22q61 0 80 86h133q-16 -104 -70.5 -176t-156.5 -72q-44 0 -152 35l-80 27q-27 10 -65 10z" />
    <glyph glyph-name="uni0331" unicode="&#x331;" 
d="M-940 -147h631v-152h-631v152z" />
    <glyph glyph-name="uni0332" unicode="&#x332;" 
d="M-981 -147h713v-152h-713v152z" />
    <glyph glyph-name="uni0333" unicode="&#x333;" 
d="M-981 -446h713v-152h-713v152zM-981 -147h713v-152h-713v152z" />
    <glyph glyph-name="uni0334" unicode="&#x334;" 
d="M-774 537q-75 0 -96 -86h-129q20 104 57 155q63 96 188 96q54 0 99 -20l94 -35q41 -12 54 -16t45 -4q59 0 79 86h133q-16 -106 -70.5 -177t-156.5 -71q-59 0 -152 33l-80 26q-35 13 -65 13z" />
    <glyph glyph-name="uni0335" unicode="&#x335;" 
d="M-981 653h713v-151h-713v151z" />
    <glyph glyph-name="uni0336" unicode="&#x336;" 
d="M-981 653h713v-151h-713v151z" />
    <glyph glyph-name="uni0337" unicode="&#x337;" 
d="M-459 1110h238l-574 -760h-233z" />
    <glyph glyph-name="soliduslongoverlaycmb" unicode="&#x338;" 
d="M-207 1497h234l-572 -1530h-231z" />
    <glyph glyph-name="uni0339" unicode="&#x339;" 
d="M-616 -158q0 49 -34 84t-83 35v100q90 0 153.5 -64.5t63.5 -154.5t-63.5 -153.5t-153.5 -65.5l2 103q47 1 81 34t34 82z" />
    <glyph glyph-name="uni033A" unicode="&#x33a;" 
d="M-981 -301v301h104v-168h504v168h105v-301h-713z" />
    <glyph glyph-name="uni033B" unicode="&#x33b;" 
d="M-473 -487v362h-301v-362h301zM-909 -20h569v-572h-569v572z" />
    <glyph glyph-name="uni033C" unicode="&#x33c;" 
d="M-365 -63q168 0 261 -199l-132 24q-47 20 -114.5 20.5t-114.5 -20.5q-74 -29 -82 -72.5t-8 -51.5h-139q0 8 -9.5 52t-82.5 72q-45 20 -114 20t-114 -20l-131 -24q90 199 255.5 199t264.5 -105q92 105 260 105z" />
    <glyph glyph-name="uni033D" unicode="&#x33d;" 
d="M-453 1665l93 -92l-172 -172l172 -172l-93 -94l-172 174l-172 -174l-92 94l172 172l-172 172l92 92l172 -172z" />
    <glyph glyph-name="uni033E" unicode="&#x33e;" 
d="M-756 1139q86 21 86 79q0 32 -4 45t-16 56l-35 92q-20 45 -20 98q0 125 96 191q51 35 155 55v-129q-86 -21 -86 -96q0 -25 13 -66l26 -80q33 -102 33 -151q0 -185 -248 -227v133z" />
    <glyph glyph-name="uni033F" unicode="&#x33f;" 
d="M-981 1153h713v-152h-713v152zM-981 1452h713v-152h-713v152z" />
    <glyph glyph-name="uni0340" unicode="&#x340;" 
d="M-371 1237h-204l-304 299h318z" />
    <glyph glyph-name="uni0341" unicode="&#x341;" 
d="M-371 1536l-303 -299h-207l193 299h317z" />
    <glyph glyph-name="uni0342" unicode="&#x342;" 
d="M-623.5 1382q-188.5 0 -212.5 -145h-135q27 299 347 299t343 -299h-135q-19 145 -207.5 145z" />
    <glyph glyph-name="uni0343" unicode="&#x343;" 
d="M-768 1206v262h287v-211q0 -150 -74 -236.5t-207 -113.5v105q98 31 135 104q20 45 17 90h-158z" />
    <glyph glyph-name="uni0344" unicode="&#x344;" 
d="M-645 1546h244l-236 -276h-141zM-446 1456h186v-184h-186v184zM-987 1456h182v-184h-182v184z" />
    <glyph glyph-name="uni0345" unicode="&#x345;" 
d="M-696 -104h143v-537h-143v537z" />
    <glyph glyph-name="uni0346" unicode="&#x346;" 
d="M-268 1599v-301h-105v166h-504v-166h-104v301h713z" />
    <glyph glyph-name="uni0347" unicode="&#x347;" 
d="M-940 -446h631v-152h-631v152zM-940 -147h631v-152h-631v152z" />
    <glyph glyph-name="uni0348" unicode="&#x348;" 
d="M-385 -141v-312h-152v312h152zM-715 -141v-312h-151v312h151z" />
    <glyph glyph-name="uni0349" unicode="&#x349;" 
d="M-475 0v-301h-105v166h-192v135h297z" />
    <glyph glyph-name="uni034A" unicode="&#x34a;" 
d="M-695 1567q50 0 122 -35l47 125l96 -33l-49 -137q39 -16 80 -17q97 0 110 103h107q-8 -99 -61 -171.5t-152 -72.5q-65 0 -131 33l-52 -137l-98 35l58 149q-40 18 -84 18q-43 0 -70 -24.5t-33 -65.5h-100q13 157 86.5 193.5t123.5 36.5z" />
    <glyph glyph-name="uni034B" unicode="&#x34b;" 
d="M-399 1470q97 0 110 103h107q-8 -99 -61 -171.5t-137 -72.5q-85 0 -189 55q-31 16 -60.5 29.5t-72.5 13.5t-70 -24.5t-33 -65.5h-100q13 157 86.5 193.5t119.5 36.5t85.5 -17.5t75.5 -35.5t68 -31t71 -13zM-760 1229q0 41 29 68.5t67.5 27.5t66.5 -27.5t28 -68.5
t-28 -67.5t-66.5 -26.5t-67.5 26.5t-29 67.5zM-530 1667q0 41 28.5 68.5t67.5 27.5t66.5 -27.5t27.5 -68.5t-27.5 -67.5t-66.5 -26.5t-67.5 26.5t-28.5 67.5z" />
    <glyph glyph-name="uni034C" unicode="&#x34c;" 
d="M-399 1341q97 0 110 103h107q-8 -99 -61 -171.5t-137 -72.5q-85 0 -189 55q-31 16 -60.5 29.5t-72.5 13.5t-70 -24.5t-33 -65.5h-100q13 157 86.5 193.5t119.5 36.5t85.5 -17t75.5 -35t68 -31.5t71 -13.5zM-399 1602q97 0 110 100h107q-15 -165 -88.5 -203.5
t-135.5 -38.5t-152 48q-89 48 -138 48q-96 0 -109 -90h-100q10 98 59 164t152 66q55 0 157 -51q35 -16 67 -29.5t71 -13.5z" />
    <glyph glyph-name="uni034D" unicode="&#x34d;" 
d="M-1520 -270l590 225v-152l611 7v145l589 -225l-589 -224v152l-611 -6v-146z" />
    <glyph glyph-name="uni034E" unicode="&#x34e;" 
d="M-553 -365v-200h-152v200h-145l225 289l224 -289h-152z" />
    <glyph glyph-name="uni034F" unicode="&#x34f;" 
 />
    <glyph glyph-name="uni0350" unicode="&#x350;" 
d="M-330 938l-590 -225v139l422 149l-422 150v137l590 -223v-127z" />
    <glyph glyph-name="uni0351" unicode="&#x351;" 
d="M-733 1444q0 90 63.5 153.5t153.5 63.5v-98q-49 0 -84 -35t-34.5 -84.5t34.5 -83.5t82 -35l2 -102q-90 2 -153.5 66.5t-63.5 154.5z" />
    <glyph glyph-name="uni0352" unicode="&#x352;" 
d="M-758 1477h260v-238h-260v238zM-623.5 1642q-188.5 0 -212.5 -145h-135q27 299 347 299t343 -299h-135q-19 145 -207.5 145z" />
    <glyph glyph-name="uni0353" unicode="&#x353;" 
d="M-453 66l93 -93l-172 -172l172 -172l-93 -94l-172 172l-172 -172l-92 94l172 172l-172 172l92 93l172 -172z" />
    <glyph glyph-name="uni0354" unicode="&#x354;" 
d="M-920 -135l590 223v-137l-422 -150l422 -149v-139l-590 225v127z" />
    <glyph glyph-name="uni0355" unicode="&#x355;" 
d="M-330 -262l-590 -225v139l422 149l-422 150v137l590 -223v-127z" />
    <glyph glyph-name="uni0356" unicode="&#x356;" 
d="M-272 96l225 -590h-139l-150 422l-149 -422h-140l226 590h127zM-612 -262l-588 -225v139l420 149l-420 150v137l588 -223v-127z" />
    <glyph glyph-name="uni0357" unicode="&#x357;" 
d="M-616 1443.5q0 49.5 -34 84.5t-83 35v98q90 0 153.5 -63.5t63.5 -153.5t-63.5 -154.5t-153.5 -66.5l2 102q47 1 81 35t34 83.5z" />
    <glyph glyph-name="uni0358" unicode="&#x358;" 
d="M-455 1493h260v-238h-260v238z" />
    <glyph glyph-name="uni0359" unicode="&#x359;" 
d="M-696 -27h172v-241l209 67l47 -147l-213 -68l139 -198l-127 -91l-139 189l-144 -189l-129 91l142 198l-213 68l47 147l209 -67v241z" />
    <glyph glyph-name="uni035A" unicode="&#x35a;" 
d="M-461 -274q49 0 84 33.5t35 82.5t-35 84t-84 35.5t-77 -27.5t-35 -57q2 -15 2 -33t-2 -34q8 -27 28 -50q35 -34 84 -34zM-790 -274q50 0 78 28t36 58q-2 16 -2 32t2 31q-6 29 -36 57t-79 28.5t-83.5 -34.5t-34.5 -84t34.5 -82.5t84.5 -33.5zM-466.5 -375
q-95.5 0 -158.5 76l-12 -12q-63 -63 -153.5 -63.5t-154 63t-63.5 153.5t63.5 154.5t154 64.5t153.5 -63l12 -12q4 6 11 12q63 63 153 63t154.5 -64.5t64.5 -154.5t-64.5 -153.5t-160 -63.5z" />
    <glyph glyph-name="uni035B" unicode="&#x35b;" 
d="M-518 1493l-334 -2l-78 78l232 332l84 -82l-154 -203l326 6l84 -82l-213 -362l-82 82z" />
    <glyph glyph-name="uni035C" unicode="&#x35c;" 
d="M-610 -567q-291 0 -592 131q-166 72 -281 153l-98 72l2 164q254 -139 401 -189q246 -84 549 -83q467 0 848 206l113 64v-170q-473 -348 -942 -348z" />
    <glyph glyph-name="uni035D" unicode="&#x35d;" 
d="M-629 1331q471 0 848 207l113 61v-167q-472 -347 -942 -349q-291 0 -592 129q-166 72 -281 156l-98 72l2 164q254 -139 401 -191q246 -82 549 -82z" />
    <glyph glyph-name="uni035E" unicode="&#x35e;" 
d="M-1692 1452h2134v-152h-2134v152z" />
    <glyph glyph-name="uni035F" unicode="&#x35f;" 
d="M-1571 -147h1893v-152h-1893v152z" />
    <glyph glyph-name="uni0360" unicode="&#x360;" 
d="M-1073 1274q-224 0 -289 -127h-389q66 154 172 233q190 143 569 144q137 0 291 -29l283 -53q125 -20 164 -26.5t88 -6.5q143 0 201.5 39t84.5 90h400q-53 -158 -214 -264.5t-470 -106.5q-150 0 -453 50l-244 40q-87 17 -194 17z" />
    </font>
</defs>
</svg>
