<svg xmlns="http://www.w3.org/2000/svg">
<defs>
<font id="db8d50def1f1a5832d561f5d1a4608a4" horiz-adv-x='1024' >
  <font-face 
    font-family="HelveticaNeue-Thin"
    font-weight="200"
    font-stretch="normal"
    units-per-em="2048"
    panose-1="2 11 4 3 2 2 2 2 2 4"
    ascent="1638"
    descent="-410"
    x-height="1053"
    cap-height="1462"
    bbox="-729 -647 2468 2281"
    underline-thickness="102"
    underline-position="-102"
    unicode-range="U+0008-FE48"
  />
<missing-glyph horiz-adv-x="1048" 
d="M455 377h114v-137h-114v137zM524.5 1145q-63.5 0 -109.5 -45t-59 -150l-102 17q14 147 90 213.5t186.5 66.5t182 -72.5t71.5 -195.5q0 -66 -25.5 -120t-102.5 -124q-77 -69 -89 -109t-12 -147h-94l-4 35q0 115 27 167t77 102q81 80 100 115t19 91t-46 106t-109.5 50z
M946 102v1264h-844v-1264h844zM0 1470h1049v-1470h-1049v1470z" />
    <glyph glyph-name="IJ" unicode="IJ" horiz-adv-x="1323" 
d="M1104 485v977h90v-1007q0 -141 -37 -315.5t-346 -174.5q-165 0 -249.5 47t-124.5 121t-49 162t-9 170h90q-14 -192 51.5 -307t269.5 -115q213 0 260.5 104.5t50.5 183.5t3 154zM129 1462h90v-1462h-90v1462z" />
    <glyph glyph-name="ij" unicode="ij" horiz-adv-x="679" 
d="M322 -311q80 0 113.5 42.5t33.5 162.5v1159h78v-1166q0 -123 -32 -172t-74 -70.5t-88 -21.5h-39q-40 0 -48 2v68q20 -4 56 -4zM469 1251v211h78v-211h-78zM133 0v1053h78v-1053h-78zM133 1251v211h78v-211h-78z" />
    <glyph glyph-name="f_f" unicode="ff" horiz-adv-x="917" 
d="M266 985v-985h-78v985h-188v68h188v217q0 154 92.5 181.5t133.5 27.5t98 -11v-67q-58 10 -108 10t-94 -29.5t-44 -117.5v-211h346v217q0 154 92.5 181.5t133.5 27.5t98 -11v-67q-58 10 -108 10t-94 -29.5t-44 -117.5v-211h219v-68h-219v-985h-78v985h-346z" />
    <glyph glyph-name="fi" unicode="fi" horiz-adv-x="796" 
d="M586 1053h78v-1053h-78v1053zM586 1462h78v-211h-78v211zM0 1053h188v217q0 154 92.5 181.5t133.5 27.5t98 -11v-67q-58 10 -108 10t-94 -29.5t-44 -117.5v-211h219v-68h-219v-985h-78v985h-188v68z" />
    <glyph glyph-name="fl" unicode="fl" horiz-adv-x="796" 
d="M586 1462h78v-1462h-78v1462zM0 1053h188v217q0 154 92.5 181.5t133.5 27.5t98 -11v-67q-58 10 -108 10t-94 -29.5t-44 -117.5v-211h219v-68h-219v-985h-78v985h-188v68z" />
    <glyph glyph-name="f_f_i" unicode="ffi" horiz-adv-x="1220" 
d="M1010 0v1053h77v-1053h-77zM1010 1251v211h77v-211h-77zM266 985v-985h-78v985h-188v68h188v217q0 154 92.5 181.5t133.5 27.5t98 -11v-67q-58 10 -108 10t-94 -29.5t-44 -117.5v-211h346v217q0 154 92.5 181.5t133.5 27.5t98 -11v-67q-58 10 -108 10t-94 -29.5
t-44 -117.5v-211h219v-68h-219v-985h-78v985h-346z" />
    <glyph glyph-name=".notdef" horiz-adv-x="1048" 
d="M455 377h114v-137h-114v137zM524.5 1145q-63.5 0 -109.5 -45t-59 -150l-102 17q14 147 90 213.5t186.5 66.5t182 -72.5t71.5 -195.5q0 -66 -25.5 -120t-102.5 -124q-77 -69 -89 -109t-12 -147h-94l-4 35q0 115 27 167t77 102q81 80 100 115t19 91t-46 106t-109.5 50z
M946 102v1264h-844v-1264h844zM0 1470h1049v-1470h-1049v1470z" />
    <glyph glyph-name=".null" horiz-adv-x="1024" 
 />
    <glyph glyph-name=".null" horiz-adv-x="1024" 
 />
    <glyph glyph-name="nonmarkingreturn" unicode="&#xd;" horiz-adv-x="0" 
 />
    <glyph glyph-name="u0008" horiz-adv-x="0" 
 />
    <glyph glyph-name="u0009" unicode="&#x9;" horiz-adv-x="569" 
 />
    <glyph glyph-name="u001D" horiz-adv-x="0" 
 />
    <glyph glyph-name="space" unicode=" " horiz-adv-x="569" 
 />
    <glyph glyph-name="exclam" unicode="!" horiz-adv-x="530" 
d="M213 211h104v-211h-104v211zM217 1462h98v-493l-24 -594h-49l-25 594v493z" />
    <glyph glyph-name="quotedbl" unicode="&#x22;" horiz-adv-x="645" 
d="M164 1462h78v-469h-78v469zM403 1462h78v-469h-78v469z" />
    <glyph glyph-name="numbersign" unicode="#" horiz-adv-x="1138" 
d="M725 541l49 354h-346l-49 -354h346zM61 473v68h250l49 354h-241v68h252l63 450h68l-64 -450h346l64 450h67l-63 -450h225v-68h-235l-49 -354h227v-68h-238l-65 -473h-68l66 473h-346l-66 -473h-67l65 473h-240z" />
    <glyph glyph-name="dollar" unicode="$" horiz-adv-x="1138" 
d="M594 43q296 0 364 120.5t68 224.5q0 213 -307 292l-125 31v-668zM221.5 918.5q74.5 -59.5 222.5 -95.5l84 -18v614q-193 -7 -287 -90t-94 -217t74.5 -193.5zM102 481q0 -193 105.5 -309.5t320.5 -128.5v682l-96 23q-158 33 -260 111t-102 249q0 132 56 209.5t147.5 125.5
t254.5 54v100h66v-100q213 -4 340 -110.5t135 -339.5h-78q-12 201 -116.5 285.5t-280.5 88.5v-635l160 -38q280 -70 315 -190t35 -209t-82 -233t-428 -151v-180h-66v180q-243 22 -373 144t-130 372h77z" />
    <glyph glyph-name="percent" unicode="%" horiz-adv-x="1593" 
d="M981.5 132.5q72.5 -89.5 190.5 -89.5t190 89.5t72 205.5q0 200 -99.5 249.5t-163 49.5t-112.5 -24.5t-99.5 -87t-50.5 -183.5q0 -120 72.5 -209.5zM1421 602.5q90 -102.5 90 -260.5t-96 -262.5t-244.5 -104.5t-244 104t-95.5 259t93.5 261t250 106t246.5 -102.5z
M612.5 865.5q71.5 89.5 71.5 205.5q0 201 -99.5 250t-192.5 49t-162.5 -87.5t-69.5 -207.5t71.5 -209.5t190.5 -89.5t190.5 89.5zM176.5 812q-94.5 103 -94.5 259t93 261.5t250 105.5t247 -102.5t90 -260.5t-95.5 -262t-245.5 -104t-244.5 103zM1235 1462h82l-952 -1511h-82
z" />
    <glyph glyph-name="ampersand" unicode="&#x26;" horiz-adv-x="1214" 
d="M273.5 126q107.5 -83 255.5 -83t230.5 79t105 116.5t22.5 42.5l-377 469q-57 -37 -117.5 -75t-143.5 -115t-83 -214t107.5 -220zM807 1176q0 52 -20.5 85t-52.5 57.5t-72.5 38t-107 13.5t-136.5 -53.5t-70 -118.5t20.5 -111.5t49 -88.5t61.5 -79.5t58 -74.5
q122 79 170.5 128.5t74 100.5t25.5 103zM544 -25q-211 0 -333.5 97t-122.5 276q0 217 159 317.5t222 141.5q-35 43 -117 143t-82 222t94 194t217 72t213.5 -67.5t90.5 -184.5q0 -185 -125 -273t-178 -127l348 -428q49 121 49 244h78q-8 -155 -74 -309l238 -293h-105
l-178 217q-68 -113 -174 -177.5t-220 -64.5z" />
    <glyph glyph-name="quotesingle" unicode="'" horiz-adv-x="417" 
d="M170 1462h78v-469h-78v469z" />
    <glyph glyph-name="parenleft" unicode="(" horiz-adv-x="493" 
d="M133 551q0 495 268 946h72q-262 -441 -262 -948t256 -926h-70q-264 433 -264 928z" />
    <glyph glyph-name="parenright" unicode=")" horiz-adv-x="493" 
d="M283 572q0 506 -256 925h69q264 -433 264 -928t-268 -946h-72q263 443 263 949z" />
    <glyph glyph-name="asterisk" unicode="*" horiz-adv-x="720" 
d="M330 1462h59v-266l250 84l20 -57l-251 -84l155 -209l-45 -41l-158 217l-163 -217l-50 41l166 209l-254 84l19 57l252 -84v266z" />
    <glyph glyph-name="plus" unicode="+" horiz-adv-x="1228" 
d="M98 555h477v477h78v-477h477v-78h-477v-477h-78v477h-477v78z" />
    <glyph glyph-name="comma" unicode="," horiz-adv-x="569" 
d="M231 211h105v-211q0 -208 -131 -258v68q69 30 69 190h-43v211z" />
    <glyph glyph-name="hyphen" unicode="-" horiz-adv-x="720" 
d="M141 596h439v-78h-439v78z" />
    <glyph glyph-name="period" unicode="." horiz-adv-x="569" 
d="M231 211h105v-211h-105v211z" />
    <glyph glyph-name="slash" unicode="/" horiz-adv-x="681" 
d="M625 1497h84l-652 -1532h-84z" />
    <glyph glyph-name="zero" unicode="0" horiz-adv-x="1138" 
d="M568 43q132 0 217 63.5t133.5 162t67 215t18.5 223t-18.5 223.5t-67 215t-133.5 161.5t-217 63.5t-216 -63.5t-132 -161.5t-66.5 -215t-18.5 -223.5t18.5 -223t66.5 -215t132 -162t216 -63.5zM569.5 -25q-153.5 0 -252 67t-157 172t-81 235.5t-22.5 257.5t22.5 257
t81 235.5t157 172t252 66.5t252 -66.5t156.5 -172t80.5 -235.5t22.5 -257t-22.5 -257.5t-80.5 -235.5t-156.5 -172t-252 -67z" />
    <glyph glyph-name="one" unicode="1" horiz-adv-x="1138" 
d="M678 1413v-1413h-78v1262q-150 -157 -379 -181v68q123 18 223.5 86t163.5 178h70z" />
    <glyph glyph-name="two" unicode="2" horiz-adv-x="1138" 
d="M833 1281q-103 89 -245 89q-186 0 -283.5 -121t-97.5 -313h-78q12 258 124 380t313 122t324.5 -100.5t123.5 -286.5q0 -125 -58.5 -220.5t-147.5 -173t-192.5 -145.5t-194.5 -134.5t-155.5 -139t-72.5 -160.5h843v-78h-942q15 244 185.5 370t246.5 177t150 103t167 147.5
t93 244.5q0 150 -103 239z" />
    <glyph glyph-name="three" unicode="3" horiz-adv-x="1138" 
d="M969 391q0 190 -138.5 264.5t-336.5 61.5v67q294 -15 368 95t74 193q0 151 -115.5 224.5t-257.5 73.5q-179 0 -274 -110.5t-103 -292.5h-77q0 213 125 342t321 129t327.5 -90.5t131.5 -266.5q0 -129 -76.5 -218t-200.5 -105v-4q142 -16 226 -117t84 -246
q0 -198 -137.5 -307t-359.5 -109t-355 129t-121 363h78q-8 -195 103 -309.5t298 -114.5q177 0 296.5 93t119.5 255z" />
    <glyph glyph-name="four" unicode="4" horiz-adv-x="1138" 
d="M748 428v879h-5l-606 -879h611zM825 1413v-985h238v-68h-238v-360h-77v360h-689v78l689 975h77z" />
    <glyph glyph-name="five" unicode="5" horiz-adv-x="1138" 
d="M211 778q121 170 340 170q220 0 354.5 -134.5t134.5 -347t-133.5 -352t-343.5 -139.5t-354.5 124.5t-132.5 332.5h78q-4 -171 113.5 -280t293.5 -109q175 0 288.5 122t113.5 300.5t-116.5 297t-285.5 118.5q-123 0 -209 -50.5t-153 -148.5h-80l147 731h715v-67h-653
l-121 -564z" />
    <glyph glyph-name="six" unicode="6" horiz-adv-x="1138" 
d="M304.5 161q114.5 -118 282.5 -118t283 118.5t115 288.5t-112.5 293t-284.5 123q-171 0 -284.5 -121t-113.5 -294q0 -172 114.5 -290zM86 637q0 623 206 712t314 89q180 0 296 -96.5t136 -276.5h-77q-24 137 -121 221t-238 84t-229 -75.5t-148.5 -223t-60.5 -436.5l4 -4
q46 135 162.5 219t239.5 84q226 0 359.5 -137.5t133.5 -343.5t-133.5 -342t-361.5 -136q-124 0 -303 101.5t-179 560.5z" />
    <glyph glyph-name="seven" unicode="7" horiz-adv-x="1138" 
d="M115 1346v67h911v-78q-106 -119 -326.5 -394.5t-281.5 -940.5h-90q28 360 157 672t463 674h-833z" />
    <glyph glyph-name="eight" unicode="8" horiz-adv-x="1138" 
d="M862 134.5q119 91.5 119 264.5t-116.5 254.5t-294.5 81.5q-179 0 -295.5 -81t-116.5 -255q0 -173 117.5 -264.5t292.5 -91.5t294 91.5zM824 873q104 70 104 215q0 146 -101.5 214t-303.5 68t-257 -103.5t-55 -181.5t30.5 -131t104.5 -102t224 -49t254 70zM80 406
q0 154 83 251t230 113v4q-129 25 -194.5 108t-65.5 192q0 196 126.5 280t309.5 84q298 0 367.5 -127t69.5 -237t-66 -192.5t-195 -107.5v-4q147 -16 230.5 -113.5t83.5 -229.5q0 -231 -136.5 -341.5t-353.5 -110.5q-335 0 -412 160t-77 271z" />
    <glyph glyph-name="nine" unicode="9" horiz-adv-x="1138" 
d="M857.5 668q113.5 121 113.5 292t-114 290.5t-284 119.5t-285.5 -119.5t-115.5 -289.5t115.5 -292t286.5 -122q170 0 283.5 121zM983 766q-112 -287 -424 -287q-94 0 -182 36t-185.5 136.5t-97.5 309.5q0 208 134.5 342.5t342.5 134.5q387 0 440.5 -260t53.5 -374t-8 -207
t-43 -237.5t-151 -264.5t-307 -120t-307 96.5t-136 276.5h77q25 -135 118 -220t237 -85q176 0 309 156t133 563z" />
    <glyph glyph-name="colon" unicode=":" horiz-adv-x="569" 
d="M231 211h105v-211h-105v211zM231 1053h105v-211h-105v211z" />
    <glyph glyph-name="semicolon" unicode=";" horiz-adv-x="569" 
d="M231 211h105v-211q0 -208 -131 -258v68q69 30 69 190h-43v211zM231 1053h105v-211h-105v211z" />
    <glyph glyph-name="less" unicode="&#x3c;" horiz-adv-x="1228" 
d="M94 573l1041 480v-86l-973 -447l973 -450v-86l-1041 483v106z" />
    <glyph glyph-name="equal" unicode="=" horiz-adv-x="1228" 
d="M98 358h1032v-77h-1032v77zM98 756h1032v-78h-1032v78z" />
    <glyph glyph-name="greater" unicode="&#x3e;" horiz-adv-x="1228" 
d="M94 70l973 446l-973 451v86l1041 -484v-106l-1041 -479v86z" />
    <glyph glyph-name="question" unicode="?" 
d="M473 211h105v-211h-105v211zM483 371q0 210 72 297.5t139.5 151t119.5 138.5t52 162q0 153 -95 226t-234 73q-181 0 -276 -114.5t-95 -294.5h-78q0 222 118 354.5t337 132.5q172 0 286.5 -93t114.5 -264t-73.5 -248t-108.5 -109t-118 -109t-83 -303h-78z" />
    <glyph glyph-name="at" unicode="@" horiz-adv-x="1638" 
d="M477 570q0 -98 59.5 -165t151.5 -67q59 0 124 46t118 123t91 183t38 162q0 118 -37.5 193t-151.5 75q-86 0 -158.5 -53t-124.5 -133t-81 -173t-29 -191zM662 270q-116 0 -189.5 90.5t-73.5 207.5q0 235 141 427.5t343 192.5q139 0 181 -75t48 -112h4l47 146h84l-196 -606
q-10 -33 -21.5 -67t-11.5 -60t23.5 -46t56.5 -20q70 0 136 48t149 170.5t83 299.5q0 245 -185.5 404.5t-440.5 159.5q-127 0 -251 -56.5t-216 -154t-146.5 -225.5t-54.5 -276t59.5 -274.5t155.5 -217.5t219.5 -142t273.5 -51t298.5 85t242.5 226h90q-92 -172 -272 -275.5
t-363 -103.5q-182 0 -321 60.5t-241.5 165t-161 246t-58.5 299.5t60.5 296.5t164 242t240.5 163t287 59.5q300 0 499 -181t199 -456q0 -117 -43 -223.5t-111.5 -187t-152 -130t-149.5 -49.5t-106 36t-42 110h-4q-99 -146 -274 -146z" />
    <glyph glyph-name="A" unicode="A" horiz-adv-x="1214" 
d="M930 547l-314 827h-4l-325 -827h643zM563 1462h99l577 -1462h-96l-185 469h-700l-186 -469h-97z" />
    <glyph glyph-name="B" unicode="B" horiz-adv-x="1290" 
d="M715 78q197 0 308.5 83t111.5 251t-123 238.5t-297 70.5h-496v-643h496zM715 799q186 0 278 83t92 224t-102.5 209.5t-267.5 68.5h-496v-585h496zM129 1462h586q243 0 352 -110t109 -269q0 -121 -81 -208t-204 -103l4 -4q14 2 67.5 -12.5t112 -54t104.5 -110.5t46 -176
q0 -199 -137 -307t-373 -108h-586v1462z" />
    <glyph glyph-name="C" unicode="C" horiz-adv-x="1441" 
d="M74 731q0 331 187 548.5t509 217.5q231 0 362.5 -102t178.5 -216t47 -153h-90q-27 179 -168.5 286t-329.5 107q-278 0 -442 -198t-164 -490.5t118.5 -434.5t232 -197.5t237.5 -55.5q227 0 377.5 157t162.5 369h90q-24 -260 -196 -432t-416 -172q-322 0 -509 217.5
t-187 548.5z" />
    <glyph glyph-name="D" unicode="D" horiz-adv-x="1366" 
d="M1194 733q0 651 -600 651h-375v-1306h393q239 0 410.5 153t171.5 502zM129 1462h479q363 0 519.5 -204.5t156.5 -530.5q0 -325 -172.5 -526t-507.5 -201h-475v1462z" />
    <glyph glyph-name="E" unicode="E" horiz-adv-x="1146" 
d="M129 1462h983v-78h-893v-585h840v-78h-840v-643h903v-78h-993v1462z" />
    <glyph glyph-name="F" unicode="F" horiz-adv-x="1052" 
d="M129 1462h918v-78h-828v-585h746v-78h-746v-721h-90v1462z" />
    <glyph glyph-name="G" unicode="G" horiz-adv-x="1517" 
d="M261.5 1272.5q185.5 224.5 504.5 224.5q234 0 403.5 -133t204.5 -354h-86q-51 193 -184 301t-336 108q-284 0 -443 -203.5t-159 -494.5t156.5 -484.5t431.5 -193.5q274 0 426.5 164t140.5 432h-539v78h617v-717h-78v311h-4q-82 -243 -269.5 -294.5t-283.5 -51.5
q-320 0 -504 214.5t-184 541.5t185.5 551.5z" />
    <glyph glyph-name="H" unicode="H" horiz-adv-x="1372" 
d="M129 1462h90v-663h934v663h90v-1462h-90v721h-934v-721h-90v1462z" />
    <glyph glyph-name="I" unicode="I" horiz-adv-x="348" 
d="M129 1462h90v-1462h-90v1462z" />
    <glyph glyph-name="J" unicode="J" horiz-adv-x="985" 
d="M766 485v977h90v-1007q0 -141 -37 -315.5t-346 -174.5q-165 0 -249.5 47t-124.5 121t-49 162t-9 170h90q-14 -192 51.5 -307t269.5 -115q213 0 260.5 104.5t50.5 183.5t3 154z" />
    <glyph glyph-name="K" unicode="K" horiz-adv-x="1255" 
d="M129 1462h90v-841l920 841h116l-667 -608l708 -854h-112l-662 793l-303 -277v-516h-90v1462z" />
    <glyph glyph-name="L" unicode="L" horiz-adv-x="1024" 
d="M129 1462h90v-1384h830v-78h-920v1462z" />
    <glyph glyph-name="M" unicode="M" horiz-adv-x="1656" 
d="M129 1462h129l571 -1362h5l565 1362h129v-1462h-90v1352h-4l-557 -1352h-91l-563 1352h-4v-1352h-90v1462z" />
    <glyph glyph-name="N" unicode="N" horiz-adv-x="1388" 
d="M129 1462h113l923 -1341h4v1341h91v-1462h-107l-930 1352h-4v-1352h-90v1462z" />
    <glyph glyph-name="O" unicode="O" horiz-adv-x="1517" 
d="M154 731q0 -141 41 -266t118.5 -218t190 -148.5t256 -55.5t255 55.5t189.5 148.5t119 218t41 266t-41 266t-119 218.5t-189.5 148.5t-255 55t-256 -55t-190 -148.5t-118.5 -218.5t-41 -266zM1454 731q0 -160 -47 -300t-136 -243.5t-218 -163t-293 -59.5t-294 59.5
t-219 163t-136.5 243.5t-47.5 300t47.5 300t136.5 243.5t219 163t294 59.5t293 -59.5t218 -163t136 -243.5t47 -300z" />
    <glyph glyph-name="P" unicode="P" horiz-adv-x="1210" 
d="M219 729h514q185 0 269.5 98t84.5 228q0 206 -115.5 267.5t-226.5 61.5h-526v-655zM129 1462h623q278 0 352 -139t74 -270q0 -193 -119 -297.5t-340 -104.5h-500v-651h-90v1462z" />
    <glyph glyph-name="Q" unicode="Q" horiz-adv-x="1517" 
d="M1163 203q201 201 201 511t-165 507.5t-441 197.5t-440 -198t-164 -490.5t165 -490t441 -197.5q203 0 342 109l-221 157l47 64zM760 -35q-322 0 -509.5 218t-187.5 548t187.5 548t508.5 218t508 -217.5t187 -565.5q0 -347 -219 -562l227 -164l-47 -64l-241 174
q-170 -133 -414 -133z" />
    <glyph glyph-name="R" unicode="R" horiz-adv-x="1290" 
d="M739 743q262 0 317.5 124t55.5 209q0 158 -104.5 233t-268.5 75h-520v-641h520zM1180 87q0 -36 43 -87h-101q-29 51 -32 119.5t-3 142.5t-13.5 239t-334.5 165h-520v-666h-90v1462h610q327 0 395 -135t68 -262t-83 -228.5t-230 -125.5v-4q252 -30 271.5 -193.5
t19.5 -220.5v-206z" />
    <glyph glyph-name="S" unicode="S" horiz-adv-x="1290" 
d="M634 1419q-175 0 -298 -73t-123 -234t112.5 -215.5t202.5 -75.5t184 -39q234 -46 366 -128.5t132 -282.5t-156 -303t-358 -103q-434 0 -526 188.5t-90 329.5h90q-11 -222 137 -331t389 -109q162 0 293 81.5t131 250.5q0 168 -126 231.5t-295 96.5q-170 34 -260.5 58.5
t-160 66.5t-112.5 109t-43 217.5t147.5 246.5t343.5 96q379 0 466 -166t94 -287h-91q-8 183 -103 255.5t-180 96t-166 23.5z" />
    <glyph glyph-name="T" unicode="T" 
d="M-29 1384v78h1121v-78h-517v-1384h-90v1384h-514z" />
    <glyph glyph-name="U" unicode="U" horiz-adv-x="1376" 
d="M678 -35q-549 0 -549 621v876h90v-876q0 -129 32 -246.5t132.5 -207t294.5 -89.5q377 0 428 209t51 334v876h90v-876q0 -621 -569 -621z" />
    <glyph glyph-name="V" unicode="V" horiz-adv-x="1138" 
d="M567 78h4l506 1384h90l-546 -1462h-105l-545 1462h95z" />
    <glyph glyph-name="W" unicode="W" horiz-adv-x="1820" 
d="M-12 1462h92l381 -1366h4l387 1366h113l393 -1366h4l375 1366h96l-420 -1462h-102l-402 1384h-4l-395 -1384h-100z" />
    <glyph glyph-name="X" unicode="X" horiz-adv-x="1138" 
d="M2 1462h104l463 -643l473 643h103l-516 -710l545 -752h-109l-496 684l-497 -684h-107l549 752z" />
    <glyph glyph-name="Y" unicode="Y" horiz-adv-x="1175" 
d="M631 0h-90v612l-584 850h102l529 -774l530 774h101l-588 -850v-612z" />
    <glyph glyph-name="Z" unicode="Z" horiz-adv-x="1099" 
d="M57 1462h1026v-78l-991 -1306h1010v-78h-1104v78l987 1306h-928v78z" />
    <glyph glyph-name="bracketleft" unicode="[" horiz-adv-x="493" 
d="M270 1430v-1739h203v-68h-280v1874h280v-67h-203z" />
    <glyph glyph-name="backslash" unicode="\" horiz-adv-x="681" 
d="M625 -35l-652 1532h84l652 -1532h-84z" />
    <glyph glyph-name="bracketright" unicode="]" horiz-adv-x="493" 
d="M223 -309v1739h-203v67h281v-1874h-281v68h203z" />
    <glyph glyph-name="asciicircum" unicode="^" horiz-adv-x="1228" 
d="M1063 485l-447 861l-450 -861h-86l483 928h107l479 -928h-86z" />
    <glyph glyph-name="underscore" unicode="_" horiz-adv-x="1024" 
d="M0 -256v102h1024v-102h-1024z" />
    <glyph glyph-name="grave" unicode="`" horiz-adv-x="342" 
d="M213 1208l-274 287h104l246 -287h-76z" />
    <glyph glyph-name="a" unicode="a" horiz-adv-x="1024" 
d="M143 272q0 -117 74 -173t205 -56t209 48t119 110.5t52 121t11 78.5v197q-29 -35 -87 -47t-130 -19l-131 -12q-151 -16 -207.5 -49t-85.5 -79t-29 -120zM427 1077q290 0 377 -74.5t87 -195.5v-612q0 -62 10.5 -94.5t59.5 -32.5q20 0 57 6v-66q-31 -8 -71 -8
q-77 0 -105.5 40t-28.5 114v55h-4q-37 -98 -140.5 -166t-261.5 -68q-157 0 -249 73t-92 231t109 223.5t278 81.5l120 10q158 11 194 45.5t42 71.5t6 86q0 96 -71 154.5t-217 58.5t-233 -70t-95 -211h-78q16 348 306 348z" />
    <glyph glyph-name="b" unicode="b" horiz-adv-x="1138" 
d="M900.5 194.5q92.5 151.5 92.5 348.5t-100.5 332t-288.5 135t-289.5 -127t-101.5 -337t100.5 -356.5t298.5 -146.5q196 0 288.5 151.5zM133 1462h78v-633h4q45 119 153 183.5t236 64.5q231 0 349 -146.5t118 -357.5q0 -210 -87 -404t-370 -194q-178 0 -277.5 92.5
t-121.5 168.5h-4v-236h-78v1462z" />
    <glyph glyph-name="c" unicode="c" 
d="M538 1010q-85 0 -161 -40t-154 -141.5t-78 -307.5t104.5 -342t301.5 -136q144 0 244 89.5t123 238.5h77q-24 -186 -148.5 -291t-295.5 -105q-241 0 -362 160.5t-121 397t129 390.5t354 154q177 0 297.5 -89t136.5 -261h-78q-12 136 -110.5 209.5t-258.5 73.5z" />
    <glyph glyph-name="d" unicode="d" horiz-adv-x="1138" 
d="M926 524q0 199 -99.5 342.5t-292.5 143.5t-292 -137.5t-99 -343.5t100.5 -346t292.5 -140q187 0 288.5 141t101.5 340zM520 -25q-225 0 -339.5 157.5t-114.5 391.5q0 382 175 467.5t266 85.5q158 0 266.5 -68t150.5 -192h4v645h78v-1462h-78v225h-4q-132 -250 -404 -250z
" />
    <glyph glyph-name="e" unicode="e" 
d="M540 1010q-175 0 -276 -121t-117 -305h771q-13 286 -150 356t-228 70zM145 516v-12q0 -194 101 -327.5t272 -133.5q172 0 264 83t127 230h78q-35 -184 -150.5 -282.5t-322.5 -98.5t-327.5 150.5t-120.5 389.5t124.5 400.5t345.5 161.5t341 -147.5t120 -368.5l-2 -45h-850
z" />
    <glyph glyph-name="f" unicode="f" horiz-adv-x="493" 
d="M0 985v68h188v217q0 154 92.5 181.5t133.5 27.5t98 -11v-67q-58 10 -108 10t-94 -29.5t-44 -117.5v-211h219v-68h-219v-985h-78v985h-188z" />
    <glyph glyph-name="g" unicode="g" horiz-adv-x="1099" 
d="M243.5 874.5q-98.5 -135.5 -98.5 -323.5t100 -316.5t281 -128.5q180 0 279.5 131.5t99.5 321.5t-100 320.5t-281.5 130.5t-280 -135.5zM522 39q-222 0 -338 145t-116 370q0 226 121.5 374.5t332.5 148.5q125 0 230.5 -63.5t150.5 -179.5h4v219h78v-998
q0 -321 -158.5 -388.5t-268.5 -67.5q-207 0 -319 76.5t-120 250.5h78q11 -133 104 -196.5t217 -63.5q214 0 301.5 106t87.5 265v242h-4q-113 -240 -381 -240z" />
    <glyph glyph-name="h" unicode="h" 
d="M193 1462v-635h4q39 115 143 182.5t214 67.5q111 0 176 -22.5t123 -75t76.5 -139.5t18.5 -189v-651h-78v666q0 135 -35.5 200.5t-96 104.5t-158.5 39q-182 0 -284.5 -122t-102.5 -319v-569h-78v1462h78z" />
    <glyph glyph-name="i" unicode="i" horiz-adv-x="344" 
d="M133 0v1053h78v-1053h-78zM133 1251v211h78v-211h-78z" />
    <glyph glyph-name="j" unicode="j" horiz-adv-x="344" 
d="M-14 -311q79 0 113 42.5t34 162.5v1159h78v-1166q0 -125 -32 -173t-74 -69.5t-88 -21.5h-39q-39 0 -48 2v68q20 -4 56 -4zM133 1251v211h78v-211h-78z" />
    <glyph glyph-name="k" unicode="k" horiz-adv-x="948" 
d="M119 1462h78v-968l649 559h112l-460 -394l493 -659h-106l-449 600l-239 -203v-397h-78v1462z" />
    <glyph glyph-name="l" unicode="l" horiz-adv-x="344" 
d="M211 1462v-1462h-78v1462h78z" />
    <glyph glyph-name="m" unicode="m" horiz-adv-x="1630" 
d="M117 1053h78v-215h4q25 101 118 170t221 69t209 -65t99 -158h4q47 111 126 167t208 56q232 0 280.5 -133t48.5 -225v-719h-77v721q0 171 -83.5 230t-162.5 59q-156 0 -246 -101.5t-90 -285.5v-623h-78v721q0 173 -81.5 231t-151.5 58q-143 0 -245.5 -99.5t-102.5 -287.5
v-623h-78v1053z" />
    <glyph glyph-name="n" unicode="n" 
d="M115 1053h78v-226h4q39 115 143 182.5t214 67.5q111 0 176 -22.5t123 -75t76.5 -139.5t18.5 -189v-651h-78v666q0 135 -35.5 200.5t-96 104.5t-158.5 39q-182 0 -284.5 -122t-102.5 -319v-569h-78v1053z" />
    <glyph glyph-name="o" unicode="o" horiz-adv-x="1099" 
d="M143 526.5q0 -94.5 27 -181.5t78 -154.5t127 -107.5t174 -40t174 40t127 107.5t77.5 154.5t26.5 181.5t-26.5 181.5t-77.5 154.5t-127 107.5t-174 40t-174 -40t-127 -107.5t-78 -154.5t-27 -181.5zM66 526.5q0 112.5 31.5 212t93 175t151.5 119.5t207 44t207 -44
t151.5 -119.5t93 -175t31.5 -212t-31.5 -213t-93 -175.5t-151.5 -119t-207 -44t-207 44t-151.5 119t-93 175.5t-31.5 213z" />
    <glyph glyph-name="p" unicode="p" horiz-adv-x="1138" 
d="M594 43q199 0 299 136.5t100 339.5t-98 347t-296 144q-197 0 -291.5 -138.5t-94.5 -410t137.5 -345t243.5 -73.5zM211 811h4q31 99 128.5 182.5t236.5 83.5q247 0 369 -157.5t122 -395.5q0 -387 -176 -468t-302 -81t-228.5 57.5t-149.5 186.5h-4v-596h-78v1430h78v-242z
" />
    <glyph glyph-name="q" unicode="q" horiz-adv-x="1138" 
d="M533 43q194 0 293.5 143.5t99.5 342.5t-101.5 340t-290.5 141t-290 -140t-101 -342q0 -329 144 -407t246 -78zM520 1077q272 0 404 -250h4v226h78v-1430h-78v613h-4q-40 -123 -149 -192t-234 -69q-233 0 -354 153t-121 394t114.5 398t339.5 157z" />
    <glyph glyph-name="r" unicode="r" horiz-adv-x="569" 
d="M193 819h6q29 105 144 174.5t259 65.5v-78q-61 8 -140 -12.5t-151 -89.5q-62 -66 -88 -129t-30 -175v-575h-78v1053h78v-234z" />
    <glyph glyph-name="s" unicode="s" horiz-adv-x="985" 
d="M834 266q0 88 -53.5 133t-134.5 70t-174 40t-174 46t-134 87t-53 150t63.5 189.5t327.5 95.5q263 0 321 -123t58 -213h-78q0 203 -123 236t-182 33q-131 0 -220.5 -51t-89.5 -152q0 -153 143.5 -185t214.5 -46q184 -38 274.5 -98.5t90.5 -212.5q0 -151 -121.5 -220.5
t-298.5 -69.5t-295 98.5t-122 276.5h78q8 -140 104 -223.5t234 -83.5q142 0 243 50.5t101 172.5z" />
    <glyph glyph-name="t" unicode="t" horiz-adv-x="530" 
d="M502 985h-230v-735q0 -118 52 -152t176 -30v-68q-145 -10 -229.5 40t-75.5 210v735h-195v68h195v327h77v-327h230v-68z" />
    <glyph glyph-name="u" unicode="u" 
d="M948 0h-78v225h-4q-38 -113 -142 -181.5t-216 -68.5t-176 22.5t-122 75t-76.5 140t-18.5 188.5v652h78v-666q0 -136 35.5 -201t95.5 -104t158 -39q184 0 286 121t102 319v570h78v-1053z" />
    <glyph glyph-name="v" unicode="v" horiz-adv-x="909" 
d="M516 0h-96l-424 1053h90l381 -963h4l356 963h86z" />
    <glyph glyph-name="w" unicode="w" horiz-adv-x="1441" 
d="M377 90h4l287 963h104l289 -963h4l295 963h86l-338 -1053h-96l-289 954h-4l-291 -954h-98l-334 1053h84z" />
    <glyph glyph-name="x" unicode="x" horiz-adv-x="909" 
d="M401 553l-385 500h109l330 -441l331 441h101l-381 -500l416 -553h-107l-360 494l-369 -494h-98z" />
    <glyph glyph-name="y" unicode="y" horiz-adv-x="909" 
d="M100 -377v68q84 0 131 13t79 45t56.5 92.5t61.5 164.5l-440 1047h92l391 -961l360 961h89l-451 -1166q-33 -78 -60.5 -134t-65.5 -86t-94 -37t-149 -7z" />
    <glyph glyph-name="z" unicode="z" horiz-adv-x="872" 
d="M854 68v-68h-836v74l707 911h-651v68h747v-74l-708 -911h741z" />
    <glyph glyph-name="braceleft" unicode="{" horiz-adv-x="681" 
d="M317 930v325q0 139 47.5 190.5t133.5 51.5h102v-67h-98q-63 0 -85 -47.5t-22 -163.5v-322q0 -174 -43 -235.5t-66.5 -76t-33.5 -20.5q10 -10 33.5 -26.5t66.5 -79t43 -236.5v-321q0 -117 21.5 -164t85.5 -47h98v-68h-102q-86 0 -133.5 51.5t-47.5 190.5v323
q0 325 -147 332v78q147 7 147 332z" />
    <glyph glyph-name="bar" unicode="|" horiz-adv-x="454" 
d="M188 1610h78v-2048h-78v2048z" />
    <glyph glyph-name="braceright" unicode="}" horiz-adv-x="681" 
d="M365 188v-323q0 -139 -47.5 -190.5t-133.5 -51.5h-102v68h98q63 0 85 47t22 164v321q0 174 43 236.5t66.5 79t33.5 26.5q-10 6 -33.5 20.5t-66.5 76t-43 235.5v322q0 117 -21.5 164t-85.5 47h-98v67h102q86 0 133.5 -51t47.5 -191v-325q0 -325 147 -332v-78
q-147 -7 -147 -332z" />
    <glyph glyph-name="asciitilde" unicode="~" horiz-adv-x="1228" 
d="M412 547q-141 0 -203 -154l-59 62q47 78 100.5 124t131.5 46t127 -17.5t105 -43.5t106 -52.5t98 -26.5q74 0 128 52t78 102l57 -57q-112 -174 -247 -174q-57 0 -110.5 21.5t-97.5 42.5t-99 48t-115 27z" />
    <glyph glyph-name="u007F" horiz-adv-x="0" 
 />
    <glyph glyph-name="uni00A0" unicode="&#xa0;" horiz-adv-x="569" 
 />
    <glyph glyph-name="exclamdown" unicode="&#xa1;" horiz-adv-x="530" 
d="M215 -377v494l25 594h49l24 -594v-494h-98zM317 1096v-211h-104v211h104z" />
    <glyph glyph-name="cent" unicode="&#xa2;" horiz-adv-x="1138" 
d="M277.5 189.5q95.5 -134.5 279.5 -146.5v967q-175 -11 -275 -152t-100 -337q0 -197 95.5 -331.5zM224.5 911q120.5 154 332.5 166v183h66v-183q258 -13 324.5 -139.5t74.5 -210.5h-78q-10 131 -98 201.5t-223 81.5v-967q135 12 223 102.5t108 225.5h78
q-25 -180 -137.5 -281.5t-271.5 -114.5v-217h-66v217q-225 11 -339 169.5t-114 385.5t120.5 381z" />
    <glyph glyph-name="sterling" unicode="&#xa3;" horiz-adv-x="1138" 
d="M971 991q-5 428 -387 428q-196 0 -300 -82t-104 -216t57.5 -236.5t75.5 -141.5h328v-67h-289q47 -73 47 -201t-57 -233t-145 -179l4 -4q107 74 195 74q87 0 210 -47q126 -43 203 -43q76 0 139.5 43t120.5 96l45 -67q-140 -150 -309 -150q-79 1 -175 31
q-95 30 -143.5 44.5t-112.5 14.5t-116.5 -25.5t-116.5 -64.5l-51 70q109 104 170.5 204t61.5 223t-60 214h-160v67h123q-47 86 -85 174.5t-38 185.5q0 187 136 290.5t329 103.5q494 0 482 -506h-78z" />
    <glyph glyph-name="currency" unicode="&#xa4;" horiz-adv-x="1138" 
d="M862.5 402q124.5 126 124.5 304q0 177 -124.5 304t-293 127t-293 -126.5t-124.5 -304.5q0 -177 124.5 -303.5t293 -126.5t293 126zM1077 704.5q0 -188.5 -125 -325.5l111 -111l-55 -55l-109 111q-143 -125 -331.5 -125t-327.5 125l-113 -115l-55 55l114 113
q-121 143 -125 330q0 188 125 329l-116 115l55 55l115 -114q144 118 327 122q190 0 332 -124l111 112l55 -55l-113 -111q125 -143 125 -331.5z" />
    <glyph glyph-name="yen" unicode="&#xa5;" horiz-adv-x="1138" 
d="M854 700v-67h-246v-160h246v-67h-246v-406h-78v406h-245v67h245v160h-245v67h188l-487 762h98l487 -766l490 766h92l-487 -762h188z" />
    <glyph glyph-name="brokenbar" unicode="&#xa6;" horiz-adv-x="454" 
d="M188 330h78v-512h-78v512zM188 1354h78v-512h-78v512z" />
    <glyph glyph-name="section" unicode="&#xa7;" horiz-adv-x="1138" 
d="M184 685q0 -88 59 -148.5t154 -116.5q95 -57 177.5 -108.5t168.5 -104.5q30 -7 138 69q71 66 71 160q0 132 -107.5 203.5t-150.5 95.5l-311 185q-79 -30 -121.5 -72.5t-60 -78.5t-17.5 -84zM573 -309q269 0 269 215q0 165 -150.5 248.5t-223.5 123.5q-185 103 -277 190.5
t-85 221.5q0 140 91.5 199t136.5 76q-94 67 -104.5 149t-6.5 100q0 124 103 205.5t237 77.5q178 0 266.5 -108.5t90.5 -290.5h-78q4 134 -73 233t-206 99q-95 4 -178.5 -58.5t-83.5 -156.5q0 -95 54.5 -159.5t134 -114.5t174 -94t175.5 -99.5t135 -129t55 -187.5
t-63.5 -180.5t-162.5 -92.5q61 -57 89 -110.5t28 -136.5q0 -150 -96.5 -219t-258.5 -69t-262 108.5t-100 286.5h78q7 -228 113 -277.5t179 -49.5z" />
    <glyph glyph-name="dieresis" unicode="&#xa8;" horiz-adv-x="342" 
d="M-37 1235v211h90v-211h-90zM287 1235v211h90v-211h-90z" />
    <glyph glyph-name="copyright" unicode="&#xa9;" horiz-adv-x="1638" 
d="M852 1147q-191 0 -293 -114.5t-102 -295.5q0 -180 106 -302t279 -122q125 0 201.5 73t105.5 189h78q-20 -146 -126.5 -237.5t-258.5 -91.5q-210 0 -336.5 138t-126.5 351.5t124.5 346t332.5 132.5q239 0 310 -120.5t81 -196.5h-78q-23 117 -108 183.5t-189 66.5z
M821.5 1430q-147.5 0 -274.5 -53.5t-271.5 -201t-144.5 -442.5q0 -145 53.5 -273t145.5 -223.5t218 -149.5t345.5 -54t416.5 204.5t197 495.5q0 147 -52 274.5t-143 220.5t-217 147.5t-273.5 54.5zM819 1497q160 0 299 -60.5t242.5 -164t164 -242.5t60.5 -299t-60.5 -299
t-164 -242.5t-242.5 -164t-299 -60.5t-299 60.5t-242.5 164t-164 242.5t-60.5 299t60.5 299t164 242.5t242.5 164t299 60.5z" />
    <glyph glyph-name="ordfeminine" unicode="&#xaa;" horiz-adv-x="634" 
d="M92 950q0 -62 43 -103.5t125 -41.5q142 0 197 75t55 140v115q-24 -28 -78.5 -34.5t-91 -8.5t-96.5 -10t-107 -39t-47 -93zM591 768q-73 0 -73 92v29h-4q-18 -55 -82.5 -97t-142.5 -42q-138 0 -200 43.5t-62 149.5t67.5 146.5t167.5 49.5q101 8 148 15t70.5 20.5t28.5 37
t5 69.5t-52 73.5t-138 27.5t-139.5 -42t-59.5 -119h-66q25 217 272 217t247 -174v-365q0 -29 4 -52.5t32 -23.5h15q6 0 22 4v-55q-20 -4 -60 -4z" />
    <glyph glyph-name="guillemotleft" unicode="&#xab;" horiz-adv-x="796" 
d="M137 516v82l234 268v-104l-174 -205l174 -209v-100zM399 516v82l234 268v-104l-174 -205l174 -209v-100z" />
    <glyph glyph-name="logicalnot" unicode="&#xac;" horiz-adv-x="1228" 
d="M1053 678h-955v78h1032v-535h-77v457z" />
    <glyph glyph-name="uni00AD" unicode="&#xad;" horiz-adv-x="720" 
d="M141 518v78h439v-78h-439z" />
    <glyph glyph-name="registered" unicode="&#xae;" horiz-adv-x="1638" 
d="M618 764h193q131 0 183.5 22.5t78 56.5t25.5 89q0 98 -66 141t-164 43h-250v-352zM881 1184q295 0 295 -250q0 -153 -92.5 -193.5t-141.5 -46.5l270 -415h-86l-272 417h-236v-417h-77v905h340zM821.5 1430q-147.5 0 -274.5 -53.5t-219 -147.5t-144.5 -222.5t-52.5 -274.5
t53.5 -273t145.5 -222.5t218 -149.5t345.5 -54t416.5 204.5t197 495.5q0 147 -52 274.5t-143 220.5t-217 147.5t-273.5 54.5zM819 1497q160 0 299 -60.5t242.5 -164t164 -242.5t60.5 -299t-60.5 -299t-164 -242.5t-242.5 -164t-299 -60.5t-299 60.5t-242.5 164t-164 242.5
t-60.5 299t60.5 299t164 242.5t242.5 164t299 60.5z" />
    <glyph glyph-name="macron" unicode="&#xaf;" horiz-adv-x="342" 
d="M-76 1307v67h496v-67h-496z" />
    <glyph glyph-name="degree" unicode="&#xb0;" horiz-adv-x="819" 
d="M257.5 1304q-62.5 -66 -62.5 -160t61 -159t154 -65t154 66t61 158t-62.5 159t-152.5 67t-152.5 -66zM409.5 852q-61.5 0 -114.5 22.5t-93 62.5t-62.5 93t-22.5 114.5t22.5 115t62.5 93.5t93 62.5t114.5 22.5t115 -22.5t93 -62.5t62 -93.5t22.5 -115t-22.5 -114.5t-62 -93
t-93 -62.5t-115 -22.5z" />
    <glyph glyph-name="plusminus" unicode="&#xb1;" horiz-adv-x="1228" 
d="M98 78h1032v-78h-1032v78zM575 1032h78v-387h477v-78h-477v-387h-78v387h-477v78h477v387z" />
    <glyph glyph-name="twosuperior" unicode="&#xb2;" horiz-adv-x="737" 
d="M96 1405q0 137 75 215t201 78t198.5 -65t72.5 -171t-47 -169.5t-121 -110.5l-125 -82q-92 -59 -137 -108.5t-55 -114.5h483v-64h-559q0 170 96 241.5t148 104.5l114 74q133 89 133 217q0 86 -53.5 136t-151.5 50t-150 -63.5t-52 -167.5h-70z" />
    <glyph glyph-name="threesuperior" unicode="&#xb3;" horiz-adv-x="737" 
d="M561 1509q0 127 -194 127q-96 0 -147.5 -56t-55.5 -153h-70q2 121 75 196t199 75t194.5 -61.5t68.5 -168.5q0 -72 -43 -123t-115 -69q92 -12 142.5 -71.5t50.5 -135.5q0 -134 -84 -204t-218 -70t-212 74.5t-78 209.5h69q0 -111 58.5 -167t158.5 -56t168 49t68 143
t-59.5 142.5t-165.5 48.5h-64v64h64q74 0 132 39.5t58 166.5z" />
    <glyph glyph-name="acute" unicode="&#xb4;" horiz-adv-x="342" 
d="M299 1495h104l-274 -287h-76z" />
    <glyph glyph-name="mu" unicode="&#xb5;" horiz-adv-x="1081" 
d="M508 -25q-204 0 -297 140v-492h-78v1430h78v-666q0 -136 36 -201t95.5 -104t157.5 -39q183 0 286 121t103 319v570h78v-1053h-78v225h-4q-38 -112 -142.5 -181t-234.5 -69z" />
    <glyph glyph-name="paragraph" unicode="&#xb6;" horiz-adv-x="1228" 
d="M559 664q-181 0 -302.5 118t-121.5 279q0 199 120 300t337 101h444v-1761h-78v1694h-321v-1694h-78v963z" />
    <glyph glyph-name="periodcentered" unicode="&#xb7;" horiz-adv-x="569" 
d="M174 649q0 43 34 77t77 34t77.5 -33t34.5 -78t-33.5 -78.5t-78.5 -33.5t-78 34.5t-33 77.5z" />
    <glyph glyph-name="cedilla" unicode="&#xb8;" horiz-adv-x="342" 
d="M190 -156q-46 0 -102 -24l-33 26l115 154h70l-99 -115l2 -2q35 15 88 15t97.5 -34t44.5 -110t-57.5 -115.5t-151.5 -39.5t-180 51l22 49q88 -45 153 -45q136 0 136 102q0 39 -29.5 63.5t-75.5 24.5z" />
    <glyph glyph-name="onesuperior" unicode="&#xb9;" horiz-adv-x="737" 
d="M449 1679v-866h-70v741q-94 -94 -244 -108v61q195 28 258 172h56z" />
    <glyph glyph-name="ordmasculine" unicode="&#xba;" horiz-adv-x="684" 
d="M342 805q68 0 116 23.5t79.5 63.5t47 92t15.5 109.5t-15.5 109.5t-47 92t-79.5 63.5t-116 23.5t-116 -23.5t-79.5 -63.5t-47 -92t-15.5 -109.5t15.5 -109.5t47 -92t79.5 -63.5t116 -23.5zM342 750q-78 0 -138.5 25.5t-101.5 71.5t-62.5 109.5t-21.5 137t21.5 136
t62.5 108.5t101.5 73t138.5 27t138.5 -27t101.5 -73t62.5 -108.5t21.5 -136t-21.5 -137t-62.5 -109.5t-101.5 -71.5t-138.5 -25.5z" />
    <glyph glyph-name="guillemotright" unicode="&#xbb;" horiz-adv-x="796" 
d="M164 348l174 209l-174 205v104l233 -268v-82l-233 -268v100zM426 348l174 209l-174 205v104l233 -268v-82l-233 -268v100z" />
    <glyph glyph-name="onequarter" unicode="&#xbc;" horiz-adv-x="1708" 
d="M1331 270v492l-370 -492h370zM1331 207h-440v63l446 596h64v-596h139v-63h-139v-207h-70v207zM432 1427v-866h-70v742q-95 -95 -243 -109v61q194 28 258 172h55zM1217 1462h81l-952 -1511h-82z" />
    <glyph glyph-name="onehalf" unicode="&#xbd;" horiz-adv-x="1708" 
d="M1012 592q0 137 74.5 215t200.5 78t199 -65.5t73 -171.5t-47.5 -169t-120.5 -110l-125 -82q-92 -59 -137.5 -108.5t-55.5 -115.5h483v-63h-559q0 169 96.5 241t147.5 105l115 74q133 89 133 217q0 86 -53.5 136t-151.5 50t-150.5 -63.5t-52.5 -167.5h-69zM432 1427v-866
h-70v742q-95 -95 -243 -109v61q194 28 258 172h55zM1188 1462h82l-953 -1511h-81z" />
    <glyph glyph-name="threequarters" unicode="&#xbe;" horiz-adv-x="1708" 
d="M1374 270v492l-370 -492h370zM1374 207h-440v63l446 596h64v-596h139v-63h-139v-207h-70v207zM639 1257q0 127 -194 127q-96 0 -147.5 -56t-55.5 -152h-70q2 121 75 195.5t199 74.5t194.5 -61.5t68.5 -150.5t-43 -140.5t-115 -69.5q92 -12 142 -71.5t50 -135.5
q0 -136 -85 -205t-218 -69t-210.5 74.5t-77.5 209.5h69q0 -111 58.5 -167t158.5 -56t168 49t68 143t-59.5 142.5t-165.5 48.5h-64v64h64q74 0 132 39.5t58 166.5zM1386 1462h82l-952 -1511h-82z" />
    <glyph glyph-name="questiondown" unicode="&#xbf;" 
d="M973 86q0 -221 -117.5 -354t-337.5 -133q-172 0 -286.5 93t-114.5 263t73.5 247.5t108.5 109.5t118 110.5t83 302.5h78q0 -210 -72 -297.5t-139 -151t-119.5 -137.5t-52.5 -162q0 -153 94.5 -227t234.5 -74q180 0 275.5 114t95.5 296h78zM588 885h-105v211h105v-211z" />
    <glyph glyph-name="Agrave" unicode="&#xc0;" horiz-adv-x="1214" 
d="M594 1597l-275 287h105l246 -287h-76zM930 547l-314 827h-4l-325 -827h643zM563 1462h99l577 -1462h-96l-185 469h-700l-186 -469h-97z" />
    <glyph glyph-name="Aacute" unicode="&#xc1;" horiz-adv-x="1214" 
d="M807 1884h104l-274 -287h-76zM930 547l-314 827h-4l-325 -827h643zM563 1462h99l577 -1462h-96l-185 469h-700l-186 -469h-97z" />
    <glyph glyph-name="Acircumflex" unicode="&#xc2;" horiz-adv-x="1214" 
d="M655 1884l238 -287h-78l-201 236l-198 -236h-78l235 287h82zM930 547l-314 827h-4l-325 -827h643zM563 1462h99l577 -1462h-96l-185 469h-700l-186 -469h-97z" />
    <glyph glyph-name="Atilde" unicode="&#xc3;" horiz-adv-x="1214" 
d="M473 1753q-76 0 -96 -117h-60q4 71 47.5 128t104.5 57t125.5 -40t98.5 -58.5t71 -18.5t59.5 38t26.5 79h59q-14 -124 -65 -154.5t-88 -30.5t-72 18.5t-70.5 40t-70.5 40t-70 18.5zM930 547l-314 827h-4l-325 -827h643zM563 1462h99l577 -1462h-96l-185 469h-700
l-186 -469h-97z" />
    <glyph glyph-name="Adieresis" unicode="&#xc4;" horiz-adv-x="1214" 
d="M408 1624v211h90v-211h-90zM731 1624v211h90v-211h-90zM930 547l-314 827h-4l-325 -827h643zM563 1462h99l577 -1462h-96l-185 469h-700l-186 -469h-97z" />
    <glyph glyph-name="Aring" unicode="&#xc5;" horiz-adv-x="1214" 
d="M467 1740.5q0 -61.5 43 -104.5t104.5 -43t104.5 43t43 104.5t-43 104.5t-104.5 43t-104.5 -43t-43 -104.5zM412 1741q0 86 58 144.5t144 58.5t144.5 -58.5t58.5 -144.5t-58.5 -144.5t-144.5 -58.5t-144 58.5t-58 144.5zM930 547l-314 827h-4l-325 -827h643zM563 1462h99
l577 -1462h-96l-185 469h-700l-186 -469h-97z" />
    <glyph glyph-name="AE" unicode="&#xc6;" horiz-adv-x="1781" 
d="M883 1384h-97l-411 -786h508v786zM1749 1462v-78h-776v-585h717v-78h-717v-643h778v-78h-868v520h-549l-271 -520h-81l763 1462h1004z" />
    <glyph glyph-name="Ccedilla" unicode="&#xc7;" horiz-adv-x="1441" 
d="M749 -156q-46 0 -102 -24l-33 26l91 121q-295 24 -463 237.5t-168 535.5t187 539.5t509 217.5q231 0 362.5 -102t178.5 -216t47 -153h-90q-27 179 -168.5 286t-329.5 107q-278 0 -442 -198t-164 -490.5t118.5 -434.5t232 -197.5t237.5 -55.5q227 0 377.5 157t162.5 369
h90q-24 -260 -196 -432t-416 -172h-2l-68 -80l2 -2q35 15 88 15t97.5 -34t44.5 -110t-57.5 -115.5t-151.5 -39.5t-180 51l22 49q88 -45 153 -45q136 0 136 102q0 39 -29.5 63.5t-75.5 24.5z" />
    <glyph glyph-name="Egrave" unicode="&#xc8;" horiz-adv-x="1146" 
d="M610 1597l-274 287h104l246 -287h-76zM129 1462h983v-78h-893v-585h840v-78h-840v-643h903v-78h-993v1462z" />
    <glyph glyph-name="Eacute" unicode="&#xc9;" horiz-adv-x="1146" 
d="M782 1884h105l-275 -287h-75zM129 1462h983v-78h-893v-585h840v-78h-840v-643h903v-78h-993v1462z" />
    <glyph glyph-name="Ecircumflex" unicode="&#xca;" horiz-adv-x="1146" 
d="M651 1884l238 -287h-78l-201 236l-198 -236h-78l235 287h82zM129 1462h983v-78h-893v-585h840v-78h-840v-643h903v-78h-993v1462z" />
    <glyph glyph-name="Edieresis" unicode="&#xcb;" horiz-adv-x="1146" 
d="M403 1624v211h91v-211h-91zM727 1624v211h90v-211h-90zM129 1462h983v-78h-893v-585h840v-78h-840v-643h903v-78h-993v1462z" />
    <glyph glyph-name="Igrave" unicode="&#xcc;" horiz-adv-x="348" 
d="M154 1597l-275 287h105l245 -287h-75zM129 1462h90v-1462h-90v1462z" />
    <glyph glyph-name="Iacute" unicode="&#xcd;" horiz-adv-x="348" 
d="M367 1884h104l-274 -287h-76zM129 1462h90v-1462h-90v1462z" />
    <glyph glyph-name="Icircumflex" unicode="&#xce;" horiz-adv-x="348" 
d="M215 1884l238 -287h-78l-201 236l-199 -236h-77l235 287h82zM129 1462h90v-1462h-90v1462z" />
    <glyph glyph-name="Idieresis" unicode="&#xcf;" horiz-adv-x="348" 
d="M-33 1624v211h90v-211h-90zM291 1624v211h90v-211h-90zM129 1462h90v-1462h-90v1462z" />
    <glyph glyph-name="Eth" unicode="&#xd0;" horiz-adv-x="1366" 
d="M1194 733q0 651 -600 651h-375v-589h504v-68h-504v-649h393q239 0 410.5 153t171.5 502zM129 727h-156v68h156v667h479q363 0 519.5 -204.5t156.5 -530.5q0 -325 -172.5 -526t-507.5 -201h-475v727z" />
    <glyph glyph-name="Ntilde" unicode="&#xd1;" horiz-adv-x="1388" 
d="M563 1753q-76 0 -96 -117h-59q4 73 47 129t104 56t126 -40t98.5 -58.5t70.5 -18.5t59.5 38t26.5 79h59q-14 -124 -65 -154.5t-88 -30.5t-72 18.5t-70.5 40t-70.5 40t-70 18.5zM129 1462h113l923 -1341h4v1341h91v-1462h-107l-930 1352h-4v-1352h-90v1462z" />
    <glyph glyph-name="Ograve" unicode="&#xd2;" horiz-adv-x="1517" 
d="M760 1597l-275 287h105l246 -287h-76zM154 731q0 -141 41 -266t118.5 -218t190 -148.5t256 -55.5t255 55.5t189.5 148.5t119 218t41 266t-41 266t-119 218.5t-189.5 148.5t-255 55t-256 -55t-190 -148.5t-118.5 -218.5t-41 -266zM1454 731q0 -160 -47 -300t-136 -243.5
t-218 -163t-293 -59.5t-294 59.5t-219 163t-136.5 243.5t-47.5 300t47.5 300t136.5 243.5t219 163t294 59.5t293 -59.5t218 -163t136 -243.5t47 -300z" />
    <glyph glyph-name="Oacute" unicode="&#xd3;" horiz-adv-x="1517" 
d="M932 1884h104l-274 -287h-76zM154 731q0 -141 41 -266t118.5 -218t190 -148.5t256 -55.5t255 55.5t189.5 148.5t119 218t41 266t-41 266t-119 218.5t-189.5 148.5t-255 55t-256 -55t-190 -148.5t-118.5 -218.5t-41 -266zM1454 731q0 -160 -47 -300t-136 -243.5t-218 -163
t-293 -59.5t-294 59.5t-219 163t-136.5 243.5t-47.5 300t47.5 300t136.5 243.5t219 163t294 59.5t293 -59.5t218 -163t136 -243.5t47 -300z" />
    <glyph glyph-name="Ocircumflex" unicode="&#xd4;" horiz-adv-x="1517" 
d="M801 1884l237 -287h-77l-201 236l-199 -236h-78l236 287h82zM154 731q0 -141 41 -266t118.5 -218t190 -148.5t256 -55.5t255 55.5t189.5 148.5t119 218t41 266t-41 266t-119 218.5t-189.5 148.5t-255 55t-256 -55t-190 -148.5t-118.5 -218.5t-41 -266zM1454 731
q0 -160 -47 -300t-136 -243.5t-218 -163t-293 -59.5t-294 59.5t-219 163t-136.5 243.5t-47.5 300t47.5 300t136.5 243.5t219 163t294 59.5t293 -59.5t218 -163t136 -243.5t47 -300z" />
    <glyph glyph-name="Otilde" unicode="&#xd5;" horiz-adv-x="1517" 
d="M618 1753q-76 0 -96 -117h-59q4 73 47 129t113 56q39 0 75.5 -18.5t71.5 -40t68.5 -40t70.5 -18.5t59.5 38t26.5 79h60q-14 -123 -65.5 -154t-88.5 -31t-71.5 18.5t-70.5 40t-71 40t-70 18.5zM154 731q0 -141 41 -266t118.5 -218t190 -148.5t256 -55.5t255 55.5
t189.5 148.5t119 218t41 266t-41 266t-119 218.5t-189.5 148.5t-255 55t-256 -55t-190 -148.5t-118.5 -218.5t-41 -266zM1454 731q0 -160 -47 -300t-136 -243.5t-218 -163t-293 -59.5t-294 59.5t-219 163t-136.5 243.5t-47.5 300t47.5 300t136.5 243.5t219 163t294 59.5
t293 -59.5t218 -163t136 -243.5t47 -300z" />
    <glyph glyph-name="Odieresis" unicode="&#xd6;" horiz-adv-x="1517" 
d="M553 1624v211h90v-211h-90zM877 1624v211h90v-211h-90zM154 731q0 -141 41 -266t118.5 -218t190 -148.5t256 -55.5t255 55.5t189.5 148.5t119 218t41 266t-41 266t-119 218.5t-189.5 148.5t-255 55t-256 -55t-190 -148.5t-118.5 -218.5t-41 -266zM1454 731
q0 -160 -47 -300t-136 -243.5t-218 -163t-293 -59.5t-294 59.5t-219 163t-136.5 243.5t-47.5 300t47.5 300t136.5 243.5t219 163t294 59.5t293 -59.5t218 -163t136 -243.5t47 -300z" />
    <glyph glyph-name="multiply" unicode="&#xd7;" horiz-adv-x="1228" 
d="M559 516l-397 399l53 56l399 -400l398 400l55 -56l-397 -399l397 -397l-55 -56l-398 400l-399 -400l-53 56z" />
    <glyph glyph-name="Oslash" unicode="&#xd8;" horiz-adv-x="1517" 
d="M338 221q161 -178 428 -178t432.5 197.5t165.5 478.5q0 282 -139 473zM1178 1247q-168 172 -432 172t-428 -198t-164 -480t139 -467zM231 209q-168 213 -168 532t187.5 537.5t493.5 218.5q305 0 491 -186l139 151l53 -49l-143 -156q170 -206 170 -531q0 -326 -187 -543.5
t-497 -217.5t-491 191l-156 -172l-53 49z" />
    <glyph glyph-name="Ugrave" unicode="&#xd9;" horiz-adv-x="1376" 
d="M688 1597l-274 287h104l246 -287h-76zM678 -35q-549 0 -549 621v876h90v-876q0 -129 32 -246.5t132.5 -207t294.5 -89.5q377 0 428 209t51 334v876h90v-876q0 -621 -569 -621z" />
    <glyph glyph-name="Uacute" unicode="&#xda;" horiz-adv-x="1376" 
d="M860 1884h105l-275 -287h-76zM678 -35q-549 0 -549 621v876h90v-876q0 -129 32 -246.5t132.5 -207t294.5 -89.5q377 0 428 209t51 334v876h90v-876q0 -621 -569 -621z" />
    <glyph glyph-name="Ucircumflex" unicode="&#xdb;" horiz-adv-x="1376" 
d="M729 1884l238 -287h-78l-201 236l-199 -236h-77l235 287h82zM678 -35q-549 0 -549 621v876h90v-876q0 -129 32 -246.5t132.5 -207t294.5 -89.5q377 0 428 209t51 334v876h90v-876q0 -621 -569 -621z" />
    <glyph glyph-name="Udieresis" unicode="&#xdc;" horiz-adv-x="1376" 
d="M481 1624v211h90v-211h-90zM805 1624v211h90v-211h-90zM678 -35q-549 0 -549 621v876h90v-876q0 -129 32 -246.5t132.5 -207t294.5 -89.5q377 0 428 209t51 334v876h90v-876q0 -621 -569 -621z" />
    <glyph glyph-name="Yacute" unicode="&#xdd;" horiz-adv-x="1175" 
d="M762 1884h104l-274 -287h-76zM631 0h-90v612l-584 850h102l529 -774l530 774h101l-588 -850v-612z" />
    <glyph glyph-name="Thorn" unicode="&#xde;" horiz-adv-x="1214" 
d="M219 483h514q184 0 269 97.5t85 230.5q0 203 -115.5 265.5t-226.5 62.5h-526v-656zM129 1462h90v-245h533q277 0 351.5 -138.5t74.5 -269.5q0 -197 -119 -300t-340 -103h-500v-406h-90v1462z" />
    <glyph glyph-name="germandbls" unicode="&#xdf;" horiz-adv-x="1024" 
d="M877 1147q0 -267 -244 -322v-4q160 -18 237.5 -120.5t77.5 -257.5q0 -263 -130.5 -353t-280.5 -90h-113v68h78q139 0 253.5 75t114.5 278q0 204 -115.5 279.5t-330.5 75.5v68q256 0 315.5 110.5t59.5 185.5q0 138 -88.5 208.5t-218.5 70.5q-295 0 -295 -319v-1100h-78
v1100q0 387 373 387q265 0 325 -127t60 -213z" />
    <glyph glyph-name="agrave" unicode="&#xe0;" horiz-adv-x="1024" 
d="M526 1208l-274 287h104l246 -287h-76zM143 272q0 -117 74 -173t205 -56t209 48t119 110.5t52 121t11 78.5v197q-29 -35 -87 -47t-130 -19l-131 -12q-151 -16 -207.5 -49t-85.5 -79t-29 -120zM427 1077q290 0 377 -74.5t87 -195.5v-612q0 -62 10.5 -94.5t59.5 -32.5
q20 0 57 6v-66q-31 -8 -71 -8q-77 0 -105.5 40t-28.5 114v55h-4q-37 -98 -140.5 -166t-261.5 -68q-157 0 -249 73t-92 231t109 223.5t278 81.5l120 10q158 11 194 45.5t42 71.5t6 86q0 96 -71 154.5t-217 58.5t-233 -70t-95 -211h-78q16 348 306 348z" />
    <glyph glyph-name="aacute" unicode="&#xe1;" horiz-adv-x="1024" 
d="M698 1495h105l-275 -287h-75zM143 272q0 -117 74 -173t205 -56t209 48t119 110.5t52 121t11 78.5v197q-29 -35 -87 -47t-130 -19l-131 -12q-151 -16 -207.5 -49t-85.5 -79t-29 -120zM427 1077q290 0 377 -74.5t87 -195.5v-612q0 -62 10.5 -94.5t59.5 -32.5q20 0 57 6v-66
q-31 -8 -71 -8q-77 0 -105.5 40t-28.5 114v55h-4q-37 -98 -140.5 -166t-261.5 -68q-157 0 -249 73t-92 231t109 223.5t278 81.5l120 10q158 11 194 45.5t42 71.5t6 86q0 96 -71 154.5t-217 58.5t-233 -70t-95 -211h-78q16 348 306 348z" />
    <glyph glyph-name="acircumflex" unicode="&#xe2;" horiz-adv-x="1024" 
d="M567 1495l238 -287h-78l-201 236l-198 -236h-78l235 287h82zM143 272q0 -117 74 -173t205 -56t209 48t119 110.5t52 121t11 78.5v197q-29 -35 -87 -47t-130 -19l-131 -12q-151 -16 -207.5 -49t-85.5 -79t-29 -120zM427 1077q290 0 377 -74.5t87 -195.5v-612
q0 -62 10.5 -94.5t59.5 -32.5q20 0 57 6v-66q-31 -8 -71 -8q-77 0 -105.5 40t-28.5 114v55h-4q-37 -98 -140.5 -166t-261.5 -68q-157 0 -249 73t-92 231t109 223.5t278 81.5l120 10q158 11 194 45.5t42 71.5t6 86q0 96 -71 154.5t-217 58.5t-233 -70t-95 -211h-78
q16 348 306 348z" />
    <glyph glyph-name="atilde" unicode="&#xe3;" horiz-adv-x="1024" 
d="M385 1364q-76 0 -96 -117h-60q4 71 47.5 128t104.5 57t125.5 -40t98.5 -58.5t71 -18.5t59.5 38t26.5 79h59q-14 -124 -65 -154.5t-88 -30.5t-72 18.5t-71 40t-70.5 40t-69.5 18.5zM143 272q0 -117 74 -173t205 -56t209 48t119 110.5t52 121t11 78.5v197q-29 -35 -87 -47
t-130 -19l-131 -12q-151 -16 -207.5 -49t-85.5 -79t-29 -120zM427 1077q290 0 377 -74.5t87 -195.5v-612q0 -62 10.5 -94.5t59.5 -32.5q20 0 57 6v-66q-31 -8 -71 -8q-77 0 -105.5 40t-28.5 114v55h-4q-37 -98 -140.5 -166t-261.5 -68q-157 0 -249 73t-92 231t109 223.5
t278 81.5l120 10q158 11 194 45.5t42 71.5t6 86q0 96 -71 154.5t-217 58.5t-233 -70t-95 -211h-78q16 348 306 348z" />
    <glyph glyph-name="adieresis" unicode="&#xe4;" horiz-adv-x="1024" 
d="M319 1235v211h91v-211h-91zM643 1235v211h90v-211h-90zM143 272q0 -117 74 -173t205 -56t209 48t119 110.5t52 121t11 78.5v197q-29 -35 -87 -47t-130 -19l-131 -12q-151 -16 -207.5 -49t-85.5 -79t-29 -120zM427 1077q290 0 377 -74.5t87 -195.5v-612q0 -62 10.5 -94.5
t59.5 -32.5q20 0 57 6v-66q-31 -8 -71 -8q-77 0 -105.5 40t-28.5 114v55h-4q-37 -98 -140.5 -166t-261.5 -68q-157 0 -249 73t-92 231t109 223.5t278 81.5l120 10q158 11 194 45.5t42 71.5t6 86q0 96 -71 154.5t-217 58.5t-233 -70t-95 -211h-78q16 348 306 348z" />
    <glyph glyph-name="aring" unicode="&#xe5;" horiz-adv-x="1024" 
d="M379 1372.5q0 -61.5 43 -104.5t104.5 -43t104.5 43t43 104.5t-43 104.5t-104.5 43t-104.5 -43t-43 -104.5zM324 1372q0 86 58 144.5t144 58.5t144.5 -58.5t58.5 -144.5t-58.5 -144.5t-144.5 -58.5t-144 58.5t-58 144.5zM143 272q0 -117 74 -173t205 -56t209 48t119 110.5
t52 121t11 78.5v197q-29 -35 -87 -47t-130 -19l-131 -12q-151 -16 -207.5 -49t-85.5 -79t-29 -120zM427 1077q290 0 377 -74.5t87 -195.5v-612q0 -62 10.5 -94.5t59.5 -32.5q20 0 57 6v-66q-31 -8 -71 -8q-77 0 -105.5 40t-28.5 114v55h-4q-37 -98 -140.5 -166t-261.5 -68
q-157 0 -249 73t-92 231t109 223.5t278 81.5l120 10q158 11 194 45.5t42 71.5t6 86q0 96 -71 154.5t-217 58.5t-233 -70t-95 -211h-78q16 348 306 348z" />
    <glyph glyph-name="ae" unicode="&#xe6;" horiz-adv-x="1820" 
d="M831 592h-4q-26 -50 -230.5 -62.5t-329 -45.5t-124.5 -216q0 -112 88.5 -168.5t187.5 -56.5q176 0 292 107t120 262v180zM1019.5 888.5q-97.5 -121.5 -110.5 -304.5h766q4 176 -101 301t-281 125t-273.5 -121.5zM1296 1077q231 0 354.5 -162.5t102.5 -398.5h-842
q-13 -201 88.5 -337t296.5 -136q150 0 247 79t120 228h78q-29 -178 -147 -276.5t-288 -98.5t-282.5 76t-149.5 230h-4q-51 -141 -162.5 -223.5t-265.5 -82.5q-257 0 -316.5 107.5t-59.5 193.5q0 164 114.5 231.5t268.5 72.5q68 8 138 9t126.5 15t90.5 49t27 111
q0 129 -75.5 187.5t-223.5 58.5t-240.5 -68t-103.5 -219h-77q12 182 124.5 268t288.5 86q349 0 369 -268h4q96 268 399 268z" />
    <glyph glyph-name="ccedilla" unicode="&#xe7;" 
d="M546 -156q-46 0 -102 -24l-32 26l96 131q-220 15 -330 172t-110 388t129 385.5t354 154.5q177 0 297.5 -89t136.5 -261h-78q-12 136 -110.5 209.5t-245.5 73.5q-189 0 -297.5 -141.5t-108.5 -347.5t104.5 -342t301.5 -136q144 0 244 89.5t123 238.5h77
q-24 -180 -139 -283t-281 -113l-77 -90l2 -2q35 15 88 15t97 -34t44 -110t-57.5 -115.5t-151.5 -39.5t-180 51l22 49q88 -45 153 -45q136 0 136 102q0 39 -29.5 63.5t-75.5 24.5z" />
    <glyph glyph-name="egrave" unicode="&#xe8;" 
d="M535 1208l-275 287h105l245 -287h-75zM540 1010q-175 0 -276 -121t-117 -305h771q-13 286 -150 356t-228 70zM145 516v-12q0 -194 101 -327.5t272 -133.5q172 0 264 83t127 230h78q-35 -184 -150.5 -282.5t-322.5 -98.5t-327.5 150.5t-120.5 389.5t124.5 400.5
t345.5 161.5t341 -147.5t120 -368.5l-2 -45h-850z" />
    <glyph glyph-name="eacute" unicode="&#xe9;" 
d="M707 1495h104l-274 -287h-76zM540 1010q-175 0 -276 -121t-117 -305h771q-13 286 -150 356t-228 70zM145 516v-12q0 -194 101 -327.5t272 -133.5q172 0 264 83t127 230h78q-35 -184 -150.5 -282.5t-322.5 -98.5t-327.5 150.5t-120.5 389.5t124.5 400.5t345.5 161.5
t341 -147.5t120 -368.5l-2 -45h-850z" />
    <glyph glyph-name="ecircumflex" unicode="&#xea;" 
d="M575 1495l238 -287h-78l-200 236l-199 -236h-78l236 287h81zM540 1010q-175 0 -276 -121t-117 -305h771q-13 286 -150 356t-228 70zM145 516v-12q0 -194 101 -327.5t272 -133.5q172 0 264 83t127 230h78q-35 -184 -150.5 -282.5t-322.5 -98.5t-327.5 150.5t-120.5 389.5
t124.5 400.5t345.5 161.5t341 -147.5t120 -368.5l-2 -45h-850z" />
    <glyph glyph-name="edieresis" unicode="&#xeb;" 
d="M328 1235v211h90v-211h-90zM651 1235v211h90v-211h-90zM540 1010q-175 0 -276 -121t-117 -305h771q-13 286 -150 356t-228 70zM145 516v-12q0 -194 101 -327.5t272 -133.5q172 0 264 83t127 230h78q-35 -184 -150.5 -282.5t-322.5 -98.5t-327.5 150.5t-120.5 389.5
t124.5 400.5t345.5 161.5t341 -147.5t120 -368.5l-2 -45h-850z" />
    <glyph glyph-name="igrave" unicode="&#xec;" horiz-adv-x="344" 
d="M150 1208l-275 287h105l245 -287h-75zM133 0v1053h78v-1053h-78z" />
    <glyph glyph-name="iacute" unicode="&#xed;" horiz-adv-x="344" 
d="M367 1495h104l-274 -287h-76zM133 0v1053h78v-1053h-78z" />
    <glyph glyph-name="icircumflex" unicode="&#xee;" horiz-adv-x="344" 
d="M213 1495l238 -287h-78l-201 236l-199 -236h-77l235 287h82zM133 0v1053h78v-1053h-78z" />
    <glyph glyph-name="idieresis" unicode="&#xef;" horiz-adv-x="344" 
d="M-35 1235v211h90v-211h-90zM289 1235v211h90v-211h-90zM133 0v1053h78v-1053h-78z" />
    <glyph glyph-name="eth" unicode="&#xf0;" horiz-adv-x="1099" 
d="M143 504q0 -191 107 -326t304 -135t298.5 133.5t101.5 327.5t-105 329.5t-297.5 135.5t-300.5 -137t-108 -328zM641 1313q391 -310 391 -791q0 -246 -125 -396.5t-360 -150.5q-236 0 -358.5 150t-122.5 380q0 229 130 380t355 151q92 0 176 -30.5t158 -120.5l4 4
q-89 206 -318 385l-229 -127l-43 45l221 123q-108 82 -211 133l58 49q119 -63 221 -145l235 131l41 -45z" />
    <glyph glyph-name="ntilde" unicode="&#xf1;" 
d="M391 1364q-76 0 -96 -117h-59q4 73 47 129t104 56t126 -40t98.5 -58.5t70.5 -18.5t59.5 38t26.5 79h59q-14 -124 -65 -154.5t-88 -30.5t-72 18.5t-70.5 40t-70.5 40t-70 18.5zM115 1053h78v-226h4q39 115 143 182.5t214 67.5q111 0 176 -22.5t123 -75t76.5 -139.5
t18.5 -189v-651h-78v666q0 135 -35.5 200.5t-96 104.5t-158.5 39q-182 0 -284.5 -122t-102.5 -319v-569h-78v1053z" />
    <glyph glyph-name="ograve" unicode="&#xf2;" horiz-adv-x="1099" 
d="M559 1208l-274 287h104l246 -287h-76zM143 526.5q0 -94.5 27 -181.5t78 -154.5t127 -107.5t174 -40t174 40t127 107.5t77.5 154.5t26.5 181.5t-26.5 181.5t-77.5 154.5t-127 107.5t-174 40t-174 -40t-127 -107.5t-78 -154.5t-27 -181.5zM66 526.5q0 112.5 31.5 212
t93 175t151.5 119.5t207 44t207 -44t151.5 -119.5t93 -175t31.5 -212t-31.5 -213t-93 -175.5t-151.5 -119t-207 -44t-207 44t-151.5 119t-93 175.5t-31.5 213z" />
    <glyph glyph-name="oacute" unicode="&#xf3;" horiz-adv-x="1099" 
d="M711 1495h104l-274 -287h-76zM143 526.5q0 -94.5 27 -181.5t78 -154.5t127 -107.5t174 -40t174 40t127 107.5t77.5 154.5t26.5 181.5t-26.5 181.5t-77.5 154.5t-127 107.5t-174 40t-174 -40t-127 -107.5t-78 -154.5t-27 -181.5zM66 526.5q0 112.5 31.5 212t93 175
t151.5 119.5t207 44t207 -44t151.5 -119.5t93 -175t31.5 -212t-31.5 -213t-93 -175.5t-151.5 -119t-207 -44t-207 44t-151.5 119t-93 175.5t-31.5 213z" />
    <glyph glyph-name="ocircumflex" unicode="&#xf4;" horiz-adv-x="1099" 
d="M590 1495l237 -287h-77l-201 236l-199 -236h-78l236 287h82zM143 526.5q0 -94.5 27 -181.5t78 -154.5t127 -107.5t174 -40t174 40t127 107.5t77.5 154.5t26.5 181.5t-26.5 181.5t-77.5 154.5t-127 107.5t-174 40t-174 -40t-127 -107.5t-78 -154.5t-27 -181.5zM66 526.5
q0 112.5 31.5 212t93 175t151.5 119.5t207 44t207 -44t151.5 -119.5t93 -175t31.5 -212t-31.5 -213t-93 -175.5t-151.5 -119t-207 -44t-207 44t-151.5 119t-93 175.5t-31.5 213z" />
    <glyph glyph-name="otilde" unicode="&#xf5;" horiz-adv-x="1099" 
d="M413 1432q38 0 74.5 -18.5t71.5 -40t69 -40t70 -18.5t59 38t27 79h60q-14 -123 -65.5 -154t-88.5 -31t-71.5 18.5t-70.5 40t-71 40t-73 18.5t-61.5 -35t-31.5 -82h-59q4 70 34.5 111t59.5 57.5t67 16.5zM143 526.5q0 -94.5 27 -181.5t78 -154.5t127 -107.5t174 -40
t174 40t127 107.5t77.5 154.5t26.5 181.5t-26.5 181.5t-77.5 154.5t-127 107.5t-174 40t-174 -40t-127 -107.5t-78 -154.5t-27 -181.5zM66 526.5q0 112.5 31.5 212t93 175t151.5 119.5t207 44t207 -44t151.5 -119.5t93 -175t31.5 -212t-31.5 -213t-93 -175.5t-151.5 -119
t-207 -44t-207 44t-151.5 119t-93 175.5t-31.5 213z" />
    <glyph glyph-name="odieresis" unicode="&#xf6;" horiz-adv-x="1099" 
d="M342 1235v211h90v-211h-90zM666 1235v211h90v-211h-90zM143 526.5q0 -94.5 27 -181.5t78 -154.5t127 -107.5t174 -40t174 40t127 107.5t77.5 154.5t26.5 181.5t-26.5 181.5t-77.5 154.5t-127 107.5t-174 40t-174 -40t-127 -107.5t-78 -154.5t-27 -181.5zM66 526.5
q0 112.5 31.5 212t93 175t151.5 119.5t207 44t207 -44t151.5 -119.5t93 -175t31.5 -212t-31.5 -213t-93 -175.5t-151.5 -119t-207 -44t-207 44t-151.5 119t-93 175.5t-31.5 213z" />
    <glyph glyph-name="divide" unicode="&#xf7;" horiz-adv-x="1228" 
d="M512 105q0 44 30.5 75t73.5 31t75 -30.5t32 -74.5t-32 -75t-75 -31t-73.5 30.5t-30.5 74.5zM98 477v78h1032v-78h-1032zM512 927q0 44 30.5 74.5t73.5 30.5t75 -30.5t32 -74.5t-32 -75t-75 -31t-73.5 31t-30.5 75z" />
    <glyph glyph-name="oslash" unicode="&#xf8;" horiz-adv-x="1099" 
d="M264 172q112 -129 293 -129q182 0 289.5 142.5t107.5 328.5t-77 305zM836 877q-106 133 -291 133t-293.5 -143t-108.5 -330t80 -308zM932 877q100 -147 100 -367t-129 -377.5t-347 -157.5t-345 142l-111 -117l-49 47l117 125q-102 145 -102 367t129 380t346 158
q218 0 348 -145l112 119l50 -47z" />
    <glyph glyph-name="ugrave" unicode="&#xf9;" 
d="M530 1208l-274 287h104l246 -287h-76zM948 0h-78v225h-4q-38 -113 -142 -181.5t-216 -68.5t-176 22.5t-122 75t-76.5 140t-18.5 188.5v652h78v-666q0 -136 35.5 -201t95.5 -104t158 -39q184 0 286 121t102 319v570h78v-1053z" />
    <glyph glyph-name="uacute" unicode="&#xfa;" 
d="M702 1495h105l-275 -287h-75zM948 0h-78v225h-4q-38 -113 -142 -181.5t-216 -68.5t-176 22.5t-122 75t-76.5 140t-18.5 188.5v652h78v-666q0 -136 35.5 -201t95.5 -104t158 -39q184 0 286 121t102 319v570h78v-1053z" />
    <glyph glyph-name="ucircumflex" unicode="&#xfb;" 
d="M571 1495l238 -287h-78l-201 236l-198 -236h-78l235 287h82zM948 0h-78v225h-4q-38 -113 -142 -181.5t-216 -68.5t-176 22.5t-122 75t-76.5 140t-18.5 188.5v652h78v-666q0 -136 35.5 -201t95.5 -104t158 -39q184 0 286 121t102 319v570h78v-1053z" />
    <glyph glyph-name="udieresis" unicode="&#xfc;" 
d="M324 1235v211h90v-211h-90zM647 1235v211h90v-211h-90zM948 0h-78v225h-4q-38 -113 -142 -181.5t-216 -68.5t-176 22.5t-122 75t-76.5 140t-18.5 188.5v652h78v-666q0 -136 35.5 -201t95.5 -104t158 -39q184 0 286 121t102 319v570h78v-1053z" />
    <glyph glyph-name="yacute" unicode="&#xfd;" horiz-adv-x="909" 
d="M641 1495h104l-274 -287h-76zM100 -377v68q84 0 131 13t79 45t56.5 92.5t61.5 164.5l-440 1047h92l391 -961l360 961h89l-451 -1166q-33 -78 -60.5 -134t-65.5 -86t-94 -37t-149 -7z" />
    <glyph glyph-name="thorn" unicode="&#xfe;" horiz-adv-x="1138" 
d="M594 43q199 0 299 136.5t100 339.5t-98 347t-296 144q-197 0 -291.5 -138.5t-94.5 -410t137.5 -345t243.5 -73.5zM133 1462h78v-651h4q31 99 128.5 182.5t236.5 83.5q247 0 369 -157.5t122 -395.5q0 -387 -176 -468t-302 -81t-228.5 57.5t-149.5 186.5h-4v-596h-78v1839z
" />
    <glyph glyph-name="ydieresis" unicode="&#xff;" horiz-adv-x="909" 
d="M262 1235v211h90v-211h-90zM586 1235v211h90v-211h-90zM100 -377v68q84 0 131 13t79 45t56.5 92.5t61.5 164.5l-440 1047h92l391 -961l360 961h89l-451 -1166q-33 -78 -60.5 -134t-65.5 -86t-94 -37t-149 -7z" />
    <glyph glyph-name="Amacron" unicode="&#x100;" horiz-adv-x="1214" 
d="M367 1696v67h495v-67h-495zM930 547l-314 827h-4l-325 -827h643zM563 1462h99l577 -1462h-96l-185 469h-700l-186 -469h-97z" />
    <glyph glyph-name="amacron" unicode="&#x101;" horiz-adv-x="1024" 
d="M279 1307v67h495v-67h-495zM143 272q0 -117 74 -173t205 -56t209 48t119 110.5t52 121t11 78.5v197q-29 -35 -87 -47t-130 -19l-131 -12q-151 -16 -207.5 -49t-85.5 -79t-29 -120zM427 1077q290 0 377 -74.5t87 -195.5v-612q0 -62 10.5 -94.5t59.5 -32.5q20 0 57 6v-66
q-31 -8 -71 -8q-77 0 -105.5 40t-28.5 114v55h-4q-37 -98 -140.5 -166t-261.5 -68q-157 0 -249 73t-92 231t109 223.5t278 81.5l120 10q158 11 194 45.5t42 71.5t6 86q0 96 -71 154.5t-217 58.5t-233 -70t-95 -211h-78q16 348 306 348z" />
    <glyph glyph-name="Abreve" unicode="&#x102;" horiz-adv-x="1214" 
d="M625 1686q78 0 132 49t68 129h68q-13 -102 -90 -174t-186 -72t-187 64.5t-92 181.5h68q41 -178 219 -178zM930 547l-314 827h-4l-325 -827h643zM563 1462h99l577 -1462h-96l-185 469h-700l-186 -469h-97z" />
    <glyph glyph-name="abreve" unicode="&#x103;" horiz-adv-x="1024" 
d="M529 1229q-109 0 -187 64.5t-92 181.5h67q21 -95 82 -137t138 -42q78 0 132 49.5t68 129.5h68q-13 -102 -90 -174t-186 -72zM143 272q0 -117 74 -173t205 -56t209 48t119 110.5t52 121t11 78.5v197q-29 -35 -87 -47t-130 -19l-131 -12q-151 -16 -207.5 -49t-85.5 -79
t-29 -120zM427 1077q290 0 377 -74.5t87 -195.5v-612q0 -62 10.5 -94.5t59.5 -32.5q20 0 57 6v-66q-31 -8 -71 -8q-77 0 -105.5 40t-28.5 114v55h-4q-37 -98 -140.5 -166t-261.5 -68q-157 0 -249 73t-92 231t109 223.5t278 81.5l120 10q158 11 194 45.5t42 71.5t6 86
q0 96 -71 154.5t-217 58.5t-233 -70t-95 -211h-78q16 348 306 348z" />
    <glyph glyph-name="Aogonek" unicode="&#x104;" horiz-adv-x="1214" 
d="M930 547l-314 827h-4l-325 -827h643zM936 -262q0 127 207 262l-185 469h-700l-186 -469h-97l588 1462h99l577 -1462h-45q-100 -89 -134 -142.5t-34 -100.5q0 -46 25.5 -68.5t63.5 -22.5t64.5 15.5t53.5 56.5l47 -17q-51 -123 -176 -122q-168 0 -168 139z" />
    <glyph glyph-name="aogonek" unicode="&#x105;" horiz-adv-x="1024" 
d="M143 272q0 -117 74 -173t205 -56t209 48t119 110.5t52 121t11 78.5v197q-29 -35 -87 -47t-130 -19l-131 -12q-151 -16 -207.5 -49t-85.5 -79t-29 -120zM676 -262q0 127 219 268q-53 16 -67.5 55t-14.5 93v55h-4q-37 -98 -140.5 -166t-261.5 -68q-157 0 -249 73t-92 231
t109 223.5t278 81.5l120 10q158 11 194 45.5t42 71.5t6 86q0 96 -71 154.5t-217 58.5t-233 -70t-95 -211h-78q16 348 306 348t377 -74.5t87 -195.5v-612q0 -62 10.5 -94.5t59.5 -32.5q20 0 57 6v-66q-31 -8 -64 -8h-20q-100 -89 -134 -142.5t-34 -100.5q0 -46 25.5 -68.5
t63.5 -22.5t64.5 15.5t53.5 56.5l47 -17q-51 -123 -176 -122q-168 0 -168 139z" />
    <glyph glyph-name="Cacute" unicode="&#x106;" horiz-adv-x="1441" 
d="M934 1884h104l-274 -287h-76zM74 731q0 331 187 548.5t509 217.5q231 0 362.5 -102t178.5 -216t47 -153h-90q-27 179 -168.5 286t-329.5 107q-278 0 -442 -198t-164 -490.5t118.5 -434.5t232 -197.5t237.5 -55.5q227 0 377.5 157t162.5 369h90q-24 -260 -196 -432
t-416 -172q-322 0 -509 217.5t-187 548.5z" />
    <glyph glyph-name="cacute" unicode="&#x107;" 
d="M721 1495h104l-274 -287h-76zM538 1010q-85 0 -161 -40t-154 -141.5t-78 -307.5t104.5 -342t301.5 -136q144 0 244 89.5t123 238.5h77q-24 -186 -148.5 -291t-295.5 -105q-241 0 -362 160.5t-121 397t129 390.5t354 154q177 0 297.5 -89t136.5 -261h-78
q-12 136 -110.5 209.5t-258.5 73.5z" />
    <glyph glyph-name="Ccircumflex" unicode="&#x108;" horiz-adv-x="1441" 
d="M803 1884l237 -287h-77l-201 236l-199 -236h-78l236 287h82zM74 731q0 331 187 548.5t509 217.5q231 0 362.5 -102t178.5 -216t47 -153h-90q-27 179 -168.5 286t-329.5 107q-278 0 -442 -198t-164 -490.5t118.5 -434.5t232 -197.5t237.5 -55.5q227 0 377.5 157t162.5 369
h90q-24 -260 -196 -432t-416 -172q-322 0 -509 217.5t-187 548.5z" />
    <glyph glyph-name="ccircumflex" unicode="&#x109;" 
d="M590 1495l237 -287h-77l-201 236l-199 -236h-78l236 287h82zM538 1010q-85 0 -161 -40t-154 -141.5t-78 -307.5t104.5 -342t301.5 -136q144 0 244 89.5t123 238.5h77q-24 -186 -148.5 -291t-295.5 -105q-241 0 -362 160.5t-121 397t129 390.5t354 154q177 0 297.5 -89
t136.5 -261h-78q-12 136 -110.5 209.5t-258.5 73.5z" />
    <glyph glyph-name="Cdotaccent" unicode="&#x10a;" horiz-adv-x="1441" 
d="M719 1624v211h90v-211h-90zM74 731q0 331 187 548.5t509 217.5q231 0 362.5 -102t178.5 -216t47 -153h-90q-27 179 -168.5 286t-329.5 107q-278 0 -442 -198t-164 -490.5t118.5 -434.5t232 -197.5t237.5 -55.5q227 0 377.5 157t162.5 369h90q-24 -260 -196 -432
t-416 -172q-322 0 -509 217.5t-187 548.5z" />
    <glyph glyph-name="cdotaccent" unicode="&#x10b;" 
d="M504 1235v211h90v-211h-90zM538 1010q-85 0 -161 -40t-154 -141.5t-78 -307.5t104.5 -342t301.5 -136q144 0 244 89.5t123 238.5h77q-24 -186 -148.5 -291t-295.5 -105q-241 0 -362 160.5t-121 397t129 390.5t354 154q177 0 297.5 -89t136.5 -261h-78
q-12 136 -110.5 209.5t-258.5 73.5z" />
    <glyph glyph-name="Ccaron" unicode="&#x10c;" horiz-adv-x="1441" 
d="M721 1597l-236 287h78l199 -235l201 235h77l-237 -287h-82zM74 731q0 331 187 548.5t509 217.5q231 0 362.5 -102t178.5 -216t47 -153h-90q-27 179 -168.5 286t-329.5 107q-278 0 -442 -198t-164 -490.5t118.5 -434.5t232 -197.5t237.5 -55.5q227 0 377.5 157t162.5 369
h90q-24 -260 -196 -432t-416 -172q-322 0 -509 217.5t-187 548.5z" />
    <glyph glyph-name="ccaron" unicode="&#x10d;" 
d="M508 1208l-236 287h78l199 -235l201 235h77l-237 -287h-82zM538 1010q-85 0 -161 -40t-154 -141.5t-78 -307.5t104.5 -342t301.5 -136q144 0 244 89.5t123 238.5h77q-24 -186 -148.5 -291t-295.5 -105q-241 0 -362 160.5t-121 397t129 390.5t354 154q177 0 297.5 -89
t136.5 -261h-78q-12 136 -110.5 209.5t-258.5 73.5z" />
    <glyph glyph-name="Dcaron" unicode="&#x10e;" horiz-adv-x="1366" 
d="M553 1597l-236 287h78l199 -235l201 235h77l-237 -287h-82zM1194 733q0 651 -600 651h-375v-1306h393q239 0 410.5 153t171.5 502zM129 1462h479q363 0 519.5 -204.5t156.5 -530.5q0 -325 -172.5 -526t-507.5 -201h-475v1462z" />
    <glyph glyph-name="dcaron" unicode="&#x10f;" horiz-adv-x="1138" 
d="M1223 1462h104l-178 -286h-59zM926 524q0 199 -99.5 342.5t-292.5 143.5t-292 -137.5t-99 -343.5t100.5 -346t292.5 -140q187 0 288.5 141t101.5 340zM520 -25q-225 0 -339.5 157.5t-114.5 391.5q0 382 175 467.5t266 85.5q158 0 266.5 -68t150.5 -192h4v645h78v-1462
h-78v225h-4q-132 -250 -404 -250z" />
    <glyph glyph-name="Dcroat" unicode="&#x110;" horiz-adv-x="1366" 
d="M1194 733q0 651 -600 651h-375v-589h504v-68h-504v-649h393q239 0 410.5 153t171.5 502zM129 727h-156v68h156v667h479q363 0 519.5 -204.5t156.5 -530.5q0 -325 -172.5 -526t-507.5 -201h-475v727z" />
    <glyph glyph-name="dcroat" unicode="&#x111;" horiz-adv-x="1138" 
d="M926 524q0 199 -99.5 342.5t-292.5 143.5t-292 -137.5t-99 -343.5t100.5 -346t292.5 -140q187 0 288.5 141t101.5 340zM520 -25q-225 0 -339.5 157.5t-114.5 391.5q0 382 175 467.5t266 85.5q158 0 266.5 -68t150.5 -192h4v389h-400v64h400v192h78v-192h168v-64h-168
v-1206h-78v225h-4q-132 -250 -404 -250z" />
    <glyph glyph-name="Emacron" unicode="&#x112;" horiz-adv-x="1146" 
d="M362 1696v67h496v-67h-496zM129 1462h983v-78h-893v-585h840v-78h-840v-643h903v-78h-993v1462z" />
    <glyph glyph-name="emacron" unicode="&#x113;" 
d="M287 1307v67h495v-67h-495zM540 1010q-175 0 -276 -121t-117 -305h771q-13 286 -150 356t-228 70zM145 516v-12q0 -194 101 -327.5t272 -133.5q172 0 264 83t127 230h78q-35 -184 -150.5 -282.5t-322.5 -98.5t-327.5 150.5t-120.5 389.5t124.5 400.5t345.5 161.5
t341 -147.5t120 -368.5l-2 -45h-850z" />
    <glyph glyph-name="Ebreve" unicode="&#x114;" horiz-adv-x="1146" 
d="M613 1618q-109 0 -187 64.5t-92 181.5h67q21 -95 81 -136.5t138 -41.5t132.5 49t68.5 129h68q-13 -102 -90 -174t-186 -72zM129 1462h983v-78h-893v-585h840v-78h-840v-643h903v-78h-993v1462z" />
    <glyph glyph-name="ebreve" unicode="&#x115;" 
d="M545 1296q78 0 132 49.5t68 129.5h68q-13 -102 -90 -174t-186 -72t-187 64.5t-92 181.5h68q22 -96 81.5 -137.5t137.5 -41.5zM540 1010q-175 0 -276 -121t-117 -305h771q-13 286 -150 356t-228 70zM145 516v-12q0 -194 101 -327.5t272 -133.5q172 0 264 83t127 230h78
q-35 -184 -150.5 -282.5t-322.5 -98.5t-327.5 150.5t-120.5 389.5t124.5 400.5t345.5 161.5t341 -147.5t120 -368.5l-2 -45h-850z" />
    <glyph glyph-name="Edotaccent" unicode="&#x116;" horiz-adv-x="1146" 
d="M567 1624v211h90v-211h-90zM129 1462h983v-78h-893v-585h840v-78h-840v-643h903v-78h-993v1462z" />
    <glyph glyph-name="edotaccent" unicode="&#x117;" 
d="M489 1235v211h91v-211h-91zM540 1010q-175 0 -276 -121t-117 -305h771q-13 286 -150 356t-228 70zM145 516v-12q0 -194 101 -327.5t272 -133.5q172 0 264 83t127 230h78q-35 -184 -150.5 -282.5t-322.5 -98.5t-327.5 150.5t-120.5 389.5t124.5 400.5t345.5 161.5
t341 -147.5t120 -368.5l-2 -45h-850z" />
    <glyph glyph-name="Eogonek" unicode="&#x118;" horiz-adv-x="1146" 
d="M770 -262q0 126 209 262h-850v1462h983v-78h-893v-585h840v-78h-840v-643h903v-78h-94q-100 -89 -134 -142.5t-34 -100.5q0 -46 25.5 -68.5t63.5 -22.5t64.5 15.5t53.5 56.5l47 -17q-51 -123 -176 -122q-168 0 -168 139z" />
    <glyph glyph-name="eogonek" unicode="&#x119;" 
d="M540 1010q-175 0 -276 -121t-117 -305h771q-13 286 -150 356t-228 70zM145 516v-12q0 -194 101 -327.5t272 -133.5q172 0 264 83t127 230h78q-67 -345 -397 -379q-86 -78 -115 -129t-29 -94t26 -65.5t64 -22.5t64.5 15.5t52.5 56.5l47 -17q-51 -123 -176 -122
q-168 0 -168 139q0 114 172 237q-221 0 -341.5 150.5t-120.5 389.5t124.5 400.5t345.5 161.5t341 -147.5t120 -368.5l-2 -45h-850z" />
    <glyph glyph-name="Ecaron" unicode="&#x11a;" horiz-adv-x="1146" 
d="M569 1597l-235 287h78l198 -235l201 235h78l-238 -287h-82zM129 1462h983v-78h-893v-585h840v-78h-840v-643h903v-78h-993v1462z" />
    <glyph glyph-name="ecaron" unicode="&#x11b;" 
d="M494 1208l-236 287h78l199 -235l200 235h78l-238 -287h-81zM540 1010q-175 0 -276 -121t-117 -305h771q-13 286 -150 356t-228 70zM145 516v-12q0 -194 101 -327.5t272 -133.5q172 0 264 83t127 230h78q-35 -184 -150.5 -282.5t-322.5 -98.5t-327.5 150.5t-120.5 389.5
t124.5 400.5t345.5 161.5t341 -147.5t120 -368.5l-2 -45h-850z" />
    <glyph glyph-name="Gcircumflex" unicode="&#x11c;" horiz-adv-x="1517" 
d="M803 1884l237 -287h-77l-201 236l-199 -236h-78l236 287h82zM261.5 1272.5q185.5 224.5 504.5 224.5q234 0 403.5 -133t204.5 -354h-86q-51 193 -184 301t-336 108q-284 0 -443 -203.5t-159 -494.5t156.5 -484.5t431.5 -193.5q274 0 426.5 164t140.5 432h-539v78h617
v-717h-78v311h-4q-82 -243 -269.5 -294.5t-283.5 -51.5q-320 0 -504 214.5t-184 541.5t185.5 551.5z" />
    <glyph glyph-name="gcircumflex" unicode="&#x11d;" horiz-adv-x="1099" 
d="M590 1495l237 -287h-77l-201 236l-199 -236h-78l236 287h82zM243.5 874.5q-98.5 -135.5 -98.5 -323.5t100 -316.5t281 -128.5q180 0 279.5 131.5t99.5 321.5t-100 320.5t-281.5 130.5t-280 -135.5zM522 39q-222 0 -338 145t-116 370q0 226 121.5 374.5t332.5 148.5
q125 0 230.5 -63.5t150.5 -179.5h4v219h78v-998q0 -321 -158.5 -388.5t-268.5 -67.5q-207 0 -319 76.5t-120 250.5h78q11 -133 104 -196.5t217 -63.5q214 0 301.5 106t87.5 265v242h-4q-113 -240 -381 -240z" />
    <glyph glyph-name="Gbreve" unicode="&#x11e;" horiz-adv-x="1517" 
d="M772 1686q78 0 132 49t69 129h67q-13 -102 -90 -174t-186 -72t-186.5 64.5t-92.5 181.5h68q40 -178 219 -178zM261.5 1272.5q185.5 224.5 504.5 224.5q234 0 403.5 -133t204.5 -354h-86q-51 193 -184 301t-336 108q-284 0 -443 -203.5t-159 -494.5t156.5 -484.5
t431.5 -193.5q274 0 426.5 164t140.5 432h-539v78h617v-717h-78v311h-4q-82 -243 -269.5 -294.5t-283.5 -51.5q-320 0 -504 214.5t-184 541.5t185.5 551.5z" />
    <glyph glyph-name="gbreve" unicode="&#x11f;" horiz-adv-x="1099" 
d="M560 1296q77 0 131 49.5t69 129.5h67q-13 -102 -90 -174t-186 -72t-186.5 64.5t-92.5 181.5h68q22 -96 82.5 -137.5t137.5 -41.5zM243.5 874.5q-98.5 -135.5 -98.5 -323.5t100 -316.5t281 -128.5q180 0 279.5 131.5t99.5 321.5t-100 320.5t-281.5 130.5t-280 -135.5z
M522 39q-222 0 -338 145t-116 370q0 226 121.5 374.5t332.5 148.5q125 0 230.5 -63.5t150.5 -179.5h4v219h78v-998q0 -321 -158.5 -388.5t-268.5 -67.5q-207 0 -319 76.5t-120 250.5h78q11 -133 104 -196.5t217 -63.5q214 0 301.5 106t87.5 265v242h-4q-113 -240 -381 -240z
" />
    <glyph glyph-name="Gdotaccent" unicode="&#x120;" horiz-adv-x="1517" 
d="M719 1624v211h90v-211h-90zM261.5 1272.5q185.5 224.5 504.5 224.5q234 0 403.5 -133t204.5 -354h-86q-51 193 -184 301t-336 108q-284 0 -443 -203.5t-159 -494.5t156.5 -484.5t431.5 -193.5q274 0 426.5 164t140.5 432h-539v78h617v-717h-78v311h-4
q-82 -243 -269.5 -294.5t-283.5 -51.5q-320 0 -504 214.5t-184 541.5t185.5 551.5z" />
    <glyph glyph-name="gdotaccent" unicode="&#x121;" horiz-adv-x="1099" 
d="M506 1235v211h90v-211h-90zM243.5 874.5q-98.5 -135.5 -98.5 -323.5t100 -316.5t281 -128.5q180 0 279.5 131.5t99.5 321.5t-100 320.5t-281.5 130.5t-280 -135.5zM522 39q-222 0 -338 145t-116 370q0 226 121.5 374.5t332.5 148.5q125 0 230.5 -63.5t150.5 -179.5h4v219
h78v-998q0 -321 -158.5 -388.5t-268.5 -67.5q-207 0 -319 76.5t-120 250.5h78q11 -133 104 -196.5t217 -63.5q214 0 301.5 106t87.5 265v242h-4q-113 -240 -381 -240z" />
    <glyph glyph-name="Gcommaaccent" unicode="&#x122;" horiz-adv-x="1517" 
d="M698 -293v191h117v-164q0 -125 -129 -135v41q55 12 64 67h-52zM261.5 1272.5q185.5 224.5 504.5 224.5q234 0 403.5 -133t204.5 -354h-86q-51 193 -184 301t-336 108q-284 0 -443 -203.5t-159 -494.5t156.5 -484.5t431.5 -193.5q274 0 426.5 164t140.5 432h-539v78h617
v-717h-78v311h-4q-82 -243 -269.5 -294.5t-283.5 -51.5q-320 0 -504 214.5t-184 541.5t185.5 551.5z" />
    <glyph glyph-name="gcommaaccent" unicode="&#x123;" horiz-adv-x="1099" 
d="M606 1462v-190h-117v164q0 125 129 135v-41q-56 -12 -63 -68h51zM243.5 874.5q-98.5 -135.5 -98.5 -323.5t100 -316.5t281 -128.5q180 0 279.5 131.5t99.5 321.5t-100 320.5t-281.5 130.5t-280 -135.5zM522 39q-222 0 -338 145t-116 370q0 226 121.5 374.5t332.5 148.5
q125 0 230.5 -63.5t150.5 -179.5h4v219h78v-998q0 -321 -158.5 -388.5t-268.5 -67.5q-207 0 -319 76.5t-120 250.5h78q11 -133 104 -196.5t217 -63.5q214 0 301.5 106t87.5 265v242h-4q-113 -240 -381 -240z" />
    <glyph glyph-name="Hcircumflex" unicode="&#x124;" horiz-adv-x="1372" 
d="M727 1884l238 -287h-78l-201 236l-199 -236h-77l235 287h82zM129 1462h90v-663h934v663h90v-1462h-90v721h-934v-721h-90v1462z" />
    <glyph glyph-name="hcircumflex" unicode="&#x125;" 
d="M553 1884l238 -287h-78l-201 236l-199 -236h-77l235 287h82zM193 1462v-635h4q39 115 143 182.5t214 67.5q111 0 176 -22.5t123 -75t76.5 -139.5t18.5 -189v-651h-78v666q0 135 -35.5 200.5t-96 104.5t-158.5 39q-182 0 -284.5 -122t-102.5 -319v-569h-78v1462h78z" />
    <glyph glyph-name="Hbar" unicode="&#x126;" horiz-adv-x="1372" 
d="M219 760h934v307h-934v-307zM219 1135h934v327h90v-1462h-90v682h-934v-682h-90v1462h90v-327z" />
    <glyph glyph-name="hbar" unicode="&#x127;" 
d="M193 1462v-192h399v-64h-399v-379h4q39 115 143 182.5t214 67.5q111 0 176 -22.5t123 -75t76.5 -139.5t18.5 -189v-651h-78v666q0 135 -35.5 200.5t-96 104.5t-158.5 39q-182 0 -284.5 -122t-102.5 -319v-569h-78v1206h-168v64h168v192h78z" />
    <glyph glyph-name="Itilde" unicode="&#x128;" horiz-adv-x="348" 
d="M33 1753q-76 0 -96 -117h-60q4 71 47.5 128t104.5 57t155 -58.5t135 -58.5t64 38t27 79h59q-14 -124 -65.5 -154.5t-88.5 -30.5t-71.5 18.5t-70.5 40t-70.5 40t-69.5 18.5zM129 1462h90v-1462h-90v1462z" />
    <glyph glyph-name="itilde" unicode="&#x129;" horiz-adv-x="344" 
d="M31 1364q-75 0 -97 -117h-59q4 71 47.5 128t112.5 57q39 0 75.5 -18.5t71.5 -40t69.5 -40t70.5 -18.5t58.5 38t27.5 79h59q-14 -124 -65.5 -154.5t-88.5 -30.5t-71.5 18.5t-70.5 40t-70.5 40t-69.5 18.5zM133 0v1053h78v-1053h-78z" />
    <glyph glyph-name="Imacron" unicode="&#x12a;" horiz-adv-x="348" 
d="M-74 1696v67h496v-67h-496zM129 1462h90v-1462h-90v1462z" />
    <glyph glyph-name="imacron" unicode="&#x12b;" horiz-adv-x="344" 
d="M-76 1307v67h496v-67h-496zM133 0v1053h78v-1053h-78z" />
    <glyph glyph-name="Ibreve" unicode="&#x12c;" horiz-adv-x="348" 
d="M184 1686q78 0 132.5 49t68.5 129h68q-12 -101 -89 -173.5t-187 -72.5t-187.5 64.5t-91.5 181.5h67q21 -95 81 -136.5t138 -41.5zM129 1462h90v-1462h-90v1462z" />
    <glyph glyph-name="ibreve" unicode="&#x12d;" horiz-adv-x="344" 
d="M183 1296q77 0 131.5 49.5t68.5 129.5h68q-12 -101 -89 -173.5t-187 -72.5t-187.5 64.5t-91.5 181.5h67q21 -95 82 -137t138 -42zM133 0v1053h78v-1053h-78z" />
    <glyph glyph-name="Iogonek" unicode="&#x12e;" horiz-adv-x="348" 
d="M-14 -262q0 118 184 262h-41v1462h90v-1462q-86 -90 -116.5 -144.5t-30.5 -99.5t22.5 -67.5t55.5 -22.5q61 0 108 72l47 -17q-52 -122 -164 -122q-66 0 -110.5 33.5t-44.5 105.5z" />
    <glyph glyph-name="iogonek" unicode="&#x12f;" horiz-adv-x="344" 
d="M70 -248q0 -41 22.5 -63.5t54.5 -22.5q62 0 109 72l47 -17q-52 -122 -164 -122q-66 0 -110.5 33.5t-44.5 105.5q0 118 178 262h-29v1053h78v-1053q-141 -155 -141 -248zM133 1251v211h78v-211h-78z" />
    <glyph glyph-name="Idotaccent" unicode="&#x130;" horiz-adv-x="348" 
d="M129 1624v211h90v-211h-90zM129 1462h90v-1462h-90v1462z" />
    <glyph glyph-name="dotlessi" unicode="&#x131;" horiz-adv-x="344" 
d="M133 0v1053h78v-1053h-78z" />
    <glyph glyph-name="Jcircumflex" unicode="&#x134;" horiz-adv-x="985" 
d="M848 1884l237 -287h-77l-201 236l-199 -236h-78l236 287h82zM766 485v977h90v-1007q0 -141 -37 -315.5t-346 -174.5q-165 0 -249.5 47t-124.5 121t-49 162t-9 170h90q-14 -192 51.5 -307t269.5 -115q213 0 260.5 104.5t50.5 183.5t3 154z" />
    <glyph glyph-name="jcircumflex" unicode="&#x135;" horiz-adv-x="344" 
d="M209 1495l237 -287h-77l-201 236l-199 -236h-78l236 287h82zM-14 -311q79 0 113 42.5t34 162.5v1159h78v-1166q0 -125 -32 -173t-74 -69.5t-88 -21.5h-39q-39 0 -48 2v68q20 -4 56 -4z" />
    <glyph glyph-name="Kcommaaccent" unicode="&#x136;" horiz-adv-x="1255" 
d="M616 -293v191h117v-164q0 -125 -129 -135v41q57 13 64 67h-52zM129 1462h90v-841l920 841h116l-667 -608l708 -854h-112l-662 793l-303 -277v-516h-90v1462z" />
    <glyph glyph-name="kcommaaccent" unicode="&#x137;" horiz-adv-x="948" 
d="M473 -293v191h117v-164q0 -125 -129 -135v41q56 12 63 67h-51zM119 1462h78v-968l649 559h112l-460 -394l493 -659h-106l-449 600l-239 -203v-397h-78v1462z" />
    <glyph glyph-name="kgreenlandic" unicode="&#x138;" horiz-adv-x="948" 
d="M115 1053h78v-576l653 576h112l-464 -410l497 -643h-106l-453 584l-239 -203v-381h-78v1053z" />
    <glyph glyph-name="Lacute" unicode="&#x139;" horiz-adv-x="1024" 
d="M387 1884h105l-275 -287h-76zM129 1462h90v-1384h830v-78h-920v1462z" />
    <glyph glyph-name="lacute" unicode="&#x13a;" horiz-adv-x="344" 
d="M367 1884h104l-274 -287h-76zM211 1462v-1462h-78v1462h78z" />
    <glyph glyph-name="Lcommaaccent" unicode="&#x13b;" horiz-adv-x="1024" 
d="M516 -293v191h117v-164q0 -125 -129 -135v41q56 12 63 67h-51zM129 1462h90v-1384h830v-78h-920v1462z" />
    <glyph glyph-name="lcommaaccent" unicode="&#x13c;" horiz-adv-x="344" 
d="M113 -293v191h116v-164q0 -125 -129 -135v41q57 13 64 67h-51zM211 1462v-1462h-78v1462h78z" />
    <glyph glyph-name="Lcaron" unicode="&#x13d;" horiz-adv-x="1024" 
d="M571 1462h105l-178 -286h-60zM129 1462h90v-1384h830v-78h-920v1462z" />
    <glyph glyph-name="lcaron" unicode="&#x13e;" horiz-adv-x="344" 
d="M428 1462h104l-178 -286h-59zM211 1462v-1462h-78v1462h78z" />
    <glyph glyph-name="Ldot" unicode="&#x13f;" horiz-adv-x="1024" 
d="M555 674v211h90v-211h-90zM129 1462h90v-1384h830v-78h-920v1462z" />
    <glyph glyph-name="ldot" unicode="&#x140;" horiz-adv-x="507" 
d="M365 674v211h90v-211h-90zM211 1462v-1462h-78v1462h78z" />
    <glyph glyph-name="Lslash" unicode="&#x141;" horiz-adv-x="1024" 
d="M219 1462v-784l481 293v-74l-481 -291v-528h830v-78h-920v551l-174 -109v78l174 105v837h90z" />
    <glyph glyph-name="lslash" unicode="&#x142;" horiz-adv-x="344" 
d="M133 1462h78v-585l143 110v-72l-143 -110v-805h-78v743l-143 -110v72l143 110v647z" />
    <glyph glyph-name="Nacute" unicode="&#x143;" horiz-adv-x="1388" 
d="M877 1884h104l-274 -287h-76zM129 1462h113l923 -1341h4v1341h91v-1462h-107l-930 1352h-4v-1352h-90v1462z" />
    <glyph glyph-name="nacute" unicode="&#x144;" 
d="M705 1495h104l-274 -287h-76zM115 1053h78v-226h4q39 115 143 182.5t214 67.5q111 0 176 -22.5t123 -75t76.5 -139.5t18.5 -189v-651h-78v666q0 135 -35.5 200.5t-96 104.5t-158.5 39q-182 0 -284.5 -122t-102.5 -319v-569h-78v1053z" />
    <glyph glyph-name="Ncommaaccent" unicode="&#x145;" horiz-adv-x="1388" 
d="M631 -293v191h117v-164q0 -125 -130 -135v41q57 13 64 67h-51zM129 1462h113l923 -1341h4v1341h91v-1462h-107l-930 1352h-4v-1352h-90v1462z" />
    <glyph glyph-name="ncommaaccent" unicode="&#x146;" 
d="M473 -293v191h117v-164q0 -125 -129 -135v41q56 12 63 67h-51zM115 1053h78v-226h4q39 115 143 182.5t214 67.5q111 0 176 -22.5t123 -75t76.5 -139.5t18.5 -189v-651h-78v666q0 135 -35.5 200.5t-96 104.5t-158.5 39q-182 0 -284.5 -122t-102.5 -319v-569h-78v1053z" />
    <glyph glyph-name="Ncaron" unicode="&#x147;" horiz-adv-x="1388" 
d="M664 1597l-236 287h78l199 -235l200 235h78l-238 -287h-81zM129 1462h113l923 -1341h4v1341h91v-1462h-107l-930 1352h-4v-1352h-90v1462z" />
    <glyph glyph-name="ncaron" unicode="&#x148;" 
d="M492 1208l-236 287h78l198 -235l201 235h78l-238 -287h-81zM115 1053h78v-226h4q39 115 143 182.5t214 67.5q111 0 176 -22.5t123 -75t76.5 -139.5t18.5 -189v-651h-78v666q0 135 -35.5 200.5t-96 104.5t-158.5 39q-182 0 -284.5 -122t-102.5 -319v-569h-78v1053z" />
    <glyph glyph-name="napostrophe" unicode="&#x149;" horiz-adv-x="1224" 
d="M164 1251q0 -205 -131 -258v68q69 30 69 190h-43v211h105v-211zM276 1053h78v-226h4q39 114 143.5 182t214.5 68q111 0 175.5 -22.5t122 -74.5t77 -139t19.5 -190v-651h-78v666q0 135 -35.5 200.5t-96 104.5t-158.5 39q-182 0 -285 -122.5t-103 -318.5v-569h-78v1053z
" />
    <glyph glyph-name="Eng" unicode="&#x14a;" horiz-adv-x="1388" 
d="M932 -377q-46 0 -94 4v80q44 -6 96 -6q119 0 177 50t58 190v36l-946 1375h-4v-1352h-90v1462h113l923 -1341h4v1341h91v-1503q0 -184 -75 -260t-253 -76z" />
    <glyph glyph-name="eng" unicode="&#x14b;" 
d="M657 -309q119 0 166 48t47 177v750q0 135 -35.5 200.5t-96 104.5t-158.5 39q-182 0 -284.5 -122t-102.5 -319v-569h-78v1053h78v-226h4q39 115 143 182.5t214 67.5q111 0 176 -22.5t123 -75t76.5 -139.5t18.5 -189v-723q0 -164 -62.5 -234.5t-219.5 -70.5q-40 0 -84 4v70
q30 -6 75 -6z" />
    <glyph glyph-name="Omacron" unicode="&#x14c;" horiz-adv-x="1517" 
d="M512 1696v67h496v-67h-496zM154 731q0 -141 41 -266t118.5 -218t190 -148.5t256 -55.5t255 55.5t189.5 148.5t119 218t41 266t-41 266t-119 218.5t-189.5 148.5t-255 55t-256 -55t-190 -148.5t-118.5 -218.5t-41 -266zM1454 731q0 -160 -47 -300t-136 -243.5t-218 -163
t-293 -59.5t-294 59.5t-219 163t-136.5 243.5t-47.5 300t47.5 300t136.5 243.5t219 163t294 59.5t293 -59.5t218 -163t136 -243.5t47 -300z" />
    <glyph glyph-name="omacron" unicode="&#x14d;" horiz-adv-x="1099" 
d="M301 1307v67h496v-67h-496zM143 526.5q0 -94.5 27 -181.5t78 -154.5t127 -107.5t174 -40t174 40t127 107.5t77.5 154.5t26.5 181.5t-26.5 181.5t-77.5 154.5t-127 107.5t-174 40t-174 -40t-127 -107.5t-78 -154.5t-27 -181.5zM66 526.5q0 112.5 31.5 212t93 175
t151.5 119.5t207 44t207 -44t151.5 -119.5t93 -175t31.5 -212t-31.5 -213t-93 -175.5t-151.5 -119t-207 -44t-207 44t-151.5 119t-93 175.5t-31.5 213z" />
    <glyph glyph-name="Obreve" unicode="&#x14e;" horiz-adv-x="1517" 
d="M762 1618q-109 0 -186.5 64.5t-92.5 181.5h68q40 -178 219 -178q78 0 132 49t69 129h67q-13 -102 -90 -174t-186 -72zM154 731q0 -141 41 -266t118.5 -218t190 -148.5t256 -55.5t255 55.5t189.5 148.5t119 218t41 266t-41 266t-119 218.5t-189.5 148.5t-255 55t-256 -55
t-190 -148.5t-118.5 -218.5t-41 -266zM1454 731q0 -160 -47 -300t-136 -243.5t-218 -163t-293 -59.5t-294 59.5t-219 163t-136.5 243.5t-47.5 300t47.5 300t136.5 243.5t219 163t294 59.5t293 -59.5t218 -163t136 -243.5t47 -300z" />
    <glyph glyph-name="obreve" unicode="&#x14f;" horiz-adv-x="1099" 
d="M560 1296q77 0 131 49.5t69 129.5h67q-13 -102 -90 -174t-186 -72t-186.5 64.5t-92.5 181.5h68q22 -96 82.5 -137.5t137.5 -41.5zM143 526.5q0 -94.5 27 -181.5t78 -154.5t127 -107.5t174 -40t174 40t127 107.5t77.5 154.5t26.5 181.5t-26.5 181.5t-77.5 154.5
t-127 107.5t-174 40t-174 -40t-127 -107.5t-78 -154.5t-27 -181.5zM66 526.5q0 112.5 31.5 212t93 175t151.5 119.5t207 44t207 -44t151.5 -119.5t93 -175t31.5 -212t-31.5 -213t-93 -175.5t-151.5 -119t-207 -44t-207 44t-151.5 119t-93 175.5t-31.5 213z" />
    <glyph glyph-name="Ohungarumlaut" unicode="&#x150;" horiz-adv-x="1517" 
d="M543 1597l245 287h105l-275 -287h-75zM866 1597l246 287h105l-275 -287h-76zM154 731q0 -141 41 -266t118.5 -218t190 -148.5t256 -55.5t255 55.5t189.5 148.5t119 218t41 266t-41 266t-119 218.5t-189.5 148.5t-255 55t-256 -55t-190 -148.5t-118.5 -218.5t-41 -266z
M1454 731q0 -160 -47 -300t-136 -243.5t-218 -163t-293 -59.5t-294 59.5t-219 163t-136.5 243.5t-47.5 300t47.5 300t136.5 243.5t219 163t294 59.5t293 -59.5t218 -163t136 -243.5t47 -300z" />
    <glyph glyph-name="ohungarumlaut" unicode="&#x151;" horiz-adv-x="1099" 
d="M332 1208l246 287h104l-274 -287h-76zM655 1208l246 287h105l-275 -287h-76zM143 526.5q0 -94.5 27 -181.5t78 -154.5t127 -107.5t174 -40t174 40t127 107.5t77.5 154.5t26.5 181.5t-26.5 181.5t-77.5 154.5t-127 107.5t-174 40t-174 -40t-127 -107.5t-78 -154.5
t-27 -181.5zM66 526.5q0 112.5 31.5 212t93 175t151.5 119.5t207 44t207 -44t151.5 -119.5t93 -175t31.5 -212t-31.5 -213t-93 -175.5t-151.5 -119t-207 -44t-207 44t-151.5 119t-93 175.5t-31.5 213z" />
    <glyph glyph-name="OE" unicode="&#x152;" horiz-adv-x="2162" 
d="M1174 1184q0 54 -112.5 144.5t-281.5 90.5q-168 0 -281.5 -56t-190.5 -151.5t-115.5 -221.5t-38.5 -344t151.5 -410.5t437.5 -192.5q157 0 258 55q105 52 139 96t34 66v924zM1264 799h774v-78h-774v-643h868v-78h-958v135h-5q-51 -66 -160.5 -118t-272.5 -52
q-315 0 -494 215.5t-179 543.5t133.5 488t262.5 222.5t269 62.5q288 0 446 -170v135h954v-78h-864v-585z" />
    <glyph glyph-name="oe" unicode="&#x153;" horiz-adv-x="1820" 
d="M745 931.5q-127 78.5 -231 78.5q-194 0 -282.5 -149.5t-88.5 -349.5t93.5 -334t283.5 -134q102 0 227 78.5t125 405.5q0 326 -127 404.5zM1677 584q0 177 -93.5 301.5t-268.5 124.5t-272 -126t-93 -300h727zM514 -25q-230 0 -339 153t-109 389t114 398t340 162
q154 0 255.5 -82t133.5 -229h4q84 311 408 311q225 0 336 -163t98 -398h-805q-13 -198 81.5 -335.5t289.5 -137.5q147 0 231 84t117 219h78q-37 -168 -142.5 -269.5t-277.5 -101.5t-279.5 81t-136.5 229h-4q-83 -310 -393 -310z" />
    <glyph glyph-name="Racute" unicode="&#x154;" horiz-adv-x="1290" 
d="M780 1884h105l-275 -287h-75zM739 743q262 0 317.5 124t55.5 209q0 158 -104.5 233t-268.5 75h-520v-641h520zM1180 87q0 -36 43 -87h-101q-29 51 -32 119.5t-3 142.5t-13.5 239t-334.5 165h-520v-666h-90v1462h610q327 0 395 -135t68 -262t-83 -228.5t-230 -125.5v-4
q252 -30 271.5 -193.5t19.5 -220.5v-206z" />
    <glyph glyph-name="racute" unicode="&#x155;" horiz-adv-x="569" 
d="M524 1495h105l-275 -287h-75zM193 819h6q29 105 144 174.5t259 65.5v-78q-61 8 -140 -12.5t-151 -89.5q-62 -66 -88 -129t-30 -175v-575h-78v1053h78v-234z" />
    <glyph glyph-name="Rcommaaccent" unicode="&#x156;" horiz-adv-x="1290" 
d="M598 -293v191h117v-164q0 -125 -129 -135v41q56 12 63 67h-51zM739 743q262 0 317.5 124t55.5 209q0 158 -104.5 233t-268.5 75h-520v-641h520zM1180 87q0 -36 43 -87h-101q-29 51 -32 119.5t-3 142.5t-13.5 239t-334.5 165h-520v-666h-90v1462h610q327 0 395 -135
t68 -262t-83 -228.5t-230 -125.5v-4q252 -30 271.5 -193.5t19.5 -220.5v-206z" />
    <glyph glyph-name="rcommaaccent" unicode="&#x157;" horiz-adv-x="569" 
d="M94 -293v191h117v-164q0 -125 -129 -135v41q56 12 63 67h-51zM193 819h6q29 105 144 174.5t259 65.5v-78q-61 8 -140 -12.5t-151 -89.5q-62 -66 -88 -129t-30 -175v-575h-78v1053h78v-234z" />
    <glyph glyph-name="Rcaron" unicode="&#x158;" horiz-adv-x="1290" 
d="M567 1597l-235 287h78l198 -235l201 235h78l-238 -287h-82zM739 743q262 0 317.5 124t55.5 209q0 158 -104.5 233t-268.5 75h-520v-641h520zM1180 87q0 -36 43 -87h-101q-29 51 -32 119.5t-3 142.5t-13.5 239t-334.5 165h-520v-666h-90v1462h610q327 0 395 -135t68 -262
t-83 -228.5t-230 -125.5v-4q252 -30 271.5 -193.5t19.5 -220.5v-206z" />
    <glyph glyph-name="rcaron" unicode="&#x159;" horiz-adv-x="569" 
d="M322 1208l-236 287h78l198 -235l201 235h78l-238 -287h-81zM193 819h6q29 105 144 174.5t259 65.5v-78q-61 8 -140 -12.5t-151 -89.5q-62 -66 -88 -129t-30 -175v-575h-78v1053h78v-234z" />
    <glyph glyph-name="Sacute" unicode="&#x15a;" horiz-adv-x="1290" 
d="M825 1884h105l-275 -287h-75zM634 1419q-175 0 -298 -73t-123 -234t112.5 -215.5t202.5 -75.5t184 -39q234 -46 366 -128.5t132 -282.5t-156 -303t-358 -103q-434 0 -526 188.5t-90 329.5h90q-11 -222 137 -331t389 -109q162 0 293 81.5t131 250.5q0 168 -126 231.5
t-295 96.5q-170 34 -260.5 58.5t-160 66.5t-112.5 109t-43 217.5t147.5 246.5t343.5 96q379 0 466 -166t94 -287h-91q-8 183 -103 255.5t-180 96t-166 23.5z" />
    <glyph glyph-name="sacute" unicode="&#x15b;" horiz-adv-x="985" 
d="M670 1495h104l-274 -287h-76zM834 266q0 88 -53.5 133t-134.5 70t-174 40t-174 46t-134 87t-53 150t63.5 189.5t327.5 95.5q263 0 321 -123t58 -213h-78q0 203 -123 236t-182 33q-131 0 -220.5 -51t-89.5 -152q0 -153 143.5 -185t214.5 -46q184 -38 274.5 -98.5
t90.5 -212.5q0 -151 -121.5 -220.5t-298.5 -69.5t-295 98.5t-122 276.5h78q8 -140 104 -223.5t234 -83.5q142 0 243 50.5t101 172.5z" />
    <glyph glyph-name="Scircumflex" unicode="&#x15c;" horiz-adv-x="1290" 
d="M694 1884l238 -287h-78l-201 236l-198 -236h-78l235 287h82zM634 1419q-175 0 -298 -73t-123 -234t112.5 -215.5t202.5 -75.5t184 -39q234 -46 366 -128.5t132 -282.5t-156 -303t-358 -103q-434 0 -526 188.5t-90 329.5h90q-11 -222 137 -331t389 -109q162 0 293 81.5
t131 250.5q0 168 -126 231.5t-295 96.5q-170 34 -260.5 58.5t-160 66.5t-112.5 109t-43 217.5t147.5 246.5t343.5 96q379 0 466 -166t94 -287h-91q-8 183 -103 255.5t-180 96t-166 23.5z" />
    <glyph glyph-name="scircumflex" unicode="&#x15d;" horiz-adv-x="985" 
d="M539 1495l237 -287h-78l-200 236l-199 -236h-78l236 287h82zM834 266q0 88 -53.5 133t-134.5 70t-174 40t-174 46t-134 87t-53 150t63.5 189.5t327.5 95.5q263 0 321 -123t58 -213h-78q0 203 -123 236t-182 33q-131 0 -220.5 -51t-89.5 -152q0 -153 143.5 -185t214.5 -46
q184 -38 274.5 -98.5t90.5 -212.5q0 -151 -121.5 -220.5t-298.5 -69.5t-295 98.5t-122 276.5h78q8 -140 104 -223.5t234 -83.5q142 0 243 50.5t101 172.5z" />
    <glyph glyph-name="Scedilla" unicode="&#x15e;" horiz-adv-x="1290" 
d="M632 -156q-46 0 -102 -24l-32 26l92 125q-367 33 -439.5 209t-70.5 303h90q-11 -222 137 -331t389 -109q162 0 293 81.5t131 250.5q0 168 -126 231.5t-295 96.5q-170 34 -260.5 58.5t-160 66.5t-112.5 109t-43 217.5t147.5 246.5t343.5 96q379 0 466 -166t94 -287h-91
q-8 183 -133.5 279t-335.5 96q-259 0 -330 -110.5t-71 -199.5t43 -144.5t112.5 -89t159.5 -54.5t184 -39q234 -46 366 -128.5t132 -282.5t-156 -303t-358 -103h-17q-17 0 -28 2l-67 -82l2 -2q35 15 88 15t97 -34t44 -110t-57.5 -115.5t-151.5 -39.5t-180 51l23 49
q88 -45 153 -45t100 26.5t35 70.5t-29.5 68.5t-75.5 24.5z" />
    <glyph glyph-name="scedilla" unicode="&#x15f;" horiz-adv-x="985" 
d="M486 -156q-46 0 -101 -24l-33 26l97 131q-165 12 -268 109t-107 264h78q8 -140 104 -223.5t244 -83.5q217 0 275.5 77.5t58.5 155.5t-53.5 123t-134.5 70t-174 40t-174 46t-134 87t-53 150t63.5 189.5t327.5 95.5q263 0 321 -123t58 -213h-78q0 203 -123 236t-182 33
q-131 0 -220.5 -51t-89.5 -152q0 -153 143.5 -185t214.5 -46q184 -38 274.5 -98.5t90.5 -210.5t-116 -218.5t-281 -73.5l-76 -90l2 -2q35 15 88 15t97.5 -34t44.5 -110t-57.5 -115.5t-152.5 -39.5t-179 51l22 49q88 -45 153 -45q136 0 136 102q0 39 -30 63.5t-76 24.5z" />
    <glyph glyph-name="Scaron" unicode="&#x160;" horiz-adv-x="1290" 
d="M612 1597l-235 287h78l198 -235l201 235h78l-238 -287h-82zM634 1419q-175 0 -298 -73t-123 -234t112.5 -215.5t202.5 -75.5t184 -39q234 -46 366 -128.5t132 -282.5t-156 -303t-358 -103q-434 0 -526 188.5t-90 329.5h90q-11 -222 137 -331t389 -109q162 0 293 81.5
t131 250.5q0 168 -126 231.5t-295 96.5q-170 34 -260.5 58.5t-160 66.5t-112.5 109t-43 217.5t147.5 246.5t343.5 96q379 0 466 -166t94 -287h-91q-8 183 -103 255.5t-180 96t-166 23.5z" />
    <glyph glyph-name="scaron" unicode="&#x161;" horiz-adv-x="985" 
d="M457 1208l-236 287h78l199 -235l200 235h78l-237 -287h-82zM834 266q0 88 -53.5 133t-134.5 70t-174 40t-174 46t-134 87t-53 150t63.5 189.5t327.5 95.5q263 0 321 -123t58 -213h-78q0 203 -123 236t-182 33q-131 0 -220.5 -51t-89.5 -152q0 -153 143.5 -185t214.5 -46
q184 -38 274.5 -98.5t90.5 -212.5q0 -151 -121.5 -220.5t-298.5 -69.5t-295 98.5t-122 276.5h78q8 -140 104 -223.5t234 -83.5q142 0 243 50.5t101 172.5z" />
    <glyph glyph-name="Tcommaaccent" unicode="&#x162;" 
d="M514 -156q-47 0 -100 -24l-33 26l115 154h-11v1384h-514v78h1121v-78h-517v-1384h-10l-98 -115l2 -2q35 15 88 15t97 -34t44 -110t-57 -115.5t-151 -39.5t-181 51l23 49q88 -45 153 -45q136 0 136 102q0 39 -30 63.5t-77 24.5z" />
    <glyph glyph-name="tcommaaccent" unicode="&#x163;" horiz-adv-x="530" 
d="M195 985h-195v68h195v327h77v-327h230v-68h-230v-735q0 -118 52 -152t176 -30v-68q-41 -2 -79 -2t-73 8l-104 -121l2 -2q35 15 88 15t97 -34t44 -110t-57.5 -115.5t-151.5 -39.5t-180 51l23 49q88 -45 153 -45t100 26.5t35 70.5t-29.5 68.5t-75.5 24.5t-102 -24l-32 26
l135 181q-107 57 -98 223v735z" />
    <glyph glyph-name="Tcaron" unicode="&#x164;" 
d="M492 1597l-236 287h78l198 -235l201 235h78l-238 -287h-81zM-29 1384v78h1121v-78h-517v-1384h-90v1384h-514z" />
    <glyph glyph-name="tcaron" unicode="&#x165;" horiz-adv-x="530" 
d="M502 985h-230v-735q0 -118 52 -152t176 -30v-68q-145 -10 -229.5 40t-75.5 210v735h-195v68h195v327h77v-327h230v-68zM559 1462h105l-179 -286h-59z" />
    <glyph glyph-name="Tbar" unicode="&#x166;" 
d="M-29 1384v78h1121v-78h-517v-380h347v-68h-347v-936h-90v936h-346v68h346v380h-514z" />
    <glyph glyph-name="tbar" unicode="&#x167;" horiz-adv-x="530" 
d="M195 725v260h-195v68h195v327h77v-327h230v-68h-230v-260h209v-63h-209v-412q0 -118 52 -152t176 -30v-68q-145 -10 -229.5 40t-75.5 210v412h-179v63h179z" />
    <glyph glyph-name="Utilde" unicode="&#x168;" horiz-adv-x="1376" 
d="M547 1753q-76 0 -96 -117h-60q4 71 47.5 128t104.5 57t155 -58.5t135 -58.5t64 38t27 79h59q-14 -124 -65.5 -154.5t-88.5 -30.5t-71.5 18.5t-70.5 40t-70.5 40t-69.5 18.5zM678 -35q-549 0 -549 621v876h90v-876q0 -129 32 -246.5t132.5 -207t294.5 -89.5q377 0 428 209
t51 334v876h90v-876q0 -621 -569 -621z" />
    <glyph glyph-name="utilde" unicode="&#x169;" 
d="M389 1364q-76 0 -96 -117h-60q4 71 47.5 128t104.5 57t125.5 -40t98.5 -58.5t71 -18.5t59.5 38t26.5 79h59q-14 -124 -65 -154.5t-88 -30.5t-72 18.5t-70.5 40t-70.5 40t-70 18.5zM948 0h-78v225h-4q-38 -113 -142 -181.5t-216 -68.5t-176 22.5t-122 75t-76.5 140
t-18.5 188.5v652h78v-666q0 -136 35.5 -201t95.5 -104t158 -39q184 0 286 121t102 319v570h78v-1053z" />
    <glyph glyph-name="Umacron" unicode="&#x16a;" horiz-adv-x="1376" 
d="M440 1696v67h496v-67h-496zM678 -35q-549 0 -549 621v876h90v-876q0 -129 32 -246.5t132.5 -207t294.5 -89.5q377 0 428 209t51 334v876h90v-876q0 -621 -569 -621z" />
    <glyph glyph-name="umacron" unicode="&#x16b;" 
d="M283 1307v67h495v-67h-495zM948 0h-78v225h-4q-38 -113 -142 -181.5t-216 -68.5t-176 22.5t-122 75t-76.5 140t-18.5 188.5v652h78v-666q0 -136 35.5 -201t95.5 -104t158 -39q184 0 286 121t102 319v570h78v-1053z" />
    <glyph glyph-name="Ubreve" unicode="&#x16c;" horiz-adv-x="1376" 
d="M691 1618q-110 0 -187.5 64.5t-91.5 181.5h67q21 -95 81 -136.5t138 -41.5t132.5 49t68.5 129h68q-12 -101 -89 -173.5t-187 -72.5zM678 -35q-549 0 -549 621v876h90v-876q0 -129 32 -246.5t132.5 -207t294.5 -89.5q377 0 428 209t51 334v876h90v-876q0 -621 -569 -621z
" />
    <glyph glyph-name="ubreve" unicode="&#x16d;" 
d="M541 1296q78 0 132 49.5t68 129.5h68q-13 -102 -90 -174t-186 -72t-187 64.5t-92 181.5h68q22 -96 81.5 -137.5t137.5 -41.5zM948 0h-78v225h-4q-38 -113 -142 -181.5t-216 -68.5t-176 22.5t-122 75t-76.5 140t-18.5 188.5v652h78v-666q0 -136 35.5 -201t95.5 -104
t158 -39q184 0 286 121t102 319v570h78v-1053z" />
    <glyph glyph-name="Uring" unicode="&#x16e;" horiz-adv-x="1376" 
d="M541 1740.5q0 -61.5 43 -104.5t104.5 -43t104.5 43t43 104.5t-43 104.5t-104.5 43t-104.5 -43t-43 -104.5zM485 1741q0 86 58.5 144.5t144.5 58.5t144.5 -58.5t58.5 -144.5t-58.5 -144.5t-144.5 -58.5t-144.5 58.5t-58.5 144.5zM678 -35q-549 0 -549 621v876h90v-876
q0 -129 32 -246.5t132.5 -207t294.5 -89.5q377 0 428 209t51 334v876h90v-876q0 -621 -569 -621z" />
    <glyph glyph-name="uring" unicode="&#x16f;" 
d="M383 1372.5q0 -61.5 43 -104.5t104.5 -43t104.5 43t43 104.5t-43 104.5t-104.5 43t-104.5 -43t-43 -104.5zM328 1372q0 86 58 144.5t144 58.5t144.5 -58.5t58.5 -144.5t-58.5 -144.5t-144.5 -58.5t-144 58.5t-58 144.5zM948 0h-78v225h-4q-38 -113 -142 -181.5
t-216 -68.5t-176 22.5t-122 75t-76.5 140t-18.5 188.5v652h78v-666q0 -136 35.5 -201t95.5 -104t158 -39q184 0 286 121t102 319v570h78v-1053z" />
    <glyph glyph-name="Uhungarumlaut" unicode="&#x170;" horiz-adv-x="1376" 
d="M471 1597l246 287h104l-274 -287h-76zM795 1597l245 287h105l-275 -287h-75zM678 -35q-549 0 -549 621v876h90v-876q0 -129 32 -246.5t132.5 -207t294.5 -89.5q377 0 428 209t51 334v876h90v-876q0 -621 -569 -621z" />
    <glyph glyph-name="uhungarumlaut" unicode="&#x171;" 
d="M313 1208l246 287h105l-275 -287h-76zM637 1208l246 287h104l-274 -287h-76zM948 0h-78v225h-4q-38 -113 -142 -181.5t-216 -68.5t-176 22.5t-122 75t-76.5 140t-18.5 188.5v652h78v-666q0 -136 35.5 -201t95.5 -104t158 -39q184 0 286 121t102 319v570h78v-1053z" />
    <glyph glyph-name="Uogonek" unicode="&#x172;" horiz-adv-x="1376" 
d="M678 -35q-549 0 -549 621v876h90v-876q0 -129 32 -246.5t132.5 -207t294.5 -89.5q377 0 428 209t51 334v876h90v-876q0 -591 -508 -619q-78 -74 -104.5 -123t-26.5 -91t25.5 -64.5t63.5 -22.5t64.5 15.5t53.5 56.5l47 -17q-51 -123 -176 -122q-168 0 -168 139
q0 106 160 227z" />
    <glyph glyph-name="uogonek" unicode="&#x173;" 
d="M668 -262q0 58 43 118t159 142v227h-4q-38 -113 -142 -181.5t-216 -68.5t-176 22.5t-122 75t-76.5 140t-18.5 188.5v652h78v-666q0 -136 35.5 -201t95.5 -104t158 -39q184 0 286 121t102 319v570h78v-1053h-22q-100 -89 -134 -142.5t-34 -100.5q0 -46 25.5 -68.5
t63.5 -22.5t64.5 15.5t53.5 56.5l47 -17q-51 -123 -176 -122q-168 0 -168 139z" />
    <glyph glyph-name="Wcircumflex" unicode="&#x174;" horiz-adv-x="1820" 
d="M948 1884l238 -287h-78l-201 236l-198 -236h-78l235 287h82zM-12 1462h92l381 -1366h4l387 1366h113l393 -1366h4l375 1366h96l-420 -1462h-102l-402 1384h-4l-395 -1384h-100z" />
    <glyph glyph-name="wcircumflex" unicode="&#x175;" horiz-adv-x="1441" 
d="M762 1495l237 -287h-77l-201 236l-199 -236h-78l236 287h82zM377 90h4l287 963h104l289 -963h4l295 963h86l-338 -1053h-96l-289 954h-4l-291 -954h-98l-334 1053h84z" />
    <glyph glyph-name="Ycircumflex" unicode="&#x176;" horiz-adv-x="1175" 
d="M631 1884l237 -287h-77l-201 236l-199 -236h-78l236 287h82zM631 0h-90v612l-584 850h102l529 -774l530 774h101l-588 -850v-612z" />
    <glyph glyph-name="ycircumflex" unicode="&#x177;" horiz-adv-x="909" 
d="M510 1495l238 -287h-78l-201 236l-199 -236h-77l235 287h82zM100 -377v68q84 0 131 13t79 45t56.5 92.5t61.5 164.5l-440 1047h92l391 -961l360 961h89l-451 -1166q-33 -78 -60.5 -134t-65.5 -86t-94 -37t-149 -7z" />
    <glyph glyph-name="Ydieresis" unicode="&#x178;" horiz-adv-x="1175" 
d="M383 1624v211h90v-211h-90zM707 1624v211h90v-211h-90zM631 0h-90v612l-584 850h102l529 -774l530 774h101l-588 -850v-612z" />
    <glyph glyph-name="Zacute" unicode="&#x179;" horiz-adv-x="1099" 
d="M731 1884h105l-275 -287h-76zM57 1462h1026v-78l-991 -1306h1010v-78h-1104v78l987 1306h-928v78z" />
    <glyph glyph-name="zacute" unicode="&#x17a;" horiz-adv-x="872" 
d="M614 1495h105l-275 -287h-75zM854 68v-68h-836v74l707 911h-651v68h747v-74l-708 -911h741z" />
    <glyph glyph-name="Zdotaccent" unicode="&#x17b;" horiz-adv-x="1099" 
d="M514 1624v211h90v-211h-90zM57 1462h1026v-78l-991 -1306h1010v-78h-1104v78l987 1306h-928v78z" />
    <glyph glyph-name="zdotaccent" unicode="&#x17c;" horiz-adv-x="872" 
d="M397 1235v211h90v-211h-90zM854 68v-68h-836v74l707 911h-651v68h747v-74l-708 -911h741z" />
    <glyph glyph-name="Zcaron" unicode="&#x17d;" horiz-adv-x="1099" 
d="M518 1597l-235 287h77l199 -235l201 235h78l-238 -287h-82zM57 1462h1026v-78l-991 -1306h1010v-78h-1104v78l987 1306h-928v78z" />
    <glyph glyph-name="zcaron" unicode="&#x17e;" horiz-adv-x="872" 
d="M401 1208l-235 287h78l198 -235l201 235h78l-238 -287h-82zM854 68v-68h-836v74l707 911h-651v68h747v-74l-708 -911h741z" />
    <glyph glyph-name="longs" unicode="&#x17f;" horiz-adv-x="493" 
d="M0 985v68h188v217q0 154 92.5 181.5t133.5 27.5t98 -11v-67q-58 10 -108 10t-94 -29.5t-44 -117.5v-1264h-78v985h-188z" />
    <glyph glyph-name="uni018E" unicode="&#x18e;" horiz-adv-x="1146" 
d="M1153 0h-983v78h893v586h-840v77h840v643h-903v78h993v-1462z" />
    <glyph glyph-name="uni018F" unicode="&#x18f;" horiz-adv-x="1435" 
d="M1128 225q144 182 152 463h-1126q13 -286 156 -465.5t408 -179.5q266 0 410 182zM111 1053q149 444 629 444q142 0 265 -59.5t204 -163t122 -243.5t41 -300t-41 -300t-122 -243.5t-203.5 -163t-362.5 -59.5t-410 214.5t-170 551.5v45h1217q-13 282 -116 412.5
t-205.5 180.5t-220.5 50q-394 0 -533 -366h-94z" />
    <glyph glyph-name="florin" unicode="&#x192;" horiz-adv-x="1138" 
d="M127 -299q163 0 215 283l162 827h-230l15 68h227l68 346q37 189 133 230.5t168 41.5t125 -12l-17 -78q-66 12 -126 12t-118.5 -46t-80.5 -159l-66 -335h246l-10 -68h-248l-164 -838q-26 -138 -67.5 -206t-98 -106t-124.5 -38t-126 12l15 76q67 -10 102 -10z" />
    <glyph glyph-name="Ohorn" unicode="&#x1a0;" horiz-adv-x="1585" 
d="M154 731q0 -141 41 -266t118.5 -218t190 -148.5t256 -55.5t255 55.5t189.5 148.5t119 218t41 266t-41 266t-119 218.5t-189.5 148.5t-255 55t-256 -55t-190 -148.5t-118.5 -218.5t-41 -266zM1454 731q0 -331 -187 -548.5t-508 -217.5t-508.5 218t-187.5 548t187.5 548
t523.5 218q335 0 529 -262q27 -20 63 -21q61 0 95 84t34 250h66q0 -274 -65.5 -335.5t-99.5 -61.5t-44 4q102 -182 102 -424z" />
    <glyph glyph-name="ohorn" unicode="&#x1a1;" horiz-adv-x="1259" 
d="M143 526.5q0 -94.5 27 -181.5t78 -154.5t127 -107.5t174 -40t174 40t127 107.5t77.5 154.5t26.5 181.5t-26.5 181.5t-77.5 154.5t-127 107.5t-174 40t-174 -40t-127 -107.5t-78 -154.5t-27 -181.5zM195 919q129 158 354 158q137 0 237.5 -60.5t159.5 -160.5
q36 -41 92 -41q55 0 89 84t34 250h66q0 -274 -65.5 -335.5t-105.5 -61.5t-67 18q43 -111 43 -234t-31.5 -223t-93 -175t-151.5 -119t-207 -44t-207 44t-183 157.5t-93 349t129 393.5z" />
    <glyph glyph-name="uni01A2" unicode="&#x1a2;" horiz-adv-x="1392" 
d="M760 1419q-278 0 -442 -198t-164 -490.5t165 -490t441 -197.5q77 0 147 16v1344q-72 16 -147 16zM760 -35q-322 0 -509.5 218t-187.5 548t187.5 548t509.5 218q84 0 151.5 -16.5t77.5 -18.5h275v-1839h-90v1761h-177v-1384q-157 -35 -237 -35z" />
    <glyph glyph-name="uni01A3" unicode="&#x1a3;" horiz-adv-x="1142" 
d="M533 1010q-82 0 -158 -40t-127 -107.5t-78 -154.5t-27 -233t108 -289t298 -143q69 0 127 20v926q-61 21 -143 21zM528 1077q96 0 179 -24h303v-1383h-78v1305h-178v-957q-92 -43 -207 -43t-205 44t-151.5 119t-93 175.5t-31.5 213t31.5 212t93 175t151.5 119.5t186 44z
" />
    <glyph glyph-name="uni01A7" unicode="&#x1a7;" horiz-adv-x="1290" 
d="M1167 1108q0 -262 -315 -346q-90 -25 -257 -57t-253 -76q-86 -43 -129 -101t-43 -153q0 -93 42 -157q115 -175 382 -175q378 0 491 237q41 83 35 203h90q4 -264 -178 -400q-160 -118 -438 -118q-197 0 -341 92q-173 113 -173 320q0 271 316 361q88 26 182 44t184 38
q196 45 272 145q43 55 43 144q0 161 -138 246q-107 64 -235 64q-349 0 -457 -211q-36 -70 -40 -164h-90q11 231 164 342t372 111t356 -89q158 -102 158 -300z" />
    <glyph glyph-name="uni01A8" unicode="&#x1a8;" horiz-adv-x="985" 
d="M495 -25q-177 0 -299 69t-122 221t92.5 214t279.5 96q63 14 126 28.5t144 53.5t81 145t-89.5 157t-184.5 51q-169 0 -255 -65.5t-86 -203.5h-78q0 170 105.5 253t284.5 83q253 0 316.5 -95.5t63.5 -189.5t-53 -150t-134 -87t-174 -46t-174 -40t-134 -70t-53 -123
q0 -132 100.5 -182.5t201.5 -50.5q179 0 275 83.5t105 223.5h77q-4 -176 -121 -275.5t-295 -99.5z" />
    <glyph glyph-name="Uhorn" unicode="&#x1af;" horiz-adv-x="1581" 
d="M678 -35q-549 0 -549 621v876h90v-876q0 -129 32 -246.5t132.5 -207t294.5 -89.5q377 0 428 209t51 334v876h90v-61q13 -127 115 -127q61 0 95 84t34 250h65q0 -275 -67.5 -336.5t-116.5 -61.5q-101 0 -125 88v-712q0 -621 -569 -621z" />
    <glyph glyph-name="uhorn" unicode="&#x1b0;" horiz-adv-x="1284" 
d="M1192 1188h65q0 -276 -67.5 -336.5t-116.5 -60.5q-101 0 -125 88v-879h-78v225h-4q-38 -113 -142 -181.5t-216 -68.5t-176 22.5t-122 75t-76.5 140t-18.5 188.5v652h78v-666q0 -136 35.5 -201t95.5 -104t158 -39q184 0 286 121t102 319v570h78v-72q13 -127 115 -127
q61 0 95 84t34 250z" />
    <glyph glyph-name="uni01B5" unicode="&#x1b5;" horiz-adv-x="1099" 
d="M57 1462h1026v-78l-447 -589h394v-78h-453l-485 -639h1010v-78h-1104v78l483 639h-358v78h416l446 589h-928v78z" />
    <glyph glyph-name="uni01B6" unicode="&#x1b6;" horiz-adv-x="872" 
d="M854 68v-68h-836v74l347 446h-209v68h261l308 397h-651v68h747v-74l-304 -391h288v-68h-340l-352 -452h741z" />
    <glyph glyph-name="clickdental" unicode="&#x1c0;" horiz-adv-x="454" 
d="M188 1610h78v-2048h-78v2048z" />
    <glyph glyph-name="clicklateral" unicode="&#x1c1;" horiz-adv-x="909" 
d="M188 1610h78v-2048h-78v2048zM643 1610h78v-2048h-78v2048z" />
    <glyph glyph-name="clickretroflex" unicode="&#x1c3;" horiz-adv-x="530" 
d="M213 211h104v-211h-104v211zM217 1462h98v-493l-24 -594h-49l-25 594v493z" />
    <glyph glyph-name="DZcaron" unicode="&#x1c4;" horiz-adv-x="2465" 
d="M612 78q235 0 394 138q188 168 188 517q0 496 -347 615q-105 36 -253 36h-375v-1306h393zM129 1462h479q365 0 535 -225q141 -184 141 -504q0 -510 -376 -677q-128 -56 -304 -56h-475v1462zM1423 1462h1026v-78l-991 -1306h1010v-78h-1104v78l987 1306h-928v78z
M1874 1616l-236 287h78l199 -236l201 236h77l-237 -287h-82z" />
    <glyph glyph-name="Dzcaron" unicode="&#x1c5;" horiz-adv-x="2238" 
d="M612 78q235 0 394 138q188 168 188 517q0 496 -347 615q-105 36 -253 36h-375v-1306h393zM129 1462h479q365 0 535 -225q141 -184 141 -504q0 -510 -376 -677q-128 -56 -304 -56h-475v1462zM2220 68v-68h-836v74l707 911h-651v68h747v-74l-708 -911h741zM1761 1206
l-235 287h78l198 -236l201 236h78l-238 -287h-82z" />
    <glyph glyph-name="dzcaron" unicode="&#x1c6;" horiz-adv-x="2011" 
d="M830 193q96 136 96 331t-99 341q-99 145 -294 145t-299 -148q-91 -129 -91 -332q0 -204 96 -340q104 -147 296 -147q191 0 295 150zM535 1077q130 0 239 -68q108 -68 150 -192h4v645h78v-1462h-78v225h-4q-131 -248 -404 -250q-226 0 -341 159t-114 397t121 392t349 154z
M1993 68v-68h-836v74l707 911h-652v68h748v-74l-709 -911h742zM1534 1206l-236 287h78l199 -236l201 236h77l-237 -287h-82z" />
    <glyph glyph-name="LJ" unicode="&#x1c7;" horiz-adv-x="2009" 
d="M129 1462h90v-1384h830v-78h-920v1462zM1790 485v977h90v-1007q0 -140 -12 -199q-12 -58 -36 -110q-51 -109 -182 -156q-70 -25 -194 -25t-208 47t-125 121q-40 74 -49 162t-9 170h90q-14 -192 43 -292q74 -130 283 -130t274 145q29 62 32 142t3 155z" />
    <glyph glyph-name="Lj" unicode="&#x1c8;" horiz-adv-x="1368" 
d="M129 1462h90v-1384h830v-78h-920v1462zM1010 -311q36 0 66 9q55 17 73 96q8 40 8 100v1159h78v-1166q0 -125 -32 -173t-74 -70t-88 -21h-62q-16 0 -25 2v68q20 -4 56 -4zM1157 1251v211h78v-211h-78z" />
    <glyph glyph-name="lj" unicode="&#x1c9;" horiz-adv-x="688" 
d="M211 1462v-1462h-78v1462h78zM330 -311q36 0 66 9q55 17 73 96q8 40 8 100v1159h78v-1166q0 -125 -32 -173q-31 -48 -73 -70t-88 -21h-63q-16 0 -25 2v68q20 -4 56 -4zM477 1251v211h78v-211h-78z" />
    <glyph glyph-name="NJ" unicode="&#x1ca;" horiz-adv-x="2373" 
d="M129 1462h113l923 -1341h4v1341h91v-1462h-107l-930 1352h-4v-1352h-90v1462zM2154 485v977h91v-1007q-1 -141 -13 -199q-28 -132 -104 -202q-100 -89 -266 -89t-250 47t-124 121t-49 162t-9 170h90q-14 -192 43 -292q74 -130 278 -130q117 0 183 41q122 75 127 247
q3 79 3 154z" />
    <glyph glyph-name="Nj" unicode="&#x1cb;" horiz-adv-x="1732" 
d="M129 1462h113l923 -1341h4v1341h91v-1462h-107l-930 1352h-4v-1352h-90v1462zM1375 -311q36 0 65 9q57 18 73 96q8 40 9 100v1159h77v-1166q1 -124 -31 -172q-32 -49 -74 -71t-88 -21h-63q-16 0 -24 2v68q20 -4 56 -4zM1522 1251v211h77v-211h-77z" />
    <glyph glyph-name="nj" unicode="&#x1cc;" horiz-adv-x="1406" 
d="M115 1053h78v-226h4q39 114 142 182t214 68q112 -1 177 -23q204 -71 216 -326q2 -44 2 -77v-651h-78v666q0 134 -36 200t-96 105t-158 39t-168 -33q-142 -67 -194 -231q-26 -81 -25 -177v-569h-78v1053zM1049 -311q36 0 65 9q56 17 74 96q8 40 8 100v1159h78v-1166
q0 -125 -32 -173t-74 -70t-88 -21h-62q-16 0 -25 2v68q20 -4 56 -4zM1196 1251v211h78v-211h-78z" />
    <glyph glyph-name="Acaron" unicode="&#x1cd;" horiz-adv-x="1214" 
d="M930 547l-314 827h-4l-325 -827h643zM563 1462h99l577 -1462h-96l-185 469h-700l-186 -469h-97zM565 1597l-235 287h78l198 -235l201 235h78l-238 -287h-82z" />
    <glyph glyph-name="acaron" unicode="&#x1ce;" horiz-adv-x="1024" 
d="M143 272q0 -117 74 -173t205 -56t209 48q144 89 171 232q11 58 11 78v197q-29 -35 -87 -47t-130 -19l-131 -12q-151 -16 -208 -49q-56 -33 -85 -79t-29 -120zM526 1077q190 0 278 -75t87 -195v-612q0 -62 7 -83q15 -44 63 -44q20 0 57 6v-66q-31 -8 -71 -8
q-109 0 -129 93q-5 28 -5 61v55h-4q-37 -98 -139 -165t-261 -68t-251 72t-92 231t130 236q82 50 257 69l120 10q160 11 205 56q25 24 31 61t6 86q0 209 -293 213q-141 0 -228 -70t-95 -211h-78q16 348 405 348zM500 1231l-236 287h78l199 -236l200 236h78l-237 -287h-82z
" />
    <glyph glyph-name="Icaron" unicode="&#x1cf;" horiz-adv-x="348" 
d="M129 1462h90v-1462h-90v1462zM133 1597l-235 287h77l199 -235l201 235h78l-238 -287h-82z" />
    <glyph glyph-name="icaron" unicode="&#x1d0;" horiz-adv-x="344" 
d="M133 0v1053h78v-1053h-78zM131 1206l-235 287h77l199 -236l201 236h78l-238 -287h-82z" />
    <glyph glyph-name="Ocaron" unicode="&#x1d1;" horiz-adv-x="1517" 
d="M1364 731q0 293 -166 491q-166 197 -440 197q-275 0 -440 -197q-164 -197 -164 -490t165 -491t441 -198t444 204q160 191 160 484zM760 1497q321 0 508 -217q186 -217 186 -548t-187 -548t-507 -219q-164 -1 -294 59q-259 119 -355 407q-47 140 -48 300q0 160 48 300
q97 288 355 407q130 59 294 59zM717 1597l-236 287h78l199 -235l200 235h78l-237 -287h-82z" />
    <glyph glyph-name="ocaron" unicode="&#x1d2;" horiz-adv-x="1099" 
d="M143 526q0 -94 27 -181q58 -187 205 -262q76 -40 174 -40q189 0 298 144t108 341t-109 340q-108 142 -297 142q-190 0 -298 -144t-108 -340zM66 524q0 234 128 394q128 159 354 159q227 0 356 -160q128 -160 128 -393t-129 -391t-353 -158q-225 0 -355 158
q-129 157 -129 391zM508 1231l-236 287h78l199 -236l201 236h77l-237 -287h-82z" />
    <glyph glyph-name="Ucaron" unicode="&#x1d3;" horiz-adv-x="1376" 
d="M678 -35q-549 0 -549 621v876h90v-876q0 -302 152 -442q112 -101 307 -101q255 0 374 146q107 136 105 397v876h90v-876q0 -621 -569 -621zM647 1597l-235 287h77l199 -235l201 235h78l-238 -287h-82z" />
    <glyph glyph-name="ucaron" unicode="&#x1d4;" 
d="M948 0h-78v225h-4q-38 -113 -140 -180t-216 -69q-264 -3 -347 164q-41 79 -45 154q-3 75 -3 107v652h78v-666q-1 -134 35 -200t96 -105t158 -39q184 0 287 122t101 318v570h78v-1053zM489 1206l-235 287h78l198 -236l201 236h78l-238 -287h-82z" />
    <glyph glyph-name="Udieresismacron" unicode="&#x1d5;" horiz-adv-x="1376" 
d="M678 -35q-549 0 -549 621v876h90v-876q0 -302 152 -442q112 -101 307 -101q255 0 374 146q107 136 105 397v876h90v-876q0 -621 -569 -621zM481 1616v211h90v-211h-90zM805 1616v211h90v-211h-90zM440 1980v68h496v-68h-496z" />
    <glyph glyph-name="udieresismacron" unicode="&#x1d6;" 
d="M948 0h-78v225h-4q-38 -113 -140 -180t-216 -69q-264 -3 -347 164q-41 79 -45 154q-3 75 -3 107v652h78v-666q-1 -134 35 -200t96 -105t158 -39q184 0 287 122t101 318v570h78v-1053zM324 1206v211h90v-211h-90zM647 1206v211h90v-211h-90zM283 1571v67h495v-67h-495z
" />
    <glyph glyph-name="Udieresisacute" unicode="&#x1d7;" horiz-adv-x="1376" 
d="M678 -35q-549 0 -549 621v876h90v-876q0 -302 152 -442q112 -101 307 -101q255 0 374 146q107 136 105 397v876h90v-876q0 -621 -569 -621zM481 1616v211h90v-211h-90zM805 1616v211h90v-211h-90zM883 2185h104l-274 -287h-76z" />
    <glyph glyph-name="udieresisacute" unicode="&#x1d8;" 
d="M948 0h-78v225h-4q-38 -113 -140 -180t-216 -69q-264 -3 -347 164q-41 79 -45 154q-3 75 -3 107v652h78v-666q-1 -134 35 -200t96 -105t158 -39q184 0 287 122t101 318v570h78v-1053zM324 1206v211h90v-211h-90zM647 1206v211h90v-211h-90zM733 1796h105l-275 -287h-76z
" />
    <glyph glyph-name="Udieresiscaron" unicode="&#x1d9;" horiz-adv-x="1376" 
d="M678 -35q-549 0 -549 621v876h90v-876q0 -302 152 -442q112 -101 307 -101q255 0 374 146q107 136 105 397v876h90v-876q0 -621 -569 -621zM481 1616v211h90v-211h-90zM805 1616v211h90v-211h-90zM647 1939l-235 287h77l199 -235l201 235h78l-238 -287h-82z" />
    <glyph glyph-name="udieresiscaron" unicode="&#x1da;" 
d="M948 0h-78v225h-4q-38 -113 -140 -180t-216 -69q-264 -3 -347 164q-41 79 -45 154q-3 75 -3 107v652h78v-666q-1 -134 35 -200t96 -105t158 -39q184 0 287 122t101 318v570h78v-1053zM324 1206v211h90v-211h-90zM647 1206v211h90v-211h-90zM489 1530l-235 287h78
l198 -236l201 236h78l-238 -287h-82z" />
    <glyph glyph-name="Udieresisgrave" unicode="&#x1db;" horiz-adv-x="1376" 
d="M678 -35q-549 0 -549 621v876h90v-876q0 -302 152 -442q112 -101 307 -101q255 0 374 146q107 136 105 397v876h90v-876q0 -621 -569 -621zM481 1616v211h90v-211h-90zM805 1616v211h90v-211h-90zM645 1919l-274 287h104l246 -287h-76z" />
    <glyph glyph-name="udieresisgrave" unicode="&#x1dc;" 
d="M948 0h-78v225h-4q-38 -113 -140 -180t-216 -69q-264 -3 -347 164q-41 79 -45 154q-3 75 -3 107v652h78v-666q-1 -134 35 -200t96 -105t158 -39q184 0 287 122t101 318v570h78v-1053zM324 1206v211h90v-211h-90zM647 1206v211h90v-211h-90zM487 1530l-274 287h104
l246 -287h-76z" />
    <glyph glyph-name="uni01DD" unicode="&#x1dd;" 
d="M799.5 164q102.5 121 115.5 305h-770q4 -182 105 -304t274 -122t275.5 121zM918 537v12q0 194 -101 327.5t-273 133.5t-264 -83t-126 -231h-78q35 184 150.5 282.5t305.5 98.5q223 0 344 -150t121 -390t-125 -401t-345 -161t-340.5 148.5t-120.5 368.5l2 45h850z" />
    <glyph glyph-name="Adieresismacron" unicode="&#x1de;" horiz-adv-x="1214" 
d="M930 547l-314 827h-4l-325 -827h643zM563 1462h99l577 -1462h-96l-185 469h-700l-186 -469h-97zM399 1616v211h90v-211h-90zM723 1616v211h90v-211h-90zM358 1939v68h496v-68h-496z" />
    <glyph glyph-name="adieresismacron" unicode="&#x1df;" horiz-adv-x="1024" 
d="M143 272q0 -117 74 -173t205 -56t209 48q144 89 171 232q11 58 11 78v197q-29 -35 -87 -47t-130 -19l-131 -12q-151 -16 -208 -49q-56 -33 -85 -79t-29 -120zM526 1077q190 0 278 -75t87 -195v-612q0 -62 7 -83q15 -44 63 -44q20 0 57 6v-66q-31 -8 -71 -8
q-109 0 -129 93q-5 28 -5 61v55h-4q-37 -98 -139 -165t-261 -68t-251 72t-92 231t130 236q82 50 257 69l120 10q160 11 205 56q25 24 31 61t6 86q0 209 -293 213q-141 0 -228 -70t-95 -211h-78q16 348 405 348zM334 1231v211h90v-211h-90zM657 1231v211h91v-211h-91z
M293 1554v68h495v-68h-495z" />
    <glyph glyph-name="Adotmacron" unicode="&#x1e0;" horiz-adv-x="1214" 
d="M930 547l-314 827h-4l-325 -827h643zM563 1462h99l577 -1462h-96l-185 469h-700l-186 -469h-97zM561 1616v211h90v-211h-90zM358 1939v68h496v-68h-496z" />
    <glyph glyph-name="adotmacron" unicode="&#x1e1;" horiz-adv-x="1024" 
d="M143 272q0 -117 74 -173t205 -56t209 48q144 89 171 232q11 58 11 78v197q-29 -35 -87 -47t-130 -19l-131 -12q-151 -16 -208 -49q-56 -33 -85 -79t-29 -120zM526 1077q190 0 278 -75t87 -195v-612q0 -62 7 -83q15 -44 63 -44q20 0 57 6v-66q-31 -8 -71 -8
q-109 0 -129 93q-5 28 -5 61v55h-4q-37 -98 -139 -165t-261 -68t-251 72t-92 231t130 236q82 50 257 69l120 10q160 11 205 56q25 24 31 61t6 86q0 209 -293 213q-141 0 -228 -70t-95 -211h-78q16 348 405 348zM496 1231v211h90v-211h-90zM293 1554v68h495v-68h-495z" />
    <glyph glyph-name="AEmacron" unicode="&#x1e2;" horiz-adv-x="1781" 
d="M883 1384h-97l-411 -786h508v786zM1749 1462v-78h-776v-585h717v-78h-717v-643h778v-78h-868v520h-549l-271 -520h-81l763 1462h1004zM985 1616v67h496v-67h-496z" />
    <glyph glyph-name="aemacron" unicode="&#x1e3;" horiz-adv-x="1820" 
d="M831 592h-4q-20 -39 -140 -53q-52 -7 -117 -11t-127 -9q-300 -23 -300 -247q0 -115 87 -172t188 -57q100 0 170 29q143 59 209 194q33 68 34 146v180zM1292 1010q-177 0 -273 -121q-97 -121 -110 -305h766q4 175 -101 301q-105 125 -282 125zM524 1077q349 0 369 -268h4
q49 137 153 203t235 66q242 -1 366 -165t102 -397h-842q-12 -198 88 -336q100 -137 297 -137q150 0 247 79t120 228h78q-29 -178 -147 -276t-288 -98t-282 75q-112 76 -150 230h-4q-51 -141 -162 -224q-112 -82 -266 -82q-256 0 -346 160q-30 55 -30 141q2 285 383 304
q69 8 139 9t126 15t90 49t27 111q0 129 -75 187q-76 59 -224 59t-241 -68q-92 -68 -103 -219h-77q12 182 125 268t288 86zM664 1231v67h495v-67h-495z" />
    <glyph glyph-name="Gcaron" unicode="&#x1e6;" horiz-adv-x="1517" 
d="M76 722q0 325 186 550t504 225q232 0 401 -132t207 -355h-86q-51 194 -184 302t-336 107q-284 0 -449 -211q-153 -193 -153 -485t157 -486t431 -194t426 163q153 163 141 433h-539v78h617v-717h-78v311h-4q-82 -244 -368 -321q-89 -25 -185 -25q-166 0 -294 60
q-257 117 -349 401q-45 138 -45 296zM696 1597l-235 287h78l198 -235l201 235h78l-238 -287h-82z" />
    <glyph glyph-name="gcaron" unicode="&#x1e7;" horiz-adv-x="1099" 
d="M239 868q-94 -129 -94 -317q0 -189 101 -317t280 -128q180 0 281 133q100 133 99 322t-102 319t-283 130t-282 -142zM985 55q0 -459 -453 -456q-282 0 -375 173q-34 62 -38 154h78q11 -133 102 -196q91 -62 217 -63q217 -2 313 117q78 94 78 253v242h-4
q-113 -240 -381 -240q-221 0 -338 147q-118 147 -117 369q1 223 121 373q120 149 334 149q124 0 230 -63t151 -180h4v219h78v-998zM485 1231l-235 287h78l198 -236l201 236h78l-238 -287h-82z" />
    <glyph glyph-name="Kcaron" unicode="&#x1e8;" horiz-adv-x="1255" 
d="M129 1462h90v-841l920 841h116l-667 -608l708 -854h-112l-662 793l-303 -277v-516h-90v1462zM565 1597l-235 287h78l198 -235l201 235h78l-238 -287h-82z" />
    <glyph glyph-name="kcaron" unicode="&#x1e9;" horiz-adv-x="948" 
d="M119 1462h78v-968l649 559h112l-460 -394l493 -659h-106l-449 600l-239 -203v-397h-78v1462zM442 1616l-235 287h78l198 -236l201 236h78l-238 -287h-82z" />
    <glyph glyph-name="Oogonek" unicode="&#x1ea;" horiz-adv-x="1517" 
d="M1364 731q0 293 -166 491q-166 197 -440 197q-275 0 -440 -197q-164 -197 -164 -490t165 -491t441 -198t444 204q160 191 160 484zM760 1497q321 0 508 -217q186 -217 186 -548t-187 -548t-507 -219q-164 -1 -294 59q-259 119 -355 407q-47 140 -48 300q0 160 48 300
q97 288 355 407q130 59 294 59zM586 -297q0 126 209 262h49q-101 -89 -134 -144q-34 -55 -34 -100t26 -67t62 -23q72 0 119 72l47 -16q-51 -123 -176 -123q-76 0 -122 34t-46 105z" />
    <glyph glyph-name="oogonek" unicode="&#x1eb;" horiz-adv-x="1099" 
d="M143 526q0 -94 27 -181q58 -187 205 -262q76 -40 174 -40q189 0 298 144t108 341t-109 340q-108 142 -297 142q-190 0 -298 -144t-108 -340zM66 524q0 234 128 394q128 159 354 159q227 0 356 -160q128 -160 128 -393t-129 -391t-353 -158q-225 0 -355 158
q-129 157 -129 391zM377 -287q0 129 209 262h49q-103 -91 -136 -145q-32 -54 -32 -98t26 -68q25 -22 63 -22t65 15t53 56l47 -16q-51 -123 -176 -123q-76 0 -122 34t-46 105z" />
    <glyph glyph-name="Oogonekmacron" unicode="&#x1ec;" horiz-adv-x="1517" 
d="M1364 731q0 293 -166 491q-166 197 -440 197q-275 0 -440 -197q-164 -197 -164 -490t165 -491t441 -198t444 204q160 191 160 484zM760 1497q321 0 508 -217q186 -217 186 -548t-187 -548t-507 -219q-164 -1 -294 59q-259 119 -355 407q-47 140 -48 300q0 160 48 300
q97 288 355 407q130 59 294 59zM586 -297q0 126 209 262h49q-101 -89 -134 -144q-34 -55 -34 -100t26 -67t62 -23q72 0 119 72l47 -16q-51 -123 -176 -123q-76 0 -122 34t-46 105zM510 1651v67h496v-67h-496z" />
    <glyph glyph-name="oogonekmacron" unicode="&#x1ed;" horiz-adv-x="1099" 
d="M143 526q0 -94 27 -181q58 -187 205 -262q76 -40 174 -40q189 0 298 144t108 341t-109 340q-108 142 -297 142q-190 0 -298 -144t-108 -340zM66 524q0 234 128 394q128 159 354 159q227 0 356 -160q128 -160 128 -393t-129 -391t-353 -158q-225 0 -355 158
q-129 157 -129 391zM377 -287q0 129 209 262h49q-103 -91 -136 -145q-32 -54 -32 -98t26 -68q25 -22 63 -22t65 15t53 56l47 -16q-51 -123 -176 -123q-76 0 -122 34t-46 105zM301 1231v67h496v-67h-496z" />
    <glyph glyph-name="jcaron" unicode="&#x1f0;" horiz-adv-x="344" 
d="M-14 -311q36 0 66 9q55 17 73 96q8 40 8 100v1159h78v-1166q0 -125 -32 -173t-74 -70t-88 -21h-62q-16 0 -25 2v68q20 -4 56 -4zM127 1206l-236 287h78l199 -236l201 236h77l-237 -287h-82z" />
    <glyph glyph-name="DZ" unicode="&#x1f1;" horiz-adv-x="2465" 
d="M612 78q235 0 394 138q188 168 188 517q0 496 -347 615q-105 36 -253 36h-375v-1306h393zM129 1462h479q365 0 535 -225q141 -184 141 -504q0 -510 -376 -677q-128 -56 -304 -56h-475v1462zM1423 1462h1026v-78l-991 -1306h1010v-78h-1104v78l987 1306h-928v78z" />
    <glyph glyph-name="Dz" unicode="&#x1f2;" horiz-adv-x="2238" 
d="M612 78q235 0 394 138q188 168 188 517q0 496 -347 615q-105 36 -253 36h-375v-1306h393zM129 1462h479q365 0 535 -225q141 -184 141 -504q0 -510 -376 -677q-128 -56 -304 -56h-475v1462zM2220 68v-68h-836v74l707 911h-651v68h747v-74l-708 -911h741z" />
    <glyph glyph-name="dz" unicode="&#x1f3;" horiz-adv-x="2011" 
d="M830 193q96 136 96 331t-99 341q-99 145 -294 145t-299 -148q-91 -129 -91 -332q0 -204 96 -340q104 -147 296 -147q191 0 295 150zM535 1077q130 0 239 -68q108 -68 150 -192h4v645h78v-1462h-78v225h-4q-131 -248 -404 -250q-226 0 -341 159t-114 397t121 392t349 154z
M1993 68v-68h-836v74l707 911h-652v68h748v-74l-709 -911h742z" />
    <glyph glyph-name="Gacute" unicode="&#x1f4;" horiz-adv-x="1517" 
d="M76 722q0 325 186 550t504 225q232 0 401 -132t207 -355h-86q-51 194 -184 302t-336 107q-284 0 -449 -211q-153 -193 -153 -485t157 -486t431 -194t426 163q153 163 141 433h-539v78h617v-717h-78v311h-4q-82 -244 -368 -321q-89 -25 -185 -25q-166 0 -294 60
q-257 117 -349 401q-45 138 -45 296zM981 1937h104l-274 -286h-76z" />
    <glyph glyph-name="gacute" unicode="&#x1f5;" horiz-adv-x="1099" 
d="M239 868q-94 -129 -94 -317q0 -189 101 -317t280 -128q180 0 281 133q100 133 99 322t-102 319t-283 130t-282 -142zM985 55q0 -459 -453 -456q-282 0 -375 173q-34 62 -38 154h78q11 -133 102 -196q91 -62 217 -63q217 -2 313 117q78 94 78 253v242h-4
q-113 -240 -381 -240q-221 0 -338 147q-118 147 -117 369q1 223 121 373q120 149 334 149q124 0 230 -63t151 -180h4v219h78v-998zM752 1518h104l-274 -287h-76z" />
    <glyph glyph-name="Ngrave" unicode="&#x1f8;" horiz-adv-x="1388" 
d="M129 1462h113l923 -1341h4v1341h91v-1462h-107l-930 1352h-4v-1352h-90v1462zM795 1616l-275 287h105l245 -287h-75z" />
    <glyph glyph-name="ngrave" unicode="&#x1f9;" 
d="M115 1053h78v-226h4q39 114 142 182t214 68q112 -1 177 -23q204 -71 216 -326q2 -44 2 -77v-651h-78v666q0 134 -36 200t-96 105t-158 39t-168 -33q-142 -67 -194 -231q-26 -81 -25 -177v-569h-78v1053zM631 1231l-275 287h105l246 -287h-76z" />
    <glyph glyph-name="Aringacute" unicode="&#x1fa;" horiz-adv-x="1214" 
d="M930 547l-314 831h-4l-325 -831h643zM615 1667q-48 0 -79.5 -31.5t-31.5 -79.5t32.5 -81t80.5 -33t80 31.5t32 79.5t-33 81t-81 33zM451 1554q0 72 47 118t118.5 46t118.5 -46t47 -118q0 -107 -98 -151l555 -1403h-96l-185 469h-700l-186 -469h-97l566 1407
q-90 44 -90 147zM711 1944h104l-194 -193h-76z" />
    <glyph glyph-name="aringacute" unicode="&#x1fb;" horiz-adv-x="1024" 
d="M702 1884h105l-275 -287h-75zM379 1347.5q0 -61.5 43 -104.5t104.5 -43t104.5 43t43 104.5t-43 104.5t-104.5 43t-104.5 -43t-43 -104.5zM324 1348q0 86 58 144t144 58t144.5 -58t58.5 -144t-58.5 -144.5t-144.5 -58.5t-144 58.5t-58 144.5zM143 272q0 -117 74 -173
t205 -56t209 48t119 110.5t52 121t11 78.5v197q-29 -35 -87 -47t-130 -19l-131 -12q-151 -16 -207.5 -49t-85.5 -79t-29 -120zM427 1077q290 0 377 -74.5t87 -195.5v-612q0 -62 10.5 -94.5t59.5 -32.5q20 0 57 6v-66q-31 -8 -71 -8q-77 0 -105.5 40t-28.5 114v55h-4
q-37 -98 -140.5 -166t-261.5 -68q-157 0 -249 73t-92 231t109 223.5t278 81.5l120 10q158 11 194 45.5t42 71.5t6 86q0 96 -71 154.5t-217 58.5t-233 -70t-95 -211h-78q16 348 306 348z" />
    <glyph glyph-name="AEacute" unicode="&#x1fc;" horiz-adv-x="1781" 
d="M1327 1884h105l-275 -287h-76zM883 1384h-97l-411 -786h508v786zM1749 1462v-78h-776v-585h717v-78h-717v-643h778v-78h-868v520h-549l-271 -520h-81l763 1462h1004z" />
    <glyph glyph-name="aeacute" unicode="&#x1fd;" horiz-adv-x="1820" 
d="M1141 1495h104l-274 -287h-76zM831 592h-4q-26 -50 -230.5 -62.5t-329 -45.5t-124.5 -216q0 -112 88.5 -168.5t187.5 -56.5q176 0 292 107t120 262v180zM1019.5 888.5q-97.5 -121.5 -110.5 -304.5h766q4 176 -101 301t-281 125t-273.5 -121.5zM1296 1077
q231 0 354.5 -162.5t102.5 -398.5h-842q-13 -201 88.5 -337t296.5 -136q150 0 247 79t120 228h78q-29 -178 -147 -276.5t-288 -98.5t-282.5 76t-149.5 230h-4q-51 -141 -162.5 -223.5t-265.5 -82.5q-257 0 -316.5 107.5t-59.5 193.5q0 164 114.5 231.5t268.5 72.5
q68 8 138 9t126.5 15t90.5 49t27 111q0 129 -75.5 187.5t-223.5 58.5t-240.5 -68t-103.5 -219h-77q12 182 124.5 268t288.5 86q349 0 369 -268h4q96 268 399 268z" />
    <glyph glyph-name="Oslashacute" unicode="&#x1fe;" horiz-adv-x="1517" 
d="M932 1884h104l-274 -287h-76zM338 221q161 -178 428 -178t432.5 197.5t165.5 478.5q0 282 -139 473zM1178 1247q-168 172 -432 172t-428 -198t-164 -480t139 -467zM231 209q-168 213 -168 532t187.5 537.5t493.5 218.5q305 0 491 -186l139 151l53 -49l-143 -156
q170 -206 170 -531q0 -326 -187 -543.5t-497 -217.5t-491 191l-156 -172l-53 49z" />
    <glyph glyph-name="oslashacute" unicode="&#x1ff;" horiz-adv-x="1099" 
d="M721 1495h104l-274 -287h-76zM264 172q112 -129 293 -129q182 0 289.5 142.5t107.5 328.5t-77 305zM836 877q-106 133 -291 133t-293.5 -143t-108.5 -330t80 -308zM932 877q100 -147 100 -367t-129 -377.5t-347 -157.5t-345 142l-111 -117l-49 47l117 125
q-102 145 -102 367t129 380t346 158q218 0 348 -145l112 119l50 -47z" />
    <glyph glyph-name="Adblgrave" unicode="&#x200;" horiz-adv-x="1214" 
d="M489 1616l-274 287h104l246 -287h-76zM813 1616l-274 287h104l246 -287h-76zM930 547l-314 827h-4l-325 -827h643zM563 1462h99l577 -1462h-96l-185 469h-700l-186 -469h-97z" />
    <glyph glyph-name="adblgrave" unicode="&#x201;" horiz-adv-x="1024" 
d="M401 1231l-274 287h104l246 -287h-76zM725 1231l-274 287h104l246 -287h-76zM143 272q0 -117 74 -173t205 -56t209 48t119 110.5t52 121t11 78.5v197q-29 -35 -87 -47t-130 -19l-131 -12q-151 -16 -207.5 -49t-85.5 -79t-29 -120zM427 1077q290 0 377 -74.5t87 -195.5
v-612q0 -62 10.5 -94.5t59.5 -32.5q20 0 57 6v-66q-31 -8 -71 -8q-77 0 -105.5 40t-28.5 114v55h-4q-37 -98 -140.5 -166t-261.5 -68q-157 0 -249 73t-92 231t109 223.5t278 81.5l120 10q158 11 194 45.5t42 71.5t6 86q0 96 -71 154.5t-217 58.5t-233 -70t-95 -211h-78
q16 348 306 348z" />
    <glyph glyph-name="Ainvertedbreve" unicode="&#x202;" horiz-adv-x="1214" 
d="M614 1794q-116 0 -160 -62.5t-57 -115.5h-67q14 117 92 181.5t188 64.5t186.5 -73.5t88.5 -172.5h-68q-14 80 -68.5 129t-134.5 49zM930 547l-314 827h-4l-325 -827h643zM563 1462h99l577 -1462h-96l-185 469h-700l-186 -469h-97z" />
    <glyph glyph-name="ainvertedbreve" unicode="&#x203;" horiz-adv-x="1024" 
d="M549 1407q-117 0 -161 -62.5t-56 -115.5h-68q14 117 92 181.5t187 64.5t186.5 -72.5t89.5 -173.5h-67q-14 80 -68.5 129t-134.5 49zM143 272q0 -117 74 -173t205 -56t209 48t119 110.5t52 121t11 78.5v197q-29 -35 -87 -47t-130 -19l-131 -12q-151 -16 -207.5 -49
t-85.5 -79t-29 -120zM427 1077q290 0 377 -74.5t87 -195.5v-612q0 -62 10.5 -94.5t59.5 -32.5q20 0 57 6v-66q-31 -8 -71 -8q-77 0 -105.5 40t-28.5 114v55h-4q-37 -98 -140.5 -166t-261.5 -68q-157 0 -249 73t-92 231t109 223.5t278 81.5l120 10q158 11 194 45.5t42 71.5
t6 86q0 96 -71 154.5t-217 58.5t-233 -70t-95 -211h-78q16 348 306 348z" />
    <glyph glyph-name="Edblgrave" unicode="&#x204;" horiz-adv-x="1146" 
d="M537 1616l-275 287h105l245 -287h-75zM860 1616l-274 287h104l246 -287h-76zM129 1462h983v-78h-893v-585h840v-78h-840v-643h903v-78h-993v1462z" />
    <glyph glyph-name="edblgrave" unicode="&#x205;" 
d="M410 1231l-275 287h105l245 -287h-75zM733 1231l-274 287h104l246 -287h-76zM540 1010q-175 0 -276 -121t-117 -305h771q-13 286 -150 356t-228 70zM145 516v-12q0 -194 101 -327.5t272 -133.5q172 0 264 83t127 230h78q-35 -184 -150.5 -282.5t-322.5 -98.5
t-327.5 150.5t-120.5 389.5t124.5 400.5t345.5 161.5t341 -147.5t120 -368.5l-2 -45h-850z" />
    <glyph glyph-name="Einvertedbreve" unicode="&#x206;" horiz-adv-x="1146" 
d="M633 1794q-117 0 -161 -62.5t-56 -115.5h-68q14 117 92 181.5t187 64.5t186.5 -72.5t89.5 -173.5h-67q-14 80 -68.5 129t-134.5 49zM129 1462h983v-78h-893v-585h840v-78h-840v-643h903v-78h-993v1462z" />
    <glyph glyph-name="einvertedbreve" unicode="&#x207;" 
d="M539 1407q-118 0 -161.5 -62.5t-55.5 -115.5h-68q14 117 92 181.5t187 64.5t186.5 -72.5t89.5 -173.5h-68q-14 80 -68.5 129t-133.5 49zM540 1010q-175 0 -276 -121t-117 -305h771q-13 286 -150 356t-228 70zM145 516v-12q0 -194 101 -327.5t272 -133.5q172 0 264 83
t127 230h78q-35 -184 -150.5 -282.5t-322.5 -98.5t-327.5 150.5t-120.5 389.5t124.5 400.5t345.5 161.5t341 -147.5t120 -368.5l-2 -45h-850z" />
    <glyph glyph-name="Idblgrave" unicode="&#x208;" horiz-adv-x="348" 
d="M12 1616l-274 287h104l246 -287h-76zM336 1616l-275 287h105l246 -287h-76zM129 1462h90v-1462h-90v1462z" />
    <glyph glyph-name="idblgrave" unicode="&#x209;" horiz-adv-x="344" 
d="M-8 1206l-275 287h105l246 -287h-76zM315 1206l-274 287h104l246 -287h-76zM133 0v1053h78v-1053h-78z" />
    <glyph glyph-name="Iinvertedbreve" unicode="&#x20a;" horiz-adv-x="348" 
d="M182 1794q-116 0 -160.5 -62.5t-56.5 -115.5h-67q14 117 92 181.5t188 64.5t185.5 -72.5t89.5 -173.5h-68q-14 80 -68.5 129t-134.5 49zM129 1462h90v-1462h-90v1462z" />
    <glyph glyph-name="iinvertedbreve" unicode="&#x20b;" horiz-adv-x="344" 
d="M180 1407q-116 0 -160.5 -62.5t-56.5 -115.5h-67q14 117 92 181.5t188 64.5t185.5 -72.5t89.5 -173.5h-68q-14 80 -68.5 129t-134.5 49zM133 0v1053h78v-1053h-78z" />
    <glyph glyph-name="Odblgrave" unicode="&#x20c;" horiz-adv-x="1517" 
d="M616 1651l-274 286h104l246 -286h-76zM940 1651l-274 286h104l246 -286h-76zM154 731q0 -141 41 -266t118.5 -218t190 -148.5t256 -55.5t255 55.5t189.5 148.5t119 218t41 266t-41 266t-119 218.5t-189.5 148.5t-255 55t-256 -55t-190 -148.5t-118.5 -218.5t-41 -266z
M1454 731q0 -160 -47 -300t-136 -243.5t-218 -163t-293 -59.5t-294 59.5t-219 163t-136.5 243.5t-47.5 300t47.5 300t136.5 243.5t219 163t294 59.5t293 -59.5t218 -163t136 -243.5t47 -300z" />
    <glyph glyph-name="odblgrave" unicode="&#x20d;" horiz-adv-x="1099" 
d="M377 1231l-275 287h105l246 -287h-76zM700 1231l-274 287h104l246 -287h-76zM143 526.5q0 -94.5 27 -181.5t78 -154.5t127 -107.5t174 -40t174 40t127 107.5t77.5 154.5t26.5 181.5t-26.5 181.5t-77.5 154.5t-127 107.5t-174 40t-174 -40t-127 -107.5t-78 -154.5
t-27 -181.5zM66 526.5q0 112.5 31.5 212t93 175t151.5 119.5t207 44t207 -44t151.5 -119.5t93 -175t31.5 -212t-31.5 -213t-93 -175.5t-151.5 -119t-207 -44t-207 44t-151.5 119t-93 175.5t-31.5 213z" />
    <glyph glyph-name="Oinvertedbreve" unicode="&#x20e;" horiz-adv-x="1517" 
d="M766 1794q-117 0 -161 -62.5t-56 -115.5h-68q14 117 92 181.5t187 64.5t186.5 -72.5t89.5 -173.5h-67q-14 80 -68.5 129t-134.5 49zM154 731q0 -141 41 -266t118.5 -218t190 -148.5t256 -55.5t255 55.5t189.5 148.5t119 218t41 266t-41 266t-119 218.5t-189.5 148.5
t-255 55t-256 -55t-190 -148.5t-118.5 -218.5t-41 -266zM1454 731q0 -160 -47 -300t-136 -243.5t-218 -163t-293 -59.5t-294 59.5t-219 163t-136.5 243.5t-47.5 300t47.5 300t136.5 243.5t219 163t294 59.5t293 -59.5t218 -163t136 -243.5t47 -300z" />
    <glyph glyph-name="oinvertedbreve" unicode="&#x20f;" horiz-adv-x="1099" 
d="M557 1407q-118 0 -161.5 -62.5t-55.5 -115.5h-68q14 117 92 181.5t187 64.5t186.5 -72.5t89.5 -173.5h-67q-14 80 -68.5 129t-134.5 49zM143 526.5q0 -94.5 27 -181.5t78 -154.5t127 -107.5t174 -40t174 40t127 107.5t77.5 154.5t26.5 181.5t-26.5 181.5t-77.5 154.5
t-127 107.5t-174 40t-174 -40t-127 -107.5t-78 -154.5t-27 -181.5zM66 526.5q0 112.5 31.5 212t93 175t151.5 119.5t207 44t207 -44t151.5 -119.5t93 -175t31.5 -212t-31.5 -213t-93 -175.5t-151.5 -119t-207 -44t-207 44t-151.5 119t-93 175.5t-31.5 213z" />
    <glyph glyph-name="Rdblgrave" unicode="&#x210;" horiz-adv-x="1290" 
d="M477 1616l-274 287h104l246 -287h-76zM801 1616l-275 287h105l246 -287h-76zM739 743q262 0 317.5 124t55.5 209q0 158 -104.5 233t-268.5 75h-520v-641h520zM1180 87q0 -36 43 -87h-101q-29 51 -32 119.5t-3 142.5t-13.5 239t-334.5 165h-520v-666h-90v1462h610
q327 0 395 -135t68 -262t-83 -228.5t-230 -125.5v-4q252 -30 271.5 -193.5t19.5 -220.5v-206z" />
    <glyph glyph-name="rdblgrave" unicode="&#x211;" horiz-adv-x="569" 
d="M178 1214l-274 287h104l246 -287h-76zM502 1214l-275 287h105l246 -287h-76zM193 819h6q29 105 144 174.5t259 65.5v-78q-61 8 -140 -12.5t-151 -89.5q-62 -66 -88 -129t-30 -175v-575h-78v1053h78v-234z" />
    <glyph glyph-name="Rinvertedbreve" unicode="&#x212;" horiz-adv-x="1290" 
d="M596 1794q-118 0 -161.5 -62.5t-55.5 -115.5h-68q14 117 92 181.5t187 64.5t186.5 -72.5t89.5 -173.5h-67q-14 80 -68.5 129t-134.5 49zM739 743q262 0 317.5 124t55.5 209q0 158 -104.5 233t-268.5 75h-520v-641h520zM1180 87q0 -36 43 -87h-101q-29 51 -32 119.5
t-3 142.5t-13.5 239t-334.5 165h-520v-666h-90v1462h610q327 0 395 -135t68 -262t-83 -228.5t-230 -125.5v-4q252 -30 271.5 -193.5t19.5 -220.5v-206z" />
    <glyph glyph-name="rinvertedbreve" unicode="&#x213;" horiz-adv-x="569" 
d="M367 1407q-117 0 -161 -62.5t-56 -115.5h-68q14 117 92 181.5t187 64.5t186.5 -72.5t89.5 -173.5h-68q-14 80 -68.5 129t-133.5 49zM193 819h6q29 105 144 174.5t259 65.5v-78q-61 8 -140 -12.5t-151 -89.5q-62 -66 -88 -129t-30 -175v-575h-78v1053h78v-234z" />
    <glyph glyph-name="Udblgrave" unicode="&#x214;" horiz-adv-x="1376" 
d="M563 1616l-274 287h104l246 -287h-76zM887 1616l-275 287h105l246 -287h-76zM678 -35q-549 0 -549 621v876h90v-876q0 -129 32 -246.5t132.5 -207t294.5 -89.5q377 0 428 209t51 334v876h90v-876q0 -621 -569 -621z" />
    <glyph glyph-name="udblgrave" unicode="&#x215;" 
d="M395 1206l-274 287h104l246 -287h-76zM719 1206l-275 287h105l246 -287h-76zM948 0h-78v225h-4q-38 -113 -142 -181.5t-216 -68.5t-176 22.5t-122 75t-76.5 140t-18.5 188.5v652h78v-666q0 -136 35.5 -201t95.5 -104t158 -39q184 0 286 121t102 319v570h78v-1053z" />
    <glyph glyph-name="Uinvertedbreve" unicode="&#x216;" horiz-adv-x="1376" 
d="M696 1794q-116 0 -160 -62.5t-57 -115.5h-67q14 117 92 181.5t188 64.5t186.5 -73.5t88.5 -172.5h-68q-14 80 -68.5 129t-134.5 49zM678 -35q-549 0 -549 621v876h90v-876q0 -129 32 -246.5t132.5 -207t294.5 -89.5q377 0 428 209t51 334v876h90v-876q0 -621 -569 -621z
" />
    <glyph glyph-name="uinvertedbreve" unicode="&#x217;" 
d="M539 1407q-118 0 -161.5 -62.5t-55.5 -115.5h-68q14 117 92 181.5t187 64.5t186.5 -72.5t89.5 -173.5h-68q-14 80 -68.5 129t-133.5 49zM948 0h-78v225h-4q-38 -113 -142 -181.5t-216 -68.5t-176 22.5t-122 75t-76.5 140t-18.5 188.5v652h78v-666q0 -136 35.5 -201
t95.5 -104t158 -39q184 0 286 121t102 319v570h78v-1053z" />
    <glyph glyph-name="Scommaaccent" unicode="&#x218;" horiz-adv-x="1290" 
d="M598 -293v191h117v-164q0 -125 -129 -135v41q56 12 63 67h-51zM634 1419q-175 0 -298 -73t-123 -234t112.5 -215.5t202.5 -75.5t184 -39q234 -46 366 -128.5t132 -282.5t-156 -303t-358 -103q-434 0 -526 188.5t-90 329.5h90q-11 -222 137 -331t389 -109q162 0 293 81.5
t131 250.5q0 168 -126 231.5t-295 96.5q-170 34 -260.5 58.5t-160 66.5t-112.5 109t-43 217.5t147.5 246.5t343.5 96q379 0 466 -166t94 -287h-91q-8 183 -103 255.5t-180 96t-166 23.5z" />
    <glyph glyph-name="scommaaccent" unicode="&#x219;" horiz-adv-x="985" 
d="M453 -293v191h116v-164q0 -125 -129 -135v41q57 13 64 67h-51zM834 266q0 88 -53.5 133t-134.5 70t-174 40t-174 46t-134 87t-53 150t63.5 189.5t327.5 95.5q263 0 321 -123t58 -213h-78q0 203 -123 236t-182 33q-131 0 -220.5 -51t-89.5 -152q0 -153 143.5 -185
t214.5 -46q184 -38 274.5 -98.5t90.5 -212.5q0 -151 -121.5 -220.5t-298.5 -69.5t-295 98.5t-122 276.5h78q8 -140 104 -223.5t234 -83.5q142 0 243 50.5t101 172.5z" />
    <glyph glyph-name="uni021A" unicode="&#x21a;" 
d="M471 -293v191h117v-164q0 -125 -129 -135v41q56 12 63 67h-51zM-29 1384v78h1121v-78h-517v-1384h-90v1384h-514z" />
    <glyph glyph-name="uni021B" unicode="&#x21b;" horiz-adv-x="530" 
d="M274 -293v191h117v-164q0 -125 -129 -135v41q57 13 64 67h-52zM482 -2h-38q-115 0 -182 50.5t-67 180.5v756h-195v68h195v327h77v-327h230v-68h-230v-735q0 -156 71 -170t116 -14l41 2v-68q-14 -2 -18 -2z" />
    <glyph glyph-name="Hcaron" unicode="&#x21e;" horiz-adv-x="1372" 
d="M129 1462h90v-663h934v663h90v-1462h-90v721h-934v-721h-90v1462zM645 1616l-235 287h77l199 -236l201 236h78l-238 -287h-82z" />
    <glyph glyph-name="hcaron" unicode="&#x21f;" 
d="M193 1462v-635h4q39 114 142 182t214 68q112 -1 177 -23q204 -71 216 -326q2 -44 2 -77v-651h-78v666q0 134 -36 200t-96 105t-158 39t-168 -33q-142 -67 -194 -231q-26 -81 -25 -177v-569h-78v1462h78zM489 1616l-235 287h78l198 -236l201 236h78l-238 -287h-82z" />
    <glyph glyph-name="Adot" unicode="&#x226;" horiz-adv-x="1214" 
d="M930 547l-314 827h-4l-325 -827h643zM563 1462h99l577 -1462h-96l-185 469h-700l-186 -469h-97zM561 1616v211h90v-211h-90z" />
    <glyph glyph-name="adot" unicode="&#x227;" horiz-adv-x="1024" 
d="M143 272q0 -117 74 -173t205 -56t209 48q144 89 171 232q11 58 11 78v197q-29 -35 -87 -47t-130 -19l-131 -12q-151 -16 -208 -49q-56 -33 -85 -79t-29 -120zM526 1077q190 0 278 -75t87 -195v-612q0 -62 7 -83q15 -44 63 -44q20 0 57 6v-66q-31 -8 -71 -8
q-109 0 -129 93q-5 28 -5 61v55h-4q-37 -98 -139 -165t-261 -68t-251 72t-92 231t130 236q82 50 257 69l120 10q160 11 205 56q25 24 31 61t6 86q0 209 -293 213q-141 0 -228 -70t-95 -211h-78q16 348 405 348zM496 1231v211h90v-211h-90z" />
    <glyph glyph-name="Ecedilla" unicode="&#x228;" horiz-adv-x="1146" 
d="M129 0v1462h983v-78h-893v-585h840v-78h-840v-643h903v-78h-436l-98 -115l2 -2q35 15 88 15t97 -34t44 -110t-57 -116t-151 -39q-94 0 -181 51l23 49q88 -45 153 -45t101 27q35 27 35 71t-30 68q-62 52 -177 0l-33 26l114 154h-487z" />
    <glyph glyph-name="ecedilla" unicode="&#x229;" 
d="M538 1010q-172 0 -275 -121t-116 -305h771q-9 183 -108 305q-100 121 -272 121zM145 516v-12q0 -193 101 -327t273 -134q171 0 263 83t127 230h78q-35 -184 -151 -282t-306 -99h62l-98 -114l2 -2q36 14 88 14t96 -34q44 -33 45 -109q0 -76 -57 -116t-151 -40t-181 51
l22 49q84 -43 152 -44q67 -1 102 26t35 71q0 45 -30 69q-31 24 -79 24t-98 -25l-32 27l114 153q-216 3 -337 154t-120 388t125 399t344 161q221 0 343 -150t120 -366l-2 -45h-850z" />
    <glyph glyph-name="Odieresismacron" unicode="&#x22a;" horiz-adv-x="1517" 
d="M1364 731q0 293 -166 491q-166 197 -440 197q-275 0 -440 -197q-164 -197 -164 -490t165 -491t441 -198t444 204q160 191 160 484zM760 1497q321 0 508 -217q186 -217 186 -548t-187 -548t-507 -219q-164 -1 -294 59q-259 119 -355 407q-47 140 -48 300q0 160 48 300
q97 288 355 407q130 59 294 59zM551 1651v211h90v-211h-90zM874 1651v211h91v-211h-91zM510 1974v68h496v-68h-496z" />
    <glyph glyph-name="odieresismacron" unicode="&#x22b;" horiz-adv-x="1099" 
d="M143 526q0 -94 27 -181q58 -187 205 -262q76 -40 174 -40q189 0 298 144t108 341t-109 340q-108 142 -297 142q-190 0 -298 -144t-108 -340zM66 524q0 234 128 394q128 159 354 159q227 0 356 -160q128 -160 128 -393t-129 -391t-353 -158q-225 0 -355 158
q-129 157 -129 391zM342 1231v211h90v-211h-90zM666 1231v211h90v-211h-90zM301 1554v68h496v-68h-496z" />
    <glyph glyph-name="Otildemacron" unicode="&#x22c;" horiz-adv-x="1517" 
d="M1364 731q0 293 -166 491q-166 197 -440 197q-275 0 -440 -197q-164 -197 -164 -490t165 -491t441 -198t444 204q160 191 160 484zM760 1497q321 0 508 -217q186 -217 186 -548t-187 -548t-507 -219q-164 -1 -294 59q-259 119 -355 407q-47 140 -48 300q0 160 48 300
q97 288 355 407q130 59 294 59zM1055 1835q-21 -184 -160 -184q-43 0 -108 40q-64 40 -99 58t-73 18q-37 -1 -61 -35t-32 -81h-59q2 33 14 66q42 118 147 118q54 0 146 -58t134 -58q42 -1 65 37t26 79h60zM510 1948v67h496v-67h-496z" />
    <glyph glyph-name="otildemacron" unicode="&#x22d;" horiz-adv-x="1099" 
d="M143 526q0 -94 27 -181q58 -187 205 -262q76 -40 174 -40q189 0 298 144t108 341t-109 340q-108 142 -297 142q-190 0 -298 -144t-108 -340zM66 524q0 234 128 394q128 159 354 159q227 0 356 -160q128 -160 128 -393t-129 -391t-353 -158q-225 0 -355 158
q-129 157 -129 391zM415 1415q54 0 146 -58t134 -58q42 -1 65 37t26 79h60q-14 -125 -89 -168q-28 -16 -65 -16q-38 0 -72 18t-99 58q-177 108 -208 -76h-59q2 33 14 66q42 118 147 118zM301 1528v67h496v-67h-496z" />
    <glyph glyph-name="Odot" unicode="&#x22e;" horiz-adv-x="1517" 
d="M1364 731q0 293 -166 491q-166 197 -440 197q-275 0 -440 -197q-164 -197 -164 -490t165 -491t441 -198t444 204q160 191 160 484zM760 1497q321 0 508 -217q186 -217 186 -548t-187 -548t-507 -219q-164 -1 -294 59q-259 119 -355 407q-47 140 -48 300q0 160 48 300
q97 288 355 407q130 59 294 59zM713 1651v211h90v-211h-90z" />
    <glyph glyph-name="odot" unicode="&#x22f;" horiz-adv-x="1099" 
d="M143 526q0 -94 27 -181q58 -187 205 -262q76 -40 174 -40q189 0 298 144t108 341t-109 340q-108 142 -297 142q-190 0 -298 -144t-108 -340zM66 524q0 234 128 394q128 159 354 159q227 0 356 -160q128 -160 128 -393t-129 -391t-353 -158q-225 0 -355 158
q-129 157 -129 391zM504 1231v211h90v-211h-90z" />
    <glyph glyph-name="Odotmacron" unicode="&#x230;" horiz-adv-x="1517" 
d="M1364 731q0 293 -166 491q-166 197 -440 197q-275 0 -440 -197q-164 -197 -164 -490t165 -491t441 -198t444 204q160 191 160 484zM760 1497q321 0 508 -217q186 -217 186 -548t-187 -548t-507 -219q-164 -1 -294 59q-259 119 -355 407q-47 140 -48 300q0 160 48 300
q97 288 355 407q130 59 294 59zM713 1651v211h90v-211h-90zM510 1974v68h496v-68h-496z" />
    <glyph glyph-name="odotmacron" unicode="&#x231;" horiz-adv-x="1099" 
d="M143 526q0 -94 27 -181q58 -187 205 -262q76 -40 174 -40q189 0 298 144t108 341t-109 340q-108 142 -297 142q-190 0 -298 -144t-108 -340zM66 524q0 234 128 394q128 159 354 159q227 0 356 -160q128 -160 128 -393t-129 -391t-353 -158q-225 0 -355 158
q-129 157 -129 391zM504 1231v211h90v-211h-90zM301 1554v68h496v-68h-496z" />
    <glyph glyph-name="Ymacron" unicode="&#x232;" horiz-adv-x="1175" 
d="M631 0h-90v612l-584 850h102l529 -774l530 774h101l-588 -850v-612zM340 1616v67h496v-67h-496z" />
    <glyph glyph-name="ymacron" unicode="&#x233;" horiz-adv-x="909" 
d="M100 -377v68q84 0 131 13t79 45t57 92t61 165l-440 1047h92l391 -961l360 961h89l-451 -1166q-33 -78 -61 -134t-65 -86q-38 -30 -94 -37t-149 -7zM205 1206v68h495v-68h-495z" />
    <glyph glyph-name="dotlessj" unicode="&#x237;" horiz-adv-x="344" 
d="M-14 -311q79 0 113 42.5t34 162.5v1159h78v-1166q0 -125 -32 -173t-74 -69.5t-88 -21.5h-39q-39 0 -48 2v68q20 -4 56 -4z" />
    <glyph glyph-name="u0259" unicode="&#x259;" 
d="M799.5 164q102.5 121 115.5 305h-770q4 -182 105 -304t274 -122t275.5 121zM918 537v12q0 194 -101 327.5t-273 133.5t-264 -83t-126 -231h-78q35 184 150.5 282.5t305.5 98.5q223 0 344 -150t121 -390t-125 -401t-345 -161t-340.5 148.5t-120.5 368.5l2 45h850z" />
    <glyph glyph-name="commaturnedmod" unicode="&#x2bb;" horiz-adv-x="417" 
d="M223 1204h43v-211h-104v211q0 208 131 258v-67q-70 -30 -70 -191z" />
    <glyph glyph-name="afii57929" unicode="&#x2bc;" horiz-adv-x="417" 
d="M256 1251q0 -96 -22 -143q-40 -88 -109 -115v68q55 24 68 141q2 29 2 49h-43v211h104v-211z" />
    <glyph glyph-name="circumflex" unicode="&#x2c6;" horiz-adv-x="342" 
d="M211 1495l238 -287h-78l-201 236l-199 -236h-77l235 287h82z" />
    <glyph glyph-name="caron" unicode="&#x2c7;" horiz-adv-x="342" 
d="M129 1208l-235 287h77l199 -235l201 235h78l-238 -287h-82z" />
    <glyph glyph-name="uni02C9" unicode="&#x2c9;" horiz-adv-x="342" 
d="M-76 1307v67h496v-67h-496z" />
    <glyph glyph-name="breve" unicode="&#x2d8;" horiz-adv-x="342" 
d="M181 1296q77 0 131.5 49.5t68.5 129.5h68q-12 -101 -89 -173.5t-187 -72.5t-187.5 64.5t-91.5 181.5h67q21 -95 82 -137t138 -42z" />
    <glyph glyph-name="dotaccent" unicode="&#x2d9;" horiz-adv-x="342" 
d="M125 1235v211h90v-211h-90z" />
    <glyph glyph-name="ring" unicode="&#x2da;" horiz-adv-x="342" 
d="M23 1372.5q0 -61.5 43 -104.5t104 -43t104 43t43 104.5t-43 104.5t-104 43t-104 -43t-43 -104.5zM-33 1372q0 86 58.5 144.5t144.5 58.5t144.5 -58.5t58.5 -144.5t-58.5 -144.5t-144.5 -58.5t-144.5 58.5t-58.5 144.5z" />
    <glyph glyph-name="ogonek" unicode="&#x2db;" horiz-adv-x="342" 
d="M12 -262q0 124 209 262h49q-98 -87 -133 -142.5t-35 -100.5q0 -46 26 -68.5t64 -22.5t64.5 15.5t52.5 56.5l47 -17q-51 -123 -176 -122q-168 0 -168 139z" />
    <glyph glyph-name="tilde" unicode="&#x2dc;" horiz-adv-x="342" 
d="M31 1364q-75 0 -97 -117h-59q4 71 47.5 128t112.5 57q39 0 75.5 -18.5t71.5 -40t69.5 -40t70.5 -18.5t58.5 38t27.5 79h59q-14 -124 -65.5 -154.5t-88.5 -30.5t-71.5 18.5t-70.5 40t-70.5 40t-69.5 18.5z" />
    <glyph glyph-name="hungarumlaut" unicode="&#x2dd;" horiz-adv-x="342" 
d="M-115 1208l246 287h105l-275 -287h-76zM209 1208l246 287h104l-274 -287h-76z" />
    <glyph glyph-name="uni02EE" unicode="&#x2ee;" horiz-adv-x="645" 
d="M256 1251q0 -96 -22 -143q-40 -88 -109 -115v68q55 24 68 141q2 29 2 49h-43v211h104v-211zM514 1251q0 -96 -22 -143q-40 -88 -109 -115v68q55 24 68 141q2 29 2 49h-43v211h104v-211z" />
    <glyph glyph-name="gravecmb" unicode="&#x300;" horiz-adv-x="0" 
d="M-68 1208l-274 287h104l246 -287h-76z" />
    <glyph glyph-name="acutecmb" unicode="&#x301;" horiz-adv-x="0" 
d="M-96 1495h104l-274 -287h-76z" />
    <glyph glyph-name="circumflexcmb" unicode="&#x302;" horiz-adv-x="0" 
d="M-25 1495l238 -287h-78l-201 236l-198 -236h-78l236 287h81z" />
    <glyph glyph-name="tildecmb" unicode="&#x303;" horiz-adv-x="0" 
d="M-186 1364q-75 0 -97 -117h-59q4 71 47.5 128t112.5 57q39 0 75.5 -18.5t71.5 -40t69 -40t70 -18.5t59 38t27 79h60q-14 -123 -65.5 -154t-88.5 -31t-71.5 18.5t-70.5 40t-71 40t-69 18.5z" />
    <glyph glyph-name="macroncmb" unicode="&#x304;" horiz-adv-x="0" 
d="M-342 1307v67h496v-67h-496z" />
    <glyph glyph-name="brevecmb" unicode="&#x306;" horiz-adv-x="0" 
d="M-55 1296q78 0 132 49.5t68 129.5h68q-13 -102 -90 -174t-186 -72t-187 64.5t-92 181.5h68q22 -96 81.5 -137.5t137.5 -41.5z" />
    <glyph glyph-name="dotaccentcmb" unicode="&#x307;" horiz-adv-x="0" 
d="M-342 1235v211h90v-211h-90z" />
    <glyph glyph-name="dieresiscmb" unicode="&#x308;" horiz-adv-x="0" 
d="M-342 1235v211h90v-211h-90zM-18 1235v211h90v-211h-90z" />
    <glyph glyph-name="hookabovecmb" unicode="&#x309;" horiz-adv-x="0" 
d="M-657 1434q98 0 146 -40t48 -98t-43 -100.5t-102 -54.5l-2 -41h-62v76q63 4 101.5 35.5t38.5 73.5t-32 67.5t-85 25.5t-74 -6l-6 55q28 7 72 7z" />
    <glyph glyph-name="ringcmb" unicode="&#x30a;" horiz-adv-x="0" 
d="M-287 1372.5q0 -61.5 43 -104.5t104.5 -43t104.5 43t43 104.5t-43 104.5t-104.5 43t-104.5 -43t-43 -104.5zM-342 1372q0 86 58.5 144.5t144.5 58.5t144 -58.5t58 -144.5t-58 -144.5t-144 -58.5t-144.5 58.5t-58.5 144.5z" />
    <glyph glyph-name="hungarumlautcmb" unicode="&#x30b;" horiz-adv-x="0" 
d="M-342 1208l246 287h104l-274 -287h-76zM-18 1208l245 287h105l-275 -287h-75z" />
    <glyph glyph-name="caroncmb" unicode="&#x30c;" horiz-adv-x="0" 
d="M-106 1208l-236 287h78l198 -235l201 235h78l-238 -287h-81z" />
    <glyph glyph-name="doublegravecmb" unicode="&#x30f;" horiz-adv-x="0" 
d="M-391 1208l-275 287h105l246 -287h-76zM-68 1208l-274 287h104l246 -287h-76z" />
    <glyph glyph-name="invertedbrevecmb" unicode="&#x311;" horiz-adv-x="0" 
d="M-270 1407q-118 0 -161.5 -62.5t-55.5 -115.5h-68q14 117 92 181.5t187 64.5t186.5 -72.5t89.5 -173.5h-68q-14 80 -68 129t-134 49z" />
    <glyph glyph-name="u0312" unicode="&#x312;" horiz-adv-x="0" 
d="M4 1204h43v-211h-104v211q0 208 131 258v-67q-36 -16 -53 -71t-17 -120z" />
    <glyph glyph-name="u0313" unicode="&#x313;" horiz-adv-x="0" 
d="M51 1251q0 -205 -131 -258v68q37 16 53.5 71t16.5 119h-43v211h104v-211z" />
    <glyph glyph-name="u0314" unicode="&#x314;" horiz-adv-x="0" 
d="M-59 1251v211h104v-211h-43q0 -95 23.5 -137.5t46.5 -52.5v-68q-131 50 -131 258z" />
    <glyph glyph-name="u0316" unicode="&#x316;" horiz-adv-x="0" 
d="M180 -256h-76l-274 287h104z" />
    <glyph glyph-name="u0317" unicode="&#x317;" horiz-adv-x="0" 
d="M66 31h104l-274 -287h-76z" />
    <glyph glyph-name="u031B" unicode="&#x31b;" horiz-adv-x="0" 
d="M200 1182q60 0 88.5 19.5t50 67t21.5 193.5h93q0 -278 -84 -312t-158 -34t-146.5 57.5t-125.5 155.5l43 19q39 -70 98.5 -118t119.5 -48z" />
    <glyph glyph-name="dotbelowcmb" unicode="&#x323;" horiz-adv-x="0" 
d="M-569 -143h104v-211h-104v211z" />
    <glyph glyph-name="dieresisbelowcmb" unicode="&#x324;" horiz-adv-x="0" 
d="M-342 -354v211h90v-211h-90zM-18 -354v211h90v-211h-90z" />
    <glyph glyph-name="ringbelowcmb" unicode="&#x325;" horiz-adv-x="0" 
d="M-287 -346.5q0 -61.5 43 -104.5t104.5 -43t104.5 43t43 104.5t-43 104.5t-104.5 43t-104.5 -43t-43 -104.5zM-342 -346q0 86 58.5 144.5t144.5 58.5t144 -58.5t58 -144.5t-58 -144.5t-144 -58.5t-144.5 58.5t-58.5 144.5z" />
    <glyph glyph-name="commabelowcmb" unicode="&#x326;" horiz-adv-x="0" 
d="M-543 -143h105v-211q0 -207 -131 -258v67q34 15 51 70q18 55 18 121h-43v211z" />
    <glyph glyph-name="cedillacmb" unicode="&#x327;" horiz-adv-x="0" 
d="M-136 -156q-46 0 -102 -24l-32 26l114 154h70l-98 -115l2 -2q35 15 88 15t97 -34t44 -110t-57.5 -115.5t-151.5 -39.5t-180 51l23 49q88 -45 153 -45t100 26.5t35 70.5t-29.5 68.5t-75.5 24.5z" />
    <glyph glyph-name="ogonekcmb" unicode="&#x328;" horiz-adv-x="0" 
d="M-342 -262q0 126 209 262h49q-100 -89 -134 -142.5t-34 -100.5q0 -46 25.5 -68.5t63.5 -22.5t64.5 15.5t53.5 56.5l47 -17q-51 -123 -176 -122q-168 0 -168 139z" />
    <glyph glyph-name="circumflexbelowcmb" unicode="&#x32d;" horiz-adv-x="0" 
d="M-25 -143l238 -287h-78l-201 235l-198 -235h-78l236 287h81z" />
    <glyph glyph-name="brevebelowcmb" unicode="&#x32e;" horiz-adv-x="0" 
d="M-55 -322q78 0 132 49.5t68 129.5h68q-13 -102 -90 -174t-186 -72t-187 64.5t-92 181.5h68q22 -96 81.5 -137.5t137.5 -41.5z" />
    <glyph glyph-name="tildebelowcmb" unicode="&#x330;" horiz-adv-x="0" 
d="M-186 -211q-75 0 -97 -117h-59q4 71 47.5 128t112.5 57q39 0 75.5 -18.5t71.5 -40t69 -40t70 -18.5t59 38t27 79h60q-14 -123 -65.5 -154t-88.5 -31t-71.5 18.5t-70.5 40t-71 40t-69 18.5z" />
    <glyph glyph-name="macronbelowcmb" unicode="&#x331;" horiz-adv-x="0" 
d="M-342 -211v68h496v-68h-496z" />
    <glyph glyph-name="soliduslongoverlaycmb" unicode="&#x338;" horiz-adv-x="0" 
d="M-53 1497h84l-652 -1532h-84z" />
    <glyph glyph-name="gravetonecmb" unicode="&#x340;" horiz-adv-x="0" 
d="M-68 1208l-274 287h104l246 -287h-76z" />
    <glyph glyph-name="acutetonecmb" unicode="&#x341;" horiz-adv-x="0" 
d="M-96 1495h104l-274 -287h-76z" />
    <glyph glyph-name="dialytikatonoscmb" unicode="&#x344;" horiz-adv-x="0" 
d="M-63 1884h104l-274 -287h-76zM-342 1235v211h90v-211h-90zM-18 1235v211h90v-211h-90z" />
    <glyph glyph-name="combininggraphemejoiner" unicode="&#x34f;" horiz-adv-x="1024" 
 />
    <glyph glyph-name="uni0374" unicode="&#x374;" horiz-adv-x="450" 
d="M186 1161h-67l147 334h99z" />
    <glyph glyph-name="uni0375" unicode="&#x375;" horiz-adv-x="450" 
d="M240 -68h67l-147 -333h-99z" />
    <glyph glyph-name="uni037E" unicode="&#x37e;" horiz-adv-x="569" 
d="M274 0h-43v211h105v-211q0 -208 -131 -258v68q69 30 69 190zM336 1053v-211h-105v211h105z" />
    <glyph glyph-name="tonos" unicode="&#x384;" horiz-adv-x="471" 
d="M299 1495h102l-186 -287h-78z" />
    <glyph glyph-name="dieresistonos" unicode="&#x385;" horiz-adv-x="342" 
d="M-37 1235v211h90v-211h-90zM371 1235v211h90v-211h-90zM250 1495h102l-190 -293h-78z" />
    <glyph glyph-name="Alphatonos" unicode="&#x386;" horiz-adv-x="1234" 
d="M199 1462h102l-186 -286h-78zM950 547l-313 827h-4l-326 -827h643zM584 1462h98l578 -1462h-97l-184 469h-700l-187 -469h-96z" />
    <glyph glyph-name="anoteleia" unicode="&#x387;" horiz-adv-x="569" 
d="M336 1053v-211h-105v211h105z" />
    <glyph glyph-name="Epsilontonos" unicode="&#x388;" horiz-adv-x="1427" 
d="M410 1462h983v-78h-893v-585h839v-78h-839v-643h903v-78h-993v1462zM178 1462h103l-187 -286h-78z" />
    <glyph glyph-name="Etatonos" unicode="&#x389;" horiz-adv-x="1652" 
d="M178 1462h103l-187 -286h-78zM410 1462h90v-663h934v663h90v-1462h-90v721h-934v-721h-90v1462z" />
    <glyph glyph-name="Iotatonos" unicode="&#x38a;" horiz-adv-x="628" 
d="M410 1462h90v-1462h-90v1462zM178 1462h103l-187 -286h-78z" />
    <glyph glyph-name="Omicrontonos" unicode="&#x38c;" horiz-adv-x="1699" 
d="M336 731q0 -141 41 -266t118.5 -218t190.5 -148.5t256 -55.5t255 55.5t189.5 148.5t118.5 218t41 266t-41 266t-118.5 218.5t-189.5 148.5t-255 55t-256 -55t-190.5 -148.5t-118.5 -218.5t-41 -266zM1636 731q0 -160 -47 -300t-136 -243.5t-218 -163t-293 -59.5
t-294 59.5t-219 163t-136 243.5t-47 300t47 300t136 243.5t219 163t294 59.5t293 -59.5t218 -163t136 -243.5t47 -300zM178 1462h103l-187 -286h-78z" />
    <glyph glyph-name="Upsilontonos" unicode="&#x38e;" horiz-adv-x="1574" 
d="M1030 0h-90v612l-584 850h103l528 -774l531 774h100l-588 -850v-612zM178 1462h103l-187 -286h-78z" />
    <glyph glyph-name="Omegatonos" unicode="&#x38f;" horiz-adv-x="1699" 
d="M260 791q0 307 191.5 506.5t488.5 199.5q154 0 280 -56.5t264 -205.5t138 -444q0 -244 -108.5 -419t-284.5 -288v-6h393v-78h-518v80q209 127 317.5 296t108.5 423t-164 437t-425 183t-425 -179t-164 -437t105.5 -427t314.5 -296v-80h-510v78h379v6q-381 245 -381 707z
M178 1462h103l-187 -286h-78z" />
    <glyph glyph-name="iotadieresistonos" unicode="&#x390;" horiz-adv-x="325" 
d="M-33 1235v211h90v-211h-90zM375 1235v211h90v-211h-90zM254 1495h102l-190 -293h-78zM190 182q0 -91 23 -109t46 -18t60 6v-65q-31 -8 -71 -8q-78 0 -105.5 39.5t-27.5 113.5v912h75v-871z" />
    <glyph glyph-name="Alpha" unicode="&#x391;" horiz-adv-x="1214" 
d="M930 547l-314 827h-4l-325 -827h643zM563 1462h99l577 -1462h-96l-185 469h-700l-186 -469h-97z" />
    <glyph glyph-name="Beta" unicode="&#x392;" horiz-adv-x="1296" 
d="M715 78q197 0 308.5 83t111.5 251t-123 238.5t-297 70.5h-496v-643h496zM715 799q186 0 278 83t92 224t-102.5 209.5t-267.5 68.5h-496v-585h496zM129 1462h586q243 0 352 -110t109 -269q0 -121 -81 -208t-204 -103l4 -4q14 2 67.5 -12.5t112 -54t104.5 -110.5t46 -176
q0 -199 -137 -307t-373 -108h-586v1462z" />
    <glyph glyph-name="Gamma" unicode="&#x393;" horiz-adv-x="993" 
d="M129 1462h893v-78h-803v-1384h-90v1462z" />
    <glyph glyph-name="uni0394" unicode="&#x394;" horiz-adv-x="1214" 
d="M102 78h1008l-494 1296h-4zM-25 0l588 1462h99l577 -1462h-1264z" />
    <glyph glyph-name="Epsilon" unicode="&#x395;" horiz-adv-x="1146" 
d="M129 1462h983v-78h-893v-585h840v-78h-840v-643h903v-78h-993v1462z" />
    <glyph glyph-name="Zeta" unicode="&#x396;" horiz-adv-x="1085" 
d="M57 1462h1026v-78l-991 -1306h1010v-78h-1104v78l987 1306h-928v78z" />
    <glyph glyph-name="Eta" unicode="&#x397;" horiz-adv-x="1372" 
d="M129 1462h90v-663h934v663h90v-1462h-90v721h-934v-721h-90v1462z" />
    <glyph glyph-name="Theta" unicode="&#x398;" horiz-adv-x="1492" 
d="M397 778h705v-78h-705v78zM154 731q0 -141 41 -266t118.5 -218t190 -148.5t256 -55.5t255 55.5t189.5 148.5t119 218t41 266t-41 266t-119 218.5t-189.5 148.5t-255 55t-256 -55t-190 -148.5t-118.5 -218.5t-41 -266zM1454 731q0 -160 -47 -300t-136 -243.5t-218 -163
t-293 -59.5t-294 59.5t-219 163t-136.5 243.5t-47.5 300t47.5 300t136.5 243.5t219 163t294 59.5t293 -59.5t218 -163t136 -243.5t47 -300z" />
    <glyph glyph-name="Iota" unicode="&#x399;" horiz-adv-x="348" 
d="M129 1462h90v-1462h-90v1462z" />
    <glyph glyph-name="Kappa" unicode="&#x39a;" horiz-adv-x="1259" 
d="M129 1462h90v-841l920 841h116l-667 -608l708 -854h-112l-662 793l-303 -277v-516h-90v1462z" />
    <glyph glyph-name="Lambda" unicode="&#x39b;" horiz-adv-x="1210" 
d="M616 1374h-4l-528 -1374h-96l575 1462h99l565 -1462h-97z" />
    <glyph glyph-name="Mu" unicode="&#x39c;" horiz-adv-x="1640" 
d="M129 1462h129l571 -1362h5l565 1362h129v-1462h-90v1352h-4l-557 -1352h-91l-563 1352h-4v-1352h-90v1462z" />
    <glyph glyph-name="Nu" unicode="&#x39d;" horiz-adv-x="1372" 
d="M129 1462h113l923 -1341h4v1341h91v-1462h-107l-930 1352h-4v-1352h-90v1462z" />
    <glyph glyph-name="Xi" unicode="&#x39e;" horiz-adv-x="1130" 
d="M98 78h944v-78h-944v78zM188 797h764v-78h-764v78zM119 1462h903v-78h-903v78z" />
    <glyph glyph-name="Omicron" unicode="&#x39f;" horiz-adv-x="1517" 
d="M154 731q0 -141 41 -266t118.5 -218t190 -148.5t256 -55.5t255 55.5t189.5 148.5t119 218t41 266t-41 266t-119 218.5t-189.5 148.5t-255 55t-256 -55t-190 -148.5t-118.5 -218.5t-41 -266zM1454 731q0 -160 -47 -300t-136 -243.5t-218 -163t-293 -59.5t-294 59.5
t-219 163t-136.5 243.5t-47.5 300t47.5 300t136.5 243.5t219 163t294 59.5t293 -59.5t218 -163t136 -243.5t47 -300z" />
    <glyph glyph-name="Pi" unicode="&#x3a0;" horiz-adv-x="1339" 
d="M131 1462h1090v-1462h-93v1384h-907v-1384h-90v1462z" />
    <glyph glyph-name="Rho" unicode="&#x3a1;" horiz-adv-x="1220" 
d="M219 729h514q185 0 269.5 98t84.5 228q0 206 -115.5 267.5t-226.5 61.5h-526v-655zM129 1462h623q278 0 352 -139t74 -270q0 -193 -119 -297.5t-340 -104.5h-500v-651h-90v1462z" />
    <glyph glyph-name="Sigma" unicode="&#x3a3;" horiz-adv-x="1167" 
d="M98 0v78l576 684l-553 622v78h966v-78h-864l555 -620l-581 -686h925v-78h-1024z" />
    <glyph glyph-name="Tau" unicode="&#x3a4;" horiz-adv-x="1069" 
d="M-29 1384v78h1121v-78h-517v-1384h-90v1384h-514z" />
    <glyph glyph-name="Upsilon" unicode="&#x3a5;" horiz-adv-x="1175" 
d="M631 0h-90v612l-584 850h102l529 -774l530 774h101l-588 -850v-612z" />
    <glyph glyph-name="Phi" unicode="&#x3a6;" horiz-adv-x="1499" 
d="M307.5 379q149.5 -131 394.5 -139v1056q-244 -8 -394 -156t-150 -389t149.5 -372zM1194.5 1145.5q-148.5 142.5 -399.5 150.5v-1056q245 8 396.5 145t151.5 377.5t-148.5 383zM795 1524v-148q282 -8 460.5 -171.5t178.5 -439.5t-178 -434.5t-461 -170.5v-160h-93v160
q-292 12 -463 166t-171 427t177.5 444t456.5 179v148h93z" />
    <glyph glyph-name="Chi" unicode="&#x3a7;" horiz-adv-x="1110" 
d="M2 1462h104l463 -643l473 643h103l-516 -710l545 -752h-109l-496 684l-497 -684h-107l549 752z" />
    <glyph glyph-name="Psi" unicode="&#x3a8;" horiz-adv-x="1566" 
d="M825 410q265 0 404 117t139 378v557h90v-555q0 -293 -154.5 -432t-478.5 -145v-330h-90v330q-330 2 -479.5 143t-149.5 434v555h91v-557q0 -266 134 -380.5t404 -114.5v1052h90v-1052z" />
    <glyph glyph-name="uni03A9" unicode="&#x3a9;" horiz-adv-x="1517" 
d="M78 791q0 306 190.5 506t489.5 200q154 0 279.5 -56.5t264 -206t138.5 -443.5q0 -244 -108.5 -419t-284.5 -288v-6h393v-78h-518v80q209 127 317.5 296t108.5 423t-164 437t-425 183t-425 -179t-164 -437t105.5 -427t314.5 -296v-80h-510v78h379v6q-381 245 -381 707z
" />
    <glyph glyph-name="Iotadieresis" unicode="&#x3aa;" horiz-adv-x="348" 
d="M129 1462h90v-1462h-90v1462zM-33 1624v211h90v-211h-90zM291 1624v211h90v-211h-90z" />
    <glyph glyph-name="Upsilondieresis" unicode="&#x3ab;" horiz-adv-x="1175" 
d="M631 0h-90v612l-584 850h102l529 -774l530 774h101l-588 -850v-612zM383 1624v211h90v-211h-90zM707 1624v211h90v-211h-90z" />
    <glyph glyph-name="alphatonos" unicode="&#x3ac;" horiz-adv-x="1110" 
d="M635 1495h102l-186 -287h-78zM232 187.5q97 -144.5 283 -144.5t284 143.5t98 350.5q0 208 -109 340.5t-272 132.5q-191 0 -286 -144t-95 -339t97 -339.5zM899 225h-4q-89 -184 -208.5 -217t-166.5 -33q-232 0 -347.5 156.5t-115.5 396.5t120.5 394.5t338.5 154.5
q185 0 269.5 -94t109.5 -166h4v236h78v-871q0 -61 10.5 -94t59.5 -33q20 0 57 6v-65q-31 -8 -71 -8q-78 0 -106 39.5t-28 113.5v84z" />
    <glyph glyph-name="epsilontonos" unicode="&#x3ad;" horiz-adv-x="948" 
d="M592 1495h102l-186 -287h-78zM59 289q0 92 64.5 162.5t187.5 87.5v4q-109 15 -163 89t-54 155q0 146 109 218t264 72t251.5 -57t127.5 -193h-76q-23 86 -89.5 134.5t-201.5 48.5q-214 0 -260.5 -77t-46.5 -135q0 -109 71.5 -167t174.5 -58h141v-67h-137
q-129 0 -207 -57.5t-78 -171.5t89.5 -174t234.5 -60t236 51.5t124 188.5h76q-69 -308 -432 -308q-281 0 -343.5 111t-62.5 203z" />
    <glyph glyph-name="etatonos" unicode="&#x3ae;" 
d="M651 1495h103l-187 -287h-78zM115 1053h78v-226h4q39 115 143 182.5t214 67.5q111 0 176 -22.5t123 -75t76.5 -139.5t18.5 -189v-1028h-78v1043q0 135 -35.5 200.5t-96 104.5t-158.5 39q-182 0 -284.5 -122t-102.5 -319v-569h-78v1053z" />
    <glyph glyph-name="iotatonos" unicode="&#x3af;" horiz-adv-x="325" 
d="M190 182q0 -91 23 -109t46 -18t60 6v-65q-31 -8 -71 -8q-78 0 -105.5 39.5t-27.5 113.5v912h75v-871zM274 1495h103l-187 -287h-77z" />
    <glyph glyph-name="upsilondieresistonos" unicode="&#x3b0;" horiz-adv-x="1032" 
d="M254 1235v211h90v-211h-90zM662 1235v211h90v-211h-90zM541 1495h102l-190 -293h-78zM967 567q0 -426 -166 -509t-281 -83q-195 0 -291 88.5t-96 290.5v699h78v-672q-4 -199 76 -268.5t244 -69.5q163 0 260.5 129t97.5 390t-105 491h78q105 -220 105 -486z" />
    <glyph glyph-name="alpha" unicode="&#x3b1;" horiz-adv-x="1110" 
d="M232 187.5q97 -144.5 283 -144.5t284 143.5t98 350.5q0 208 -109 340.5t-272 132.5q-191 0 -286 -144t-95 -339t97 -339.5zM899 225h-4q-89 -184 -208.5 -217t-166.5 -33q-232 0 -347.5 156.5t-115.5 396.5t120.5 394.5t338.5 154.5q185 0 269.5 -94t109.5 -166h4v236h78
v-871q0 -61 10.5 -94t59.5 -33q20 0 57 6v-65q-31 -8 -71 -8q-78 0 -106 39.5t-28 113.5v84z" />
    <glyph glyph-name="beta" unicode="&#x3b2;" horiz-adv-x="1095" 
d="M211 528q0 -485 403 -485q230 0 283 130.5t53 238.5q0 195 -86.5 273.5t-257.5 78.5h-100v67h65q123 0 199 78.5t76 220.5t-88 211.5t-226 69.5q-321 0 -321 -393v-490zM211 219v-596h-78v1413q0 217 101.5 330t296.5 113t294 -98.5t99 -232.5t-57.5 -223t-127.5 -106v-6
q145 -19 217 -124.5t72 -246.5q0 -245 -121.5 -356t-292.5 -111q-313 0 -399 244h-4z" />
    <glyph glyph-name="gamma" unicode="&#x3b3;" horiz-adv-x="792" 
d="M410 -377h-78v223q0 239 -106 597.5t-230 609.5h90q140 -267 217.5 -572t87.5 -399h6q221 422 314 971h86q-89 -570 -387 -1108v-322z" />
    <glyph glyph-name="delta" unicode="&#x3b4;" horiz-adv-x="1054" 
d="M139 508q0 -222 111 -344.5t289 -122.5t277 126t99 337q0 150 -85 265.5t-271 207.5q-420 -91 -420 -469zM850 1360q-127 51 -290 51t-206 -55.5t-43 -89.5q0 -60 53.5 -103.5t181.5 -106.5t198.5 -111t159.5 -151.5t89 -308.5t-114.5 -357.5t-338.5 -152.5t-351.5 147
t-127.5 386q0 186 110 317t329 185q-212 92 -239.5 155.5t-27.5 95.5q0 81 81 149.5t251 68.5t285 -52v-67z" />
    <glyph glyph-name="epsilon" unicode="&#x3b5;" horiz-adv-x="948" 
d="M59 289q0 92 64.5 162.5t187.5 87.5v4q-109 15 -163 89t-54 155q0 146 109 218t264 72t251.5 -57t127.5 -193h-76q-23 86 -89.5 134.5t-201.5 48.5q-214 0 -260.5 -77t-46.5 -135q0 -109 71.5 -167t174.5 -58h141v-67h-137q-129 0 -207 -57.5t-78 -171.5t89.5 -174
t234.5 -60t236 51.5t124 188.5h76q-69 -308 -432 -308q-281 0 -343.5 111t-62.5 203z" />
    <glyph glyph-name="zeta" unicode="&#x3b6;" horiz-adv-x="837" 
d="M575 68q121 0 173.5 -53.5t52.5 -168.5q0 -68 -15 -122h-71q12 62 12 124t-29.5 107t-124.5 45h-63q-215 0 -329.5 142.5t-114.5 402.5t176.5 494.5t449.5 355.5h-530v67h655v-69q-334 -147 -505 -372.5t-171 -483.5q17 -469 385 -469h49z" />
    <glyph glyph-name="eta" unicode="&#x3b7;" 
d="M115 1053h78v-226h4q39 115 143 182.5t214 67.5q111 0 176 -22.5t123 -75t76.5 -139.5t18.5 -189v-1028h-78v1043q0 135 -35.5 200.5t-96 104.5t-158.5 39q-182 0 -284.5 -122t-102.5 -319v-569h-78v1053z" />
    <glyph glyph-name="theta" unicode="&#x3b8;" horiz-adv-x="987" 
d="M848 709h-709q4 -355 86.5 -510.5t270.5 -155.5t270 158.5t82 507.5zM848 776q0 324 -82 479.5t-272.5 155.5t-270.5 -159.5t-82 -475.5h707zM495 1479q126 0 208.5 -51.5t132 -148.5t70 -237.5t20.5 -415.5t-98 -463t-334 -188q-348 0 -390.5 289t-42.5 461t20.5 311.5
t71 237.5t133.5 151.5t209 53.5z" />
    <glyph glyph-name="iota" unicode="&#x3b9;" horiz-adv-x="325" 
d="M190 182q0 -91 23 -109t46 -18t60 6v-65q-31 -8 -71 -8q-78 0 -105.5 39.5t-27.5 113.5v912h75v-871z" />
    <glyph glyph-name="kappa" unicode="&#x3ba;" horiz-adv-x="954" 
d="M119 1053h78v-576l649 576h112l-460 -410l493 -643h-106l-449 584l-239 -203v-381h-78v1053z" />
    <glyph glyph-name="lambda" unicode="&#x3bb;" horiz-adv-x="983" 
d="M235 1409q-66 0 -98 -14v67q49 16 99 17q100 0 158.5 -65.5t109.5 -213.5l330 -1026q20 -72 40.5 -96.5t53.5 -24.5t53 4v-63q-27 -6 -67 -6t-78.5 27.5t-69.5 123.5l-254 807l-387 -946h-84l438 1030q-23 59 -41 119.5t-41 118.5t-59.5 99.5t-102.5 41.5z" />
    <glyph glyph-name="uni03BC" unicode="&#x3bc;" horiz-adv-x="1081" 
d="M508 -25q-204 0 -297 140v-492h-78v1430h78v-666q0 -136 36 -201t95.5 -104t157.5 -39q183 0 286 121t103 319v570h78v-1053h-78v225h-4q-38 -112 -142.5 -181t-234.5 -69z" />
    <glyph glyph-name="nu" unicode="&#x3bd;" horiz-adv-x="884" 
d="M889 1053q-90 -482 -391 -1053h-84q-104 264 -210 526t-208 527h90l373 -963h4q250 485 338 963h88z" />
    <glyph glyph-name="xi" unicode="&#x3be;" horiz-adv-x="825" 
d="M190 1085q0 -292 392 -292h151v-68h-160q-213 0 -322.5 -76.5t-109.5 -243.5q0 -337 422 -337h12q121 0 173.5 -53.5t52.5 -168.5q0 -68 -15 -122h-71q12 62 12 124t-29.5 107t-124.5 45h-57q-211 0 -330.5 109t-119.5 290q0 298 284 351v6q-119 34 -177 125.5t-58 194.5
q0 195 117.5 299t306.5 104q134 0 266 -47v-70q-129 49 -281 49t-243 -88t-91 -238z" />
    <glyph glyph-name="omicron" unicode="&#x3bf;" horiz-adv-x="1097" 
d="M143 526.5q0 -94.5 27 -181.5t78 -154.5t127 -107.5t174 -40t174 40t127 107.5t77.5 154.5t26.5 181.5t-26.5 181.5t-77.5 154.5t-127 107.5t-174 40t-174 -40t-127 -107.5t-78 -154.5t-27 -181.5zM66 526.5q0 112.5 31.5 212t93 175t151.5 119.5t207 44t207 -44
t151.5 -119.5t93 -175t31.5 -212t-31.5 -213t-93 -175.5t-151.5 -119t-207 -44t-207 44t-151.5 119t-93 175.5t-31.5 213z" />
    <glyph glyph-name="pi" unicode="&#x3c0;" horiz-adv-x="1146" 
d="M997 55q36 0 80 8v-65q-47 -10 -109 -10q-126 0 -126 149v848h-566v-985h-77v985h-174v68h1081v-68h-186v-844q0 -86 77 -86z" />
    <glyph glyph-name="rho" unicode="&#x3c1;" horiz-adv-x="1107" 
d="M854.5 874q-103.5 136 -284.5 136t-278 -133t-97 -358q0 -224 96 -350t276 -126t285.5 130.5t105.5 347.5t-103.5 353zM115 526q0 253 120.5 402t338.5 149t340 -157.5t122 -399.5t-118 -393.5t-338 -151.5q-112 0 -181 32t-119.5 80t-82.5 132h-4v-596h-78v903z" />
    <glyph glyph-name="sigma1" unicode="&#x3c2;" horiz-adv-x="927" 
d="M606 68q123 0 174 -53.5t51 -168.5q0 -68 -14 -122h-72q31 159 -8 217.5t-133 58.5h-74q-217 0 -340.5 144.5t-123.5 392.5q0 372 176 456t301 84t229.5 -57t149.5 -195h-76q-47 104 -127 144.5t-227.5 40.5t-249 -130t-101.5 -352t109.5 -341t290.5 -119h65z" />
    <glyph glyph-name="sigma" unicode="&#x3c3;" horiz-adv-x="1112" 
d="M938 528q0 264 -215 457h-125q-203 0 -329 -117.5t-126 -346.5t115.5 -353.5t288.5 -124.5q174 0 282.5 138t108.5 347zM206.5 910.5q140.5 142.5 383.5 142.5h506v-70h-295q117 -98 165 -221.5t48 -229.5t-29 -205.5t-87 -177t-147 -126t-208 -48.5t-208 44t-179 155.5
t-90 352.5t140.5 383.5z" />
    <glyph glyph-name="tau" unicode="&#x3c4;" horiz-adv-x="858" 
d="M520 -12q-137 0 -137 143v854h-367v68h826v-68h-381v-852q0 -78 78 -78q48 0 82 8v-67q-36 -8 -101 -8z" />
    <glyph glyph-name="upsilon" unicode="&#x3c5;" horiz-adv-x="1032" 
d="M967 567q0 -426 -166 -509t-281 -83q-195 0 -291 88.5t-96 290.5v699h78v-672q-4 -199 76 -268.5t244 -69.5q163 0 260.5 129t97.5 390t-105 491h78q105 -220 105 -486z" />
    <glyph glyph-name="phi" unicode="&#x3c6;" horiz-adv-x="1425" 
d="M670 1010q-233 0 -380 -125.5t-147 -360.5t153.5 -360t373.5 -121v967zM748 45q359 0 446.5 181.5t87.5 304.5q0 228 -151 353.5t-383 125.5v-965zM1187.5 122q-172.5 -143 -435.5 -147v-352h-82v352q-421 7 -512.5 210t-91.5 341q0 260 166 403.5t438 147.5v244h78v-244
q274 -4 443 -146t169 -404t-172.5 -405z" />
    <glyph glyph-name="chi" unicode="&#x3c7;" horiz-adv-x="880" 
d="M905 -377h-98l-373 688l-362 -688h-97l414 764l-379 666h99l325 -590l338 590h98l-387 -662z" />
    <glyph glyph-name="psi" unicode="&#x3c8;" horiz-adv-x="1300" 
d="M1235 567q0 -275 -147 -431.5t-388 -160.5v-352h-77v352q-252 15 -371 152t-119 367v559h76v-551q0 -430 414 -457v1274h77v-1274q205 4 331 137.5t126 385.5t-104 485h75q79 -150 93 -291t14 -195z" />
    <glyph glyph-name="omega" unicode="&#x3c9;" horiz-adv-x="1404" 
d="M1180 1053q159 -245 159 -547q0 -242 -89 -386.5t-259 -144.5q-109 0 -183.5 61.5t-102.5 178.5h-7q-29 -117 -102.5 -178.5t-171.5 -61.5q-180 0 -269 145t-89 369q0 143 33.5 282.5t125.5 281.5h78q-162 -257 -162 -564t101.5 -376.5t171.5 -69.5q106 0 178 78t72 231
v443h75v-443q0 -146 73 -227.5t179 -81.5q132 0 202.5 122.5t70.5 323.5q0 305 -162 564h78z" />
    <glyph glyph-name="iotadieresis" unicode="&#x3ca;" horiz-adv-x="325" 
d="M-49 1235v211h90v-211h-90zM274 1235v211h91v-211h-91zM190 182q0 -91 23 -109t46 -18t60 6v-65q-31 -8 -71 -8q-78 0 -105.5 39.5t-27.5 113.5v912h75v-871z" />
    <glyph glyph-name="upsilondieresis" unicode="&#x3cb;" horiz-adv-x="1032" 
d="M299 1235v211h90v-211h-90zM623 1235v211h90v-211h-90zM967 567q0 -426 -166 -509t-281 -83q-195 0 -291 88.5t-96 290.5v699h78v-672q-4 -199 76 -268.5t244 -69.5q163 0 260.5 129t97.5 390t-105 491h78q105 -220 105 -486z" />
    <glyph glyph-name="omicrontonos" unicode="&#x3cc;" horiz-adv-x="1097" 
d="M143 526.5q0 -94.5 27 -181.5t78 -154.5t127 -107.5t174 -40t174 40t127 107.5t77.5 154.5t26.5 181.5t-26.5 181.5t-77.5 154.5t-127 107.5t-174 40t-174 -40t-127 -107.5t-78 -154.5t-27 -181.5zM66 526.5q0 112.5 31.5 212t93 175t151.5 119.5t207 44t207 -44
t151.5 -119.5t93 -175t31.5 -212t-31.5 -213t-93 -175.5t-151.5 -119t-207 -44t-207 44t-151.5 119t-93 175.5t-31.5 213zM659 1495h103l-187 -287h-77z" />
    <glyph glyph-name="upsilontonos" unicode="&#x3cd;" horiz-adv-x="1032" 
d="M608 1495h103l-187 -287h-78zM967 567q0 -426 -166 -509t-281 -83q-195 0 -291 88.5t-96 290.5v699h78v-672q-4 -199 76 -268.5t244 -69.5q163 0 260.5 129t97.5 390t-105 491h78q105 -220 105 -486z" />
    <glyph glyph-name="omegatonos" unicode="&#x3ce;" horiz-adv-x="1404" 
d="M813 1495h102l-186 -287h-78zM1180 1053q159 -245 159 -547q0 -242 -89 -386.5t-259 -144.5q-109 0 -183.5 61.5t-102.5 178.5h-7q-29 -117 -102.5 -178.5t-171.5 -61.5q-180 0 -269 145t-89 369q0 143 33.5 282.5t125.5 281.5h78q-162 -257 -162 -564t101.5 -376.5
t171.5 -69.5q106 0 178 78t72 231v443h75v-443q0 -146 73 -227.5t179 -81.5q132 0 202.5 122.5t70.5 323.5q0 305 -162 564h78z" />
    <glyph glyph-name="uni0400" unicode="&#x400;" horiz-adv-x="1146" 
d="M610 1597l-274 287h104l246 -287h-76zM129 1462h983v-78h-893v-585h840v-78h-840v-643h903v-78h-993v1462z" />
    <glyph glyph-name="afii10023" unicode="&#x401;" horiz-adv-x="1146" 
d="M403 1624v211h91v-211h-91zM727 1624v211h90v-211h-90zM129 1462h983v-78h-893v-585h840v-78h-840v-643h903v-78h-993v1462z" />
    <glyph glyph-name="afii10051" unicode="&#x402;" horiz-adv-x="1462" 
d="M1265.5 -74q-135.5 -162 -360.5 -166v76q196 8 302 143t106 353t-103 346.5t-281 128.5q-177 0 -282.5 -127t-105.5 -348v-332h-90v1384h-480v78h1121v-78h-551v-761h4q51 127 153 194.5t226 67.5t209.5 -40t176.5 -150.5t91 -358.5t-135.5 -410z" />
    <glyph glyph-name="afii10052" unicode="&#x403;" horiz-adv-x="993" 
d="M672 1884h104l-274 -287h-76zM129 1462h893v-78h-803v-1384h-90v1462z" />
    <glyph glyph-name="afii10053" unicode="&#x404;" horiz-adv-x="1441" 
d="M254.5 172.5q-180.5 207.5 -180.5 558.5t184 558.5t498 207.5q250 0 410.5 -122t197.5 -339h-90q-31 182 -172 282.5t-352 100.5q-255 0 -410.5 -165.5t-175.5 -454.5h768v-78h-770q0 -305 158 -491.5t410 -186.5t400 146t168 370h88q-20 -258 -194.5 -426t-465.5 -168
t-471.5 207.5z" />
    <glyph glyph-name="afii10054" unicode="&#x405;" horiz-adv-x="1290" 
d="M634 1419q-175 0 -298 -73t-123 -234t112.5 -215.5t202.5 -75.5t184 -39q234 -46 366 -128.5t132 -282.5t-156 -303t-358 -103q-434 0 -526 188.5t-90 329.5h90q-11 -222 137 -331t389 -109q162 0 293 81.5t131 250.5q0 168 -126 231.5t-295 96.5q-170 34 -260.5 58.5
t-160 66.5t-112.5 109t-43 217.5t147.5 246.5t343.5 96q379 0 466 -166t94 -287h-91q-8 183 -103 255.5t-180 96t-166 23.5z" />
    <glyph glyph-name="afii10055" unicode="&#x406;" horiz-adv-x="348" 
d="M129 1462h90v-1462h-90v1462z" />
    <glyph glyph-name="afii10056" unicode="&#x407;" horiz-adv-x="348" 
d="M129 1462h90v-1462h-90v1462zM-33 1624v211h90v-211h-90zM291 1624v211h90v-211h-90z" />
    <glyph glyph-name="afii10057" unicode="&#x408;" horiz-adv-x="985" 
d="M766 485v977h90v-1007q0 -141 -37 -315.5t-346 -174.5q-165 0 -249.5 47t-124.5 121t-49 162t-9 170h90q-14 -192 51.5 -307t269.5 -115q212 0 260 104.5t51 183.5t3 154z" />
    <glyph glyph-name="afii10058" unicode="&#x409;" horiz-adv-x="2082" 
d="M1569 78q168 0 265 87t97 246.5t-96 245.5t-264 86h-416v-665h414zM142 -20q-69 0 -138 24v82q58 -29 116 -29q118 0 168 94.5t58 327.5l35 983h774v-641h428q205 0 321.5 -106.5t116.5 -299.5t-119.5 -304t-324.5 -111h-512v1384h-596l-33 -919q-12 -380 -118.5 -432.5
t-175.5 -52.5z" />
    <glyph glyph-name="afii10059" unicode="&#x40a;" horiz-adv-x="2082" 
d="M1569 78q168 0 265 87t97 246.5t-96 245.5t-264 86h-436v-665h434zM1135 821h448q205 0 321.5 -106.5t116.5 -299.5t-119.5 -304t-324.5 -111h-533v743h-825v-743h-90v1462h90v-641h825v641h91v-641z" />
    <glyph glyph-name="afii10060" unicode="&#x40b;" horiz-adv-x="1470" 
d="M541 0h-90v1384h-480v78h1121v-78h-551v-618q72 47 175 83t218 36q218 0 320 -113t102 -309v-463h-90v449q0 168 -78 263t-266 95q-94 0 -199 -35t-182 -92v-680z" />
    <glyph glyph-name="afii10061" unicode="&#x40c;" horiz-adv-x="1255" 
d="M129 1462h90v-841l920 841h116l-667 -608l708 -854h-112l-662 793l-303 -277v-516h-90v1462zM782 1884h105l-275 -287h-75z" />
    <glyph glyph-name="uni040D" unicode="&#x40d;" horiz-adv-x="1372" 
d="M688 1597l-274 287h104l246 -287h-76zM1153 1350h-6l-907 -1350h-111v1462h90v-1349h6l905 1349h113v-1462h-90v1350z" />
    <glyph glyph-name="afii10062" unicode="&#x40e;" horiz-adv-x="1138" 
d="M590 1686q78 0 132 49t69 129h67q-13 -102 -90 -174t-186 -72t-187 64.5t-92 181.5h68q40 -178 219 -178zM315 -35q-92 0 -155 45v88q68 -55 142 -55t114.5 33t68.5 96l60 131l-570 1159h99l514 -1065l487 1065h94l-622 -1335q-76 -162 -232 -162z" />
    <glyph glyph-name="afii10145" unicode="&#x40f;" horiz-adv-x="1372" 
d="M129 0v1462h90v-1384h934v1384h90v-1462h-514v-377h-88v377h-512z" />
    <glyph glyph-name="afii10017" unicode="&#x410;" horiz-adv-x="1214" 
d="M930 547l-314 827h-4l-325 -827h643zM563 1462h99l577 -1462h-96l-185 469h-700l-186 -469h-97z" />
    <glyph glyph-name="afii10018" unicode="&#x411;" horiz-adv-x="1290" 
d="M772 78q168 0 265.5 87t97.5 246.5t-96.5 245.5t-264.5 86h-555v-665h553zM219 1384v-563h567q205 0 322 -106.5t117 -298.5t-119.5 -304t-325.5 -112h-651v1462h999v-78h-909z" />
    <glyph glyph-name="afii10019" unicode="&#x412;" horiz-adv-x="1290" 
d="M715 78q197 0 308.5 83t111.5 251t-123 238.5t-297 70.5h-496v-643h496zM715 799q186 0 278 83t92 224t-102.5 209.5t-267.5 68.5h-496v-585h496zM129 1462h586q243 0 352 -110t109 -269q0 -121 -81 -208t-204 -103l4 -4q14 2 67.5 -12.5t112 -54t104.5 -110.5t46 -176
q0 -199 -137 -307t-373 -108h-586v1462z" />
    <glyph glyph-name="afii10020" unicode="&#x413;" horiz-adv-x="993" 
d="M129 1462h893v-78h-803v-1384h-90v1462z" />
    <glyph glyph-name="afii10021" unicode="&#x414;" horiz-adv-x="1372" 
d="M1122 1384h-645v-139q0 -340 -41 -630t-170 -537h856v1306zM1272 -377v377h-1145v-377h-88v455h129q195 358 207 708.5t12 473.5v202h825v-1384h148v-455h-88z" />
    <glyph glyph-name="afii10022" unicode="&#x415;" horiz-adv-x="1146" 
d="M129 1462h983v-78h-893v-585h840v-78h-840v-643h903v-78h-993v1462z" />
    <glyph glyph-name="afii10024" unicode="&#x416;" horiz-adv-x="2007" 
d="M958 1462h91v-768l835 768h117l-625 -573l666 -889h-111l-620 829l-262 -239v-590h-91v588l-264 241l-620 -829h-109l666 887l-625 575h121l831 -766v766z" />
    <glyph glyph-name="afii10025" unicode="&#x417;" horiz-adv-x="1277" 
d="M70 483h90q4 -227 135 -333.5t340 -106.5t340 96.5t131 270.5q0 311 -432 311h-56q-57 0 -90 -2v80q33 -2 41 -2h105q273 0 337 110.5t64 193.5q0 160 -114 239t-295 79q-312 0 -383.5 -136t-77.5 -236h-90q15 224 162.5 337t378.5 113q230 0 369.5 -100.5t139.5 -290.5
q0 -150 -89.5 -235.5t-213.5 -102.5v-4q334 -53 334 -358q0 -210 -157 -325.5t-398 -115.5q-260 0 -415.5 131t-155.5 387z" />
    <glyph glyph-name="afii10026" unicode="&#x418;" horiz-adv-x="1372" 
d="M1153 1350h-6l-907 -1350h-111v1462h90v-1349h6l905 1349h113v-1462h-90v1350z" />
    <glyph glyph-name="afii10027" unicode="&#x419;" horiz-adv-x="1372" 
d="M691 1618q-110 0 -187.5 64.5t-91.5 181.5h67q21 -95 81 -136.5t138 -41.5t132.5 49t68.5 129h68q-12 -101 -89 -173.5t-187 -72.5zM1153 1350h-6l-907 -1350h-111v1462h90v-1349h6l905 1349h113v-1462h-90v1350z" />
    <glyph glyph-name="afii10028" unicode="&#x41a;" horiz-adv-x="1255" 
d="M129 1462h90v-841l920 841h116l-667 -608l708 -854h-112l-662 793l-303 -277v-516h-90v1462z" />
    <glyph glyph-name="afii10029" unicode="&#x41b;" horiz-adv-x="1335" 
d="M142 -20q-69 0 -138 24v82q58 -29 116 -29q118 0 168 94.5t58 327.5l35 983h825v-1462h-90v1384h-647l-33 -919q-12 -380 -118.5 -432.5t-175.5 -52.5z" />
    <glyph glyph-name="afii10030" unicode="&#x41c;" horiz-adv-x="1656" 
d="M129 1462h129l571 -1362h5l565 1362h129v-1462h-90v1352h-4l-557 -1352h-91l-563 1352h-4v-1352h-90v1462z" />
    <glyph glyph-name="afii10031" unicode="&#x41d;" horiz-adv-x="1372" 
d="M129 1462h90v-663h934v663h90v-1462h-90v721h-934v-721h-90v1462z" />
    <glyph glyph-name="afii10032" unicode="&#x41e;" horiz-adv-x="1517" 
d="M154 731q0 -141 41 -266t118.5 -218t190 -148.5t256 -55.5t255 55.5t189.5 148.5t119 218t41 266t-41 266t-119 218.5t-189.5 148.5t-255 55t-256 -55t-190 -148.5t-118.5 -218.5t-41 -266zM1454 731q0 -160 -47 -300t-136 -243.5t-218 -163t-293 -59.5t-294 59.5
t-219 163t-136.5 243.5t-47.5 300t47.5 300t136.5 243.5t219 163t294 59.5t293 -59.5t218 -163t136 -243.5t47 -300z" />
    <glyph glyph-name="afii10033" unicode="&#x41f;" horiz-adv-x="1372" 
d="M1243 0h-90v1384h-934v-1384h-90v1462h1114v-1462z" />
    <glyph glyph-name="afii10034" unicode="&#x420;" horiz-adv-x="1210" 
d="M219 729h514q185 0 269.5 98t84.5 228q0 206 -115.5 267.5t-226.5 61.5h-526v-655zM129 1462h623q278 0 352 -139t74 -270q0 -193 -119 -297.5t-340 -104.5h-500v-651h-90v1462z" />
    <glyph glyph-name="afii10035" unicode="&#x421;" horiz-adv-x="1441" 
d="M74 731q0 331 187 548.5t509 217.5q231 0 362.5 -102t178.5 -216t47 -153h-90q-27 179 -168.5 286t-329.5 107q-278 0 -442 -198t-164 -490.5t118.5 -434.5t232 -197.5t237.5 -55.5q227 0 377.5 157t162.5 369h90q-24 -260 -196 -432t-416 -172q-322 0 -509 217.5
t-187 548.5z" />
    <glyph glyph-name="afii10036" unicode="&#x422;" 
d="M-29 1384v78h1121v-78h-517v-1384h-90v1384h-514z" />
    <glyph glyph-name="afii10037" unicode="&#x423;" horiz-adv-x="1138" 
d="M315 -35q-92 0 -155 45v88q68 -55 142 -55t114.5 33t68.5 96l60 131l-570 1159h99l514 -1065l487 1065h94l-622 -1335q-76 -162 -232 -162z" />
    <glyph glyph-name="afii10038" unicode="&#x424;" horiz-adv-x="1478" 
d="M307.5 374.5q157.5 -126.5 386.5 -126.5v975q-231 0 -387.5 -127t-156.5 -361t157.5 -360.5zM1171 1096q-158 127 -387 127v-975q233 0 389 126.5t156 360.5t-158 361zM1235 317.5q-184 -147.5 -451 -147.5v-170h-90v170q-272 0 -453.5 147t-181.5 417t183.5 418
t451.5 148v162h90v-162q274 0 454.5 -146.5t180.5 -417.5t-184 -418.5z" />
    <glyph glyph-name="afii10039" unicode="&#x425;" horiz-adv-x="1138" 
d="M2 1462h104l463 -643l473 643h103l-516 -710l545 -752h-109l-496 684l-497 -684h-107l549 752z" />
    <glyph glyph-name="afii10040" unicode="&#x426;" horiz-adv-x="1402" 
d="M1303 0h-1174v1462h90v-1384h934v1384h90v-1384h148v-455h-88v377z" />
    <glyph glyph-name="afii10041" unicode="&#x427;" horiz-adv-x="1257" 
d="M1038 713q-248 -90 -493 -90t-345 112t-100 350v377h90v-370q0 -203 79.5 -297.5t287.5 -94.5t481 91v671h90v-1462h-90v713z" />
    <glyph glyph-name="afii10042" unicode="&#x428;" horiz-adv-x="2064" 
d="M1845 1462h90v-1462h-1806v1462h90v-1384h768v1384h90v-1384h768v1384z" />
    <glyph glyph-name="afii10043" unicode="&#x429;" horiz-adv-x="2095" 
d="M1845 1462h90v-1384h148v-455h-88v377h-1866v1462h90v-1384h768v1384h90v-1384h768v1384z" />
    <glyph glyph-name="afii10044" unicode="&#x42a;" horiz-adv-x="1593" 
d="M1079 78q168 0 265.5 87t97.5 246.5t-96.5 245.5t-264.5 86h-518v-665h516zM473 1384h-502v78h592v-641h531q205 0 321.5 -106.5t116.5 -298.5t-119.5 -304t-325.5 -112h-614v1384z" />
    <glyph glyph-name="afii10045" unicode="&#x42b;" horiz-adv-x="1638" 
d="M735 78q168 0 265.5 87t97.5 246.5t-96.5 245.5t-264.5 86h-518v-665h516zM129 1462h90v-641h531q205 0 321.5 -106.5t116.5 -298.5t-119.5 -304t-325.5 -112h-614v1462zM1419 1462h90v-1462h-90v1462z" />
    <glyph glyph-name="afii10046" unicode="&#x42c;" horiz-adv-x="1249" 
d="M735 78q168 0 265.5 87t97.5 246.5t-96.5 245.5t-264.5 86h-518v-665h516zM129 1462h90v-641h531q205 0 321.5 -106.5t116.5 -298.5t-119.5 -304t-325.5 -112h-614v1462z" />
    <glyph glyph-name="afii10047" unicode="&#x42d;" horiz-adv-x="1441" 
d="M520 799h768q-20 290 -164 455t-397 165q-207 0 -351.5 -102.5t-195.5 -280.5h-90q59 213 220 337t419 124q305 0 477 -206t172 -558t-187 -560t-482 -208t-463 164t-187 430h88q16 -227 162.5 -371.5t400.5 -144.5t417 187.5t163 490.5h-770v78z" />
    <glyph glyph-name="afii10048" unicode="&#x42e;" horiz-adv-x="2007" 
d="M643 731q0 -141 41 -266t119 -218t190.5 -148.5t256 -55.5t255 55.5t189.5 148.5t118.5 218t40.5 266t-40.5 266t-118.5 218.5t-189.5 148.5t-255 55t-256 -55t-190.5 -148.5t-119 -218.5t-41 -266zM1944 731q0 -330 -187.5 -548t-507.5 -218t-506 214t-190 542h-334
v-721h-90v1462h90v-663h336q16 303 202.5 500.5t498.5 197.5t500 -218t188 -548z" />
    <glyph glyph-name="afii10049" unicode="&#x42f;" horiz-adv-x="1290" 
d="M543 1384q-168 0 -266.5 -82.5t-98.5 -242.5t101 -238t264 -78h528v641h-528zM1071 666h-510l-483 -666h-105l496 672q-169 12 -274 110t-105 281t120 291t333 108h618v-1462h-90v666z" />
    <glyph glyph-name="afii10065" unicode="&#x430;" horiz-adv-x="1024" 
d="M143 272q0 -117 74 -173t205 -56t209 48t119 110.5t52 121t11 78.5v197q-29 -35 -87 -47t-130 -19l-131 -12q-151 -16 -207.5 -49t-85.5 -79t-29 -120zM427 1077q290 0 377 -74.5t87 -195.5v-612q0 -62 10.5 -94.5t59.5 -32.5q20 0 57 6v-66q-31 -8 -71 -8
q-77 0 -105.5 40t-28.5 114v55h-4q-37 -98 -140.5 -166t-261.5 -68q-157 0 -249 73t-92 231t109 223.5t278 81.5l120 10q158 11 194 45.5t42 71.5t6 86q0 96 -71 154.5t-217 58.5t-233 -70t-95 -211h-78q16 348 306 348z" />
    <glyph glyph-name="afii10066" unicode="&#x431;" horiz-adv-x="1099" 
d="M278 847.5q-116 -123.5 -116 -328.5t112 -340.5t286 -135.5q175 0 284.5 128.5t109.5 338.5t-109.5 335.5t-280 125.5t-286.5 -123.5zM900.5 124q-131.5 -149 -347.5 -149q-217 0 -343 160t-126 420q0 396 111 586t360 221l172 22q84 10 115.5 28t42.5 50h90
q-17 -76 -62.5 -107.5t-169.5 -47.5l-170 -21q-192 -23 -285.5 -144.5t-129.5 -383.5h4q61 150 171.5 215t224.5 65t199 -36.5t180 -143t95 -345.5q0 -240 -131.5 -389z" />
    <glyph glyph-name="afii10067" unicode="&#x432;" horiz-adv-x="1024" 
d="M588 68q141 0 217 58t76 166t-72 169t-213 61h-401v-454h393zM195 985v-395h397q117 0 183.5 51t66.5 146t-64.5 146.5t-183.5 51.5h-399zM958 293q0 -141 -97 -217t-271 -76h-473v1053h483q156 0 238 -69t82 -178q0 -201 -195 -243v-4q233 -43 233 -266z" />
    <glyph glyph-name="afii10068" unicode="&#x433;" horiz-adv-x="811" 
d="M193 0h-78v1053h692v-68h-614v-985z" />
    <glyph glyph-name="afii10069" unicode="&#x434;" horiz-adv-x="1099" 
d="M870 985h-491v-88q0 -246 -32 -450.5t-118 -378.5h641v917zM303 899v154h645v-985h133v-398h-77v330h-904v-330h-77v398h124q156 301 156 831z" />
    <glyph glyph-name="afii10070" unicode="&#x435;" 
d="M540 1010q-175 0 -276 -121t-117 -305h771q-13 286 -150 356t-228 70zM145 516v-12q0 -194 101 -327.5t272 -133.5q172 0 264 83t127 230h78q-35 -184 -150.5 -282.5t-322.5 -98.5t-327.5 150.5t-120.5 389.5t124.5 400.5t345.5 161.5t341 -147.5t120 -368.5l-2 -45h-850
z" />
    <glyph glyph-name="afii10072" unicode="&#x436;" horiz-adv-x="1478" 
d="M700 1053h78v-580l563 580h111l-432 -439l481 -614h-106l-434 553l-183 -184v-369h-78v367l-184 186l-436 -553h-103l480 610l-430 443h116l557 -578v578z" />
    <glyph glyph-name="afii10073" unicode="&#x437;" horiz-adv-x="962" 
d="M135 354q0 -311 348 -311q131 0 229.5 67.5t98.5 189.5t-85 172t-237 50h-114v70h94q213 0 264 71.5t51 133.5q0 104 -79.5 158.5t-216.5 54.5t-224.5 -60.5t-99.5 -206.5h-78q4 168 116.5 251t295.5 83q255 0 309.5 -105t54.5 -187t-62.5 -144.5t-162.5 -79.5v-2
q252 -30 252 -254q0 -154 -117.5 -242t-302.5 -88t-298.5 91.5t-113.5 287.5h78z" />
    <glyph glyph-name="afii10074" unicode="&#x438;" 
d="M870 946h-2l-657 -946h-96v1053h78v-951h2l655 951h98v-1053h-78v946z" />
    <glyph glyph-name="afii10075" unicode="&#x439;" 
d="M541 1296q78 0 132 49.5t68 129.5h68q-13 -102 -90 -174t-186 -72t-187 64.5t-92 181.5h68q22 -96 81.5 -137.5t137.5 -41.5zM870 946h-2l-657 -946h-96v1053h78v-951h2l655 951h98v-1053h-78v946z" />
    <glyph glyph-name="afii10076" unicode="&#x43a;" horiz-adv-x="948" 
d="M119 1053h78v-576l649 576h112l-460 -410l493 -643h-106l-449 584l-239 -203v-381h-78v1053z" />
    <glyph glyph-name="afii10077" unicode="&#x43b;" horiz-adv-x="1073" 
d="M104 53q91 0 134 76.5t51 267.5l24 656h645v-1053h-77v985h-492l-22 -594q-11 -331 -104 -371t-150 -40t-109 22v76q52 -25 100 -25z" />
    <glyph glyph-name="afii10078" unicode="&#x43c;" horiz-adv-x="1290" 
d="M193 0h-78v1053h127l403 -957l404 957h127v-1053h-78v979h-4l-406 -979h-86l-405 979h-4v-979z" />
    <glyph glyph-name="afii10079" unicode="&#x43d;" 
d="M870 526h-677v-526h-78v1053h78v-459h677v459h78v-1053h-78v526z" />
    <glyph glyph-name="afii10080" unicode="&#x43e;" horiz-adv-x="1099" 
d="M143 526.5q0 -94.5 27 -181.5t78 -154.5t127 -107.5t174 -40t174 40t127 107.5t77.5 154.5t26.5 181.5t-26.5 181.5t-77.5 154.5t-127 107.5t-174 40t-174 -40t-127 -107.5t-78 -154.5t-27 -181.5zM66 526.5q0 112.5 31.5 212t93 175t151.5 119.5t207 44t207 -44
t151.5 -119.5t93 -175t31.5 -212t-31.5 -213t-93 -175.5t-151.5 -119t-207 -44t-207 44t-151.5 119t-93 175.5t-31.5 213z" />
    <glyph glyph-name="afii10081" unicode="&#x43f;" 
d="M193 985v-985h-78v1053h833v-1053h-78v985h-677z" />
    <glyph glyph-name="afii10082" unicode="&#x440;" horiz-adv-x="1138" 
d="M594 43q199 0 299 136.5t100 339.5t-98 347t-296 144q-197 0 -291.5 -138.5t-94.5 -410t137.5 -345t243.5 -73.5zM211 811h4q31 99 128.5 182.5t236.5 83.5q247 0 369 -157.5t122 -395.5q0 -387 -176 -468t-302 -81t-228.5 57.5t-149.5 186.5h-4v-596h-78v1430h78v-242z
" />
    <glyph glyph-name="afii10083" unicode="&#x441;" 
d="M538 1010q-85 0 -161 -40t-154 -141.5t-78 -307.5t104.5 -342t301.5 -136q144 0 244 89.5t123 238.5h77q-24 -186 -148.5 -291t-295.5 -105q-241 0 -362 160.5t-121 397t129 390.5t354 154q177 0 297.5 -89t136.5 -261h-78q-12 136 -110.5 209.5t-258.5 73.5z" />
    <glyph glyph-name="afii10084" unicode="&#x442;" horiz-adv-x="909" 
d="M494 0h-78v985h-400v68h877v-68h-399v-985z" />
    <glyph glyph-name="afii10085" unicode="&#x443;" horiz-adv-x="909" 
d="M100 -377v68q84 0 131 13t79 45t56.5 92.5t61.5 164.5l-440 1047h92l391 -961l360 961h89l-451 -1166q-33 -78 -60.5 -134t-65.5 -86t-94 -37t-149 -7z" />
    <glyph glyph-name="afii10086" unicode="&#x444;" horiz-adv-x="1568" 
d="M231.5 176.5q77.5 -133.5 235.5 -133.5q113 0 195.5 79t82.5 189v424q0 115 -78 195t-175 80t-159.5 -40t-120.5 -138t-58 -310t77.5 -345.5zM1339 873q-76 137 -243 137q-106 0 -189.5 -81.5t-83.5 -193.5v-424q0 -113 79.5 -190.5t174.5 -77.5t155 37t121.5 135.5
t61.5 309.5t-76 348zM462 -25q-188 0 -287 154.5t-99 392.5t102.5 396.5t298.5 158.5q100 0 170 -46t98 -107v538h78v-544q41 66 115 112.5t172 46.5t171 -44t120 -119.5t69.5 -175t22.5 -274.5t-105.5 -332t-289.5 -157q-100 0 -170 43t-105 111v-506h-78v506
q-41 -66 -112.5 -110t-170.5 -44z" />
    <glyph glyph-name="afii10087" unicode="&#x445;" horiz-adv-x="909" 
d="M401 553l-385 500h109l330 -441l331 441h101l-381 -500l416 -553h-107l-360 494l-369 -494h-98z" />
    <glyph glyph-name="afii10088" unicode="&#x446;" horiz-adv-x="1099" 
d="M1004 0h-889v1053h78v-985h677v985h78v-985h133v-398h-77v330z" />
    <glyph glyph-name="afii10089" unicode="&#x447;" horiz-adv-x="989" 
d="M430 432q-166 0 -254 78t-88 260v283h78v-287q0 -141 70.5 -203.5t199.5 -62.5q181 0 361 69v484h77v-1053h-77v502q-201 -70 -367 -70z" />
    <glyph glyph-name="afii10090" unicode="&#x448;" horiz-adv-x="1572" 
d="M1458 0h-1343v1053h78v-985h555v985h77v-985h555v985h78v-1053z" />
    <glyph glyph-name="afii10091" unicode="&#x449;" horiz-adv-x="1615" 
d="M1513 0h-1398v1053h78v-985h555v985h77v-985h555v985h78v-985h133v-398h-78v330z" />
    <glyph glyph-name="afii10092" unicode="&#x44a;" horiz-adv-x="1251" 
d="M1116 304q0 110 -67.5 175.5t-192.5 65.5h-412v-477h410q127 0 194.5 63t67.5 173zM367 985h-351v68h428v-441h424q154 0 240 -80t86 -224t-88 -226t-242 -82h-497v985z" />
    <glyph glyph-name="afii10093" unicode="&#x44b;" horiz-adv-x="1290" 
d="M844 304q0 110 -67.5 175.5t-192.5 65.5h-391v-477h389q127 0 194.5 63t67.5 173zM115 1053h78v-441h403q154 0 240 -80t86 -224t-88.5 -226t-241.5 -82h-477v1053zM1098 1053h78v-1053h-78v1053z" />
    <glyph glyph-name="afii10094" unicode="&#x44c;" horiz-adv-x="999" 
d="M864 304q0 110 -67.5 175.5t-192.5 65.5h-411v-477h409q127 0 194.5 63t67.5 173zM115 1053h78v-441h423q154 0 240 -80t86 -224t-88 -226t-242 -82h-497v1053z" />
    <glyph glyph-name="afii10095" unicode="&#x44d;" 
d="M344 584h567q-14 199 -112.5 312.5t-280.5 113.5q-143 0 -237.5 -72t-124.5 -195h-78q35 158 147.5 246t292.5 88q229 0 351 -147.5t122 -405.5t-128.5 -403.5t-352.5 -145.5q-186 0 -306 97.5t-143 277.5h78q18 -147 118.5 -227t250.5 -80q193 0 297 128t108 345h-569
v68z" />
    <glyph glyph-name="afii10096" unicode="&#x44e;" horiz-adv-x="1495" 
d="M539 526.5q0 -94.5 26.5 -181.5t77.5 -154.5t127 -107.5t174 -40t174 40t127 107.5t78 154.5t27 181.5t-27 181.5t-78 154.5t-127 107.5t-174 40t-174 -40t-127 -107.5t-77.5 -154.5t-26.5 -181.5zM193 526v-526h-78v1053h78v-459h270q17 209 145.5 346t344.5 137
t345 -158t129 -393.5t-129 -393t-354 -157.5t-354 157.5t-129 393.5h-268z" />
    <glyph glyph-name="afii10097" unicode="&#x44f;" horiz-adv-x="999" 
d="M807 985h-389q-125 0 -191.5 -64.5t-66.5 -172.5t66.5 -167t183.5 -59h397v463zM410 1053h475v-1053h-78v455h-365l-344 -455h-98l352 457q-118 13 -195 88t-77 208q0 134 88 217t242 83z" />
    <glyph glyph-name="uni0450" unicode="&#x450;" 
d="M540 1010q-175 0 -276 -121t-117 -305h771q-13 286 -150 356t-228 70zM145 516v-12q0 -194 101 -327.5t272 -133.5q172 0 264 83t127 230h78q-35 -184 -150.5 -282.5t-322.5 -98.5t-327.5 150.5t-120.5 389.5t124.5 400.5t345.5 161.5t341 -147.5t120 -368.5l-2 -45h-850
zM535 1208l-275 287h105l245 -287h-75z" />
    <glyph glyph-name="afii10071" unicode="&#x451;" 
d="M540 1010q-175 0 -276 -121t-117 -305h771q-13 286 -150 356t-228 70zM145 516v-12q0 -194 101 -327.5t272 -133.5q172 0 264 83t127 230h78q-35 -184 -150.5 -282.5t-322.5 -98.5t-327.5 150.5t-120.5 389.5t124.5 400.5t345.5 161.5t341 -147.5t120 -368.5l-2 -45h-850
zM328 1235v211h90v-211h-90zM651 1235v211h90v-211h-90z" />
    <glyph glyph-name="afii10099" unicode="&#x452;" 
d="M870 156v485q0 136 -35.5 201t-96 104t-158.5 39q-183 0 -285 -121.5t-102 -318.5v-545h-78v1206h-138v68h138v188h78v-188h464v-68h-464v-403h4q38 113 142 181.5t215 68.5t176 -22.5t123 -75t76.5 -139.5t18.5 -189v-465q0 -248 -117.5 -396.5t-371.5 -166.5v75
q411 23 411 482z" />
    <glyph glyph-name="afii10100" unicode="&#x453;" horiz-adv-x="811" 
d="M565 1495h105l-275 -287h-76zM193 0h-78v1053h692v-68h-614v-985z" />
    <glyph glyph-name="afii10101" unicode="&#x454;" horiz-adv-x="1058" 
d="M535 -25q-227 0 -348 146.5t-121 402.5t131.5 404.5t359.5 148.5q178 0 289.5 -87t136.5 -247h-78q-20 127 -112.5 197t-235.5 70q-182 0 -289.5 -114t-122.5 -312h568v-68h-570q4 -217 102.5 -345t291.5 -128q150 0 251 80t125 227h78q-29 -180 -150.5 -277.5
t-305.5 -97.5z" />
    <glyph glyph-name="afii10102" unicode="&#x455;" horiz-adv-x="985" 
d="M834 266q0 88 -53.5 133t-134.5 70t-174 40t-174 46t-134 87t-53 150t63.5 189.5t327.5 95.5q263 0 321 -123t58 -213h-78q0 203 -123 236t-182 33q-131 0 -220.5 -51t-89.5 -152q0 -153 143.5 -185t214.5 -46q184 -38 274.5 -98.5t90.5 -212.5q0 -151 -121.5 -220.5
t-298.5 -69.5t-295 98.5t-122 276.5h78q8 -140 104 -223.5t234 -83.5q142 0 243 50.5t101 172.5z" />
    <glyph glyph-name="afii10103" unicode="&#x456;" horiz-adv-x="344" 
d="M133 0v1053h78v-1053h-78zM133 1251v211h78v-211h-78z" />
    <glyph glyph-name="afii10104" unicode="&#x457;" horiz-adv-x="344" 
d="M-35 1235v211h90v-211h-90zM289 1235v211h90v-211h-90zM133 0v1053h78v-1053h-78z" />
    <glyph glyph-name="afii10105" unicode="&#x458;" horiz-adv-x="344" 
d="M-14 -311q79 0 113 42.5t34 162.5v1159h78v-1166q0 -125 -32 -173t-74 -69.5t-88 -21.5h-39q-39 0 -48 2v68q20 -4 56 -4zM133 1251v211h78v-211h-78z" />
    <glyph glyph-name="afii10106" unicode="&#x459;" horiz-adv-x="1593" 
d="M1458 304q0 110 -67.5 175.5t-192.5 65.5h-301v-477h299q127 0 194.5 63t67.5 173zM104 53q91 0 134 76.5t51 267.5l24 656h584v-441h313q154 0 240 -80t86 -224t-88 -226t-242 -82h-387v985h-430l-22 -594q-11 -331 -104 -371t-150 -40t-109 22v76q52 -25 100 -25z" />
    <glyph glyph-name="afii10107" unicode="&#x45a;" horiz-adv-x="1581" 
d="M1446 304q0 110 -67.5 175.5t-192.5 65.5h-330v-477h328q127 0 194.5 63t67.5 173zM856 612h342q154 0 240 -80t86 -224t-88 -226t-242 -82h-416v545h-585v-545h-78v1053h78v-441h585v441h78v-441z" />
    <glyph glyph-name="afii10108" unicode="&#x45b;" 
d="M657 1206h-464v-403h4q38 113 142 181.5t215 68.5t176 -22.5t123 -75t76.5 -139.5t18.5 -189v-627h-78v641q0 136 -35.5 201t-96 104t-158.5 39q-183 0 -285 -121.5t-102 -318.5v-545h-78v1206h-138v68h138v188h78v-188h464v-68z" />
    <glyph glyph-name="afii10109" unicode="&#x45c;" horiz-adv-x="948" 
d="M649 1495h105l-275 -287h-76zM119 1053h78v-576l649 576h112l-460 -410l493 -643h-106l-449 584l-239 -203v-381h-78v1053z" />
    <glyph glyph-name="uni045D" unicode="&#x45d;" 
d="M530 1208l-274 287h104l246 -287h-76zM870 946h-2l-657 -946h-96v1053h78v-951h2l655 951h98v-1053h-78v946z" />
    <glyph glyph-name="afii10110" unicode="&#x45e;" horiz-adv-x="909" 
d="M100 -377v68q84 0 131 13t79 45t56.5 92.5t61.5 164.5l-440 1047h92l391 -961l360 961h89l-451 -1166q-33 -78 -60.5 -134t-65.5 -86t-94 -37t-149 -7zM480 1296q77 0 131.5 49.5t68.5 129.5h68q-12 -101 -89 -173.5t-187 -72.5t-187.5 64.5t-91.5 181.5h67
q21 -95 82 -137t138 -42z" />
    <glyph glyph-name="afii10193" unicode="&#x45f;" 
d="M115 0v1053h78v-985h677v985h78v-1053h-377v-330h-77v330h-379z" />
    <glyph glyph-name="afii10146" unicode="&#x462;" horiz-adv-x="1404" 
d="M891 78q168 0 265 87t97 246.5t-96 245.5t-264 86h-518v-665h516zM-27 1247h312v215h90v-215h459v-78h-459v-348h530q205 0 321.5 -106.5t116.5 -299.5t-119.5 -304t-324.5 -111h-614v1169h-312v78z" />
    <glyph glyph-name="afii10194" unicode="&#x463;" horiz-adv-x="1134" 
d="M999 304q0 110 -67.5 175.5t-192.5 65.5h-411v-477h409q127 0 194.5 63t67.5 173zM250 985h-256v68h256v409h78v-409h397v-68h-397v-373h424q154 0 239.5 -80t85.5 -224t-88 -226t-241 -82h-498v985z" />
    <glyph glyph-name="uni046A" unicode="&#x46a;" horiz-adv-x="1781" 
d="M1278 1384h-780l385 -565zM100 410q0 183 81.5 291t340.5 108h279l-475 653h1120l-479 -653h293q259 0 329 -93t81 -165t11 -141v-410h-90v401q0 144 -41 204.5t-108.5 92t-184.5 31.5h-323v-729h-90v729h-320q-210 0 -272 -92.5t-62 -235.5v-401h-90v410z" />
    <glyph glyph-name="uni046B" unicode="&#x46b;" horiz-adv-x="1353" 
d="M954 985h-557l281 -350zM88 258q0 176 74 245.5t225 69.5h256l-387 480h838l-369 -480h242q152 0 225.5 -69.5t73.5 -245.5v-258h-78v272q0 144 -67.5 189t-180.5 45h-223v-506h-78v506h-225q-113 0 -180.5 -45t-67.5 -189v-272h-78v258z" />
    <glyph glyph-name="afii10147" unicode="&#x472;" horiz-adv-x="1517" 
d="M1197 238q165 195 169 483h-1214q4 -291 169 -484.5t438 -193.5t438 195zM336.5 1243q-161.5 -176 -182.5 -444h1208q-21 266 -181 443t-421 177q-262 0 -423.5 -176zM1454 731q0 -160 -47 -300t-136 -243.5t-218 -163t-293 -59.5t-294 59.5t-219 163t-136.5 243.5
t-47.5 300t47.5 300t136.5 243.5t219 163t294 59.5t293 -59.5t218 -163t136 -243.5t47 -300z" />
    <glyph glyph-name="afii10195" unicode="&#x473;" horiz-adv-x="1099" 
d="M549 43q187 0 295 138.5t112 334.5h-815q4 -195 112.5 -334t295.5 -139zM269.5 889q-107.5 -121 -126.5 -305h811q-17 183 -126 304.5t-280 121.5t-278.5 -121zM66 526.5q0 112.5 31.5 212t93 175t151.5 119.5t207 44t207 -44t151.5 -119.5t93 -175t31.5 -212t-31.5 -213
t-93 -175.5t-151.5 -119t-207 -44t-207 44t-151.5 119t-93 175.5t-31.5 213z" />
    <glyph glyph-name="afii10148" unicode="&#x474;" horiz-adv-x="1224" 
d="M1222 1419q-40 0 -77 -28.5t-68 -116.5l-456 -1274h-105l-545 1462h95l501 -1384h4l426 1225q39 113 96.5 153.5t111.5 40.5t100 -12v-80q-43 14 -83 14z" />
    <glyph glyph-name="afii10196" unicode="&#x475;" horiz-adv-x="942" 
d="M934 1077q51 0 84 -8v-70q-33 11 -71 11t-64.5 -27t-51.5 -98l-315 -885h-96l-424 1053h90l381 -963h4l287 821q58 166 176 166z" />
    <glyph glyph-name="Izhitsadblgravecyrillic" unicode="&#x476;" horiz-adv-x="1224" 
d="M442 1597l-274 287h104l246 -287h-76zM766 1597l-274 287h104l246 -287h-76zM1222 1419q-40 0 -77 -28.5t-68 -116.5l-456 -1274h-105l-545 1462h95l501 -1384h4l426 1225q39 113 96.5 153.5t111.5 40.5t100 -12v-80q-43 14 -83 14z" />
    <glyph glyph-name="izhitsadblgravecyrillic" unicode="&#x477;" horiz-adv-x="942" 
d="M328 1210l-275 287h105l245 -287h-75zM651 1210l-274 287h104l246 -287h-76zM934 1077q51 0 84 -8v-70q-33 11 -71 11t-64.5 -27t-51.5 -98l-315 -885h-96l-424 1053h90l381 -963h4l287 821q58 166 176 166z" />
    <glyph glyph-name="uni048C" unicode="&#x48c;" horiz-adv-x="1705" 
d="M952 78q168 0 265.5 87t97.5 246.5t-96.5 245.5t-264.5 86h-518v-665h516zM35 1452h311v215h90v-215h357v-78h-357v-553h531q205 0 321.5 -106.5t116.5 -298.5t-119.5 -304t-324.5 -112h-615v1374h-311v78z" />
    <glyph glyph-name="uni048D" unicode="&#x48d;" horiz-adv-x="1705" 
d="M999 304q0 110 -67.5 175.5t-192.5 65.5h-411v-477h409q127 0 194.5 63t67.5 173zM250 965h-256v67h256v271h78v-271h254v-67h-254v-353h424q154 0 239.5 -80t85.5 -224t-88 -226t-241 -82h-498v965z" />
    <glyph glyph-name="afii10050" unicode="&#x490;" horiz-adv-x="993" 
d="M129 1462h795v344h88v-422h-793v-1384h-90v1462z" />
    <glyph glyph-name="afii10098" unicode="&#x491;" horiz-adv-x="811" 
d="M193 0h-78v1053h606v325h78v-393h-606v-985z" />
    <glyph glyph-name="Ghestrokecyrillic" unicode="&#x492;" horiz-adv-x="1142" 
d="M-29 799h273v663h893v-78h-803v-585h446v-78h-446v-721h-90v721h-273v78z" />
    <glyph glyph-name="ghestrokecyrillic" unicode="&#x493;" horiz-adv-x="940" 
d="M322 0h-78v500h-228v67h228v486h692v-68h-614v-418h376v-67h-376v-500z" />
    <glyph glyph-name="Zhedescendercyrillic" unicode="&#x496;" horiz-adv-x="2048" 
d="M958 1462h91v-768l835 768h117l-625 -573l588 -785h119v-481h-88v377h-64l-620 829l-262 -239v-590h-91v588l-264 241l-620 -829h-109l666 887l-625 575h121l831 -766v766z" />
    <glyph glyph-name="zhedescendercyrillic" unicode="&#x497;" horiz-adv-x="1478" 
d="M700 1053h78v-580l563 580h111l-432 -439l420 -536h114v-408h-77v330h-82l-434 553l-183 -184v-369h-78v367l-184 186l-436 -553h-103l480 610l-430 443h116l557 -578v578z" />
    <glyph glyph-name="Zedescendercyrillic" unicode="&#x498;" horiz-adv-x="1277" 
d="M702 -156q-46 0 -102 -24l-33 26l89 119h-7q-412 0 -495.5 192.5t-83.5 325.5h90q4 -227 135 -333.5t340 -106.5t340 96.5t131 270.5q0 311 -432 311h-56q-57 0 -90 -2v80q33 -2 41 -2h105q273 0 337 110.5t64 193.5q0 160 -114 239t-295 79q-312 0 -383.5 -136
t-77.5 -236h-90q15 224 162.5 337t378.5 113q230 0 369.5 -100.5t139.5 -290.5q0 -150 -89.5 -235.5t-213.5 -102.5v-4q334 -53 334 -358q0 -210 -143.5 -315.5t-327.5 -121.5l-72 -84l2 -2q35 15 88 15t97.5 -34t44.5 -110t-57.5 -115.5t-151.5 -39.5t-180 51l22 49
q88 -45 153 -45q136 0 136 102q0 39 -29.5 63.5t-75.5 24.5z" />
    <glyph glyph-name="zedescendercyrillic" unicode="&#x499;" horiz-adv-x="962" 
d="M135 354q0 -311 348 -311q131 0 229.5 67.5t98.5 189.5t-85 172t-237 50h-114v70h94q213 0 264 71.5t51 133.5q0 104 -79.5 158.5t-216.5 54.5t-224.5 -60.5t-99.5 -206.5h-78q4 168 116.5 251t295.5 83q255 0 309.5 -105t54.5 -187t-62.5 -144.5t-162.5 -79.5v-2
q252 -30 252 -254q0 -154 -113.5 -239t-269.5 -90l-78 -91l2 -2q35 15 88 15t97 -34t44 -110t-57 -115.5t-151 -39.5t-181 51l23 49q88 -45 153 -45q136 0 136 102q0 39 -30 63.5t-77 24.5t-100 -24l-33 26l97 131q-167 9 -275 95t-107 282h78z" />
    <glyph glyph-name="Kadescendercyrillic" unicode="&#x49a;" horiz-adv-x="1308" 
d="M129 1462h90v-841l920 841h116l-667 -608l622 -750h140v-481h-88v377h-78l-662 793l-303 -277v-516h-90v1462z" />
    <glyph glyph-name="kadescendercyrillic" unicode="&#x49b;" horiz-adv-x="948" 
d="M119 1053h78v-576l649 576h112l-460 -410l434 -565h110v-408h-77v330h-80l-449 584l-239 -203v-381h-78v1053z" />
    <glyph glyph-name="Kaverticalstrokecyrillic" unicode="&#x49c;" horiz-adv-x="1255" 
d="M416 729h-197v-729h-90v1462h90v-657h197v344h65v-344h76l582 657h116l-626 -694l667 -768h-112l-639 729h-64v-369h-65v369z" />
    <glyph glyph-name="kaverticalstrokecyrillic" unicode="&#x49d;" horiz-adv-x="948" 
d="M336 520h-139v-520h-78v1053h78v-461h139v258h57v-258h72l381 461h112l-419 -490l452 -563h-106l-422 520h-70v-274h-57v274z" />
    <glyph glyph-name="Kabashkircyrillic" unicode="&#x4a0;" horiz-adv-x="1599" 
d="M-29 1462h592v-841l920 841h116l-667 -608l708 -854h-112l-662 793l-303 -277v-516h-90v1384h-502v78z" />
    <glyph glyph-name="kabashkircyrillic" unicode="&#x4a1;" horiz-adv-x="1196" 
d="M444 1053v-576l650 576h112l-461 -410l494 -643h-106l-449 584l-240 -203v-381h-77v985h-351v68h428z" />
    <glyph glyph-name="Endescendercyrillic" unicode="&#x4a2;" horiz-adv-x="1372" 
d="M129 1462h90v-663h934v663h90v-1358h88v-481h-88v377h-90v721h-934v-721h-90v1462z" />
    <glyph glyph-name="endescendercyrillic" unicode="&#x4a3;" 
d="M870 526h-677v-526h-78v1053h78v-459h677v459h78v-975h78v-408h-78v330h-78v526z" />
    <glyph glyph-name="Enghecyrillic" unicode="&#x4a4;" horiz-adv-x="2017" 
d="M129 1462h90v-663h934v663h893v-78h-803v-1384h-90v721h-934v-721h-90v1462z" />
    <glyph glyph-name="enghecyrillic" unicode="&#x4a5;" horiz-adv-x="1566" 
d="M870 1053h693v-68h-615v-985h-78v526h-677v-526h-78v1053h78v-459h677v459z" />
    <glyph glyph-name="Esdescendercyrillic" unicode="&#x4aa;" horiz-adv-x="1441" 
d="M783 -156q-46 0 -101 -24l-33 26l89 120q-299 10 -481.5 222t-182.5 543t187 548.5t509 217.5q231 0 362.5 -102t178.5 -216t47 -153h-90q-27 179 -168.5 286t-329.5 107q-278 0 -442 -198t-164 -490.5t118.5 -434.5t232 -197.5t237.5 -55.5q227 0 377.5 157t162.5 369
h90q-24 -260 -190 -426t-388 -177l-69 -81l2 -2q35 15 88 15t97.5 -34t44.5 -110t-57.5 -115.5t-152.5 -39.5t-179 51l22 49q88 -45 153 -45q136 0 136 102q0 39 -30 63.5t-76 24.5z" />
    <glyph glyph-name="esdescendercyrillic" unicode="&#x4ab;" 
d="M557 -156q-47 0 -100 -24l-33 26l97 130q-219 10 -336 165t-117 391.5t129 390.5t354 154q177 0 297.5 -89t136.5 -261h-78q-12 136 -110.5 209.5t-245.5 73.5q-189 0 -297.5 -141.5t-108.5 -347.5t104.5 -342t301.5 -136q144 0 244 89.5t123 238.5h77
q-24 -186 -142 -285.5t-265 -108.5l-78 -92l2 -2q35 15 88 15t97 -34t44 -110t-57 -115.5t-151 -39.5t-181 51l23 49q88 -45 153 -45q136 0 136 102q0 39 -30 63.5t-77 24.5z" />
    <glyph glyph-name="Ustraightcyrillic" unicode="&#x4ae;" horiz-adv-x="1175" 
d="M631 0h-90v612l-584 850h102l529 -774l530 774h101l-588 -850v-612z" />
    <glyph glyph-name="ustraightcyrillic" unicode="&#x4af;" horiz-adv-x="909" 
d="M514 -377h-86v383l-440 1047h92l391 -961l360 961h89l-406 -1047v-383z" />
    <glyph glyph-name="Ustraightstrokecyrillic" unicode="&#x4b0;" horiz-adv-x="1175" 
d="M631 449h362v-89h-362v-360h-90v360h-357v89h357v163l-584 850h102l529 -774l530 774h101l-588 -850v-163z" />
    <glyph glyph-name="ustraightstrokecyrillic" unicode="&#x4b1;" horiz-adv-x="909" 
d="M428 -94v100l-440 1047h92l391 -961l360 961h89l-406 -1047v-100h297v-68h-297v-215h-86v215h-268v68h268z" />
    <glyph glyph-name="Hadescendercyrillic" unicode="&#x4b2;" horiz-adv-x="1138" 
d="M1212 100v-477h-88v377h-59l-496 684l-497 -684h-107l549 752l-512 710h104l463 -643l473 643h103l-516 -710l472 -652h111z" />
    <glyph glyph-name="hadescendercyrillic" unicode="&#x4b3;" horiz-adv-x="909" 
d="M971 78v-408h-78v330h-78l-360 494l-369 -494h-98l413 553l-385 500h109l330 -441l331 441h101l-381 -500l357 -475h108z" />
    <glyph glyph-name="Chedescendercyrillic" unicode="&#x4b6;" horiz-adv-x="1257" 
d="M1038 713q-248 -90 -493 -90t-345 112t-100 350v377h90v-370q0 -203 79.5 -297.5t287.5 -94.5t481 91v671h90v-1358h89v-481h-89v377h-90v713z" />
    <glyph glyph-name="chedescendercyrillic" unicode="&#x4b7;" horiz-adv-x="989" 
d="M430 432q-166 0 -254 78t-88 260v283h78v-287q0 -141 70.5 -203.5t199.5 -62.5q181 0 361 69v484h77v-975h78v-408h-78v330h-77v502q-201 -70 -367 -70z" />
    <glyph glyph-name="Cheverticalstrokecyrillic" unicode="&#x4b8;" horiz-adv-x="1257" 
d="M637 287h-66v336h-12q-258 0 -358.5 112t-100.5 350v377h90v-370q0 -203 79.5 -297.5t291.5 -94.5h10v340h66v-337q173 11 401 88v671h90v-1462h-90v713q-201 -73 -401 -88v-338z" />
    <glyph glyph-name="cheverticalstrokecyrillic" unicode="&#x4b9;" horiz-adv-x="989" 
d="M504 154h-58v278h-14q-168 0 -256 78t-88 260v283h78v-287q0 -141 70.5 -203.5t199.5 -62.5h10v258h58v-256q147 11 293 67v484h77v-1053h-77v502q-166 -58 -293 -67v-281z" />
    <glyph glyph-name="Shhacyrillic" unicode="&#x4ba;" horiz-adv-x="1257" 
d="M190 750q248 90 493 90t345 -112t100 -351v-377h-90v371q0 200 -77.5 295.5t-289.5 95.5q-211 0 -481 -90v-672h-90v1462h90v-712z" />
    <glyph glyph-name="shhacyrillic" unicode="&#x4bb;" 
d="M193 1462v-635h4q39 114 142 182t214 68q112 -1 177 -23q204 -71 216 -326q2 -44 2 -77v-651h-78v666q0 134 -36 200t-96 105t-158 39t-168 -33q-142 -67 -194 -231q-26 -81 -25 -177v-569h-78v1462h78z" />
    <glyph glyph-name="palochkacyrillic" unicode="&#x4c0;" horiz-adv-x="348" 
d="M129 1462h90v-1462h-90v1462z" />
    <glyph glyph-name="Zhebrevecyrillic" unicode="&#x4c1;" horiz-adv-x="2007" 
d="M958 1462h91v-768l835 768h117l-625 -573l666 -889h-111l-620 829l-262 -239v-590h-91v588l-264 241l-620 -829h-109l666 887l-625 575h121l831 -766v766zM1014 1683q78 0 132 49.5t68 129.5h68q-13 -102 -90 -174t-186 -72t-187 64.5t-92 181.5h68q22 -96 81.5 -137.5
t137.5 -41.5z" />
    <glyph glyph-name="zhebrevecyrillic" unicode="&#x4c2;" horiz-adv-x="1478" 
d="M742 1206q-109 0 -187 64.5t-92 181.5h67q21 -95 81 -136.5t139 -41.5q78 0 132 49t68 129h68q-12 -101 -89.5 -173.5t-186.5 -72.5zM700 1053h78v-580l563 580h111l-432 -439l481 -614h-106l-434 553l-183 -184v-369h-78v367l-184 186l-436 -553h-103l480 610l-430 443
h116l557 -578v578z" />
    <glyph glyph-name="Abrevecyrillic" unicode="&#x4d0;" horiz-adv-x="1214" 
d="M617 1683q77 0 131.5 49.5t68.5 129.5h68q-12 -101 -89 -173.5t-187 -72.5t-187.5 64.5t-91.5 181.5h67q21 -95 82 -137t138 -42zM930 547l-314 827h-4l-325 -827h643zM563 1462h99l577 -1462h-96l-185 469h-700l-186 -469h-97z" />
    <glyph glyph-name="abrevecyrillic" unicode="&#x4d1;" horiz-adv-x="1024" 
d="M552 1298q77 0 131 49.5t69 129.5h67q-13 -102 -90 -174t-186 -72t-186.5 64.5t-92.5 181.5h68q22 -96 82.5 -137.5t137.5 -41.5zM143 272q0 -117 74 -173t205 -56t209 48t119 110.5t52 121t11 78.5v197q-29 -35 -87 -47t-130 -19l-131 -12q-151 -16 -207.5 -49
t-85.5 -79t-29 -120zM427 1077q290 0 377 -74.5t87 -195.5v-612q0 -62 10.5 -94.5t59.5 -32.5q20 0 57 6v-66q-31 -8 -71 -8q-77 0 -105.5 40t-28.5 114v55h-4q-37 -98 -140.5 -166t-261.5 -68q-157 0 -249 73t-92 231t109 223.5t278 81.5l120 10q158 11 194 45.5t42 71.5
t6 86q0 96 -71 154.5t-217 58.5t-233 -70t-95 -211h-78q16 348 306 348z" />
    <glyph glyph-name="Adieresiscyrillic" unicode="&#x4d2;" horiz-adv-x="1214" 
d="M399 1616v211h90v-211h-90zM723 1616v211h90v-211h-90zM930 547l-314 827h-4l-325 -827h643zM563 1462h99l577 -1462h-96l-185 469h-700l-186 -469h-97z" />
    </font>
</defs>
</svg>
